<svg xmlns="http://www.w3.org/2000/svg" version="1.2" baseProfile="tiny" width="100%" height="100%" viewBox="0 0 400 600" preserveAspectRatio="xMinYMin meet">
<g transform="scale(0.99 1) translate(2.020202020202022 0)">
<path fill="#ddb7a0" stroke="#000" stroke-width="6" d="M10 600s-10-65 50-65c5 0 25-15 70-35l70-200 70 200c45 20 65 35 70 35 60 0 50 65 50 65" class="body"/>
</g>
<g transform="scale(0.99 1) translate(2.020202020202022 0)">
<g stroke="#000"><path fill="#89bfd3" stroke-width="6" d="M120 505c0 35 50 25 80 45 30-20 80-10 80-45 30-25 90-15 100-5s10.07 20.41 15 50c5 30 5 20 5 60H0c0-40 0-29.59 5-59.59 4.93-29.59 5-39.38 15-50.41 9.5-10.48 70-20 100 5Z" class="footballPrimary"/><path fill="#7a1319" stroke-width="2" d="M120 505c0 35 50 25 80 45 30-20 80-10 80-45l15-10c5 60-55 45-95 75-40-30-100-15-95-75z" class="collarSecondary"/><path fill="none" stroke-width="6" d="M120 505c0 35 50 25 80 45 30-20 80-10 80-45 30-25 90-15 100-5s10.07 20.41 15 50c5 30 5 20 5 60H0c0-40 0-30 5-60 4.93-29.59 5-38.97 15-50 9.5-10.48 70-20 100 5Z" class="footballStroke"/><path fill="none" stroke-width="2" d="M19.5 570s72.5-2.11 81.5-20m280 20s-71-2.11-80-20" class="shp3"/></g>
</g>
<g transform="translate(32 293.3) scale(0.81 0.81) translate(5.395061728395061 7.4358024691358) translate(23.97 -3)">
<path fill="#ddb7a0" stroke="#000" stroke-width="6" d="M43 8S3-12 3 28c0 45 40 30 40 30z"/>
</g>
<g transform="translate(322 293.3) scale(-0.81 0.81) translate(-51.39506172839506 7.4358024691358) translate(23.97 -3)">
<path fill="#ddb7a0" stroke="#000" stroke-width="6" d="M43 8S3-12 3 28c0 45 40 30 40 30z"/>
</g>
<g transform="scale(0.8260000000000001 1) translate(42.13075060532685 0)">
<path fill="#ddb7a0" stroke="#000" stroke-width="6" d="M200 100c100 0 150 60 150 200-10 160 0 110-100 190-10 10-30 20-50 10-20 10.9-40 0-50-10-100-80-90-30-100-190 0-140 50-200 150-200Z" class="head"/><path fill="rgba(0,0,0,0)" d="M200 410c30 0 50 10 50 10 30 0 90-15 90-120h10c-10 160 0 110-100 190-10 10-30 20-50 10-20 10-38.96-1.17-50-10-100-80-90-30-100-190h10c0 105 60 120 90 120 0 0 20-10 50-10" class="faceShave"/><path fill="rgba(0,0,0,0)" d="M60 300H50c0-140 50-200 150-200s150 60 150 200h-10v-10c0-5-10-20-15-25s-5-55-15-65c-40-40-60 0-110 0s-70-40-110 0c-10 10-10 60-15 65s-15 20-15 25z" class="headShave"/>
</g>
<g>
<path fill="none" stroke="#000" stroke-width="2" d="M220 270s-10 0-10-20m-30 20s10 0 10-20" class="eyeline1"/>
</g>
<g transform="scale(0.8260000000000001 1) translate(42.23607748184018 0)">
<path fill="#CC9966" fill-rule="evenodd" stroke="#000" d="M60 300H50s-10 70 10 130c10 20 30 55 90 55 10-10 0-45-10-55s-30 0-60-30c-20-20-20-70-20-100Zm261 100c-30 30-50 20-60 30s-20 45-10 55c60 0 80-35 90-55 20-60 10-130 10-130h-10c0 30 0 80-20 100Z" class="shp0"/><path fill="#CC9966" stroke="#000" d="M188 458c2-2 22-2 24 0s-8 16-12 16-14-14-12-16Z" class="shp0"/>
</g>
<g transform="translate(-125 -25) rotate(9 265 335)">
<path d="M265 360c-13.8 0-25-11.2-25-25s11.2-25 25-25 25 11.2 25 25-11.2 25-25 25" style="fill:none;stroke:#000;stroke-width:5;stroke-linecap:round;stroke-linejoin:round"/><path d="M265 360c-13.8 0-25-11.2-25-25v-5h50v5c0 13.8-11.2 25-25 25" style="fill:#fff;stroke:#000;stroke-width:5;stroke-linecap:round;stroke-linejoin:round"/><path d="M265 330c-10 0-10 15 0 15s10-15 0-15" style="stroke:#000;stroke-width:4;stroke-linecap:round;stroke-linejoin:round"/>
</g>
<g transform="translate(-5 -25) rotate(-9 265 335) scale(-1 1) translate(-530 0)">
<path d="M265 360c-13.8 0-25-11.2-25-25s11.2-25 25-25 25 11.2 25 25-11.2 25-25 25" style="fill:none;stroke:#000;stroke-width:5;stroke-linecap:round;stroke-linejoin:round"/><path d="M265 360c-13.8 0-25-11.2-25-25v-5h50v5c0 13.8-11.2 25-25 25" style="fill:#fff;stroke:#000;stroke-width:5;stroke-linecap:round;stroke-linejoin:round"/><path d="M265 330c-10 0-10 15 0 15s10-15 0-15" style="stroke:#000;stroke-width:4;stroke-linecap:round;stroke-linejoin:round"/>
</g>
<g transform="translate(99.82499568420577 257.4995916989505) rotate(-3 40.175004315794226 12.50040830104949)">
<path fill="#CC9966" stroke="#000" d="M25.63 10.05c-1.19.67-3.29 2.29-4.68 3.61s-2.66 2.8-2.84 3.29-.13.96.1 1.04 3.5-.28 7.26-.79c3.76-.52 9.13-1.06 11.92-1.21 2.8-.15 9.17-.28 14.14-.29 4.98-.01 11.48.12 14.44.29s6.61.25 8.12.19c1.5-.05 3.59-.27 4.63-.47 1.65-.32 1.85-.53 1.46-1.57-.33-.91-1.38-1.55-4.09-2.53-2-.73-6.19-1.72-9.32-2.22-3.13-.49-8.67-1.19-12.3-1.55-3.64-.36-9.39-.72-12.78-.81-4.83-.11-7.02.06-10.04.83-2.12.53-4.83 1.52-6.02 2.19Z"/><path d="M0 10h5v5H0z" style="fill:none"/>
</g>
<g transform="translate(219.82499568420576 257.4995916989505) rotate(3 40.175004315794226 12.50040830104949) scale(-1 1) translate(-80.35000863158845 0)">
<path fill="#CC9966" stroke="#000" d="M25.63 10.05c-1.19.67-3.29 2.29-4.68 3.61s-2.66 2.8-2.84 3.29-.13.96.1 1.04 3.5-.28 7.26-.79c3.76-.52 9.13-1.06 11.92-1.21 2.8-.15 9.17-.28 14.14-.29 4.98-.01 11.48.12 14.44.29s6.61.25 8.12.19c1.5-.05 3.59-.27 4.63-.47 1.65-.32 1.85-.53 1.46-1.57-.33-.91-1.38-1.55-4.09-2.53-2-.73-6.19-1.72-9.32-2.22-3.13-.49-8.67-1.19-12.3-1.55-3.64-.36-9.39-.72-12.78-.81-4.83-.11-7.02.06-10.04.83-2.12.53-4.83 1.52-6.02 2.19Z"/><path d="M0 10h5v5H0z" style="fill:none"/>
</g>
<g transform="translate(-1.2900000000000205 20.56000000000006) scale(-1 1) translate(-402.58000000000004 0)">
<path d="M198.19 431.84c-7.3-1.3-14.7-2.5-22-3.9a67 67 0 0 1-10.6-3c-4.5-1.6-8.6-3.4-11.8 2.2-.5.9-3.1.6-4.7.9.2-1.5-.1-3.2.6-4.5 2.2-4.6 4.6-9.1 7.1-13.5.7-1.2 2.1-2.1 3.2-3.1.6 1.4 1.7 2.8 1.6 4.1a53.4 53.4 0 0 1-1.7 8.1c27.8 8.4 55.3 8.3 83.4.2-.1-1.3-.2-2.8-.2-4.2s.2-2.8.5-5.8c2 2.2 3.2 3.2 3.9 4.5 2 3.8 4 7.6 5.7 11.6.5 1.2.2 2.7.3 4-1.5-.2-3.3.1-4.4-.7-1.6-1.1-2.6-2.9-3.3-3.6-12.7 2.3-24.7 4.6-36.8 6.8-3.5-.1-7.1-.1-10.8-.1"/>
</g>
<g transform="translate(174.5 336.5) scale(0.59 0.59) translate(17.720338983050848 23.279661016949156)">
<path fill="#ddb7a0" stroke="#000" stroke-width="5" d="m28 1 20 45s-5 20-25 20S3 46 3 46" class="nose"/>
</g>
<g transform="scale(0.8260000000000001 1) translate(42.04120911128009 0)">
<path fill="#CC9966" stroke="#000" stroke-width="4" d="M178.27 84.63c-1.7.39-3.73.99-4.51 1.33-.78.35-3.17 1-5.31 1.44s-4.7 1.45-5.67 2.23c-.98.79-3.05 1.7-4.62 2.03-1.55.33-5.18 1.33-8.06 2.23-2.87.91-6.09 2.38-7.12 3.25-1.05.89-3.02 2.03-4.39 2.55-1.38.51-3.14.78-3.92.59-.77-.19-2.85.21-4.62.88-1.77.68-4.02 1.43-5 1.68-.98.24-2.91 1.09-4.3 1.87-1.39.79-2.84 1.44-3.23 1.45s-1.77.69-3.05 1.5c-1.3.83-2.51 1.51-2.71 1.51s-1.9.86-3.78 1.9c-1.89 1.05-4.22 2.62-5.17 3.48-.96.87-2.05 2.33-2.43 3.24-.66 1.58-.91 1.66-4.45 1.52-3.15-.13-4.16.11-6.4 1.52-1.79 1.13-2.81 2.3-3.14 3.63-.27 1.08-1.22 3.74-2.11 5.91-1.39 3.4-2.42 4.63-7.51 9.03-3.22 2.8-7.19 6.22-8.82 7.58-2.13 1.79-3.18 3.26-3.73 5.21-.43 1.5-1.2 4.5-1.72 6.67s-.99 4.35-1.07 4.85c-.07.5-1.41 2.01-2.97 3.34-2.3 2.01-2.83 2.88-2.97 4.87-.1 1.33-.15 2.83-.1 3.33.04.5-.78 1.73-1.82 2.74-1.04 1-2.11 2.37-2.38 3.04-.28.67-.83 3.54-1.22 6.37-.38 2.84-.69 6.39-.68 7.89.01 2.3-.47 3.45-2.99 7.3-1.6 2.51-3.1 5.53-3.32 6.7-.24 1.17-.11 3.62.26 5.45.63 3.04.57 3.56-.54 5.93-.65 1.42-1.18 3.61-1.18 4.86.02 1.25.35 3.09.75 4.08.62 1.62.56 2.13-.61 4.57-.72 1.5-1.29 3.48-1.28 4.4 0 .92.27 2.43.59 3.33.33.92.95 2.07 1.4 2.58.53.58.9 2.67 1.07 6.06.15 2.92-.01 6.34-.37 7.89-.43 1.89-.45 3.1-.06 3.94.31.67.37 1.63.12 2.13s-.59 2.76-.77 5.01c-.2 2.55-.07 4.62.32 5.46.38.78.65 4.2.64 8.05.01 5.12.27 7.38 1.12 9.71.64 1.67 1.34 4.41 1.58 6.08s.89 3.53 1.45 4.13c.57.59 1.66 1.08 2.41 1.07.77 0 2.61-.83 4.11-1.83 1.49-1 3.01-1.82 3.37-1.82s1.31-.69 2.13-1.52c.8-.84 1.43-2.01 1.39-2.59-.04-.59 1.01-2.31 2.34-3.81 1.34-1.51 2.55-3.23 2.7-3.82.14-.59.62-1.06 1.06-1.05.43.01 1.95-1.37 3.38-3.06s2.72-3.83 2.85-4.75c.14-.92.62-1.81 1.07-1.96.45-.14 1.31-.77 1.92-1.37.66-.66 1.21-2.51 1.38-4.62.16-1.92.83-4.61 1.47-5.94.64-1.35 1.03-2.79.87-3.21s.61-1.93 1.73-3.35c1.62-2.08 1.95-2.97 1.59-4.43-.24-1-.42-2.24-.41-2.74.02-.5.18-1.87.38-3.04.19-1.17.56-3.36.81-4.87.26-1.55 1.17-3.46 2.1-4.42.93-.95 1.65-2.46 1.67-3.5.03-1-.4-2.85-.93-4.09-.53-1.25-.95-2.62-.92-3.04.02-.42.82-1.58 1.78-2.58 1.3-1.34 1.78-2.52 1.84-4.41.04-1.6.5-2.93 1.19-3.5.62-.5 1.15-1.66 1.18-2.58.02-.92-.23-2.14-.57-2.72-.42-.73-.19-2 .74-4.09.75-1.67 2.41-4.2 3.73-5.62 2.07-2.24 2.63-2.54 4.29-2.2 1.05.2 2.07.46 2.26.56s1.31-.1 2.5-.43a66 66 0 0 1 3.61-.89c.8-.15 2.59-.58 4.01-.95 1.41-.39 3.39-1.03 4.41-1.45 1.6-.66 2.22-.59 4.35.45 1.54.75 3.2 1.1 4.34.89 1.03-.19 4.01.05 6.63.51 4.22.76 5.2 1.23 8.04 3.82 2.33 2.1 4.18 3.14 6.46 3.61 2.31.47 3.8.46 5.34-.01 1.16-.37 3.09-1.32 4.28-2.13 1.58-1.06 2.5-1.31 3.47-.92.73.3 2.7.73 4.39.95 1.7.22 3.42.57 3.84.79s2.33.59 4.24.82c1.91.24 4.7.69 6.19 1.01 1.93.4 3.62.35 5.85-.22 1.71-.44 4.35-.97 5.85-1.16 2.13-.28 3.08-.08 4.29.89.86.69 2.96 1.41 4.69 1.62 2.13.25 3.93.05 5.67-.61 1.39-.54 3.15-1.8 3.89-2.8.86-1.16 1.98-1.81 3.1-1.81.96 0 1.88.2 2.05.45s1.48.62 2.92.82c1.66.23 4.12-.03 6.68-.75 2.22-.6 4.48-1.1 5.01-1.1.53.01 2.16-.92 3.61-2.07 2.28-1.82 2.89-2.01 4.57-1.48 1.06.33 2.79.54 3.83.46 1.06-.07 3.73.6 5.97 1.49 2.23.9 4.91 1.64 5.95 1.64 1.03 0 2.65-.31 3.56-.69.92-.38 2.73-1.46 4.03-2.41 1.32-.96 2.77-1.54 3.31-1.31.51.22 3.63.48 6.89.59 4.69.15 6.34-.03 8.03-.9 1.81-.93 2.42-.99 4-.35 1.01.41 3 1.06 4.41 1.44 1.4.38 3.2.81 4 .97.79.15 2.42.55 3.61.89 1.19.33 2.31.52 2.51.42.18-.1 1.2-.35 2.26-.56 1.65-.33 2.21-.04 4.29 2.2 1.3 1.42 2.97 3.95 3.72 5.62.92 2.1 1.15 3.36.72 4.09-.33.58-.59 1.81-.57 2.72.02.92.54 2.08 1.17 2.58.7.57 1.15 1.9 1.19 3.5.04 1.89.53 3.07 1.82 4.4.97 1 1.77 2.17 1.79 2.58.02.42-.4 1.79-.94 3.04-.53 1.24-.96 3.09-.94 4.09.02 1.04.73 2.54 1.67 3.49.92.96 1.81 2.87 2.08 4.42.25 1.5.61 3.69.8 4.85.19 1.17.35 2.54.37 3.04.01.5-.19 1.73-.43 2.73-.36 1.46-.05 2.35 1.58 4.42 1.12 1.43 1.88 2.93 1.71 3.35-.15.42.23 1.85.87 3.2.64 1.33 1.29 4 1.44 5.93.16 2.1.71 3.94 1.38 4.6.61.6 1.47 1.22 1.91 1.37.46.15.94 1.03 1.07 1.95.13.91 1.42 3.05 2.85 4.74 1.42 1.68 2.96 3.06 3.39 3.05.44-.01.92.46 1.06 1.04.15.59 1.37 2.31 2.71 3.81 1.34 1.51 2.4 3.22 2.35 3.81-.04.58.6 1.74 1.42 2.59.84.83 1.8 1.52 2.15 1.52.34 0 1.86.82 3.37 1.82s3.38 1.83 4.15 1.84c.76.02 1.86-.46 2.44-1.05.56-.6 1.23-2.45 1.47-4.12s.96-4.41 1.59-6.08c.87-2.32 1.14-4.58 1.14-9.7 0-3.84.27-7.26.64-8.04.4-.84.53-2.91.34-5.46-.18-2.25-.52-4.51-.77-5.01s-.2-1.46.12-2.13c.39-.83.37-2.04-.07-3.93-.36-1.55-.51-4.97-.36-7.9.17-3.38.54-5.47 1.08-6.06.44-.5 1.07-1.66 1.39-2.58.33-.9.59-2.54.59-3.63-.01-1.09-.59-3.07-1.32-4.4-1.22-2.24-1.27-2.59-.56-4.41.43-1.08.77-2.92.77-4.09s-.55-3.28-1.21-4.7c-1.12-2.36-1.16-2.88-.54-5.93.38-1.83.5-4.28.27-5.45-.22-1.17-1.72-4.18-3.32-6.69-2.52-3.84-3-4.99-2.99-7.29.01-1.51-.3-5.05-.68-7.89-.39-2.84-.94-5.7-1.21-6.37-.28-.67-1.35-2.03-2.39-3.04s-1.86-2.24-1.82-2.74.01-1.99-.08-3.33c-.13-2.07-.64-2.85-3.49-5.31-1.85-1.59-3.4-3.3-3.42-3.8s-.48-1.53-1.03-2.28c-.56-.75-1.29-2.73-1.65-4.39-.42-2.01-1.29-3.65-2.58-4.86-1.1-1.03-2.18-2.87-2.49-4.24-.31-1.34-1.26-3.04-2.1-3.8-.85-.76-2.44-1.71-3.55-2.12-1.09-.42-2.22-1.41-2.52-2.22-.29-.8-1.42-2.1-2.51-2.88s-2.85-1.41-3.9-1.4c-1.05.02-2.29-.32-2.74-.76-.45-.43-1.09-1.59-1.42-2.59-.34-1.01-2.05-3.05-3.8-4.55-1.76-1.5-4.63-4.03-6.37-5.64-1.74-1.6-3.8-3.06-4.59-3.25-.78-.19-2.75-1.53-4.37-2.98-1.97-1.76-4.46-3.16-7.6-4.25-2.56-.87-5.94-1.82-7.51-2.09-1.56-.27-4.13-.78-5.71-1.13-1.56-.36-3.67-1.33-4.67-2.15-.99-.84-2.2-1.52-2.7-1.53-.48-.01-1.95-1.14-3.24-2.51-1.3-1.39-3.24-2.89-4.32-3.33-1.09-.46-4.09-.82-6.74-.81-4.72.01-4.83-.03-8.18-2.74-2.72-2.2-3.84-2.72-5.69-2.63s-2.85-.38-5.14-2.4c-2.36-2.08-3.31-2.51-5.67-2.55-1.95-.03-3.44.38-4.82 1.33-1.98 1.38-2 1.38-2.9.17-.49-.66-2.62-1.84-4.73-2.62l-3.82-1.42-6.72 2.53c-6.04-2.25-7.52-2.42-10.61-2.11-2.14.22-5.05.15-6.46-.16-1.71-.37-3.59-.33-5.66.15Z"/>
</g>
</svg>