<svg xmlns="http://www.w3.org/2000/svg" version="1.2" baseProfile="tiny" width="100%" height="100%" viewBox="0 0 400 600" preserveAspectRatio="xMinYMin meet">
<g transform="scale(0.96 1) translate(8.33333333333334 0)">
<path fill="#f2d6cb" stroke="#000" stroke-width="6" d="M5 600s-5-60 35-70c0 0 40 0 90-30l70-200 70 200c50 30 90 30 90 30 40 10 35 70 35 70" class="body"/>
</g>
<g transform="scale(0.96 1) translate(8.333333333333341 0)">
<g stroke="#000"><path fill="#89bfd3" stroke-width="6" d="M120 505c0 35 50 25 80 45 30-20 80-10 80-45 30-25 90-15 100-5s10.07 20.41 15 50c5 30 5 20 5 60H0c0-40 0-29.59 5-59.59 4.93-29.59 5-39.38 15-50.41 9.5-10.48 70-20 100 5Z" class="footballPrimary"/><path fill="#7a1319" stroke-width="2" d="M120 505c0 35 50 25 80 45 30-20 80-10 80-45l15-10c5 60-55 45-95 75-40-30-100-15-95-75z" class="collarSecondary"/><path fill="none" stroke-width="6" d="M120 505c0 35 50 25 80 45 30-20 80-10 80-45 30-25 90-15 100-5s10.07 20.41 15 50c5 30 5 20 5 60H0c0-40 0-30 5-60 4.93-29.59 5-38.97 15-50 9.5-10.48 70-20 100 5Z" class="footballStroke"/><path fill="none" stroke-width="2" d="M19.5 570s72.5-2.11 81.5-20m280 20s-71-2.11-80-20" class="shp3"/></g>
</g>
<g transform="translate(33.53553390593274 291.01362954285077) scale(0.72 0.72) translate(8.347292369915047 13.216921844446924) translate(-0.1389321881345258 -2.979591836734694)">
<path fill="#f2d6cb" stroke="#000" stroke-width="6" d="M40 14S10-1 5 4s0 30 5 40-5 25 30 20z"/>
</g>
<g transform="translate(323.53553390593277 291.01362954285077) scale(-0.72 0.72) translate(-51.27622455804957 13.216921844446924) translate(-0.1389321881345258 -2.979591836734694)">
<path fill="#f2d6cb" stroke="#000" stroke-width="6" d="M40 14S10-1 5 4s0 30 5 40-5 25 30 20z"/>
</g>
<g transform="scale(0.9820000000000001 1) translate(3.6659877800407137 0)">
<path fill="#f2d6cb" stroke="#000" stroke-width="6" d="M200 100c100 0 150 60 150 200-10 160-10 110-100 180-10 10-30 20-50 20s-40-10-50-20c-90-70-90-20-100-180 0-140 50-200 150-200Z" class="head"/><path fill="rgba(0,0,0,0)" d="M60 300H50c0-140 50-200 150-200s150 60 150 200h-10v-10c0-5-10-20-15-25s-5-55-15-65c-40-40-60 0-110 0s-70-40-110 0c-10 10-10 60-15 65s-15 20-15 25z" class="headShave"/><path fill="rgba(0,0,0,0)" d="M200 410c30 0 50 10 50 10 30 0 90-15 90-120h10c-10 160-10 110-100 180-11.16 8.68-30 20-50 20s-38.84-11.32-50-20c-90-70-90-20-100-180h10c0 105 60 120 90 120 0 0 20-10 50-10" class="faceShave"/>
</g>
<g>
<path fill="none" stroke="#000" stroke-width="2" d="M240 340s10 10 25 10m-105-10s-10 10-25 10" class="eyeline3"/>
</g>
<g transform="translate(107.15625 282) rotate(-8 32.84375 28)">
<path d="M63 43s-5 10-35 10S3 43 3 43 3 3 33 3s30 40 30 40Z" style="fill:#fff;stroke:#000;stroke-width:5"/><path d="M33 38c-10 0-10-20 0-20s10 20 0 20Z" style="fill:#000;stroke:#000;stroke-width:5"/>
</g>
<g transform="translate(227.15625 282) rotate(8 32.84375 28) scale(-1 1) translate(-65.6875 0)">
<path d="M63 43s-5 10-35 10S3 43 3 43 3 3 33 3s30 40 30 40Z" style="fill:#fff;stroke:#000;stroke-width:5"/><path d="M33 38c-10 0-10-20 0-20s10 20 0 20Z" style="fill:#000;stroke:#000;stroke-width:5"/>
</g>
<g transform="translate(101.05152592374387 261.3) rotate(-13 38.94847407625614 8.7)">
<path fill="#5A3825" stroke="#000" d="M73 13c4.85-1.21 0-10-10-10S3 8 3 8s50 10 70 5Z"/>
</g>
<g transform="translate(221.05152592374387 261.3) rotate(13 38.94847407625614 8.7) scale(-1 1) translate(-77.89694815251228 0)">
<path fill="#5A3825" stroke="#000" d="M73 13c4.85-1.21 0-10-10-10S3 8 3 8s50 10 70 5Z"/>
</g>
<g transform="translate(0 51.49291359400189)">
<path d="M167 382s10-8.86 33-9c16.67-.1 34 9 34 9s-11.33 21.31-34 22c-22.32.68-33-22-33-22" style="opacity:.05;mix-blend-mode:multiply;fill:#501414"/><path d="M176 384s14-4 24-4 24 4 24 4-8 8-24 8-24-8-24-8" style="fill:#fff"/><path d="M176 384s14-4 24-4 24 4 24 4-8 8-24 8-24-8-24-8Z" style="fill:none;stroke:#000;stroke-width:4"/><path d="M180 376c16-4 24-4 40 0" style="fill:none;stroke:#000;stroke-width:1"/><path d="M166 382s5 3.19 10 2m58-2s-5 3.19-10 2" style="fill:none;stroke:#000;stroke-width:4"/><path d="M185.71 400.69c15.15 4.14 16.29 3.86 29.15-.57" style="fill:none;stroke:#000;stroke-width:1"/>
</g>
<g transform="translate(174.5 336.5) scale(0.86 0.86) translate(4.151162790697675 5.453488372093024)">
<path fill="#f2d6cb" stroke="#000" stroke-width="5" d="m28 1 20 45s-5 20-25 20S3 46 3 46" class="nose"/>
</g>
<g transform="scale(0.9820000000000001 1) translate(3.6659877800407137 0)">
<path fill="#5A3825" stroke="#000" stroke-width="4" d="M60 310H50v-35l-2-11 2-9-2-11 2-9-2-11 2-9-2-15 7-10-3-15.63L65 165l-1-17 16-3v-21h20l4-20 20 4 12-20 20 12 12-20 16 16 16-20 16 20 16-16 12 20 20-12 12 20 20-4 4 20h20v21l16 3-1 17 13 9.04-3 15.96 7 10-2 15 2 9-2 11 2 9-2 11 2 9-2 11v35h-10v-20c0-5-10-20-15-25s-5-50-15-60-60-5-110-5-100-5-110 5-10 55-15 60-15 20-15 25z"/>
</g>
</svg>