<svg xmlns="http://www.w3.org/2000/svg" version="1.2" baseProfile="tiny" width="100%" height="100%" viewBox="0 0 400 600" preserveAspectRatio="xMinYMin meet">
<g transform="scale(0.96 1) translate(8.333333333333341 0)">
<path fill="#ddb7a0" stroke="#000" stroke-width="6" d="M10 600s0-50 60-70 70-50 70-50l60-180 60 180s10 30 70 50 60 70 60 70" class="body"/>
</g>
<g transform="scale(0.96 1) translate(8.437500000000007 0)">
<g stroke="#000"><path fill="#07364f" stroke-width="3" d="M120 505s35 40 80 40 80-40 80-40v95H120z" class="s0"/><path fill="#89bfd3" stroke-width="6" d="M120 504.6c10 45.4 80 55.4 90 65.4s10 40 10 40H-5s5-40 5-50 10-30 40-40 50 0 80-15.4z" class="s0"/><path fill="#89bfd3" stroke-width="6" d="M360 520c30 10 40 30 40 40s10 50 10 50H180s0-40 10-50 80-10 90-55c30 15 50 5 80 15z" class="s0"/><path fill="#89bfd3" stroke-width="1.5" d="M196 597c-2.8 0-5-2.2-5-5s2.2-5 5-5 5 2.2 5 5-2.2 5-5 5zm-2-5h1m2 0h1" class="s1"/></g><path stroke="#000" d="M293.8 513c.6 0 1.2.6 1.2 1.2 0 .7-1.5 4.4-3.4 8.3-1.9 3.8-5.4 9-7.8 11.3-2.4 2.4-7 5.9-10.3 7.7-3.3 1.9-10.3 5.3-15.5 7.5-5.2 2.3-13.8 5.8-19 7.7-5.2 2-11.3 4.8-13.5 6.3s-5.7 4.7-7.8 7.1c-2.2 2.5-4.4 6.5-5.2 9.4-.8 2.7-1.8 10.1-2.2 16.3-.5 6.7-1.2 11.1-1.8 10.9-.6-.3-.9-4.8-.7-11.8.2-7.2.9-13.4 2-16.9 1.2-3.8 3.2-7.2 6.8-11 2.8-3 7.8-6.9 11-8.6 3.2-1.8 7.7-3.7 9.9-4.4s7.8-2.8 12.5-4.7c4.7-2 13-5.8 18.4-8.7 6.8-3.5 11.2-6.5 14-9.7 2.3-2.5 5.4-7.5 7.1-11.2 1.6-3.6 3.6-6.7 4.2-6.7zm6.4 1c1.1 0 1.9.7 1.9 1.7s-1.7 5.4-3.9 9.8c-2.3 4.6-6 10-8.8 12.9-2.6 2.6-7.7 6.5-11.3 8.6s-10.6 5.6-15.5 7.8c-5 2.2-13.4 5.6-18.8 7.6-5.3 2-11.4 4.7-13.5 5.9-2 1.3-5.2 4-7 6-1.7 2.1-3.6 5.4-4.1 7.4-.5 2.1-1.2 8.6-1.5 14.5-.6 9.9-.8 10.8-2.6 10.8-1.9 0-2-.5-1.4-10.8.3-5.9 1.2-13.1 2-16 1-3.9 2.6-6.4 6.1-9.8 2.7-2.6 6.4-5.5 8.3-6.4 1.9-1 10-4.4 18-7.5s18.3-7.6 23-10 10.3-5.9 12.5-7.8c2.2-1.8 5.9-6.2 8.2-9.8 2.3-3.5 4.7-8.3 5.4-10.7.8-3.1 1.6-4.2 3-4.2zm6.9 1c1.1 0 2 .7 2 1.5s-2.1 5.7-4.7 10.7c-3.4 6.9-6.4 11-11.2 15.8-4.8 4.7-9.3 7.9-16.6 11.7-5.5 2.8-15 7.1-21 9.6-6.1 2.4-13.3 5.2-16 6.2-2.8 1.1-6.9 3.7-9.3 5.9-2.5 2.4-4.7 5.6-5.3 7.6-.5 1.9-.9 5.7-.9 8.5 0 2.7-.3 7.1-.7 9.8-.5 2.7-1.3 4.7-2.1 4.7-.9 0-1.1-2.4-.6-10.3.3-5.6 1.1-11.8 1.6-13.7.6-1.9 2-4.6 3.1-6 1-1.4 3.6-3.7 5.6-5.1 2-1.5 9.2-4.8 16.1-7.4s16.5-6.7 21.5-9.1c4.9-2.3 11.8-6.1 15.2-8.3 3.5-2.3 8.2-6.5 10.4-9.4 2.3-2.8 5.7-8.4 7.6-12.2 1.8-3.9 3.3-7.8 3.3-8.8s.8-1.7 2-1.7zm-196.8-5c.7 0 2.2 1.9 3.2 4.2 1.1 2.4 3.8 7.4 6 11.2 2.3 3.8 6.3 9.2 9.1 11.9s9.9 8.4 16 12.7c6 4.3 13.2 9.8 15.9 12.2 3.3 2.9 5.9 6.4 7.9 10.8 2.7 5.9 3 7.8 3.6 20.3.6 12.6.5 13.7-1.2 13.7-1.5 0-1.7-1.1-1.7-9.8 0-5.3-.4-12.2-1-15.2s-2-7.3-3.1-9.5-3.5-5.5-5.2-7.3c-1.8-1.8-7.5-6.2-12.7-9.7s-12.5-8.8-16.3-11.9c-3.7-3.1-8.4-8.2-10.6-11.4-2.1-3.1-5.2-8.4-6.8-11.7-1.7-3.3-3.4-7-3.8-8.3-.5-1.5-.3-2.2.7-2.2zm-5 1c.4 0 3 4.8 5.7 10.7 3.6 8.2 6.3 12.4 10.7 17.2 3.3 3.5 10.6 9.8 16.4 14s11.6 8.4 13 9.2c1.4.9 4 3.1 5.9 5s4.5 5.6 5.8 8.4c1.8 4 2.4 7.6 3.8 31.5h-2.3c-2.1 0-2.2-.3-2.5-12.3-.3-10-.7-13.1-2.6-17.2-1.2-2.8-3.2-6.1-4.4-7.4-1.2-1.2-6.7-5.4-12.2-9.1-5.5-3.8-13.2-9.6-17-12.8-3.9-3.3-9-8.8-11.5-12.3-2.4-3.5-6.2-10.2-8.3-14.9-3.1-6.7-3.6-8.7-2.5-9.2.7-.4 1.6-.8 2-.8zm-7.5 3c.5-.1 3.5 5.2 6.8 11.7 4.3 8.5 7.7 13.6 12 18.2 3.3 3.5 9.4 9 13.5 12.1s10.8 7.9 14.8 10.6 8.4 6.6 9.8 8.6c1.7 2.7 2.7 6.2 3.4 12 .5 4.6 1 10.9 1 14 0 4-.4 5.8-1.3 5.8-.8 0-1.4-3.5-2-12-.4-6.6-1.3-13.4-2.1-15.3-.8-1.7-2.1-3.9-2.8-4.7-.7-.9-6.4-5.1-12.7-9.5s-14.8-11.2-18.9-15c-4.1-3.9-9.3-9.7-11.5-13s-5.6-9.2-7.4-13c-1.8-3.9-3.3-7.8-3.3-8.8 0-.9.3-1.7.7-1.7z" class="s3"/><path fill="#7a1319" stroke="#7a1319" d="M296.4 513c.9 0 1.2 1 1 3.2-.3 1.8-1.7 5.8-3.2 8.8s-5.2 7.9-8.2 11c-3.7 3.8-8.5 7.1-14.5 10.2-5 2.6-15.5 7.2-23.5 10.3s-16.1 6.5-18 7.5c-1.9.9-5.6 3.8-8.3 6.4-3.5 3.4-5.1 5.9-6.1 9.8-.8 2.9-1.7 10.1-2 16-.5 9.4-.8 10.8-2.4 10.8s-1.6-.9-.9-11.2c.4-6.2 1.4-13.6 2.2-16.3.8-2.9 3-6.9 5.2-9.4 2.1-2.4 5.6-5.6 7.8-7.1s8.3-4.3 13.5-6.3c5.2-1.9 13.8-5.4 19-7.7 5.2-2.2 12.2-5.6 15.5-7.5 3.3-1.8 7.9-5.3 10.3-7.7 2.4-2.3 5.9-7.5 7.8-11.3 1.9-3.9 3.4-7.6 3.4-8.3 0-.6.6-1.2 1.4-1.2zm7.1 1c.9 0 1.5.9 1.5 2.2s-1.5 5.4-3.3 9.3c-1.9 3.8-5.3 9.4-7.6 12.2-2.2 2.9-6.9 7.1-10.4 9.4-3.4 2.2-10.3 6-15.2 8.3-5 2.4-14.6 6.5-21.5 9.1s-14.1 5.9-16.1 7.4c-2 1.4-4.6 3.7-5.6 5.1-1.1 1.4-2.5 4.1-3.2 6-.6 1.9-1.1 6-1.1 9s-.3 7.6-.7 10.3c-.5 2.7-1.3 4.7-2.1 4.7-.9 0-1.1-2.5-.6-10.8.3-5.9 1-12.4 1.5-14.5.5-2 2.4-5.3 4.1-7.4 1.8-2 5-4.7 7-6 2.1-1.2 8.2-3.9 13.6-5.9 5.3-2 13.7-5.4 18.7-7.6 4.9-2.2 11.9-5.7 15.5-7.8s8.7-6 11.3-8.6c2.8-2.9 6.5-8.3 8.8-12.9 2.2-4.4 3.9-8.8 3.9-9.8 0-.9.7-1.7 1.5-1.7zm-196.3-4c.7 0 2.6 3 4.3 6.7 1.6 3.8 5.1 10.1 7.7 14 2.9 4.4 7.5 9.5 11.5 12.9 3.8 3.1 11.1 8.4 16.3 11.9s10.9 7.9 12.7 9.7c1.7 1.8 4.1 5.1 5.2 7.3s2.5 6.5 3.1 9.5 1 9.9 1 15.2c0 7.2-.3 9.8-1.3 9.8-.8 0-1.4-3.7-2-13.2-.6-10.7-1.2-14.3-3-18.3-1.3-2.8-3.9-6.5-5.8-8.4s-4.5-4.1-5.9-5c-1.4-.8-7.2-5-13-9.2s-13.1-10.5-16.4-14c-3.8-4.1-7.6-9.9-10.7-16.2-2.7-5.3-4.9-10.4-4.9-11.2s.6-1.5 1.2-1.5zm-1.7 10.8c2.2 4.8 6.1 11.6 8.5 15.1 2.5 3.5 7.6 9 11.5 12.3 3.8 3.2 11.5 9 17 12.8 5.5 3.7 11 7.9 12.2 9.1 1.2 1.3 3.2 4.6 4.4 7.4 1.9 4.1 2.3 7.2 2.6 17.2.3 10.4.1 12.3-1.2 12.3-1.2 0-1.5-1.3-1.5-5.8 0-3.1-.5-9.4-1-14-.7-5.8-1.7-9.3-3.4-12-1.4-2-5.8-5.9-9.8-8.6s-10.7-7.5-14.8-10.6-10.2-8.6-13.5-12.1c-4.4-4.6-7.7-9.7-12-18.2-4.9-9.7-5.7-12-4.6-12.7 1.2-.7 2.4 1 5.6 7.8z" class="s4"/><g fill="none" stroke="#000" stroke-width="6"><path d="M120 504.6c6.9 37.6 62.2 49.3 67.9 57-7.8 11.2-8 48.4-8 48.4H-5s5-40 5-50 10-30 40-40 50 0 80-15.4z" class="s5"/><path d="M360 520c30 10 40 30 40 40s10 50 10 50H180s0-40 10-50 80-10 90-55c30 15 50 5 80 15z" class="s5"/></g>
</g>
<g transform="translate(32 290.6) scale(1.29 1.29) translate(-5.170542635658915 -7.733333333333335) translate(16.84 -3)">
<path fill="#ddb7a0" stroke="#000" stroke-width="6" d="M43 13S23 3 13 3 3 23 3 33s3 20 13 30 27-10 27-10z"/>
</g>
<g transform="translate(322 290.6) scale(-1.29 1.29) translate(-40.82945736434109 -7.733333333333335) translate(16.84 -3)">
<path fill="#ddb7a0" stroke="#000" stroke-width="6" d="M43 13S23 3 13 3 3 23 3 33s3 20 13 30 27-10 27-10z"/>
</g>
<g transform="scale(0.872 1) translate(29.357798165137616 0)">
<path fill="#ddb7a0" stroke="#000" stroke-width="6" d="M200 100c100 0 150 60 150 200-10 160 0 110-100 190-10 10-30 20-50 10-20 10.9-40 0-50-10-100-80-90-30-100-190 0-140 50-200 150-200Z" class="head"/><path fill="rgba(0,0,0,0)" d="M200 410c30 0 50 10 50 10 30 0 90-15 90-120h10c-10 160 0 110-100 190-10 10-30 20-50 10-20 10-38.96-1.17-50-10-100-80-90-30-100-190h10c0 105 60 120 90 120 0 0 20-10 50-10" class="faceShave"/><path fill="rgba(0,0,0,0)" d="M60 300H50c0-140 50-200 150-200s150 60 150 200h-10v-10c0-5-10-20-15-25s-5-55-15-65c-40-40-60 0-110 0s-70-40-110 0c-10 10-10 60-15 65s-15 20-15 25z" class="headShave"/>
</g>
<g>
<path fill="none" stroke="#000" stroke-width="2" d="M235 285s10-10 45-10m-115 10s-10-10-45-10" class="eyeline6"/>
</g>
<g transform="translate(140.5 420.5) scale(1.12 1.12) translate(-1.0178571428571437 -1.5535714285714297)">
<path fill="none" stroke="#000" stroke-width="2" d="M17 2 2 12l5 15" class="shp0"/>
</g>
<g transform="translate(240.5 420.5) scale(-1.12 1.12) translate(-17.982142857142858 -1.5535714285714297)">
<path fill="none" stroke="#000" stroke-width="2" d="M17 2 2 12l5 15" class="shp0"/>
</g>
<g>
<path fill="none" stroke="#000" stroke-width="2" d="M200 270v-15l5-5-5 5-5-5"/>
</g>
<g transform="scale(0.872 1) translate(29.357798165137616 0)">
<path fill="#CC9966" stroke="#000" d="M205 420c-4 0-5-5-.8-10 5.8-5 15.8-5 15.8-5 15 0 35 15 35 25 0 30 10 55 5 60s-15 5-20 0 5-40 5-55-15-15-40-15Zm-10 0c4 0 5-5 0-10s-15-5-15-5c-16 0-35 15-35 25 0 30-10 55-5 60s15 5 20 0-5-40-5-55 15-15 40-15Zm5 38.02L190 460c-10 10-20 40-20 40s10 10 30 10 30-10 30-10-10-30-20-40zM60 300H50s-3.85 100.38 25 110c15 5 35 15 40 10 20-20-5-25-5-25s-50-20-50-95Zm280 0h10s3.85 100.38-25 110c-15 5-35 15-40 10-20-20 5-25 5-25s50-20 50-95Z"/>
</g>
<g transform="translate(102.24084342899988 286.1384650016032) rotate(14 37.759156571000126 23.861534998396785)">
<path d="M5 20s12.08-8.23 35-8.23S70 30 70 30s-7.15 9.92-30.07 9.92S5 20 5 20" style="fill:#f5f3ee"/><path d="M5 20c-2.87-2.87 12.2-9.55 35-11.9C70 5 72.87 27.13 70 30s-7.08-13.73-30-13.73S7.87 22.87 5 20" class="black"/><path d="M39.93 33.04c-6.34 0-11.46-5.12-11.46-11.46 0-6.33 5.12-11.46 11.46-11.46s11.46 5.13 11.46 11.46c0 6.34-5.12 11.46-11.46 11.46" class="black"/>
</g>
<g transform="translate(222.24084342899988 286.1384650016032) rotate(-14 37.759156571000126 23.861534998396785) scale(-1 1) translate(-75.51831314200025 0)">
<path d="M5 20s12.08-8.23 35-8.23S70 30 70 30s-7.15 9.92-30.07 9.92S5 20 5 20" style="fill:#f5f3ee"/><path d="M5 20c-2.87-2.87 12.2-9.55 35-11.9C70 5 72.87 27.13 70 30s-7.08-13.73-30-13.73S7.87 22.87 5 20" class="black"/><path d="M39.93 33.04c-6.34 0-11.46-5.12-11.46-11.46 0-6.33 5.12-11.46 11.46-11.46s11.46 5.13 11.46 11.46c0 6.34-5.12 11.46-11.46 11.46" class="black"/>
</g>
<g transform="translate(97.20374849998123 252.4995916989505) rotate(-11 42.79625150001876 17.50040830104949)">
<path fill="#CC9966" stroke="#000" d="M12.93 15.05c-1.51.67-4.18 2.29-5.94 3.61s-3.38 2.8-3.61 3.29c-.22.49-.16.96.13 1.04.3.08 4.44-.28 9.21-.79 4.77-.52 11.58-1.06 15.13-1.21s11.63-.28 17.94-.29c6.32-.01 14.56.12 18.32.29 3.75.17 8.39.25 10.29.19 1.91-.05 4.56-.27 5.89-.47 2.09-.32 2.33-.53 1.84-1.57-.42-.91-1.74-1.55-5.18-2.53-2.54-.73-7.86-1.72-11.83-2.22-3.97-.49-10.99-1.19-15.6-1.55-4.62-.36-11.91-.72-16.22-.81-6.13-.11-8.91.06-12.73.83-2.69.53-6.13 1.52-7.64 2.19Z"/>
</g>
<g transform="translate(217.20374849998123 252.4995916989505) rotate(11 42.79625150001876 17.50040830104949) scale(-1 1) translate(-85.59250300003752 0)">
<path fill="#CC9966" stroke="#000" d="M12.93 15.05c-1.51.67-4.18 2.29-5.94 3.61s-3.38 2.8-3.61 3.29c-.22.49-.16.96.13 1.04.3.08 4.44-.28 9.21-.79 4.77-.52 11.58-1.06 15.13-1.21s11.63-.28 17.94-.29c6.32-.01 14.56.12 18.32.29 3.75.17 8.39.25 10.29.19 1.91-.05 4.56-.27 5.89-.47 2.09-.32 2.33-.53 1.84-1.57-.42-.91-1.74-1.55-5.18-2.53-2.54-.73-7.86-1.72-11.83-2.22-3.97-.49-10.99-1.19-15.6-1.55-4.62-.36-11.91-.72-16.22-.81-6.13-.11-8.91.06-12.73.83-2.69.53-6.13 1.52-7.64 2.19Z"/>
</g>
<g transform="translate(0 48.766108367626885) scale(-1 1) translate(-400 0)">
<path d="M168 384s9-13.77 32-14.03c17.4-.2 32 13.2 32 13.2s-4.29 28.26-32 28.83c-27.29.56-32-28-32-28" style="opacity:.05;mix-blend-mode:multiply;fill:#501414"/><path d="M168 384c12-4 48-4 64 0-8 8-10 16-32 16-20 0-24-8-32-16Z" style="fill:#000;stroke:#000"/><path d="M168 384c12-4 48-4 64 0-20 4-10 4-32 4-20 0-16 0-32-4m12 12s14-1 20-1 20 1 20 1-4 4-20 4c-12 0-20-4-20-4" style="fill:#fff"/><path d="M168 384c12-4 48-4 64 0-8 8-10 16-32 16-20 0-24-8-32-16Zm16 24c12 6 20 6 32 0m4.29-33.12c-14.52-5.66-27.29-6.34-40.29.09" style="fill:none;stroke:#000;stroke-width:4"/>
</g>
<g transform="translate(140.84321577312707 292.352) scale(-0.98 0.98) translate(-119.52084976449837 1.5846530612244911)">
<path fill="#ddb7a0" stroke="#000" stroke-width="5" d="M50 50s-20 60 9 55c0 0 29 5 9-55"/>
</g>
</svg>