<svg xmlns="http://www.w3.org/2000/svg" version="1.2" baseProfile="tiny" width="100%" height="100%" viewBox="0 0 400 600" preserveAspectRatio="xMinYMin meet">
<g transform="scale(0.89 1) translate(24.78089887640449 0)">
<path fill="#D7BF91" stroke="#000" stroke-width="4" d="M59.75 313.8s-8.5 30.69-5.25 60.4c11.25-19.71 25-32.34 25-32.34S64.17 391.7 69.17 416.2c16.5-28 26.66-41.67 26.66-41.67S86.5 427.7 91.5 460.2c18-33 33.67-47.67 33.67-47.67s-14.3 40.12-8.3 75.12c21.5-46 81.38-32.85 81.38-32.85L196 325zm281.5 0s8.5 30.69 5.25 60.4c-11.25-19.71-25-32.34-25-32.34s15.33 49.84 10.33 74.34c-16.5-28-26.66-41.67-26.66-41.67s9.33 53.17 4.33 85.67c-18-33-33.67-47.67-33.67-47.67s14.3 40.12 8.3 75.12c-21.5-46-81.38-32.85-81.38-32.85L205 325z" class="shaggyBg"/>
</g>
<g transform="scale(1.02 1) translate(-3.921568627450984 0)">
<path fill="#f2d6cb" stroke="#000" stroke-width="6" d="M10 600s-10-70 50-70c10 0 0-10 60-20 0 0 50-210 80-210s80 210 80 210c60 10 50 20 60 20 60 0 50 70 50 70"/><path d="M71 545s46.9-3 82.1 10M329 545s-46.9-3-82.1 10m77.1-18s5.5-7.5 22-7m-271 7s-5.5-7.5-22-7"/>
</g>
<g transform="scale(1.02 1) translate(-3.921568627450984 0)">
<g stroke="#000"><path fill="#89bfd3" stroke-width="6" d="M120 505c0 35 50 25 80 45 30-20 80-10 80-45 30-25 90-15 100-5s10.07 20.41 15 50c5 30 5 20 5 60H0c0-40 0-29.59 5-59.59 4.93-29.59 5-39.38 15-50.41 9.5-10.48 70-20 100 5Z" class="footballPrimary"/><path fill="#7a1319" stroke-width="2" d="M120 505c0 35 50 25 80 45 30-20 80-10 80-45l15-10c5 60-55 45-95 75-40-30-100-15-95-75z" class="collarSecondary"/><path fill="none" stroke-width="6" d="M120 505c0 35 50 25 80 45 30-20 80-10 80-45 30-25 90-15 100-5s10.07 20.41 15 50c5 30 5 20 5 60H0c0-40 0-30 5-60 4.93-29.59 5-38.97 15-50 9.5-10.48 70-20 100 5Z" class="footballStroke"/><path fill="none" stroke-width="2" d="M19.5 570s72.5-2.11 81.5-20m280 20s-71-2.11-80-20" class="shp3"/></g>
</g>
<g transform="translate(32 293.3) scale(1.39 1.39) translate(-6.4532374100719405 -8.894244604316546) translate(14.05 -3)">
<path fill="#f2d6cb" stroke="#000" stroke-width="6" d="M43 8S3-12 3 28c0 45 40 30 40 30z"/>
</g>
<g transform="translate(322 293.3) scale(-1.39 1.39) translate(-39.54676258992806 -8.894244604316546) translate(14.05 -3)">
<path fill="#f2d6cb" stroke="#000" stroke-width="6" d="M43 8S3-12 3 28c0 45 40 30 40 30z"/>
</g>
<g transform="scale(0.89 1) translate(24.7191011235955 0)">
<path fill="#f2d6cb" stroke="#000" stroke-width="6" d="M200 100c100 0 150 60 150 200 0 70-50 200-150 200S50 370 50 300c0-140 50-200 150-200Z" class="head"/><path fill="rgba(0,0,0,0)" d="M200 410c30 0 50 10 50 10 30 0 90-15 90-120h10c0 70-50 200-150 200S50 370 50 300h10c0 105 60 120 90 120 0 0 20-10 50-10" class="faceShave"/><path fill="rgba(0,0,0,0)" d="M60 300H50c0-140 50-200 150-200s150 60 150 200h-10v-10c0-5-10-20-15-25s-5-55-15-65c-40-40-60 0-110 0s-70-40-110 0c-10 10-10 60-15 65s-15 20-15 25z" class="headShave"/>
</g>
<g>
<path fill="none" stroke="#000" stroke-width="2" d="M240 355s20-10 45 0m-125 0s-20-10-45 0" class="eyeline5"/>
</g>
<g transform="translate(147 424.5) scale(0.44 0.44) translate(3.8181818181818183 13.363636363636365)">
<path fill="none" stroke="#000" stroke-width="2" d="m0 20 6-10-6-9" class="shp0"/>
</g>
<g transform="translate(247 424.5) scale(-0.44 0.44) translate(-9.818181818181818 13.363636363636365)">
<path fill="none" stroke="#000" stroke-width="2" d="m0 20 6-10-6-9" class="shp0"/>
</g>
<g transform="scale(0.89 1) translate(24.7191011235955 0)">
<path fill="#D7BF91" stroke="#000" d="M200 450c20 0 10 30 20 30s35-5 45-15c20-20 30-30 40-30 0 70-65 80-105 80S95 505 95 435c10 0 20 10 40 30 10 10 35 15 45 15s0-30 20-30Z" class="shp0"/><path fill="#D7BF91" fill-rule="evenodd" stroke="#000" d="M60 300H50s-3.85 100.38 25 110c15 5 35 15 40 10 20-20-5-25-5-25s-50-20-50-95Zm280 0h10s3.85 100.38-25 110c-15 5-35 15-40 10-20-20 5-25 5-25s50-20 50-95Z" class="shp0"/>
</g>
<g transform="translate(104.75510204081633 287) rotate(1 35.24489795918368 23)">
<path d="M67 35c0-4 6-32-24-32S3 15 3 23s12 20 24 20 40-4 40-8Z" style="fill:#fff;stroke:#000;stroke-width:5"/><path d="M39 29c-3.32 0-6-2.68-6-6s2.68-6 6-6 6 2.68 6 6-2.68 6-6 6Z" style="fill:#000;stroke:#000;stroke-width:5"/>
</g>
<g transform="translate(224.75510204081633 287) rotate(-1 35.24489795918368 23) scale(-1 1) translate(-70.48979591836736 0)">
<path d="M67 35c0-4 6-32-24-32S3 15 3 23s12 20 24 20 40-4 40-8Z" style="fill:#fff;stroke:#000;stroke-width:5"/><path d="M39 29c-3.32 0-6-2.68-6-6s2.68-6 6-6 6 2.68 6 6-2.68 6-6 6Z" style="fill:#000;stroke:#000;stroke-width:5"/>
</g>
<g transform="translate(105.43111111111111 259) rotate(2 34.5688888888889 11)">
<path fill="#D7BF91" stroke="#000" d="M66 13c4-4 0-8 0-8H30C14 5 2 1 2 1s-4 0 8 12l-4 8h32c20 0 24-4 28-8Z"/>
</g>
<g transform="translate(225.4311111111111 259) rotate(-2 34.5688888888889 11) scale(-1 1) translate(-69.1377777777778 0)">
<path fill="#D7BF91" stroke="#000" d="M66 13c4-4 0-8 0-8H30C14 5 2 1 2 1s-4 0 8 12l-4 8h32c20 0 24-4 28-8Z"/>
</g>
<g transform="translate(165 425.99483160254016)">
<path d="M1 3s11-1.86 34-2C51.67.9 69 3 69 3S57.67 26.31 35 27C12.68 27.68 1 3 1 3" style="opacity:.05;mix-blend-mode:multiply;fill:#501414"/><path d="M11 5s14 1.71 24 1.71S59 5 59 5s-8 10-24 10S11 5 11 5" style="fill:#fff"/><path d="M11 5s14 1.71 24 1.71S59 5 59 5s-8 10-24 10S11 5 11 5ZM1 3s5 3.19 10 2m58-2s-5 3.19-10 2M20.71 23.69c15.15 4.14 16.29 3.86 29.15-.57" style="fill:none;stroke:#000;stroke-width:4"/>
</g>
<g transform="translate(174.5 336.5) scale(0.95 0.95) translate(1.342105263157896 1.7631578947368438)">
<path fill="#f2d6cb" stroke="#000" stroke-width="5" d="m28 1 20 45s-5 20-25 20S3 46 3 46" class="nose"/>
</g>
<g transform="scale(0.89 1) translate(24.780842669709788 0)">
<defs><linearGradient id="a" x1="200" x2="200" y1="100" y2="310" gradientUnits="userSpaceOnUse"><stop offset="0" stop-color="rgba(0,0,0,.25)"/><stop offset="1" stop-color="rgba(0,0,0,0)"/></linearGradient></defs><path d="M60 310H50v-10c0-140 50-200 150-200s150 60 150 200v10h-10v-20c0-5-10-20-15-25s-5-55-15-65c-40-40-60 0-110 0s-70-40-110 0c-10 10-10 60-15 65s-15 20-15 25z" style="fill:url(#a);stroke:none"/><path fill="#D7BF91" stroke="#000" stroke-width="4" d="M177 76.08c-1.37 1.1-3.4 1.99-4.49 1.96-1.1-.02-2.11.41-2.25.96s-2.29 1-4.76 1c-3 0-4.56.45-4.69 1.34-.1.74-1.23 1.86-2.5 2.5S154.39 85 152.43 85s-3.76.45-4 1c-.26.61-1.32.43-2.68-.46-1.81-1.17-3.57-1.27-9-.5-3.71.53-7.93 1.52-9.36 2.21-2.27 1.08-2.55 1.71-2.09 4.75.29 1.92.22 4-.14 4.62-.36.61-2.69 1.06-5.16 1-3.97-.11-4.53.15-4.75 2.13-.2 1.77-.73 2.15-2.5 1.76-1.24-.26-3.04-.49-4-.5-.96 0-1.97-.91-2.25-2.01s-1.17-2-2-2-1.82 1.01-2.2 2.25c-.39 1.24-.72 2.55-.75 2.92-.03.36-.4 1.04-.83 1.5s-.77 1.73-.76 2.83-.54 3.49-1.22 5.31c-1 2.67-2 3.49-5.24 4.25-2.2.52-4.99 1.73-6.21 2.69-1.21.96-2.23 2.54-2.25 3.5s-1.5 2.91-3.29 4.33c-2.23 1.77-3.96 2.4-5.5 2-1.75-.45-3.26.43-6.75 3.92-2.47 2.47-4.5 5.18-4.5 6s.56 1.65 1.25 1.84c.98.26.95.86-.12 2.75-.76 1.32-1.09 2.97-.75 3.66.36.73-1.67 3.42-4.92 6.5-4.21 4-6.18 6.89-8.25 12.11-1.49 3.78-3.29 7.38-4 8-.72.63-1.27 1.59-1.24 2.14s.95 2.91 2.04 5.25c1.69 3.61 1.78 4.44.6 5.5-.77.69-1.56 2.77-1.75 4.63-.29 2.75.16 3.78 2.41 5.5 1.53 1.17 2.76 2.57 2.73 3.12-.02.55.68 1.9 1.56 3 .87 1.1 1.3 1.32.94.5s.3-.37 1.47 1c1.16 1.38 2.1 3.29 2.07 4.25-.03 1.39.83 1.76 4.21 1.79 2.34.02 7.49.58 11.46 1.25l7.21 1.21c8.2-6.82 12.83-9.84 15.58-11.11s8.38-3.03 12.5-3.9c4.13-.88 12-1.86 17.5-2.17 7.07-.4 16.29.11 31.5 1.75 14.91 1.6 27.47 2.31 41 2.31s26.08-.71 41-2.32c15.87-1.7 24.25-2.15 32-1.69 5.77.35 13.65 1.31 17.5 2.15 3.85.83 9.25 2.57 12 3.85s7.48 4.36 10.5 6.85c3.33 2.74 6.29 4.41 7.5 4.22 1.1-.16 4.48-.79 7.5-1.38 3.02-.6 6.96-1.08 8.75-1.07 2.04.01 4.55-1.01 6.75-2.74 1.92-1.51 3.5-3.31 3.5-4s1.35-1.93 3-2.75c2.73-1.36 2.95-1.84 2.44-5.25-.31-2.06-1.21-4.31-2-5-1.24-1.07-1.09-1.92 1.09-6 1.39-2.61 2.52-5.2 2.5-5.75-.01-.55-.81-1.49-1.78-2.1-.96-.6-2.4-3.52-3.19-6.5-.93-3.51-3.01-7.32-5.94-10.9-2.48-3.03-5.16-5.95-5.96-6.5-.92-.63-1.21-1.75-.8-3 .43-1.28.03-2.65-1.1-3.81-1.54-1.58-1.59-2.08-.37-4 1.29-2.04 1.07-2.48-3.25-6.44-2.91-2.66-5.48-4.19-6.89-4.08-1.24.09-3.7-.47-5.47-1.25-1.98-.87-3.45-2.38-3.83-3.92-.33-1.37-1.36-3.3-2.28-4.28-1.01-1.08-3.05-1.76-5.17-1.73-2.77.04-3.97-.58-5.75-2.97-1.44-1.93-2.52-5.27-3-9.27l-.75-6.25c-5.23 0-6.92.56-7.13 1.25-.2.69-1.49 1.25-2.87 1.25-1.37 0-2.65.56-2.84 1.25s-1.09-.21-2-2c-1.56-3.05-1.93-3.22-5.91-2.77-2.76.32-4.51.06-4.98-.75-.41-.67-.75-2.58-.77-4.23s-.36-3.53-.77-4.17c-.4-.65-1.97-1.66-3.48-2.25-1.51-.6-5.79-1.55-9.5-2.13-5.75-.89-6.94-.82-8 .5-1.13 1.4-1.47 1.4-3.5.01-1.24-.84-3.6-1.45-5.25-1.35-1.65.11-4.01.12-5.25.04-1.27-.08-2.25-.81-2.25-1.65 0-.83-.79-1.74-1.75-2.03-.96-.28-2.55-.17-3.54.25-.98.43-1.99 1.34-2.25 2.03-.25.69-1.14 1.25-1.96 1.25s-2.51-1.23-3.75-2.73-2.98-4.09-3.87-5.75-2.35-3.13-3.25-3.27c-.89-.14-3.43 1.1-5.63 2.75l-4 3c-5.03-3.68-7.6-4.5-10.08-4.5-2.15 0-3.92-.34-3.92-.75s-2.36-.74-5.25-.72c-3.72.03-5.98.62-7.75 2.05Z"/>
</g>
<g transform="scale(0.89 1) translate(24.7191011235955 0)">
<g stroke="#000"><path fill="#89bfd3" stroke-width="4" d="M350 280c-10 0-30-90-150-90S60 280 50 280c-10-10-10-40 0-50 0 0 30-90 150-90s150 90 150 90c10 10 10 40 0 50Z"/><path fill="#7a1319" d="M45 260v-10s35-90 155-90 155 90 155 90v10c-5 0-35-90-155-90S50 260 45 260Z"/></g>
</g>
</svg>