<svg xmlns="http://www.w3.org/2000/svg" version="1.2" baseProfile="tiny" width="100%" height="100%" viewBox="0 0 400 600" preserveAspectRatio="xMinYMin meet">
<g transform="scale(0.97 1) translate(6.185567010309283 0)">
<path fill="#f2d6cb" stroke="#000" stroke-width="6" d="M5 600s-5-60 35-70c0 0 40 0 90-30l70-200 70 200c50 30 90 30 90 30 40 10 35 70 35 70" class="body"/>
</g>
<g transform="scale(0.97 1) translate(6.185567010309284 0)">
<path fill="#89bfd3" stroke="#000" stroke-width="6" d="M120 505c0 35 50 25 80 45 30-20 80-10 80-45 30-25 90-15 100-5s10.07 20.41 15 50c5 30 5 20 5 60H0c0-40 0-29.59 5-59.59 4.93-29.59 5-39.38 15-50.41 9.5-10.48 70-20 100 5Z" class="footballPrimary"/><path fill="#7a1319" stroke="#000" stroke-width="2" d="M120 505c0 35 50 25 80 45 30-20 80-10 80-45l15-10c5 60-55 45-95 75-40-30-100-15-95-75z" class="collarSecondary"/><path fill="#7a1319" stroke="#000" stroke-width="2" d="m20 500 15 80 5-88.8-10 3.07zm360 0-15 80-5-88.8 10 3.07z" class="Sparta"/><path fill="none" stroke="#000" stroke-width="6" d="M120 505c0 35 50 25 80 45 30-20 80-10 80-45 30-25 90-15 100-5s10.07 20.41 15 50c5 30 5 20 5 60H0c0-40 0-30 5-60 4.93-29.59 5-38.97 15-50 9.5-10.48 70-20 100 5Z" class="footballStroke"/><path fill="none" stroke="#000" stroke-width="2" d="M19.5 570s72.5-2.11 81.5-20m280 20s-71-2.11-80-20" class="shp3"/>
</g>
<g transform="translate(33.53553390593274 291.01362954285077) scale(1.05 1.05) translate(-1.022117433050823 -1.6183985931975837) translate(14.431067811865478 -2.979591836734694)">
<path fill="#f2d6cb" stroke="#000" stroke-width="6" d="M40 14S10-1 5 4s0 30 5 40-5 25 30 20z"/>
</g>
<g transform="translate(323.53553390593277 291.01362954285077) scale(-1.05 1.05) translate(-41.9068147550837 -1.6183985931975837) translate(14.431067811865478 -2.979591836734694)">
<path fill="#f2d6cb" stroke="#000" stroke-width="6" d="M40 14S10-1 5 4s0 30 5 40-5 25 30 20z"/>
</g>
<g transform="scale(0.888 1) translate(25.225225225225223 0)">
<path fill="#f2d6cb" stroke="#000" stroke-width="6" d="M200 100c100 0 150 60 150 200 0 20-20 130-20 130l-80 50c-20 20-40 20-50 20s-30 0-50-20l-80-50S50 320 50 300c0-140 50-200 150-200Z"/><path fill="rgba(0,0,0,0.17)" d="M200 410c30 0 50 10 50 10 30 0 90-15 90-120h10c0 20-20 130-20 130l-80 50c-20 20-40 20-50 20s-30 0-50-20l-80-50S50 320 50 300h10c0 105 60 120 90 120 0 0 20-10 50-10" class="faceShave"/><path fill="rgba(0,0,0,0.17)" d="M60 300H50c0-140 50-200 150-200s150 60 150 200h-10v-10c0-5-10-20-15-25s-5-55-15-65c-40-40-60 0-110 0s-70-40-110 0c-10 10-10 60-15 65s-15 20-15 25z" class="headShave"/>
</g>
<g>
<path d="M144 363c-1.66 0-3-1.34-3-3s1.34-3 3-3 3 1.34 3 3-1.34 3-3 3m-15-1c-1.11 0-2-.89-2-2s.89-2 2-2 2 .89 2 2-.89 2-2 2m-15 1c-1.66 0-3-1.34-3-3s1.34-3 3-3 3 1.34 3 3-1.34 3-3 3m-15-1c-1.11 0-2-.89-2-2s.89-2 2-2 2 .89 2 2-.89 2-2 2m5 11c-1.66 0-3-1.34-3-3s1.34-3 3-3 3 1.34 3 3-1.34 3-3 3m10-1c-1.11 0-2-.89-2-2s.89-2 2-2 2 .89 2 2-.89 2-2 2m10 1c-1.66 0-3-1.34-3-3s1.34-3 3-3 3 1.34 3 3-1.34 3-3 3m10-1c-1.11 0-2-.89-2-2s.89-2 2-2 2 .89 2 2-.89 2-2 2m10 11c-1.66 0-3-1.34-3-3s1.34-3 3-3 3 1.34 3 3-1.34 3-3 3m-15-1c-1.11 0-2-.89-2-2s.89-2 2-2 2 .89 2 2-.89 2-2 2m-10 0c-1.11 0-2-.89-2-2s.89-2 2-2 2 .89 2 2-.89 2-2 2m-10 1c-1.66 0-3-1.34-3-3s1.34-3 3-3 3 1.34 3 3-1.34 3-3 3m-10-1c-1.11 0-2-.89-2-2s.89-2 2-2 2 .89 2 2-.89 2-2 2m45-10c-1.11 0-2-.89-2-2s.89-2 2-2 2 .89 2 2-.89 2-2 2m-50 0c-1.11 0-2-.89-2-2s.89-2 2-2 2 .89 2 2-.89 2-2 2m60 5c-1.11 0-2-.89-2-2s.89-2 2-2 2 .89 2 2-.89 2-2 2m0-10c-1.11 0-2-.89-2-2s.89-2 2-2 2 .89 2 2-.89 2-2 2m-48-15c-1.11 0-2-.89-2-2s.89-2 2-2 2 .89 2 2-.89 2-2 2m15 2c-2.21 0-4-1.79-4-4s1.79-4 4-4 4 1.79 4 4-1.79 4-4 4m15-2c-1.11 0-2-.89-2-2s.89-2 2-2 2 .89 2 2-.89 2-2 2m-15 41c-1.66 0-3-1.34-3-3s1.34-3 3-3 3 1.34 3 3-1.34 3-3 3m15-1c-1.11 0-2-.89-2-2s.89-2 2-2 2 .89 2 2-.89 2-2 2m-30 0c-1.11 0-2-.89-2-2s.89-2 2-2 2 .89 2 2-.89 2-2 2m150-29c-1.66 0-3-1.34-3-3s1.34-3 3-3 3 1.34 3 3-1.34 3-3 3m15-1c-1.11 0-2-.89-2-2s.89-2 2-2 2 .89 2 2-.89 2-2 2m15 1c-1.66 0-3-1.34-3-3s1.34-3 3-3 3 1.34 3 3-1.34 3-3 3m15-1c-1.11 0-2-.89-2-2s.89-2 2-2 2 .89 2 2-.89 2-2 2m-5 11c-1.66 0-3-1.34-3-3s1.34-3 3-3 3 1.34 3 3-1.34 3-3 3m-10-1c-1.11 0-2-.89-2-2s.89-2 2-2 2 .89 2 2-.89 2-2 2m-10 1c-1.66 0-3-1.34-3-3s1.34-3 3-3 3 1.34 3 3-1.34 3-3 3m-10-1c-1.11 0-2-.89-2-2s.89-2 2-2 2 .89 2 2-.89 2-2 2m-10 11c-1.66 0-3-1.34-3-3s1.34-3 3-3 3 1.34 3 3-1.34 3-3 3m15-1c-1.11 0-2-.89-2-2s.89-2 2-2 2 .89 2 2-.89 2-2 2m10 0c-1.11 0-2-.89-2-2s.89-2 2-2 2 .89 2 2-.89 2-2 2m10 1c-1.66 0-3-1.34-3-3s1.34-3 3-3 3 1.34 3 3-1.34 3-3 3m10-1c-1.11 0-2-.89-2-2s.89-2 2-2 2 .89 2 2-.89 2-2 2m-45-10c-1.11 0-2-.89-2-2s.89-2 2-2 2 .89 2 2-.89 2-2 2m50 0c-1.11 0-2-.89-2-2s.89-2 2-2 2 .89 2 2-.89 2-2 2m-60 5c-1.11 0-2-.89-2-2s.89-2 2-2 2 .89 2 2-.89 2-2 2m0-10c-1.11 0-2-.89-2-2s.89-2 2-2 2 .89 2 2-.89 2-2 2m48-15c-1.11 0-2-.89-2-2s.89-2 2-2 2 .89 2 2-.89 2-2 2m-15 2c-2.21 0-4-1.79-4-4s1.79-4 4-4 4 1.79 4 4-1.79 4-4 4m-15-2c-1.11 0-2-.89-2-2s.89-2 2-2 2 .89 2 2-.89 2-2 2m15 41c-1.66 0-3-1.34-3-3s1.34-3 3-3 3 1.34 3 3-1.34 3-3 3m-15-1c-1.11 0-2-.89-2-2s.89-2 2-2 2 .89 2 2-.89 2-2 2m30 0c-1.11 0-2-.89-2-2s.89-2 2-2 2 .89 2 2-.89 2-2 2" style="opacity:.251;mix-blend-mode:multiply;fill:#8b6135"/>
</g>
<g transform="translate(101.97070870858956 282.01425559511955) rotate(0 38.029291291410445 27.98574440488045)">
<path d="m6.19 40.49-.83-22.07s2.27-3.87 17.09.22c29.93 8.26 42.45 4.47 42.45 4.47l6.04 11.72s-7.05.61-29.88 2.61c-22.84 2-34.87 3.05-34.87 3.05" style="fill:#f5f3ee"/><path d="M38.86 36.14c-4.51.39-8.55-3.74-9.03-9.25s2.83-7.08 7.34-7.48c4.52-.39 8.51.54 8.99 6.05s-2.78 10.28-7.3 10.68" style="fill:#000"/><path d="M6.19 40.49S2.41 12.46 9.05 15.75c10.49 5.2 55.85 7.36 55.85 7.36l6.04 11.72" style="fill:none;stroke:#000;stroke-width:6"/>
</g>
<g transform="translate(221.97070870858954 282.01425559511955) rotate(0 38.029291291410445 27.98574440488045) scale(-1 1) translate(-76.05858258282089 0)">
<path d="m6.19 40.49-.83-22.07s2.27-3.87 17.09.22c29.93 8.26 42.45 4.47 42.45 4.47l6.04 11.72s-7.05.61-29.88 2.61c-22.84 2-34.87 3.05-34.87 3.05" style="fill:#f5f3ee"/><path d="M38.86 36.14c-4.51.39-8.55-3.74-9.03-9.25s2.83-7.08 7.34-7.48c4.52-.39 8.51.54 8.99 6.05s-2.78 10.28-7.3 10.68" style="fill:#000"/><path d="M6.19 40.49S2.41 12.46 9.05 15.75c10.49 5.2 55.85 7.36 55.85 7.36l6.04 11.72" style="fill:none;stroke:#000;stroke-width:6"/>
</g>
<g transform="translate(108.86892922080625 258.70179368409975) rotate(-14 31.131070779193745 11.298206315900256)">
<path fill="#272421" stroke="#000" d="M22.1 6.48c-.96.74-2.71 2.33-3.9 3.5-1.23 1.17-2.47 2.63-2.7 3.13-.23.52-.26.96-.05.96.2 0 3.06-1.05 6.01-1.65 2.72-.11 6.42.27 8.3.66 1.87.43 6.07 1.67 9.35 2.77 3.39 1.08 7.94 2.5 10.06 3.19 2.23.61 5.3 1.02 6.7.99 1.43-.06 3.53-.35 4.62-.61 1.68-.41 1.9-.62 1.72-1.65-.12-.91-.85-1.63-2.76-2.9-1.36-1-4.3-2.66-6.56-3.72-2.26-1.13-6.33-3.1-9.03-4.35-2.71-1.31-7.02-3.02-9.57-3.73-3.6-.81-5.24-.65-7.53.51-1.61.77-3.71 2.09-4.66 2.9Z"/><path d="M0 10h5v5H0z" style="fill:none"/>
</g>
<g transform="translate(228.86892922080625 258.70179368409975) rotate(14 31.131070779193745 11.298206315900256) scale(-1 1) translate(-62.26214155838749 0)">
<path fill="#272421" stroke="#000" d="M22.1 6.48c-.96.74-2.71 2.33-3.9 3.5-1.23 1.17-2.47 2.63-2.7 3.13-.23.52-.26.96-.05.96.2 0 3.06-1.05 6.01-1.65 2.72-.11 6.42.27 8.3.66 1.87.43 6.07 1.67 9.35 2.77 3.39 1.08 7.94 2.5 10.06 3.19 2.23.61 5.3 1.02 6.7.99 1.43-.06 3.53-.35 4.62-.61 1.68-.41 1.9-.62 1.72-1.65-.12-.91-.85-1.63-2.76-2.9-1.36-1-4.3-2.66-6.56-3.72-2.26-1.13-6.33-3.1-9.03-4.35-2.71-1.31-7.02-3.02-9.57-3.73-3.6-.81-5.24-.65-7.53.51-1.61.77-3.71 2.09-4.66 2.9Z"/><path d="M0 10h5v5H0z" style="fill:none"/>
</g>
<g transform="translate(0 5) scale(-1 1) translate(-400 0)">
<path d="M170 430s10 10 30 10 30-10 30-10" style="fill:none;stroke:#000;stroke-width:5"/>
</g>
<g transform="translate(144.4115 264.9735) scale(0.58 0.58) translate(40.25374137931035 76.05367241379311)">
<path fill="#f2d6cb" stroke="#000" stroke-width="5" d="M40.3 99.804c2.56 5.426 7.286 9.34 15.292 10.445 8.532-1.475 12.386-4.548 15.285-10.378"/>
</g>
<g transform="scale(-1 1) translate(-400.4388748938115 0) scale(0.888 1) translate(25.252902020330453 0)">
<path fill="#272421" stroke="#000" stroke-width="4" d="m61.7 299.46-10.79-1.23s-10.55-7.47-9.99-21.33c.2-6.62.55-13.25 1.03-19.82.48-6.75 1.1-13.35 1.87-19.76.77-6.5 1.71-12.75 2.79-18.74q1.68-9.06 3.81-17.28c2.95-11.1 6.5-21.14 10.55-30.24 4.14-9.39 8.72-17.95 13.64-25.73 4.93-8.16 10.17-15.52 15.66-22.06 5.47-6.82 11.21-12.68 17.19-17.5 5.99-4.91 12.29-8.62 18.85-11.06 6.62-2.37 13.57-3.37 20.77-2.99l3.58 10.85s-.75-13.55 5.88-19a177 177 0 0 1 29.09-2.68c9.7.09 19.24.91 28.5 2.37 9.29 1.54 18.27 3.62 26.81 6.14 8.53 2.51 16.59 5.39 24.08 8.55 7.45 3.07 14.32 6.39 20.5 9.9 6.15 3.4 11.62 7 16.32 10.78 9.32 7.24 15.62 15.38 18.16 24.57 9.94 8.58 17.34 13.01 22.88 16.87 5.51 3.74 9.18 7.07 11.66 13.24 2.47 6.14 3.76 15.25 4.44 30.69.33 7.78.49 17.19.55 28.61.02 5.72.01 11.94-.02 18.7-.04 6.74-.1 14-.17 21.81-.22 17.63-10.22 27.27-10.22 27.27l-9.83.91.08-16.17c.03-4.17-9.91-15.03-14.94-18.34-2.52-1.66-3.75-13.28-5.58-25.67-1.82-12.71-4.24-26.18-9.3-29.97-2.53-1.93-8.29-2.15-16.16-1.32-7.91.76-17.95 2.52-29.02 4.63-11.09 1.98-23.17 4.25-35.09 6.18-11.91 1.75-23.62 3.16-33.98 3.69-15.47.5-24.85-4.38-30.68-10.75-5.77-6.56-8.03-14.6-9.36-20.07-.19 5.46-12.88 10.55-26.66 15.16-13.56 4.08-28.05 7.46-32.89 11.64-4.8 4.01-9.64 16.87-13.62 28.51-3.71 10.96-6.61 20.92-8.83 22.4-4.44 2.92-13.2 12.13-12.93 15.54.29 3.31 1.37 12.7 1.37 12.7Z"/>
</g>
</svg>