<svg xmlns="http://www.w3.org/2000/svg" version="1.2" baseProfile="tiny" width="100%" height="100%" viewBox="0 0 400 600" preserveAspectRatio="xMinYMin meet">
<g transform="scale(0.98 1) translate(4.081632653061228 0)">
<path fill="#f2d6cb" stroke="#000" stroke-width="6" d="M10 600s-10-70 50-70c10 0 0-10 60-20 0 0 50-210 80-210s80 210 80 210c60 10 50 20 60 20 60 0 50 70 50 70"/><path d="M71 545s46.9-3 82.1 10M329 545s-46.9-3-82.1 10m77.1-18s5.5-7.5 22-7m-271 7s-5.5-7.5-22-7"/>
</g>
<g transform="scale(0.98 1) translate(4.081632653061228 0)">
<g stroke="#000"><path fill="#89bfd3" stroke-width="6" d="M120 505c0 20 50 15 80 35 30-20 80-15 80-35 0 0 50-5 80 5 0 0 20 10 30 40s10 60 10 60H0s0-30 10-60 30-40 30-40c30-10 80-5 80-5Z" class="hockeyPrimary"/><path fill="#7a1319" stroke-width="2" d="M120 505c0 20 50 15 80 30 30-15 80-10 80-30l15-1c0 41-40 21-95 56-55-35-95-15-95-56z" class="collarSecondary"/><path fill="none" stroke-width="6" d="M120 505c0 20 50 15 80 35 30-20 80-15 80-35 0 0 50-5 80 5 0 0 20 10 30 40s10 60 10 60H0s0-30 10-60 30-40 30-40c30-10 80-5 80-5Z" class="hockeyStroke"/><path fill="#07364f" stroke-width="2" d="M180 528.21h40l10 17.05L200 564l-30-18.74z" class="shieldAccent"/></g>
</g>
<g transform="translate(32 293.3) scale(1.44 1.44) translate(-7.027777777777778 -9.686111111111112) translate(8.78 -3)">
<path fill="#f2d6cb" stroke="#000" stroke-width="6" d="M43 8S3-12 3 28c0 45 40 30 40 30z"/>
</g>
<g transform="translate(322 293.3) scale(-1.44 1.44) translate(-38.97222222222222 -9.686111111111112) translate(8.78 -3)">
<path fill="#f2d6cb" stroke="#000" stroke-width="6" d="M43 8S3-12 3 28c0 45 40 30 40 30z"/>
</g>
<g transform="scale(0.924 1) translate(16.45021645021644 0)">
<path fill="#f2d6cb" stroke="#000" stroke-width="6" d="M200 100c100 0 150 60 150 200 0 70-30 150-40 160s-60 40-110 40-100-30-110-40-40-90-40-160c0-140 50-200 150-200Z" class="head"/><path fill="rgba(0,0,0,0.19)" d="M200 410c30 0 50 10 50 10 30 0 90-15 90-120h10c0 70-30 150-40 160s-60 40-110 40-100-30-110-40-40-90-40-160h10c0 105 60 120 90 120 0 0 20-10 50-10" class="faceShave"/><path fill="rgba(0,0,0,0.19)" d="M60 300H50c0-140 50-200 150-200s150 60 150 200h-10v-10c0-5-10-20-15-25s-5-55-15-65c-40-40-60 0-110 0s-70-40-110 0c-10 10-10 60-15 65s-15 20-15 25z" class="headShave"/>
</g>
<g transform="translate(144.4807306749833 416) scale(1.01 1.01) translate(-0.05464623094075954 -0.18811881188118829)">
<path fill="none" stroke="#000" stroke-width="2" d="M9 2s-12.5 8.95-4 34" class="shp0"/>
</g>
<g transform="translate(244.4807306749833 416) scale(-1.01 1.01) translate(-10.983892419092657 -0.18811881188118829)">
<path fill="none" stroke="#000" stroke-width="2" d="M9 2s-12.5 8.95-4 34" class="shp0"/>
</g>
<g transform="scale(0.924 1) translate(16.453300865800855 0)">
<path fill="#5A3825" stroke="#000" d="M341.86 329.762c-18.78 98.415-39.492 102.786-40.731 106.121-16.86 17.717-52.855 38.72-62.486 41.411-18.05 5.044-27.166 6.53-27.222 4.596-.084-2.842 0-14.947 0-14.947s-7.232-.02-11.188 0c-3.985.02-11.47 0-11.47 0s.03 11.263 0 14.947c-.022 2.551-15.622-.996-29.079-4.596-9.66-2.585-48.654-24.496-61.946-42.674-2.083-2.473-22.699-13.454-39.524-104.858h-10c6.25 93.092 30.023 116.409 32.351 120.951 0 0 44.861 57.484 119.668 57.548 75 .065 117.788-57.548 117.788-57.548 2.596-5.716 23.22-21.704 33.84-120.951z" class="shp0"/>
</g>
<g transform="translate(101.97070870858956 282.01425559511955) rotate(9 38.029291291410445 27.98574440488045)">
<path d="m6.19 40.49-.83-22.07s2.27-3.87 17.09.22c29.93 8.26 42.45 4.47 42.45 4.47l6.04 11.72s-7.05.61-29.88 2.61c-22.84 2-34.87 3.05-34.87 3.05" style="fill:#f5f3ee"/><path d="M38.86 36.14c-4.51.39-8.55-3.74-9.03-9.25s2.83-7.08 7.34-7.48c4.52-.39 8.51.54 8.99 6.05s-2.78 10.28-7.3 10.68" style="fill:#000"/><path d="M6.19 40.49S2.41 12.46 9.05 15.75c10.49 5.2 55.85 7.36 55.85 7.36l6.04 11.72" style="fill:none;stroke:#000;stroke-width:6"/>
</g>
<g transform="translate(221.97070870858954 282.01425559511955) rotate(-9 38.029291291410445 27.98574440488045) scale(-1 1) translate(-76.05858258282089 0)">
<path d="m6.19 40.49-.83-22.07s2.27-3.87 17.09.22c29.93 8.26 42.45 4.47 42.45 4.47l6.04 11.72s-7.05.61-29.88 2.61c-22.84 2-34.87 3.05-34.87 3.05" style="fill:#f5f3ee"/><path d="M38.86 36.14c-4.51.39-8.55-3.74-9.03-9.25s2.83-7.08 7.34-7.48c4.52-.39 8.51.54 8.99 6.05s-2.78 10.28-7.3 10.68" style="fill:#000"/><path d="M6.19 40.49S2.41 12.46 9.05 15.75c10.49 5.2 55.85 7.36 55.85 7.36l6.04 11.72" style="fill:none;stroke:#000;stroke-width:6"/>
</g>
<g transform="translate(101.88888888888889 258.62629757785464) rotate(-14 38.111111111111114 11.373702422145328)">
<path fill="#5A3825" stroke="#000" d="M71 21c8-8 0-12 0-12S43 5 35 5C25 5 7 1 7 1S-5 5 7 17c16 4 8 0 28 0 32 0 33 7 36 4Z"/>
</g>
<g transform="translate(221.88888888888889 258.62629757785464) rotate(14 38.111111111111114 11.373702422145328) scale(-1 1) translate(-76.22222222222223 0)">
<path fill="#5A3825" stroke="#000" d="M71 21c8-8 0-12 0-12S43 5 35 5C25 5 7 1 7 1S-5 5 7 17c16 4 8 0 28 0 32 0 33 7 36 4Z"/>
</g>
<g transform="translate(0 10)">
<path d="M180 430h40" style="fill:none;stroke:#000;stroke-width:5"/>
</g>
<g transform="translate(0 12.5) scale(-0.59 0.59) translate(-538.9830508474577 248.43220338983056)">
<path fill="#f2d6cb" stroke="#000" stroke-width="5" d="M180 380s10-5 20-5 20 5 20 5m-20-5v-40" class="nose"/>
</g>
<g transform="scale(0.924 1) translate(16.42060606060605 0)">
<path fill="#5A3825" stroke="#000" stroke-width="5" d="m59.99 309.97-9.99.02s-1.98-4.71-4.04-9.48l-10.6-24.48-8.66-11.07 1.65-9.05-7.84-11.2 3.59-9.06-6.17-11.15 5.2-8.9-3.58-14.75 17.6-9.39-3.32-14.5 25.03-8.7.75-14.9 21.98-3.91 1.47-18.31 21.51-3.02 4.96-19.14 18.68.03 12.26-22.85 17.27 9.82 11.33-24.4 13.86 17.48 13.2-24.51 15.63 24.47 12.3-17.59 13.77 24.45 16.76-9.92 14.31 22.84 19.14-.12 5.99 18.93 21.94 2.75 1.86 17.9 21.99 3.44.81 14.49 24.54 7.65-3.1 14.55 17.26 8.86-3.27 14.66 5.29 8.76-5.85 11.28 3.78 9.07-7.58 11.5 1.84 9.27-8.62 11.57-10.78 26.06c-2.15 5.19-4.22 10.36-4.22 10.36l-10.03-.1s-.79-15.25.11-20.4c.94-5.15-10.68-20.44-18.68-25.35-7.86-4.87-5.4-54.81-19.55-64.07-40.62-38.86-63.64 1.89-101.31 2.51-37.75.06-61.8-40.78-101.89-.55-14.3 9.72-11.99 59.64-19.91 64.54-8.01 4.91-19.57 19.04-18.66 23.92.87 4.84-.01 19.69-.01 19.69Z"/>
</g>
</svg>