<svg xmlns="http://www.w3.org/2000/svg" version="1.2" baseProfile="tiny" width="100%" height="100%" viewBox="0 0 400 600" preserveAspectRatio="xMinYMin meet">
<g transform="scale(1 1) translate(0 0)">
<path fill="#f0c5a3" stroke="#000" stroke-width="6" d="M10 600s-10-70 50-70c10 0 0-10 60-20 0 0 50-210 80-210s80 210 80 210c60 10 50 20 60 20 60 0 50 70 50 70"/><path d="M71 545s46.9-3 82.1 10M329 545s-46.9-3-82.1 10m77.1-18s5.5-7.5 22-7m-271 7s-5.5-7.5-22-7"/>
</g>
<g transform="scale(1 1) translate(0 0)">
<g stroke="#000"><path fill="#89bfd3" stroke-width="6" d="M120 505c0 20 50 15 80 35 30-20 80-15 80-35 0 0 50-5 80 5 0 0 20 10 30 40s10 60 10 60H0s0-30 10-60 30-40 30-40c30-10 80-5 80-5Z" class="hockeyPrimary"/><path fill="#07364f" d="M4.5 577.03S10 580 20 580c30-15 110-20 180-20 90 0 150 5 180 20 10 0 17-2.97 17-2.97l1 12.97s-8 5-18 5c-40-20-110-22.48-180-22.48-80 0-150 2.48-180 22.48-10 0-18-5-18-5z" class="stripeAccent"/><path fill="#7a1319" stroke-width="2" d="M172.5 545.53c-110-4.5-152 22.5-152 22.5s-9 1-14.5-5c15-48 34-53.03 34-53.03s50-5 80-5c0 20 52.5 40.53 52.5 40.53Zm55 0c110-4.5 152 22.5 152 22.5s9 1 14.5-5c-15-48-34-53.03-34-53.03s-50-5-80-5c0 20-52.5 40.53-52.5 40.53Z" class="shoulderSecondary"/><path fill="#07364f" stroke-width="2" d="M120 505c0 20 50 15 80 30 30-15 80-10 80-30l15-1c0 41-40 21-95 56-55-35-95-15-95-56z" class="collarAccent"/><path fill="none" stroke-width="6" d="M120 505c0 20 50 15 80 35 30-20 80-15 80-35 0 0 50-5 80 5 0 0 20 10 30 40s10 60 10 60H0s0-30 10-60 30-40 30-40c30-10 80-5 80-5Z" class="hockeyStroke"/><path fill="#7a1319" stroke-width="2" d="M180 528.21h40l10 17.05L200 564l-30-18.74z" class="shieldSecondary"/></g>
</g>
<g transform="translate(32 293.3) scale(1.18 1.18) translate(-3.5084745762711855 -4.835593220338982) translate(13.43 -3)">
<path fill="#f0c5a3" stroke="#000" stroke-width="6" d="M43 8S3-12 3 28c0 45 40 30 40 30z"/>
</g>
<g transform="translate(322 293.3) scale(-1.18 1.18) translate(-42.49152542372881 -4.835593220338982) translate(13.43 -3)">
<path fill="#f0c5a3" stroke="#000" stroke-width="6" d="M43 8S3-12 3 28c0 45 40 30 40 30z"/>
</g>
<g transform="scale(0.894 1) translate(23.713646532438474 0)">
<path fill="#f0c5a3" stroke="#000" stroke-width="6" d="M200 100c100 0 150 60 150 200 0 70-50 200-150 200S50 370 50 300c0-140 50-200 150-200Z" class="head"/><path fill="rgba(0,0,0,0)" d="M200 410c30 0 50 10 50 10 30 0 90-15 90-120h10c0 70-50 200-150 200S50 370 50 300h10c0 105 60 120 90 120 0 0 20-10 50-10" class="faceShave"/><path fill="rgba(0,0,0,0)" d="M60 300H50c0-140 50-200 150-200s150 60 150 200h-10v-10c0-5-10-20-15-25s-5-55-15-65c-40-40-60 0-110 0s-70-40-110 0c-10 10-10 60-15 65s-15 20-15 25z" class="headShave"/>
</g>
<g>
<path fill="none" stroke="#000" stroke-width="2" d="M235 285s10-10 45-10m-115 10s-10-10-45-10" class="eyeline6"/>
</g>
<g transform="translate(102.93299701421847 284.73230356541717) rotate(6 37.067002985781535 25.26769643458282)">
<path d="M68.08 23.19s1.89 14.88-27.87 18.67C15.41 45.02 6.66 15.89 6.03 10.93 25.87 8.4 65.55 3.35 68.08 23.19Z" style="fill:#fff;stroke:#000;stroke-width:5"/><path d="M39.04 16.81c9.92-1.27 11.81 13.61 1.89 14.88-9.92 1.26-11.81-13.62-1.89-14.88" style="fill:#000;stroke:#000;stroke-linecap:round;stroke-linejoin:round;stroke-width:4"/>
</g>
<g transform="translate(222.93299701421847 284.73230356541717) rotate(-6 37.067002985781535 25.26769643458282) scale(-1 1) translate(-74.13400597156307 0)">
<path d="M68.08 23.19s1.89 14.88-27.87 18.67C15.41 45.02 6.66 15.89 6.03 10.93 25.87 8.4 65.55 3.35 68.08 23.19Z" style="fill:#fff;stroke:#000;stroke-width:5"/><path d="M39.04 16.81c9.92-1.27 11.81 13.61 1.89 14.88-9.92 1.26-11.81-13.62-1.89-14.88" style="fill:#000;stroke:#000;stroke-linecap:round;stroke-linejoin:round;stroke-width:4"/>
</g>
<g transform="translate(97 257.6503955087335) rotate(19 43 12.349604491266511)">
<path fill="#0f0902" stroke="#000" d="M83 13C83 3 73 3 73 3 48-2 17.46 8.36 3 18c40-5 50 5 75 5 0 0 5 0 5-10Z"/>
</g>
<g transform="translate(217 257.6503955087335) rotate(-19 43 12.349604491266511) scale(-1 1) translate(-86 0)">
<path fill="#0f0902" stroke="#000" d="M83 13C83 3 73 3 73 3 48-2 17.46 8.36 3 18c40-5 50 5 75 5 0 0 5 0 5-10Z"/>
</g>
<g transform="translate(0 51.52119068455602) scale(-1 1) translate(-400 0)">
<path d="M168 384s9-13.77 32-14.03c17.4-.2 32 13.2 32 13.2s-4.29 23.24-32 23.81c-27.29.56-32-22.98-32-22.98" style="opacity:.05;mix-blend-mode:multiply;fill:#501414"/><path d="M168 384c12-4 48-4 64 0-20 4-10 4-32 4-20 0-16 0-32-4" style="fill:#fff"/><path d="M168 384c12-4 48-4 64 0-20 4-10 4-32 4-20 0-16 0-32-4Zm13.71 18.12c14.52 5.66 24.72 5.71 37.72-.71m.86-26.53c-14.52-5.66-27.29-6.34-40.29.09" style="fill:none;stroke:#000;stroke-width:3"/>
</g>
<g transform="translate(-4.045739644970411 -18.272994788737606) scale(1.2 1.2) translate(-34.00762327416173 -64.71216579812292)">
<path d="M180.17 380.08c1.6.3 3.5.1 4.8.9 4.7 2.8 9.2 6 13.8 9a10.23 10.23 0 0 0 11.7 0c3.9-2.5 7.8-5.1 11.7-7.6 1.6-1.1 3.3-2.2 5.7-3.8 0 2.1.4 3.4-.1 4.3-2.8 6.4-17.9 16.1-24.8 15-4-.6-8-2.8-11.3-5.3-4.3-3.3-7.8-7.5-11.6-11.4a4.5 4.5 0 0 0 .1-1.1"/>
</g>
<g transform="scale(0.894 1) translate(23.772876728293895 0)">
<defs><linearGradient id="a" x1="200" x2="200" y1="100" y2="310" gradientUnits="userSpaceOnUse"><stop offset="0" stop-color="rgba(0,0,0,.25)"/><stop offset="1" stop-color="rgba(0,0,0,0)"/></linearGradient></defs><path d="M60 310H50v-10c0-140 50-200 150-200s150 60 150 200v10h-10v-20c0-5-10-20-15-25s-5-55-15-65c-40-40-60 0-110 0s-70-40-110 0c-10 10-10 60-15 65s-15 20-15 25z" style="fill:url(#a);stroke:none"/><path fill="#0f0902" stroke="#000" stroke-width="4" d="M177 76.08c-1.37 1.1-3.4 1.99-4.49 1.96-1.1-.02-2.11.41-2.25.96s-2.29 1-4.76 1c-3 0-4.56.45-4.69 1.34-.1.74-1.23 1.86-2.5 2.5S154.39 85 152.43 85s-3.76.45-4 1c-.26.61-1.32.43-2.68-.46-1.81-1.17-3.57-1.27-9-.5-3.71.53-7.93 1.52-9.36 2.21-2.27 1.08-2.55 1.71-2.09 4.75.29 1.92.22 4-.14 4.62-.36.61-2.69 1.06-5.16 1-3.97-.11-4.53.15-4.75 2.13-.2 1.77-.73 2.15-2.5 1.76-1.24-.26-3.04-.49-4-.5-.96 0-1.97-.91-2.25-2.01s-1.17-2-2-2-1.82 1.01-2.2 2.25c-.39 1.24-.72 2.55-.75 2.92-.03.36-.4 1.04-.83 1.5s-.77 1.73-.76 2.83-.54 3.49-1.22 5.31c-1 2.67-2 3.49-5.24 4.25-2.2.52-4.99 1.73-6.21 2.69-1.21.96-2.23 2.54-2.25 3.5s-1.5 2.91-3.29 4.33c-2.23 1.77-3.96 2.4-5.5 2-1.75-.45-3.26.43-6.75 3.92-2.47 2.47-4.5 5.18-4.5 6s.56 1.65 1.25 1.84c.98.26.95.86-.12 2.75-.76 1.32-1.09 2.97-.75 3.66.36.73-1.67 3.42-4.92 6.5-4.21 4-6.18 6.89-8.25 12.11-1.49 3.78-3.29 7.38-4 8-.72.63-1.27 1.59-1.24 2.14s.95 2.91 2.04 5.25c1.69 3.61 1.78 4.44.6 5.5-.77.69-1.56 2.77-1.75 4.63-.29 2.75.16 3.78 2.41 5.5 1.53 1.17 2.76 2.57 2.73 3.12-.02.55.68 1.9 1.56 3 .87 1.1 1.3 1.32.94.5s.3-.37 1.47 1c1.16 1.38 2.1 3.29 2.07 4.25-.03 1.39.83 1.76 4.21 1.79 2.34.02 7.49.58 11.46 1.25l7.21 1.21c8.2-6.82 12.83-9.84 15.58-11.11s8.38-3.03 12.5-3.9c4.13-.88 12-1.86 17.5-2.17 7.07-.4 16.29.11 31.5 1.75 14.91 1.6 27.47 2.31 41 2.31s26.08-.71 41-2.32c15.87-1.7 24.25-2.15 32-1.69 5.77.35 13.65 1.31 17.5 2.15 3.85.83 9.25 2.57 12 3.85s7.48 4.36 10.5 6.85c3.33 2.74 6.29 4.41 7.5 4.22 1.1-.16 4.48-.79 7.5-1.38 3.02-.6 6.96-1.08 8.75-1.07 2.04.01 4.55-1.01 6.75-2.74 1.92-1.51 3.5-3.31 3.5-4s1.35-1.93 3-2.75c2.73-1.36 2.95-1.84 2.44-5.25-.31-2.06-1.21-4.31-2-5-1.24-1.07-1.09-1.92 1.09-6 1.39-2.61 2.52-5.2 2.5-5.75-.01-.55-.81-1.49-1.78-2.1-.96-.6-2.4-3.52-3.19-6.5-.93-3.51-3.01-7.32-5.94-10.9-2.48-3.03-5.16-5.95-5.96-6.5-.92-.63-1.21-1.75-.8-3 .43-1.28.03-2.65-1.1-3.81-1.54-1.58-1.59-2.08-.37-4 1.29-2.04 1.07-2.48-3.25-6.44-2.91-2.66-5.48-4.19-6.89-4.08-1.24.09-3.7-.47-5.47-1.25-1.98-.87-3.45-2.38-3.83-3.92-.33-1.37-1.36-3.3-2.28-4.28-1.01-1.08-3.05-1.76-5.17-1.73-2.77.04-3.97-.58-5.75-2.97-1.44-1.93-2.52-5.27-3-9.27l-.75-6.25c-5.23 0-6.92.56-7.13 1.25-.2.69-1.49 1.25-2.87 1.25-1.37 0-2.65.56-2.84 1.25s-1.09-.21-2-2c-1.56-3.05-1.93-3.22-5.91-2.77-2.76.32-4.51.06-4.98-.75-.41-.67-.75-2.58-.77-4.23s-.36-3.53-.77-4.17c-.4-.65-1.97-1.66-3.48-2.25-1.51-.6-5.79-1.55-9.5-2.13-5.75-.89-6.94-.82-8 .5-1.13 1.4-1.47 1.4-3.5.01-1.24-.84-3.6-1.45-5.25-1.35-1.65.11-4.01.12-5.25.04-1.27-.08-2.25-.81-2.25-1.65 0-.83-.79-1.74-1.75-2.03-.96-.28-2.55-.17-3.54.25-.98.43-1.99 1.34-2.25 2.03-.25.69-1.14 1.25-1.96 1.25s-2.51-1.23-3.75-2.73-2.98-4.09-3.87-5.75-2.35-3.13-3.25-3.27c-.89-.14-3.43 1.1-5.63 2.75l-4 3c-5.03-3.68-7.6-4.5-10.08-4.5-2.15 0-3.92-.34-3.92-.75s-2.36-.74-5.25-.72c-3.72.03-5.98.62-7.75 2.05Z"/>
</g>
</svg>