<svg xmlns="http://www.w3.org/2000/svg" version="1.2" baseProfile="tiny" width="100%" height="100%" viewBox="0 0 400 600" preserveAspectRatio="xMinYMin meet">
<g transform="scale(1.01 1) translate(-2.0041322314049603 0)">
<path fill="#f2d6cb" stroke="#000" stroke-width="6" d="M20 600s-5-60 40-70c15 0 45-15 90-35l50-195 50 195c45 20 75 35 90 35 45 10 45 70 45 70" class="body"/>
</g>
<g transform="scale(1.01 1) translate(-1.980198019801982 0)">
<path fill="#89bfd3" stroke="#000" stroke-width="6" d="M120 505c0 35 50 25 80 45 30-20 80-10 80-45 30-25 90-15 100-5s10.07 20.41 15 50c5 30 5 20 5 60H0c0-40 0-29.59 5-59.59 4.93-29.59 5-39.38 15-50.41 9.5-10.48 70-20 100 5Z" class="footballPrimary"/><path fill="#7a1319" stroke="#000" stroke-width="2" d="M120 505c0 35 50 25 80 45 30-20 80-10 80-45l15-10c5 60-55 45-95 75-40-30-100-15-95-75z" class="collarSecondary"/><path fill="#7a1319" stroke="#000" stroke-width="2" d="M120 540c-40 26.67-60 80-60 80h40s0-53.33 20-80Zm160 0c40 26.67 60 80 60 80h-40s0-53.33-20-80Z" class="Stallion"/><path fill="none" stroke="#000" stroke-width="6" d="M120 505c0 35 50 25 80 45 30-20 80-10 80-45 30-25 90-15 100-5s10.07 20.41 15 50c5 30 5 20 5 60H0c0-40 0-30 5-60 4.93-29.59 5-38.97 15-50 9.5-10.48 70-20 100 5Z" class="footballStroke"/><path fill="none" stroke="#000" stroke-width="2" d="M19.5 570s72.5-2.11 81.5-20m280 20s-71-2.11-80-20" class="shp3"/>
</g>
<g transform="translate(33.53553390593274 291.01362954285077) scale(0.76 0.76) translate(6.778252450758083 10.732538039099756) translate(2.961067811865474 -2.979591836734694)">
<path fill="#f2d6cb" stroke="#000" stroke-width="6" d="M40 14S10-1 5 4s0 30 5 40-5 25 30 20z"/>
</g>
<g transform="translate(323.53553390593277 291.01362954285077) scale(-0.76 0.76) translate(-49.707184638892606 10.732538039099756) translate(2.961067811865474 -2.979591836734694)">
<path fill="#f2d6cb" stroke="#000" stroke-width="6" d="M40 14S10-1 5 4s0 30 5 40-5 25 30 20z"/>
</g>
<g transform="scale(0.9620000000000001 1) translate(7.900207900207883 0)">
<path fill="#f2d6cb" stroke="#000" stroke-width="6" d="M200 100c100 0 150 60 150 200 0 50-.51 71.54-10 100-10 30-80 70-90 80s-20 20-50 20-40-10-50-20-80-50-90-80c-9.49-28.46-10-50-10-100 0-140 50-200 150-200Z" class="head"/><path fill="rgba(0,0,0,0)" d="M200 410c30 0 50 10 50 10 30 0 90-15 90-120h10c0 50-.51 71.54-10 100-10 30-80 70-90 80s-20 20-50 20-40-10-50-20-80-50-90-80c-9.49-28.46-10-50-10-100h10c0 105 60 120 90 120 0 0 20-10 50-10" class="faceShave"/><path fill="rgba(0,0,0,0)" d="M60 300H50c0-140 50-200 150-200s150 60 150 200h-10v-10c0-5-10-20-15-25s-5-55-15-65c-40-40-60 0-110 0s-70-40-110 0c-10 10-10 60-15 65s-15 20-15 25z" class="headShave"/>
</g>
<g>
<path fill="none" stroke="#000" stroke-width="2" d="M220 270s-10 0-10-20m-30 20s10 0 10-20" class="eyeline1"/>
</g>
<g transform="translate(147 424.5) scale(0.75 0.75) translate(1 3.5)">
<path fill="none" stroke="#000" stroke-width="2" d="m0 20 6-10-6-9" class="shp0"/>
</g>
<g transform="translate(247 424.5) scale(-0.75 0.75) translate(-7 3.5)">
<path fill="none" stroke="#000" stroke-width="2" d="m0 20 6-10-6-9" class="shp0"/>
</g>
<g>
<path fill="none" stroke="#000" stroke-width="2" d="M200 270v-15l5-5-5 5-5-5"/>
</g>
<g transform="scale(0.9620000000000001 1) translate(7.900207900207883 0)">
<path fill="#D7BF91" stroke="#000" d="M205 420c-4 0-5-5-.8-10 5.8-5 15.8-5 15.8-5 15 0 35 15 35 25 0 30 10 55 5 60s-15 5-20 0 5-40 5-55-15-15-40-15Zm-10 0c4 0 5-5 0-10s-15-5-15-5c-16 0-35 15-35 25 0 30-10 55-5 60s15 5 20 0-5-40-5-55 15-15 40-15Zm-7 38c2-2 22-2 24 0s-8 16-12 16-14-14-12-16Z"/>
</g>
<g transform="translate(98.84448468063304 285.57536672288046) rotate(-1 41.155515319366955 24.42463327711953)">
<path d="M73.67 39.73c3.92-10.47 2.35-25.38 2.35-25.38s-35.86-6.27-45.8-5.22c-9.95 1.04-24.34 7.59-24.34 7.59s-1.44 10.21 7.6 24.34z" style="fill:#fff"/><path d="M45.8 37.65c-4.13.43-8.17-5.88-9.04-14.13s1.76-15.27 5.89-15.71c4.12-.43 8.16 5.88 9.03 14.13s-1.76 15.27-5.88 15.71" style="fill:#000"/><path d="M73.67 39.73c4.45-5.49 2.35-25.38 2.35-25.38s-35.86-6.27-45.8-5.22c-9.95 1.04-24.34 7.59-24.34 7.59s1.57 14.92 7.6 24.34" style="fill:none;stroke:#000;stroke-width:5"/>
</g>
<g transform="translate(218.84448468063306 285.57536672288046) rotate(1 41.155515319366955 24.42463327711953) scale(-1 1) translate(-82.31103063873391 0)">
<path d="M73.67 39.73c3.92-10.47 2.35-25.38 2.35-25.38s-35.86-6.27-45.8-5.22c-9.95 1.04-24.34 7.59-24.34 7.59s-1.44 10.21 7.6 24.34z" style="fill:#fff"/><path d="M45.8 37.65c-4.13.43-8.17-5.88-9.04-14.13s1.76-15.27 5.89-15.71c4.12-.43 8.16 5.88 9.03 14.13s-1.76 15.27-5.88 15.71" style="fill:#000"/><path d="M73.67 39.73c4.45-5.49 2.35-25.38 2.35-25.38s-35.86-6.27-45.8-5.22c-9.95 1.04-24.34 7.59-24.34 7.59s1.57 14.92 7.6 24.34" style="fill:none;stroke:#000;stroke-width:5"/>
</g>
<g transform="translate(-127.5 -8.774999999999977) rotate(8 267.5 278.775)">
<path fill="#D7BF91" stroke="#000" d="m235 280 65 5-5-12.45-55 2.45z"/>
</g>
<g transform="translate(-7.5 -8.774999999999977) rotate(-8 267.5 278.775) scale(-1 1) translate(-535 0)">
<path fill="#D7BF91" stroke="#000" d="m235 280 65 5-5-12.45-55 2.45z"/>
</g>
<g transform="translate(0 10)">
<path d="M180 430h40" style="fill:none;stroke:#000;stroke-width:5"/>
</g>
<g transform="translate(174.5 336.5) scale(0.97 0.97) translate(0.7886597938144337 1.0360824742268049)">
<path fill="#f2d6cb" stroke="#000" stroke-width="5" d="m28 1 20 45s-5 20-25 20S3 46 3 46" class="nose"/>
</g>
<g transform="scale(0.9620000000000001 1) translate(7.889654423119955 0)">
<path fill="#D7BF91" stroke="#000" stroke-width="5" d="M60.24 310h-9.98s-.07-4.66-.15-9.25c-.13-7.33-.35-14.71-.63-22-.27-7.13-.61-14.16-.97-20.97-.36-6.66-.75-13.11-1.15-19.21-.4-5.99-.82-11.65-1.23-16.87-.82-10.14-1.64-18.6-2.28-24.6-.66-5.8-1.11-9.4-1.14-10.19-.28-6.19 4.6-16.43 4.6-16.43l10.34-1.07 6.77-19.05 14.5-3.03 6.87-18.83 15.24-2.24 7.59-17.19 14.65-.88 11.11-15.77L145 94.35l10.35-10.28 9.9 3.53 11.34-8.05 7.93 5.52 10.19-6.93 8.77 6.13 9.09-6.13 9.76 6.92 8.13-5.51 10.79 8.02 9.87-3.53 9.66 10.2 10.42-1.95 10.35 17.32 8.88-3.62 11.75 19.55 11.52-.07 9.1 20.54 13.83 2.61 6.05 18.75 9.89.68s4.51 10.05 4.18 16.3c-.04.8-.5 4.45-1.17 10.35-.64 6.13-1.45 14.79-2.26 25.2-.4 5.36-.79 11.19-1.17 17.36-.37 6.28-.73 12.92-1.05 19.77-.32 6.98-.61 14.18-.84 21.45-.23 7.4-.39 14.87-.48 22.25l-.1 9.27h-9.98s.25-12.6.34-16.86c.11-4.27-9.33-15.45-14.07-18.99-2.37-1.82-3.08-14.23-4.38-27.82-1.35-14.27-3.37-29.86-8.11-35.85-9.64-12.96-18.21-20.72-26.42-24.83-8.27-4.12-16.12-3.99-24.39-1.96-8.35 2.37-17.13 6.82-27.2 10.64-10.13 4.15-21.53 7.6-35 7.52-13.21.16-24.36-3.22-34.3-7.31-9.9-3.76-18.58-8.15-26.95-10.45-8.34-1.94-16.37-1.96-24.99 2.28-8.55 4.24-17.56 12.12-27.68 25.16-4.92 6.01-7.23 21.43-8.74 35.49-1.35 13.37-2.03 25.59-4.36 27.4-4.68 3.5-13.9 14.55-13.75 18.78.14 4.23.54 16.8.54 16.8Z"/>
</g>
<g transform="scale(0.9620000000000001 1) translate(7.900207900207883 0)">
<path fill="#333" stroke="#000" stroke-width="2" d="M195 285h10s35-10 65-10 50 10 50 10 0 5 10 5v30c-10 0-10 5-10 5s-20 20-50 20c-60 0-65-35-65-35 0-5-10-5-10 0 0 0-5 35-65 35-30 0-50-20-50-20s0-5-10-5v-30c10 0 10-5 10-5s20-10 50-10 65 10 65 10ZM90 295c0 20 0 40 40 40 50 0 50-30 50-30v-10s-20-10-50-10c-40 0-40 10-40 10Zm130 10s0 30 50 30c40 0 40-20 40-40 0 0 0-10-40-10-30 0-50 10-50 10z" class="frame"/><path fill="rgba(150,150,175,.5)" d="M90 295s0-10 40-10c30 0 50 10 50 10v10s0 30-50 30c-40 0-40-20-40-40m180 40c-50 0-50-30-50-30v-10s20-10 50-10c40 0 40 10 40 10 0 20 0 40-40 40" class="lens"/><path fill="#89bfd3" stroke="#000" stroke-width="2" d="M350 320v-30h-20v30zm-280 0v-30H50v30z" class="straps"/><path fill="none" stroke="#fff" stroke-width="2" d="m280 315 10-20m0 20 10-20m-160 20 10-20m0 20 10-20" class="glare"/>
</g>
</svg>