<svg xmlns="http://www.w3.org/2000/svg" version="1.2" baseProfile="tiny" width="100%" height="100%" viewBox="0 0 400 600" preserveAspectRatio="xMinYMin meet">
<g transform="scale(1.02 1) translate(-3.921568627450984 0)">
<path fill="#ddb7a0" stroke="#000" stroke-width="6" d="M10 600s-10-65 50-65c5 0 25-15 70-35l70-200 70 200c45 20 65 35 70 35 60 0 50 65 50 65" class="body"/>
</g>
<g transform="scale(1.02 1) translate(-3.921568627450984 0)">
<g stroke="#000"><path fill="#89bfd3" stroke-width="6" d="M120 505c0 20 50 15 80 35 30-20 80-15 80-35 0 0 50-5 80 5 0 0 20 10 30 40s10 60 10 60H0s0-30 10-60 30-40 30-40c30-10 80-5 80-5Z" class="hockeyPrimary"/><path fill="#7a1319" d="M4.5 577.03S10 580 20 580c30-15 110-20 180-20 90 0 150 5 180 20 10 0 17-2.97 17-2.97l1 12.97s-8 5-18 5c-40-20-110-22.48-180-22.48-80 0-150 2.48-180 22.48-10 0-18-5-18-5z" class="stripeAccent"/><path fill="#7a1319" stroke-width="2" d="M120 505c0 20 50 15 80 30 30-15 80-10 80-30l15-1c0 41-40 21-95 56-55-35-95-15-95-56z" class="collarAccent"/><path fill="none" stroke-width="6" d="M120 505c0 20 50 15 80 35 30-20 80-15 80-35 0 0 50-5 80 5 0 0 20 10 30 40s10 60 10 60H0s0-30 10-60 30-40 30-40c30-10 80-5 80-5Z" class="hockeyStroke"/><path fill="#07364f" stroke-width="2" d="M180 528.21h40l10 17.05L200 564l-30-18.74z" class="shieldSecondary"/></g>
</g>
<g transform="translate(33.53553390593274 291.01362954285077) scale(0.88 0.88) translate(2.9269726491909904 4.6345050623385315) translate(2.031067811865476 -2.979591836734694)">
<path fill="#ddb7a0" stroke="#000" stroke-width="6" d="M40 14S10-1 5 4s0 30 5 40-5 25 30 20z"/>
</g>
<g transform="translate(323.53553390593277 291.01362954285077) scale(-0.88 0.88) translate(-45.85590483732551 4.6345050623385315) translate(2.031067811865476 -2.979591836734694)">
<path fill="#ddb7a0" stroke="#000" stroke-width="6" d="M40 14S10-1 5 4s0 30 5 40-5 25 30 20z"/>
</g>
<g transform="scale(0.9680000000000001 1) translate(6.611570247933867 0)">
<path fill="#ddb7a0" stroke="#000" stroke-width="6" d="M200 100c100 0 150 60 150 200 0 20-5 100-25 130-10 20-45 50-85 55-5 5-15 15-40 15s-35-10-40-15c-35-5-75-35-85-55-20-30-25-110-25-130 0-140 50-200 150-200Z" class="head"/><path fill="rgba(0,0,0,0)" d="M200 410c30 0 50 10 50 10 30 0 90-15 90-120h10c0 20-5 100-25 130-10 20-45 50-85 55-5 5-15 15-40 15s-35-10-40-15c-35-5-75-35-85-55-20-30-25-110-25-130h10c0 105 60 120 90 120 0 0 20-10 50-10" class="faceShave"/><path fill="rgba(0,0,0,0)" d="M60 300H50c0-140 50-200 150-200s150 60 150 200h-10v-10c0-5-10-20-15-25s-5-55-15-65c-40-40-60 0-110 0s-70-40-110 0c-10 10-10 60-15 65s-15 20-15 25z" class="headShave"/>
</g>
<g transform="translate(102.8498332560182 285.155) rotate(0 37.15016674398179 24.845)">
<path d="M5.55 28.46S17.08 11.77 40 11.77s28.58 16.69 28.58 16.69-5.73 11.46-28.65 11.46S5.55 28.46 5.55 28.46" style="fill:#f5f3ee"/><path d="M5.55 28.46C2.68 25.6 17.08 9.77 40 9.77S71.44 25.6 68.58 28.46C65.71 31.33 62.92 16.27 40 16.27S8.41 31.33 5.55 28.46" style="fill:#000"/><path d="M39.93 33.04c-6.34 0-11.46-5.12-11.46-11.46 0-6.33 5.12-11.46 11.46-11.46s11.46 5.13 11.46 11.46c0 6.34-5.12 11.46-11.46 11.46" style="fill:#000"/>
</g>
<g transform="translate(222.8498332560182 285.155) rotate(0 37.15016674398179 24.845) scale(-1 1) translate(-74.30033348796358 0)">
<path d="M5.55 28.46S17.08 11.77 40 11.77s28.58 16.69 28.58 16.69-5.73 11.46-28.65 11.46S5.55 28.46 5.55 28.46" style="fill:#f5f3ee"/><path d="M5.55 28.46C2.68 25.6 17.08 9.77 40 9.77S71.44 25.6 68.58 28.46C65.71 31.33 62.92 16.27 40 16.27S8.41 31.33 5.55 28.46" style="fill:#000"/><path d="M39.93 33.04c-6.34 0-11.46-5.12-11.46-11.46 0-6.33 5.12-11.46 11.46-11.46s11.46 5.13 11.46 11.46c0 6.34-5.12 11.46-11.46 11.46" style="fill:#000"/>
</g>
<g transform="translate(101.88888888888889 257) rotate(-4 38.111111111111114 13)">
<path fill="#B55239" stroke="#000" d="M71 17c8-8 0-12 0-12S43 9 35 9C25 9 7 1 7 1S-5 5 7 17c8 8 8 8 28 8s33-5 36-8Z"/>
</g>
<g transform="translate(221.88888888888889 257) rotate(4 38.111111111111114 13) scale(-1 1) translate(-76.22222222222223 0)">
<path fill="#B55239" stroke="#000" d="M71 17c8-8 0-12 0-12S43 9 35 9C25 9 7 1 7 1S-5 5 7 17c8 8 8 8 28 8s33-5 36-8Z"/>
</g>
<g transform="translate(169 424.5) scale(-1 1) translate(-62 0)">
<path d="M11 8S4.33 28 31 28 51 8 51 8 41 4.37 31 4.37 11 8 11 8Zm50-5L51 8M1 3l10 5" style="fill:#fff;stroke:#000;stroke-width:5"/>
</g>
<g transform="translate(0 12.5) scale(-0.84 0.84) translate(-438.09523809523813 68.09523809523812)">
<path fill="#ddb7a0" stroke="#000" stroke-width="5" d="M180 380s10-5 20-5 20 5 20 5m-20-5v-40" class="nose"/>
</g>
<g transform="scale(0.9680000000000001 1) translate(6.611570247933867 0)">
<path fill="#B55239" stroke="#000" stroke-width="4" d="M200 95c120 0 140 90 140 115-20 0-20 5-25 0s-15-15-50-15c-15 0-40 5-65 5s-50-5-65-5c-35 0-45 10-50 15s-5 0-25 0c0-25 25-115 140-115Z"/>
</g>
<g transform="scale(0.9680000000000001 1) translate(6.628099173553702 0)">
<path d="m100 356 6-6h47l6 6v9l-6 5h-47l-6-6zm148 14-6-6v-8l6-6h47l6 6v8l-6 6z" style="fill:#000"/>
</g>
</svg>