<svg xmlns="http://www.w3.org/2000/svg" version="1.2" baseProfile="tiny" width="100%" height="100%" viewBox="0 0 400 600" preserveAspectRatio="xMinYMin meet">
<g transform="scale(1.02 1) translate(-3.921568627450983 0)">
<path fill="#f2d6cb" stroke="#000" stroke-width="6" d="M5 600s-5-60 35-70c0 0 40 0 90-30l70-200 70 200c50 30 90 30 90 30 40 10 35 70 35 70" class="body"/>
</g>
<g transform="scale(1.02 1) translate(-3.921568627450984 0)">
<path fill="#89bfd3" stroke="#000" stroke-width="6" d="M120 505c0 35 50 25 80 45 30-20 80-10 80-45 30-25 90-15 100-5s10.07 20.41 15 50c5 30 5 20 5 60H0c0-40 0-29.59 5-59.59 4.93-29.59 5-39.38 15-50.41 9.5-10.48 70-20 100 5Z" class="footballPrimary"/><path fill="#7a1319" stroke="#000" stroke-width="2" d="M120 505c0 35 50 25 80 45 30-20 80-10 80-45l15-10c5 60-55 45-95 75-40-30-100-15-95-75z" class="collarSecondary"/><path fill="#7a1319" stroke="#000" stroke-width="2" d="M120 540c-40 26.67-60 80-60 80h40s0-53.33 20-80Zm160 0c40 26.67 60 80 60 80h-40s0-53.33-20-80Z" class="Stallion"/><path fill="none" stroke="#000" stroke-width="6" d="M120 505c0 35 50 25 80 45 30-20 80-10 80-45 30-25 90-15 100-5s10.07 20.41 15 50c5 30 5 20 5 60H0c0-40 0-30 5-60 4.93-29.59 5-38.97 15-50 9.5-10.48 70-20 100 5Z" class="footballStroke"/><path fill="none" stroke="#000" stroke-width="2" d="M19.5 570s72.5-2.11 81.5-20m280 20s-71-2.11-80-20" class="shp3"/>
</g>
<g transform="translate(32 293.3) scale(0.66 0.66) translate(11.848484848484848 16.330303030303032) translate(14.05 -3)">
<path fill="#f2d6cb" stroke="#000" stroke-width="6" d="M43 8S3-12 3 28c0 45 40 30 40 30z"/>
</g>
<g transform="translate(322 293.3) scale(-0.66 0.66) translate(-57.84848484848486 16.330303030303032) translate(14.05 -3)">
<path fill="#f2d6cb" stroke="#000" stroke-width="6" d="M43 8S3-12 3 28c0 45 40 30 40 30z"/>
</g>
<g transform="scale(0.89 1) translate(24.7191011235955 0)">
<path fill="#f2d6cb" stroke="#000" stroke-width="6" d="M200 100c100 0 150 60 150 200 0 150-80 160-110 190-10 10-20 10-40 10s-30 0-40-10c-30-30-110-40-110-190 0-140 50-200 150-200Z" class="head"/><path fill="rgba(0,0,0,0)" d="M60 300H50c0-140 50-200 150-200s150 60 150 200h-10v-10c0-5-10-20-15-25s-5-55-15-65c-40-40-60 0-110 0s-70-40-110 0c-10 10-10 60-15 65s-15 20-15 25z" class="headShave"/><path fill="rgba(0,0,0,0)" d="M200 410c30 0 50 10 50 10 30 0 90-15 90-120h10c0 150-80 160-110 190-10 10-20 10-40 10s-29.88-.12-40-10c-30-29.31-110-40-110-190h10c0 105 60 120 90 120 0 0 20-10 50-10" class="faceShave"/>
</g>
<g>
<path fill="none" stroke="#000" stroke-width="2" d="M240 355s20-10 45 0m-125 0s-20-10-45 0" class="eyeline5"/>
</g>
<g transform="translate(102.8498332560182 285.49) rotate(-4 37.15016674398179 24.509999999999998)">
<path d="M5.55 33.46S17.01 4.81 39.93 4.81s28.65 28.65 28.65 28.65-5.73 11.46-28.65 11.46S5.55 33.46 5.55 33.46" style="fill:#f5f3ee"/><path d="M5.55 33.46C2.68 30.6 17.08 4.1 40 4.1s31.44 26.5 28.58 29.36c-2.87 2.87-5.73-17.19-28.65-17.19S8.41 36.33 5.55 33.46" style="fill:#000"/><path d="M39.93 38.04c-6.34 0-11.46-5.12-11.46-11.46 0-6.33 5.12-11.46 11.46-11.46s11.46 5.13 11.46 11.46c0 6.34-5.12 11.46-11.46 11.46" style="fill:#000"/>
</g>
<g transform="translate(222.8498332560182 285.49) rotate(4 37.15016674398179 24.509999999999998) scale(-1 1) translate(-74.30033348796358 0)">
<path d="M5.55 33.46S17.01 4.81 39.93 4.81s28.65 28.65 28.65 28.65-5.73 11.46-28.65 11.46S5.55 33.46 5.55 33.46" style="fill:#f5f3ee"/><path d="M5.55 33.46C2.68 30.6 17.08 4.1 40 4.1s31.44 26.5 28.58 29.36c-2.87 2.87-5.73-17.19-28.65-17.19S8.41 36.33 5.55 33.46" style="fill:#000"/><path d="M39.93 38.04c-6.34 0-11.46-5.12-11.46-11.46 0-6.33 5.12-11.46 11.46-11.46s11.46 5.13 11.46 11.46c0 6.34-5.12 11.46-11.46 11.46" style="fill:#000"/>
</g>
<g transform="translate(101.05152592374387 261.3) rotate(5 38.94847407625614 8.7)">
<path fill="#2C1608" stroke="#000" d="M73 13c4.85-1.21 0-10-10-10S3 8 3 8s50 10 70 5Z"/>
</g>
<g transform="translate(221.05152592374387 261.3) rotate(-5 38.94847407625614 8.7) scale(-1 1) translate(-77.89694815251228 0)">
<path fill="#2C1608" stroke="#000" d="M73 13c4.85-1.21 0-10-10-10S3 8 3 8s50 10 70 5Z"/>
</g>
<g transform="translate(-0.125 48.766108367626885) scale(-1 1) translate(-400.25 0)">
<path d="M168 384s9-13.77 32-14.03c17.4-.2 32 13.2 32 13.2s-4.29 28.26-32 28.83c-27.29.56-32-28-32-28" style="opacity:.05;mix-blend-mode:multiply;fill:#501414"/><path d="M168 384c12-4 48-4 64 0-8 8-10 16-32 16-20 0-24-8-32-16Z" style="fill:#000;stroke:#000"/><path d="M168 384c14.08-5.73 53.75-3.73 64.25.6-20 4.67-30.5 2-30.5 2l.17-5.17-4.67-.33.17 5.17S184 388 168 384m4.42 6.6s21.58 3.17 27.58 3.17 26.92-3 26.92-3S216 400 200 400c-12 0-27.58-9.4-27.58-9.4" style="fill:#fff"/><path d="M168 384c12-4 48-4 64 0-8 8-10 16-32 16-20 0-24-8-32-16Zm16 24c12 6 20 6 32 0" style="fill:none;stroke:#000;stroke-width:4"/>
</g>
<g transform="translate(144.4115 264.9735) scale(0.52 0.52) translate(51.312461538461534 96.94753846153846)">
<path fill="#f2d6cb" stroke="#000" stroke-width="5" d="M40.3 99.804c2.56 5.426 7.286 9.34 15.292 10.445 8.532-1.475 12.386-4.548 15.285-10.378"/>
</g>
<g transform="scale(-1 1) translate(-400 0) scale(0.89 1) translate(24.7191011235955 0)">
<defs><linearGradient id="a" x1="200" x2="200" y1="100" y2="310" gradientUnits="userSpaceOnUse"><stop offset="0" stop-color="rgba(0,0,0,.25)"/><stop offset="1" stop-color="rgba(0,0,0,0)"/></linearGradient></defs><g style="opacity:1;stroke-width:1;stroke-miterlimit:4;stroke-dasharray:none"><path d="M60 310H50v-10c0-140 50-200 150-200s150 60 150 200v10h-10v-20c0-5-10-20-15-25s-5-55-15-65c-40-40-56.429-38.095-106.429-38.095S130 160 90 200c-10 10-10 60-15 65s-15 20-15 25z" style="fill:url(#a);stroke:none;stroke-width:1;stroke-miterlimit:4;stroke-dasharray:none"/></g><path fill="#2C1608" stroke="#000" stroke-width="4" d="M200 95c120 0 140 90 140 115-20 0-20 5-25 0s-14.444-11.112-49.444-11.112c-15 0-39.96-.317-64.96-.317s-50.04.317-65.04.317C100.556 198.888 90 205 85 210s-5 0-25 0c0-25 25-115 140-115Z"/>
</g>
</svg>