<svg xmlns="http://www.w3.org/2000/svg" version="1.2" baseProfile="tiny" width="100%" height="100%" viewBox="0 0 400 600" preserveAspectRatio="xMinYMin meet">
<g transform="scale(1.02 1) translate(-3.921568627450983 0)">
<path fill="#f2d6cb" stroke="#000" stroke-width="6" d="M5 600s-5-60 35-70c0 0 40 0 90-30l70-200 70 200c50 30 90 30 90 30 40 10 35 70 35 70" class="body"/>
</g>
<g transform="scale(1.02 1) translate(-3.921568627450984 0)">
<path fill="#89bfd3" stroke="#000" stroke-width="6" d="M120 505c0 35 50 25 80 45 30-20 80-10 80-45 30-25 90-15 100-5s10.07 20.41 15 50c5 30 5 20 5 60H0c0-40 0-29.59 5-59.59 4.93-29.59 5-39.38 15-50.41 9.5-10.48 70-20 100 5Z" class="footballPrimary"/><path fill="#7a1319" stroke="#000" stroke-width="2" d="M120 505c0 35 50 25 80 45 30-20 80-10 80-45l15-10c5 60-55 45-95 75-40-30-100-15-95-75z" class="collarSecondary"/><path fill="#7a1319" stroke="#000" stroke-width="2" d="m20 500 15 80 5-88.8-10 3.07zm360 0-15 80-5-88.8 10 3.07z" class="Sparta"/><path fill="none" stroke="#000" stroke-width="6" d="M120 505c0 35 50 25 80 45 30-20 80-10 80-45 30-25 90-15 100-5s10.07 20.41 15 50c5 30 5 20 5 60H0c0-40 0-30 5-60 4.93-29.59 5-38.97 15-50 9.5-10.48 70-20 100 5Z" class="footballStroke"/><path fill="none" stroke="#000" stroke-width="2" d="M19.5 570s72.5-2.11 81.5-20m280 20s-71-2.11-80-20" class="shp3"/>
</g>
<g transform="translate(32 293.3) scale(0.61 0.61) translate(14.704918032786887 20.2672131147541) translate(25.21 -3)">
<path fill="#f2d6cb" stroke="#000" stroke-width="6" d="M43 8S3-12 3 28c0 45 40 30 40 30z"/>
</g>
<g transform="translate(322 293.3) scale(-0.61 0.61) translate(-60.70491803278688 20.2672131147541) translate(25.21 -3)">
<path fill="#f2d6cb" stroke="#000" stroke-width="6" d="M43 8S3-12 3 28c0 45 40 30 40 30z"/>
</g>
<g transform="scale(0.8180000000000001 1) translate(44.498777506112454 0)">
<path fill="#f2d6cb" stroke="#000" stroke-width="6" d="M200 100c100 0 150 60 150 200 0 160-80 170-100 190-10 10-30 20-50 10-20 10.9-40 0-50-10-20-20-100-30-100-190 0-140 50-200 150-200Z" class="head"/><path fill="rgba(0,0,0,0)" d="M60 300H50c0-140 50-200 150-200s150 60 150 200h-10v-10c0-5-10-20-15-25s-5-55-15-65c-40-40-60 0-110 0s-70-40-110 0c-10 10-10 60-15 65s-15 20-15 25z" class="headShave"/><path fill="rgba(0,0,0,0)" d="M200 410c30 0 50 10 50 10 30 0 90-15 90-120h10c0 160-80 170-100 190-10 10-30 20-50 10-20 10-40 0-50-10-20-20-100-30-100-190h10c0 105 60 120 90 120 0 0 20-10 50-10" class="faceShave"/>
</g>
<g>
<path fill="none" stroke="#000" stroke-width="2" d="M220 270s-10 0-10-20m-30 20s10 0 10-20" class="eyeline1"/>
</g>
<g transform="translate(144.4807306749833 416) scale(1.15 1.15) translate(-0.7199046945673964 -2.478260869565216)">
<path fill="none" stroke="#000" stroke-width="2" d="M9 2s-12.5 8.95-4 34" class="shp0"/>
</g>
<g transform="translate(244.4807306749833 416) scale(-1.15 1.15) translate(-10.318633955466021 -2.478260869565216)">
<path fill="none" stroke="#000" stroke-width="2" d="M9 2s-12.5 8.95-4 34" class="shp0"/>
</g>
<g transform="translate(-120.29753770446098 -23.177101781228032) rotate(6 260.297537704461 333.17710178122803)">
<path d="M259.01 349.54c-13.866-.398-24.71-6.089-24.71-19.05 10.7-18.063 40.386-18.358 51.25-.275 4.415 12.208-11.607 19.753-26.54 19.325" style="fill:#fff;stroke:#000;stroke-linecap:round;stroke-linejoin:round;stroke-width:5"/><path d="M259.552 325.177c-10 0-10 15 0 15s10-15 0-15" style="fill:#000;stroke:#000;stroke-linecap:round;stroke-linejoin:round;stroke-width:4"/>
</g>
<g transform="translate(-0.2975377044609786 -23.177101781228032) rotate(-6 260.297537704461 333.17710178122803) scale(-1 1) translate(-520.595075408922 0)">
<path d="M259.01 349.54c-13.866-.398-24.71-6.089-24.71-19.05 10.7-18.063 40.386-18.358 51.25-.275 4.415 12.208-11.607 19.753-26.54 19.325" style="fill:#fff;stroke:#000;stroke-linecap:round;stroke-linejoin:round;stroke-width:5"/><path d="M259.552 325.177c-10 0-10 15 0 15s10-15 0-15" style="fill:#000;stroke:#000;stroke-linecap:round;stroke-linejoin:round;stroke-width:4"/>
</g>
<g transform="translate(105.43111111111111 259) rotate(-11 34.5688888888889 11)">
<path fill="#5A3825" stroke="#000" d="M66 13c4-4 0-8 0-8H30C14 5 2 1 2 1s-4 0 8 12l-4 8h32c20 0 24-4 28-8Z"/>
</g>
<g transform="translate(225.4311111111111 259) rotate(11 34.5688888888889 11) scale(-1 1) translate(-69.1377777777778 0)">
<path fill="#5A3825" stroke="#000" d="M66 13c4-4 0-8 0-8H30C14 5 2 1 2 1s-4 0 8 12l-4 8h32c20 0 24-4 28-8Z"/>
</g>
<g transform="translate(168 428.3888888888889)">
<path d="M32 3c10 0 15 0 25 5 5 5 5 5 0 10s-15 0-25 0-20 5-25 0-5-5 0-10c10-5 15-5 25-5Z" style="fill:#fff;stroke:#000;stroke-width:5"/>
</g>
<g transform="translate(0 -12.5) scale(1.13 1.13) translate(-23.008849557522108 -44.00442477876103)">
<path fill="#f2d6cb" stroke="#000" stroke-width="5" d="M175 370c-20 0-5 25 5 15 5-5 15 10 20 10s15-15 20-10c10 10 25-15 5-15" class="nose"/>
</g>
<g transform="scale(-1 1) translate(-400 0) scale(0.8180000000000001 1) translate(44.498777506112454 0)">
<path fill="#5A3825" stroke="#000" stroke-width="4" d="M60 310H50v-75h-5l10-25-15 5 20-30H45l25-25-15-5 30-17.95L70 130l32.5-7.95L90 115l35-5-7.5-12.45L155 100l-15-15 40 7.55L175 75l30 15-5-20 25 20 35-10-15 15h30l-15 10 40 2.55-15 7.45 35 5-17.5 7.55L340 145l-17.5 5 27.5 20-15 10 25 35h-12.5l7.5 20h-5v75h-10v-20c0-5-10-20-15-25s-5-65.3-15-75.3l-6.33 11s-4.34-8.7-4.34-9c0-.29-11.66 12.67-11.66 12.67L285 189.7l-21 20.67.33-18-26.66 24.33 3.33-25-30.33 22 .33-20.33-27.33 28L187.5 195 166 213.7l1-15.66-23.33 19.33 4-23.33L123 208.37l2-16.67-23 21.67.33-21.67-12.66 8.34L90 190c-10 10-10 70-15 75s-15 20-15 25z"/>
</g>
<g transform="scale(0.8180000000000001 1) translate(44.498777506112454 0)">
<g stroke="#000"><path fill="#89bfd3" stroke-width="4" d="M350 280c-10 0-30-50-150-50S60 280 50 280c-10-10-10-40 0-50 0 0 30-50 150-50s150 50 150 50c10 10 10 40 0 50Z" class="headband"/><path fill="#7a1319" d="M45 260v-10s35-50 155-50 155 50 155 50v10c-5 0-35-50-155-50S50 260 45 260Z" class="stripe"/></g>
</g>
</svg>