<svg xmlns="http://www.w3.org/2000/svg" version="1.2" baseProfile="tiny" width="100%" height="100%" viewBox="0 0 400 600" preserveAspectRatio="xMinYMin meet">
<g transform="scale(1.04 1) translate(-7.692307692307699 0)">
<path fill="#f2d6cb" stroke="#000" stroke-width="6" d="M10 600s0-50 60-70 70-50 70-50l60-180 60 180s10 30 70 50 60 70 60 70" class="body"/>
</g>
<g transform="scale(1.04 1) translate(-7.692307692307699 0)">
<g stroke="#000"><path fill="#89bfd3" stroke-width="6" d="M120 505c0 20 50 15 80 35 30-20 80-15 80-35 0 0 50-5 80 5 0 0 20 10 30 40s10 60 10 60H0s0-30 10-60 30-40 30-40c30-10 80-5 80-5Z" class="hockeyPrimary"/><path fill="#7a1319" d="M4.5 577.03S10 580 20 580c30-15 110-20 180-20 90 0 150 5 180 20 10 0 17-2.97 17-2.97l1 12.97s-8 5-18 5c-40-20-110-22.48-180-22.48-80 0-150 2.48-180 22.48-10 0-18-5-18-5z" class="stripeAccent"/><path fill="#7a1319" stroke-width="2" d="M120 505c0 20 50 15 80 30 30-15 80-10 80-30l15-1c0 41-40 21-95 56-55-35-95-15-95-56z" class="collarAccent"/><path fill="none" stroke-width="6" d="M120 505c0 20 50 15 80 35 30-20 80-15 80-35 0 0 50-5 80 5 0 0 20 10 30 40s10 60 10 60H0s0-30 10-60 30-40 30-40c30-10 80-5 80-5Z" class="hockeyStroke"/><path fill="#07364f" stroke-width="2" d="M180 528.21h40l10 17.05L200 564l-30-18.74z" class="shieldSecondary"/></g>
</g>
<g transform="translate(33.53553390593274 291.01362954285077) scale(0.58 0.58) translate(15.543234068117675 24.610819986211514) translate(23.111067811865475 -2.979591836734694)">
<path fill="#f2d6cb" stroke="#000" stroke-width="6" d="M40 14S10-1 5 4s0 30 5 40-5 25 30 20z"/>
</g>
<g transform="translate(323.53553390593277 291.01362954285077) scale(-0.58 0.58) translate(-58.4721662562522 24.610819986211514) translate(23.111067811865475 -2.979591836734694)">
<path fill="#f2d6cb" stroke="#000" stroke-width="6" d="M40 14S10-1 5 4s0 30 5 40-5 25 30 20z"/>
</g>
<g transform="scale(0.8320000000000001 1) translate(40.384615384615365 0)">
<path fill="#f2d6cb" stroke="#000" stroke-width="6" d="M200 100c100 0 150 60 150 200-10 160-10 110-100 180-10 10-30 20-50 20s-40-10-50-20c-90-70-90-20-100-180 0-140 50-200 150-200Z" class="head"/><path fill="rgba(0,0,0,0)" d="M60 300H50c0-140 50-200 150-200s150 60 150 200h-10v-10c0-5-10-20-15-25s-5-55-15-65c-40-40-60 0-110 0s-70-40-110 0c-10 10-10 60-15 65s-15 20-15 25z" class="headShave"/><path fill="rgba(0,0,0,0)" d="M200 410c30 0 50 10 50 10 30 0 90-15 90-120h10c-10 160-10 110-100 180-11.16 8.68-30 20-50 20s-38.84-11.32-50-20c-90-70-90-20-100-180h10c0 105 60 120 90 120 0 0 20-10 50-10" class="faceShave"/>
</g>
<g>
<path fill="none" stroke="#000" stroke-width="2" d="M240 340s25 10 40 0m-120 0s-25 10-40 0" class="eyeline4"/>
</g>
<g transform="scale(0.8320000000000001 1) translate(40.384615384615365 0)">
<path fill="#CC9966" stroke="#000" d="M200 450c20 0 10 30 20 30s35-5 45-15c20-20 30-30 40-30 0 70-65 80-105 80S95 505 95 435c10 0 20 10 40 30 10 10 35 15 45 15s0-30 20-30Z" class="shp0"/><path fill="#CC9966" fill-rule="evenodd" stroke="#000" d="M60 300H50s-3.85 100.38 25 110c15 5 35 15 40 10 20-20-5-25-5-25s-50-20-50-95Zm280 0h10s3.85 100.38-25 110c-15 5-35 15-40 10-20-20 5-25 5-25s50-20 50-95Z" class="shp0"/>
</g>
<g transform="translate(102.8498332560182 285.155) rotate(-7 37.15016674398179 24.845)">
<path d="M5.55 28.46S17.08 11.77 40 11.77s28.58 16.69 28.58 16.69-5.73 11.46-28.65 11.46S5.55 28.46 5.55 28.46" style="fill:#f5f3ee"/><path d="M5.55 28.46C2.68 25.6 17.08 9.77 40 9.77S71.44 25.6 68.58 28.46C65.71 31.33 62.92 16.27 40 16.27S8.41 31.33 5.55 28.46" style="fill:#000"/><path d="M39.93 33.04c-6.34 0-11.46-5.12-11.46-11.46 0-6.33 5.12-11.46 11.46-11.46s11.46 5.13 11.46 11.46c0 6.34-5.12 11.46-11.46 11.46" style="fill:#000"/>
</g>
<g transform="translate(222.8498332560182 285.155) rotate(7 37.15016674398179 24.845) scale(-1 1) translate(-74.30033348796358 0)">
<path d="M5.55 28.46S17.08 11.77 40 11.77s28.58 16.69 28.58 16.69-5.73 11.46-28.65 11.46S5.55 28.46 5.55 28.46" style="fill:#f5f3ee"/><path d="M5.55 28.46C2.68 25.6 17.08 9.77 40 9.77S71.44 25.6 68.58 28.46C65.71 31.33 62.92 16.27 40 16.27S8.41 31.33 5.55 28.46" style="fill:#000"/><path d="M39.93 33.04c-6.34 0-11.46-5.12-11.46-11.46 0-6.33 5.12-11.46 11.46-11.46s11.46 5.13 11.46 11.46c0 6.34-5.12 11.46-11.46 11.46" style="fill:#000"/>
</g>
<g transform="translate(106 258.7408) rotate(20 34 11.2592)">
<path fill="#CC9966" stroke="#000" d="M65 16c3-3 0-10 0-10S45 1 35 1 3 11 3 11s-3 7 0 10 22-8 32-8 27 6 30 3Z"/>
</g>
<g transform="translate(226 258.7408) rotate(-20 34 11.2592) scale(-1 1) translate(-68 0)">
<path fill="#CC9966" stroke="#000" d="M65 16c3-3 0-10 0-10S45 1 35 1 3 11 3 11s-3 7 0 10 22-8 32-8 27 6 30 3Z"/>
</g>
<g transform="translate(-0.125 48.766108367626885)">
<path d="M168 384s9-13.77 32-14.03c17.4-.2 32 13.2 32 13.2s-4.29 28.26-32 28.83c-27.29.56-32-28-32-28" style="opacity:.05;mix-blend-mode:multiply;fill:#501414"/><path d="M168 384c12-4 48-4 64 0-8 8-10 16-32 16-20 0-24-8-32-16Z" style="fill:#000;stroke:#000"/><path d="M168 384c14.08-5.73 53.75-3.73 64.25.6-20 4.67-30.5 2-30.5 2l.17-5.17-4.67-.33.17 5.17S184 388 168 384m4.42 6.6s21.58 3.17 27.58 3.17 26.92-3 26.92-3S216 400 200 400c-12 0-27.58-9.4-27.58-9.4" style="fill:#fff"/><path d="M168 384c12-4 48-4 64 0-8 8-10 16-32 16-20 0-24-8-32-16Zm16 24c12 6 20 6 32 0" style="fill:none;stroke:#000;stroke-width:4"/>
</g>
<g transform="translate(168.19198795027955 347.310851842392) scale(-0.83 0.83) translate(-70.13091813372098 4.647174923847422)">
<path fill="#f2d6cb" stroke="#000" stroke-width="5" d="m28 1 16.043 32.815s.75 10.848-18.228 10.417c-4.731-.107-4.624.436-6.246-.08" class="nose" transform="matrix(1 0 -.07193 1 2.942 .274)"/>
</g>
<g transform="scale(-1 1) translate(-400 0) scale(0.8320000000000001 1) translate(40.384615384615365 0)">
<path fill="#CC9966" stroke="#000" stroke-width="4" d="M60 310H50v-10c0-65-5-145-5-150 0-10 5-20 5-20l10 10 6-20 14 10 5-20 15 10 5-20 15 10 8-22 12 12 8-20 12 16 10-21 10 21 10-21 10 21 10-21 10 21 10-21 10 21 12-16 8 20 12-12 8 24.37L290 100l10 20 12-9.96 8 19.96 14-10 6 20 10-10s5 10 5 20c0 5-5 85-5 150v10h-10v-20c0-5-10-20-15-25s-5-55-15-65-60 0-110 0-100-10-110 0-10 60-15 65-15 20-15 25z"/>
</g>
</svg>