<svg xmlns="http://www.w3.org/2000/svg" version="1.2" baseProfile="tiny" width="100%" height="100%" viewBox="0 0 400 600" preserveAspectRatio="xMinYMin meet">
<g transform="scale(0.96 1) translate(8.33333333333334 0)">
<path fill="#ddb7a0" stroke="#000" stroke-width="6" d="M5 600s-5-60 35-70c0 0 40 0 90-30l70-200 70 200c50 30 90 30 90 30 40 10 35 70 35 70" class="body"/>
</g>
<g transform="scale(0.96 1) translate(8.333333333333341 0)">
<g stroke="#000"><path fill="#89bfd3" stroke-width="6" d="M120 505c0 20 50 15 80 35 30-20 80-15 80-35 0 0 50-5 80 5 0 0 20 10 30 40s10 60 10 60H0s0-30 10-60 30-40 30-40c30-10 80-5 80-5Z" class="hockeyPrimary"/><path fill="#07364f" d="M4.5 577.03S10 580 20 580c30-15 110-20 180-20 90 0 150 5 180 20 10 0 17-2.97 17-2.97l1 12.97s-8 5-18 5c-40-20-110-22.48-180-22.48-80 0-150 2.48-180 22.48-10 0-18-5-18-5z" class="stripeAccent"/><path fill="#7a1319" stroke-width="2" d="M172.5 545.53c-110-4.5-152 22.5-152 22.5s-9 1-14.5-5c15-48 34-53.03 34-53.03s50-5 80-5c0 20 52.5 40.53 52.5 40.53Zm55 0c110-4.5 152 22.5 152 22.5s9 1 14.5-5c-15-48-34-53.03-34-53.03s-50-5-80-5c0 20-52.5 40.53-52.5 40.53Z" class="shoulderSecondary"/><path fill="#07364f" stroke-width="2" d="M120 505c0 20 50 15 80 30 30-15 80-10 80-30l15-1c0 41-40 21-95 56-55-35-95-15-95-56z" class="collarAccent"/><path fill="none" stroke-width="6" d="M120 505c0 20 50 15 80 35 30-20 80-15 80-35 0 0 50-5 80 5 0 0 20 10 30 40s10 60 10 60H0s0-30 10-60 30-40 30-40c30-10 80-5 80-5Z" class="hockeyStroke"/><path fill="#7a1319" stroke-width="2" d="M180 528.21h40l10 17.05L200 564l-30-18.74z" class="shieldSecondary"/></g>
</g>
<g transform="translate(32 293.3) scale(0.77 0.77) translate(6.870129870129869 9.46883116883117) translate(26.759999999999998 -3)">
<path fill="#ddb7a0" stroke="#000" stroke-width="6" d="M43 8S3-12 3 28c0 45 40 30 40 30z"/>
</g>
<g transform="translate(322 293.3) scale(-0.77 0.77) translate(-52.87012987012987 9.46883116883117) translate(26.759999999999998 -3)">
<path fill="#ddb7a0" stroke="#000" stroke-width="6" d="M43 8S3-12 3 28c0 45 40 30 40 30z"/>
</g>
<g transform="scale(0.808 1) translate(47.52475247524751 0)">
<path fill="#ddb7a0" stroke="#000" stroke-width="6" d="M200 100c100 0 150 60 150 200 0 150-80 160-110 190-10 10-20 10-40 10s-30 0-40-10c-30-30-110-40-110-190 0-140 50-200 150-200Z" class="head"/><path fill="rgba(0,0,0,0)" d="M60 300H50c0-140 50-200 150-200s150 60 150 200h-10v-10c0-5-10-20-15-25s-5-55-15-65c-40-40-60 0-110 0s-70-40-110 0c-10 10-10 60-15 65s-15 20-15 25z" class="headShave"/><path fill="rgba(0,0,0,0)" d="M200 410c30 0 50 10 50 10 30 0 90-15 90-120h10c0 150-80 160-110 190-10 10-20 10-40 10s-29.88-.12-40-10c-30-29.31-110-40-110-190h10c0 105 60 120 90 120 0 0 20-10 50-10" class="faceShave"/>
</g>
<g>
<path fill="none" stroke="#000" stroke-width="2" d="M300 320s5 5 10 5m-13.25-2.47S300 335 305 335m-205-15s-5 5-10 5m13.25-2.47S100 335 95 335" class="eyeline2"/>
</g>
<g transform="translate(142.67 417.5) scale(0.45 0.45) translate(8.95888888888889 21.38888888888889)">
<path fill="none" stroke="#000" stroke-width="2" d="M12.33 4.32s-10 3.29-10 13.18 10 13.18 10 13.18" class="shp0"/>
</g>
<g transform="translate(242.67 417.5) scale(-0.45 0.45) translate(-23.618888888888886 21.38888888888889)">
<path fill="none" stroke="#000" stroke-width="2" d="M12.33 4.32s-10 3.29-10 13.18 10 13.18 10 13.18" class="shp0"/>
</g>
<g transform="scale(0.808 1) translate(47.52475247524751 0)">
<path fill="#e9c67b" stroke="#000" d="M200 458.02 190 460c-10 10-20 40-20 40s10 10 30 10 30-10 30-10-10-30-20-40z" class="shp0"/>
</g>
<g transform="translate(101 299.4999966529182) rotate(-5 39 10.500003347081822)">
<path d="M74 18 69 3H4l5 15z" style="fill:#fff;stroke:#000;stroke-width:5"/><path d="M38.5 18a7.49 7.49 0 0 1-7.5-7.5C31 6.35 34.35 3 38.5 3S46 6.35 46 10.5 42.65 18 38.5 18Z" style="fill:#000;stroke:#000;stroke-width:5"/>
</g>
<g transform="translate(221 299.4999966529182) rotate(5 39 10.500003347081822) scale(-1 1) translate(-78 0)">
<path d="M74 18 69 3H4l5 15z" style="fill:#fff;stroke:#000;stroke-width:5"/><path d="M38.5 18a7.49 7.49 0 0 1-7.5-7.5C31 6.35 34.35 3 38.5 3S46 6.35 46 10.5 42.65 18 38.5 18Z" style="fill:#000;stroke:#000;stroke-width:5"/>
</g>
<g transform="translate(101.88888888888889 257) rotate(11 38.111111111111114 13)">
<path fill="#e9c67b" stroke="#000" d="M71 17c8-8 0-12 0-12S43 9 35 9C25 9 7 1 7 1S-5 5 7 17c8 8 8 8 28 8s33-5 36-8Z"/>
</g>
<g transform="translate(221.88888888888889 257) rotate(-11 38.111111111111114 13) scale(-1 1) translate(-76.22222222222223 0)">
<path fill="#e9c67b" stroke="#000" d="M71 17c8-8 0-12 0-12S43 9 35 9C25 9 7 1 7 1S-5 5 7 17c8 8 8 8 28 8s33-5 36-8Z"/>
</g>
<g transform="translate(0 5) scale(-1 1) translate(-400 0)">
<path d="m170 440 10-10h40l10 10" style="fill:none;stroke:#000;stroke-width:5"/>
</g>
<g transform="translate(140.84321577312707 292.352) scale(0.6 0.6) translate(39.437856151248624 51.76533333333334)">
<path fill="#ddb7a0" stroke="#000" stroke-width="5" d="M50 50s-20 60 9 55c0 0 29 5 9-55"/>
</g>
<g transform="scale(0.808 1) translate(47.56398769651066 0)">
<path fill="#e9c67b" stroke="#000" stroke-width="4" d="m60.7 303.6-10.18 2.73s-10.34-6.75-10.47-26.25A411 411 0 0 1 38.08 249c-.2-9.59-.03-18.34.42-26.31.51-7.92 1.31-15.08 2.36-21.56 1.11-6.48 2.45-12.31 3.96-17.56 3.18-10.58 6.91-18.91 10.54-25.28 3.71-6.48 7.2-10.94 9.89-13.58 5.38-5.37 13.13-11.13 22.17-18.43 8.94-7.4 19.07-16.18 29.29-27.17 10.68-10.98 22.51-16.62 32.85-19.55 10.38-2.64 19.25-2.91 23.85-3.12 9.2-.27 25.61 16.69 25.61 16.69s20.62-16.33 29.93-15.73c4.67.37 13.77.98 23.87 3.86 10.17 3.13 21.54 8.82 31.02 19.4 9.59 10.67 19.73 19.38 28.92 26.77 9.43 7.35 17.63 13.2 23.25 18.58 2.81 2.65 6.42 7.2 10.14 13.75 3.66 6.44 7.34 14.82 10.33 25.34 1.41 5.23 2.64 11.02 3.61 17.43.92 6.41 1.59 13.49 1.95 21.29.34 7.85.39 16.46.12 25.88-.3 9.46-.94 19.64-2.06 30.47-.22 19.42-10.69 26.22-10.69 26.22l-10.23-2.65s1.72-11.23 2.17-15.18c.38-4.04-8.03-16.21-12.48-20.05-2.27-1.9-5.66-13.36-10.28-26.07-5.23-13.61-11.69-28.76-17.29-33.79-5.66-5.23-19.79-7.41-32.54-8.4-12.76-1.12-24.1-.86-24.1-.86s-7.29-9.1-8.8-10.64c-.76-.77-.1.39 3.66 5.55 3.78 5.08 10.69 13.88 22.36 27.8-10.33.43-26.38-4.73-39.78-10.31-13.24-5.86-23.75-11.93-23.75-11.93s-9.95 6.06-22.6 11.86c-12.77 5.47-28.2 10.48-38.45 9.98 10.34-13.69 16.44-22.35 19.77-27.36 3.32-5.09 3.9-6.25 3.21-5.48-1.39 1.52-7.89 10.52-7.89 10.52s-11.14-.28-23.52.79c-12.34.91-25.92 2.97-31.15 8.08-5.19 4.93-10.81 19.84-15.45 33.28-4.28 12.63-7.6 24.1-9.92 26.03-4.6 3.93-13.44 16.38-13.16 20.48.32 4.03 1.51 15.56 1.51 15.56Z"/>
</g>
<g transform="scale(0.808 1) translate(47.52475247524751 0)">
<g stroke="#000"><path fill="#89bfd3" stroke-width="4" d="M350 280c-10 0-30-50-150-50S60 280 50 280c-10-10-10-40 0-50 0 0 30-50 150-50s150 50 150 50c10 10 10 40 0 50Z" class="headband"/><path fill="#7a1319" d="M45 260v-10s35-50 155-50 155 50 155 50v10c-5 0-35-50-155-50S50 260 45 260Z" class="stripe"/></g>
</g>
</svg>