<svg xmlns="http://www.w3.org/2000/svg" version="1.2" baseProfile="tiny" width="100%" height="100%" viewBox="0 0 400 600" preserveAspectRatio="xMinYMin meet">
<g transform="scale(1 1) translate(0 0)">
<path fill="#f2d6cb" stroke="#000" stroke-width="6" d="M5 600s-5-60 35-70c0 0 40 0 90-30l70-200 70 200c50 30 90 30 90 30 40 10 35 70 35 70" class="body"/>
</g>
<g transform="scale(1 1) translate(0 0)">
<path d="M120 505c0 35 50 25 80 45 30-20 80-10 80-45 30-25 90-15 100-5s10.07 20.41 15 50c5 30 5 20 5 60H0c0-40 0-29.59 5-59.59 4.93-29.59 5-39.38 15-50.41 9.5-10.48 70-20 100 5Z" style="fill:#fff;fill-rule:nonzero;stroke:#000;stroke-width:6px"/><path d="M388.812 518.932c-.419-3.338 2.794 10.698 6.188 31.068 5 30 5 20 5 60h-57.163z" style="fill:#89bfd3" transform="matrix(-1 0 0 1 400.837 0)"/><path d="M388.812 518.932c-.419-3.338 2.794 10.698 6.188 31.068 5 30 5 20 5 60h-57.163z" style="fill:#89bfd3"/><path d="M28.441 497.904 57.812 610.86l-46.409-91.928c1.742-13.878 7.068-21.504 17.038-21.028" style="fill:#7a1319;stroke:#000;stroke-width:1px;stroke-linecap:round;stroke-linejoin:round;stroke-miterlimit:1.5"/><path d="M28.441 497.904 57.812 610.86l-46.409-91.928c1.742-13.878 7.068-21.504 17.038-21.028" style="fill:#7a1319;stroke:#000;stroke-width:1px;stroke-linecap:round;stroke-linejoin:round;stroke-miterlimit:1.5" transform="matrix(-1 0 0 1 400.215 0)"/><path d="M120 505c0 35 50 25 80 45 30-20 80-10 80-45l15-10c5 60-55 45-95 75-40-30-100-15-95-75z" style="fill:#89bfd3;fill-rule:nonzero;stroke:#000;stroke-width:2px"/><path d="M120 505c0 35 50 25 80 45 30-20 80-10 80-45 30-25 90-15 100-5s10.07 20.41 15 50c5 30 5 20 5 60H0c0-40 0-30 5-60 4.93-29.59 5-38.97 15-50 9.5-10.48 70-20 100 5Z" style="fill:none;fill-rule:nonzero;stroke:#000;stroke-width:6px"/><path d="M19.5 570s72.5-2.11 81.5-20m280 20s-71-2.11-80-20" style="fill:none;fill-rule:nonzero;stroke:#000;stroke-width:2px"/>
</g>
<g transform="translate(33.53553390593274 291.01362954285077) scale(1.4 1.4) translate(-6.13270459830493 -9.710391559185492) translate(13.811067811865477 -2.979591836734694)">
<path fill="#f2d6cb" stroke="#000" stroke-width="6" d="M40 14S10-1 5 4s0 30 5 40-5 25 30 20z"/>
</g>
<g transform="translate(323.53553390593277 291.01362954285077) scale(-1.4 1.4) translate(-36.79622758982959 -9.710391559185492) translate(13.811067811865477 -2.979591836734694)">
<path fill="#f2d6cb" stroke="#000" stroke-width="6" d="M40 14S10-1 5 4s0 30 5 40-5 25 30 20z"/>
</g>
<g transform="scale(0.892 1) translate(24.215246636771298 0)">
<path fill="#f2d6cb" stroke="#000" stroke-width="6" d="M200 100c100 0 150 60 150 200 0 50-.51 71.54-10 100-10 30-80 70-90 80s-20 20-50 20-40-10-50-20-80-50-90-80c-9.49-28.46-10-50-10-100 0-140 50-200 150-200Z" class="head"/><path fill="rgba(0,0,0,0)" d="M200 410c30 0 50 10 50 10 30 0 90-15 90-120h10c0 50-.51 71.54-10 100-10 30-80 70-90 80s-20 20-50 20-40-10-50-20-80-50-90-80c-9.49-28.46-10-50-10-100h10c0 105 60 120 90 120 0 0 20-10 50-10" class="faceShave"/><path fill="rgba(0,0,0,0)" d="M60 300H50c0-140 50-200 150-200s150 60 150 200h-10v-10c0-5-10-20-15-25s-5-55-15-65c-40-40-60 0-110 0s-70-40-110 0c-10 10-10 60-15 65s-15 20-15 25z" class="headShave"/>
</g>
<g>
<path fill="none" stroke="#000" stroke-width="2" d="M220 270s-10 0-10-20m-30 20s10 0 10-20" class="eyeline1"/>
</g>
<g transform="scale(0.892 1) translate(24.215246636771298 0)">
<path fill="#D7BF91" fill-rule="evenodd" stroke="#000" d="M60 300H50s-10 70 10 130c10 20 60 70 120 70 10 0-30-28.8-30-50 0-20 10-20 10-30s-30 30-70-10c-20-20-30-80-30-110Zm250 110c-40 40-70 0-70 10s10 10 10 30c0 21.2-40 50-30 50 60 0 110-50 120-70 20-60 10-130 10-130h-10c0 30-10 90-30 110Z" class="shp0"/><path fill="#D7BF91" stroke="#000" d="M175 485s10-5 25-5 25 5 25 5c-15 30-15 45-15 45l-5-10-5 20-5-20-5 10s0-15-15-45Zm13-27c2-2 22-2 24 0s-8 16-12 16-14-14-12-16Zm-38-33c-5-5 25-20 35-20 5 0 10 5 15 5s10-5 15-5c10 0 40 15 35 20s-5-5-50-5-45 10-50 5Z" class="shp0"/>
</g>
<g transform="translate(98.84448468063304 285.57536672288046) rotate(-9 41.155515319366955 24.42463327711953)">
<path d="M73.67 39.73c3.92-10.47 2.35-25.38 2.35-25.38s-35.86-6.27-45.8-5.22c-9.95 1.04-24.34 7.59-24.34 7.59s-1.44 10.21 7.6 24.34z" style="fill:#fff"/><path d="M45.8 37.65c-4.13.43-8.17-5.88-9.04-14.13s1.76-15.27 5.89-15.71c4.12-.43 8.16 5.88 9.03 14.13s-1.76 15.27-5.88 15.71" style="fill:#000"/><path d="M73.67 39.73c4.45-5.49 2.35-25.38 2.35-25.38s-35.86-6.27-45.8-5.22c-9.95 1.04-24.34 7.59-24.34 7.59s1.57 14.92 7.6 24.34" style="fill:none;stroke:#000;stroke-width:5"/>
</g>
<g transform="translate(218.84448468063306 285.57536672288046) rotate(9 41.155515319366955 24.42463327711953) scale(-1 1) translate(-82.31103063873391 0)">
<path d="M73.67 39.73c3.92-10.47 2.35-25.38 2.35-25.38s-35.86-6.27-45.8-5.22c-9.95 1.04-24.34 7.59-24.34 7.59s-1.44 10.21 7.6 24.34z" style="fill:#fff"/><path d="M45.8 37.65c-4.13.43-8.17-5.88-9.04-14.13s1.76-15.27 5.89-15.71c4.12-.43 8.16 5.88 9.03 14.13s-1.76 15.27-5.88 15.71" style="fill:#000"/><path d="M73.67 39.73c4.45-5.49 2.35-25.38 2.35-25.38s-35.86-6.27-45.8-5.22c-9.95 1.04-24.34 7.59-24.34 7.59s1.57 14.92 7.6 24.34" style="fill:none;stroke:#000;stroke-width:5"/>
</g>
<g transform="translate(97 257.6503955087335) rotate(12 43 12.349604491266511)">
<path fill="#D7BF91" stroke="#000" d="M83 13C83 3 73 3 73 3 48-2 17.46 8.36 3 18c40-5 50 5 75 5 0 0 5 0 5-10Z"/>
</g>
<g transform="translate(217 257.6503955087335) rotate(-12 43 12.349604491266511) scale(-1 1) translate(-86 0)">
<path fill="#D7BF91" stroke="#000" d="M83 13C83 3 73 3 73 3 48-2 17.46 8.36 3 18c40-5 50 5 75 5 0 0 5 0 5-10Z"/>
</g>
<g transform="translate(-2.842170943040401e-14 51.52119068455602)">
<path d="M168 384s9-13.77 32-14.03c17.4-.2 32 13.2 32 13.2s-4.29 23.24-32 23.81c-27.29.56-32-22.98-32-22.98" style="opacity:.05;mix-blend-mode:multiply;fill:#501414"/><path d="M181.71 402.12c14.52 5.66 24.72 5.71 37.72-.71m.86-26.53c-14.52-5.66-27.29-6.34-40.29.09m-4 9.03c8-2.17 16 0 24 0s16-2.17 24 0m12-4s0 4-12 4m-60-4s0 4 12 4" style="fill:none;stroke:#000;stroke-width:4"/>
</g>
<g transform="translate(140.995 319.5) scale(0.67 0.67) translate(29.06216417910447 24.873134328358205)">
<path fill="#f2d6cb" stroke="#000" stroke-width="5" d="M58 18S43 28.72 38 33c-4.17 3.57-10 10-10 30 0 10 15 20 25 20s20-5 20-15" class="nose"/><path d="m84.99 55.01 5-.02.02 5-5 .02z" style="fill:none"/>
</g>
<g transform="scale(-1 1) translate(-400 0) scale(0.892 1) translate(24.215246636771298 0)">
<defs><linearGradient id="a" x1="200" x2="200" y1="100" y2="310" gradientUnits="userSpaceOnUse"><stop offset="0" stop-color="rgba(0,0,0,.25)"/><stop offset="1" stop-color="rgba(0,0,0,0)"/></linearGradient></defs><g style="opacity:1;stroke-width:1;stroke-miterlimit:4;stroke-dasharray:none"><path d="M60 310H50v-10c0-140 50-200 150-200s150 60 150 200v10h-10v-20c0-5-10-20-15-25s-5-55-15-65c-40-40-56.429-38.095-106.429-38.095S130 160 90 200c-10 10-10 60-15 65s-15 20-15 25z" style="fill:url(#a);stroke:none;stroke-width:1;stroke-miterlimit:4;stroke-dasharray:none"/></g><path fill="#D7BF91" stroke="#000" stroke-width="4" d="M200 95c120 0 140 90 140 115-20 0-20 5-25 0s-14.444-11.112-49.444-11.112c-15 0-39.96-.317-64.96-.317s-50.04.317-65.04.317C100.556 198.888 90 205 85 210s-5 0-25 0c0-25 25-115 140-115Z"/>
</g>
</svg>