<svg xmlns="http://www.w3.org/2000/svg" version="1.2" baseProfile="tiny" width="100%" height="100%" viewBox="0 0 400 600" preserveAspectRatio="xMinYMin meet">
<g transform="scale(1.04 1) translate(-7.692307692307699 0)">
<path fill="#ddb7a0" stroke="#000" stroke-width="6" d="M10 600s-10-65 50-65c5 0 25-15 70-35l70-200 70 200c45 20 65 35 70 35 60 0 50 65 50 65" class="body"/>
</g>
<g transform="scale(1.04 1) translate(-7.692307692307699 0)">
<path d="M120 505c0 35 50 25 80 45 30-20 80-10 80-45 30-25 90-15 100-5s10.07 20.41 15 50c5 30 5 20 5 60H0c0-40 0-29.59 5-59.59 4.93-29.59 5-39.38 15-50.41 9.5-10.48 70-20 100 5Z" style="fill:#fff;fill-rule:nonzero;stroke:#000;stroke-width:6px"/><path d="M388.812 518.932c-.419-3.338 2.794 10.698 6.188 31.068 5 30 5 20 5 60h-57.163z" style="fill:#89bfd3" transform="matrix(-1 0 0 1 400.837 0)"/><path d="M388.812 518.932c-.419-3.338 2.794 10.698 6.188 31.068 5 30 5 20 5 60h-57.163z" style="fill:#89bfd3"/><path d="M28.441 497.904 57.812 610.86l-46.409-91.928c1.742-13.878 7.068-21.504 17.038-21.028" style="fill:#7a1319;stroke:#000;stroke-width:1px;stroke-linecap:round;stroke-linejoin:round;stroke-miterlimit:1.5"/><path d="M28.441 497.904 57.812 610.86l-46.409-91.928c1.742-13.878 7.068-21.504 17.038-21.028" style="fill:#7a1319;stroke:#000;stroke-width:1px;stroke-linecap:round;stroke-linejoin:round;stroke-miterlimit:1.5" transform="matrix(-1 0 0 1 400.215 0)"/><path d="M120 505c0 35 50 25 80 45 30-20 80-10 80-45l15-10c5 60-55 45-95 75-40-30-100-15-95-75z" style="fill:#89bfd3;fill-rule:nonzero;stroke:#000;stroke-width:2px"/><path d="M120 505c0 35 50 25 80 45 30-20 80-10 80-45 30-25 90-15 100-5s10.07 20.41 15 50c5 30 5 20 5 60H0c0-40 0-30 5-60 4.93-29.59 5-38.97 15-50 9.5-10.48 70-20 100 5Z" style="fill:none;fill-rule:nonzero;stroke:#000;stroke-width:6px"/><path d="M19.5 570s72.5-2.11 81.5-20m280 20s-71-2.11-80-20" style="fill:none;fill-rule:nonzero;stroke:#000;stroke-width:2px"/>
</g>
<g transform="translate(32 290.6) scale(0.8 0.8) translate(5.749999999999998 8.6) translate(12.19 -3)">
<path fill="#ddb7a0" stroke="#000" stroke-width="6" d="M43 13S23 3 13 3 3 23 3 33s3 20 13 30 27-10 27-10z"/>
</g>
<g transform="translate(322 290.6) scale(-0.8 0.8) translate(-51.74999999999999 8.6) translate(12.19 -3)">
<path fill="#ddb7a0" stroke="#000" stroke-width="6" d="M43 13S23 3 13 3 3 23 3 33s3 20 13 30 27-10 27-10z"/>
</g>
<g transform="scale(0.902 1) translate(21.729490022172943 0)">
<path fill="#ddb7a0" stroke="#000" stroke-width="6" d="M200 100c100 0 150 60 150 200 0 20-20 130-20 130l-80 50c-20 20-40 20-50 20s-30 0-50-20l-80-50S50 320 50 300c0-140 50-200 150-200Z"/><path fill="rgba(0,0,0,0)" d="M200 410c30 0 50 10 50 10 30 0 90-15 90-120h10c0 20-20 130-20 130l-80 50c-20 20-40 20-50 20s-30 0-50-20l-80-50S50 320 50 300h10c0 105 60 120 90 120 0 0 20-10 50-10" class="faceShave"/><path fill="rgba(0,0,0,0)" d="M60 300H50c0-140 50-200 150-200s150 60 150 200h-10v-10c0-5-10-20-15-25s-5-55-15-65c-40-40-60 0-110 0s-70-40-110 0c-10 10-10 60-15 65s-15 20-15 25z" class="headShave"/>
</g>
<g>
<path fill="none" stroke="#000" stroke-width="2" d="M300 320s5 5 10 5m-13.25-2.47S300 335 305 335m-205-15s-5 5-10 5m13.25-2.47S100 335 95 335" class="eyeline2"/>
</g>
<g transform="translate(140.5 420.5) scale(0.56 0.56) translate(7.464285714285713 11.39285714285714)">
<path fill="none" stroke="#000" stroke-width="2" d="M17 2 2 12l5 15" class="shp0"/>
</g>
<g transform="translate(240.5 420.5) scale(-0.56 0.56) translate(-26.46428571428571 11.39285714285714)">
<path fill="none" stroke="#000" stroke-width="2" d="M17 2 2 12l5 15" class="shp0"/>
</g>
<g>
<path fill="none" stroke="#000" stroke-width="2" d="M200 270v-15l5-5-5 5-5-5"/>
</g>
<g transform="translate(102.8498332560182 285.49) rotate(13 37.15016674398179 24.509999999999998)">
<path d="M5.55 33.46S17.01 4.81 39.93 4.81s28.65 28.65 28.65 28.65-5.73 11.46-28.65 11.46S5.55 33.46 5.55 33.46" style="fill:#f5f3ee"/><path d="M5.55 33.46C2.68 30.6 17.08 4.1 40 4.1s31.44 26.5 28.58 29.36c-2.87 2.87-5.73-17.19-28.65-17.19S8.41 36.33 5.55 33.46" style="fill:#000"/><path d="M39.93 38.04c-6.34 0-11.46-5.12-11.46-11.46 0-6.33 5.12-11.46 11.46-11.46s11.46 5.13 11.46 11.46c0 6.34-5.12 11.46-11.46 11.46" style="fill:#000"/>
</g>
<g transform="translate(222.8498332560182 285.49) rotate(-13 37.15016674398179 24.509999999999998) scale(-1 1) translate(-74.30033348796358 0)">
<path d="M5.55 33.46S17.01 4.81 39.93 4.81s28.65 28.65 28.65 28.65-5.73 11.46-28.65 11.46S5.55 33.46 5.55 33.46" style="fill:#f5f3ee"/><path d="M5.55 33.46C2.68 30.6 17.08 4.1 40 4.1s31.44 26.5 28.58 29.36c-2.87 2.87-5.73-17.19-28.65-17.19S8.41 36.33 5.55 33.46" style="fill:#000"/><path d="M39.93 38.04c-6.34 0-11.46-5.12-11.46-11.46 0-6.33 5.12-11.46 11.46-11.46s11.46 5.13 11.46 11.46c0 6.34-5.12 11.46-11.46 11.46" style="fill:#000"/>
</g>
<g transform="translate(109 261.5) rotate(-6 31 8.5)">
<path fill="#5A3825" stroke="#000" d="M61 16V6L31 1 1 6v10l30-5z"/>
</g>
<g transform="translate(229 261.5) rotate(6 31 8.5) scale(-1 1) translate(-62 0)">
<path fill="#5A3825" stroke="#000" d="M61 16V6L31 1 1 6v10l30-5z"/>
</g>
<g transform="translate(169 424.5)">
<path d="M11 8S4.33 28 31 28 51 8 51 8 41 4.37 31 4.37 11 8 11 8Zm50-5L51 8M1 3l10 5" style="fill:#fff;stroke:#000;stroke-width:5"/>
</g>
<g transform="translate(0 -21.52777777777783) scale(-1.01 1.01) translate(-398.01980198019794 -3.8765126512651307)">
<path fill="#ddb7a0" stroke="#000" stroke-width="5" d="M170 390s10-10 20 0 10 10 20 0 20 0 20 0"/>
</g>
<g transform="scale(0.902 1) translate(21.729490022172943 0)">
<path fill="#5A3825" stroke="#000" stroke-width="4" d="M60 310H50v-10c0-133.375 45.38-194.143 136.14-199.595Q192.902 100 200 100c100 0 150 60 150 200v10h-10c-5.865-19.535-9.397-26.984-15-45-2.917-4.702-25.536-47.024-35.536-57.024s-53.452 7.5-84.107 19.107c-10.733 4.064-108.964 32.475-119.957 32.19 0 0-7.086 5.755-10.4 5.727-5 5-15 20-15 25z"/>
</g>
</svg>