<svg xmlns="http://www.w3.org/2000/svg" version="1.2" baseProfile="tiny" width="100%" height="100%" viewBox="0 0 400 600" preserveAspectRatio="xMinYMin meet">
<g transform="scale(0.8260000000000001 1) translate(41.69396642463468 0)">
<path fill="#272421" stroke="#000" stroke-width="4" d="M63 243s-11.25 45.2-20 72-22.23 81.18 12 102c17.75 10.8 56.25 13.8 56.25 13.8L308 437s44.75-5.2 52-58c6.01-43.79 6.25-79-32-125" class="longHairBg"/><path fill="#272421" stroke="#000" stroke-width="4" d="M341 393s-6.51 32.08-11.25 46.3c-2.5 7.5-7 19.5 1.25 35.7-13.3-2.88-30-22-30-22s-11.7 35.32-44.3 42.32c8-14.8 7.3-34.32 7.3-34.32M55 393s6.51 32.08 11.25 46.3c2.5 7.5 7 19.5-1.25 35.7 13.3-2.88 30-22 30-22s11.7 35.32 44.3 42.32c-8-14.8-7.3-34.32-7.3-34.32" class="longHairBg"/>
</g>
<g transform="scale(1 1) translate(0 0)">
<path fill="#fedac7" stroke="#000" stroke-width="6" d="M10 600s0-50 60-70 70-50 70-50l60-180 60 180s10 30 70 50 60 70 60 70" class="body"/>
</g>
<g transform="scale(1 1) translate(0 0)">
<g stroke="#000"><path fill="#7a1319" stroke-width="3" d="M120 505s35 40 80 40 80-40 80-40v95H120z" class="s0"/><path fill="#89bfd3" stroke-width="6" d="M120 504.6c10 45.4 80 55.4 90 65.4s10 40 10 40H-5s5-40 5-50 10-30 40-40 50 0 80-15.4z" class="s0"/><path fill="#89bfd3" stroke-width="6" d="M360 520c30 10 40 30 40 40s10 50 10 50H180s0-40 10-50 80-10 90-55c30 15 50 5 80 15z" class="s0"/><path fill="#89bfd3" stroke-width="1.5" d="M196 597c-2.8 0-5-2.2-5-5s2.2-5 5-5 5 2.2 5 5-2.2 5-5 5zm-2-5h1m2 0h1" class="s1"/></g><g fill="none" stroke="#000" stroke-width="6"><path d="M120 504.6c6.9 37.6 62.2 49.3 67.9 57-7.8 11.2-8 48.4-8 48.4H-5s5-40 5-50 10-30 40-40 50 0 80-15.4z" class="s5"/><path d="M360 520c30 10 40 30 40 40s10 50 10 50H180s0-40 10-50 80-10 90-55c30 15 50 5 80 15z" class="s5"/></g>
</g>
<g transform="translate(32 293.3) scale(0.78 0.78) translate(6.487179487179486 8.941025641025641) translate(23.97 -3)">
<path fill="#fedac7" stroke="#000" stroke-width="6" d="M43 8S3-12 3 28c0 45 40 30 40 30z"/>
</g>
<g transform="translate(322 293.3) scale(-0.78 0.78) translate(-52.48717948717948 8.941025641025641) translate(23.97 -3)">
<path fill="#fedac7" stroke="#000" stroke-width="6" d="M43 8S3-12 3 28c0 45 40 30 40 30z"/>
</g>
<g transform="scale(0.8260000000000001 1) translate(42.13075060532685 0)">
<path fill="#fedac7" stroke="#000" stroke-width="6" d="M200 100c100 0 150 60 150 200 0 70-30 120-40 130l-60 60s-20 10-50 10-50-10-50-10l-60-60c-10-10-40-60-40-130 0-140 50-200 150-200Z" class="head"/><path fill="rgba(0,0,0,0)" d="M200 410c30 0 50 10 50 10 30 0 90-15 90-120h10c0 70-30 120-40 130l-60 60s-20 10-50 10-50-10-50-10l-60-60c-10-10-40-60-40-130h10c0 105 60 120 90 120 0 0 20-10 50-10" class="faceShave"/><path fill="rgba(0,0,0,0)" d="M60 300H50c0-140 50-200 150-200s150 60 150 200h-10v-10c0-5-10-20-15-25s-5-55-15-65c-40-40-60 0-110 0s-70-40-110 0c-10 10-10 60-15 65s-15 20-15 25z" class="headShave"/>
</g>
<g>
<path fill="none" stroke="#000" stroke-width="2" d="M300 320s5 5 10 5m-13.25-2.47S300 335 305 335m-205-15s-5 5-10 5m13.25-2.47S100 335 95 335" class="eyeline2"/>
</g>
<g transform="translate(142.67 417.5) scale(0.8 0.8) translate(1.8324999999999996 4.374999999999998)">
<path fill="none" stroke="#000" stroke-width="2" d="M12.33 4.32s-10 3.29-10 13.18 10 13.18 10 13.18" class="shp0"/>
</g>
<g transform="translate(242.67 417.5) scale(-0.8 0.8) translate(-16.4925 4.374999999999998)">
<path fill="none" stroke="#000" stroke-width="2" d="M12.33 4.32s-10 3.29-10 13.18 10 13.18 10 13.18" class="shp0"/>
</g>
<g transform="scale(0.8260000000000001 1) translate(42.23607748184018 0)">
<path fill="#272421" fill-rule="evenodd" stroke="#000" d="M60 300H50s-10 70 10 130c10 20 30 55 90 55 10-10 0-45-10-55s-30 0-60-30c-20-20-20-70-20-100Zm261 100c-30 30-50 20-60 30s-20 45-10 55c60 0 80-35 90-55 20-60 10-130 10-130h-10c0 30 0 80-20 100Z" class="shp0"/><path fill="#272421" stroke="#000" d="M188 458c2-2 22-2 24 0s-8 16-12 16-14-14-12-16Z" class="shp0"/>
</g>
<g transform="translate(99.23500000000001 289.1206538286518) rotate(-9 40.76499999999999 20.879346171348168)">
<path d="M73.63 30.14S62.25 5.74 32.3 7.42C12.33 8.54 7.9 18.8 7.9 18.8l5.83 14.7c30.23 3.31 59.9-3.36 59.9-3.36" style="fill:#fff"/><path d="M40.63 30.99a9.99 9.99 0 0 0 9.42-10.55 9.985 9.985 0 0 0-10.54-9.42 10 10 0 0 0-9.43 10.54c.31 5.52 5.03 9.74 10.55 9.43" style="fill:#000"/><path d="M73.63 30.14S72.51 10.17 32.3 7.42C12.33 8.54 7.9 18.8 7.9 18.8l5.83 14.7" style="fill:none;stroke:#000;stroke-width:5"/>
</g>
<g transform="translate(219.235 289.1206538286518) rotate(9 40.76499999999999 20.879346171348168) scale(-1 1) translate(-81.52999999999999 0)">
<path d="M73.63 30.14S62.25 5.74 32.3 7.42C12.33 8.54 7.9 18.8 7.9 18.8l5.83 14.7c30.23 3.31 59.9-3.36 59.9-3.36" style="fill:#fff"/><path d="M40.63 30.99a9.99 9.99 0 0 0 9.42-10.55 9.985 9.985 0 0 0-10.54-9.42 10 10 0 0 0-9.43 10.54c.31 5.52 5.03 9.74 10.55 9.43" style="fill:#000"/><path d="M73.63 30.14S72.51 10.17 32.3 7.42C12.33 8.54 7.9 18.8 7.9 18.8l5.83 14.7" style="fill:none;stroke:#000;stroke-width:5"/>
</g>
<g transform="translate(101.88888888888889 257) rotate(14 38.111111111111114 13)">
<path fill="#272421" stroke="#000" d="M71 17c8-8 0-12 0-12S43 9 35 9C25 9 7 1 7 1S-5 5 7 17c8 8 8 8 28 8s33-5 36-8Z"/>
</g>
<g transform="translate(221.88888888888889 257) rotate(-14 38.111111111111114 13) scale(-1 1) translate(-76.22222222222223 0)">
<path fill="#272421" stroke="#000" d="M71 17c8-8 0-12 0-12S43 9 35 9C25 9 7 1 7 1S-5 5 7 17c8 8 8 8 28 8s33-5 36-8Z"/>
</g>
<g transform="translate(0 48.766108367626885)">
<path d="M168 384s9-13.77 32-14.03c17.4-.2 32 13.2 32 13.2s-4.29 28.26-32 28.83c-27.29.56-32-28-32-28" style="opacity:.05;mix-blend-mode:multiply;fill:#501414"/><path d="M168 384c12-4 48-4 64 0-8 8-10 16-32 16-20 0-24-8-32-16Z" style="fill:#000;stroke:#000"/><path d="M168 384c12-4 48-4 64 0-20 4-10 4-32 4-20 0-16 0-32-4m12 12s14-1 20-1 20 1 20 1-4 4-20 4c-12 0-20-4-20-4" style="fill:#fff"/><path d="M168 384c12-4 48-4 64 0-8 8-10 16-32 16-20 0-24-8-32-16Zm16 24c12 6 20 6 32 0m4.29-33.12c-14.52-5.66-27.29-6.34-40.29.09" style="fill:none;stroke:#000;stroke-width:4"/>
</g>
<g transform="translate(174.5 336.5) scale(0.64 0.64) translate(14.34375 18.843749999999996)">
<path fill="#fedac7" stroke="#000" stroke-width="5" d="m28 1 20 45s-5 20-25 20S3 46 3 46" class="nose"/>
</g>
<g transform="scale(0.8260000000000001 1) translate(42.19135109865652 0)">
<path fill="#272421" stroke="#000" stroke-width="4" d="M180.58 65.5c-.32.83-3.05 2.63-6.08 4-3.03 1.38-7.13 2.5-9.13 2.5-2.82 0-4.42.79-7.13 3.5-2.77 2.77-4.29 3.5-7.3 3.5-2.09 0-4.5.67-5.37 1.5-1.4 1.34-1.79 1.28-3.57-.5-1.1-1.1-2.68-2-3.5-2s-1.78.4-2.12.88c-.35.49-2.71.88-5.25.88-2.55-.01-6.43.77-8.63 1.72l-4 1.72L120 94c-10.02-.48-10.52-.29-11.71 2.25-.88 1.88-1.68 2.48-2.54 1.89-.69-.48-2.49-1.15-4-1.5S99 95.33 99 94.5s-.69-1.84-1.53-2.25c-.99-.49-2.02-.06-2.97 1.25-.79 1.1-1.23 2.56-.97 3.25s.02 1.47-.53 1.75-.99 1.51-.97 2.75-.63 3.6-1.45 5.25c-.81 1.65-1.27 3.34-1.03 3.75.25.41-.11.78-.8.81s-3.05.26-5.25.5c-2.2.25-5.01 1.12-6.25 1.95-1.24.82-2.25 2.16-2.25 2.99s-1.46 2.46-3.25 3.64c-2.39 1.57-4.05 1.96-6.25 1.47s-4.19-.02-7.5 1.77c-2.48 1.34-5.06 3.16-5.75 4.03-1.01 1.29-.97 1.87.25 3.09 1.33 1.33 1.33 1.69-.01 3.25-.83.96-1.25 2.43-.94 3.25.41 1.05-1 2.35-4.74 4.35-2.92 1.57-7.03 4.49-9.12 6.5-2.1 2.01-4.64 5-5.64 6.65-1.01 1.65-3 3.34-4.44 3.75S25 159.68 25 160.5s.39 2.29.87 3.25 1.15 3.44 1.5 5.5c.6 3.59.52 3.73-1.87 3.25-2.15-.43-2.77.09-4.47 3.75-1.91 4.14-1.92 4.32-.12 6.75 1.01 1.38 2.57 3.06 3.46 3.75 1.45 1.11 1.46 1.42.13 2.75-.82.82-1.5 2.18-1.5 3s.9 1.72 2 2c1.52.38 2 1.33 2 4 0 1.93-.45 3.5-1 3.5s-1.5 1.01-2.1 2.25c-.82 1.66-.8 2.77.08 4.25.96 1.64.71 3.12-1.4 8.25-2.37 5.74-2.46 6.45-1.08 8.75.82 1.38 2.59 3.06 3.93 3.75 2.33 1.2 2.36 1.34.75 3.59-1.15 1.6-1.33 2.54-.58 3 .6.36 1.05 1.45 1 2.41-.06.96-.66 1.75-1.35 1.75-.8 0-.99.63-.53 1.75.58 1.39.38 1.6-1 1-1.21-.53-2.02-.15-2.72 1.25q-1.005 1.995 0 7.5c.7 3.87 1.67 5.95 3.25 7.01 1.24.83 3.26 1.5 4.5 1.5 1.24-.01 2.48.44 2.75.99s.05 1.23-.5 1.5-1 2.52-1 5c0 4.3.12 4.49 2.75 4.25 2.39-.22 2.72.08 2.51 2.25-.14 1.38.41 3.18 1.22 4 1.23 1.25 1.27 2.05.25 4.76-.68 1.79-1.79 3.25-2.48 3.25-.69-.01-1.51 1.23-1.83 2.74-.36 1.72.02 3.6 1 5 .87 1.24 2.82 2.82 4.33 3.51 1.73.79 2.86 2.18 3.06 3.75.22 1.77-.48 3.07-2.41 4.49-1.58 1.16-2.44 2.52-2.06 3.25.47.89 3.98 1.25 12.16 1.25H60c0-20.92.18-21.84 3.25-27.82 1.79-3.48 4.92-8.43 6.96-11 2.05-2.58 4.37-5.8 5.17-7.18.79-1.37 2.85-11.95 4.56-23.5s3.44-22.37 3.84-24.05c.39-1.67 2.52-4.65 4.72-6.62 2.2-1.96 6.36-4.75 9.25-6.2s8.06-3.31 11.5-4.13c3.44-.83 10.97-1.79 16.75-2.13 7.69-.46 16.53 0 33 1.7 14.91 1.55 28.74 2.33 41 2.33s26.09-.78 41-2.33c16.47-1.7 25.31-2.16 33-1.7 5.77.34 13.31 1.3 16.75 2.13 3.44.82 8.61 2.69 11.5 4.15s7.15 4.27 9.47 6.25c3.98 3.39 4.31 4.09 5.75 12.1.83 4.68 2.42 15.36 3.52 23.75 1.11 8.39 2.7 16.49 3.55 18 .84 1.51 3.32 5 5.52 7.75 2.19 2.75 5.21 7.48 6.71 10.5 2.42 4.87 2.76 6.8 2.98 16.75L340 310l20.5-.5c-.28-3.87-.61-6.24-.93-7.75-.49-2.39-.04-3.08 3.43-5.25 2.2-1.37 4.23-3.4 4.5-4.5s.27-2.9 0-4-1.06-2-1.75-1.99c-.69 0-1.8-1.46-2.48-3.25-1.02-2.72-.98-3.51.28-4.76 1.05-1.05 1.29-2.4.79-4.5-.71-2.95-.67-2.99 2.47-2.25l3.19.75c0-6.98-.45-9.23-1-9.5s-.77-.95-.5-1.5 1.51-1 2.75-.99c1.24 0 3.26-.67 4.5-1.5 1.58-1.06 2.55-3.14 3.25-7.01q1.005-5.505 0-7.5c-.7-1.4-1.51-1.78-2.72-1.25-1.38.6-1.58.39-1-1 .5-1.21.26-1.75-.78-1.75-.82 0-1.51-.34-1.52-.75s.56-1.3 1.25-1.97c.8-.77 2.33-.95 4.14-.5 2.65.66 2.84.52 2.5-1.78-.3-2.02-.95-2.51-3.37-2.54-1.65-.02-3.68-.4-4.5-.86-1.19-.65-.83-1.21 1.75-2.71 1.79-1.04 3.7-2.79 4.25-3.89.76-1.52.38-3.51-1.58-8.25-2.11-5.13-2.36-6.61-1.4-8.25.88-1.48.9-2.59.08-4.25-.6-1.24-1.55-2.25-2.1-2.25s-1-1.57-1-3.5c0-2.67.48-3.62 2-4 1.1-.28 2-1.18 2-2s-.68-2.18-1.5-3c-1.33-1.33-1.32-1.64.13-2.75.89-.69 2.47-2.49 3.5-4 1.79-2.64 1.8-2.88.12-5.8-1-1.75-2.94-3.35-4.52-3.75-2.55-.64-2.72-.98-2.12-4.2.36-1.93 1.04-4.29 1.52-5.25s.87-2.43.87-3.25-1.17-1.84-2.61-2.25-3.43-2.1-4.44-3.75c-1-1.65-3.54-4.64-5.64-6.65-2.09-2.01-6.17-4.82-9.06-6.25-4.61-2.28-5.19-2.9-4.75-5.1.36-1.78.07-2.5-1-2.5-.82 0-1.79-.56-2.15-1.25s.2-1.82 1.25-2.53c1.42-.96 1.65-1.67.9-2.87-.55-.88-3.12-2.78-5.71-4.22-4.01-2.24-5.01-2.44-6.75-1.38-1.68 1.03-2.69.94-5.79-.5-2.06-.96-4.05-2.2-4.41-2.75-.37-.55-.48-1.56-.25-2.25.22-.69-.83-2-2.34-2.92-1.97-1.2-3.81-1.49-6.5-1-3.52.63-3.87.45-5.75-2.83-1.63-2.85-1.91-4.71-1.5-10l.5-6.5c-6.41.4-8.01 1-8 1.75 0 .69-1.24 1.54-2.75 1.89s-3.31 1.02-4 1.5c-.86.59-1.65-.01-2.53-1.89-.81-1.72-2.02-2.71-3.25-2.64-1.09.06-3.32.29-4.97.5l-3 .39.54-11c-6.87-3.24-10.09-3.91-12.76-3.75-2.35.14-4.51-.2-4.78-.75s-1.18-1-2-1-2.4.9-3.5 2c-1.81 1.81-2.17 1.85-3.75.48-1.4-1.22-3.02-1.37-8.01-.75l-6.27.77c.03-5.29-.24-5.48-3.6-5.25-2.14.15-3.86.87-4.18 1.75-.3.83-1.03 1.83-1.62 2.23-.59.41-1.63.75-2.32.75-.69.01-2.15-1.78-3.25-3.98s-2-4.67-2-5.5-.68-2.62-1.5-4c-.82-1.37-2.18-2.5-3-2.5s-2.29.9-3.25 2.01c-.96 1.1-2.2 2-2.75 2-.55-.01-1.56.88-2.25 1.99-.69 1.1-1.93 2-2.75 2s-1.5-.45-1.5-1-1.83-1.93-4.08-3.06c-2.68-1.36-4.99-1.85-6.75-1.44-1.89.45-2.89.18-3.42-.93S189.56 64 186.08 64c-3.44 0-5.09.45-5.5 1.5Z"/>
</g>
</svg>