<svg xmlns="http://www.w3.org/2000/svg" version="1.2" baseProfile="tiny" width="100%" height="100%" viewBox="0 0 400 600" preserveAspectRatio="xMinYMin meet">
<g transform="scale(0.8360000000000001 1) translate(38.82769254074349 0)">
<path fill="#272421" stroke="#000" stroke-width="4" d="M63 243s-11.25 45.2-20 72-22.23 81.18 12 102c17.75 10.8 56.25 13.8 56.25 13.8L308 437s44.75-5.2 52-58c6.01-43.79 6.25-79-32-125" class="longHairBg"/><path fill="#272421" stroke="#000" stroke-width="4" d="M341 393s-6.51 32.08-11.25 46.3c-2.5 7.5-7 19.5 1.25 35.7-13.3-2.88-30-22-30-22s-11.7 35.32-44.3 42.32c8-14.8 7.3-34.32 7.3-34.32M55 393s6.51 32.08 11.25 46.3c2.5 7.5 7 19.5-1.25 35.7 13.3-2.88 30-22 30-22s11.7 35.32 44.3 42.32c-8-14.8-7.3-34.32-7.3-34.32" class="longHairBg"/>
</g>
<g transform="scale(0.96 1) translate(8.333333333333341 0)">
<path fill="#5c3937" stroke="#000" stroke-width="6" d="M10 600s-10-65 50-65c5 0 25-15 70-35l70-200 70 200c45 20 65 35 70 35 60 0 50 65 50 65" class="body"/>
</g>
<g transform="scale(0.96 1) translate(8.333333333333341 0)">
<g stroke="#000"><path fill="#89bfd3" stroke-width="6" d="M120 505c0 20 50 15 80 35 30-20 80-15 80-35 0 0 50-5 80 5 0 0 20 10 30 40s10 60 10 60H0s0-30 10-60 30-40 30-40c30-10 80-5 80-5Z" class="hockeyPrimary"/><path fill="#7a1319" stroke-width="none" d="m0 600 400 1.8-2-11.8s-8 5-18 5c-40-20-70-30-180-30C80 565 2 590 2 590z" class="lowStripe"/><path fill="#07364f" d="M4.5 577.03S10 580 20 580c30-15 110-20 180-20 90 0 150 5 180 20 10 0 17-2.97 17-2.97l1 12.97s-8 5-18 5c-40-20-110-22.48-180-22.48-80 0-150 2.48-180 22.48-10 0-18-5-18-5z" class="stripeAccent"/><path fill="#07364f" stroke-width="2" d="M120 505c0 20 50 15 80 30 30-15 80-10 80-30l15-1c0 41-40 21-95 56-55-35-95-15-95-56z" class="collarAccent"/><path fill="none" stroke-width="6" d="M120 505c0 20 50 15 80 35 30-20 80-15 80-35 0 0 50-5 80 5 0 0 20 10 30 40s10 60 10 60H0s0-30 10-60 30-40 30-40c30-10 80-5 80-5Z" class="hockeyStroke"/><path fill="#7a1319" stroke-width="2" d="M180 528.21h40l10 17.05L200 564l-30-18.74z" class="shieldSecondary"/></g>
</g>
<g transform="translate(33.53553390593274 291.01362954285077) scale(0.92 0.92) translate(1.866475312527587 2.9553365614912357) translate(22.491067811865477 -2.979591836734694)">
<path fill="#5c3937" stroke="#000" stroke-width="6" d="M40 14S10-1 5 4s0 30 5 40-5 25 30 20z"/>
</g>
<g transform="translate(323.53553390593277 291.01362954285077) scale(-0.92 0.92) translate(-44.79540750066211 2.9553365614912357) translate(22.491067811865477 -2.979591836734694)">
<path fill="#5c3937" stroke="#000" stroke-width="6" d="M40 14S10-1 5 4s0 30 5 40-5 25 30 20z"/>
</g>
<g transform="scale(0.8360000000000001 1) translate(39.23444976076553 0)">
<path fill="#5c3937" stroke="#000" stroke-width="6" d="M200 100c100 0 150 60 150 200-20 180-10 140-90 180-30 10-40 20-60 20s-30-10-60-20c-80-40-70 0-90-180 0-140 50-200 150-200Z" class="head"/><path fill="rgba(0,0,0,0)" d="M60 300H50c0-140 50-200 150-200s150 60 150 200h-10v-10c0-5-10-20-15-25s-5-55-15-65c-40-40-60 0-110 0s-70-40-110 0c-10 10-10 60-15 65s-15 20-15 25z" class="headShave"/><path fill="rgba(0,0,0,0)" d="M200 410c30 0 50 10 50 10 30 0 90-15 90-120h10c-20 180.69-10 140-90 180-30 10-40 20-60 20s-30-10-60-20c-80-40-70 0-90-180h10c0 105 60 120 90 120 0 0 20-10 50-10" class="faceShave"/>
</g>
<g>
<path fill="none" stroke="#000" stroke-width="2" d="M240 340s25 10 40 0m-120 0s-25 10-40 0" class="eyeline4"/>
</g>
<g transform="translate(144.4807306749833 416) scale(0.32 0.32) translate(11.728447315660503 40.37499999999999)">
<path fill="none" stroke="#000" stroke-width="2" d="M9 2s-12.5 8.95-4 34" class="shp0"/>
</g>
<g transform="translate(244.4807306749833 416) scale(-0.32 0.32) translate(-22.766985965693923 40.37499999999999)">
<path fill="none" stroke="#000" stroke-width="2" d="M9 2s-12.5 8.95-4 34" class="shp0"/>
</g>
<g transform="translate(102.43516325508939 287.6) rotate(-6 37.56483674491061 22.4)">
<path d="M5 35S17.08 5 40 5s30 30 30 30-7.15 7.92-30.07 7.92S5 35 5 35" style="fill:#f5f3ee"/><path d="M5 35.6C2.13 32.73 17.08 1.88 40 1.88S72.87 32.13 70 35 62.92 6.73 40 6.73 7.87 38.46 5 35.6" style="fill:#000"/><path d="M39.93 33.78c-4.53 0-8.2-3.66-8.2-8.2 0-4.53 3.67-8.19 8.2-8.19s8.19 3.66 8.19 8.19c0 4.54-3.66 8.2-8.19 8.2" style="fill:#000"/>
</g>
<g transform="translate(222.43516325508938 287.6) rotate(6 37.56483674491061 22.4) scale(-1 1) translate(-75.12967348982122 0)">
<path d="M5 35S17.08 5 40 5s30 30 30 30-7.15 7.92-30.07 7.92S5 35 5 35" style="fill:#f5f3ee"/><path d="M5 35.6C2.13 32.73 17.08 1.88 40 1.88S72.87 32.13 70 35 62.92 6.73 40 6.73 7.87 38.46 5 35.6" style="fill:#000"/><path d="M39.93 33.78c-4.53 0-8.2-3.66-8.2-8.2 0-4.53 3.67-8.19 8.2-8.19s8.19 3.66 8.19 8.19c0 4.54-3.66 8.2-8.19 8.2" style="fill:#000"/>
</g>
<g transform="translate(-127.5 -8.774999999999977) rotate(-9 267.5 278.775)">
<path fill="#272421" stroke="#000" d="m235 280 65 5-5-12.45-55 2.45z"/>
</g>
<g transform="translate(-7.5 -8.774999999999977) rotate(9 267.5 278.775) scale(-1 1) translate(-535 0)">
<path fill="#272421" stroke="#000" d="m235 280 65 5-5-12.45-55 2.45z"/>
</g>
<g transform="translate(165 425.99483160254016) scale(-1 1) translate(-70 0)">
<path d="M1 3s11-1.86 34-2C51.67.9 69 3 69 3S57.67 26.31 35 27C12.68 27.68 1 3 1 3" style="opacity:.05;mix-blend-mode:multiply;fill:#501414"/><path d="M11 5s14 1.71 24 1.71S59 5 59 5s-8 10-24 10S11 5 11 5" style="fill:#fff"/><path d="M11 5s14 1.71 24 1.71S59 5 59 5s-8 10-24 10S11 5 11 5ZM1 3s5 3.19 10 2m58-2s-5 3.19-10 2M20.71 23.69c15.15 4.14 16.29 3.86 29.15-.57" style="fill:none;stroke:#000;stroke-width:4"/>
</g>
<g transform="translate(137.77777777777777 318.75) scale(-1.19 1.19) translate(-94.06162464985995 -8.182773109243696)">
<path fill="#5c3937" stroke="#000" stroke-width="5" d="M40 40s50-30 0 30"/>
</g>
<g transform="scale(-1 1) translate(-400.5753564079345 0) scale(0.8360000000000001 1) translate(39.29088424096963 0)">
<path fill="#272421" stroke="#000" stroke-width="4" d="M180.58 65.5c-.32.83-3.05 2.63-6.08 4-3.03 1.38-7.13 2.5-9.13 2.5-2.82 0-4.42.79-7.13 3.5-2.77 2.77-4.29 3.5-7.3 3.5-2.09 0-4.5.67-5.37 1.5-1.4 1.34-1.79 1.28-3.57-.5-1.1-1.1-2.68-2-3.5-2s-1.78.4-2.12.88c-.35.49-2.71.88-5.25.88-2.55-.01-6.43.77-8.63 1.72l-4 1.72L120 94c-10.02-.48-10.52-.29-11.71 2.25-.88 1.88-1.68 2.48-2.54 1.89-.69-.48-2.49-1.15-4-1.5S99 95.33 99 94.5s-.69-1.84-1.53-2.25c-.99-.49-2.02-.06-2.97 1.25-.79 1.1-1.23 2.56-.97 3.25s.02 1.47-.53 1.75-.99 1.51-.97 2.75-.63 3.6-1.45 5.25c-.81 1.65-1.27 3.34-1.03 3.75.25.41-.11.78-.8.81s-3.05.26-5.25.5c-2.2.25-5.01 1.12-6.25 1.95-1.24.82-2.25 2.16-2.25 2.99s-1.46 2.46-3.25 3.64c-2.39 1.57-4.05 1.96-6.25 1.47s-4.19-.02-7.5 1.77c-2.48 1.34-5.06 3.16-5.75 4.03-1.01 1.29-.97 1.87.25 3.09 1.33 1.33 1.33 1.69-.01 3.25-.83.96-1.25 2.43-.94 3.25.41 1.05-1 2.35-4.74 4.35-2.92 1.57-7.03 4.49-9.12 6.5-2.1 2.01-4.64 5-5.64 6.65-1.01 1.65-3 3.34-4.44 3.75S25 159.68 25 160.5s.39 2.29.87 3.25 1.15 3.44 1.5 5.5c.6 3.59.52 3.73-1.87 3.25-2.15-.43-2.77.09-4.47 3.75-1.91 4.14-1.92 4.32-.12 6.75 1.01 1.38 2.57 3.06 3.46 3.75 1.45 1.11 1.46 1.42.13 2.75-.82.82-1.5 2.18-1.5 3s.9 1.72 2 2c1.52.38 2 1.33 2 4 0 1.93-.45 3.5-1 3.5s-1.5 1.01-2.1 2.25c-.82 1.66-.8 2.77.08 4.25.96 1.64.71 3.12-1.4 8.25-2.37 5.74-2.46 6.45-1.08 8.75.82 1.38 2.59 3.06 3.93 3.75 2.33 1.2 2.36 1.34.75 3.59-1.15 1.6-1.33 2.54-.58 3 .6.36 1.05 1.45 1 2.41-.06.96-.66 1.75-1.35 1.75-.8 0-.99.63-.53 1.75.58 1.39.38 1.6-1 1-1.21-.53-2.02-.15-2.72 1.25q-1.005 1.995 0 7.5c.7 3.87 1.67 5.95 3.25 7.01 1.24.83 3.26 1.5 4.5 1.5 1.24-.01 2.48.44 2.75.99s.05 1.23-.5 1.5-1 2.52-1 5c0 4.3.12 4.49 2.75 4.25 2.39-.22 2.72.08 2.51 2.25-.14 1.38.41 3.18 1.22 4 1.23 1.25 1.27 2.05.25 4.76-.68 1.79-1.79 3.25-2.48 3.25-.69-.01-1.51 1.23-1.83 2.74-.36 1.72.02 3.6 1 5 .87 1.24 2.82 2.82 4.33 3.51 1.73.79 2.86 2.18 3.06 3.75.22 1.77-.48 3.07-2.41 4.49-1.58 1.16-2.44 2.52-2.06 3.25.47.89 3.98 1.25 12.16 1.25H60c0-20.92.18-21.84 3.25-27.82 1.79-3.48 4.92-8.43 6.96-11 2.05-2.58 4.37-5.8 5.17-7.18.79-1.37 2.85-11.95 4.56-23.5s3.44-22.37 3.84-24.05c.39-1.67 2.52-4.65 4.72-6.62 2.2-1.96 6.36-4.75 9.25-6.2s8.06-3.31 11.5-4.13c3.44-.83 10.97-1.79 16.75-2.13 7.69-.46 16.53 0 33 1.7 14.91 1.55 28.74 2.33 41 2.33s26.09-.78 41-2.33c16.47-1.7 25.31-2.16 33-1.7 5.77.34 13.31 1.3 16.75 2.13 3.44.82 8.61 2.69 11.5 4.15s7.15 4.27 9.47 6.25c3.98 3.39 4.31 4.09 5.75 12.1.83 4.68 2.42 15.36 3.52 23.75 1.11 8.39 2.7 16.49 3.55 18 .84 1.51 3.32 5 5.52 7.75 2.19 2.75 5.21 7.48 6.71 10.5 2.42 4.87 2.76 6.8 2.98 16.75L340 310l20.5-.5c-.28-3.87-.61-6.24-.93-7.75-.49-2.39-.04-3.08 3.43-5.25 2.2-1.37 4.23-3.4 4.5-4.5s.27-2.9 0-4-1.06-2-1.75-1.99c-.69 0-1.8-1.46-2.48-3.25-1.02-2.72-.98-3.51.28-4.76 1.05-1.05 1.29-2.4.79-4.5-.71-2.95-.67-2.99 2.47-2.25l3.19.75c0-6.98-.45-9.23-1-9.5s-.77-.95-.5-1.5 1.51-1 2.75-.99c1.24 0 3.26-.67 4.5-1.5 1.58-1.06 2.55-3.14 3.25-7.01q1.005-5.505 0-7.5c-.7-1.4-1.51-1.78-2.72-1.25-1.38.6-1.58.39-1-1 .5-1.21.26-1.75-.78-1.75-.82 0-1.51-.34-1.52-.75s.56-1.3 1.25-1.97c.8-.77 2.33-.95 4.14-.5 2.65.66 2.84.52 2.5-1.78-.3-2.02-.95-2.51-3.37-2.54-1.65-.02-3.68-.4-4.5-.86-1.19-.65-.83-1.21 1.75-2.71 1.79-1.04 3.7-2.79 4.25-3.89.76-1.52.38-3.51-1.58-8.25-2.11-5.13-2.36-6.61-1.4-8.25.88-1.48.9-2.59.08-4.25-.6-1.24-1.55-2.25-2.1-2.25s-1-1.57-1-3.5c0-2.67.48-3.62 2-4 1.1-.28 2-1.18 2-2s-.68-2.18-1.5-3c-1.33-1.33-1.32-1.64.13-2.75.89-.69 2.47-2.49 3.5-4 1.79-2.64 1.8-2.88.12-5.8-1-1.75-2.94-3.35-4.52-3.75-2.55-.64-2.72-.98-2.12-4.2.36-1.93 1.04-4.29 1.52-5.25s.87-2.43.87-3.25-1.17-1.84-2.61-2.25-3.43-2.1-4.44-3.75c-1-1.65-3.54-4.64-5.64-6.65-2.09-2.01-6.17-4.82-9.06-6.25-4.61-2.28-5.19-2.9-4.75-5.1.36-1.78.07-2.5-1-2.5-.82 0-1.79-.56-2.15-1.25s.2-1.82 1.25-2.53c1.42-.96 1.65-1.67.9-2.87-.55-.88-3.12-2.78-5.71-4.22-4.01-2.24-5.01-2.44-6.75-1.38-1.68 1.03-2.69.94-5.79-.5-2.06-.96-4.05-2.2-4.41-2.75-.37-.55-.48-1.56-.25-2.25.22-.69-.83-2-2.34-2.92-1.97-1.2-3.81-1.49-6.5-1-3.52.63-3.87.45-5.75-2.83-1.63-2.85-1.91-4.71-1.5-10l.5-6.5c-6.41.4-8.01 1-8 1.75 0 .69-1.24 1.54-2.75 1.89s-3.31 1.02-4 1.5c-.86.59-1.65-.01-2.53-1.89-.81-1.72-2.02-2.71-3.25-2.64-1.09.06-3.32.29-4.97.5l-3 .39.54-11c-6.87-3.24-10.09-3.91-12.76-3.75-2.35.14-4.51-.2-4.78-.75s-1.18-1-2-1-2.4.9-3.5 2c-1.81 1.81-2.17 1.85-3.75.48-1.4-1.22-3.02-1.37-8.01-.75l-6.27.77c.03-5.29-.24-5.48-3.6-5.25-2.14.15-3.86.87-4.18 1.75-.3.83-1.03 1.83-1.62 2.23-.59.41-1.63.75-2.32.75-.69.01-2.15-1.78-3.25-3.98s-2-4.67-2-5.5-.68-2.62-1.5-4c-.82-1.37-2.18-2.5-3-2.5s-2.29.9-3.25 2.01c-.96 1.1-2.2 2-2.75 2-.55-.01-1.56.88-2.25 1.99-.69 1.1-1.93 2-2.75 2s-1.5-.45-1.5-1-1.83-1.93-4.08-3.06c-2.68-1.36-4.99-1.85-6.75-1.44-1.89.45-2.89.18-3.42-.93S189.56 64 186.08 64c-3.44 0-5.09.45-5.5 1.5Z"/>
</g>
</svg>