<svg xmlns="http://www.w3.org/2000/svg" version="1.2" baseProfile="tiny" width="100%" height="100%" viewBox="0 0 400 600" preserveAspectRatio="xMinYMin meet">
<g transform="scale(0.97 1) translate(6.185567010309284 0)">
<path fill="#aa816f" stroke="#000" stroke-width="6" d="M10 600s-10-65 50-65c5 0 25-15 70-35l70-200 70 200c45 20 65 35 70 35 60 0 50 65 50 65" class="body"/>
</g>
<g transform="scale(0.97 1) translate(6.185567010309284 0)">
<g stroke="#000"><path fill="#89bfd3" stroke-width="6" d="M120 505c0 20 50 15 80 35 30-20 80-15 80-35 0 0 50-5 80 5 0 0 20 10 30 40s10 60 10 60H0s0-30 10-60 30-40 30-40c30-10 80-5 80-5Z" class="hockeyPrimary"/><path fill="#7a1319" stroke-width="none" d="m0 600 400 1.8-2-11.8s-8 5-18 5c-40-20-70-30-180-30C80 565 2 590 2 590z" class="lowStripe"/><path fill="#07364f" d="M4.5 577.03S10 580 20 580c30-15 110-20 180-20 90 0 150 5 180 20 10 0 17-2.97 17-2.97l1 12.97s-8 5-18 5c-40-20-110-22.48-180-22.48-80 0-150 2.48-180 22.48-10 0-18-5-18-5z" class="stripeAccent"/><path fill="#07364f" stroke-width="2" d="M120 505c0 20 50 15 80 30 30-15 80-10 80-30l15-1c0 41-40 21-95 56-55-35-95-15-95-56z" class="collarAccent"/><path fill="none" stroke-width="6" d="M120 505c0 20 50 15 80 35 30-20 80-15 80-35 0 0 50-5 80 5 0 0 20 10 30 40s10 60 10 60H0s0-30 10-60 30-40 30-40c30-10 80-5 80-5Z" class="hockeyStroke"/><path fill="#7a1319" stroke-width="2" d="M180 528.21h40l10 17.05L200 564l-30-18.74z" class="shieldSecondary"/></g>
</g>
<g transform="translate(32 293.3) scale(0.52 0.52) translate(21.23076923076923 29.261538461538464) translate(-3 -3)">
<path fill="#aa816f" stroke="#000" stroke-width="6" d="M43 8S3-12 3 28c0 45 40 30 40 30z"/>
</g>
<g transform="translate(322 293.3) scale(-0.52 0.52) translate(-67.23076923076923 29.261538461538464) translate(-3 -3)">
<path fill="#aa816f" stroke="#000" stroke-width="6" d="M43 8S3-12 3 28c0 45 40 30 40 30z"/>
</g>
<g transform="scale(1 1) translate(0 0)">
<path fill="#aa816f" stroke="#000" stroke-width="6" d="M200 100c100 0 150 60 150 200 0 20-5 100-25 130-10 20-45 50-85 55-5 5-15 15-40 15s-35-10-40-15c-35-5-75-35-85-55-20-30-25-110-25-130 0-140 50-200 150-200Z" class="head"/><path fill="rgba(0,0,0,0)" d="M200 410c30 0 50 10 50 10 30 0 90-15 90-120h10c0 20-5 100-25 130-10 20-45 50-85 55-5 5-15 15-40 15s-35-10-40-15c-35-5-75-35-85-55-20-30-25-110-25-130h10c0 105 60 120 90 120 0 0 20-10 50-10" class="faceShave"/><path fill="rgba(0,0,0,0)" d="M60 300H50c0-140 50-200 150-200s150 60 150 200h-10v-10c0-5-10-20-15-25s-5-55-15-65c-40-40-60 0-110 0s-70-40-110 0c-10 10-10 60-15 65s-15 20-15 25z" class="headShave"/>
</g>
<g>
<path fill="none" stroke="#000" stroke-width="2" d="M300 320s5 5 10 5m-13.25-2.47S300 335 305 335m-205-15s-5 5-10 5m13.25-2.47S100 335 95 335" class="eyeline2"/>
</g>
<g transform="translate(147 424.5) scale(2.22 2.22) translate(-1.6486486486486487 -5.770270270270271)">
<path fill="none" stroke="#000" stroke-width="2" d="m0 20 6-10-6-9" class="shp0"/>
</g>
<g transform="translate(247 424.5) scale(-2.22 2.22) translate(-4.351351351351351 -5.770270270270271)">
<path fill="none" stroke="#000" stroke-width="2" d="m0 20 6-10-6-9" class="shp0"/>
</g>
<g>
<path fill="none" stroke="#000" stroke-width="2" d="M170 235s15 0 30 5c15-5 30-5 30-5m-75-15s35 0 45 5c10-5 45-5 45-5"/>
</g>
<g transform="translate(98.84448468063304 285.57536672288046) rotate(3 41.155515319366955 24.42463327711953)">
<path d="M73.67 39.73c3.92-10.47 2.35-25.38 2.35-25.38s-35.86-6.27-45.8-5.22c-9.95 1.04-24.34 7.59-24.34 7.59s-1.44 10.21 7.6 24.34z" style="fill:#fff"/><path d="M45.8 37.65c-4.13.43-8.17-5.88-9.04-14.13s1.76-15.27 5.89-15.71c4.12-.43 8.16 5.88 9.03 14.13s-1.76 15.27-5.88 15.71" style="fill:#000"/><path d="M73.67 39.73c4.45-5.49 2.35-25.38 2.35-25.38s-35.86-6.27-45.8-5.22c-9.95 1.04-24.34 7.59-24.34 7.59s1.57 14.92 7.6 24.34" style="fill:none;stroke:#000;stroke-width:5"/>
</g>
<g transform="translate(218.84448468063306 285.57536672288046) rotate(-3 41.155515319366955 24.42463327711953) scale(-1 1) translate(-82.31103063873391 0)">
<path d="M73.67 39.73c3.92-10.47 2.35-25.38 2.35-25.38s-35.86-6.27-45.8-5.22c-9.95 1.04-24.34 7.59-24.34 7.59s-1.44 10.21 7.6 24.34z" style="fill:#fff"/><path d="M45.8 37.65c-4.13.43-8.17-5.88-9.04-14.13s1.76-15.27 5.89-15.71c4.12-.43 8.16 5.88 9.03 14.13s-1.76 15.27-5.88 15.71" style="fill:#000"/><path d="M73.67 39.73c4.45-5.49 2.35-25.38 2.35-25.38s-35.86-6.27-45.8-5.22c-9.95 1.04-24.34 7.59-24.34 7.59s1.57 14.92 7.6 24.34" style="fill:none;stroke:#000;stroke-width:5"/>
</g>
<g transform="translate(97.20374849998123 252.4995916989505) rotate(19 42.79625150001876 17.50040830104949)">
<path fill="#1c1008" stroke="#000" d="M12.93 15.05c-1.51.67-4.18 2.29-5.94 3.61s-3.38 2.8-3.61 3.29c-.22.49-.16.96.13 1.04.3.08 4.44-.28 9.21-.79 4.77-.52 11.58-1.06 15.13-1.21s11.63-.28 17.94-.29c6.32-.01 14.56.12 18.32.29 3.75.17 8.39.25 10.29.19 1.91-.05 4.56-.27 5.89-.47 2.09-.32 2.33-.53 1.84-1.57-.42-.91-1.74-1.55-5.18-2.53-2.54-.73-7.86-1.72-11.83-2.22-3.97-.49-10.99-1.19-15.6-1.55-4.62-.36-11.91-.72-16.22-.81-6.13-.11-8.91.06-12.73.83-2.69.53-6.13 1.52-7.64 2.19Z"/>
</g>
<g transform="translate(217.20374849998123 252.4995916989505) rotate(-19 42.79625150001876 17.50040830104949) scale(-1 1) translate(-85.59250300003752 0)">
<path fill="#1c1008" stroke="#000" d="M12.93 15.05c-1.51.67-4.18 2.29-5.94 3.61s-3.38 2.8-3.61 3.29c-.22.49-.16.96.13 1.04.3.08 4.44-.28 9.21-.79 4.77-.52 11.58-1.06 15.13-1.21s11.63-.28 17.94-.29c6.32-.01 14.56.12 18.32.29 3.75.17 8.39.25 10.29.19 1.91-.05 4.56-.27 5.89-.47 2.09-.32 2.33-.53 1.84-1.57-.42-.91-1.74-1.55-5.18-2.53-2.54-.73-7.86-1.72-11.83-2.22-3.97-.49-10.99-1.19-15.6-1.55-4.62-.36-11.91-.72-16.22-.81-6.13-.11-8.91.06-12.73.83-2.69.53-6.13 1.52-7.64 2.19Z"/>
</g>
<g transform="translate(0 51.49291359400189) scale(-1 1) translate(-400 0)">
<path d="M167 382s10-8.86 33-9c16.67-.1 34 9 34 9s-11.33 21.31-34 22c-22.32.68-33-22-33-22" style="opacity:.05;mix-blend-mode:multiply;fill:#501414"/><path d="M176 384s14-4 24-4 24 4 24 4-8 8-24 8-24-8-24-8" style="fill:#fff"/><path d="M176 384s14-4 24-4 24 4 24 4-8 8-24 8-24-8-24-8Z" style="fill:none;stroke:#000;stroke-width:4"/><path d="M180 376c16-4 24-4 40 0" style="fill:none;stroke:#000;stroke-width:1"/><path d="M166 382s5 3.19 10 2m58-2s-5 3.19-10 2" style="fill:none;stroke:#000;stroke-width:4"/><path d="M185.71 400.69c15.15 4.14 16.29 3.86 29.15-.57" style="fill:none;stroke:#000;stroke-width:1"/>
</g>
<g transform="translate(144.4115 264.9735) scale(1.21 1.21) translate(-9.647590909090907 -18.227739669421485)">
<path fill="#aa816f" stroke="#000" stroke-width="5" d="M40.3 99.804c2.56 5.426 7.286 9.34 15.292 10.445 8.532-1.475 12.386-4.548 15.285-10.378"/>
</g>
<g transform="scale(1 1) translate(0 0)">
<path fill="#1c1008" stroke="#000" stroke-width="4" d="M200 95c120 0 140 90 140 115-20 0-20 5-25 0s-15-15-50-15c-15 0-40 5-65 5s-50-5-65-5c-35 0-45 10-50 15s-5 0-25 0c0-25 25-115 140-115Z"/>
</g>
</svg>