<svg xmlns="http://www.w3.org/2000/svg" version="1.2" baseProfile="tiny" width="100%" height="100%" viewBox="0 0 400 600" preserveAspectRatio="xMinYMin meet">
<g transform="scale(0.97 1) translate(6.185567010309284 0)">
<path fill="#ddb7a0" stroke="#000" stroke-width="6" d="M10 600s-10-70 50-70c10 0 0-10 60-20 0 0 50-210 80-210s80 210 80 210c60 10 50 20 60 20 60 0 50 70 50 70"/><path d="M71 545s46.9-3 82.1 10M329 545s-46.9-3-82.1 10m77.1-18s5.5-7.5 22-7m-271 7s-5.5-7.5-22-7"/>
</g>
<g transform="scale(0.97 1) translate(6.185567010309284 0)">
<g stroke="#000"><path fill="#89bfd3" stroke-width="6" d="M120 505c0 35 50 25 80 45 30-20 80-10 80-45 30-25 90-15 100-5s10.07 20.41 15 50c5 30 5 20 5 60H0c0-40 0-29.59 5-59.59 4.93-29.59 5-39.38 15-50.41 9.5-10.48 70-20 100 5Z" class="footballPrimary"/><path fill="#7a1319" stroke-width="2" d="M120 505c0 35 50 25 80 45 30-20 80-10 80-45l15-10c5 60-55 45-95 75-40-30-100-15-95-75z" class="collarSecondary"/><g stroke-width="2"><path fill="#7a1319" d="m55 490-25 5-10 5v80h35zm290 0 25 5 10 5v80h-35z" class="vStripes1"/><path fill="#07364f" d="m30 495 15-3.14V580H30zm340 0-15-3.14V580h15z" class="vStripes2"/></g><path fill="none" stroke-width="6" d="M120 505c0 35 50 25 80 45 30-20 80-10 80-45 30-25 90-15 100-5s10.07 20.41 15 50c5 30 5 20 5 60H0c0-40 0-30 5-60 4.93-29.59 5-38.97 15-50 9.5-10.48 70-20 100 5Z" class="footballStroke"/><path fill="none" stroke-width="2" d="M19.5 570s72.5-2.11 81.5-20m280 20s-71-2.11-80-20" class="shp3"/></g>
</g>
<g transform="translate(33.53553390593274 291.01362954285077) scale(1.48 1.48) translate(-6.961448462940734 -11.022606634751101) translate(7.921067811865475 -2.979591836734694)">
<path fill="#ddb7a0" stroke="#000" stroke-width="6" d="M40 14S10-1 5 4s0 30 5 40-5 25 30 20z"/>
</g>
<g transform="translate(323.53553390593277 291.01362954285077) scale(-1.48 1.48) translate(-35.96748372519379 -11.022606634751101) translate(7.921067811865475 -2.979591836734694)">
<path fill="#ddb7a0" stroke="#000" stroke-width="6" d="M40 14S10-1 5 4s0 30 5 40-5 25 30 20z"/>
</g>
<g transform="scale(0.93 1) translate(15.053763440860203 0)">
<path fill="#ddb7a0" stroke="#000" stroke-width="6" d="M200 100c100 0 150 60 150 200 0 50-.51 71.54-10 100-10 30-80 70-90 80s-20 20-50 20-40-10-50-20-80-50-90-80c-9.49-28.46-10-50-10-100 0-140 50-200 150-200Z" class="head"/><path fill="rgba(0,0,0,0.11)" d="M200 410c30 0 50 10 50 10 30 0 90-15 90-120h10c0 50-.51 71.54-10 100-10 30-80 70-90 80s-20 20-50 20-40-10-50-20-80-50-90-80c-9.49-28.46-10-50-10-100h10c0 105 60 120 90 120 0 0 20-10 50-10" class="faceShave"/><path fill="rgba(0,0,0,0.11)" d="M60 300H50c0-140 50-200 150-200s150 60 150 200h-10v-10c0-5-10-20-15-25s-5-55-15-65c-40-40-60 0-110 0s-70-40-110 0c-10 10-10 60-15 65s-15 20-15 25z" class="headShave"/>
</g>
<g>
<path fill="none" stroke="#000" stroke-width="2" d="M235 285s10-10 45-10m-115 10s-10-10-45-10" class="eyeline6"/>
</g>
<g transform="translate(102.24084342899988 286.1384650016032) rotate(-5 37.759156571000126 23.861534998396785)">
<path d="M5 20s12.08-8.23 35-8.23S70 30 70 30s-7.15 9.92-30.07 9.92S5 20 5 20" style="fill:#f5f3ee"/><path d="M5 20c-2.87-2.87 12.2-9.55 35-11.9C70 5 72.87 27.13 70 30s-7.08-13.73-30-13.73S7.87 22.87 5 20" class="black"/><path d="M39.93 33.04c-6.34 0-11.46-5.12-11.46-11.46 0-6.33 5.12-11.46 11.46-11.46s11.46 5.13 11.46 11.46c0 6.34-5.12 11.46-11.46 11.46" class="black"/>
</g>
<g transform="translate(222.24084342899988 286.1384650016032) rotate(5 37.759156571000126 23.861534998396785) scale(-1 1) translate(-75.51831314200025 0)">
<path d="M5 20s12.08-8.23 35-8.23S70 30 70 30s-7.15 9.92-30.07 9.92S5 20 5 20" style="fill:#f5f3ee"/><path d="M5 20c-2.87-2.87 12.2-9.55 35-11.9C70 5 72.87 27.13 70 30s-7.08-13.73-30-13.73S7.87 22.87 5 20" class="black"/><path d="M39.93 33.04c-6.34 0-11.46-5.12-11.46-11.46 0-6.33 5.12-11.46 11.46-11.46s11.46 5.13 11.46 11.46c0 6.34-5.12 11.46-11.46 11.46" class="black"/>
</g>
<g transform="translate(101.1730837983227 257.1537046085226) rotate(-6 38.82691620167731 12.846295391477362)">
<path fill="#B55239" stroke="#000" d="M76.4 16.1c2.85-2.24-.05-6.36-.05-6.36s-16.86.54-26.27-.02c-9.49-.6-35.33-.86-35.33-.86s-2.2 6.65.57 7.62c2.68.61 24.54-1.45 34.09-.89 9.6.59 24.04 2.16 26.99.51Z"/><path d="M0 10h5v5H0z" style="fill:none"/>
</g>
<g transform="translate(221.1730837983227 257.1537046085226) rotate(6 38.82691620167731 12.846295391477362) scale(-1 1) translate(-77.65383240335461 0)">
<path fill="#B55239" stroke="#000" d="M76.4 16.1c2.85-2.24-.05-6.36-.05-6.36s-16.86.54-26.27-.02c-9.49-.6-35.33-.86-35.33-.86s-2.2 6.65.57 7.62c2.68.61 24.54-1.45 34.09-.89 9.6.59 24.04 2.16 26.99.51Z"/><path d="M0 10h5v5H0z" style="fill:none"/>
</g>
<g transform="translate(0 51.52119068455602) scale(-1 1) translate(-400 0)">
<path d="M168 384s9-13.77 32-14.03c17.4-.2 32 13.2 32 13.2s-4.29 23.24-32 23.81c-27.29.56-32-22.98-32-22.98" style="opacity:.05;mix-blend-mode:multiply;fill:#501414"/><path d="M168 384c12-4 48-4 64 0-20 4-10 4-32 4-20 0-16 0-32-4" style="fill:#fff"/><path d="M168 384c12-4 48-4 64 0-20 4-10 4-32 4-20 0-16 0-32-4Zm13.71 18.12c14.52 5.66 24.72 5.71 37.72-.71m.86-26.53c-14.52-5.66-27.29-6.34-40.29.09" style="fill:none;stroke:#000;stroke-width:3"/>
</g>
<g transform="translate(-4.045739644970411 -18.272994788737606) scale(0.79 0.79) translate(54.240006741068065 103.21180874130997)">
<path d="M180.17 380.08c1.6.3 3.5.1 4.8.9 4.7 2.8 9.2 6 13.8 9a10.23 10.23 0 0 0 11.7 0c3.9-2.5 7.8-5.1 11.7-7.6 1.6-1.1 3.3-2.2 5.7-3.8 0 2.1.4 3.4-.1 4.3-2.8 6.4-17.9 16.1-24.8 15-4-.6-8-2.8-11.3-5.3-4.3-3.3-7.8-7.5-11.6-11.4a4.5 4.5 0 0 0 .1-1.1"/>
</g>
<g transform="scale(-1 1) translate(-400 0) scale(0.93 1) translate(15.053763440860203 0)">
<defs><linearGradient id="a" x1="200" x2="200" y1="100" y2="310" gradientUnits="userSpaceOnUse"><stop offset="0" stop-color="rgba(0,0,0,.25)"/><stop offset="1" stop-color="rgba(0,0,0,0)"/></linearGradient></defs><path d="M60 310H50v-10c0-140 50-200 150-200s150 60 150 200v10h-10v-20c0-5-10-20-15-25s-5-55-15-65c-40-40-60 0-110 0s-70-40-110 0c-10 10-10 60-15 65s-15 20-15 25z" style="fill:url(#a);stroke:none"/>
</g>
</svg>