<svg xmlns="http://www.w3.org/2000/svg" version="1.2" baseProfile="tiny" width="100%" height="100%" viewBox="0 0 400 600" preserveAspectRatio="xMinYMin meet">
<g transform="scale(0.97 1) translate(6.185567010309284 0)">
<path fill="#aa816f" stroke="#000" stroke-width="6" d="M10 600s0-50 60-70 70-50 70-50l60-180 60 180s10 30 70 50 60 70 60 70" class="body"/>
</g>
<g transform="scale(0.97 1) translate(6.185567010309284 0)">
<g stroke="#000"><path fill="#89bfd3" stroke-width="6" d="M120 505c0 35 50 25 80 45 30-20 80-10 80-45 30-25 90-15 100-5s10.07 20.41 15 50c5 30 5 20 5 60H0c0-40 0-29.59 5-59.59 4.93-29.59 5-39.38 15-50.41 9.5-10.48 70-20 100 5Z" class="footballPrimary"/><path fill="#7a1319" stroke-width="2" d="M120 505c0 35 50 25 80 45 30-20 80-10 80-45l15-10c5 60-55 45-95 75-40-30-100-15-95-75z" class="collarSecondary"/><path fill="none" stroke-width="6" d="M120 505c0 35 50 25 80 45 30-20 80-10 80-45 30-25 90-15 100-5s10.07 20.41 15 50c5 30 5 20 5 60H0c0-40 0-30 5-60 4.93-29.59 5-38.97 15-50 9.5-10.48 70-20 100 5Z" class="footballStroke"/><path fill="none" stroke-width="2" d="M19.5 570s72.5-2.11 81.5-20m280 20s-71-2.11-80-20" class="shp3"/></g>
</g>
<g transform="translate(32 293.3) scale(1.26 1.26) translate(-4.746031746031746 -6.541269841269842) translate(25.21 -3)">
<path fill="#aa816f" stroke="#000" stroke-width="6" d="M43 8S3-12 3 28c0 45 40 30 40 30z"/>
</g>
<g transform="translate(322 293.3) scale(-1.26 1.26) translate(-41.25396825396825 -6.541269841269842) translate(25.21 -3)">
<path fill="#aa816f" stroke="#000" stroke-width="6" d="M43 8S3-12 3 28c0 45 40 30 40 30z"/>
</g>
<g transform="scale(0.8180000000000001 1) translate(44.498777506112454 0)">
<path fill="#aa816f" stroke="#000" stroke-width="6" d="M200 100c100 0 150 60 150 200 0 0-20 105-20 135s-60 45-80 55-10 15-50 5c-40 10-30 5-50-5s-80-25-80-55-20-135-20-135c0-140 50-200 150-200Z" class="head"/><path fill="rgba(0,0,0,0)" d="M60 300H50c0-140 50-200 150-200s150 60 150 200h-10v-10c0-5-10-20-15-25s-5-55-15-65c-40-40-60 0-110 0s-70-40-110 0c-10 10-10 60-15 65s-15 20-15 25z" class="headShave"/><path fill="rgba(0,0,0,0)" d="M200 410c30 0 50 10 50 10 30 0 90-15 90-120h10s-20 105-20 135-60 45-80 55-10 15-50 5c-40 10-30 5-50-5s-80-25-80-55-20-135-20-135h10c0 105 60 120 90 120 0 0 20-10 50-10" class="faceShave"/>
</g>
<g transform="translate(142.67 417.5) scale(0.39 0.39) translate(11.464871794871796 27.37179487179487)">
<path fill="none" stroke="#000" stroke-width="2" d="M12.33 4.32s-10 3.29-10 13.18 10 13.18 10 13.18" class="shp0"/>
</g>
<g transform="translate(242.67 417.5) scale(-0.39 0.39) translate(-26.124871794871797 27.37179487179487)">
<path fill="none" stroke="#000" stroke-width="2" d="M12.33 4.32s-10 3.29-10 13.18 10 13.18 10 13.18" class="shp0"/>
</g>
<g transform="translate(109.23478204917245 289.9689533323849) rotate(-9 30.765217950827548 20.031046667615087)">
<path d="M55.37 34.72S58.4 2.3 28.53 5.07C-1.35 7.83 7.21 35.16 7.21 35.16" style="fill:#fff;stroke:#000;stroke-width:5"/><path d="M30.74 28.97c-3.31.3-6.22-2.12-6.53-5.43a5.985 5.985 0 0 1 5.42-6.52 5.987 5.987 0 0 1 6.53 5.42c.3 3.3-2.12 6.22-5.42 6.53Z" style="fill:#000;stroke:#000;stroke-width:5"/>
</g>
<g transform="translate(229.23478204917245 289.9689533323849) rotate(9 30.765217950827548 20.031046667615087) scale(-1 1) translate(-61.530435901655096 0)">
<path d="M55.37 34.72S58.4 2.3 28.53 5.07C-1.35 7.83 7.21 35.16 7.21 35.16" style="fill:#fff;stroke:#000;stroke-width:5"/><path d="M30.74 28.97c-3.31.3-6.22-2.12-6.53-5.43a5.985 5.985 0 0 1 5.42-6.52 5.987 5.987 0 0 1 6.53 5.42c.3 3.3-2.12 6.22-5.42 6.53Z" style="fill:#000;stroke:#000;stroke-width:5"/>
</g>
<g transform="translate(105.43111111111111 259) rotate(-7 34.5688888888889 11)">
<path fill="#1c1008" stroke="#000" d="M66 13c4-4 0-8 0-8H30C14 5 2 1 2 1s-4 0 8 12l-4 8h32c20 0 24-4 28-8Z"/>
</g>
<g transform="translate(225.4311111111111 259) rotate(7 34.5688888888889 11) scale(-1 1) translate(-69.1377777777778 0)">
<path fill="#1c1008" stroke="#000" d="M66 13c4-4 0-8 0-8H30C14 5 2 1 2 1s-4 0 8 12l-4 8h32c20 0 24-4 28-8Z"/>
</g>
<g transform="translate(168 428.3888888888889)">
<path d="M32 3c10 0 15 0 25 5 5 5 5 5 0 10s-15 0-25 0-20 5-25 0-5-5 0-10c10-5 15-5 25-5Z" style="fill:#fff;stroke:#000;stroke-width:5"/>
</g>
<g transform="translate(0 -20) scale(1.1 1.1) translate(-18.181818181818198 -35.45454545454548)">
<path fill="#aa816f" stroke="#000" stroke-width="5" d="m175 380 25 20 25-20" class="nose"/>
</g>
<g transform="scale(-1 1) translate(-399.38737718378644 0) scale(0.8180000000000001 1) translate(44.43062509012782 0)">
<path fill="#1c1008" stroke="#000" stroke-width="4" d="M60 310H50s-.19-5 0-10C60 40-10 145 200 80c34.77-10.76 43.79-21.21 65 0 5 5 5 45 5 45s3.04-26.26 10-25c110 20 60-20 70 200 .23 4.99 0 10 0 10h-10v-20c0-5-10-20-15-25s-5-65-15-75-60 10-110 10-100-20-110-10-10 70-15 75-15 20-15 25z"/>
</g>
</svg>