<svg xmlns="http://www.w3.org/2000/svg" version="1.2" baseProfile="tiny" width="100%" height="100%" viewBox="0 0 400 600" preserveAspectRatio="xMinYMin meet">
<g transform="scale(1.05 1) translate(-9.523809523809533 0)">
<path fill="#5c3937" stroke="#000" stroke-width="6" d="M10 600s-10-70 50-70c10 0 0-10 60-20 0 0 50-210 80-210s80 210 80 210c60 10 50 20 60 20 60 0 50 70 50 70"/><path d="M71 545s46.9-3 82.1 10M329 545s-46.9-3-82.1 10m77.1-18s5.5-7.5 22-7m-271 7s-5.5-7.5-22-7"/>
</g>
<g transform="scale(1.05 1) translate(-9.523809523809533 0)">
<path fill="#89bfd3" stroke="#000" stroke-width="6" d="M80 610s10-30 10-90l20-10s10 80 90 80 90-80 90-80l20 10c0 60 10 90 10 90z"/>
</g>
<g transform="translate(32 293.3) scale(0.52 0.52) translate(21.23076923076923 29.261538461538464) translate(21.490000000000002 -3)">
<path fill="#5c3937" stroke="#000" stroke-width="6" d="M43 8S3-12 3 28c0 45 40 30 40 30z"/>
</g>
<g transform="translate(322 293.3) scale(-0.52 0.52) translate(-67.23076923076923 29.261538461538464) translate(21.490000000000002 -3)">
<path fill="#5c3937" stroke="#000" stroke-width="6" d="M43 8S3-12 3 28c0 45 40 30 40 30z"/>
</g>
<g transform="scale(0.8420000000000001 1) translate(37.5296912114014 0)">
<path fill="#5c3937" stroke="#000" stroke-width="6" d="M200 100c100 0 150 60 150 200 0 20-20 130-20 130l-80 50c-20 20-40 20-50 20s-30 0-50-20l-80-50S50 320 50 300c0-140 50-200 150-200Z"/><path fill="rgba(0,0,0,0)" d="M200 410c30 0 50 10 50 10 30 0 90-15 90-120h10c0 20-20 130-20 130l-80 50c-20 20-40 20-50 20s-30 0-50-20l-80-50S50 320 50 300h10c0 105 60 120 90 120 0 0 20-10 50-10" class="faceShave"/><path fill="rgba(0,0,0,0)" d="M60 300H50c0-140 50-200 150-200s150 60 150 200h-10v-10c0-5-10-20-15-25s-5-55-15-65c-40-40-60 0-110 0s-70-40-110 0c-10 10-10 60-15 65s-15 20-15 25z" class="headShave"/>
</g>
<g>
<path fill="none" stroke="#000" stroke-width="2" d="M300 320s5 5 10 5m-13.25-2.47S300 335 305 335m-205-15s-5 5-10 5m13.25-2.47S100 335 95 335" class="eyeline2"/>
</g>
<g transform="translate(142.67 417.5) scale(0.33 0.33) translate(14.88212121212121 35.530303030303024)">
<path fill="none" stroke="#000" stroke-width="2" d="M12.33 4.32s-10 3.29-10 13.18 10 13.18 10 13.18" class="shp0"/>
</g>
<g transform="translate(242.67 417.5) scale(-0.33 0.33) translate(-29.542121212121213 35.530303030303024)">
<path fill="none" stroke="#000" stroke-width="2" d="M12.33 4.32s-10 3.29-10 13.18 10 13.18 10 13.18" class="shp0"/>
</g>
<g>
<path fill="none" stroke="#000" stroke-width="2" d="M200 270v-15l5-5-5 5-5-5"/>
</g>
<g transform="scale(0.8420000000000001 1) translate(37.5296912114014 0)">
<path fill="#272421" stroke="#000" d="M200 460c10 0 10 20 20 20s20-20 20-20 10 0 10 5c0 40-10 50-50 50s-50-10-50-50c0-5 10-5 10-5s10 20 20 20 10-20 20-20Z"/>
</g>
<g transform="translate(109.23478204917245 289.9689533323849) rotate(13 30.765217950827548 20.031046667615087)">
<path d="M55.37 34.72S58.4 2.3 28.53 5.07C-1.35 7.83 7.21 35.16 7.21 35.16" style="fill:#fff;stroke:#000;stroke-width:5"/><path d="M30.74 28.97c-3.31.3-6.22-2.12-6.53-5.43a5.985 5.985 0 0 1 5.42-6.52 5.987 5.987 0 0 1 6.53 5.42c.3 3.3-2.12 6.22-5.42 6.53Z" style="fill:#000;stroke:#000;stroke-width:5"/>
</g>
<g transform="translate(229.23478204917245 289.9689533323849) rotate(-13 30.765217950827548 20.031046667615087) scale(-1 1) translate(-61.530435901655096 0)">
<path d="M55.37 34.72S58.4 2.3 28.53 5.07C-1.35 7.83 7.21 35.16 7.21 35.16" style="fill:#fff;stroke:#000;stroke-width:5"/><path d="M30.74 28.97c-3.31.3-6.22-2.12-6.53-5.43a5.985 5.985 0 0 1 5.42-6.52 5.987 5.987 0 0 1 6.53 5.42c.3 3.3-2.12 6.22-5.42 6.53Z" style="fill:#000;stroke:#000;stroke-width:5"/>
</g>
<g transform="translate(101.2222222222222 258.59183673469386) rotate(5 38.77777777777779 11.408163265306122)">
<path fill="#272421" stroke="#000" d="M73 21c8-8 0-16 0-16S45 1 37 1C27 1 1 17 1 17s20-4 40-4c12 0 28 12 32 8Z"/>
</g>
<g transform="translate(221.2222222222222 258.59183673469386) rotate(-5 38.77777777777779 11.408163265306122) scale(-1 1) translate(-77.55555555555559 0)">
<path fill="#272421" stroke="#000" d="M73 21c8-8 0-16 0-16S45 1 37 1C27 1 1 17 1 17s20-4 40-4c12 0 28 12 32 8Z"/>
</g>
<g transform="translate(0 51.52119068455602) scale(-1 1) translate(-400 0)">
<path d="M168 384s9-13.77 32-14.03c17.4-.2 32 13.2 32 13.2s-4.29 23.24-32 23.81c-27.29.56-32-22.98-32-22.98" style="opacity:.05;mix-blend-mode:multiply;fill:#501414"/><path d="M168 384c12-4 48-4 64 0-20 4-10 4-32 4-20 0-16 0-32-4" style="fill:#fff"/><path d="M168 384c12-4 48-4 64 0-20 4-10 4-32 4-20 0-16 0-32-4Zm13.71 18.12c14.52 5.66 24.72 5.71 37.72-.71m.86-26.53c-14.52-5.66-27.29-6.34-40.29.09" style="fill:none;stroke:#000;stroke-width:3"/>
</g>
<g transform="translate(0 77.5) scale(1.05 1.05) translate(-9.523809523809533 -13.92857142857144)">
<path fill="#5c3937" stroke="#000" stroke-width="5" d="M190 300c-5-15 5-15 10-15s15 0 10 15" class="nose"/>
</g>
<g transform="scale(-1 1) translate(-399.4656607916533 0) scale(0.8420000000000001 1) translate(37.479557247672915 0)">
<path fill="#272421" stroke="#000" stroke-width="5" d="M60.24 310h-9.98s-.07-4.66-.15-9.25c-.13-7.33-.35-14.71-.63-22-.27-7.13-.61-14.16-.97-20.97-.36-6.66-.75-13.11-1.15-19.21-.4-5.99-.82-11.65-1.23-16.87-.82-10.14-1.64-18.6-2.28-24.6-.66-5.8-1.11-9.4-1.14-10.19-.28-6.19 4.6-16.43 4.6-16.43l10.34-1.07 6.77-19.05 14.5-3.03 6.87-18.83 15.24-2.24 7.59-17.19 14.65-.88 11.11-15.77L145 94.35l10.35-10.28 9.9 3.53 11.34-8.05 7.93 5.52 10.19-6.93 8.77 6.13 9.09-6.13 9.76 6.92 8.13-5.51 10.79 8.02 9.87-3.53 9.66 10.2 10.42-1.95 10.35 17.32 8.88-3.62 11.75 19.55 11.52-.07 9.1 20.54 13.83 2.61 6.05 18.75 9.89.68s4.51 10.05 4.18 16.3c-.04.8-.5 4.45-1.17 10.35-.64 6.13-1.45 14.79-2.26 25.2-.4 5.36-.79 11.19-1.17 17.36-.37 6.28-.73 12.92-1.05 19.77-.32 6.98-.61 14.18-.84 21.45-.23 7.4-.39 14.87-.48 22.25l-.1 9.27h-9.98s.25-12.6.34-16.86c.11-4.27-9.33-15.45-14.07-18.99-2.37-1.82-3.08-14.23-4.38-27.82-1.35-14.27-3.37-29.86-8.11-35.85-9.64-12.96-18.21-20.72-26.42-24.83-8.27-4.12-16.12-3.99-24.39-1.96-8.35 2.37-17.13 6.82-27.2 10.64-10.13 4.15-21.53 7.6-35 7.52-13.21.16-24.36-3.22-34.3-7.31-9.9-3.76-18.58-8.15-26.95-10.45-8.34-1.94-16.37-1.96-24.99 2.28-8.55 4.24-17.56 12.12-27.68 25.16-4.92 6.01-7.23 21.43-8.74 35.49-1.35 13.37-2.03 25.59-4.36 27.4-4.68 3.5-13.9 14.55-13.75 18.78.14 4.23.54 16.8.54 16.8Z"/>
</g>
</svg>