<svg xmlns="http://www.w3.org/2000/svg" version="1.2" baseProfile="tiny" width="100%" height="100%" viewBox="0 0 400 600" preserveAspectRatio="xMinYMin meet">
<g transform="scale(0.95 1) translate(10.526315789473694 0)">
<path fill="#f0c5a3" stroke="#000" stroke-width="6" d="M10 600s-10-70 50-70c10 0 0-10 60-20 0 0 50-210 80-210s80 210 80 210c60 10 50 20 60 20 60 0 50 70 50 70"/><path d="M71 545s46.9-3 82.1 10M329 545s-46.9-3-82.1 10m77.1-18s5.5-7.5 22-7m-271 7s-5.5-7.5-22-7"/>
</g>
<g transform="scale(0.95 1) translate(10.526315789473694 0)">
<path d="M120 505c0 35 50 25 80 45 30-20 80-10 80-45 30-25 90-15 100-5s10.07 20.41 15 50c5 30 5 20 5 60H0c0-40 0-29.59 5-59.59 4.93-29.59 5-39.38 15-50.41 9.5-10.48 70-20 100 5Z" style="fill:#fff;fill-rule:nonzero;stroke:#000;stroke-width:6px"/><path d="M388.812 518.932c-.419-3.338 2.794 10.698 6.188 31.068 5 30 5 20 5 60h-57.163z" style="fill:#89bfd3" transform="matrix(-1 0 0 1 400.837 0)"/><path d="M388.812 518.932c-.419-3.338 2.794 10.698 6.188 31.068 5 30 5 20 5 60h-57.163z" style="fill:#89bfd3"/><path d="M28.441 497.904 57.812 610.86l-46.409-91.928c1.742-13.878 7.068-21.504 17.038-21.028" style="fill:#7a1319;stroke:#000;stroke-width:1px;stroke-linecap:round;stroke-linejoin:round;stroke-miterlimit:1.5"/><path d="M28.441 497.904 57.812 610.86l-46.409-91.928c1.742-13.878 7.068-21.504 17.038-21.028" style="fill:#7a1319;stroke:#000;stroke-width:1px;stroke-linecap:round;stroke-linejoin:round;stroke-miterlimit:1.5" transform="matrix(-1 0 0 1 400.215 0)"/><path d="M120 505c0 35 50 25 80 45 30-20 80-10 80-45l15-10c5 60-55 45-95 75-40-30-100-15-95-75z" style="fill:#89bfd3;fill-rule:nonzero;stroke:#000;stroke-width:2px"/><path d="M120 505c0 35 50 25 80 45 30-20 80-10 80-45 30-25 90-15 100-5s10.07 20.41 15 50c5 30 5 20 5 60H0c0-40 0-30 5-60 4.93-29.59 5-38.97 15-50 9.5-10.48 70-20 100 5Z" style="fill:none;fill-rule:nonzero;stroke:#000;stroke-width:6px"/><path d="M19.5 570s72.5-2.11 81.5-20m280 20s-71-2.11-80-20" style="fill:none;fill-rule:nonzero;stroke:#000;stroke-width:2px"/>
</g>
<g transform="translate(33.53553390593274 291.01362954285077) scale(1.04 1.04) translate(-0.8255563882333569 -1.3071680945057407) translate(9.471067811865476 -2.979591836734694)">
<path fill="#f0c5a3" stroke="#000" stroke-width="6" d="M40 14S10-1 5 4s0 30 5 40-5 25 30 20z"/>
</g>
<g transform="translate(323.53553390593277 291.01362954285077) scale(-1.04 1.04) translate(-42.103375799901166 -1.3071680945057407) translate(9.471067811865476 -2.979591836734694)">
<path fill="#f0c5a3" stroke="#000" stroke-width="6" d="M40 14S10-1 5 4s0 30 5 40-5 25 30 20z"/>
</g>
<g transform="scale(0.92 1) translate(17.39130434782608 0)">
<path fill="#f0c5a3" stroke="#000" stroke-width="6" d="M200 100c100 0 150 60 150 200 0 0-20 105-20 135s-110 65-130 65-130-35-130-65-20-135-20-135c0-140 50-200 150-200Z" class="head"/><path fill="rgba(0,0,0,0)" d="M60 300H50c0-140 50-200 150-200s150 60 150 200h-10v-10c0-5-10-20-15-25s-5-55-15-65c-40-40-60 0-110 0s-70-40-110 0c-10 10-10 60-15 65s-15 20-15 25z" class="headShave"/><path fill="rgba(0,0,0,0)" d="M200 410c30 0 50 10 50 10 30 0 90-15 90-120h10s-20 105-20 135-110 65-130 65-130-35-130-65-20-135-20-135h10c0 105 60 120 90 120 0 0 20-10 50-10" class="faceShave"/>
</g>
<g>
<path fill="none" stroke="#000" stroke-width="2" d="M240 355s20-10 45 0m-125 0s-20-10-45 0" class="eyeline5"/>
</g>
<g transform="translate(140.5 420.5) scale(1.16 1.16) translate(-1.3103448275862062 -1.9999999999999993)">
<path fill="none" stroke="#000" stroke-width="2" d="M17 2 2 12l5 15" class="shp0"/>
</g>
<g transform="translate(240.5 420.5) scale(-1.16 1.16) translate(-17.689655172413797 -1.9999999999999993)">
<path fill="none" stroke="#000" stroke-width="2" d="M17 2 2 12l5 15" class="shp0"/>
</g>
<g transform="scale(0.92 1) translate(17.39130434782608 0)">
<path fill="#272421" fill-rule="evenodd" stroke="#000" d="M200 410c55 0 55 15 55 30 70 0 85-35 85-140h10c0 130-13.03 137.37-30 160-30 40-110 120-120 120s-90-80-120-120c-16.97-22.63-30-30-30-160h10c0 105 15 140 85 140 0-15 0-30 55-30Zm-45 30c0 20 5 30 25 30 10 0 10-10 20-10s10 10 20 10c20 0 25-10 25-30s-15-20-45-20-45 0-45 20Z" class="shp0"/>
</g>
<g transform="translate(104.75510204081633 287) rotate(-2 35.24489795918368 23)">
<path d="M67 35c0-4 6-32-24-32S3 15 3 23s12 20 24 20 40-4 40-8Z" style="fill:#fff;stroke:#000;stroke-width:5"/><path d="M39 29c-3.32 0-6-2.68-6-6s2.68-6 6-6 6 2.68 6 6-2.68 6-6 6Z" style="fill:#000;stroke:#000;stroke-width:5"/>
</g>
<g transform="translate(224.75510204081633 287) rotate(2 35.24489795918368 23) scale(-1 1) translate(-70.48979591836736 0)">
<path d="M67 35c0-4 6-32-24-32S3 15 3 23s12 20 24 20 40-4 40-8Z" style="fill:#fff;stroke:#000;stroke-width:5"/><path d="M39 29c-3.32 0-6-2.68-6-6s2.68-6 6-6 6 2.68 6 6-2.68 6-6 6Z" style="fill:#000;stroke:#000;stroke-width:5"/>
</g>
<g transform="translate(100.5 257.50129968019115) rotate(0 39.5 12.498700319808862)">
<path fill="#272421" stroke="#000" d="M79 12.9c0-6.11-7.5-6.11-7.5-6.11-18.75-3.05-41.65 3.28-52.5 9.16C49 12.9 56.5 19 75.25 19c0 0 3.75 0 3.75-6.1Z"/><path d="M0 10h5v5H0z" style="fill:none"/>
</g>
<g transform="translate(220.5 257.50129968019115) rotate(0 39.5 12.498700319808862) scale(-1 1) translate(-79 0)">
<path fill="#272421" stroke="#000" d="M79 12.9c0-6.11-7.5-6.11-7.5-6.11-18.75-3.05-41.65 3.28-52.5 9.16C49 12.9 56.5 19 75.25 19c0 0 3.75 0 3.75-6.1Z"/><path d="M0 10h5v5H0z" style="fill:none"/>
</g>
<g transform="translate(-2.842170943040401e-14 51.52119068455602) scale(-1 1) translate(-400.00000000000006 0)">
<path d="M168 384s9-13.77 32-14.03c17.4-.2 32 13.2 32 13.2s-4.29 23.24-32 23.81c-27.29.56-32-22.98-32-22.98" style="opacity:.05;mix-blend-mode:multiply;fill:#501414"/><path d="M181.71 402.12c14.52 5.66 24.72 5.71 37.72-.71m.86-26.53c-14.52-5.66-27.29-6.34-40.29.09m-4 9.03c8-2.17 16 0 24 0s16-2.17 24 0m12-4s0 4-12 4m-60-4s0 4 12 4" style="fill:none;stroke:#000;stroke-width:4"/>
</g>
<g transform="translate(0 77.5) scale(-0.68 0.68) translate(-494.1176470588236 137.64705882352936)">
<path fill="#f0c5a3" stroke="#000" stroke-width="5" d="M190 300c-5-15 5-15 10-15s15 0 10 15" class="nose"/>
</g>
<g transform="scale(0.92 1) translate(17.39130434782608 0)">
<path fill="#272421" stroke="#000" stroke-width="4" d="M60 310H50v-10c0-133.375 45.38-194.143 136.14-199.595Q192.902 100 200 100c100 0 150 60 150 200v10h-10c-5.865-19.535-9.397-26.984-15-45-2.917-4.702-25.536-47.024-35.536-57.024s-53.452 7.5-84.107 19.107c-10.733 4.064-108.964 32.475-119.957 32.19 0 0-7.086 5.755-10.4 5.727-5 5-15 20-15 25z"/>
</g>
</svg>