<svg xmlns="http://www.w3.org/2000/svg" version="1.2" baseProfile="tiny" width="100%" height="100%" viewBox="0 0 400 600" preserveAspectRatio="xMinYMin meet">
<g transform="scale(1.03 1) translate(-5.825242718446607 0)">
<path fill="#f2d6cb" stroke="#000" stroke-width="6" d="M10 600s0-50 60-70 70-50 70-50l60-180 60 180s10 30 70 50 60 70 60 70" class="body"/>
</g>
<g transform="scale(1.03 1) translate(-5.825242718446607 0)">
<path d="M120 505c0 35 50 25 80 45 30-20 80-10 80-45 30-25 90-15 100-5s10.07 20.41 15 50c5 30 5 20 5 60H0c0-40 0-29.59 5-59.59 4.93-29.59 5-39.38 15-50.41 9.5-10.48 70-20 100 5Z" style="fill:#fff;fill-rule:nonzero;stroke:#000;stroke-width:6px"/><path d="M388.812 518.932c-.419-3.338 2.794 10.698 6.188 31.068 5 30 5 20 5 60h-57.163z" style="fill:#89bfd3" transform="matrix(-1 0 0 1 400.837 0)"/><path d="M388.812 518.932c-.419-3.338 2.794 10.698 6.188 31.068 5 30 5 20 5 60h-57.163z" style="fill:#89bfd3"/><path d="M28.441 497.904 57.812 610.86l-46.409-91.928c1.742-13.878 7.068-21.504 17.038-21.028" style="fill:#7a1319;stroke:#000;stroke-width:1px;stroke-linecap:round;stroke-linejoin:round;stroke-miterlimit:1.5"/><path d="M28.441 497.904 57.812 610.86l-46.409-91.928c1.742-13.878 7.068-21.504 17.038-21.028" style="fill:#7a1319;stroke:#000;stroke-width:1px;stroke-linecap:round;stroke-linejoin:round;stroke-miterlimit:1.5" transform="matrix(-1 0 0 1 400.215 0)"/><path d="M120 505c0 35 50 25 80 45 30-20 80-10 80-45l15-10c5 60-55 45-95 75-40-30-100-15-95-75z" style="fill:#89bfd3;fill-rule:nonzero;stroke:#000;stroke-width:2px"/><path d="M120 505c0 35 50 25 80 45 30-20 80-10 80-45 30-25 90-15 100-5s10.07 20.41 15 50c5 30 5 20 5 60H0c0-40 0-30 5-60 4.93-29.59 5-38.97 15-50 9.5-10.48 70-20 100 5Z" style="fill:none;fill-rule:nonzero;stroke:#000;stroke-width:6px"/><path d="M19.5 570s72.5-2.11 81.5-20m280 20s-71-2.11-80-20" style="fill:none;fill-rule:nonzero;stroke:#000;stroke-width:2px"/>
</g>
<g transform="translate(32 293.3) scale(1.19 1.19) translate(-3.6722689075630246 -5.061344537815125) translate(24.28 -3)">
<path fill="#f2d6cb" stroke="#000" stroke-width="6" d="M43 8S3-12 3 28c0 45 40 30 40 30z"/>
</g>
<g transform="translate(322 293.3) scale(-1.19 1.19) translate(-42.32773109243698 -5.061344537815125) translate(24.28 -3)">
<path fill="#f2d6cb" stroke="#000" stroke-width="6" d="M43 8S3-12 3 28c0 45 40 30 40 30z"/>
</g>
<g transform="scale(0.8240000000000001 1) translate(42.71844660194173 0)">
<path fill="#f2d6cb" stroke="#000" stroke-width="6" d="M200 100c100 0 150 60 150 200 0 150-80 160-110 190-10 10-20 10-40 10s-30 0-40-10c-30-30-110-40-110-190 0-140 50-200 150-200Z" class="head"/><path fill="rgba(0,0,0,0.17)" d="M60 300H50c0-140 50-200 150-200s150 60 150 200h-10v-10c0-5-10-20-15-25s-5-55-15-65c-40-40-60 0-110 0s-70-40-110 0c-10 10-10 60-15 65s-15 20-15 25z" class="headShave"/><path fill="rgba(0,0,0,0.17)" d="M200 410c30 0 50 10 50 10 30 0 90-15 90-120h10c0 150-80 160-110 190-10 10-20 10-40 10s-29.88-.12-40-10c-30-29.31-110-40-110-190h10c0 105 60 120 90 120 0 0 20-10 50-10" class="faceShave"/>
</g>
<g transform="translate(147 424.5) scale(0.75 0.75) translate(1 3.5)">
<path fill="none" stroke="#000" stroke-width="2" d="m0 20 6-10-6-9" class="shp0"/>
</g>
<g transform="translate(247 424.5) scale(-0.75 0.75) translate(-7 3.5)">
<path fill="none" stroke="#000" stroke-width="2" d="m0 20 6-10-6-9" class="shp0"/>
</g>
<g transform="translate(-129.75510204081633 -22) rotate(-9 269.7551020408163 332)">
<path d="M240 340c0-4-6-20 24-20 20 0 36 8 36 12s-12 12-20 12c-4 0-40 0-40-4Z" style="fill:#fff;stroke:#000;stroke-width:5"/><path d="M268 340c-3.32 0-6-3.58-6-8s2.68-8 6-8 6 3.58 6 8-2.68 8-6 8Z" style="fill:#000;stroke:#000;stroke-width:5"/>
</g>
<g transform="translate(-9.755102040816325 -22) rotate(9 269.7551020408163 332) scale(-1 1) translate(-539.5102040816327 0)">
<path d="M240 340c0-4-6-20 24-20 20 0 36 8 36 12s-12 12-20 12c-4 0-40 0-40-4Z" style="fill:#fff;stroke:#000;stroke-width:5"/><path d="M268 340c-3.32 0-6-3.58-6-8s2.68-8 6-8 6 3.58 6 8-2.68 8-6 8Z" style="fill:#000;stroke:#000;stroke-width:5"/>
</g>
<g transform="translate(97 257.6503955087335) rotate(15 43 12.349604491266511)">
<path fill="#B55239" stroke="#000" d="M83 13C83 3 73 3 73 3 48-2 17.46 8.36 3 18c40-5 50 5 75 5 0 0 5 0 5-10Z"/>
</g>
<g transform="translate(217 257.6503955087335) rotate(-15 43 12.349604491266511) scale(-1 1) translate(-86 0)">
<path fill="#B55239" stroke="#000" d="M83 13C83 3 73 3 73 3 48-2 17.46 8.36 3 18c40-5 50 5 75 5 0 0 5 0 5-10Z"/>
</g>
<g transform="translate(0 51.52119068455602)">
<path d="M168 384s9-13.77 32-14.03c17.4-.2 32 13.2 32 13.2s-4.29 23.24-32 23.81c-27.29.56-32-22.98-32-22.98" style="opacity:.05;mix-blend-mode:multiply;fill:#501414"/><path d="M168 384c12-4 48-4 64 0-20 4-10 4-32 4-20 0-16 0-32-4" style="fill:#fff"/><path d="M168 384c12-4 48-4 64 0-20 4-10 4-32 4-20 0-16 0-32-4Zm13.71 18.12c14.52 5.66 24.72 5.71 37.72-.71m.86-26.53c-14.52-5.66-27.29-6.34-40.29.09" style="fill:none;stroke:#000;stroke-width:3"/>
</g>
<g transform="translate(0 7.5) scale(-1.07 1.07) translate(-386.9158878504673 -23.714953271028055)">
<path fill="#f2d6cb" stroke="#000" stroke-width="5" d="M190 325s-5 20-5 45c-20-5-15 15-15 20 20 0 15 10 30 10s10-10 30-10c0-5 5-25-15-20 0-25-5-45-5-45" class="nose"/>
</g>
<g transform="scale(0.8240000000000001 1) translate(42.71844660194173 0)">
<defs><linearGradient id="a" x1="200" x2="200" y1="100" y2="310" gradientUnits="userSpaceOnUse"><stop offset="0" stop-color="rgba(0,0,0,.25)"/><stop offset="1" stop-color="rgba(0,0,0,0)"/></linearGradient></defs><g style="display:inline"><path d="M60 310H50v-10c0-140 50-200 150-200s150 60 150 200v10h-10v-20c0-5-10-20-15-25s-5-55-15-65c-40-40-56.429-38.095-106.429-38.095S130 160 90 200c-10 10-10 60-15 65s-15 20-15 25z" class="short_fade" style="display:inline;opacity:1;fill:url(#a);stroke:none;stroke-width:1;stroke-miterlimit:4;stroke-dasharray:none"/></g><path fill="#B55239" stroke="#000" stroke-width="4.001" d="M186.574 63.308c-1.38.914-3.048 2.224-3.706 2.902-.658.697-2.644 2.11-4.428 3.137-1.795 1.036-4.004 2.996-4.928 4.352-.913 1.347-2.761 3.024-4.12 3.74-1.36.716-4.378 3.134-6.98 4.84-2.633 1.695-3.698 3.69-4.77 5.047-1.083 1.338-1.985 2.085-3.313 2.952-1.316.848-2.349 2.437-2.349 2.437-.547.603-3.464.794-5.216 1.906s-2.509 3.225-3.475 3.668c-.956.443-2.931 1.762-4.408 2.92-1.476 1.15-2.994 2.139-3.366 2.205-.361.066-1.827 1.074-3.25 2.232-1.423 1.14-2.75 2.101-2.93 2.13-.192.028-2.04 1.271-4.121 2.74 1.206.294-4.29 2.363-5.437 3.465-1.147 1.093-3.027 2.11-3.61 3.166-1.02 1.79-2.04 1.624-5.566 1.972-3.165.358-2.247 2.16-4.87 3.988-2.103 1.46-3.654 2.458-4.302 3.89-.52 1.159-2.102 4.032-3.515 6.378-2.188 3.664-1.961 5.05-8.206 10.202-3.94 3.231-2.727 4.186-4.691 5.76-2.56 2.043-3.919 3.617-4.832 5.586-.69 1.507-1.53 5.237-2.4 7.385s-1.688 4.296-1.837 4.786c-.138.49-1.71 2.091-3.473 3.56-2.57 2.186-3.207 3.072-3.59 4.975-.244 1.272-.456 2.694-.477 3.165-.01.462-.212 2.012-1.327 3.077-13.917 26.93.055 20.434 20.174 19.793 6.615-2.296 23.167-11.049 33.226-13.355 24.884-5.704 49.903-4.276 77.7-4.133 25.588.131 50.833-.518 75.14 4.693 13.99 2.998 30.483 11.738 39.346 13.955 20.81.15 27.744 1.091 26.427-2.908-.116-1.442-1.2-5.16-1.805-7.91-.606-2.678-1.04-2.932-2.061-6.347-.209-.699-1.487-1.979-2.57-2.95-1.104-.97-2.028-2.175-2.06-2.665-.021-.49-.266-1.978-.542-3.307-.425-2.072-1.476-2.677-4.577-5.108-2.05-1.582-.9-5.269-1.007-5.768-.116-.518-.743-1.554-1.423-2.317s-1.773-2.798-2.474-4.522c-.828-2.11-2.028-3.825-3.558-5.087-1.295-1.093-2.793-3.062-3.44-4.541-.616-1.45-.945-3.772-1.964-4.61s.385-.414-.794-.876c-1.179-.48-2.548-1.61-3.069-2.524-.51-.924-1.975-2.421-3.25-3.335l-1.23-2.44c-.562-.518-1.529-1.93-2.155-3.137-.616-1.215-2.889-3.759-5.034-5.68-2.156-1.941-2.69-5.195-4.846-7.353-2.156-2.185-4.567-4.239-5.342-4.53-.796-.293-3.037-2.215-5.002-4.316-2.368-2.58-1.744-4.223-4.899-5.966-2.559-1.432-5.84-3.015-7.295-3.495-1.466-.48-3.122-1.97-4.587-2.593-1.466-.612-3.696-1.906-4.78-3.253-1.072-1.357-2.888-2.2-3.303-2.228-.424-.028-1.943-1.912-3.377-4.22-1.423-2.327-3.387-4.918-4.386-5.728-.998-.82-3.525-1.535-5.67-1.592-3.824-.066-3.93-.132-7.084-4.889-2.517-3.957-3.462-4.89-4.906-4.72-1.423.17-2.273-.669-4.301-4.333-2.04-3.834-2.804-4.616-4.599-4.616-1.486.019-2.59.866-3.578 2.703-1.434 2.591-1.455 2.6-2.21.443-.424-1.196-2.102-3.269-3.738-4.578l-3.526-2.067c-3.753 1.148-3.364 2.987-4.97 4.494-4.587-3.458-5.267-3.162-7.667-2.23-1.678.641-3.918.886-4.991.528-1.306-.405-2.772-.066-4.45 1.055z"/>
</g>
</svg>