<svg xmlns="http://www.w3.org/2000/svg" version="1.2" baseProfile="tiny" width="100%" height="100%" viewBox="0 0 400 600" preserveAspectRatio="xMinYMin meet">
<g transform="scale(0.96 1) translate(8.333333333333341 0)">
<path fill="#a67358" stroke="#000" stroke-width="6" d="M10 600s-10-65 50-65c5 0 25-15 70-35l70-200 70 200c45 20 65 35 70 35 60 0 50 65 50 65" class="body"/>
</g>
<g transform="scale(0.96 1) translate(8.437500000000007 0)">
<g stroke="#000"><path fill="#07364f" stroke-width="3" d="M120 505s35 40 80 40 80-40 80-40v95H120z" class="s0"/><path fill="#89bfd3" stroke-width="6" d="M120 504.6c10 45.4 80 55.4 90 65.4s10 40 10 40H-5s5-40 5-50 10-30 40-40 50 0 80-15.4z" class="s0"/><path fill="#89bfd3" stroke-width="6" d="M360 520c30 10 40 30 40 40s10 50 10 50H180s0-40 10-50 80-10 90-55c30 15 50 5 80 15z" class="s0"/><path fill="#89bfd3" stroke-width="1.5" d="M196 597c-2.8 0-5-2.2-5-5s2.2-5 5-5 5 2.2 5 5-2.2 5-5 5zm-2-5h1m2 0h1" class="s1"/></g><path stroke="#000" d="M293.8 513c.6 0 1.2.6 1.2 1.2 0 .7-1.5 4.4-3.4 8.3-1.9 3.8-5.4 9-7.8 11.3-2.4 2.4-7 5.9-10.3 7.7-3.3 1.9-10.3 5.3-15.5 7.5-5.2 2.3-13.8 5.8-19 7.7-5.2 2-11.3 4.8-13.5 6.3s-5.7 4.7-7.8 7.1c-2.2 2.5-4.4 6.5-5.2 9.4-.8 2.7-1.8 10.1-2.2 16.3-.5 6.7-1.2 11.1-1.8 10.9-.6-.3-.9-4.8-.7-11.8.2-7.2.9-13.4 2-16.9 1.2-3.8 3.2-7.2 6.8-11 2.8-3 7.8-6.9 11-8.6 3.2-1.8 7.7-3.7 9.9-4.4s7.8-2.8 12.5-4.7c4.7-2 13-5.8 18.4-8.7 6.8-3.5 11.2-6.5 14-9.7 2.3-2.5 5.4-7.5 7.1-11.2 1.6-3.6 3.6-6.7 4.2-6.7zm6.4 1c1.1 0 1.9.7 1.9 1.7s-1.7 5.4-3.9 9.8c-2.3 4.6-6 10-8.8 12.9-2.6 2.6-7.7 6.5-11.3 8.6s-10.6 5.6-15.5 7.8c-5 2.2-13.4 5.6-18.8 7.6-5.3 2-11.4 4.7-13.5 5.9-2 1.3-5.2 4-7 6-1.7 2.1-3.6 5.4-4.1 7.4-.5 2.1-1.2 8.6-1.5 14.5-.6 9.9-.8 10.8-2.6 10.8-1.9 0-2-.5-1.4-10.8.3-5.9 1.2-13.1 2-16 1-3.9 2.6-6.4 6.1-9.8 2.7-2.6 6.4-5.5 8.3-6.4 1.9-1 10-4.4 18-7.5s18.3-7.6 23-10 10.3-5.9 12.5-7.8c2.2-1.8 5.9-6.2 8.2-9.8 2.3-3.5 4.7-8.3 5.4-10.7.8-3.1 1.6-4.2 3-4.2zm6.9 1c1.1 0 2 .7 2 1.5s-2.1 5.7-4.7 10.7c-3.4 6.9-6.4 11-11.2 15.8-4.8 4.7-9.3 7.9-16.6 11.7-5.5 2.8-15 7.1-21 9.6-6.1 2.4-13.3 5.2-16 6.2-2.8 1.1-6.9 3.7-9.3 5.9-2.5 2.4-4.7 5.6-5.3 7.6-.5 1.9-.9 5.7-.9 8.5 0 2.7-.3 7.1-.7 9.8-.5 2.7-1.3 4.7-2.1 4.7-.9 0-1.1-2.4-.6-10.3.3-5.6 1.1-11.8 1.6-13.7.6-1.9 2-4.6 3.1-6 1-1.4 3.6-3.7 5.6-5.1 2-1.5 9.2-4.8 16.1-7.4s16.5-6.7 21.5-9.1c4.9-2.3 11.8-6.1 15.2-8.3 3.5-2.3 8.2-6.5 10.4-9.4 2.3-2.8 5.7-8.4 7.6-12.2 1.8-3.9 3.3-7.8 3.3-8.8s.8-1.7 2-1.7zm-196.8-5c.7 0 2.2 1.9 3.2 4.2 1.1 2.4 3.8 7.4 6 11.2 2.3 3.8 6.3 9.2 9.1 11.9s9.9 8.4 16 12.7c6 4.3 13.2 9.8 15.9 12.2 3.3 2.9 5.9 6.4 7.9 10.8 2.7 5.9 3 7.8 3.6 20.3.6 12.6.5 13.7-1.2 13.7-1.5 0-1.7-1.1-1.7-9.8 0-5.3-.4-12.2-1-15.2s-2-7.3-3.1-9.5-3.5-5.5-5.2-7.3c-1.8-1.8-7.5-6.2-12.7-9.7s-12.5-8.8-16.3-11.9c-3.7-3.1-8.4-8.2-10.6-11.4-2.1-3.1-5.2-8.4-6.8-11.7-1.7-3.3-3.4-7-3.8-8.3-.5-1.5-.3-2.2.7-2.2zm-5 1c.4 0 3 4.8 5.7 10.7 3.6 8.2 6.3 12.4 10.7 17.2 3.3 3.5 10.6 9.8 16.4 14s11.6 8.4 13 9.2c1.4.9 4 3.1 5.9 5s4.5 5.6 5.8 8.4c1.8 4 2.4 7.6 3.8 31.5h-2.3c-2.1 0-2.2-.3-2.5-12.3-.3-10-.7-13.1-2.6-17.2-1.2-2.8-3.2-6.1-4.4-7.4-1.2-1.2-6.7-5.4-12.2-9.1-5.5-3.8-13.2-9.6-17-12.8-3.9-3.3-9-8.8-11.5-12.3-2.4-3.5-6.2-10.2-8.3-14.9-3.1-6.7-3.6-8.7-2.5-9.2.7-.4 1.6-.8 2-.8zm-7.5 3c.5-.1 3.5 5.2 6.8 11.7 4.3 8.5 7.7 13.6 12 18.2 3.3 3.5 9.4 9 13.5 12.1s10.8 7.9 14.8 10.6 8.4 6.6 9.8 8.6c1.7 2.7 2.7 6.2 3.4 12 .5 4.6 1 10.9 1 14 0 4-.4 5.8-1.3 5.8-.8 0-1.4-3.5-2-12-.4-6.6-1.3-13.4-2.1-15.3-.8-1.7-2.1-3.9-2.8-4.7-.7-.9-6.4-5.1-12.7-9.5s-14.8-11.2-18.9-15c-4.1-3.9-9.3-9.7-11.5-13s-5.6-9.2-7.4-13c-1.8-3.9-3.3-7.8-3.3-8.8 0-.9.3-1.7.7-1.7z" class="s3"/><path fill="#7a1319" stroke="#7a1319" d="M296.4 513c.9 0 1.2 1 1 3.2-.3 1.8-1.7 5.8-3.2 8.8s-5.2 7.9-8.2 11c-3.7 3.8-8.5 7.1-14.5 10.2-5 2.6-15.5 7.2-23.5 10.3s-16.1 6.5-18 7.5c-1.9.9-5.6 3.8-8.3 6.4-3.5 3.4-5.1 5.9-6.1 9.8-.8 2.9-1.7 10.1-2 16-.5 9.4-.8 10.8-2.4 10.8s-1.6-.9-.9-11.2c.4-6.2 1.4-13.6 2.2-16.3.8-2.9 3-6.9 5.2-9.4 2.1-2.4 5.6-5.6 7.8-7.1s8.3-4.3 13.5-6.3c5.2-1.9 13.8-5.4 19-7.7 5.2-2.2 12.2-5.6 15.5-7.5 3.3-1.8 7.9-5.3 10.3-7.7 2.4-2.3 5.9-7.5 7.8-11.3 1.9-3.9 3.4-7.6 3.4-8.3 0-.6.6-1.2 1.4-1.2zm7.1 1c.9 0 1.5.9 1.5 2.2s-1.5 5.4-3.3 9.3c-1.9 3.8-5.3 9.4-7.6 12.2-2.2 2.9-6.9 7.1-10.4 9.4-3.4 2.2-10.3 6-15.2 8.3-5 2.4-14.6 6.5-21.5 9.1s-14.1 5.9-16.1 7.4c-2 1.4-4.6 3.7-5.6 5.1-1.1 1.4-2.5 4.1-3.2 6-.6 1.9-1.1 6-1.1 9s-.3 7.6-.7 10.3c-.5 2.7-1.3 4.7-2.1 4.7-.9 0-1.1-2.5-.6-10.8.3-5.9 1-12.4 1.5-14.5.5-2 2.4-5.3 4.1-7.4 1.8-2 5-4.7 7-6 2.1-1.2 8.2-3.9 13.6-5.9 5.3-2 13.7-5.4 18.7-7.6 4.9-2.2 11.9-5.7 15.5-7.8s8.7-6 11.3-8.6c2.8-2.9 6.5-8.3 8.8-12.9 2.2-4.4 3.9-8.8 3.9-9.8 0-.9.7-1.7 1.5-1.7zm-196.3-4c.7 0 2.6 3 4.3 6.7 1.6 3.8 5.1 10.1 7.7 14 2.9 4.4 7.5 9.5 11.5 12.9 3.8 3.1 11.1 8.4 16.3 11.9s10.9 7.9 12.7 9.7c1.7 1.8 4.1 5.1 5.2 7.3s2.5 6.5 3.1 9.5 1 9.9 1 15.2c0 7.2-.3 9.8-1.3 9.8-.8 0-1.4-3.7-2-13.2-.6-10.7-1.2-14.3-3-18.3-1.3-2.8-3.9-6.5-5.8-8.4s-4.5-4.1-5.9-5c-1.4-.8-7.2-5-13-9.2s-13.1-10.5-16.4-14c-3.8-4.1-7.6-9.9-10.7-16.2-2.7-5.3-4.9-10.4-4.9-11.2s.6-1.5 1.2-1.5zm-1.7 10.8c2.2 4.8 6.1 11.6 8.5 15.1 2.5 3.5 7.6 9 11.5 12.3 3.8 3.2 11.5 9 17 12.8 5.5 3.7 11 7.9 12.2 9.1 1.2 1.3 3.2 4.6 4.4 7.4 1.9 4.1 2.3 7.2 2.6 17.2.3 10.4.1 12.3-1.2 12.3-1.2 0-1.5-1.3-1.5-5.8 0-3.1-.5-9.4-1-14-.7-5.8-1.7-9.3-3.4-12-1.4-2-5.8-5.9-9.8-8.6s-10.7-7.5-14.8-10.6-10.2-8.6-13.5-12.1c-4.4-4.6-7.7-9.7-12-18.2-4.9-9.7-5.7-12-4.6-12.7 1.2-.7 2.4 1 5.6 7.8z" class="s4"/><g fill="none" stroke="#000" stroke-width="6"><path d="M120 504.6c6.9 37.6 62.2 49.3 67.9 57-7.8 11.2-8 48.4-8 48.4H-5s5-40 5-50 10-30 40-40 50 0 80-15.4z" class="s5"/><path d="M360 520c30 10 40 30 40 40s10 50 10 50H180s0-40 10-50 80-10 90-55c30 15 50 5 80 15z" class="s5"/></g>
</g>
<g transform="translate(32 293.3) scale(0.92 0.92) translate(1.999999999999999 2.7565217391304335) translate(10.95 -3)">
<path fill="#a67358" stroke="#000" stroke-width="6" d="M43 8S3-12 3 28c0 45 40 30 40 30z"/>
</g>
<g transform="translate(322 293.3) scale(-0.92 0.92) translate(-47.99999999999999 2.7565217391304335) translate(10.95 -3)">
<path fill="#a67358" stroke="#000" stroke-width="6" d="M43 8S3-12 3 28c0 45 40 30 40 30z"/>
</g>
<g transform="scale(0.91 1) translate(19.78021978021977 0)">
<path fill="#a67358" stroke="#000" stroke-width="6" d="M200 100c100 0 150 60 150 200 0 70-30 120-40 130l-60 60s-20 10-50 10-50-10-50-10l-60-60c-10-10-40-60-40-130 0-140 50-200 150-200Z" class="head"/><path fill="rgba(0,0,0,0)" d="M200 410c30 0 50 10 50 10 30 0 90-15 90-120h10c0 70-30 120-40 130l-60 60s-20 10-50 10-50-10-50-10l-60-60c-10-10-40-60-40-130h10c0 105 60 120 90 120 0 0 20-10 50-10" class="faceShave"/><path fill="rgba(0,0,0,0)" d="M60 300H50c0-140 50-200 150-200s150 60 150 200h-10v-10c0-5-10-20-15-25s-5-55-15-65c-40-40-60 0-110 0s-70-40-110 0c-10 10-10 60-15 65s-15 20-15 25z" class="headShave"/>
</g>
<g>
<path fill="none" stroke="#000" stroke-width="2" d="M155 220s35 0 45 5c10-5 45-5 45-5"/>
</g>
<g transform="scale(0.91 1) translate(19.78021978021977 0)">
<path fill="#1c1008" stroke="#000" d="M205 420c-4 0-5-5-.8-10 5.8-5 15.8-5 15.8-5 15 0 35 15 35 25 0 30 10 55 5 60s-15 5-20 0 5-40 5-55-15-15-40-15Zm-10 0c4 0 5-5 0-10s-15-5-15-5c-16 0-35 15-35 25 0 30-10 55-5 60s15 5 20 0-5-40-5-55 15-15 40-15Zm-7 38c2-2 22-2 24 0s-8 16-12 16-14-14-12-16Z"/>
</g>
<g transform="translate(102.24084342899988 286.1384650016032) rotate(2 37.759156571000126 23.861534998396785)">
<path d="M5 20s12.08-8.23 35-8.23S70 30 70 30s-7.15 9.92-30.07 9.92S5 20 5 20" style="fill:#f5f3ee"/><path d="M5 20c-2.87-2.87 12.2-9.55 35-11.9C70 5 72.87 27.13 70 30s-7.08-13.73-30-13.73S7.87 22.87 5 20" class="black"/><path d="M39.93 33.04c-6.34 0-11.46-5.12-11.46-11.46 0-6.33 5.12-11.46 11.46-11.46s11.46 5.13 11.46 11.46c0 6.34-5.12 11.46-11.46 11.46" class="black"/>
</g>
<g transform="translate(222.24084342899988 286.1384650016032) rotate(-2 37.759156571000126 23.861534998396785) scale(-1 1) translate(-75.51831314200025 0)">
<path d="M5 20s12.08-8.23 35-8.23S70 30 70 30s-7.15 9.92-30.07 9.92S5 20 5 20" style="fill:#f5f3ee"/><path d="M5 20c-2.87-2.87 12.2-9.55 35-11.9C70 5 72.87 27.13 70 30s-7.08-13.73-30-13.73S7.87 22.87 5 20" class="black"/><path d="M39.93 33.04c-6.34 0-11.46-5.12-11.46-11.46 0-6.33 5.12-11.46 11.46-11.46s11.46 5.13 11.46 11.46c0 6.34-5.12 11.46-11.46 11.46" class="black"/>
</g>
<g transform="translate(101.91746012211166 257.0658529346995) rotate(-6 38.082539877888344 12.934147065300508)">
<path fill="#1c1008" stroke="#000" d="M74.17 18.39c5.31-3.87-1.66-7.27-1.66-7.27s-20.66-2.78-26.56-3.1c-7.56-.72-22.76-1.1-22.76-1.1S10.98 10 18.3 16.95c10.59 2.96 14.71-1.32 31.19-.91 16.85.28 21.74 4.37 24.68 2.35Z"/><path d="M0 10h5v5H0z" style="fill:none"/>
</g>
<g transform="translate(221.91746012211166 257.0658529346995) rotate(6 38.082539877888344 12.934147065300508) scale(-1 1) translate(-76.16507975577669 0)">
<path fill="#1c1008" stroke="#000" d="M74.17 18.39c5.31-3.87-1.66-7.27-1.66-7.27s-20.66-2.78-26.56-3.1c-7.56-.72-22.76-1.1-22.76-1.1S10.98 10 18.3 16.95c10.59 2.96 14.71-1.32 31.19-.91 16.85.28 21.74 4.37 24.68 2.35Z"/><path d="M0 10h5v5H0z" style="fill:none"/>
</g>
<g transform="translate(0 51.49291359400189)">
<path d="M167 382s10-8.86 33-9c16.67-.1 34 9 34 9s-11.33 21.31-34 22c-22.32.68-33-22-33-22" style="opacity:.05;mix-blend-mode:multiply;fill:#501414"/><path d="M176 384s14-4 24-4 24 4 24 4-8 8-24 8-24-8-24-8" style="fill:#fff"/><path d="M176 384s14-4 24-4 24 4 24 4-8 8-24 8-24-8-24-8Z" style="fill:none;stroke:#000;stroke-width:4"/><path d="M180 376c16-4 24-4 40 0" style="fill:none;stroke:#000;stroke-width:1"/><path d="M166 382s5 3.19 10 2m58-2s-5 3.19-10 2" style="fill:none;stroke:#000;stroke-width:4"/><path d="M185.71 400.69c15.15 4.14 16.29 3.86 29.15-.57" style="fill:none;stroke:#000;stroke-width:1"/>
</g>
<g transform="translate(168.19198795027955 347.310851842392) scale(-0.9 0.9) translate(-67.15024766052092 2.5210164619564432)">
<path fill="#a67358" stroke="#000" stroke-width="5" d="m28 1 16.043 32.815s.75 10.848-18.228 10.417c-4.731-.107-4.624.436-6.246-.08" class="nose" transform="matrix(1 0 -.07193 1 2.942 .274)"/>
</g>
<g transform="scale(0.91 1) translate(19.738180405030707 0)">
<path fill="#1c1008" stroke="#000" stroke-width="4" d="M178.27 84.63c-1.7.39-3.73.99-4.51 1.33-.78.35-3.17 1-5.31 1.44s-4.7 1.45-5.67 2.23c-.98.79-3.05 1.7-4.62 2.03-1.55.33-5.18 1.33-8.06 2.23-2.87.91-6.09 2.38-7.12 3.25-1.05.89-3.02 2.03-4.39 2.55-1.38.51-3.14.78-3.92.59-.77-.19-2.85.21-4.62.88-1.77.68-4.02 1.43-5 1.68-.98.24-2.91 1.09-4.3 1.87-1.39.79-2.84 1.44-3.23 1.45s-1.77.69-3.05 1.5c-1.3.83-2.51 1.51-2.71 1.51s-1.9.86-3.78 1.9c-1.89 1.05-4.22 2.62-5.17 3.48-.96.87-2.05 2.33-2.43 3.24-.66 1.58-.91 1.66-4.45 1.52-3.15-.13-4.16.11-6.4 1.52-1.79 1.13-2.81 2.3-3.14 3.63-.27 1.08-1.22 3.74-2.11 5.91-1.39 3.4-2.42 4.63-7.51 9.03-3.22 2.8-7.19 6.22-8.82 7.58-2.13 1.79-3.18 3.26-3.73 5.21-.43 1.5-1.2 4.5-1.72 6.67s-.99 4.35-1.07 4.85c-.07.5-1.41 2.01-2.97 3.34-2.3 2.01-2.83 2.88-2.97 4.87-.1 1.33-.15 2.83-.1 3.33.04.5-.78 1.73-1.82 2.74-1.04 1-2.11 2.37-2.38 3.04-.28.67-.83 3.54-1.22 6.37-.38 2.84-.69 6.39-.68 7.89.01 2.3-.47 3.45-2.99 7.3-1.6 2.51-3.1 5.53-3.32 6.7-.24 1.17-.11 3.62.26 5.45.63 3.04.57 3.56-.54 5.93-.65 1.42-1.18 3.61-1.18 4.86.02 1.25.35 3.09.75 4.08.62 1.62.56 2.13-.61 4.57-.72 1.5-1.29 3.48-1.28 4.4 0 .92.27 2.43.59 3.33.33.92.95 2.07 1.4 2.58.53.58.9 2.67 1.07 6.06.15 2.92-.01 6.34-.37 7.89-.43 1.89-.45 3.1-.06 3.94.31.67.37 1.63.12 2.13s-.59 2.76-.77 5.01c-.2 2.55-.07 4.62.32 5.46.38.78.65 4.2.64 8.05.01 5.12.27 7.38 1.12 9.71.64 1.67 1.34 4.41 1.58 6.08s.89 3.53 1.45 4.13c.57.59 1.66 1.08 2.41 1.07.77 0 2.61-.83 4.11-1.83 1.49-1 3.01-1.82 3.37-1.82s1.31-.69 2.13-1.52c.8-.84 1.43-2.01 1.39-2.59-.04-.59 1.01-2.31 2.34-3.81 1.34-1.51 2.55-3.23 2.7-3.82.14-.59.62-1.06 1.06-1.05.43.01 1.95-1.37 3.38-3.06s2.72-3.83 2.85-4.75c.14-.92.62-1.81 1.07-1.96.45-.14 1.31-.77 1.92-1.37.66-.66 1.21-2.51 1.38-4.62.16-1.92.83-4.61 1.47-5.94.64-1.35 1.03-2.79.87-3.21s.61-1.93 1.73-3.35c1.62-2.08 1.95-2.97 1.59-4.43-.24-1-.42-2.24-.41-2.74.02-.5.18-1.87.38-3.04.19-1.17.56-3.36.81-4.87.26-1.55 1.17-3.46 2.1-4.42.93-.95 1.65-2.46 1.67-3.5.03-1-.4-2.85-.93-4.09-.53-1.25-.95-2.62-.92-3.04.02-.42.82-1.58 1.78-2.58 1.3-1.34 1.78-2.52 1.84-4.41.04-1.6.5-2.93 1.19-3.5.62-.5 1.15-1.66 1.18-2.58.02-.92-.23-2.14-.57-2.72-.42-.73-.19-2 .74-4.09.75-1.67 2.41-4.2 3.73-5.62 2.07-2.24 2.63-2.54 4.29-2.2 1.05.2 2.07.46 2.26.56s1.31-.1 2.5-.43a66 66 0 0 1 3.61-.89c.8-.15 2.59-.58 4.01-.95 1.41-.39 3.39-1.03 4.41-1.45 1.6-.66 2.22-.59 4.35.45 1.54.75 3.2 1.1 4.34.89 1.03-.19 4.01.05 6.63.51 4.22.76 5.2 1.23 8.04 3.82 2.33 2.1 4.18 3.14 6.46 3.61 2.31.47 3.8.46 5.34-.01 1.16-.37 3.09-1.32 4.28-2.13 1.58-1.06 2.5-1.31 3.47-.92.73.3 2.7.73 4.39.95 1.7.22 3.42.57 3.84.79s2.33.59 4.24.82c1.91.24 4.7.69 6.19 1.01 1.93.4 3.62.35 5.85-.22 1.71-.44 4.35-.97 5.85-1.16 2.13-.28 3.08-.08 4.29.89.86.69 2.96 1.41 4.69 1.62 2.13.25 3.93.05 5.67-.61 1.39-.54 3.15-1.8 3.89-2.8.86-1.16 1.98-1.81 3.1-1.81.96 0 1.88.2 2.05.45s1.48.62 2.92.82c1.66.23 4.12-.03 6.68-.75 2.22-.6 4.48-1.1 5.01-1.1.53.01 2.16-.92 3.61-2.07 2.28-1.82 2.89-2.01 4.57-1.48 1.06.33 2.79.54 3.83.46 1.06-.07 3.73.6 5.97 1.49 2.23.9 4.91 1.64 5.95 1.64 1.03 0 2.65-.31 3.56-.69.92-.38 2.73-1.46 4.03-2.41 1.32-.96 2.77-1.54 3.31-1.31.51.22 3.63.48 6.89.59 4.69.15 6.34-.03 8.03-.9 1.81-.93 2.42-.99 4-.35 1.01.41 3 1.06 4.41 1.44 1.4.38 3.2.81 4 .97.79.15 2.42.55 3.61.89 1.19.33 2.31.52 2.51.42.18-.1 1.2-.35 2.26-.56 1.65-.33 2.21-.04 4.29 2.2 1.3 1.42 2.97 3.95 3.72 5.62.92 2.1 1.15 3.36.72 4.09-.33.58-.59 1.81-.57 2.72.02.92.54 2.08 1.17 2.58.7.57 1.15 1.9 1.19 3.5.04 1.89.53 3.07 1.82 4.4.97 1 1.77 2.17 1.79 2.58.02.42-.4 1.79-.94 3.04-.53 1.24-.96 3.09-.94 4.09.02 1.04.73 2.54 1.67 3.49.92.96 1.81 2.87 2.08 4.42.25 1.5.61 3.69.8 4.85.19 1.17.35 2.54.37 3.04.01.5-.19 1.73-.43 2.73-.36 1.46-.05 2.35 1.58 4.42 1.12 1.43 1.88 2.93 1.71 3.35-.15.42.23 1.85.87 3.2.64 1.33 1.29 4 1.44 5.93.16 2.1.71 3.94 1.38 4.6.61.6 1.47 1.22 1.91 1.37.46.15.94 1.03 1.07 1.95.13.91 1.42 3.05 2.85 4.74 1.42 1.68 2.96 3.06 3.39 3.05.44-.01.92.46 1.06 1.04.15.59 1.37 2.31 2.71 3.81 1.34 1.51 2.4 3.22 2.35 3.81-.04.58.6 1.74 1.42 2.59.84.83 1.8 1.52 2.15 1.52.34 0 1.86.82 3.37 1.82s3.38 1.83 4.15 1.84c.76.02 1.86-.46 2.44-1.05.56-.6 1.23-2.45 1.47-4.12s.96-4.41 1.59-6.08c.87-2.32 1.14-4.58 1.14-9.7 0-3.84.27-7.26.64-8.04.4-.84.53-2.91.34-5.46-.18-2.25-.52-4.51-.77-5.01s-.2-1.46.12-2.13c.39-.83.37-2.04-.07-3.93-.36-1.55-.51-4.97-.36-7.9.17-3.38.54-5.47 1.08-6.06.44-.5 1.07-1.66 1.39-2.58.33-.9.59-2.54.59-3.63-.01-1.09-.59-3.07-1.32-4.4-1.22-2.24-1.27-2.59-.56-4.41.43-1.08.77-2.92.77-4.09s-.55-3.28-1.21-4.7c-1.12-2.36-1.16-2.88-.54-5.93.38-1.83.5-4.28.27-5.45-.22-1.17-1.72-4.18-3.32-6.69-2.52-3.84-3-4.99-2.99-7.29.01-1.51-.3-5.05-.68-7.89-.39-2.84-.94-5.7-1.21-6.37-.28-.67-1.35-2.03-2.39-3.04s-1.86-2.24-1.82-2.74.01-1.99-.08-3.33c-.13-2.07-.64-2.85-3.49-5.31-1.85-1.59-3.4-3.3-3.42-3.8s-.48-1.53-1.03-2.28c-.56-.75-1.29-2.73-1.65-4.39-.42-2.01-1.29-3.65-2.58-4.86-1.1-1.03-2.18-2.87-2.49-4.24-.31-1.34-1.26-3.04-2.1-3.8-.85-.76-2.44-1.71-3.55-2.12-1.09-.42-2.22-1.41-2.52-2.22-.29-.8-1.42-2.1-2.51-2.88s-2.85-1.41-3.9-1.4c-1.05.02-2.29-.32-2.74-.76-.45-.43-1.09-1.59-1.42-2.59-.34-1.01-2.05-3.05-3.8-4.55-1.76-1.5-4.63-4.03-6.37-5.64-1.74-1.6-3.8-3.06-4.59-3.25-.78-.19-2.75-1.53-4.37-2.98-1.97-1.76-4.46-3.16-7.6-4.25-2.56-.87-5.94-1.82-7.51-2.09-1.56-.27-4.13-.78-5.71-1.13-1.56-.36-3.67-1.33-4.67-2.15-.99-.84-2.2-1.52-2.7-1.53-.48-.01-1.95-1.14-3.24-2.51-1.3-1.39-3.24-2.89-4.32-3.33-1.09-.46-4.09-.82-6.74-.81-4.72.01-4.83-.03-8.18-2.74-2.72-2.2-3.84-2.72-5.69-2.63s-2.85-.38-5.14-2.4c-2.36-2.08-3.31-2.51-5.67-2.55-1.95-.03-3.44.38-4.82 1.33-1.98 1.38-2 1.38-2.9.17-.49-.66-2.62-1.84-4.73-2.62l-3.82-1.42-6.72 2.53c-6.04-2.25-7.52-2.42-10.61-2.11-2.14.22-5.05.15-6.46-.16-1.71-.37-3.59-.33-5.66.15Z"/>
</g>
</svg>