<svg xmlns="http://www.w3.org/2000/svg" version="1.2" baseProfile="tiny" width="100%" height="100%" viewBox="0 0 400 600" preserveAspectRatio="xMinYMin meet">
<g transform="scale(0.97 1) translate(6.185567010309283 0)">
<path fill="#ddb7a0" stroke="#000" stroke-width="6" d="M5 600s-5-60 35-70c0 0 40 0 90-30l70-200 70 200c50 30 90 30 90 30 40 10 35 70 35 70" class="body"/>
</g>
<g transform="scale(0.97 1) translate(6.185567010309284 0)">
<path fill="#89bfd3" stroke="#000" stroke-width="6" d="M80 610s10-30 10-90l20-10s10 80 90 80 90-80 90-80l20 10c0 60 10 90 10 90z"/>
</g>
<g transform="translate(32 293.3) scale(0.85 0.85) translate(4.058823529411765 5.594117647058825) translate(22.42 -3)">
<path fill="#ddb7a0" stroke="#000" stroke-width="6" d="M43 8S3-12 3 28c0 45 40 30 40 30z"/>
</g>
<g transform="translate(322 293.3) scale(-0.85 0.85) translate(-50.05882352941177 5.594117647058825) translate(22.42 -3)">
<path fill="#ddb7a0" stroke="#000" stroke-width="6" d="M43 8S3-12 3 28c0 45 40 30 40 30z"/>
</g>
<g transform="scale(0.8360000000000001 1) translate(39.23444976076553 0)">
<path fill="#ddb7a0" stroke="#000" stroke-width="6" d="M200 100c100 0 150 60 150 200 0 0-20 105-20 135s-60 45-80 55-10 15-50 5c-40 10-30 5-50-5s-80-25-80-55-20-135-20-135c0-140 50-200 150-200Z" class="head"/><path fill="rgba(0,0,0,0)" d="M60 300H50c0-140 50-200 150-200s150 60 150 200h-10v-10c0-5-10-20-15-25s-5-55-15-65c-40-40-60 0-110 0s-70-40-110 0c-10 10-10 60-15 65s-15 20-15 25z" class="headShave"/><path fill="rgba(0,0,0,0)" d="M200 410c30 0 50 10 50 10 30 0 90-15 90-120h10s-20 105-20 135-60 45-80 55-10 15-50 5c-40 10-30 5-50-5s-80-25-80-55-20-135-20-135h10c0 105 60 120 90 120 0 0 20-10 50-10" class="faceShave"/>
</g>
<g>
<path fill="none" stroke="#000" stroke-width="2" d="M180 465s10-5 20-5 20 5 20 5"/>
</g>
<g transform="scale(0.8360000000000001 1) translate(39.23444976076553 0)">
<path fill="#2C1608" stroke="#000" d="M200 450c20 0 10 30 20 30s35-5 45-15c20-20 30-30 40-30 0 70-65 80-105 80S95 505 95 435c10 0 20 10 40 30 10 10 35 15 45 15s0-30 20-30Z" class="shp0"/>
</g>
<g transform="translate(-125 -25) rotate(-10 265 335)">
<path d="M265 360c-13.8 0-25-11.2-25-25s11.2-25 25-25 25 11.2 25 25-11.2 25-25 25" style="fill:none;stroke:#000;stroke-width:5;stroke-linecap:round;stroke-linejoin:round"/><path d="M265 360c-13.8 0-25-11.2-25-25v-5h50v5c0 13.8-11.2 25-25 25" style="fill:#fff;stroke:#000;stroke-width:5;stroke-linecap:round;stroke-linejoin:round"/><path d="M265 330c-10 0-10 15 0 15s10-15 0-15" style="stroke:#000;stroke-width:4;stroke-linecap:round;stroke-linejoin:round"/>
</g>
<g transform="translate(-5 -25) rotate(10 265 335) scale(-1 1) translate(-530 0)">
<path d="M265 360c-13.8 0-25-11.2-25-25s11.2-25 25-25 25 11.2 25 25-11.2 25-25 25" style="fill:none;stroke:#000;stroke-width:5;stroke-linecap:round;stroke-linejoin:round"/><path d="M265 360c-13.8 0-25-11.2-25-25v-5h50v5c0 13.8-11.2 25-25 25" style="fill:#fff;stroke:#000;stroke-width:5;stroke-linecap:round;stroke-linejoin:round"/><path d="M265 330c-10 0-10 15 0 15s10-15 0-15" style="stroke:#000;stroke-width:4;stroke-linecap:round;stroke-linejoin:round"/>
</g>
<g transform="translate(101.05152592374387 261.3) rotate(15 38.94847407625614 8.7)">
<path fill="#2C1608" stroke="#000" d="M73 13c4.85-1.21 0-10-10-10S3 8 3 8s50 10 70 5Z"/>
</g>
<g transform="translate(221.05152592374387 261.3) rotate(-15 38.94847407625614 8.7) scale(-1 1) translate(-77.89694815251228 0)">
<path fill="#2C1608" stroke="#000" d="M73 13c4.85-1.21 0-10-10-10S3 8 3 8s50 10 70 5Z"/>
</g>
<g transform="translate(-2.842170943040401e-14 51.52119068455602) scale(-1 1) translate(-400.00000000000006 0)">
<path d="M168 384s9-13.77 32-14.03c17.4-.2 32 13.2 32 13.2s-4.29 23.24-32 23.81c-27.29.56-32-22.98-32-22.98" style="opacity:.05;mix-blend-mode:multiply;fill:#501414"/><path d="M181.71 402.12c14.52 5.66 24.72 5.71 37.72-.71m.86-26.53c-14.52-5.66-27.29-6.34-40.29.09m-4 9.03c8-2.17 16 0 24 0s16-2.17 24 0m12-4s0 4-12 4m-60-4s0 4 12 4" style="fill:none;stroke:#000;stroke-width:4"/>
</g>
<g transform="translate(140.84321577312707 292.352) scale(0.6 0.6) translate(39.437856151248624 51.76533333333334)">
<path fill="#ddb7a0" stroke="#000" stroke-width="5" d="M50 50s-20 60 9 55c0 0 29 5 9-55"/>
</g>
<g transform="scale(0.8360000000000001 1) translate(39.23444976076553 0)">
<path fill="#2C1608" stroke="#000" stroke-width="4" d="M60 310H50v-10c0-140 50-200 150-200s150 60 150 200v10h-10v-20c0-5-10-20-15-25s-5-55-15-65c-40-40-60 0-110 0s-70-40-110 0c-10 10-10 60-15 65s-15 20-15 25z"/>
</g>
</svg>