<svg xmlns="http://www.w3.org/2000/svg" version="1.2" baseProfile="tiny" width="100%" height="100%" viewBox="0 0 400 600" preserveAspectRatio="xMinYMin meet">
<g transform="scale(1 1) translate(0 0)">
<path fill="#74453d" stroke="#000" stroke-width="6" d="M5 600s-5-60 35-70c0 0 40 0 90-30l70-200 70 200c50 30 90 30 90 30 40 10 35 70 35 70" class="body"/>
</g>
<g transform="scale(1 1) translate(0 0)">
<g stroke="#000"><path fill="#07364f" stroke-width="3" d="M120 505s35 40 80 40 80-40 80-40v95H120z" class="s0"/><path fill="#89bfd3" stroke-width="6" d="M120 504.6c10 45.4 80 55.4 90 65.4s10 40 10 40H-5s5-40 5-50 10-30 40-40 50 0 80-15.4z" class="s0"/><path fill="#89bfd3" stroke-width="6" d="M360 520c30 10 40 30 40 40s10 50 10 50H180s0-40 10-50 80-10 90-55c30 15 50 5 80 15z" class="s0"/><path fill="#89bfd3" stroke-width="1.5" d="M196 597c-2.8 0-5-2.2-5-5s2.2-5 5-5 5 2.2 5 5-2.2 5-5 5zm-2-5h1m2 0h1" class="s1"/></g><path stroke="#000" d="M293.8 513c.6 0 1.2.6 1.2 1.2 0 .7-1.5 4.4-3.4 8.3-1.9 3.8-5.4 9-7.8 11.3-2.4 2.4-7 5.9-10.3 7.7-3.3 1.9-10.3 5.3-15.5 7.5-5.2 2.3-13.8 5.8-19 7.7-5.2 2-11.3 4.8-13.5 6.3s-5.7 4.7-7.8 7.1c-2.2 2.5-4.4 6.5-5.2 9.4-.8 2.7-1.8 10.1-2.2 16.3-.5 6.7-1.2 11.1-1.8 10.9-.6-.3-.9-4.8-.7-11.8.2-7.2.9-13.4 2-16.9 1.2-3.8 3.2-7.2 6.8-11 2.8-3 7.8-6.9 11-8.6 3.2-1.8 7.7-3.7 9.9-4.4s7.8-2.8 12.5-4.7c4.7-2 13-5.8 18.4-8.7 6.8-3.5 11.2-6.5 14-9.7 2.3-2.5 5.4-7.5 7.1-11.2 1.6-3.6 3.6-6.7 4.2-6.7zm6.4 1c1.1 0 1.9.7 1.9 1.7s-1.7 5.4-3.9 9.8c-2.3 4.6-6 10-8.8 12.9-2.6 2.6-7.7 6.5-11.3 8.6s-10.6 5.6-15.5 7.8c-5 2.2-13.4 5.6-18.8 7.6-5.3 2-11.4 4.7-13.5 5.9-2 1.3-5.2 4-7 6-1.7 2.1-3.6 5.4-4.1 7.4-.5 2.1-1.2 8.6-1.5 14.5-.6 9.9-.8 10.8-2.6 10.8-1.9 0-2-.5-1.4-10.8.3-5.9 1.2-13.1 2-16 1-3.9 2.6-6.4 6.1-9.8 2.7-2.6 6.4-5.5 8.3-6.4 1.9-1 10-4.4 18-7.5s18.3-7.6 23-10 10.3-5.9 12.5-7.8c2.2-1.8 5.9-6.2 8.2-9.8 2.3-3.5 4.7-8.3 5.4-10.7.8-3.1 1.6-4.2 3-4.2zm6.9 1c1.1 0 2 .7 2 1.5s-2.1 5.7-4.7 10.7c-3.4 6.9-6.4 11-11.2 15.8-4.8 4.7-9.3 7.9-16.6 11.7-5.5 2.8-15 7.1-21 9.6-6.1 2.4-13.3 5.2-16 6.2-2.8 1.1-6.9 3.7-9.3 5.9-2.5 2.4-4.7 5.6-5.3 7.6-.5 1.9-.9 5.7-.9 8.5 0 2.7-.3 7.1-.7 9.8-.5 2.7-1.3 4.7-2.1 4.7-.9 0-1.1-2.4-.6-10.3.3-5.6 1.1-11.8 1.6-13.7.6-1.9 2-4.6 3.1-6 1-1.4 3.6-3.7 5.6-5.1 2-1.5 9.2-4.8 16.1-7.4s16.5-6.7 21.5-9.1c4.9-2.3 11.8-6.1 15.2-8.3 3.5-2.3 8.2-6.5 10.4-9.4 2.3-2.8 5.7-8.4 7.6-12.2 1.8-3.9 3.3-7.8 3.3-8.8s.8-1.7 2-1.7zm-196.8-5c.7 0 2.2 1.9 3.2 4.2 1.1 2.4 3.8 7.4 6 11.2 2.3 3.8 6.3 9.2 9.1 11.9s9.9 8.4 16 12.7c6 4.3 13.2 9.8 15.9 12.2 3.3 2.9 5.9 6.4 7.9 10.8 2.7 5.9 3 7.8 3.6 20.3.6 12.6.5 13.7-1.2 13.7-1.5 0-1.7-1.1-1.7-9.8 0-5.3-.4-12.2-1-15.2s-2-7.3-3.1-9.5-3.5-5.5-5.2-7.3c-1.8-1.8-7.5-6.2-12.7-9.7s-12.5-8.8-16.3-11.9c-3.7-3.1-8.4-8.2-10.6-11.4-2.1-3.1-5.2-8.4-6.8-11.7-1.7-3.3-3.4-7-3.8-8.3-.5-1.5-.3-2.2.7-2.2zm-5 1c.4 0 3 4.8 5.7 10.7 3.6 8.2 6.3 12.4 10.7 17.2 3.3 3.5 10.6 9.8 16.4 14s11.6 8.4 13 9.2c1.4.9 4 3.1 5.9 5s4.5 5.6 5.8 8.4c1.8 4 2.4 7.6 3.8 31.5h-2.3c-2.1 0-2.2-.3-2.5-12.3-.3-10-.7-13.1-2.6-17.2-1.2-2.8-3.2-6.1-4.4-7.4-1.2-1.2-6.7-5.4-12.2-9.1-5.5-3.8-13.2-9.6-17-12.8-3.9-3.3-9-8.8-11.5-12.3-2.4-3.5-6.2-10.2-8.3-14.9-3.1-6.7-3.6-8.7-2.5-9.2.7-.4 1.6-.8 2-.8zm-7.5 3c.5-.1 3.5 5.2 6.8 11.7 4.3 8.5 7.7 13.6 12 18.2 3.3 3.5 9.4 9 13.5 12.1s10.8 7.9 14.8 10.6 8.4 6.6 9.8 8.6c1.7 2.7 2.7 6.2 3.4 12 .5 4.6 1 10.9 1 14 0 4-.4 5.8-1.3 5.8-.8 0-1.4-3.5-2-12-.4-6.6-1.3-13.4-2.1-15.3-.8-1.7-2.1-3.9-2.8-4.7-.7-.9-6.4-5.1-12.7-9.5s-14.8-11.2-18.9-15c-4.1-3.9-9.3-9.7-11.5-13s-5.6-9.2-7.4-13c-1.8-3.9-3.3-7.8-3.3-8.8 0-.9.3-1.7.7-1.7z" class="s3"/><path fill="#7a1319" stroke="#7a1319" d="M296.4 513c.9 0 1.2 1 1 3.2-.3 1.8-1.7 5.8-3.2 8.8s-5.2 7.9-8.2 11c-3.7 3.8-8.5 7.1-14.5 10.2-5 2.6-15.5 7.2-23.5 10.3s-16.1 6.5-18 7.5c-1.9.9-5.6 3.8-8.3 6.4-3.5 3.4-5.1 5.9-6.1 9.8-.8 2.9-1.7 10.1-2 16-.5 9.4-.8 10.8-2.4 10.8s-1.6-.9-.9-11.2c.4-6.2 1.4-13.6 2.2-16.3.8-2.9 3-6.9 5.2-9.4 2.1-2.4 5.6-5.6 7.8-7.1s8.3-4.3 13.5-6.3c5.2-1.9 13.8-5.4 19-7.7 5.2-2.2 12.2-5.6 15.5-7.5 3.3-1.8 7.9-5.3 10.3-7.7 2.4-2.3 5.9-7.5 7.8-11.3 1.9-3.9 3.4-7.6 3.4-8.3 0-.6.6-1.2 1.4-1.2zm7.1 1c.9 0 1.5.9 1.5 2.2s-1.5 5.4-3.3 9.3c-1.9 3.8-5.3 9.4-7.6 12.2-2.2 2.9-6.9 7.1-10.4 9.4-3.4 2.2-10.3 6-15.2 8.3-5 2.4-14.6 6.5-21.5 9.1s-14.1 5.9-16.1 7.4c-2 1.4-4.6 3.7-5.6 5.1-1.1 1.4-2.5 4.1-3.2 6-.6 1.9-1.1 6-1.1 9s-.3 7.6-.7 10.3c-.5 2.7-1.3 4.7-2.1 4.7-.9 0-1.1-2.5-.6-10.8.3-5.9 1-12.4 1.5-14.5.5-2 2.4-5.3 4.1-7.4 1.8-2 5-4.7 7-6 2.1-1.2 8.2-3.9 13.6-5.9 5.3-2 13.7-5.4 18.7-7.6 4.9-2.2 11.9-5.7 15.5-7.8s8.7-6 11.3-8.6c2.8-2.9 6.5-8.3 8.8-12.9 2.2-4.4 3.9-8.8 3.9-9.8 0-.9.7-1.7 1.5-1.7zm-196.3-4c.7 0 2.6 3 4.3 6.7 1.6 3.8 5.1 10.1 7.7 14 2.9 4.4 7.5 9.5 11.5 12.9 3.8 3.1 11.1 8.4 16.3 11.9s10.9 7.9 12.7 9.7c1.7 1.8 4.1 5.1 5.2 7.3s2.5 6.5 3.1 9.5 1 9.9 1 15.2c0 7.2-.3 9.8-1.3 9.8-.8 0-1.4-3.7-2-13.2-.6-10.7-1.2-14.3-3-18.3-1.3-2.8-3.9-6.5-5.8-8.4s-4.5-4.1-5.9-5c-1.4-.8-7.2-5-13-9.2s-13.1-10.5-16.4-14c-3.8-4.1-7.6-9.9-10.7-16.2-2.7-5.3-4.9-10.4-4.9-11.2s.6-1.5 1.2-1.5zm-1.7 10.8c2.2 4.8 6.1 11.6 8.5 15.1 2.5 3.5 7.6 9 11.5 12.3 3.8 3.2 11.5 9 17 12.8 5.5 3.7 11 7.9 12.2 9.1 1.2 1.3 3.2 4.6 4.4 7.4 1.9 4.1 2.3 7.2 2.6 17.2.3 10.4.1 12.3-1.2 12.3-1.2 0-1.5-1.3-1.5-5.8 0-3.1-.5-9.4-1-14-.7-5.8-1.7-9.3-3.4-12-1.4-2-5.8-5.9-9.8-8.6s-10.7-7.5-14.8-10.6-10.2-8.6-13.5-12.1c-4.4-4.6-7.7-9.7-12-18.2-4.9-9.7-5.7-12-4.6-12.7 1.2-.7 2.4 1 5.6 7.8z" class="s4"/><g fill="none" stroke="#000" stroke-width="6"><path d="M120 504.6c6.9 37.6 62.2 49.3 67.9 57-7.8 11.2-8 48.4-8 48.4H-5s5-40 5-50 10-30 40-40 50 0 80-15.4z" class="s5"/><path d="M360 520c30 10 40 30 40 40s10 50 10 50H180s0-40 10-50 80-10 90-55c30 15 50 5 80 15z" class="s5"/></g>
</g>
<g transform="translate(32 293.3) scale(0.59 0.59) translate(15.98305084745763 22.02881355932204) translate(5.6800000000000015 -3)">
<path fill="#74453d" stroke="#000" stroke-width="6" d="M43 8S3-12 3 28c0 45 40 30 40 30z"/>
</g>
<g transform="translate(322 293.3) scale(-0.59 0.59) translate(-61.98305084745762 22.02881355932204) translate(5.6800000000000015 -3)">
<path fill="#74453d" stroke="#000" stroke-width="6" d="M43 8S3-12 3 28c0 45 40 30 40 30z"/>
</g>
<g transform="scale(0.9440000000000001 1) translate(11.864406779661005 0)">
<path fill="#74453d" stroke="#000" stroke-width="6" d="M200 100c100 0 150 60 150 200 0 150-80 160-110 190-10 10-20 10-40 10s-30 0-40-10c-30-30-110-40-110-190 0-140 50-200 150-200Z" class="head"/><path fill="rgba(0,0,0,0)" d="M60 300H50c0-140 50-200 150-200s150 60 150 200h-10v-10c0-5-10-20-15-25s-5-55-15-65c-40-40-60 0-110 0s-70-40-110 0c-10 10-10 60-15 65s-15 20-15 25z" class="headShave"/><path fill="rgba(0,0,0,0)" d="M200 410c30 0 50 10 50 10 30 0 90-15 90-120h10c0 150-80 160-110 190-10 10-20 10-40 10s-29.88-.12-40-10c-30-29.31-110-40-110-190h10c0 105 60 120 90 120 0 0 20-10 50-10" class="faceShave"/>
</g>
<g>
<path fill="none" stroke="#000" stroke-width="2" d="M300 320s5 5 10 5m-13.25-2.47S300 335 305 335m-205-15s-5 5-10 5m13.25-2.47S100 335 95 335" class="eyeline2"/>
</g>
<g>
<path d="M144 363c-1.66 0-3-1.34-3-3s1.34-3 3-3 3 1.34 3 3-1.34 3-3 3m-15-1c-1.11 0-2-.89-2-2s.89-2 2-2 2 .89 2 2-.89 2-2 2m-15 1c-1.66 0-3-1.34-3-3s1.34-3 3-3 3 1.34 3 3-1.34 3-3 3m-15-1c-1.11 0-2-.89-2-2s.89-2 2-2 2 .89 2 2-.89 2-2 2m5 11c-1.66 0-3-1.34-3-3s1.34-3 3-3 3 1.34 3 3-1.34 3-3 3m10-1c-1.11 0-2-.89-2-2s.89-2 2-2 2 .89 2 2-.89 2-2 2m10 1c-1.66 0-3-1.34-3-3s1.34-3 3-3 3 1.34 3 3-1.34 3-3 3m10-1c-1.11 0-2-.89-2-2s.89-2 2-2 2 .89 2 2-.89 2-2 2m10 11c-1.66 0-3-1.34-3-3s1.34-3 3-3 3 1.34 3 3-1.34 3-3 3m-15-1c-1.11 0-2-.89-2-2s.89-2 2-2 2 .89 2 2-.89 2-2 2m-10 0c-1.11 0-2-.89-2-2s.89-2 2-2 2 .89 2 2-.89 2-2 2m-10 1c-1.66 0-3-1.34-3-3s1.34-3 3-3 3 1.34 3 3-1.34 3-3 3m-10-1c-1.11 0-2-.89-2-2s.89-2 2-2 2 .89 2 2-.89 2-2 2m45-10c-1.11 0-2-.89-2-2s.89-2 2-2 2 .89 2 2-.89 2-2 2m-50 0c-1.11 0-2-.89-2-2s.89-2 2-2 2 .89 2 2-.89 2-2 2m60 5c-1.11 0-2-.89-2-2s.89-2 2-2 2 .89 2 2-.89 2-2 2m0-10c-1.11 0-2-.89-2-2s.89-2 2-2 2 .89 2 2-.89 2-2 2m-48-15c-1.11 0-2-.89-2-2s.89-2 2-2 2 .89 2 2-.89 2-2 2m15 2c-2.21 0-4-1.79-4-4s1.79-4 4-4 4 1.79 4 4-1.79 4-4 4m15-2c-1.11 0-2-.89-2-2s.89-2 2-2 2 .89 2 2-.89 2-2 2m-15 41c-1.66 0-3-1.34-3-3s1.34-3 3-3 3 1.34 3 3-1.34 3-3 3m15-1c-1.11 0-2-.89-2-2s.89-2 2-2 2 .89 2 2-.89 2-2 2m-30 0c-1.11 0-2-.89-2-2s.89-2 2-2 2 .89 2 2-.89 2-2 2m150-29c-1.66 0-3-1.34-3-3s1.34-3 3-3 3 1.34 3 3-1.34 3-3 3m15-1c-1.11 0-2-.89-2-2s.89-2 2-2 2 .89 2 2-.89 2-2 2m15 1c-1.66 0-3-1.34-3-3s1.34-3 3-3 3 1.34 3 3-1.34 3-3 3m15-1c-1.11 0-2-.89-2-2s.89-2 2-2 2 .89 2 2-.89 2-2 2m-5 11c-1.66 0-3-1.34-3-3s1.34-3 3-3 3 1.34 3 3-1.34 3-3 3m-10-1c-1.11 0-2-.89-2-2s.89-2 2-2 2 .89 2 2-.89 2-2 2m-10 1c-1.66 0-3-1.34-3-3s1.34-3 3-3 3 1.34 3 3-1.34 3-3 3m-10-1c-1.11 0-2-.89-2-2s.89-2 2-2 2 .89 2 2-.89 2-2 2m-10 11c-1.66 0-3-1.34-3-3s1.34-3 3-3 3 1.34 3 3-1.34 3-3 3m15-1c-1.11 0-2-.89-2-2s.89-2 2-2 2 .89 2 2-.89 2-2 2m10 0c-1.11 0-2-.89-2-2s.89-2 2-2 2 .89 2 2-.89 2-2 2m10 1c-1.66 0-3-1.34-3-3s1.34-3 3-3 3 1.34 3 3-1.34 3-3 3m10-1c-1.11 0-2-.89-2-2s.89-2 2-2 2 .89 2 2-.89 2-2 2m-45-10c-1.11 0-2-.89-2-2s.89-2 2-2 2 .89 2 2-.89 2-2 2m50 0c-1.11 0-2-.89-2-2s.89-2 2-2 2 .89 2 2-.89 2-2 2m-60 5c-1.11 0-2-.89-2-2s.89-2 2-2 2 .89 2 2-.89 2-2 2m0-10c-1.11 0-2-.89-2-2s.89-2 2-2 2 .89 2 2-.89 2-2 2m48-15c-1.11 0-2-.89-2-2s.89-2 2-2 2 .89 2 2-.89 2-2 2m-15 2c-2.21 0-4-1.79-4-4s1.79-4 4-4 4 1.79 4 4-1.79 4-4 4m-15-2c-1.11 0-2-.89-2-2s.89-2 2-2 2 .89 2 2-.89 2-2 2m15 41c-1.66 0-3-1.34-3-3s1.34-3 3-3 3 1.34 3 3-1.34 3-3 3m-15-1c-1.11 0-2-.89-2-2s.89-2 2-2 2 .89 2 2-.89 2-2 2m30 0c-1.11 0-2-.89-2-2s.89-2 2-2 2 .89 2 2-.89 2-2 2" style="opacity:.251;mix-blend-mode:multiply;fill:#8b6135"/>
</g>
<g transform="scale(0.9440000000000001 1) translate(11.864406779661005 0)">
<path fill="#272421" stroke="#000" d="M188 454c-2.15-1.84 26.15-1.84 24 0-7 6-12 26-12 26s-5-20-12-26Zm62 31c-10 20-30 20-50 20s-40 0-50-20c5-5 35 20 50-5 15 25 45 0 50 5Z" class="shp0"/>
</g>
<g transform="translate(99.23500000000001 289.1206538286518) rotate(-7 40.76499999999999 20.879346171348168)">
<path d="M73.63 30.14S62.25 5.74 32.3 7.42C12.33 8.54 7.9 18.8 7.9 18.8l5.83 14.7c30.23 3.31 59.9-3.36 59.9-3.36" style="fill:#fff"/><path d="M40.63 30.99a9.99 9.99 0 0 0 9.42-10.55 9.985 9.985 0 0 0-10.54-9.42 10 10 0 0 0-9.43 10.54c.31 5.52 5.03 9.74 10.55 9.43" style="fill:#000"/><path d="M73.63 30.14S72.51 10.17 32.3 7.42C12.33 8.54 7.9 18.8 7.9 18.8l5.83 14.7" style="fill:none;stroke:#000;stroke-width:5"/>
</g>
<g transform="translate(219.235 289.1206538286518) rotate(7 40.76499999999999 20.879346171348168) scale(-1 1) translate(-81.52999999999999 0)">
<path d="M73.63 30.14S62.25 5.74 32.3 7.42C12.33 8.54 7.9 18.8 7.9 18.8l5.83 14.7c30.23 3.31 59.9-3.36 59.9-3.36" style="fill:#fff"/><path d="M40.63 30.99a9.99 9.99 0 0 0 9.42-10.55 9.985 9.985 0 0 0-10.54-9.42 10 10 0 0 0-9.43 10.54c.31 5.52 5.03 9.74 10.55 9.43" style="fill:#000"/><path d="M73.63 30.14S72.51 10.17 32.3 7.42C12.33 8.54 7.9 18.8 7.9 18.8l5.83 14.7" style="fill:none;stroke:#000;stroke-width:5"/>
</g>
<g transform="translate(101.2030185317928 258.55217041664764) rotate(12 38.796981468207214 11.447829583352352)">
<path fill="#272421" stroke="#000" d="M72.888 12.598c5.271-4.016 2.566-8.267 2.566-8.267-1.018-.86-27.007.663-35.814.759-9.087.098-35.151 9.7-38.194 12.84-.01 2.629 27.698-1.318 40.149-1.733 9.802-.326 26.406.125 31.293-3.6z"/>
</g>
<g transform="translate(221.2030185317928 258.55217041664764) rotate(-12 38.796981468207214 11.447829583352352) scale(-1 1) translate(-77.59396293641443 0)">
<path fill="#272421" stroke="#000" d="M72.888 12.598c5.271-4.016 2.566-8.267 2.566-8.267-1.018-.86-27.007.663-35.814.759-9.087.098-35.151 9.7-38.194 12.84-.01 2.629 27.698-1.318 40.149-1.733 9.802-.326 26.406.125 31.293-3.6z"/>
</g>
<g transform="translate(169 428) scale(-1 1) translate(-62 0)">
<path d="m1 22 60-10L51 2" style="fill:none;stroke:#000;stroke-width:5"/>
</g>
<g transform="translate(0 7.5) scale(0.93 0.93) translate(15.053763440860203 27.28494623655912)">
<path fill="#74453d" stroke="#000" stroke-width="5" d="M190 325s-5 20-5 45c-20-5-15 15-15 20 20 0 15 10 30 10s10-10 30-10c0-5 5-25-15-20 0-25-5-45-5-45" class="nose"/>
</g>
<g transform="scale(-1 1) translate(-399.4656607916533 0) scale(0.9440000000000001 1) translate(11.848557735345635 0)">
<path fill="#272421" stroke="#000" stroke-width="5" d="M60.24 310h-9.98s-.07-4.66-.15-9.25c-.13-7.33-.35-14.71-.63-22-.27-7.13-.61-14.16-.97-20.97-.36-6.66-.75-13.11-1.15-19.21-.4-5.99-.82-11.65-1.23-16.87-.82-10.14-1.64-18.6-2.28-24.6-.66-5.8-1.11-9.4-1.14-10.19-.28-6.19 4.6-16.43 4.6-16.43l10.34-1.07 6.77-19.05 14.5-3.03 6.87-18.83 15.24-2.24 7.59-17.19 14.65-.88 11.11-15.77L145 94.35l10.35-10.28 9.9 3.53 11.34-8.05 7.93 5.52 10.19-6.93 8.77 6.13 9.09-6.13 9.76 6.92 8.13-5.51 10.79 8.02 9.87-3.53 9.66 10.2 10.42-1.95 10.35 17.32 8.88-3.62 11.75 19.55 11.52-.07 9.1 20.54 13.83 2.61 6.05 18.75 9.89.68s4.51 10.05 4.18 16.3c-.04.8-.5 4.45-1.17 10.35-.64 6.13-1.45 14.79-2.26 25.2-.4 5.36-.79 11.19-1.17 17.36-.37 6.28-.73 12.92-1.05 19.77-.32 6.98-.61 14.18-.84 21.45-.23 7.4-.39 14.87-.48 22.25l-.1 9.27h-9.98s.25-12.6.34-16.86c.11-4.27-9.33-15.45-14.07-18.99-2.37-1.82-3.08-14.23-4.38-27.82-1.35-14.27-3.37-29.86-8.11-35.85-9.64-12.96-18.21-20.72-26.42-24.83-8.27-4.12-16.12-3.99-24.39-1.96-8.35 2.37-17.13 6.82-27.2 10.64-10.13 4.15-21.53 7.6-35 7.52-13.21.16-24.36-3.22-34.3-7.31-9.9-3.76-18.58-8.15-26.95-10.45-8.34-1.94-16.37-1.96-24.99 2.28-8.55 4.24-17.56 12.12-27.68 25.16-4.92 6.01-7.23 21.43-8.74 35.49-1.35 13.37-2.03 25.59-4.36 27.4-4.68 3.5-13.9 14.55-13.75 18.78.14 4.23.54 16.8.54 16.8Z"/>
</g>
</svg>