<svg xmlns="http://www.w3.org/2000/svg" version="1.2" baseProfile="tiny" width="100%" height="100%" viewBox="0 0 400 600" preserveAspectRatio="xMinYMin meet">
<g transform="scale(1.03 1) translate(-5.825242718446607 0)">
<path fill="#f2d6cb" stroke="#000" stroke-width="6" d="M10 600s-10-65 50-65c5 0 25-15 70-35l70-200 70 200c45 20 65 35 70 35 60 0 50 65 50 65" class="body"/>
</g>
<g transform="scale(1.03 1) translate(-5.825242718446607 0)">
<g stroke="#000"><path fill="#89bfd3" stroke-width="6" d="M120 505c0 20 50 15 80 35 30-20 80-15 80-35 0 0 50-5 80 5 0 0 20 10 30 40s10 60 10 60H0s0-30 10-60 30-40 30-40c30-10 80-5 80-5Z" class="hockeyPrimary"/><path fill="#7a1319" stroke-width="none" d="m0 600 400 1.8-2-11.8s-8 5-18 5c-40-20-70-30-180-30C80 565 2 590 2 590z" class="lowStripe"/><path fill="#07364f" d="M4.5 577.03S10 580 20 580c30-15 110-20 180-20 90 0 150 5 180 20 10 0 17-2.97 17-2.97l1 12.97s-8 5-18 5c-40-20-110-22.48-180-22.48-80 0-150 2.48-180 22.48-10 0-18-5-18-5z" class="stripeAccent"/><path fill="#07364f" stroke-width="2" d="M120 505c0 20 50 15 80 30 30-15 80-10 80-30l15-1c0 41-40 21-95 56-55-35-95-15-95-56z" class="collarAccent"/><path fill="none" stroke-width="6" d="M120 505c0 20 50 15 80 35 30-20 80-15 80-35 0 0 50-5 80 5 0 0 20 10 30 40s10 60 10 60H0s0-30 10-60 30-40 30-40c30-10 80-5 80-5Z" class="hockeyStroke"/><path fill="#7a1319" stroke-width="2" d="M180 528.21h40l10 17.05L200 564l-30-18.74z" class="shieldSecondary"/></g>
</g>
<g transform="translate(32 290.6) scale(1.36 1.36) translate(-6.0882352941176485 -9.10588235294118) translate(13.120000000000001 -3)">
<path fill="#f2d6cb" stroke="#000" stroke-width="6" d="M43 13S23 3 13 3 3 23 3 33s3 20 13 30 27-10 27-10z"/>
</g>
<g transform="translate(322 290.6) scale(-1.36 1.36) translate(-39.911764705882355 -9.10588235294118) translate(13.120000000000001 -3)">
<path fill="#f2d6cb" stroke="#000" stroke-width="6" d="M43 13S23 3 13 3 3 23 3 33s3 20 13 30 27-10 27-10z"/>
</g>
<g transform="scale(0.896 1) translate(23.21428571428571 0)">
<path fill="#f2d6cb" stroke="#000" stroke-width="6" d="M200 100c100 0 150 60 150 200 0 20-20 120-25 130-4.47 8.94-105 70-105 70h-40s-98.29-56.58-105-70c-5-10-25-110-25-130 0-140 50-200 150-200Z" class="head"/><path fill="rgba(0,0,0,0.02)" d="M200 410c30 0 50 10 50 10 30 0 90-15 90-120h10c0 20-20 120-25 130-4.47 8.94-105 70-105 70h-40s-98.29-56.58-105-70c-5-10-25-110-25-130h10c0 105 60 120 90 120 0 0 20-10 50-10" class="faceShave"/><path fill="rgba(0,0,0,0.02)" d="M60 300H50c0-140 50-200 150-200s150 60 150 200h-10v-10c0-5-10-20-15-25s-5-55-15-65c-40-40-60 0-110 0s-70-40-110 0c-10 10-10 60-15 65s-15 20-15 25z" class="headShave"/>
</g>
<g>
<path fill="none" stroke="#000" stroke-width="2" d="M240 355s20-10 45 0m-125 0s-20-10-45 0" class="eyeline5"/>
</g>
<g transform="translate(147 424.5) scale(1.77 1.77) translate(-1.305084745762712 -4.567796610169492)">
<path fill="none" stroke="#000" stroke-width="2" d="m0 20 6-10-6-9" class="shp0"/>
</g>
<g transform="translate(247 424.5) scale(-1.77 1.77) translate(-4.694915254237288 -4.567796610169492)">
<path fill="none" stroke="#000" stroke-width="2" d="m0 20 6-10-6-9" class="shp0"/>
</g>
<g transform="scale(0.896 1) translate(23.21428571428571 0)">
<path fill="#2C1608" stroke="#000" d="M188 458c2-2 22-2 24 0s-8 16-12 16-14-14-12-16Z" class="shp0"/>
</g>
<g transform="translate(109.23478204917245 289.9689533323849) rotate(-10 30.765217950827548 20.031046667615087)">
<path d="M55.37 34.72S58.4 2.3 28.53 5.07C-1.35 7.83 7.21 35.16 7.21 35.16" style="fill:#fff;stroke:#000;stroke-width:5"/><path d="M30.74 28.97c-3.31.3-6.22-2.12-6.53-5.43a5.985 5.985 0 0 1 5.42-6.52 5.987 5.987 0 0 1 6.53 5.42c.3 3.3-2.12 6.22-5.42 6.53Z" style="fill:#000;stroke:#000;stroke-width:5"/>
</g>
<g transform="translate(229.23478204917245 289.9689533323849) rotate(10 30.765217950827548 20.031046667615087) scale(-1 1) translate(-61.530435901655096 0)">
<path d="M55.37 34.72S58.4 2.3 28.53 5.07C-1.35 7.83 7.21 35.16 7.21 35.16" style="fill:#fff;stroke:#000;stroke-width:5"/><path d="M30.74 28.97c-3.31.3-6.22-2.12-6.53-5.43a5.985 5.985 0 0 1 5.42-6.52 5.987 5.987 0 0 1 6.53 5.42c.3 3.3-2.12 6.22-5.42 6.53Z" style="fill:#000;stroke:#000;stroke-width:5"/>
</g>
<g transform="translate(99.82499568420577 257.4995916989505) rotate(-7 40.175004315794226 12.50040830104949)">
<path fill="#2C1608" stroke="#000" d="M25.63 10.05c-1.19.67-3.29 2.29-4.68 3.61s-2.66 2.8-2.84 3.29-.13.96.1 1.04 3.5-.28 7.26-.79c3.76-.52 9.13-1.06 11.92-1.21 2.8-.15 9.17-.28 14.14-.29 4.98-.01 11.48.12 14.44.29s6.61.25 8.12.19c1.5-.05 3.59-.27 4.63-.47 1.65-.32 1.85-.53 1.46-1.57-.33-.91-1.38-1.55-4.09-2.53-2-.73-6.19-1.72-9.32-2.22-3.13-.49-8.67-1.19-12.3-1.55-3.64-.36-9.39-.72-12.78-.81-4.83-.11-7.02.06-10.04.83-2.12.53-4.83 1.52-6.02 2.19Z"/><path d="M0 10h5v5H0z" style="fill:none"/>
</g>
<g transform="translate(219.82499568420576 257.4995916989505) rotate(7 40.175004315794226 12.50040830104949) scale(-1 1) translate(-80.35000863158845 0)">
<path fill="#2C1608" stroke="#000" d="M25.63 10.05c-1.19.67-3.29 2.29-4.68 3.61s-2.66 2.8-2.84 3.29-.13.96.1 1.04 3.5-.28 7.26-.79c3.76-.52 9.13-1.06 11.92-1.21 2.8-.15 9.17-.28 14.14-.29 4.98-.01 11.48.12 14.44.29s6.61.25 8.12.19c1.5-.05 3.59-.27 4.63-.47 1.65-.32 1.85-.53 1.46-1.57-.33-.91-1.38-1.55-4.09-2.53-2-.73-6.19-1.72-9.32-2.22-3.13-.49-8.67-1.19-12.3-1.55-3.64-.36-9.39-.72-12.78-.81-4.83-.11-7.02.06-10.04.83-2.12.53-4.83 1.52-6.02 2.19Z"/><path d="M0 10h5v5H0z" style="fill:none"/>
</g>
<g transform="translate(0 5)">
<path d="m170 440 10-10h40l10 10" style="fill:none;stroke:#000;stroke-width:5"/>
</g>
<g transform="translate(150.27785841680208 317.5) scale(-1.06 1.06) translate(-96.62982232206386 -2.97169811320755)">
<path fill="#f2d6cb" stroke="#000" stroke-width="5" d="M36.03 47c-19.25.25-26.57 32.37-4.37 27.13 9-2.13 8.25 4.12 18.12 4.37 9.5.24 5.75-6.12 16.38-3.25 22.01 5.96 18.75-28-.21-28.02M50 55.6S51.25 45 51.25 35 50 5 50 5" class="nose"/><path d="M40 95h20v5H40z" style="fill:none"/>
</g>
<g transform="scale(-1 1) translate(-400.1627066713039 0) scale(0.896 1) translate(23.22372851217388 0)">
<path fill="#2C1608" stroke="#000" stroke-width="4" d="M198.45 65.22c-.9 1.22-1.58 3.59-1.5 5.25.07 1.67.82 4.83 1.66 7.03s1.72 4.79 1.96 5.75c.28 1.16-.16 1.76-1.32 1.77-.96.01-2.65-.65-3.75-1.47s-2.68-1.52-3.5-1.55c-.82-.04-2.4.86-3.5 2s-2.56 2.05-3.25 2.03-1.36-1.48-1.5-3.26c-.23-2.99-.58-3.28-4.75-4.01-2.49-.43-5.62-1.84-7-3.15-1.37-1.3-4.42-3.65-6.77-5.23-3.84-2.59-4.54-2.75-7-1.61-1.5.69-4.02 2.27-5.59 3.5l-2.86 2.23C159.25 93.49 161.55 99 161 99s-4.71-2.02-9.25-4.48-9.04-4.49-10-4.5-1.96.32-2.21.73.65 2.44 2 4.5S144 99.22 144 99.5s-3.15.5-7 .5c-4.79 0-8.66.67-12.25 2.1-2.89 1.16-7.28 2.72-9.75 3.47-3.87 1.17-4.81 1.16-6.75-.1-1.24-.81-2.81-1.46-3.5-1.45s-3.39 1.81-6 4L94 112c-8.91-3.12-12.96-4.02-14.75-4.02L76 108c2.91 5.81 5.6 10.42 7.86 14s3.89 6.84 3.62 7.25c-.26.41-3.74.76-7.73.77l-7.25.03c-26.19 15.07-35.64 21.12-37.9 23.16l-4.1 3.71c4.26.06 7.75-.82 10.5-1.92s5-1.55 5-1-1.36 3.14-3.01 5.75c-1.66 2.61-3.01 5.31-3 6 .01.91 1.51 1.11 5.51.75 3.02-.28 5.52-.16 5.54.25s-1.91 2.55-4.3 4.75c-2.4 2.2-8.26 7.04-13.05 10.75-5.77 4.49-8.69 7.42-8.69 8.75 0 1.1.68 2.68 1.5 3.5s2.06 1.51 2.75 1.51c.69.01 3.39-1.34 6-3 2.61-1.65 5.2-3.01 5.75-3.01s1.01.79 1.03 1.75c.01.96-1 2.69-2.25 3.85-1.26 1.15-6.47 4.97-11.59 8.5-5.12 3.52-9.51 7.19-9.75 8.15s.01 2.65.56 3.75c.57 1.14 3.05 2.63 5.75 3.46 2.61.81 5.65 2.4 6.75 3.54l2 2.07c-9.94 9.89-11.48 12.17-11.49 14.18-.01 1.85.89 3.42 2.74 4.79 1.51 1.12 3.2 2.16 3.75 2.32.55.15-.45 2.5-2.23 5.21-1.77 2.71-3.23 5.72-3.25 6.68-.02 1.41.85 1.75 4.48 1.75 3.33 0 4.5.39 4.5 1.5 0 .82-.56 3.51-1.25 5.98-1.15 4.11-1.09 4.59.75 5.9 1.83 1.3 1.9 1.83.84 6.27-.64 2.67-.98 5.19-.75 5.6.22.41 1.31.52 2.41.25 1.52-.38 2.12.1 2.5 2 .33 1.67 1.5 2.83 3.5 3.5 1.65.55 3 1.23 3 1.5s-1.3 2.41-2.89 4.75-3.05 5.15-3.25 6.25c-.32 1.77.25 2.03 4.89 2.25 2.89.14 5.26.36 5.27.5s-.64 2.05-1.44 4.25c-1.39 3.79-1.35 4.12.73 6.23 1.2 1.22 2.64 2.23 3.19 2.24s3.59-2.57 6.76-5.73l5.76-5.74L62 284c5.76-9.69 8.62-13.85 10.07-15.5s3.15-4.01 3.78-5.25 2.5-10.91 4.15-21.5c1.66-10.59 3.87-22.18 4.92-25.75 1.08-3.65 3.16-7.87 4.75-9.62 1.72-1.9 4.99-3.82 8.33-4.89 5.08-1.64 12.59-1.79 97.5-2.01 50.8-.14 95.14.16 99 .66 3.85.5 9.02 1.91 11.48 3.13 2.47 1.23 5.26 3.58 6.22 5.23.95 1.65 2.65 6.6 3.78 11 1.12 4.4 3.17 15.54 4.53 24.75 1.37 9.21 3.17 18.1 3.99 19.75s1.95 3.23 2.5 3.5 3.26 3.99 6.03 8.25l5.04 7.75-.09 24c8.93 8.9 12.2 11.49 13.02 11.51.82.01 2.32-.55 3.33-1.24 1.63-1.13 1.71-1.77.69-5.77-.91-3.59-.88-4.65.17-5.23.72-.41 3-.75 5.06-.75 2.32-.01 3.75-.5 3.76-1.27 0-.69-1.57-3.73-3.49-6.75l-3.51-5.5c4.64-1.94 6.44-3.4 6.99-4.5s1.9-2 3-2c1.84 0 1.95-.46 1.38-5.75-.49-4.62-.29-6 1-7 1.48-1.14 1.49-1.7.06-6.5-1.28-4.29-1.33-5.38-.25-5.98.72-.41 3-.75 5.06-.75 3.41-.02 3.69-.23 3.11-2.27-.35-1.24-1.92-4.16-3.5-6.5-1.57-2.34-2.75-4.38-2.61-4.55.14-.16 1.49-.84 3-1.5s3.13-2.21 3.6-3.45.61-3.15.32-4.25c-.3-1.1-2.93-4.36-5.86-7.25L367 225c5.04-3.75 7.63-5.1 9-5.42 1.38-.32 3.31-1.36 4.29-2.33 1-.98 1.66-2.84 1.5-4.22-.22-1.88-2.9-4.27-11.29-10.07-8.94-6.18-11.05-8.11-11.25-10.28-.14-1.47.09-2.67.5-2.66.41.02 2.89 1.37 5.5 3 2.61 1.64 5.48 2.87 6.38 2.73s2.24-1.15 2.99-2.25c1.13-1.67 1.13-2.33.02-4-.73-1.1-6.01-5.65-11.73-10.11-5.73-4.46-11.31-9.09-12.41-10.28l-2-2.18c10.58.06 11.5-.21 11.47-1.68-.01-.96-1.36-3.89-3-6.5-1.63-2.61-2.63-4.76-2.22-4.77.41 0 3.45.9 6.75 2.01s6.36 1.68 6.81 1.26c.45-.41-1.19-2.55-3.64-4.75s-10.45-7.37-17.78-11.5c-7.32-4.12-14.23-8.24-15.35-9.15-1.97-1.6-1.98-1.76-.31-5 .95-1.84 3.55-6.27 5.77-9.85s4.03-7.06 4.02-7.75-1.03-1.25-2.27-1.26c-1.24 0-5.18.93-8.75 2.09l-6.5 2.09c-7.36-6.33-9.95-8.17-10.5-8.17s-2.19.79-3.64 1.75c-2.23 1.48-3.2 1.57-6.25.6-1.99-.63-6.31-2.31-9.61-3.72-4.44-1.91-7.75-2.59-12.75-2.61-3.71-.01-6.74-.36-6.73-.77s.9-1.87 1.98-3.25c1.08-1.37 1.97-3.29 1.98-4.25.02-1.47-.59-1.65-3.73-1.14l-3.75.61c1.16-7.15 1.16-9.23.75-9.25-.41-.01-1.71 1-2.88 2.25-1.16 1.26-2.63 3.29-3.25 4.53-.75 1.51-2.02 2.25-3.87 2.25-1.51 0-4.1-.41-5.75-.92-2.44-.75-5.1-.19-14.25 3-6.19 2.16-11.7 3.7-12.25 3.42s-2.46-2.52-4.25-4.98c-2.4-3.31-4.1-4.62-6.5-5-2.11-.34-4.22-1.72-6-3.93-1.51-1.88-4.57-7.06-6.8-11.5-2.22-4.45-4.34-8.09-4.7-8.09s-1.39 1-2.3 2.22Z" class="afro2"/>
</g>
</svg>