<svg xmlns="http://www.w3.org/2000/svg" version="1.2" baseProfile="tiny" width="100%" height="100%" viewBox="0 0 400 600" preserveAspectRatio="xMinYMin meet">
<g transform="scale(0.97 1) translate(6.185567010309284 0)">
<path fill="#bb876f" stroke="#000" stroke-width="6" d="M10 600s0-50 60-70 70-50 70-50l60-180 60 180s10 30 70 50 60 70 60 70" class="body"/>
</g>
<g transform="scale(0.97 1) translate(6.185567010309284 0)">
<path fill="#89bfd3" stroke="#000" stroke-width="6" d="M80 610s10-30 10-90l20-10s10 80 90 80 90-80 90-80l20 10c0 60 10 90 10 90z" class="primary"/><path fill="#7a1319" d="M85 575v25h230v-25h-65s-20 15-50 15-50-15-50-15z" class="secondary"/><path fill="none" stroke="#000" stroke-width="16" d="M90 520c0 60-10 90-10 90m230-90c0 60 10 90 10 90M110 510s10 80 90 80 90-80 90-80" class="outline"/><path fill="none" stroke="#89bfd3" stroke-width="12" d="M90 520c0 60-10 90-10 90m230-90c0 60 10 90 10 90M110 510s10 80 90 80 90-80 90-80" class="stripe-primary"/><path fill="none" stroke="#07364f" stroke-width="6" d="M90 520c0 60-10 90-10 90m230-90c0 60 10 90 10 90M110 510s10 80 90 80 90-80 90-80" class="stripe-accent"/>
</g>
<g transform="translate(33.53553390593274 291.01362954285077) scale(0.96 0.96) translate(0.89435275391947 1.4160987690478857) translate(15.05106781186548 -2.979591836734694)">
<path fill="#bb876f" stroke="#000" stroke-width="6" d="M40 14S10-1 5 4s0 30 5 40-5 25 30 20z"/>
</g>
<g transform="translate(323.53553390593277 291.01362954285077) scale(-0.96 0.96) translate(-43.823284942053995 1.4160987690478857) translate(15.05106781186548 -2.979591836734694)">
<path fill="#bb876f" stroke="#000" stroke-width="6" d="M40 14S10-1 5 4s0 30 5 40-5 25 30 20z"/>
</g>
<g transform="scale(0.884 1) translate(26.244343891402714 0)">
<path fill="#bb876f" stroke="#000" stroke-width="6" d="M200 100c100 0 150 60 150 200 0 70-30 150-40 160s-60 40-110 40-100-30-110-40-40-90-40-160c0-140 50-200 150-200Z" class="head"/><path fill="rgba(0,0,0,0.01)" d="M200 410c30 0 50 10 50 10 30 0 90-15 90-120h10c0 70-30 150-40 160s-60 40-110 40-100-30-110-40-40-90-40-160h10c0 105 60 120 90 120 0 0 20-10 50-10" class="faceShave"/><path fill="rgba(0,0,0,0.01)" d="M60 300H50c0-140 50-200 150-200s150 60 150 200h-10v-10c0-5-10-20-15-25s-5-55-15-65c-40-40-60 0-110 0s-70-40-110 0c-10 10-10 60-15 65s-15 20-15 25z" class="headShave"/>
</g>
<g>
<path fill="none" stroke="#000" stroke-width="2" d="M240 340s25 10 40 0m-120 0s-25 10-40 0" class="eyeline4"/>
</g>
<g transform="translate(144.4807306749833 416) scale(0.48 0.48) translate(5.979208435434768 20.583333333333336)">
<path fill="none" stroke="#000" stroke-width="2" d="M9 2s-12.5 8.95-4 34" class="shp0"/>
</g>
<g transform="translate(244.4807306749833 416) scale(-0.48 0.48) translate(-17.017747085468184 20.583333333333336)">
<path fill="none" stroke="#000" stroke-width="2" d="M9 2s-12.5 8.95-4 34" class="shp0"/>
</g>
<g>
<path d="m102 385 9.08-25m13.62 0-9.08 25m13.62 0 9.07-25m13.62 0-9.08 25m106.22 0 9.08-25m13.61 0-9.07 25m13.61 0 9.08-25m13.62 0-9.08 25" style="opacity:.251;mix-blend-mode:multiply;fill:none;stroke:#8b6135;stroke-width:4.4"/>
</g>
<g transform="translate(104.75510204081633 287) rotate(8 35.24489795918368 23)">
<path d="M67 35c0-4 6-32-24-32S3 15 3 23s12 20 24 20 40-4 40-8Z" style="fill:#fff;stroke:#000;stroke-width:5"/><path d="M39 29c-3.32 0-6-2.68-6-6s2.68-6 6-6 6 2.68 6 6-2.68 6-6 6Z" style="fill:#000;stroke:#000;stroke-width:5"/>
</g>
<g transform="translate(224.75510204081633 287) rotate(-8 35.24489795918368 23) scale(-1 1) translate(-70.48979591836736 0)">
<path d="M67 35c0-4 6-32-24-32S3 15 3 23s12 20 24 20 40-4 40-8Z" style="fill:#fff;stroke:#000;stroke-width:5"/><path d="M39 29c-3.32 0-6-2.68-6-6s2.68-6 6-6 6 2.68 6 6-2.68 6-6 6Z" style="fill:#000;stroke:#000;stroke-width:5"/>
</g>
<g transform="translate(-127.5 -8.774999999999977) rotate(12 267.5 278.775)">
<path fill="#272421" stroke="#000" d="m235 280 65 5-5-12.45-55 2.45z"/>
</g>
<g transform="translate(-7.5 -8.774999999999977) rotate(-12 267.5 278.775) scale(-1 1) translate(-535 0)">
<path fill="#272421" stroke="#000" d="m235 280 65 5-5-12.45-55 2.45z"/>
</g>
<g transform="translate(168 428.3888888888889) scale(-1 1) translate(-64 0)">
<path d="M32 3c10 0 15 0 25 5 5 5 5 5 0 10s-15 0-25 0-20 5-25 0-5-5 0-10c10-5 15-5 25-5Z" style="fill:#fff;stroke:#000;stroke-width:5"/>
</g>
<g transform="translate(137.77777777777777 318.75) scale(-1.13 1.13) translate(-96.34218289085547 -5.89601769911504)">
<path fill="#bb876f" stroke="#000" stroke-width="5" d="M40 40s50-30 0 30"/>
</g>
<g transform="scale(0.884 1) translate(26.20414918174164 0)">
<path fill="#272421" stroke="#000" stroke-width="4" d="M60 310H50s-.19-5 0-10C60 40-10 145 200 80c34.77-10.76 43.79-21.21 65 0 5 5 5 45 5 45s3.04-26.26 10-25c110 20 60-20 70 200 .23 4.99 0 10 0 10h-10v-20c0-5-10-20-15-25s-5-65-15-75-60 10-110 10-100-20-110-10-10 70-15 75-15 20-15 25z"/>
</g>
</svg>