<svg xmlns="http://www.w3.org/2000/svg" version="1.2" baseProfile="tiny" width="100%" height="100%" viewBox="0 0 400 600" preserveAspectRatio="xMinYMin meet">
<g transform="scale(1 1) translate(0 0)">
<path fill="#f0c5a3" stroke="#000" stroke-width="6" d="M20 600s-5-60 40-70c15 0 45-15 90-35l50-195 50 195c45 20 75 35 90 35 45 10 45 70 45 70" class="body"/>
</g>
<g transform="scale(1 1) translate(0 0)">
<path fill="#89bfd3" stroke="#000" stroke-width="6" d="M80 610s10-30 10-90l20-10s10 80 90 80 90-80 90-80l20 10c0 60 10 90 10 90z" class="jersey"/><path fill="none" stroke="#000" stroke-width="16" d="M90 520c0 60-10 90-10 90m230-90c0 60 10 90 10 90M110 510s10 80 90 80 90-80 90-80" class="outline"/><path fill="none" stroke="#07364f" stroke-width="8" d="M90 520c0 60-10 90-10 90m230-90c0 60 10 90 10 90m-210-98s15 78 90 78 90-78 90-78" class="stripe-accent"/><path fill="none" stroke="#89bfd3" stroke-width="4" d="M86 522c0 60-10 88-10 88m238-88c0 60 10 88 10 88M114 510s11 76 86 76 86-76 86-76" class="stripe-primary"/><path fill="none" stroke="#7a1319" stroke-width="4" d="M94 518c0 60-10 92-10 92m222-92c0 60 10 92 10 92m-210-96s12 80 94 80 94-80 94-80" class="stripe-secondary"/>
</g>
<g transform="translate(32 290.6) scale(1.44 1.44) translate(-7.027777777777778 -10.511111111111113) translate(2.2700000000000014 -3)">
<path fill="#f0c5a3" stroke="#000" stroke-width="6" d="M43 13S23 3 13 3 3 23 3 33s3 20 13 30 27-10 27-10z"/>
</g>
<g transform="translate(322 290.6) scale(-1.44 1.44) translate(-38.97222222222222 -10.511111111111113) translate(2.2700000000000014 -3)">
<path fill="#f0c5a3" stroke="#000" stroke-width="6" d="M43 13S23 3 13 3 3 23 3 33s3 20 13 30 27-10 27-10z"/>
</g>
<g transform="scale(0.9660000000000001 1) translate(7.039337474120066 0)">
<path fill="#f0c5a3" stroke="#000" stroke-width="6" d="M200 100c100 0 150 60 150 200 0 150-80 160-110 190-10 10-20 10-40 10s-30 0-40-10c-30-30-110-40-110-190 0-140 50-200 150-200Z" class="head"/><path fill="rgba(0,0,0,0)" d="M60 300H50c0-140 50-200 150-200s150 60 150 200h-10v-10c0-5-10-20-15-25s-5-55-15-65c-40-40-60 0-110 0s-70-40-110 0c-10 10-10 60-15 65s-15 20-15 25z" class="headShave"/><path fill="rgba(0,0,0,0)" d="M200 410c30 0 50 10 50 10 30 0 90-15 90-120h10c0 150-80 160-110 190-10 10-20 10-40 10s-29.88-.12-40-10c-30-29.31-110-40-110-190h10c0 105 60 120 90 120 0 0 20-10 50-10" class="faceShave"/>
</g>
<g>
<path fill="none" stroke="#000" stroke-width="2" d="M240 355s20-10 45 0m-125 0s-20-10-45 0" class="eyeline5"/>
</g>
<g transform="translate(147 424.5) scale(0.76 0.76) translate(0.9473684210526315 3.3157894736842106)">
<path fill="none" stroke="#000" stroke-width="2" d="m0 20 6-10-6-9" class="shp0"/>
</g>
<g transform="translate(247 424.5) scale(-0.76 0.76) translate(-6.947368421052632 3.3157894736842106)">
<path fill="none" stroke="#000" stroke-width="2" d="m0 20 6-10-6-9" class="shp0"/>
</g>
<g>
<path d="M144 363c-1.66 0-3-1.34-3-3s1.34-3 3-3 3 1.34 3 3-1.34 3-3 3m-15-1c-1.11 0-2-.89-2-2s.89-2 2-2 2 .89 2 2-.89 2-2 2m-15 1c-1.66 0-3-1.34-3-3s1.34-3 3-3 3 1.34 3 3-1.34 3-3 3m-15-1c-1.11 0-2-.89-2-2s.89-2 2-2 2 .89 2 2-.89 2-2 2m5 11c-1.66 0-3-1.34-3-3s1.34-3 3-3 3 1.34 3 3-1.34 3-3 3m10-1c-1.11 0-2-.89-2-2s.89-2 2-2 2 .89 2 2-.89 2-2 2m10 1c-1.66 0-3-1.34-3-3s1.34-3 3-3 3 1.34 3 3-1.34 3-3 3m10-1c-1.11 0-2-.89-2-2s.89-2 2-2 2 .89 2 2-.89 2-2 2m10 11c-1.66 0-3-1.34-3-3s1.34-3 3-3 3 1.34 3 3-1.34 3-3 3m-15-1c-1.11 0-2-.89-2-2s.89-2 2-2 2 .89 2 2-.89 2-2 2m-10 0c-1.11 0-2-.89-2-2s.89-2 2-2 2 .89 2 2-.89 2-2 2m-10 1c-1.66 0-3-1.34-3-3s1.34-3 3-3 3 1.34 3 3-1.34 3-3 3m-10-1c-1.11 0-2-.89-2-2s.89-2 2-2 2 .89 2 2-.89 2-2 2m45-10c-1.11 0-2-.89-2-2s.89-2 2-2 2 .89 2 2-.89 2-2 2m-50 0c-1.11 0-2-.89-2-2s.89-2 2-2 2 .89 2 2-.89 2-2 2m60 5c-1.11 0-2-.89-2-2s.89-2 2-2 2 .89 2 2-.89 2-2 2m0-10c-1.11 0-2-.89-2-2s.89-2 2-2 2 .89 2 2-.89 2-2 2m-48-15c-1.11 0-2-.89-2-2s.89-2 2-2 2 .89 2 2-.89 2-2 2m15 2c-2.21 0-4-1.79-4-4s1.79-4 4-4 4 1.79 4 4-1.79 4-4 4m15-2c-1.11 0-2-.89-2-2s.89-2 2-2 2 .89 2 2-.89 2-2 2m-15 41c-1.66 0-3-1.34-3-3s1.34-3 3-3 3 1.34 3 3-1.34 3-3 3m15-1c-1.11 0-2-.89-2-2s.89-2 2-2 2 .89 2 2-.89 2-2 2m-30 0c-1.11 0-2-.89-2-2s.89-2 2-2 2 .89 2 2-.89 2-2 2m150-29c-1.66 0-3-1.34-3-3s1.34-3 3-3 3 1.34 3 3-1.34 3-3 3m15-1c-1.11 0-2-.89-2-2s.89-2 2-2 2 .89 2 2-.89 2-2 2m15 1c-1.66 0-3-1.34-3-3s1.34-3 3-3 3 1.34 3 3-1.34 3-3 3m15-1c-1.11 0-2-.89-2-2s.89-2 2-2 2 .89 2 2-.89 2-2 2m-5 11c-1.66 0-3-1.34-3-3s1.34-3 3-3 3 1.34 3 3-1.34 3-3 3m-10-1c-1.11 0-2-.89-2-2s.89-2 2-2 2 .89 2 2-.89 2-2 2m-10 1c-1.66 0-3-1.34-3-3s1.34-3 3-3 3 1.34 3 3-1.34 3-3 3m-10-1c-1.11 0-2-.89-2-2s.89-2 2-2 2 .89 2 2-.89 2-2 2m-10 11c-1.66 0-3-1.34-3-3s1.34-3 3-3 3 1.34 3 3-1.34 3-3 3m15-1c-1.11 0-2-.89-2-2s.89-2 2-2 2 .89 2 2-.89 2-2 2m10 0c-1.11 0-2-.89-2-2s.89-2 2-2 2 .89 2 2-.89 2-2 2m10 1c-1.66 0-3-1.34-3-3s1.34-3 3-3 3 1.34 3 3-1.34 3-3 3m10-1c-1.11 0-2-.89-2-2s.89-2 2-2 2 .89 2 2-.89 2-2 2m-45-10c-1.11 0-2-.89-2-2s.89-2 2-2 2 .89 2 2-.89 2-2 2m50 0c-1.11 0-2-.89-2-2s.89-2 2-2 2 .89 2 2-.89 2-2 2m-60 5c-1.11 0-2-.89-2-2s.89-2 2-2 2 .89 2 2-.89 2-2 2m0-10c-1.11 0-2-.89-2-2s.89-2 2-2 2 .89 2 2-.89 2-2 2m48-15c-1.11 0-2-.89-2-2s.89-2 2-2 2 .89 2 2-.89 2-2 2m-15 2c-2.21 0-4-1.79-4-4s1.79-4 4-4 4 1.79 4 4-1.79 4-4 4m-15-2c-1.11 0-2-.89-2-2s.89-2 2-2 2 .89 2 2-.89 2-2 2m15 41c-1.66 0-3-1.34-3-3s1.34-3 3-3 3 1.34 3 3-1.34 3-3 3m-15-1c-1.11 0-2-.89-2-2s.89-2 2-2 2 .89 2 2-.89 2-2 2m30 0c-1.11 0-2-.89-2-2s.89-2 2-2 2 .89 2 2-.89 2-2 2" style="opacity:.251;mix-blend-mode:multiply;fill:#8b6135"/>
</g>
<g transform="scale(0.9660000000000001 1) translate(7.039337474120066 0)">
<path fill="#0f0902" fill-rule="evenodd" stroke="#000" d="M200 405c55 0 75 20 75 35s-15 40-25 55c-5 5-35 15-50 15s-46.67-10-50-15c-10-15-25-40-25-55s20-35 75-35Zm-55 35c5 20 15 30 35 30 10 0 10-15 20-15s10 15 20 15c20 0 30-10 35-30 4.85-19.4-25-20-55-20s-59.85.6-55 20Z" class="shp0"/>
</g>
<g transform="translate(98.84448468063304 285.57536672288046) rotate(-3 41.155515319366955 24.42463327711953)">
<path d="M73.67 39.73c3.92-10.47 2.35-25.38 2.35-25.38s-35.86-6.27-45.8-5.22c-9.95 1.04-24.34 7.59-24.34 7.59s-1.44 10.21 7.6 24.34z" style="fill:#fff"/><path d="M45.8 37.65c-4.13.43-8.17-5.88-9.04-14.13s1.76-15.27 5.89-15.71c4.12-.43 8.16 5.88 9.03 14.13s-1.76 15.27-5.88 15.71" style="fill:#000"/><path d="M73.67 39.73c4.45-5.49 2.35-25.38 2.35-25.38s-35.86-6.27-45.8-5.22c-9.95 1.04-24.34 7.59-24.34 7.59s1.57 14.92 7.6 24.34" style="fill:none;stroke:#000;stroke-width:5"/>
</g>
<g transform="translate(218.84448468063306 285.57536672288046) rotate(3 41.155515319366955 24.42463327711953) scale(-1 1) translate(-82.31103063873391 0)">
<path d="M73.67 39.73c3.92-10.47 2.35-25.38 2.35-25.38s-35.86-6.27-45.8-5.22c-9.95 1.04-24.34 7.59-24.34 7.59s-1.44 10.21 7.6 24.34z" style="fill:#fff"/><path d="M45.8 37.65c-4.13.43-8.17-5.88-9.04-14.13s1.76-15.27 5.89-15.71c4.12-.43 8.16 5.88 9.03 14.13s-1.76 15.27-5.88 15.71" style="fill:#000"/><path d="M73.67 39.73c4.45-5.49 2.35-25.38 2.35-25.38s-35.86-6.27-45.8-5.22c-9.95 1.04-24.34 7.59-24.34 7.59s1.57 14.92 7.6 24.34" style="fill:none;stroke:#000;stroke-width:5"/>
</g>
<g transform="translate(101.91746012211166 257.0658529346995) rotate(-14 38.082539877888344 12.934147065300508)">
<path fill="#0f0902" stroke="#000" d="M74.17 18.39c5.31-3.87-1.66-7.27-1.66-7.27s-20.66-2.78-26.56-3.1c-7.56-.72-22.76-1.1-22.76-1.1S10.98 10 18.3 16.95c10.59 2.96 14.71-1.32 31.19-.91 16.85.28 21.74 4.37 24.68 2.35Z"/><path d="M0 10h5v5H0z" style="fill:none"/>
</g>
<g transform="translate(221.91746012211166 257.0658529346995) rotate(14 38.082539877888344 12.934147065300508) scale(-1 1) translate(-76.16507975577669 0)">
<path fill="#0f0902" stroke="#000" d="M74.17 18.39c5.31-3.87-1.66-7.27-1.66-7.27s-20.66-2.78-26.56-3.1c-7.56-.72-22.76-1.1-22.76-1.1S10.98 10 18.3 16.95c10.59 2.96 14.71-1.32 31.19-.91 16.85.28 21.74 4.37 24.68 2.35Z"/><path d="M0 10h5v5H0z" style="fill:none"/>
</g>
<g transform="translate(160 425.5888888888889)">
<path d="M40 9C50 9 65-1 70 4s10 15 5 20-25 0-35 0-30 5-35 0S5 9 10 4s20 5 30 5Z" style="fill:#fff;stroke:#000;stroke-width:5"/>
</g>
<g transform="translate(168.19198795027955 347.310851842392) scale(0.97 0.97) translate(0.9837529499913548 0.7017262316785984)">
<path fill="#f0c5a3" stroke="#000" stroke-width="5" d="m28 1 16.043 32.815s.75 10.848-18.228 10.417c-4.731-.107-4.624.436-6.246-.08" class="nose" transform="matrix(1 0 -.07193 1 2.942 .274)"/>
</g>
<g transform="scale(0.9660000000000001 1) translate(7.0594639429176915 0)">
<path fill="#0f0902" stroke="#000" stroke-width="4" d="M150.74 72.13c-.03.43 3.16 2.66 7.19 5.01l7.25 4.23c-2.73 1.64-5.17 2.7-7.19 3.42s-5.44 1.68-7.62 2.13c-2.17.46-8.51 2.16-14.1 3.78-5.58 1.62-13.19 3.82-16.92 4.89-3.72 1.06-8.92 2.51-11.56 3.21-2.63.7-7.71 1.98-11.28 2.84-3.57.85-8.51 2.19-11 2.97-2.48.77-5.22 1.7-6.09 2.05-.93.38-1.52 1-1.41 1.5.1.47 1.67 1.32 3.56 1.92 1.86.6 4.47 1.49 5.8 1.98s2.4 1.21 2.39 1.6c-.01.38-1.65 2.29-3.66 4.23-2 1.94-5.6 5.05-8 6.91s-5.64 4.41-7.21 5.67c-1.57 1.27-4.28 3.68-6 5.36-1.73 1.69-4.32 4.59-5.75 6.45s-4.77 7.64-7.43 12.83c-2.66 5.2-4.83 9.83-4.83 10.29 0 .47-.26.91-.58.99-.31.08-.76 1.08-.98 2.23-.38 1.92-.29 2.14 1.14 2.68 1.25.48 1.55.94 1.55 2.42 0 1.01-.37 5.64-.82 10.3-.45 4.65-1.23 11-1.72 14.1l-1.73 10.71c-.45 2.8-1.07 8.38-1.37 12.41s-1 10.42-1.55 14.2c-.91 6.34-.92 6.95-.08 7.9.56.63 1.16 3 1.55 6.1.35 2.79.64 7.62.64 10.72.01 3.1.26 8.56.57 12.12.3 3.57.92 8.14 1.37 10.16.45 2.01.96 5.38 1.14 7.47.3 3.71.36 3.83 2.28 4.65 1.09.47 1.97 1.1 1.97 1.41s1.08 1.33 2.4 2.27c1.57 1.13 3.08 1.71 4.37 1.71 1.32 0 2.38-.43 3.19-1.28.67-.71 2.67-4.21 4.45-7.77 1.78-3.57 3.67-7.12 4.2-7.9s2.11-3.57 3.51-6.2c1.4-2.64 3.22-6.96 4.04-9.59.82-2.64 1.73-6.19 2.02-7.9.29-1.7.94-8.18 1.45-14.38.5-6.2 1.42-13.82 2.05-16.92.62-3.1 1.8-7.66 2.63-10.13 1.49-4.43 1.54-4.49 4.05-5.28 1.39-.44 6.21-.96 10.71-1.16l8.18-.35c1.44-7.84 2.03-9.5 2.82-10.13.82-.65 1.83-.81 3.67-.59 1.39.16 4.95.9 7.89 1.64 2.95.73 7.9 2.53 11 4 3.1 1.46 6.78 2.79 8.18 2.95 2.48.29 2.55.26 3.12-1.61.47-1.53.91-1.94 2.25-2.08.93-.1 3.2.38 5.06 1.05 1.86.68 6.69 2.91 10.72 4.96 4.03 2.04 9.87 5.39 12.97 7.44s6.53 4.49 7.62 5.42c1.08.93 3.62 2.87 5.64 4.31 2.01 1.44 4.11 2.63 4.65 2.64.65.01.99-.41.99-1.25.01-.7-1.26-4.38-2.82-8.18-1.55-3.8-2.66-7.03-2.45-7.19.21-.15.97-.28 1.69-.28.73 0 3.22.51 5.55 1.13s5.56 1.65 7.19 2.29 3.6 1.08 4.37.99c1.35-.17 1.42-.37 1.59-4.41.09-2.33.48-4.56.84-4.96.37-.4 1.82-.72 3.21-.71 1.4.01 5.2.5 8.46 1.08 3.26.59 7.83 1.83 10.15 2.76 2.33.93 7.15 3.02 10.72 4.64 3.57 1.63 7.88 3.47 9.59 4.1 1.7.62 3.35 1.35 3.66 1.63s1.46.5 2.54.51c1.93 0 1.97-.05 1.61-1.85-.2-1.01-1.62-4.12-3.15-6.92a794 794 0 0 0-5.14-9.16c-1.29-2.25-2.34-4.22-2.34-4.37 0-.16 1.2-.44 2.68-.64 1.47-.19 2.99-.64 3.37-.98.39-.35.83-2.61.99-5.01l.29-4.37c3.28-.57 7.15-.57 10.72-.37 3.56.2 7.21.56 8.1.79 1.23.32 2.58 1.81 5.5 6.07 2.14 3.1 4.33 6.59 4.87 7.76s1.3 2.12 1.69 2.12c.42-.01.7-.76.7-1.85-.01-1.01.33-2.97.74-4.37.42-1.39 1.88-4.74 3.26-7.43 2.12-4.18 2.64-4.82 3.48-4.38.54.29 3.14 2.69 5.78 5.33 2.64 2.63 5.9 6.5 7.25 8.6 1.35 2.09 3.63 6.4 5.07 9.58s3.12 7.63 3.72 9.87c.61 2.25 1.48 6 1.93 8.32.46 2.33 1.25 9.31 1.75 15.51.51 6.21 1.16 12.68 1.45 14.39.29 1.7 1.2 5.26 2.02 7.89.82 2.64 2.64 6.95 4.04 9.59s2.98 5.43 3.51 6.2c.53.78 2.42 4.33 4.2 7.9s3.78 7.06 4.45 7.77c.81.86 1.87 1.28 3.19 1.28 1.3.01 2.8-.58 4.37-1.7 1.32-.94 2.4-1.96 2.4-2.27s.89-.95 1.97-1.41c1.93-.83 1.99-.95 2.29-4.66.17-2.09.68-5.45 1.13-7.47s1.07-6.58 1.38-10.15c.3-3.57.55-9.03.56-12.13 0-3.1.29-7.92.64-10.71.39-3.11.99-5.48 1.55-6.11.84-.95.84-1.56-.08-7.89-.55-3.78-1.24-10.17-1.54-14.2-.31-4.04-.92-9.62-1.38-12.41-.45-2.79-1.23-7.62-1.72-10.72-.5-3.1-1.27-9.45-1.72-14.1s-.82-9.28-.82-10.29c0-1.48.29-1.95 1.55-2.43 1.42-.54 1.51-.75 1.14-2.67-.23-1.15-.67-2.16-.99-2.23-.32-.08-.58-.53-.58-.99 0-.47-2.25-5.23-5-10.58s-6.75-12.23-8.88-15.3c-2.14-3.06-5.84-8.39-8.23-11.84s-5.47-8.18-6.83-10.5c-1.37-2.33-2.81-5.12-3.21-6.21-.63-1.72-.56-2.45.49-5.78.66-2.09 1.22-4.5 1.23-5.36.02-.85-.3-1.83-.7-2.18-.4-.34-2.76-1.4-5.25-2.35-2.48-.95-6.41-2.6-8.74-3.67-2.32-1.06-5.05-2.6-6.06-3.42l-1.83-1.49c1.84-5.78 2.25-8.62 2.25-11.42 0-3.8-.13-4.37-.98-4.35-.55.01-2.01.84-3.25 1.86s-4.28 3.27-6.77 5.01c-2.48 1.75-6.92 4.32-9.87 5.73-2.94 1.41-6.88 3.1-8.74 3.76-1.86.67-4.65 1.55-6.2 1.98-2.58.7-2.97.67-4.51-.3-.93-.59-2.71-2.12-3.95-3.41-1.24-1.28-2.96-2.7-3.81-3.14s-2.25-.79-3.1-.79c-1.04.01-2.3.74-3.81 2.21l-2.25 2.19c-9.18-3.78-14.96-5.79-18.76-6.9-4.79-1.4-8.03-2.02-10.57-2.02-2.55 0-3.67.22-3.68.71 0 .38 1.03 1.72 2.3 2.96s2.51 2.63 2.76 3.1c.35.66-.36.56-3.29-.47-2.05-.72-8.68-2.55-14.73-4.06s-15.06-3.39-20.02-4.17c-4.97-.79-10.55-1.72-12.41-2.08s-5.16-.87-7.33-1.14-5.25-.65-6.84-.84c-2.22-.27-2.9-.18-2.95.42Z"/>
</g>
</svg>