<svg xmlns="http://www.w3.org/2000/svg" version="1.2" baseProfile="tiny" width="100%" height="100%" viewBox="0 0 400 600" preserveAspectRatio="xMinYMin meet">
<g transform="scale(1.04 1) translate(-7.692307692307699 0)">
<path fill="#bb876f" stroke="#000" stroke-width="6" d="M10 600s-10-65 50-65c5 0 25-15 70-35l70-200 70 200c45 20 65 35 70 35 60 0 50 65 50 65" class="body"/>
</g>
<g transform="scale(1.04 1) translate(-7.692307692307699 0)">
<g stroke="#000"><path fill="#89bfd3" stroke-width="6" d="M120 505c0 35 50 25 80 45 30-20 80-10 80-45 30-25 90-15 100-5s10.07 20.41 15 50c5 30 5 20 5 60H0c0-40 0-29.59 5-59.59 4.93-29.59 5-39.38 15-50.41 9.5-10.48 70-20 100 5Z" class="footballPrimary"/><path fill="#7a1319" stroke-width="2" d="M120 505c0 35 50 25 80 45 30-20 80-10 80-45l15-10c5 60-55 45-95 75-40-30-100-15-95-75z" class="collarSecondary"/><path fill="none" stroke-width="6" d="M120 505c0 35 50 25 80 45 30-20 80-10 80-45 30-25 90-15 100-5s10.07 20.41 15 50c5 30 5 20 5 60H0c0-40 0-30 5-60 4.93-29.59 5-38.97 15-50 9.5-10.48 70-20 100 5Z" class="footballStroke"/><path fill="none" stroke-width="2" d="M19.5 570s72.5-2.11 81.5-20m280 20s-71-2.11-80-20" class="shp3"/></g>
</g>
<g transform="translate(33.53553390593274 291.01362954285077) scale(0.89 0.89) translate(2.6529115397161784 4.200562640771252) translate(16.911067811865475 -2.979591836734694)">
<path fill="#bb876f" stroke="#000" stroke-width="6" d="M40 14S10-1 5 4s0 30 5 40-5 25 30 20z"/>
</g>
<g transform="translate(323.53553390593277 291.01362954285077) scale(-0.89 0.89) translate(-45.58184372785071 4.200562640771252) translate(16.911067811865475 -2.979591836734694)">
<path fill="#bb876f" stroke="#000" stroke-width="6" d="M40 14S10-1 5 4s0 30 5 40-5 25 30 20z"/>
</g>
<g transform="scale(0.872 1) translate(29.357798165137616 0)">
<path fill="#bb876f" stroke="#000" stroke-width="6" d="M200 100c100 0 150 60 150 200 0 120-10 150-110 190 0 0-20 10-40 10s-40-10-40-10C60 450 50 420 50 300c0-140 50-200 150-200Z" class="head"/><path fill="rgba(0,0,0,0)" d="M60 300H50c0-140 50-200 150-200s150 60 150 200h-10v-10c0-5-10-20-15-25s-5-55-15-65c-40-40-60 0-110 0s-70-40-110 0c-10 10-10 60-15 65s-15 20-15 25z" class="headShave"/><path fill="rgba(0,0,0,0)" d="M200 410c30 0 50 10 50 10 30 0 90-15 90-120h10c0 120-10 150-110 190 0 0-20 10-40 10s-40-10-40-10C60 450 50 420 50 300h10c0 105 60 120 90 120 0 0 20-10 50-10" class="faceShave"/>
</g>
<g transform="translate(144.4807306749833 416) scale(1.64 1.64) translate(-2.1538612000065203 -7.414634146341463)">
<path fill="none" stroke="#000" stroke-width="2" d="M9 2s-12.5 8.95-4 34" class="shp0"/>
</g>
<g transform="translate(244.4807306749833 416) scale(-1.64 1.64) translate(-8.884677450026896 -7.414634146341463)">
<path fill="none" stroke="#000" stroke-width="2" d="M9 2s-12.5 8.95-4 34" class="shp0"/>
</g>
<g transform="translate(-120.05628769726621 -25.250646588503912) rotate(-5 260.0562876972662 335.2506465885039)">
<path d="M259.01 349.54c-13.866-.398-24.58-15.35-24.58-28.312 14.975.007 34.492.1 51.25-.275.204 12.79-11.737 29.015-26.67 28.587" style="fill:#fff;stroke:#000;stroke-linecap:round;stroke-linejoin:round;stroke-width:5"/><path d="M259.552 325.177c-10 0-10 15 0 15s10-15 0-15" style="fill:#000;stroke:#000;stroke-linecap:round;stroke-linejoin:round;stroke-width:4"/>
</g>
<g transform="translate(-0.056287697266213854 -25.250646588503912) rotate(5 260.0562876972662 335.2506465885039) scale(-1 1) translate(-520.1125753945324 0)">
<path d="M259.01 349.54c-13.866-.398-24.58-15.35-24.58-28.312 14.975.007 34.492.1 51.25-.275.204 12.79-11.737 29.015-26.67 28.587" style="fill:#fff;stroke:#000;stroke-linecap:round;stroke-linejoin:round;stroke-width:5"/><path d="M259.552 325.177c-10 0-10 15 0 15s10-15 0-15" style="fill:#000;stroke:#000;stroke-linecap:round;stroke-linejoin:round;stroke-width:4"/>
</g>
<g transform="translate(101.2222222222222 261) rotate(14 38.77777777777779 9)">
<path fill="#272421" stroke="#000" d="M73 13c8-8 0-12 0-12S45 5 37 5H1s20 12 40 12c12 0 28 0 32-4Z"/>
</g>
<g transform="translate(221.2222222222222 261) rotate(-14 38.77777777777779 9) scale(-1 1) translate(-77.55555555555559 0)">
<path fill="#272421" stroke="#000" d="M73 13c8-8 0-12 0-12S45 5 37 5H1s20 12 40 12c12 0 28 0 32-4Z"/>
</g>
<g transform="translate(169 424.5)">
<path d="M11 8S4.33 28 31 28 51 8 51 8 41 4.37 31 4.37 11 8 11 8Zm50-5L51 8M1 3l10 5" style="fill:#fff;stroke:#000;stroke-width:5"/>
</g>
<g transform="translate(0 7.5) scale(0.82 0.82) translate(43.902439024390254 79.57317073170734)">
<path fill="#bb876f" stroke="#000" stroke-width="5" d="M190 325s-5 20-5 45c-20-5-15 15-15 20 20 0 15 10 30 10s10-10 30-10c0-5 5-25-15-20 0-25-5-45-5-45" class="nose"/>
</g>
<g transform="scale(0.872 1) translate(29.36973993917827 0)">
<path fill="#272421" stroke="#000" stroke-width="4" d="M198.45 65.22c-.9 1.22-1.58 3.59-1.5 5.25.07 1.67.82 4.83 1.66 7.03s1.72 4.79 1.96 5.75c.28 1.16-.16 1.76-1.32 1.77-.96.01-2.65-.65-3.75-1.47s-2.68-1.52-3.5-1.55c-.82-.04-2.4.86-3.5 2s-2.56 2.05-3.25 2.03-1.36-1.48-1.5-3.26c-.23-2.99-.58-3.28-4.75-4.01-2.49-.43-5.62-1.84-7-3.15-1.37-1.3-4.42-3.65-6.77-5.23-3.84-2.59-4.54-2.75-7-1.61-1.5.69-4.02 2.27-5.59 3.5l-2.86 2.23C159.25 93.49 161.55 99 161 99s-4.71-2.02-9.25-4.48-9.04-4.49-10-4.5-1.96.32-2.21.73.65 2.44 2 4.5S144 99.22 144 99.5s-3.15.5-7 .5c-4.79 0-8.66.67-12.25 2.1-2.89 1.16-7.28 2.72-9.75 3.47-3.87 1.17-4.81 1.16-6.75-.1-1.24-.81-2.81-1.46-3.5-1.45s-3.39 1.81-6 4L94 112c-8.91-3.12-12.96-4.02-14.75-4.02L76 108c2.91 5.81 5.6 10.42 7.86 14s3.89 6.84 3.62 7.25c-.26.41-3.74.76-7.73.77l-7.25.03c-26.19 15.07-35.64 21.12-37.9 23.16l-4.1 3.71c4.26.06 7.75-.82 10.5-1.92s5-1.55 5-1-1.36 3.14-3.01 5.75c-1.66 2.61-3.01 5.31-3 6 .01.91 1.51 1.11 5.51.75 3.02-.28 5.52-.16 5.54.25s-1.91 2.55-4.3 4.75c-2.4 2.2-8.26 7.04-13.05 10.75-5.77 4.49-8.69 7.42-8.69 8.75 0 1.1.68 2.68 1.5 3.5s2.06 1.51 2.75 1.51c.69.01 3.39-1.34 6-3 2.61-1.65 5.2-3.01 5.75-3.01s1.01.79 1.03 1.75c.01.96-1 2.69-2.25 3.85-1.26 1.15-6.47 4.97-11.59 8.5-5.12 3.52-9.51 7.19-9.75 8.15s.01 2.65.56 3.75c.57 1.14 3.05 2.63 5.75 3.46 2.61.81 5.65 2.4 6.75 3.54l2 2.07c-9.94 9.89-11.48 12.17-11.49 14.18-.01 1.85.89 3.42 2.74 4.79 1.51 1.12 3.2 2.16 3.75 2.32.55.15-.45 2.5-2.23 5.21-1.77 2.71-3.23 5.72-3.25 6.68-.02 1.41.85 1.75 4.48 1.75 3.33 0 4.5.39 4.5 1.5 0 .82-.56 3.51-1.25 5.98-1.15 4.11-1.09 4.59.75 5.9 1.83 1.3 1.9 1.83.84 6.27-.64 2.67-.98 5.19-.75 5.6.22.41 1.31.52 2.41.25 1.52-.38 2.12.1 2.5 2 .33 1.67 1.5 2.83 3.5 3.5 1.65.55 3 1.23 3 1.5s-1.3 2.41-2.89 4.75-3.05 5.15-3.25 6.25c-.32 1.77.25 2.03 4.89 2.25 2.89.14 5.26.36 5.27.5s-.64 2.05-1.44 4.25c-1.39 3.79-1.35 4.12.73 6.23 1.2 1.22 2.64 2.23 3.19 2.24s3.59-2.57 6.76-5.73l5.76-5.74L62 284c5.76-9.69 8.62-13.85 10.07-15.5s3.15-4.01 3.78-5.25 2.5-10.91 4.15-21.5c1.66-10.59 3.87-22.18 4.92-25.75 1.08-3.65 3.16-7.87 4.75-9.62 1.72-1.9 4.99-3.82 8.33-4.89 5.08-1.64 12.59-1.79 97.5-2.01 50.8-.14 95.14.16 99 .66 3.85.5 9.02 1.91 11.48 3.13 2.47 1.23 5.26 3.58 6.22 5.23.95 1.65 2.65 6.6 3.78 11 1.12 4.4 3.17 15.54 4.53 24.75 1.37 9.21 3.17 18.1 3.99 19.75s1.95 3.23 2.5 3.5 3.26 3.99 6.03 8.25l5.04 7.75-.09 24c8.93 8.9 12.2 11.49 13.02 11.51.82.01 2.32-.55 3.33-1.24 1.63-1.13 1.71-1.77.69-5.77-.91-3.59-.88-4.65.17-5.23.72-.41 3-.75 5.06-.75 2.32-.01 3.75-.5 3.76-1.27 0-.69-1.57-3.73-3.49-6.75l-3.51-5.5c4.64-1.94 6.44-3.4 6.99-4.5s1.9-2 3-2c1.84 0 1.95-.46 1.38-5.75-.49-4.62-.29-6 1-7 1.48-1.14 1.49-1.7.06-6.5-1.28-4.29-1.33-5.38-.25-5.98.72-.41 3-.75 5.06-.75 3.41-.02 3.69-.23 3.11-2.27-.35-1.24-1.92-4.16-3.5-6.5-1.57-2.34-2.75-4.38-2.61-4.55.14-.16 1.49-.84 3-1.5s3.13-2.21 3.6-3.45.61-3.15.32-4.25c-.3-1.1-2.93-4.36-5.86-7.25L367 225c5.04-3.75 7.63-5.1 9-5.42 1.38-.32 3.31-1.36 4.29-2.33 1-.98 1.66-2.84 1.5-4.22-.22-1.88-2.9-4.27-11.29-10.07-8.94-6.18-11.05-8.11-11.25-10.28-.14-1.47.09-2.67.5-2.66.41.02 2.89 1.37 5.5 3 2.61 1.64 5.48 2.87 6.38 2.73s2.24-1.15 2.99-2.25c1.13-1.67 1.13-2.33.02-4-.73-1.1-6.01-5.65-11.73-10.11-5.73-4.46-11.31-9.09-12.41-10.28l-2-2.18c10.58.06 11.5-.21 11.47-1.68-.01-.96-1.36-3.89-3-6.5-1.63-2.61-2.63-4.76-2.22-4.77.41 0 3.45.9 6.75 2.01s6.36 1.68 6.81 1.26c.45-.41-1.19-2.55-3.64-4.75s-10.45-7.37-17.78-11.5c-7.32-4.12-14.23-8.24-15.35-9.15-1.97-1.6-1.98-1.76-.31-5 .95-1.84 3.55-6.27 5.77-9.85s4.03-7.06 4.02-7.75-1.03-1.25-2.27-1.26c-1.24 0-5.18.93-8.75 2.09l-6.5 2.09c-7.36-6.33-9.95-8.17-10.5-8.17s-2.19.79-3.64 1.75c-2.23 1.48-3.2 1.57-6.25.6-1.99-.63-6.31-2.31-9.61-3.72-4.44-1.91-7.75-2.59-12.75-2.61-3.71-.01-6.74-.36-6.73-.77s.9-1.87 1.98-3.25c1.08-1.37 1.97-3.29 1.98-4.25.02-1.47-.59-1.65-3.73-1.14l-3.75.61c1.16-7.15 1.16-9.23.75-9.25-.41-.01-1.71 1-2.88 2.25-1.16 1.26-2.63 3.29-3.25 4.53-.75 1.51-2.02 2.25-3.87 2.25-1.51 0-4.1-.41-5.75-.92-2.44-.75-5.1-.19-14.25 3-6.19 2.16-11.7 3.7-12.25 3.42s-2.46-2.52-4.25-4.98c-2.4-3.31-4.1-4.62-6.5-5-2.11-.34-4.22-1.72-6-3.93-1.51-1.88-4.57-7.06-6.8-11.5-2.22-4.45-4.34-8.09-4.7-8.09s-1.39 1-2.3 2.22Z" class="afro2"/>
</g>
</svg>