<svg xmlns="http://www.w3.org/2000/svg" version="1.2" baseProfile="tiny" width="100%" height="100%" viewBox="0 0 400 600" preserveAspectRatio="xMinYMin meet">
<g transform="scale(0.97 1) translate(6.260330578512401 0)">
<path fill="#ddb7a0" stroke="#000" stroke-width="6" d="M20 600s-5-60 40-70c15 0 45-15 90-35l50-195 50 195c45 20 75 35 90 35 45 10 45 70 45 70" class="body"/>
</g>
<g transform="scale(0.97 1) translate(6.2628865979381505 0)">
<g stroke="#000"><path fill="#07364f" stroke-width="3" d="M120 505s35 40 80 40 80-40 80-40v95H120z" class="s0"/><path fill="#89bfd3" stroke-width="6" d="M120 504.6c10 45.4 80 55.4 90 65.4s10 40 10 40H-5s5-40 5-50 10-30 40-40 50 0 80-15.4z" class="s0"/><path fill="#89bfd3" stroke-width="6" d="M360 520c30 10 40 30 40 40s10 50 10 50H180s0-40 10-50 80-10 90-55c30 15 50 5 80 15z" class="s0"/><path fill="#89bfd3" stroke-width="1.5" d="M196 597c-2.8 0-5-2.2-5-5s2.2-5 5-5 5 2.2 5 5-2.2 5-5 5zm-2-5h1m2 0h1" class="s1"/></g><path stroke="#000" d="M293.8 513c.6 0 1.2.6 1.2 1.2 0 .7-1.5 4.4-3.4 8.3-1.9 3.8-5.4 9-7.8 11.3-2.4 2.4-7 5.9-10.3 7.7-3.3 1.9-10.3 5.3-15.5 7.5-5.2 2.3-13.8 5.8-19 7.7-5.2 2-11.3 4.8-13.5 6.3s-5.7 4.7-7.8 7.1c-2.2 2.5-4.4 6.5-5.2 9.4-.8 2.7-1.8 10.1-2.2 16.3-.5 6.7-1.2 11.1-1.8 10.9-.6-.3-.9-4.8-.7-11.8.2-7.2.9-13.4 2-16.9 1.2-3.8 3.2-7.2 6.8-11 2.8-3 7.8-6.9 11-8.6 3.2-1.8 7.7-3.7 9.9-4.4s7.8-2.8 12.5-4.7c4.7-2 13-5.8 18.4-8.7 6.8-3.5 11.2-6.5 14-9.7 2.3-2.5 5.4-7.5 7.1-11.2 1.6-3.6 3.6-6.7 4.2-6.7zm6.4 1c1.1 0 1.9.7 1.9 1.7s-1.7 5.4-3.9 9.8c-2.3 4.6-6 10-8.8 12.9-2.6 2.6-7.7 6.5-11.3 8.6s-10.6 5.6-15.5 7.8c-5 2.2-13.4 5.6-18.8 7.6-5.3 2-11.4 4.7-13.5 5.9-2 1.3-5.2 4-7 6-1.7 2.1-3.6 5.4-4.1 7.4-.5 2.1-1.2 8.6-1.5 14.5-.6 9.9-.8 10.8-2.6 10.8-1.9 0-2-.5-1.4-10.8.3-5.9 1.2-13.1 2-16 1-3.9 2.6-6.4 6.1-9.8 2.7-2.6 6.4-5.5 8.3-6.4 1.9-1 10-4.4 18-7.5s18.3-7.6 23-10 10.3-5.9 12.5-7.8c2.2-1.8 5.9-6.2 8.2-9.8 2.3-3.5 4.7-8.3 5.4-10.7.8-3.1 1.6-4.2 3-4.2zm6.9 1c1.1 0 2 .7 2 1.5s-2.1 5.7-4.7 10.7c-3.4 6.9-6.4 11-11.2 15.8-4.8 4.7-9.3 7.9-16.6 11.7-5.5 2.8-15 7.1-21 9.6-6.1 2.4-13.3 5.2-16 6.2-2.8 1.1-6.9 3.7-9.3 5.9-2.5 2.4-4.7 5.6-5.3 7.6-.5 1.9-.9 5.7-.9 8.5 0 2.7-.3 7.1-.7 9.8-.5 2.7-1.3 4.7-2.1 4.7-.9 0-1.1-2.4-.6-10.3.3-5.6 1.1-11.8 1.6-13.7.6-1.9 2-4.6 3.1-6 1-1.4 3.6-3.7 5.6-5.1 2-1.5 9.2-4.8 16.1-7.4s16.5-6.7 21.5-9.1c4.9-2.3 11.8-6.1 15.2-8.3 3.5-2.3 8.2-6.5 10.4-9.4 2.3-2.8 5.7-8.4 7.6-12.2 1.8-3.9 3.3-7.8 3.3-8.8s.8-1.7 2-1.7zm-196.8-5c.7 0 2.2 1.9 3.2 4.2 1.1 2.4 3.8 7.4 6 11.2 2.3 3.8 6.3 9.2 9.1 11.9s9.9 8.4 16 12.7c6 4.3 13.2 9.8 15.9 12.2 3.3 2.9 5.9 6.4 7.9 10.8 2.7 5.9 3 7.8 3.6 20.3.6 12.6.5 13.7-1.2 13.7-1.5 0-1.7-1.1-1.7-9.8 0-5.3-.4-12.2-1-15.2s-2-7.3-3.1-9.5-3.5-5.5-5.2-7.3c-1.8-1.8-7.5-6.2-12.7-9.7s-12.5-8.8-16.3-11.9c-3.7-3.1-8.4-8.2-10.6-11.4-2.1-3.1-5.2-8.4-6.8-11.7-1.7-3.3-3.4-7-3.8-8.3-.5-1.5-.3-2.2.7-2.2zm-5 1c.4 0 3 4.8 5.7 10.7 3.6 8.2 6.3 12.4 10.7 17.2 3.3 3.5 10.6 9.8 16.4 14s11.6 8.4 13 9.2c1.4.9 4 3.1 5.9 5s4.5 5.6 5.8 8.4c1.8 4 2.4 7.6 3.8 31.5h-2.3c-2.1 0-2.2-.3-2.5-12.3-.3-10-.7-13.1-2.6-17.2-1.2-2.8-3.2-6.1-4.4-7.4-1.2-1.2-6.7-5.4-12.2-9.1-5.5-3.8-13.2-9.6-17-12.8-3.9-3.3-9-8.8-11.5-12.3-2.4-3.5-6.2-10.2-8.3-14.9-3.1-6.7-3.6-8.7-2.5-9.2.7-.4 1.6-.8 2-.8zm-7.5 3c.5-.1 3.5 5.2 6.8 11.7 4.3 8.5 7.7 13.6 12 18.2 3.3 3.5 9.4 9 13.5 12.1s10.8 7.9 14.8 10.6 8.4 6.6 9.8 8.6c1.7 2.7 2.7 6.2 3.4 12 .5 4.6 1 10.9 1 14 0 4-.4 5.8-1.3 5.8-.8 0-1.4-3.5-2-12-.4-6.6-1.3-13.4-2.1-15.3-.8-1.7-2.1-3.9-2.8-4.7-.7-.9-6.4-5.1-12.7-9.5s-14.8-11.2-18.9-15c-4.1-3.9-9.3-9.7-11.5-13s-5.6-9.2-7.4-13c-1.8-3.9-3.3-7.8-3.3-8.8 0-.9.3-1.7.7-1.7z" class="s3"/><path fill="#7a1319" stroke="#7a1319" d="M296.4 513c.9 0 1.2 1 1 3.2-.3 1.8-1.7 5.8-3.2 8.8s-5.2 7.9-8.2 11c-3.7 3.8-8.5 7.1-14.5 10.2-5 2.6-15.5 7.2-23.5 10.3s-16.1 6.5-18 7.5c-1.9.9-5.6 3.8-8.3 6.4-3.5 3.4-5.1 5.9-6.1 9.8-.8 2.9-1.7 10.1-2 16-.5 9.4-.8 10.8-2.4 10.8s-1.6-.9-.9-11.2c.4-6.2 1.4-13.6 2.2-16.3.8-2.9 3-6.9 5.2-9.4 2.1-2.4 5.6-5.6 7.8-7.1s8.3-4.3 13.5-6.3c5.2-1.9 13.8-5.4 19-7.7 5.2-2.2 12.2-5.6 15.5-7.5 3.3-1.8 7.9-5.3 10.3-7.7 2.4-2.3 5.9-7.5 7.8-11.3 1.9-3.9 3.4-7.6 3.4-8.3 0-.6.6-1.2 1.4-1.2zm7.1 1c.9 0 1.5.9 1.5 2.2s-1.5 5.4-3.3 9.3c-1.9 3.8-5.3 9.4-7.6 12.2-2.2 2.9-6.9 7.1-10.4 9.4-3.4 2.2-10.3 6-15.2 8.3-5 2.4-14.6 6.5-21.5 9.1s-14.1 5.9-16.1 7.4c-2 1.4-4.6 3.7-5.6 5.1-1.1 1.4-2.5 4.1-3.2 6-.6 1.9-1.1 6-1.1 9s-.3 7.6-.7 10.3c-.5 2.7-1.3 4.7-2.1 4.7-.9 0-1.1-2.5-.6-10.8.3-5.9 1-12.4 1.5-14.5.5-2 2.4-5.3 4.1-7.4 1.8-2 5-4.7 7-6 2.1-1.2 8.2-3.9 13.6-5.9 5.3-2 13.7-5.4 18.7-7.6 4.9-2.2 11.9-5.7 15.5-7.8s8.7-6 11.3-8.6c2.8-2.9 6.5-8.3 8.8-12.9 2.2-4.4 3.9-8.8 3.9-9.8 0-.9.7-1.7 1.5-1.7zm-196.3-4c.7 0 2.6 3 4.3 6.7 1.6 3.8 5.1 10.1 7.7 14 2.9 4.4 7.5 9.5 11.5 12.9 3.8 3.1 11.1 8.4 16.3 11.9s10.9 7.9 12.7 9.7c1.7 1.8 4.1 5.1 5.2 7.3s2.5 6.5 3.1 9.5 1 9.9 1 15.2c0 7.2-.3 9.8-1.3 9.8-.8 0-1.4-3.7-2-13.2-.6-10.7-1.2-14.3-3-18.3-1.3-2.8-3.9-6.5-5.8-8.4s-4.5-4.1-5.9-5c-1.4-.8-7.2-5-13-9.2s-13.1-10.5-16.4-14c-3.8-4.1-7.6-9.9-10.7-16.2-2.7-5.3-4.9-10.4-4.9-11.2s.6-1.5 1.2-1.5zm-1.7 10.8c2.2 4.8 6.1 11.6 8.5 15.1 2.5 3.5 7.6 9 11.5 12.3 3.8 3.2 11.5 9 17 12.8 5.5 3.7 11 7.9 12.2 9.1 1.2 1.3 3.2 4.6 4.4 7.4 1.9 4.1 2.3 7.2 2.6 17.2.3 10.4.1 12.3-1.2 12.3-1.2 0-1.5-1.3-1.5-5.8 0-3.1-.5-9.4-1-14-.7-5.8-1.7-9.3-3.4-12-1.4-2-5.8-5.9-9.8-8.6s-10.7-7.5-14.8-10.6-10.2-8.6-13.5-12.1c-4.4-4.6-7.7-9.7-12-18.2-4.9-9.7-5.7-12-4.6-12.7 1.2-.7 2.4 1 5.6 7.8z" class="s4"/><g fill="none" stroke="#000" stroke-width="6"><path d="M120 504.6c6.9 37.6 62.2 49.3 67.9 57-7.8 11.2-8 48.4-8 48.4H-5s5-40 5-50 10-30 40-40 50 0 80-15.4z" class="s5"/><path d="M360 520c30 10 40 30 40 40s10 50 10 50H180s0-40 10-50 80-10 90-55c30 15 50 5 80 15z" class="s5"/></g>
</g>
<g transform="translate(33.53553390593274 291.01362954285077) scale(0.94 0.94) translate(1.370072303876635 2.1693427951371866) translate(11.021067811865475 -2.979591836734694)">
<path fill="#ddb7a0" stroke="#000" stroke-width="6" d="M40 14S10-1 5 4s0 30 5 40-5 25 30 20z"/>
</g>
<g transform="translate(323.53553390593277 291.01362954285077) scale(-0.94 0.94) translate(-44.29900449201116 2.1693427951371866) translate(11.021067811865475 -2.979591836734694)">
<path fill="#ddb7a0" stroke="#000" stroke-width="6" d="M40 14S10-1 5 4s0 30 5 40-5 25 30 20z"/>
</g>
<g transform="scale(0.91 1) translate(19.78021978021977 0)">
<path fill="#ddb7a0" stroke="#000" stroke-width="6" d="M200 100c100 0 150 60 150 200 0 70-50 200-150 200S50 370 50 300c0-140 50-200 150-200Z" class="head"/><path fill="rgba(0,0,0,0)" d="M200 410c30 0 50 10 50 10 30 0 90-15 90-120h10c0 70-50 200-150 200S50 370 50 300h10c0 105 60 120 90 120 0 0 20-10 50-10" class="faceShave"/><path fill="rgba(0,0,0,0)" d="M60 300H50c0-140 50-200 150-200s150 60 150 200h-10v-10c0-5-10-20-15-25s-5-55-15-65c-40-40-60 0-110 0s-70-40-110 0c-10 10-10 60-15 65s-15 20-15 25z" class="headShave"/>
</g>
<g>
<path fill="none" stroke="#000" stroke-width="2" d="M220 270s-10 0-10-20m-30 20s10 0 10-20" class="eyeline1"/>
</g>
<g transform="scale(0.91 1) translate(19.730769230769223 0)">
<path fill="#CC9966" stroke="#000" d="M200 450c20 0 10 30 20 30s35-5 45-15c20-20 30-30 40-30 0 70-65 80-105 80S95 505 95 435c10 0 20 10 40 30 10 10 35 15 45 15s0-30 20-30Zm-50-25c-5-5 25-20 35-20 5 0 10 5 15 5s10-5 15-5c10 0 40 15 35 20s-5-5-50-5-45 10-50 5Z" class="shp0"/><path fill="#CC9966" fill-rule="evenodd" stroke="#000" d="M60 300H50s-8.85 85.38 20 95c15 5 0-34.1 0-34.1S65 355 60 300Zm279 0h10s8.85 85.38-20 95c-15 5 0-34.1 0-34.1s5-5.9 10-60.9Z" class="shp0"/>
</g>
<g transform="translate(-129.75510204081633 -22) rotate(14 269.7551020408163 332)">
<path d="M240 340c0-4-6-20 24-20 20 0 36 8 36 12s-12 12-20 12c-4 0-40 0-40-4Z" style="fill:#fff;stroke:#000;stroke-width:5"/><path d="M268 340c-3.32 0-6-3.58-6-8s2.68-8 6-8 6 3.58 6 8-2.68 8-6 8Z" style="fill:#000;stroke:#000;stroke-width:5"/>
</g>
<g transform="translate(-9.755102040816325 -22) rotate(-14 269.7551020408163 332) scale(-1 1) translate(-539.5102040816327 0)">
<path d="M240 340c0-4-6-20 24-20 20 0 36 8 36 12s-12 12-20 12c-4 0-40 0-40-4Z" style="fill:#fff;stroke:#000;stroke-width:5"/><path d="M268 340c-3.32 0-6-3.58-6-8s2.68-8 6-8 6 3.58 6 8-2.68 8-6 8Z" style="fill:#000;stroke:#000;stroke-width:5"/>
</g>
<g transform="translate(106 258.7408) rotate(2 34 11.2592)">
<path fill="#CC9966" stroke="#000" d="M65 16c3-3 0-10 0-10S45 1 35 1 3 11 3 11s-3 7 0 10 22-8 32-8 27 6 30 3Z"/>
</g>
<g transform="translate(226 258.7408) rotate(-2 34 11.2592) scale(-1 1) translate(-68 0)">
<path fill="#CC9966" stroke="#000" d="M65 16c3-3 0-10 0-10S45 1 35 1 3 11 3 11s-3 7 0 10 22-8 32-8 27 6 30 3Z"/>
</g>
<g transform="translate(-2.842170943040401e-14 51.52119068455602)">
<path d="M168 384s9-13.77 32-14.03c17.4-.2 32 13.2 32 13.2s-4.29 23.24-32 23.81c-27.29.56-32-22.98-32-22.98" style="opacity:.05;mix-blend-mode:multiply;fill:#501414"/><path d="M181.71 402.12c14.52 5.66 24.72 5.71 37.72-.71m.86-26.53c-14.52-5.66-27.29-6.34-40.29.09m-4 9.03c8-2.17 16 0 24 0s16-2.17 24 0m12-4s0 4-12 4m-60-4s0 4 12 4" style="fill:none;stroke:#000;stroke-width:4"/>
</g>
<g transform="translate(140.84321577312707 292.352) scale(0.58 0.58) translate(42.83767133670109 56.22786206896553)">
<path fill="#ddb7a0" stroke="#000" stroke-width="5" d="M50 50s-20 60 9 55c0 0 29 5 9-55"/>
</g>
<g transform="scale(-1 1) translate(-400.27332140060923 0) scale(0.91 1) translate(19.793735673656496 0)">
<path fill="#CC9966" stroke="#000" stroke-width="4" d="M198.27 56.61c-1 1.31-1.41 3.32-1.35 6.68.06 3.65.66 5.87 2.56 9.35 1.37 2.51 2.24 4.75 1.93 4.98-.3.23-1.51.41-2.69.39-1.18-.01-3.36-.95-4.84-2.08-1.48-1.12-3.16-1.79-3.73-1.48s-2.46 1.71-4.2 3.11c-2.67 2.14-3.29 2.34-3.93 1.29-.42-.68-.77-2.45-.78-3.94l-.01-2.69c-10.31-1.17-11.31-1.58-12.79-3.62-.95-1.3-3.22-3.13-5.04-4.07-1.83-.94-4.35-2.49-5.61-3.45l-2.29-1.74c-9.11 4.5-12.09 6.27-12.51 6.84-.51.7 1.65 5.32 6.71 14.31 4.1 7.31 7.27 13.47 7.04 13.7-.23.22-4.24-1.78-8.91-4.46-4.68-2.68-10-5.33-11.82-5.89-1.83-.56-3.79-.79-4.36-.53-.57.27-1.05.96-1.06 1.53-.02.57 1.28 2.71 2.89 4.77 1.61 2.05 2.92 3.92 2.93 4.15 0 .23-4.01.41-8.91.41-8.24-.01-9.4.2-15.15 2.69-3.42 1.48-6.97 2.7-7.88 2.7s-2.86.47-4.33 1.03c-2.39.92-2.94.83-5.18-.84-1.39-1.03-3.17-1.85-3.97-1.84-.8.02-3.51 1.82-6.02 4.01-2.51 2.18-5.03 4.21-5.6 4.52s-4.21-.57-8.09-1.94c-3.87-1.37-8.35-2.49-9.95-2.49s-2.9.18-2.9.41.58 1.82 1.29 3.53c.72 1.71 3.69 6.29 6.61 10.17 2.91 3.88 5.31 7.7 5.33 8.5.02 1.29-.93 1.45-8.69 1.45l-8.71-.01c-26.05 13.64-35.66 18.9-38.17 20.49s-5.6 3.88-6.87 5.09c-1.26 1.2-2.29 2.47-2.28 2.81s1.23.61 2.71.59c1.49-.01 5.5-1.12 8.92-2.45 3.43-1.33 6.3-2.35 6.4-2.25.09.1-1.69 2.88-3.95 6.19S16.9 163.2 16.9 164c-.01 1.31.62 1.39 6.63.83 3.66-.34 6.67-.34 6.68 0 .02.35-1.56 2.13-3.52 3.97s-7.3 5.91-11.87 9.05c-4.56 3.14-9.88 6.95-11.82 8.47-2.26 1.77-3.54 3.43-3.55 4.63-.02 1.02.82 2.7 1.86 3.71 1.04 1.02 2.54 1.86 3.34 1.87s4.06-1.66 7.26-3.71 5.98-3.63 6.19-3.52c.2.11.62 1.33.92 2.7.53 2.43.33 2.62-9.72 8.85-5.64 3.49-11.85 7.5-13.79 8.91-2.79 2.02-3.52 3.06-3.52 5.03-.01 1.75.67 3 2.27 4.21 1.26.94 3.12 1.87 4.15 2.07s2.71.55 3.73.79c1.03.23 3.08 1.53 4.57 2.9l2.69 2.49c-4.18 3.48-7.16 6.19-9.31 8.26-2.89 2.78-3.93 4.41-3.97 6.25-.04 1.37.7 3.52 1.62 4.77.97 1.3 2.49 2.29 3.56 2.3 1.02.01 2.35.29 2.95.62.8.46.26 1.68-2.14 4.76-1.78 2.28-3.67 4.98-4.2 6.01-.54 1.03-.98 2.43-.98 3.11 0 .99 1.2 1.25 5.81 1.25 3.19 0 5.79.28 5.78.62-.02.35-.75 2.68-1.64 5.19-.88 2.51-1.62 5.21-1.63 6.01-.02.8.9 1.83 2.04 2.29 1.14.45 2.08 1.11 2.09 1.45 0 .34-.55 2.49-1.24 4.77s-1.25 4.8-1.26 5.6c-.01.85.61 1.45 1.48 1.45.83 0 1.95-.47 2.51-1.04.8-.82 1-.69.96.63-.02.91.72 2.68 1.65 3.94.96 1.3 2.49 2.29 3.55 2.3 1.03 0 2.35.28 2.95.62.81.45.26 1.67-2.14 4.76-1.78 2.28-3.67 4.98-4.2 6.01-.54 1.02-.97 2.42-.97 3.11-.01.99 1.24 1.24 6.22 1.25h6.22l-3.33 9.54c3.54 3.57 5.12 4.59 5.81 4.58.68-.01 4.98-3.71 9.54-8.21 5.21-5.13 9.39-8.53 11.21-9.12 1.6-.52 4.68-.94 6.85-.93l3.94.01c-.03-22.79-.03-22.82 2.87-28.62 1.59-3.19 5.03-8.6 7.64-12.02s5.26-7.71 5.9-9.54c.63-1.82 2.07-9.85 3.2-17.83 1.12-7.99 2.98-18.25 4.12-22.82 1.14-4.56 2.91-9.95 3.93-11.98s2.97-4.36 4.34-5.18c1.37-.81 5.29-2.11 8.72-2.89 5.66-1.28 14.65-1.4 99.97-1.34 71.98.05 95.09.31 99.55 1.12 3.2.58 7.28 1.86 9.08 2.85 2.14 1.18 3.92 3.09 5.18 5.54 1.06 2.05 2.84 7.47 3.97 12.03 1.12 4.56 2.96 14.83 4.07 22.82 1.12 7.98 2.55 16.01 3.18 17.84.63 1.82 3.28 6.12 5.88 9.54 2.61 3.43 6.04 8.84 7.63 12.04 2.89 5.8 2.9 5.82 2.87 17.21l-.03 11.41c7.07 0 9.96.44 10.99.97s5.78 4.64 10.57 9.13 9.36 8.17 10.16 8.17 2.42-.84 3.61-1.86l2.15-1.87c-2.06-7.07-2.65-9.41-2.65-9.75.01-.34 2.62-.62 5.82-.62 4.61.01 5.81-.25 5.81-1.24 0-.68-.44-2.08-.97-3.11-.54-1.03-2.42-3.73-4.2-6.02-2.39-3.08-2.94-4.3-2.13-4.76.59-.33 1.92-.61 2.95-.62 1.06 0 2.59-.99 3.56-2.29.92-1.25 1.67-2.75 1.66-3.32-.02-.74.69-.85 2.48-.41 2.16.54 2.5.4 2.48-1.03-.02-.92-.55-3.53-1.18-5.81s-.9-4.55-.61-5.04c.3-.49 1.19-1.14 1.99-1.45s1.46-1.22 1.47-2.01c0-.8-.75-3.7-1.67-6.44-.93-2.73-1.68-5.07-1.67-5.18.01-.12 2.63-.21 5.82-.21 4.61.01 5.81-.25 5.81-1.24 0-.68-.44-2.08-.97-3.11-.53-1.02-2.42-3.73-4.19-6.01-2.4-3.09-2.95-4.31-2.14-4.76.6-.34 1.93-.62 2.95-.62 1.07-.01 2.6-1 3.56-2.3.93-1.25 1.68-3.12 1.66-4.14-.01-1.03-.4-2.62-.86-3.53-.45-.91-3.44-3.9-6.63-6.64l-5.8-4.98c5.56-4.61 7.93-5.82 9.13-5.8 1.14.02 3.38-.82 4.98-1.87 2.19-1.45 2.95-2.57 3.11-4.59.18-2.29-.29-3.03-3.32-5.22-1.93-1.4-8.13-5.42-13.77-8.93-10.05-6.24-10.25-6.42-9.71-8.86.3-1.37.72-2.58.93-2.69.21-.12 2.99 1.47 6.18 3.53 3.19 2.05 6.46 3.74 7.26 3.76.8.01 2.28-.83 3.3-1.87s1.86-2.73 1.87-3.75c.01-1.22-1.2-2.82-3.51-4.63-1.94-1.52-7.25-5.34-11.81-8.49-4.57-3.14-9.9-7.22-11.86-9.06-1.95-1.85-3.54-3.63-3.52-3.97.02-.35 3.03-.34 6.68 0 6.01.57 6.64.49 6.64-.83-.01-.79-1.87-4.25-4.15-7.67l-4.15-6.23c10.29 3.87 14.39 4.99 15.76 4.99s2.51-.28 2.53-.62-1.38-1.95-3.11-3.57c-1.73-1.61-5.76-4.42-8.95-6.22-3.19-1.81-11.96-6.48-19.49-10.37-12.53-6.49-13.66-7.26-13.43-9.14.14-1.12 2.63-5.22 5.55-9.1 2.91-3.87 5.88-8.44 6.6-10.15.71-1.71 1.3-3.3 1.3-3.53s-1.31-.41-2.91-.42c-1.59 0-6.07 1.12-9.95 2.49-3.88 1.36-7.52 2.23-8.09 1.92-.57-.3-3.09-2.34-5.6-4.53-2.51-2.18-5.21-3.99-6.01-4.01s-2.6.81-4.01 1.83c-1.55 1.14-3.59 1.81-5.19 1.72-1.44-.07-5.43-1.45-8.85-3.04-3.42-1.6-8.08-3.37-10.36-3.94-2.66-.66-6.46-.83-10.58-.49-3.54.3-6.43.26-6.42-.08 0-.34 1.33-2.3 2.94-4.36 1.62-2.05 2.82-4.29 2.67-4.97-.15-.73-1.12-1.21-2.32-1.17-1.13.04-3.08.32-4.33.62-2.04.48-2.24.34-1.92-1.32.21-1.03.58-3.27.84-4.98.32-2.18.15-3.12-.58-3.13-.57-.01-2.02 1.02-3.22 2.28s-2.74 3.42-3.41 4.79c-.68 1.36-1.75 2.71-2.38 2.98-.64.28-3.77-.12-6.96-.88l-5.81-1.37c-18.65 6.17-24.72 7.96-25.51 7.96-.81-.01-3.3-2.41-5.6-5.4-3.47-4.52-4.55-5.4-6.63-5.4-1.37 0-3.33-.38-4.36-.85-1.03-.46-3.36-2.78-5.18-5.15-1.82-2.38-4.99-7.48-7.05-11.35-2.05-3.87-4.14-7.17-4.66-7.34-.51-.16-1.57.55-2.36 1.59Z" class="afro2"/>
</g>
</svg>