<svg xmlns="http://www.w3.org/2000/svg" version="1.2" baseProfile="tiny" width="100%" height="100%" viewBox="0 0 400 600" preserveAspectRatio="xMinYMin meet">
<g transform="scale(0.98 1) translate(4.081632653061228 0)">
<path fill="#ad6453" stroke="#000" stroke-width="6" d="M10 600s-10-65 50-65c5 0 25-15 70-35l70-200 70 200c45 20 65 35 70 35 60 0 50 65 50 65" class="body"/>
</g>
<g transform="scale(0.98 1) translate(4.132653061224493 0)">
<g stroke="#000"><path fill="#07364f" stroke-width="3" d="M120 505s35 40 80 40 80-40 80-40v95H120z" class="s0"/><path fill="#7a1319" stroke-width="6" d="M120 504.6c10 45.4 80 55.4 90 65.4s10 40 10 40H-5s5-40 5-50 10-30 40-40 50 0 80-15.4z" class="s0"/><path fill="#7a1319" stroke-width="6" d="M360 520c30 10 40 30 40 40s10 50 10 50H180s0-40 10-50 80-10 90-55c30 15 50 5 80 15z" class="s0"/><path fill="#89bfd3" stroke-width="1.5" d="M196 597c-2.8 0-5-2.2-5-5s2.2-5 5-5 5 2.2 5 5-2.2 5-5 5zm-2-5h1m2 0h1" class="s1"/></g><g fill="none" stroke="#000" stroke-width="6"><path d="M120 504.6c6.9 37.6 62.2 49.3 67.9 57-7.8 11.2-8 48.4-8 48.4H-5s5-40 5-50 10-30 40-40 50 0 80-15.4z" class="s5"/><path d="M360 520c30 10 40 30 40 40s10 50 10 50H180s0-40 10-50 80-10 90-55c30 15 50 5 80 15z" class="s5"/></g>
</g>
<g transform="translate(33.53553390593274 291.01362954285077) scale(0.8 0.8) translate(5.366116523516814 8.496592614287305) translate(-1.6889321881345238 -2.979591836734694)">
<path fill="#ad6453" stroke="#000" stroke-width="6" d="M40 14S10-1 5 4s0 30 5 40-5 25 30 20z"/>
</g>
<g transform="translate(323.53553390593277 291.01362954285077) scale(-0.8 0.8) translate(-48.29504871165133 8.496592614287305) translate(-1.6889321881345238 -2.979591836734694)">
<path fill="#ad6453" stroke="#000" stroke-width="6" d="M40 14S10-1 5 4s0 30 5 40-5 25 30 20z"/>
</g>
<g transform="scale(0.992 1) translate(1.612903225806453 0)">
<path fill="#ad6453" stroke="#000" stroke-width="6" d="M200 100c100 0 150 60 150 200 0 70-30 150-40 160s-60 40-110 40-100-30-110-40-40-90-40-160c0-140 50-200 150-200Z" class="head"/><path fill="rgba(0,0,0,0)" d="M200 410c30 0 50 10 50 10 30 0 90-15 90-120h10c0 70-30 150-40 160s-60 40-110 40-100-30-110-40-40-90-40-160h10c0 105 60 120 90 120 0 0 20-10 50-10" class="faceShave"/><path fill="rgba(0,0,0,0)" d="M60 300H50c0-140 50-200 150-200s150 60 150 200h-10v-10c0-5-10-20-15-25s-5-55-15-65c-40-40-60 0-110 0s-70-40-110 0c-10 10-10 60-15 65s-15 20-15 25z" class="headShave"/>
</g>
<g>
<path fill="none" stroke="#000" stroke-width="2" d="M240 355s20-10 45 0m-125 0s-20-10-45 0" class="eyeline5"/>
</g>
<g transform="translate(147 424.5) scale(1.91 1.91) translate(-1.4293193717277486 -5.00261780104712)">
<path fill="none" stroke="#000" stroke-width="2" d="m0 20 6-10-6-9" class="shp0"/>
</g>
<g transform="translate(247 424.5) scale(-1.91 1.91) translate(-4.570680628272251 -5.00261780104712)">
<path fill="none" stroke="#000" stroke-width="2" d="m0 20 6-10-6-9" class="shp0"/>
</g>
<g transform="translate(102.24084342899988 286.1384650016032) rotate(6 37.759156571000126 23.861534998396785)">
<path d="M5 20s12.08-8.23 35-8.23S70 30 70 30s-7.15 9.92-30.07 9.92S5 20 5 20" style="fill:#f5f3ee"/><path d="M5 20c-2.87-2.87 12.2-9.55 35-11.9C70 5 72.87 27.13 70 30s-7.08-13.73-30-13.73S7.87 22.87 5 20" class="black"/><path d="M39.93 33.04c-6.34 0-11.46-5.12-11.46-11.46 0-6.33 5.12-11.46 11.46-11.46s11.46 5.13 11.46 11.46c0 6.34-5.12 11.46-11.46 11.46" class="black"/>
</g>
<g transform="translate(222.24084342899988 286.1384650016032) rotate(-6 37.759156571000126 23.861534998396785) scale(-1 1) translate(-75.51831314200025 0)">
<path d="M5 20s12.08-8.23 35-8.23S70 30 70 30s-7.15 9.92-30.07 9.92S5 20 5 20" style="fill:#f5f3ee"/><path d="M5 20c-2.87-2.87 12.2-9.55 35-11.9C70 5 72.87 27.13 70 30s-7.08-13.73-30-13.73S7.87 22.87 5 20" class="black"/><path d="M39.93 33.04c-6.34 0-11.46-5.12-11.46-11.46 0-6.33 5.12-11.46 11.46-11.46s11.46 5.13 11.46 11.46c0 6.34-5.12 11.46-11.46 11.46" class="black"/>
</g>
<g transform="translate(101.2222222222222 258.59183673469386) rotate(-5 38.77777777777779 11.408163265306122)">
<path fill="#272421" stroke="#000" d="M73 21c8-8 0-16 0-16S45 1 37 1C27 1 1 17 1 17s20-4 40-4c12 0 28 12 32 8Z"/>
</g>
<g transform="translate(221.2222222222222 258.59183673469386) rotate(5 38.77777777777779 11.408163265306122) scale(-1 1) translate(-77.55555555555559 0)">
<path fill="#272421" stroke="#000" d="M73 21c8-8 0-16 0-16S45 1 37 1C27 1 1 17 1 17s20-4 40-4c12 0 28 12 32 8Z"/>
</g>
<g transform="translate(160 425.5888888888889)">
<path d="M40 9C50 9 65-1 70 4s10 15 5 20-25 0-35 0-30 5-35 0S5 9 10 4s20 5 30 5Z" style="fill:#fff;stroke:#000;stroke-width:5"/>
</g>
<g transform="translate(140.995 319.5) scale(-0.74 0.74) translate(-138.74148648648648 17.743243243243246)">
<path fill="#ad6453" stroke="#000" stroke-width="5" d="M58 18S43 28.72 38 33c-4.17 3.57-10 10-10 30 0 10 15 20 25 20s20-5 20-15" class="nose"/><path d="m84.99 55.01 5-.02.02 5-5 .02z" style="fill:none"/>
</g>
<g transform="scale(0.992 1) translate(1.612903225806453 0)">
<path fill="#272421" stroke="#000" stroke-width="4" d="M53.25 329.3S50 313.5 50 300c0-140 50-200 150-200s150 60 150 200c0 12-5.25 40.3-5.25 40.3-5-18.5-11.5-52-11.5-52S330 270 325 265s-5-55-15-65c-40-40-60 0-110 0s-70-40-110 0c-10 10-10 60-15 65s-10.25 19.3-10.25 19.3-7 30.5-11.5 45Z" class="shortBangs"/><path fill="#272421" d="M76 199s-8.25 40.3 12 66c5.75-23.7 16-47 16-47s-2.25 22.3 3 37c13.25-14.7 31-67 31-67s-4 42.59-.25 58.3C143.5 230.59 148 219 148 219s2.25 22.8 6.25 38.3C166.75 240.8 179 180 179 180s-8.25 57.3-1.25 70.8c9-12.5 10.25-38.8 10.25-38.8s12 23.3 15.75 44.8c12-13 16.25-62.8 16.25-62.8s10.3 42.72 21 50c5.3-5.88 0-59 0-59s22.17 58.53 36 67c3.5-12.14-1-35-1-35s12.17 28.86 23.5 38.2c1.67-9.67-7.67-47.34-7.67-47.34s24.67 44.34 28.15 61.25c8.85-20.91 3.19-74.25 3.19-74.25L271 157l-136-3z" class="bangs"/><path fill="none" stroke="#000" stroke-width="4" d="M76 199s-8.25 40.3 12 66c5.75-23.7 16-47 16-47s-2.25 22.3 3 37c13.25-14.7 31-67 31-67s-4 42.59-.25 58.3C143.5 230.59 148 219 148 219s2.25 22.8 6.25 38.3C166.75 240.8 179 180 179 180s-8.25 57.3-1.25 70.8c9-12.5 13.5-40.5 13.5-40.5s8.75 25 12.5 46.5c12-13 16.25-62.8 16.25-62.8s10.3 42.72 21 50c5.3-5.88 0-59 0-59s22.17 58.53 36 67c3.5-12.14-1-35-1-35s12.17 28.86 23.5 38.2c1.67-9.67-7.67-47.34-7.67-47.34s24.67 44.34 28.15 61.25c8.85-20.91 3.19-74.25 3.19-74.25" class="shp2"/>
</g>
</svg>