<svg xmlns="http://www.w3.org/2000/svg" version="1.2" baseProfile="tiny" width="100%" height="100%" viewBox="0 0 400 600" preserveAspectRatio="xMinYMin meet">
<g transform="scale(0.97 1) translate(6.185567010309284 0)">
<path fill="#ddb7a0" stroke="#000" stroke-width="6" d="M10 600s0-50 60-70 70-50 70-50l60-180 60 180s10 30 70 50 60 70 60 70" class="body"/>
</g>
<g transform="scale(0.97 1) translate(6.185567010309284 0)">
<path fill="#89bfd3" stroke="#000" stroke-width="6" d="M80 610s10-30 10-90l20-10s10 80 90 80 90-80 90-80l20 10c0 60 10 90 10 90z" class="jersey"/><path fill="none" stroke="#000" stroke-width="16" d="M90 520c0 60-10 90-10 90m230-90c0 60 10 90 10 90M110 510s10 80 90 80 90-80 90-80" class="outline"/><path fill="none" stroke="#07364f" stroke-width="8" d="M90 520c0 60-10 90-10 90m230-90c0 60 10 90 10 90m-210-98s15 78 90 78 90-78 90-78" class="stripe-accent"/><path fill="none" stroke="#89bfd3" stroke-width="4" d="M86 522c0 60-10 88-10 88m238-88c0 60 10 88 10 88M114 510s11 76 86 76 86-76 86-76" class="stripe-primary"/><path fill="none" stroke="#7a1319" stroke-width="4" d="M94 518c0 60-10 92-10 92m222-92c0 60 10 92 10 92m-210-96s12 80 94 80 94-80 94-80" class="stripe-secondary"/>
</g>
<g transform="translate(33.53553390593274 291.01362954285077) scale(0.91 0.91) translate(2.1228592840286296 3.3612893858719004) translate(5.751067811865477 -2.979591836734694)">
<path fill="#ddb7a0" stroke="#000" stroke-width="6" d="M40 14S10-1 5 4s0 30 5 40-5 25 30 20z"/>
</g>
<g transform="translate(323.53553390593277 291.01362954285077) scale(-0.91 0.91) translate(-45.05179147216315 3.3612893858719004) translate(5.751067811865477 -2.979591836734694)">
<path fill="#ddb7a0" stroke="#000" stroke-width="6" d="M40 14S10-1 5 4s0 30 5 40-5 25 30 20z"/>
</g>
<g transform="scale(0.9440000000000001 1) translate(11.864406779661005 0)">
<path fill="#ddb7a0" stroke="#000" stroke-width="6" d="M200 100c100 0 150 60 150 200 0 20-20 120-25 130-4.47 8.94-105 70-105 70h-40s-98.29-56.58-105-70c-5-10-25-110-25-130 0-140 50-200 150-200Z" class="head"/><path fill="rgba(0,0,0,0)" d="M200 410c30 0 50 10 50 10 30 0 90-15 90-120h10c0 20-20 120-25 130-4.47 8.94-105 70-105 70h-40s-98.29-56.58-105-70c-5-10-25-110-25-130h10c0 105 60 120 90 120 0 0 20-10 50-10" class="faceShave"/><path fill="rgba(0,0,0,0)" d="M60 300H50c0-140 50-200 150-200s150 60 150 200h-10v-10c0-5-10-20-15-25s-5-55-15-65c-40-40-60 0-110 0s-70-40-110 0c-10 10-10 60-15 65s-15 20-15 25z" class="headShave"/>
</g>
<g>
<path fill="none" stroke="#000" stroke-width="2" d="M240 355s20-10 45 0m-125 0s-20-10-45 0" class="eyeline5"/>
</g>
<g transform="translate(147 424.5) scale(1.47 1.47) translate(-0.9591836734693877 -3.3571428571428568)">
<path fill="none" stroke="#000" stroke-width="2" d="m0 20 6-10-6-9" class="shp0"/>
</g>
<g transform="translate(247 424.5) scale(-1.47 1.47) translate(-5.040816326530612 -3.3571428571428568)">
<path fill="none" stroke="#000" stroke-width="2" d="m0 20 6-10-6-9" class="shp0"/>
</g>
<g transform="translate(-120.05628769726621 -25.250646588503912) rotate(5 260.0562876972662 335.2506465885039)">
<path d="M259.01 349.54c-13.866-.398-24.58-15.35-24.58-28.312 14.975.007 34.492.1 51.25-.275.204 12.79-11.737 29.015-26.67 28.587" style="fill:#fff;stroke:#000;stroke-linecap:round;stroke-linejoin:round;stroke-width:5"/><path d="M259.552 325.177c-10 0-10 15 0 15s10-15 0-15" style="fill:#000;stroke:#000;stroke-linecap:round;stroke-linejoin:round;stroke-width:4"/>
</g>
<g transform="translate(-0.056287697266213854 -25.250646588503912) rotate(-5 260.0562876972662 335.2506465885039) scale(-1 1) translate(-520.1125753945324 0)">
<path d="M259.01 349.54c-13.866-.398-24.58-15.35-24.58-28.312 14.975.007 34.492.1 51.25-.275.204 12.79-11.737 29.015-26.67 28.587" style="fill:#fff;stroke:#000;stroke-linecap:round;stroke-linejoin:round;stroke-width:5"/><path d="M259.552 325.177c-10 0-10 15 0 15s10-15 0-15" style="fill:#000;stroke:#000;stroke-linecap:round;stroke-linejoin:round;stroke-width:4"/>
</g>
<g transform="translate(-127.5 -8.774999999999977) rotate(-7 267.5 278.775)">
<path fill="#2C1608" stroke="#000" d="m235 280 65 5-5-12.45-55 2.45z"/>
</g>
<g transform="translate(-7.5 -8.774999999999977) rotate(7 267.5 278.775) scale(-1 1) translate(-535 0)">
<path fill="#2C1608" stroke="#000" d="m235 280 65 5-5-12.45-55 2.45z"/>
</g>
<g transform="translate(0 48.766108367626885) scale(-1 1) translate(-400 0)">
<path d="M168 384s9-13.77 32-14.03c17.4-.2 32 13.2 32 13.2s-4.29 28.26-32 28.83c-27.29.56-32-28-32-28" style="opacity:.05;mix-blend-mode:multiply;fill:#501414"/><path d="M168 384c12-4 48-4 64 0-8 8-10 16-32 16-20 0-24-8-32-16Z" style="fill:#000;stroke:#000"/><path d="M168 384c12-4 48-4 64 0-20 4-10 4-32 4-20 0-16 0-32-4m12 12s14-1 20-1 20 1 20 1-4 4-20 4c-12 0-20-4-20-4" style="fill:#fff"/><path d="M168 384c12-4 48-4 64 0-8 8-10 16-32 16-20 0-24-8-32-16Zm16 24c12 6 20 6 32 0m4.29-33.12c-14.52-5.66-27.29-6.34-40.29.09" style="fill:none;stroke:#000;stroke-width:4"/>
</g>
<g transform="translate(0 7.5) scale(-0.84 0.84) translate(-438.09523809523813 69.04761904761907)">
<path fill="#ddb7a0" stroke="#000" stroke-width="5" d="M190 325s-5 20-5 45c-20-5-15 15-15 20 20 0 15 10 30 10s10-10 30-10c0-5 5-25-15-20 0-25-5-45-5-45" class="nose"/>
</g>
<g transform="scale(-1 1) translate(-400 0) scale(0.9440000000000001 1) translate(11.864406779661005 0)">
<defs><linearGradient id="a" x1="200" x2="200" y1="100" y2="310" gradientUnits="userSpaceOnUse"><stop offset="0" stop-color="rgba(0,0,0,.25)"/><stop offset="1" stop-color="rgba(0,0,0,0)"/></linearGradient></defs><path d="M60 310H50v-10c0-140 50-200 150-200s150 60 150 200v10h-10v-20c0-5-10-20-15-25s-5-55-15-65c-40-40-60 0-110 0s-70-40-110 0c-10 10-10 60-15 65s-15 20-15 25z" style="fill:url(#a);stroke:none"/>
</g>
</svg>