<svg xmlns="http://www.w3.org/2000/svg" version="1.2" baseProfile="tiny" width="100%" height="100%" viewBox="0 0 400 600" preserveAspectRatio="xMinYMin meet">
<g transform="scale(0.98 1) translate(4.130966436161245 0)">
<path fill="#5c3937" stroke="#000" stroke-width="6" d="M20 600s-5-60 40-70c15 0 45-15 90-35l50-195 50 195c45 20 75 35 90 35 45 10 45 70 45 70" class="body"/>
</g>
<g transform="scale(0.98 1) translate(4.081632653061228 0)">
<path fill="#89bfd3" stroke="#000" stroke-width="6" d="M120 505c0 35 50 25 80 45 30-20 80-10 80-45 30-25 90-15 100-5s10.07 20.41 15 50c5 30 5 20 5 60H0c0-40 0-29.59 5-59.59 4.93-29.59 5-39.38 15-50.41 9.5-10.48 70-20 100 5Z" class="footballPrimary"/><path fill="#7a1319" stroke="#000" stroke-width="2" d="M120 505c0 35 50 25 80 45 30-20 80-10 80-45l15-10c5 60-55 45-95 75-40-30-100-15-95-75z" class="collarSecondary"/><path fill="#7a1319" stroke="#000" stroke-width="2" d="M120 540c-40 26.67-60 80-60 80h40s0-53.33 20-80Zm160 0c40 26.67 60 80 60 80h-40s0-53.33-20-80Z" class="Stallion"/><path fill="none" stroke="#000" stroke-width="6" d="M120 505c0 35 50 25 80 45 30-20 80-10 80-45 30-25 90-15 100-5s10.07 20.41 15 50c5 30 5 20 5 60H0c0-40 0-30 5-60 4.93-29.59 5-38.97 15-50 9.5-10.48 70-20 100 5Z" class="footballStroke"/><path fill="none" stroke="#000" stroke-width="2" d="M19.5 570s72.5-2.11 81.5-20m280 20s-71-2.11-80-20" class="shp3"/>
</g>
<g transform="translate(32 290.6) scale(1.45 1.45) translate(-7.137931034482759 -10.675862068965518) translate(7.229999999999999 -3)">
<path fill="#5c3937" stroke="#000" stroke-width="6" d="M43 13S23 3 13 3 3 23 3 33s3 20 13 30 27-10 27-10z"/>
</g>
<g transform="translate(322 290.6) scale(-1.45 1.45) translate(-38.862068965517246 -10.675862068965518) translate(7.229999999999999 -3)">
<path fill="#5c3937" stroke="#000" stroke-width="6" d="M43 13S23 3 13 3 3 23 3 33s3 20 13 30 27-10 27-10z"/>
</g>
<g transform="scale(0.934 1) translate(14.13276231263382 0)">
<path fill="#5c3937" stroke="#000" stroke-width="6" d="M200 100c100 0 150 60 150 200 0 120-10 150-110 190 0 0-20 10-40 10s-40-10-40-10C60 450 50 420 50 300c0-140 50-200 150-200Z" class="head"/><path fill="rgba(0,0,0,0)" d="M60 300H50c0-140 50-200 150-200s150 60 150 200h-10v-10c0-5-10-20-15-25s-5-55-15-65c-40-40-60 0-110 0s-70-40-110 0c-10 10-10 60-15 65s-15 20-15 25z" class="headShave"/><path fill="rgba(0,0,0,0)" d="M200 410c30 0 50 10 50 10 30 0 90-15 90-120h10c0 120-10 150-110 190 0 0-20 10-40 10s-40-10-40-10C60 450 50 420 50 300h10c0 105 60 120 90 120 0 0 20-10 50-10" class="faceShave"/>
</g>
<g>
<path fill="none" stroke="#000" stroke-width="2" d="M220 270s-10 0-10-20m-30 20s10 0 10-20" class="eyeline1"/>
</g>
<g transform="translate(144.4807306749833 416) scale(0.91 0.91) translate(0.5458618013752786 1.8791208791208784)">
<path fill="none" stroke="#000" stroke-width="2" d="M9 2s-12.5 8.95-4 34" class="shp0"/>
</g>
<g transform="translate(244.4807306749833 416) scale(-0.91 0.91) translate(-11.584400451408696 1.8791208791208784)">
<path fill="none" stroke="#000" stroke-width="2" d="M9 2s-12.5 8.95-4 34" class="shp0"/>
</g>
<g transform="scale(0.934 1) translate(14.13276231263382 0)">
<path fill="#272421" stroke="#000" d="M188 458c2-2 22-2 24 0s-8 16-12 16-14-14-12-16ZM60 300H50s-10 70 10 130c10 20 60 70 120 70 10 0-30-28.8-30-50 0-20 10-20 10-30s-30 30-70-10c-20-20-30-80-30-110Zm250 110c-40 40-70 0-70 10s10 10 10 30c0 21.2-40 50-30 50 60 0 110-50 120-70 20-60 10-130 10-130h-10c0 30-10 90-30 110Z" class="shp0"/>
</g>
<g transform="translate(102.8498332560182 285.155) rotate(0 37.15016674398179 24.845)">
<path d="M5.55 28.46S17.08 11.77 40 11.77s28.58 16.69 28.58 16.69-5.73 11.46-28.65 11.46S5.55 28.46 5.55 28.46" style="fill:#f5f3ee"/><path d="M5.55 28.46C2.68 25.6 17.08 9.77 40 9.77S71.44 25.6 68.58 28.46C65.71 31.33 62.92 16.27 40 16.27S8.41 31.33 5.55 28.46" style="fill:#000"/><path d="M39.93 33.04c-6.34 0-11.46-5.12-11.46-11.46 0-6.33 5.12-11.46 11.46-11.46s11.46 5.13 11.46 11.46c0 6.34-5.12 11.46-11.46 11.46" style="fill:#000"/>
</g>
<g transform="translate(222.8498332560182 285.155) rotate(0 37.15016674398179 24.845) scale(-1 1) translate(-74.30033348796358 0)">
<path d="M5.55 28.46S17.08 11.77 40 11.77s28.58 16.69 28.58 16.69-5.73 11.46-28.65 11.46S5.55 28.46 5.55 28.46" style="fill:#f5f3ee"/><path d="M5.55 28.46C2.68 25.6 17.08 9.77 40 9.77S71.44 25.6 68.58 28.46C65.71 31.33 62.92 16.27 40 16.27S8.41 31.33 5.55 28.46" style="fill:#000"/><path d="M39.93 33.04c-6.34 0-11.46-5.12-11.46-11.46 0-6.33 5.12-11.46 11.46-11.46s11.46 5.13 11.46 11.46c0 6.34-5.12 11.46-11.46 11.46" style="fill:#000"/>
</g>
<g transform="translate(101.2222222222222 261) rotate(4 38.77777777777779 9)">
<path fill="#272421" stroke="#000" d="M73 13c8-8 0-12 0-12S45 5 37 5H1s20 12 40 12c12 0 28 0 32-4Z"/>
</g>
<g transform="translate(221.2222222222222 261) rotate(-4 38.77777777777779 9) scale(-1 1) translate(-77.55555555555559 0)">
<path fill="#272421" stroke="#000" d="M73 13c8-8 0-12 0-12S45 5 37 5H1s20 12 40 12c12 0 28 0 32-4Z"/>
</g>
<g transform="translate(160 425.5888888888889) scale(-1 1) translate(-80 0)">
<path d="M40 9C50 9 65-1 70 4s10 15 5 20-25 0-35 0-30 5-35 0S5 9 10 4s20 5 30 5Z" style="fill:#fff;stroke:#000;stroke-width:5"/>
</g>
<g transform="translate(0 -12.5) scale(-0.86 0.86) translate(-432.5581395348837 62.26744186046512)">
<path fill="#5c3937" stroke="#000" stroke-width="5" d="M175 370c-20 0-5 25 5 15 5-5 15 10 20 10s15-15 20-10c10 10 25-15 5-15" class="nose"/>
</g>
<g transform="scale(-1 1) translate(-400 0) scale(0.934 1) translate(14.13276231263382 0)">
<defs><linearGradient id="a" x1="200" x2="200" y1="100" y2="310" gradientUnits="userSpaceOnUse"><stop offset="0" stop-color="rgba(0,0,0,.25)"/><stop offset="1" stop-color="rgba(0,0,0,0)"/></linearGradient></defs><path d="M60 310H50v-10c0-140 50-200 150-200s150 60 150 200v10h-10v-20c0-5-10-20-15-25s-5-55-15-65c-40-40-60 0-110 0s-70-40-110 0c-10 10-10 60-15 65s-15 20-15 25z" style="fill:url(#a);stroke:none"/>
</g>
<g transform="scale(0.934 1) translate(14.132762312633831 0)">
<g stroke="#000"><path fill="#07364f" stroke-width="2" d="M199.8 82c3.4 0 7.2.6 8.8 1.5 1.6.8 2.9 2 2.9 2.5s.2 1.7.5 2.5c.4 1.3-1.3 1.5-12 1.5s-12.4-.2-12-1.5c.3-.8.4-1.9.3-2.5-.1-.5 1.1-1.6 2.7-2.4 1.5-.9 5.4-1.5 8.8-1.6z" class="s0"/><path fill="#7a1319" stroke-width="6" d="M197.8 90.1c13.3-.1 23 .5 34.6 1.9 8.8 1.1 20.8 3 26.6 4.1s15.5 3.3 21.6 5c6 1.6 14.4 4.3 18.7 6 4.2 1.7 10.2 4.5 13.3 6.2 3.1 1.8 7.4 5 9.5 7.2 2.3 2.3 5.3 7.1 7.1 11.3 2 4.7 4 12 5.6 21 1.4 7.5 3.5 17.8 4.7 22.7s3.2 11.7 4.3 15c1.2 3.3 3 11.8 4 19 .9 7.2 1.7 17.9 1.7 24s-.3 11.8-.7 12.7c-.6 1.5-1.1 1.4-4.9-1.1-2.4-1.5-8.9-5.3-14.4-8.4-5.6-3-16.4-8.3-24-11.7-7.7-3.5-20.8-8.6-29.3-11.5-8.4-3-21.8-6.7-29.7-8.4-7.9-1.6-18.6-3.5-23.7-4.1-5.2-.5-15.4-1-22.8-1s-17.6.5-22.8 1c-5.1.6-15.8 2.5-23.7 4.1-7.9 1.7-22 5.7-31.2 8.9s-22.4 8.3-29.2 11.5c-6.9 3.1-17.9 8.6-24.5 12.2s-13.2 7.4-14.6 8.4c-2.3 1.6-2.7 1.7-3.1.4-.3-.8-.5-6.1-.5-11.7 0-5.7.6-15.5 1.3-21.8.8-6.3 1.9-13.5 2.5-16 .7-2.5 2.4-8.3 3.9-13s3.8-14.6 5.1-22 3.1-16.4 4-20 2.7-8.9 4.1-11.9 4.3-7.3 6.5-9.5c2.1-2.3 7.3-6 11.5-8.2 4.2-2.3 10.8-5.3 14.8-6.7s11.5-3.7 16.8-5.1 13.5-3.3 18.2-4.2 15.8-2.7 24.5-3.9c11.2-1.6 21.1-2.3 34.2-2.4z"/><path fill="#89bfd3" stroke-width="4" d="M69.6 237.7c-6.6 3.6-13.2 7.4-14.7 8.4-2.2 1.6-2.7 1.7-3.1.4-.2-.8-.4-6.1-.4-11.7-.1-5.7.6-15.5 1.3-21.8s1.9-13.5 2.5-16 2.4-8.3 3.9-13 3.8-14.6 5.1-22c0 0 12 72.1 5.4 75.7zM336.8 162c1.3 7.4 3.6 17.3 5.1 22s3.2 10.5 3.9 13c.6 2.5 1.7 9.7 2.5 16 .7 6.3 1.3 16.1 1.3 21.8 0 5.6-.2 10.9-.5 11.7-.4 1.3-.8 1.2-3.1-.4-1.4-1-8-4.8-14.6-8.4s5.4-75.7 5.4-75.7z"/><path fill="#07364f" stroke-width="6" d="M196.2 197c9.2 0 20.8.3 25.9.7 5 .4 13.6 1.5 19.1 2.4 5.6 1 14.4 2.8 19.7 4.1s13.7 3.7 18.7 5.2c5 1.6 14.7 5.1 21.6 7.9 6.8 2.7 17 7.3 22.5 10 5.6 2.8 14.9 7.9 20.6 11.2 5.8 3.4 12.4 7.5 14.6 9.2 3.2 2.4 4.1 3.6 4.1 5.6 0 1.6-.7 3.3-1.9 4.2-1.1.9-3.2 1.6-4.8 1.6-2.1 0-5.1-1.4-10.8-5.1-4.3-2.8-13.3-8-19.9-11.6s-19.3-9.5-28.3-13.1c-8.9-3.7-20.6-8-25.9-9.6-5.2-1.5-13.4-3.7-18.2-4.9-4.7-1.1-14.9-2.9-22.5-4-11.3-1.7-17.1-2-30.7-2s-19.4.3-30.7 2c-7.6 1.1-17.8 2.9-22.5 4-4.8 1.2-13 3.4-18.2 4.9-5.3 1.6-17 5.9-25.9 9.6-9 3.6-21.7 9.5-28.3 13.1s-15.6 8.8-19.9 11.6c-6.3 4.1-8.6 5.1-11.3 5.1-1.8 0-4-.5-4.8-1.2-.8-.6-1.4-2.4-1.4-4 0-2.2.8-3.4 3.8-5.9 2.1-1.8 7.4-5.3 11.7-7.8s12.8-7.2 18.9-10.4 17.6-8.4 25.5-11.7c7.9-3.2 18.7-7.2 24-8.8 5.3-1.7 14.7-4.2 21.1-5.7 6.3-1.5 17.3-3.6 24.4-4.6 10.3-1.5 16.5-2 29.8-2z"/></g>
</g>
</svg>