<svg xmlns="http://www.w3.org/2000/svg" version="1.2" baseProfile="tiny" width="100%" height="100%" viewBox="0 0 400 600" preserveAspectRatio="xMinYMin meet">
<g transform="scale(1.05 1) translate(-9.523809523809533 0)">
<path fill="#ddb7a0" stroke="#000" stroke-width="6" d="M10 600s-10-65 50-65c5 0 25-15 70-35l70-200 70 200c45 20 65 35 70 35 60 0 50 65 50 65" class="body"/>
</g>
<g transform="scale(1.05 1) translate(-9.523809523809533 0)">
<path fill="#89bfd3" stroke="#000" stroke-width="6" d="M120 505c0 35 50 25 80 45 30-20 80-10 80-45 30-25 90-15 100-5s10.07 20.41 15 50c5 30 5 20 5 60H0c0-40 0-29.59 5-59.59 4.93-29.59 5-39.38 15-50.41 9.5-10.48 70-20 100 5Z" class="footballPrimary"/><path fill="#7a1319" stroke="#000" stroke-width="2" d="M120 505c0 35 50 25 80 45 30-20 80-10 80-45l15-10c5 60-55 45-95 75-40-30-100-15-95-75z" class="collarSecondary"/><path fill="#7a1319" stroke="#000" stroke-width="2" d="m20 500 15 80 5-88.8-10 3.07zm360 0-15 80-5-88.8 10 3.07z" class="Sparta"/><path fill="none" stroke="#000" stroke-width="6" d="M120 505c0 35 50 25 80 45 30-20 80-10 80-45 30-25 90-15 100-5s10.07 20.41 15 50c5 30 5 20 5 60H0c0-40 0-30 5-60 4.93-29.59 5-38.97 15-50 9.5-10.48 70-20 100 5Z" class="footballStroke"/><path fill="none" stroke="#000" stroke-width="2" d="M19.5 570s72.5-2.11 81.5-20m280 20s-71-2.11-80-20" class="shp3"/>
</g>
<g transform="translate(32 290.6) scale(0.93 0.93) translate(1.7311827956989236 2.5892473118279553) translate(20.56 -3)">
<path fill="#ddb7a0" stroke="#000" stroke-width="6" d="M43 13S23 3 13 3 3 23 3 33s3 20 13 30 27-10 27-10z"/>
</g>
<g transform="translate(322 290.6) scale(-0.93 0.93) translate(-47.73118279569892 2.5892473118279553) translate(20.56 -3)">
<path fill="#ddb7a0" stroke="#000" stroke-width="6" d="M43 13S23 3 13 3 3 23 3 33s3 20 13 30 27-10 27-10z"/>
</g>
<g transform="scale(0.8480000000000001 1) translate(35.84905660377356 0)">
<path fill="#ddb7a0" stroke="#000" stroke-width="6" d="M200 100c100 0 150 60 150 200 0 20-20 130-20 130l-80 50c-20 20-40 20-50 20s-30 0-50-20l-80-50S50 320 50 300c0-140 50-200 150-200Z"/><path fill="rgba(0,0,0,0.18)" d="M200 410c30 0 50 10 50 10 30 0 90-15 90-120h10c0 20-20 130-20 130l-80 50c-20 20-40 20-50 20s-30 0-50-20l-80-50S50 320 50 300h10c0 105 60 120 90 120 0 0 20-10 50-10" class="faceShave"/><path fill="rgba(0,0,0,0.18)" d="M60 300H50c0-140 50-200 150-200s150 60 150 200h-10v-10c0-5-10-20-15-25s-5-55-15-65c-40-40-60 0-110 0s-70-40-110 0c-10 10-10 60-15 65s-15 20-15 25z" class="headShave"/>
</g>
<g>
<path fill="none" stroke="#000" stroke-width="2" d="M220 270s-10 0-10-20m-30 20s10 0 10-20" class="eyeline1"/>
</g>
<g>
<path fill="none" stroke="#000" stroke-width="2" d="M200 270v-15l5-5-5 5-5-5"/>
</g>
<g transform="scale(0.8480000000000001 1) translate(35.84905660377356 0)">
<path fill="#B55239" stroke="#000" d="M188 458c2-2 22-2 24 0s-8 16-12 16-14-14-12-16Z" class="shp0"/>
</g>
<g transform="translate(102.93299701421847 284.73230356541717) rotate(1 37.067002985781535 25.26769643458282)">
<path d="M68.08 23.19s1.89 14.88-27.87 18.67C15.41 45.02 6.66 15.89 6.03 10.93 25.87 8.4 65.55 3.35 68.08 23.19Z" style="fill:#fff;stroke:#000;stroke-width:5"/><path d="M39.04 16.81c9.92-1.27 11.81 13.61 1.89 14.88-9.92 1.26-11.81-13.62-1.89-14.88" style="fill:#000;stroke:#000;stroke-linecap:round;stroke-linejoin:round;stroke-width:4"/>
</g>
<g transform="translate(222.93299701421847 284.73230356541717) rotate(-1 37.067002985781535 25.26769643458282) scale(-1 1) translate(-74.13400597156307 0)">
<path d="M68.08 23.19s1.89 14.88-27.87 18.67C15.41 45.02 6.66 15.89 6.03 10.93 25.87 8.4 65.55 3.35 68.08 23.19Z" style="fill:#fff;stroke:#000;stroke-width:5"/><path d="M39.04 16.81c9.92-1.27 11.81 13.61 1.89 14.88-9.92 1.26-11.81-13.62-1.89-14.88" style="fill:#000;stroke:#000;stroke-linecap:round;stroke-linejoin:round;stroke-width:4"/>
</g>
<g transform="translate(101.2222222222222 261) rotate(-4 38.77777777777779 9)">
<path fill="#B55239" stroke="#000" d="M73 13c8-8 0-12 0-12S45 5 37 5H1s20 12 40 12c12 0 28 0 32-4Z"/>
</g>
<g transform="translate(221.2222222222222 261) rotate(4 38.77777777777779 9) scale(-1 1) translate(-77.55555555555559 0)">
<path fill="#B55239" stroke="#000" d="M73 13c8-8 0-12 0-12S45 5 37 5H1s20 12 40 12c12 0 28 0 32-4Z"/>
</g>
<g transform="translate(-2.842170943040401e-14 51.52119068455602) scale(-1 1) translate(-400.00000000000006 0)">
<path d="M168 384s9-13.77 32-14.03c17.4-.2 32 13.2 32 13.2s-4.29 23.24-32 23.81c-27.29.56-32-22.98-32-22.98" style="opacity:.05;mix-blend-mode:multiply;fill:#501414"/><path d="M181.71 402.12c14.52 5.66 24.72 5.71 37.72-.71m.86-26.53c-14.52-5.66-27.29-6.34-40.29.09m-4 9.03c8-2.17 16 0 24 0s16-2.17 24 0m12-4s0 4-12 4m-60-4s0 4 12 4" style="fill:none;stroke:#000;stroke-width:4"/>
</g>
<g transform="translate(144.4115 264.9735) scale(-0.88 0.88) translate(-118.75724999999998 14.321795454545455)">
<path fill="#ddb7a0" stroke="#000" stroke-width="5" d="M40.3 99.804c2.56 5.426 7.286 9.34 15.292 10.445 8.532-1.475 12.386-4.548 15.285-10.378"/>
</g>
<g transform="scale(-1 1) translate(-399.38737718378644 0) scale(0.8480000000000001 1) translate(35.79415172873556 0)">
<path fill="#B55239" stroke="#000" stroke-width="4" d="M60 310H50s-.19-5 0-10C60 40-10 145 200 80c34.77-10.76 43.79-21.21 65 0 5 5 5 45 5 45s3.04-26.26 10-25c110 20 60-20 70 200 .23 4.99 0 10 0 10h-10v-20c0-5-10-20-15-25s-5-65-15-75-60 10-110 10-100-20-110-10-10 70-15 75-15 20-15 25z"/>
</g>
</svg>