<svg xmlns="http://www.w3.org/2000/svg" version="1.2" baseProfile="tiny" width="100%" height="100%" viewBox="0 0 400 600" preserveAspectRatio="xMinYMin meet">
<g transform="scale(0.96 1) translate(8.333333333333341 0)">
<path fill="#ddb7a0" stroke="#000" stroke-width="6" d="M10 600s-10-70 50-70c10 0 0-10 60-20 0 0 50-210 80-210s80 210 80 210c60 10 50 20 60 20 60 0 50 70 50 70"/><path d="M71 545s46.9-3 82.1 10M329 545s-46.9-3-82.1 10m77.1-18s5.5-7.5 22-7m-271 7s-5.5-7.5-22-7"/>
</g>
<g transform="scale(0.96 1) translate(8.333333333333341 0)">
<g stroke="#000"><path fill="#89bfd3" stroke-width="6" d="M120 505c0 20 50 15 80 35 30-20 80-15 80-35 0 0 50-5 80 5 0 0 20 10 30 40s10 60 10 60H0s0-30 10-60 30-40 30-40c30-10 80-5 80-5Z" class="hockeyPrimary"/><path fill="#7a1319" d="M4.5 577.03S10 580 20 580c30-15 110-20 180-20 90 0 150 5 180 20 10 0 17-2.97 17-2.97l1 12.97s-8 5-18 5c-40-20-110-22.48-180-22.48-80 0-150 2.48-180 22.48-10 0-18-5-18-5z" class="stripeAccent"/><path fill="#7a1319" stroke-width="2" d="M120 505c0 20 50 15 80 30 30-15 80-10 80-30l15-1c0 41-40 21-95 56-55-35-95-15-95-56z" class="collarAccent"/><path fill="none" stroke-width="6" d="M120 505c0 20 50 15 80 35 30-20 80-15 80-35 0 0 50-5 80 5 0 0 20 10 30 40s10 60 10 60H0s0-30 10-60 30-40 30-40c30-10 80-5 80-5Z" class="hockeyStroke"/><path fill="#07364f" stroke-width="2" d="M180 528.21h40l10 17.05L200 564l-30-18.74z" class="shieldSecondary"/></g>
</g>
<g transform="translate(32 290.6) scale(0.91 0.91) translate(2.274725274725274 3.4021978021978017) translate(1.3400000000000007 -3)">
<path fill="#ddb7a0" stroke="#000" stroke-width="6" d="M43 13S23 3 13 3 3 23 3 33s3 20 13 30 27-10 27-10z"/>
</g>
<g transform="translate(322 290.6) scale(-0.91 0.91) translate(-48.27472527472528 3.4021978021978017) translate(1.3400000000000007 -3)">
<path fill="#ddb7a0" stroke="#000" stroke-width="6" d="M43 13S23 3 13 3 3 23 3 33s3 20 13 30 27-10 27-10z"/>
</g>
<g transform="scale(0.9720000000000001 1) translate(5.761316872427965 0)">
<path fill="#ddb7a0" stroke="#000" stroke-width="6" d="M200 100c100 0 150 60 150 200-10 160 0 110-100 190-10 10-30 20-50 10-20 10.9-40 0-50-10-100-80-90-30-100-190 0-140 50-200 150-200Z" class="head"/><path fill="rgba(0,0,0,0)" d="M200 410c30 0 50 10 50 10 30 0 90-15 90-120h10c-10 160 0 110-100 190-10 10-30 20-50 10-20 10-38.96-1.17-50-10-100-80-90-30-100-190h10c0 105 60 120 90 120 0 0 20-10 50-10" class="faceShave"/><path fill="rgba(0,0,0,0)" d="M60 300H50c0-140 50-200 150-200s150 60 150 200h-10v-10c0-5-10-20-15-25s-5-55-15-65c-40-40-60 0-110 0s-70-40-110 0c-10 10-10 60-15 65s-15 20-15 25z" class="headShave"/>
</g>
<g>
<path fill="none" stroke="#000" stroke-width="2" d="M240 340s25 10 40 0m-120 0s-25 10-40 0" class="eyeline4"/>
</g>
<g>
<path fill="none" stroke="#000" stroke-width="2" d="M170 235s15 0 30 5c15-5 30-5 30-5m-75-15s35 0 45 5c10-5 45-5 45-5"/>
</g>
<g transform="translate(102.8498332560182 285.155) rotate(-9 37.15016674398179 24.845)">
<path d="M5.55 28.46S17.08 11.77 40 11.77s28.58 16.69 28.58 16.69-5.73 11.46-28.65 11.46S5.55 28.46 5.55 28.46" style="fill:#f5f3ee"/><path d="M5.55 28.46C2.68 25.6 17.08 9.77 40 9.77S71.44 25.6 68.58 28.46C65.71 31.33 62.92 16.27 40 16.27S8.41 31.33 5.55 28.46" style="fill:#000"/><path d="M39.93 33.04c-6.34 0-11.46-5.12-11.46-11.46 0-6.33 5.12-11.46 11.46-11.46s11.46 5.13 11.46 11.46c0 6.34-5.12 11.46-11.46 11.46" style="fill:#000"/>
</g>
<g transform="translate(222.8498332560182 285.155) rotate(9 37.15016674398179 24.845) scale(-1 1) translate(-74.30033348796358 0)">
<path d="M5.55 28.46S17.08 11.77 40 11.77s28.58 16.69 28.58 16.69-5.73 11.46-28.65 11.46S5.55 28.46 5.55 28.46" style="fill:#f5f3ee"/><path d="M5.55 28.46C2.68 25.6 17.08 9.77 40 9.77S71.44 25.6 68.58 28.46C65.71 31.33 62.92 16.27 40 16.27S8.41 31.33 5.55 28.46" style="fill:#000"/><path d="M39.93 33.04c-6.34 0-11.46-5.12-11.46-11.46 0-6.33 5.12-11.46 11.46-11.46s11.46 5.13 11.46 11.46c0 6.34-5.12 11.46-11.46 11.46" style="fill:#000"/>
</g>
<g transform="translate(-127.5 -8.774999999999977) rotate(13 267.5 278.775)">
<path fill="#5A3825" stroke="#000" d="m235 280 65 5-5-12.45-55 2.45z"/>
</g>
<g transform="translate(-7.5 -8.774999999999977) rotate(-13 267.5 278.775) scale(-1 1) translate(-535 0)">
<path fill="#5A3825" stroke="#000" d="m235 280 65 5-5-12.45-55 2.45z"/>
</g>
<g transform="translate(-2.842170943040401e-14 51.52119068455602) scale(-1 1) translate(-400.00000000000006 0)">
<path d="M168 384s9-13.77 32-14.03c17.4-.2 32 13.2 32 13.2s-4.29 23.24-32 23.81c-27.29.56-32-22.98-32-22.98" style="opacity:.05;mix-blend-mode:multiply;fill:#501414"/><path d="M181.71 402.12c14.52 5.66 24.72 5.71 37.72-.71m.86-26.53c-14.52-5.66-27.29-6.34-40.29.09m-4 9.03c8-2.17 16 0 24 0s16-2.17 24 0m12-4s0 4-12 4m-60-4s0 4 12 4" style="fill:none;stroke:#000;stroke-width:4"/>
</g>
<g transform="translate(168.19198795027955 347.310851842392) scale(-0.99 0.99) translate(-63.93731715044815 0.2291833147233133)">
<path fill="#ddb7a0" stroke="#000" stroke-width="5" d="m28 1 16.043 32.815s.75 10.848-18.228 10.417c-4.731-.107-4.624.436-6.246-.08" class="nose" transform="matrix(1 0 -.07193 1 2.942 .274)"/>
</g>
<g transform="scale(-1 1) translate(-400.33022977896485 0) scale(0.9720000000000001 1) translate(5.7660732684212865 0)">
<path fill="#5A3825" stroke="#000" stroke-width="4" d="m60.7 303.6-10.18 2.73s-10.34-6.75-10.47-26.25A411 411 0 0 1 38.08 249c-.2-9.59-.03-18.34.42-26.31.51-7.92 1.31-15.08 2.36-21.56 1.11-6.48 2.45-12.31 3.96-17.56 3.18-10.58 6.91-18.91 10.54-25.28 3.71-6.48 7.2-10.94 9.89-13.58 5.38-5.37 13.13-11.13 22.17-18.43 8.94-7.4 19.07-16.18 29.29-27.17 10.68-10.98 22.51-16.62 32.85-19.55 10.38-2.64 19.25-2.91 23.85-3.12 9.2-.27 25.61 16.69 25.61 16.69s20.62-16.33 29.93-15.73c4.67.37 13.77.98 23.87 3.86 10.17 3.13 21.54 8.82 31.02 19.4 9.59 10.67 19.73 19.38 28.92 26.77 9.43 7.35 17.63 13.2 23.25 18.58 2.81 2.65 6.42 7.2 10.14 13.75 3.66 6.44 7.34 14.82 10.33 25.34 1.41 5.23 2.64 11.02 3.61 17.43.92 6.41 1.59 13.49 1.95 21.29.34 7.85.39 16.46.12 25.88-.3 9.46-.94 19.64-2.06 30.47-.22 19.42-10.69 26.22-10.69 26.22l-10.23-2.65s1.72-11.23 2.17-15.18c.38-4.04-8.03-16.21-12.48-20.05-2.27-1.9-5.66-13.36-10.28-26.07-5.23-13.61-11.69-28.76-17.29-33.79-5.66-5.23-19.79-7.41-32.54-8.4-12.76-1.12-24.1-.86-24.1-.86s-7.29-9.1-8.8-10.64c-.76-.77-.1.39 3.66 5.55 3.78 5.08 10.69 13.88 22.36 27.8-10.33.43-26.38-4.73-39.78-10.31-13.24-5.86-23.75-11.93-23.75-11.93s-9.95 6.06-22.6 11.86c-12.77 5.47-28.2 10.48-38.45 9.98 10.34-13.69 16.44-22.35 19.77-27.36 3.32-5.09 3.9-6.25 3.21-5.48-1.39 1.52-7.89 10.52-7.89 10.52s-11.14-.28-23.52.79c-12.34.91-25.92 2.97-31.15 8.08-5.19 4.93-10.81 19.84-15.45 33.28-4.28 12.63-7.6 24.1-9.92 26.03-4.6 3.93-13.44 16.38-13.16 20.48.32 4.03 1.51 15.56 1.51 15.56Z"/>
</g>
</svg>