<svg xmlns="http://www.w3.org/2000/svg" version="1.2" baseProfile="tiny" width="100%" height="100%" viewBox="0 0 400 600" preserveAspectRatio="xMinYMin meet">
<g transform="scale(0.8800000000000001 1) translate(26.989981400272903 0)">
<path fill="#272421" stroke="#000" stroke-width="4" d="M63 243s-11.25 45.2-20 72-22.23 81.18 12 102c17.75 10.8 56.25 13.8 56.25 13.8L308 437s44.75-5.2 52-58c6.01-43.79 6.25-79-32-125" class="longHairBg"/><path fill="#272421" stroke="#000" stroke-width="4" d="M341 393s-6.51 32.08-11.25 46.3c-2.5 7.5-7 19.5 1.25 35.7-13.3-2.88-30-22-30-22s-11.7 35.32-44.3 42.32c8-14.8 7.3-34.32 7.3-34.32M55 393s6.51 32.08 11.25 46.3c2.5 7.5 7 19.5-1.25 35.7 13.3-2.88 30-22 30-22s11.7 35.32 44.3 42.32c-8-14.8-7.3-34.32-7.3-34.32" class="longHairBg"/>
</g>
<g transform="scale(1 1) translate(0 0)">
<path fill="#ddb7a0" stroke="#000" stroke-width="6" d="M10 600s0-50 60-70 70-50 70-50l60-180 60 180s10 30 70 50 60 70 60 70" class="body"/>
</g>
<g transform="scale(1 1) translate(0 0)">
<g stroke="#000"><path fill="#89bfd3" stroke-width="6" d="M120 505c0 35 50 25 80 45 30-20 80-10 80-45 30-25 90-15 100-5s10.07 20.41 15 50c5 30 5 20 5 60H0c0-40 0-29.59 5-59.59 4.93-29.59 5-39.38 15-50.41 9.5-10.48 70-20 100 5Z" class="footballPrimary"/><path fill="#7a1319" stroke-width="2" d="M120 505c0 35 50 25 80 45 30-20 80-10 80-45l15-10c5 60-55 45-95 75-40-30-100-15-95-75z" class="collarSecondary"/><g stroke-width="2"><path fill="#7a1319" d="m55 490-25 5-10 5v80h35zm290 0 25 5 10 5v80h-35z" class="vStripes1"/><path fill="#07364f" d="m30 495 15-3.14V580H30zm340 0-15-3.14V580h15z" class="vStripes2"/></g><path fill="none" stroke-width="6" d="M120 505c0 35 50 25 80 45 30-20 80-10 80-45 30-25 90-15 100-5s10.07 20.41 15 50c5 30 5 20 5 60H0c0-40 0-30 5-60 4.93-29.59 5-38.97 15-50 9.5-10.48 70-20 100 5Z" class="footballStroke"/><path fill="none" stroke-width="2" d="M19.5 570s72.5-2.11 81.5-20m280 20s-71-2.11-80-20" class="shp3"/></g>
</g>
<g transform="translate(32 290.6) scale(0.77 0.77) translate(6.870129870129869 10.275324675324676) translate(15.599999999999998 -3)">
<path fill="#ddb7a0" stroke="#000" stroke-width="6" d="M43 13S23 3 13 3 3 23 3 33s3 20 13 30 27-10 27-10z"/>
</g>
<g transform="translate(322 290.6) scale(-0.77 0.77) translate(-52.87012987012987 10.275324675324676) translate(15.599999999999998 -3)">
<path fill="#ddb7a0" stroke="#000" stroke-width="6" d="M43 13S23 3 13 3 3 23 3 33s3 20 13 30 27-10 27-10z"/>
</g>
<g transform="scale(0.8800000000000001 1) translate(27.272727272727245 0)">
<path fill="#ddb7a0" stroke="#000" stroke-width="6" d="M200 100c100 0 150 60 150 200 0 20-20 130-20 130l-80 50c-20 20-40 20-50 20s-30 0-50-20l-80-50S50 320 50 300c0-140 50-200 150-200Z"/><path fill="rgba(0,0,0,0)" d="M200 410c30 0 50 10 50 10 30 0 90-15 90-120h10c0 20-20 130-20 130l-80 50c-20 20-40 20-50 20s-30 0-50-20l-80-50S50 320 50 300h10c0 105 60 120 90 120 0 0 20-10 50-10" class="faceShave"/><path fill="rgba(0,0,0,0)" d="M60 300H50c0-140 50-200 150-200s150 60 150 200h-10v-10c0-5-10-20-15-25s-5-55-15-65c-40-40-60 0-110 0s-70-40-110 0c-10 10-10 60-15 65s-15 20-15 25z" class="headShave"/>
</g>
<g transform="translate(144.4807306749833 416) scale(0.46 0.46) translate(6.4791422511065715 22.30434782608696)">
<path fill="none" stroke="#000" stroke-width="2" d="M9 2s-12.5 8.95-4 34" class="shp0"/>
</g>
<g transform="translate(244.4807306749833 416) scale(-0.46 0.46) translate(-17.517680901139986 22.30434782608696)">
<path fill="none" stroke="#000" stroke-width="2" d="M9 2s-12.5 8.95-4 34" class="shp0"/>
</g>
<g transform="scale(0.8800000000000001 1) translate(27.272727272727245 0)">
<path fill="#272421" stroke="#000" d="M188 454c2-2 22-2 24 0s-8 16-12 16-14-14-12-16Zm62 31c-10 20-30 20-50 20s-40 0-50-20c5-5 10 10 50 10s45-15 50-10Z" class="shp0"/>
</g>
<g transform="translate(101.97070870858956 282.01425559511955) rotate(-5 38.029291291410445 27.98574440488045)">
<path d="m6.19 40.49-.83-22.07s2.27-3.87 17.09.22c29.93 8.26 42.45 4.47 42.45 4.47l6.04 11.72s-7.05.61-29.88 2.61c-22.84 2-34.87 3.05-34.87 3.05" style="fill:#f5f3ee"/><path d="M38.86 36.14c-4.51.39-8.55-3.74-9.03-9.25s2.83-7.08 7.34-7.48c4.52-.39 8.51.54 8.99 6.05s-2.78 10.28-7.3 10.68" style="fill:#000"/><path d="M6.19 40.49S2.41 12.46 9.05 15.75c10.49 5.2 55.85 7.36 55.85 7.36l6.04 11.72" style="fill:none;stroke:#000;stroke-width:6"/>
</g>
<g transform="translate(221.97070870858954 282.01425559511955) rotate(5 38.029291291410445 27.98574440488045) scale(-1 1) translate(-76.05858258282089 0)">
<path d="m6.19 40.49-.83-22.07s2.27-3.87 17.09.22c29.93 8.26 42.45 4.47 42.45 4.47l6.04 11.72s-7.05.61-29.88 2.61c-22.84 2-34.87 3.05-34.87 3.05" style="fill:#f5f3ee"/><path d="M38.86 36.14c-4.51.39-8.55-3.74-9.03-9.25s2.83-7.08 7.34-7.48c4.52-.39 8.51.54 8.99 6.05s-2.78 10.28-7.3 10.68" style="fill:#000"/><path d="M6.19 40.49S2.41 12.46 9.05 15.75c10.49 5.2 55.85 7.36 55.85 7.36l6.04 11.72" style="fill:none;stroke:#000;stroke-width:6"/>
</g>
<g transform="translate(97.20374849998123 252.4995916989505) rotate(5 42.79625150001876 17.50040830104949)">
<path fill="#272421" stroke="#000" d="M12.93 15.05c-1.51.67-4.18 2.29-5.94 3.61s-3.38 2.8-3.61 3.29c-.22.49-.16.96.13 1.04.3.08 4.44-.28 9.21-.79 4.77-.52 11.58-1.06 15.13-1.21s11.63-.28 17.94-.29c6.32-.01 14.56.12 18.32.29 3.75.17 8.39.25 10.29.19 1.91-.05 4.56-.27 5.89-.47 2.09-.32 2.33-.53 1.84-1.57-.42-.91-1.74-1.55-5.18-2.53-2.54-.73-7.86-1.72-11.83-2.22-3.97-.49-10.99-1.19-15.6-1.55-4.62-.36-11.91-.72-16.22-.81-6.13-.11-8.91.06-12.73.83-2.69.53-6.13 1.52-7.64 2.19Z"/>
</g>
<g transform="translate(217.20374849998123 252.4995916989505) rotate(-5 42.79625150001876 17.50040830104949) scale(-1 1) translate(-85.59250300003752 0)">
<path fill="#272421" stroke="#000" d="M12.93 15.05c-1.51.67-4.18 2.29-5.94 3.61s-3.38 2.8-3.61 3.29c-.22.49-.16.96.13 1.04.3.08 4.44-.28 9.21-.79 4.77-.52 11.58-1.06 15.13-1.21s11.63-.28 17.94-.29c6.32-.01 14.56.12 18.32.29 3.75.17 8.39.25 10.29.19 1.91-.05 4.56-.27 5.89-.47 2.09-.32 2.33-.53 1.84-1.57-.42-.91-1.74-1.55-5.18-2.53-2.54-.73-7.86-1.72-11.83-2.22-3.97-.49-10.99-1.19-15.6-1.55-4.62-.36-11.91-.72-16.22-.81-6.13-.11-8.91.06-12.73.83-2.69.53-6.13 1.52-7.64 2.19Z"/>
</g>
<g transform="translate(168 428.3888888888889)">
<path d="M32 3c10 0 15 0 25 5 5 5 5 5 0 10s-15 0-25 0-20 5-25 0-5-5 0-10c10-5 15-5 25-5Z" style="fill:#fff;stroke:#000;stroke-width:5"/>
</g>
<g transform="translate(0 -20) scale(-1.08 1.08) translate(-385.18518518518516 -28.888888888888914)">
<path fill="#ddb7a0" stroke="#000" stroke-width="5" d="m175 380 25 20 25-20" class="nose"/>
</g>
<g transform="scale(-1 1) translate(-400 0) scale(0.8800000000000001 1) translate(27.272727272727245 0)">
<defs><linearGradient id="a" x1="200" x2="200" y1="100" y2="310" gradientUnits="userSpaceOnUse"><stop offset="0" stop-color="rgba(0,0,0,.25)"/><stop offset="1" stop-color="rgba(0,0,0,0)"/></linearGradient></defs><g style="opacity:1;stroke-width:1;stroke-miterlimit:4;stroke-dasharray:none"><path d="M60 310H50v-10c0-140 50-200 150-200s150 60 150 200v10h-10v-20c0-5-10-20-15-25s-5-55-15-65c-40-40-56.429-38.095-106.429-38.095S130 160 90 200c-10 10-10 60-15 65s-15 20-15 25z" style="fill:url(#a);stroke:none;stroke-width:1;stroke-miterlimit:4;stroke-dasharray:none"/></g><path fill="#272421" stroke="#000" stroke-width="4" d="M200 95c120 0 140 90 140 115-20 0-20 5-25 0s-14.444-11.112-49.444-11.112c-15 0-39.96-.317-64.96-.317s-50.04.317-65.04.317C100.556 198.888 90 205 85 210s-5 0-25 0c0-25 25-115 140-115Z"/>
</g>
</svg>