<svg xmlns="http://www.w3.org/2000/svg" version="1.2" baseProfile="tiny" width="100%" height="100%" viewBox="0 0 400 600" preserveAspectRatio="xMinYMin meet">
<g transform="scale(0.96 1) translate(8.333333333333341 0)">
<path fill="#ddb7a0" stroke="#000" stroke-width="6" d="M10 600s0-50 60-70 70-50 70-50l60-180 60 180s10 30 70 50 60 70 60 70" class="body"/>
</g>
<g transform="scale(0.96 1) translate(8.333333333333341 0)">
<g stroke="#000"><path fill="#89bfd3" stroke-width="6" d="M120 505c0 20 50 15 80 35 30-20 80-15 80-35 0 0 50-5 80 5 0 0 20 10 30 40s10 60 10 60H0s0-30 10-60 30-40 30-40c30-10 80-5 80-5Z" class="hockeyPrimary"/><path fill="#7a1319" d="M4.5 577.03S10 580 20 580c30-15 110-20 180-20 90 0 150 5 180 20 10 0 17-2.97 17-2.97l1 12.97s-8 5-18 5c-40-20-110-22.48-180-22.48-80 0-150 2.48-180 22.48-10 0-18-5-18-5z" class="stripeAccent"/><path fill="#7a1319" stroke-width="2" d="M120 505c0 20 50 15 80 30 30-15 80-10 80-30l15-1c0 41-40 21-95 56-55-35-95-15-95-56z" class="collarAccent"/><path fill="none" stroke-width="6" d="M120 505c0 20 50 15 80 35 30-20 80-15 80-35 0 0 50-5 80 5 0 0 20 10 30 40s10 60 10 60H0s0-30 10-60 30-40 30-40c30-10 80-5 80-5Z" class="hockeyStroke"/><path fill="#07364f" stroke-width="2" d="M180 528.21h40l10 17.05L200 564l-30-18.74z" class="shieldSecondary"/></g>
</g>
<g transform="translate(32 293.3) scale(0.89 0.89) translate(2.8426966292134828 3.917977528089888) translate(-2.6899999999999995 -3)">
<path fill="#ddb7a0" stroke="#000" stroke-width="6" d="M43 8S3-12 3 28c0 45 40 30 40 30z"/>
</g>
<g transform="translate(322 293.3) scale(-0.89 0.89) translate(-48.84269662921349 3.917977528089888) translate(-2.6899999999999995 -3)">
<path fill="#ddb7a0" stroke="#000" stroke-width="6" d="M43 8S3-12 3 28c0 45 40 30 40 30z"/>
</g>
<g transform="scale(0.998 1) translate(0.40080160320641317 0)">
<path fill="#ddb7a0" stroke="#000" stroke-width="6" d="M200 100c100 0 150 60 150 200 0 20-20 120-25 130-4.47 8.94-105 70-105 70h-40s-98.29-56.58-105-70c-5-10-25-110-25-130 0-140 50-200 150-200Z" class="head"/><path fill="rgba(0,0,0,0)" d="M200 410c30 0 50 10 50 10 30 0 90-15 90-120h10c0 20-20 120-25 130-4.47 8.94-105 70-105 70h-40s-98.29-56.58-105-70c-5-10-25-110-25-130h10c0 105 60 120 90 120 0 0 20-10 50-10" class="faceShave"/><path fill="rgba(0,0,0,0)" d="M60 300H50c0-140 50-200 150-200s150 60 150 200h-10v-10c0-5-10-20-15-25s-5-55-15-65c-40-40-60 0-110 0s-70-40-110 0c-10 10-10 60-15 65s-15 20-15 25z" class="headShave"/>
</g>
<g transform="translate(144.4807306749833 416) scale(2.09 2.09) translate(-2.8784706049130198 -9.909090909090908)">
<path fill="none" stroke="#000" stroke-width="2" d="M9 2s-12.5 8.95-4 34" class="shp0"/>
</g>
<g transform="translate(244.4807306749833 416) scale(-2.09 2.09) translate(-8.160068045120395 -9.909090909090908)">
<path fill="none" stroke="#000" stroke-width="2" d="M9 2s-12.5 8.95-4 34" class="shp0"/>
</g>
<g transform="translate(102.5 287.5) rotate(-1 37.5 22.5)">
<path d="M10 35 5 20s15-10 30-10 35 15 35 15l-5 10z" style="fill:#f5f3ee"/><path d="M37.93 32.78c-4.53 0-8.2-3.66-8.2-8.2 0-4.53 3.67-8.19 8.2-8.19s8.19 3.66 8.19 8.19c0 4.54-3.66 8.2-8.19 8.2" style="fill:#000"/><path d="M10 35 5 20.72S25 10 35 10s35 15 35 15l-5 10" style="fill:none;stroke:#000;stroke-width:6"/>
</g>
<g transform="translate(222.5 287.5) rotate(1 37.5 22.5) scale(-1 1) translate(-75 0)">
<path d="M10 35 5 20s15-10 30-10 35 15 35 15l-5 10z" style="fill:#f5f3ee"/><path d="M37.93 32.78c-4.53 0-8.2-3.66-8.2-8.2 0-4.53 3.67-8.19 8.2-8.19s8.19 3.66 8.19 8.19c0 4.54-3.66 8.2-8.19 8.2" style="fill:#000"/><path d="M10 35 5 20.72S25 10 35 10s35 15 35 15l-5 10" style="fill:none;stroke:#000;stroke-width:6"/>
</g>
<g transform="translate(105 260.3333333333333) rotate(-2 35 9.66666666666667)">
<path fill="#CC9966" stroke="#000" d="M67 17c3-3 0-12 0-12H39C29 5 3 1 3 1S0 14 3 17s26 0 36 0 25 3 28 0Z"/>
</g>
<g transform="translate(225 260.3333333333333) rotate(2 35 9.66666666666667) scale(-1 1) translate(-70 0)">
<path fill="#CC9966" stroke="#000" d="M67 17c3-3 0-12 0-12H39C29 5 3 1 3 1S0 14 3 17s26 0 36 0 25 3 28 0Z"/>
</g>
<g transform="translate(-0.125 48.766108367626885)">
<path d="M168 384s9-13.77 32-14.03c17.4-.2 32 13.2 32 13.2s-4.29 28.26-32 28.83c-27.29.56-32-28-32-28" style="opacity:.05;mix-blend-mode:multiply;fill:#501414"/><path d="M168 384c12-4 48-4 64 0-8 8-10 16-32 16-20 0-24-8-32-16Z" style="fill:#000;stroke:#000"/><path d="M168 384c14.08-5.73 53.75-3.73 64.25.6-20 4.67-30.5 2-30.5 2l.17-5.17-4.67-.33.17 5.17S184 388 168 384m4.42 6.6s21.58 3.17 27.58 3.17 26.92-3 26.92-3S216 400 200 400c-12 0-27.58-9.4-27.58-9.4" style="fill:#fff"/><path d="M168 384c12-4 48-4 64 0-8 8-10 16-32 16-20 0-24-8-32-16Zm16 24c12 6 20 6 32 0" style="fill:none;stroke:#000;stroke-width:4"/>
</g>
<g transform="translate(150.27785841680208 317.5) scale(-0.53 0.53) translate(-143.53750306092982 46.5566037735849)">
<path fill="#ddb7a0" stroke="#000" stroke-width="5" d="M36.03 47c-19.25.25-26.57 32.37-4.37 27.13 9-2.13 8.25 4.12 18.12 4.37 9.5.24 5.75-6.12 16.38-3.25 22.01 5.96 18.75-28-.21-28.02M50 55.6S51.25 45 51.25 35 50 5 50 5" class="nose"/><path d="M40 95h20v5H40z" style="fill:none"/>
</g>
<g transform="scale(0.998 1) translate(0.40080160320641317 0)">
<path fill="#333" stroke="#000" stroke-width="2" d="M195 285h10s35-10 65-10 50 10 50 10 0 5 10 5v30c-10 0-10 5-10 5s-20 20-50 20c-60 0-65-35-65-35 0-5-10-5-10 0 0 0-5 35-65 35-30 0-50-20-50-20s0-5-10-5v-30c10 0 10-5 10-5s20-10 50-10 65 10 65 10ZM90 295c0 20 0 40 40 40 50 0 50-30 50-30v-10s-20-10-50-10c-40 0-40 10-40 10Zm130 10s0 30 50 30c40 0 40-20 40-40 0 0 0-10-40-10-30 0-50 10-50 10z" class="frame"/><path fill="rgba(150,150,175,.5)" d="M90 295s0-10 40-10c30 0 50 10 50 10v10s0 30-50 30c-40 0-40-20-40-40m180 40c-50 0-50-30-50-30v-10s20-10 50-10c40 0 40 10 40 10 0 20 0 40-40 40" class="lens"/><path fill="#7a1319" stroke="#000" stroke-width="2" d="M350 320v-30h-20v30zm-280 0v-30H50v30z" class="straps"/><path fill="none" stroke="#fff" stroke-width="2" d="m280 315 10-20m0 20 10-20m-160 20 10-20m0 20 10-20" class="glare"/>
</g>
</svg>