<svg xmlns="http://www.w3.org/2000/svg" version="1.2" baseProfile="tiny" width="100%" height="100%" viewBox="0 0 400 600" preserveAspectRatio="xMinYMin meet">
<g transform="scale(0.99 1) translate(2.020202020202022 0)">
<path fill="#5c3937" stroke="#000" stroke-width="6" d="M10 600s-10-65 50-65c5 0 25-15 70-35l70-200 70 200c45 20 65 35 70 35 60 0 50 65 50 65" class="body"/>
</g>
<g transform="scale(0.99 1) translate(2.020202020202022 0)">
<path fill="#89bfd3" stroke="#000" stroke-width="6" d="M120 505c0 35 50 25 80 45 30-20 80-10 80-45 30-25 90-15 100-5s10.07 20.41 15 50c5 30 5 20 5 60H0c0-40 0-29.59 5-59.59 4.93-29.59 5-39.38 15-50.41 9.5-10.48 70-20 100 5Z" class="footballPrimary"/><path fill="#7a1319" stroke="#000" stroke-width="2" d="M120 505c0 35 50 25 80 45 30-20 80-10 80-45l15-10c5 60-55 45-95 75-40-30-100-15-95-75z" class="collarSecondary"/><path fill="#7a1319" stroke="#000" stroke-width="2" d="m20 500 15 80 5-88.8-10 3.07zm360 0-15 80-5-88.8 10 3.07z" class="Sparta"/><path fill="none" stroke="#000" stroke-width="6" d="M120 505c0 35 50 25 80 45 30-20 80-10 80-45 30-25 90-15 100-5s10.07 20.41 15 50c5 30 5 20 5 60H0c0-40 0-30 5-60 4.93-29.59 5-38.97 15-50 9.5-10.48 70-20 100 5Z" class="footballStroke"/><path fill="none" stroke="#000" stroke-width="2" d="M19.5 570s72.5-2.11 81.5-20m280 20s-71-2.11-80-20" class="shp3"/>
</g>
<g transform="translate(33.53553390593274 291.01362954285077) scale(1.38 1.38) translate(-5.9105051563373605 -9.358565778055583) translate(23.421067811865473 -2.979591836734694)">
<path fill="#5c3937" stroke="#000" stroke-width="6" d="M40 14S10-1 5 4s0 30 5 40-5 25 30 20z"/>
</g>
<g transform="translate(323.53553390593277 291.01362954285077) scale(-1.38 1.38) translate(-37.01842703179717 -9.358565778055583) translate(23.421067811865473 -2.979591836734694)">
<path fill="#5c3937" stroke="#000" stroke-width="6" d="M40 14S10-1 5 4s0 30 5 40-5 25 30 20z"/>
</g>
<g transform="scale(0.8300000000000001 1) translate(40.96385542168672 0)">
<path fill="#5c3937" stroke="#000" stroke-width="6" d="M200 100c100 0 150 60 150 200 0 20-20 130-20 130l-80 50c-20 20-40 20-50 20s-30 0-50-20l-80-50S50 320 50 300c0-140 50-200 150-200Z"/><path fill="rgba(0,0,0,0)" d="M200 410c30 0 50 10 50 10 30 0 90-15 90-120h10c0 20-20 130-20 130l-80 50c-20 20-40 20-50 20s-30 0-50-20l-80-50S50 320 50 300h10c0 105 60 120 90 120 0 0 20-10 50-10" class="faceShave"/><path fill="rgba(0,0,0,0)" d="M60 300H50c0-140 50-200 150-200s150 60 150 200h-10v-10c0-5-10-20-15-25s-5-55-15-65c-40-40-60 0-110 0s-70-40-110 0c-10 10-10 60-15 65s-15 20-15 25z" class="headShave"/>
</g>
<g transform="scale(0.8300000000000001 1) translate(40.96385542168672 0)">
<path fill="#272421" fill-rule="evenodd" stroke="#000" d="M200 410c55 0 55 15 55 30 70 0 85-35 85-140h10c0 85.955-6.62 123.276-13.03 142.306-3.286 9.75-6.333 14.677-7.138 19.4-1.068 6.257-8.838 9.629-10.958 17.543-3.017 11.263-8.556 10.735-10.665 17.834-2.637 8.883-7.952 7.494-9.426 12.682-2.075 7.307-10.412 7.821-13.197 13.6-3.548 7.362-10.63 5.887-14.533 10.156-6.3 6.892-15.088 3.937-20.9 8.56-4.793 3.812-10.78 1.493-15.71 3.422-10.582 4.14-20.605 2.066-30.024 2.066-8.633 0-19.018 1.295-28.214-1.692-5.696-1.85-12.198 1.078-17.972-3.64-5.88-4.804-15.908-.87-21.481-8.598-3.316-4.597-11.258-2.689-14.29-9.82-2.193-5.155-10.92-4.418-12.121-12.146-1.034-6.647-11.694-8.405-13.307-15.405-1.694-7.352-10.13-11.094-11.95-17.176-3.054-10.198-8.921-11.446-9.594-18.569-.468-4.949-5.392-10.959-9.558-21.057C58.247 420.836 50 384.304 50 300h10c0 105 15 140 85 140 0-15 0-30 55-30zm-45 30c0 20 5 30 25 30 10 0 9.702-5.833 19.702-5.833S210 470 220 470c20 0 25-10 25-30s-15-20-45-20-45 0-45 20z" class="shp0"/>
</g>
<g transform="translate(102.93299701421847 284.73230356541717) rotate(9 37.067002985781535 25.26769643458282)">
<path d="M68.08 23.19s1.89 14.88-27.87 18.67C15.41 45.02 6.66 15.89 6.03 10.93 25.87 8.4 65.55 3.35 68.08 23.19Z" style="fill:#fff;stroke:#000;stroke-width:5"/><path d="M39.04 16.81c9.92-1.27 11.81 13.61 1.89 14.88-9.92 1.26-11.81-13.62-1.89-14.88" style="fill:#000;stroke:#000;stroke-linecap:round;stroke-linejoin:round;stroke-width:4"/>
</g>
<g transform="translate(222.93299701421847 284.73230356541717) rotate(-9 37.067002985781535 25.26769643458282) scale(-1 1) translate(-74.13400597156307 0)">
<path d="M68.08 23.19s1.89 14.88-27.87 18.67C15.41 45.02 6.66 15.89 6.03 10.93 25.87 8.4 65.55 3.35 68.08 23.19Z" style="fill:#fff;stroke:#000;stroke-width:5"/><path d="M39.04 16.81c9.92-1.27 11.81 13.61 1.89 14.88-9.92 1.26-11.81-13.62-1.89-14.88" style="fill:#000;stroke:#000;stroke-linecap:round;stroke-linejoin:round;stroke-width:4"/>
</g>
<g transform="translate(97 257.6503955087335) rotate(12 43 12.349604491266511)">
<path fill="#272421" stroke="#000" d="M83 13C83 3 73 3 73 3 48-2 17.46 8.36 3 18c40-5 50 5 75 5 0 0 5 0 5-10Z"/>
</g>
<g transform="translate(217 257.6503955087335) rotate(-12 43 12.349604491266511) scale(-1 1) translate(-86 0)">
<path fill="#272421" stroke="#000" d="M83 13C83 3 73 3 73 3 48-2 17.46 8.36 3 18c40-5 50 5 75 5 0 0 5 0 5-10Z"/>
</g>
<g transform="translate(169 424.5)">
<path d="M11 8S4.33 28 31 28 51 8 51 8 41 4.37 31 4.37 11 8 11 8Zm50-5L51 8M1 3l10 5" style="fill:#fff;stroke:#000;stroke-width:5"/>
</g>
<g transform="translate(0 12.5) scale(1.23 1.23) translate(-37.39837398373984 -66.84959349593495)">
<path fill="#5c3937" stroke="#000" stroke-width="5" d="M180 380s10-5 20-5 20 5 20 5m-20-5v-40" class="nose"/>
</g>
<g transform="scale(0.8300000000000001 1) translate(40.96385542168672 0)">
<defs><linearGradient id="a" x1="200" x2="200" y1="100" y2="310" gradientUnits="userSpaceOnUse"><stop offset="0" stop-color="rgba(0,0,0,.25)"/><stop offset="1" stop-color="rgba(0,0,0,0)"/></linearGradient></defs><g style="opacity:1;stroke-width:1;stroke-miterlimit:4;stroke-dasharray:none"><path d="M60 310H50v-10c0-140 50-200 150-200s150 60 150 200v10h-10v-20c0-5-10-20-15-25s-5-55-15-65c-40-40-56.429-38.095-106.429-38.095S130 160 90 200c-10 10-10 60-15 65s-15 20-15 25z" style="fill:url(#a);stroke:none;stroke-width:1;stroke-miterlimit:4;stroke-dasharray:none"/></g><path fill="#272421" stroke="#000" stroke-width="4" d="M200 95c120 0 140 90 140 115-20 0-20 5-25 0s-14.444-11.112-49.444-11.112c-15 0-39.96-.317-64.96-.317s-50.04.317-65.04.317C100.556 198.888 90 205 85 210s-5 0-25 0c0-25 25-115 140-115Z"/>
</g>
</svg>