<svg xmlns="http://www.w3.org/2000/svg" version="1.2" baseProfile="tiny" width="100%" height="100%" viewBox="0 0 400 600" preserveAspectRatio="xMinYMin meet">
<g transform="scale(1.03 1) translate(-5.8252427184466065 0)">
<path fill="#f2d6cb" stroke="#000" stroke-width="6" d="M5 600s-5-60 35-70c0 0 40 0 90-30l70-200 70 200c50 30 90 30 90 30 40 10 35 70 35 70" class="body"/>
</g>
<g transform="scale(1.03 1) translate(-5.825242718446607 0)">
<path d="M120 505c0 35 50 25 80 45 30-20 80-10 80-45 30-25 90-15 100-5s10.07 20.41 15 50c5 30 5 20 5 60H0c0-40 0-29.59 5-59.59 4.93-29.59 5-39.38 15-50.41 9.5-10.48 70-20 100 5Z" style="fill:#fff;fill-rule:nonzero;stroke:#000;stroke-width:6px"/><path d="M388.812 518.932c-.419-3.338 2.794 10.698 6.188 31.068 5 30 5 20 5 60h-57.163z" style="fill:#89bfd3" transform="matrix(-1 0 0 1 400.837 0)"/><path d="M388.812 518.932c-.419-3.338 2.794 10.698 6.188 31.068 5 30 5 20 5 60h-57.163z" style="fill:#89bfd3"/><path d="M28.441 497.904 57.812 610.86l-46.409-91.928c1.742-13.878 7.068-21.504 17.038-21.028" style="fill:#7a1319;stroke:#000;stroke-width:1px;stroke-linecap:round;stroke-linejoin:round;stroke-miterlimit:1.5"/><path d="M28.441 497.904 57.812 610.86l-46.409-91.928c1.742-13.878 7.068-21.504 17.038-21.028" style="fill:#7a1319;stroke:#000;stroke-width:1px;stroke-linecap:round;stroke-linejoin:round;stroke-miterlimit:1.5" transform="matrix(-1 0 0 1 400.215 0)"/><path d="M120 505c0 35 50 25 80 45 30-20 80-10 80-45l15-10c5 60-55 45-95 75-40-30-100-15-95-75z" style="fill:#89bfd3;fill-rule:nonzero;stroke:#000;stroke-width:2px"/><path d="M120 505c0 35 50 25 80 45 30-20 80-10 80-45 30-25 90-15 100-5s10.07 20.41 15 50c5 30 5 20 5 60H0c0-40 0-30 5-60 4.93-29.59 5-38.97 15-50 9.5-10.48 70-20 100 5Z" style="fill:none;fill-rule:nonzero;stroke:#000;stroke-width:6px"/><path d="M19.5 570s72.5-2.11 81.5-20m280 20s-71-2.11-80-20" style="fill:none;fill-rule:nonzero;stroke:#000;stroke-width:2px"/>
</g>
<g transform="translate(32 290.6) scale(1.05 1.05) translate(-1.0952380952380962 -1.6380952380952396) translate(12.81 -3)">
<path fill="#f2d6cb" stroke="#000" stroke-width="6" d="M43 13S23 3 13 3 3 23 3 33s3 20 13 30 27-10 27-10z"/>
</g>
<g transform="translate(322 290.6) scale(-1.05 1.05) translate(-44.9047619047619 -1.6380952380952396) translate(12.81 -3)">
<path fill="#f2d6cb" stroke="#000" stroke-width="6" d="M43 13S23 3 13 3 3 23 3 33s3 20 13 30 27-10 27-10z"/>
</g>
<g transform="scale(0.898 1) translate(22.717149220489972 0)">
<path fill="#f2d6cb" stroke="#000" stroke-width="6" d="M200 100c100 0 150 60 150 200-10 160 0 110-100 190-10 10-30 20-50 10-20 10.9-40 0-50-10-100-80-90-30-100-190 0-140 50-200 150-200Z" class="head"/><path fill="rgba(0,0,0,0.1)" d="M200 410c30 0 50 10 50 10 30 0 90-15 90-120h10c-10 160 0 110-100 190-10 10-30 20-50 10-20 10-38.96-1.17-50-10-100-80-90-30-100-190h10c0 105 60 120 90 120 0 0 20-10 50-10" class="faceShave"/><path fill="rgba(0,0,0,0.1)" d="M60 300H50c0-140 50-200 150-200s150 60 150 200h-10v-10c0-5-10-20-15-25s-5-55-15-65c-40-40-60 0-110 0s-70-40-110 0c-10 10-10 60-15 65s-15 20-15 25z" class="headShave"/>
</g>
<g>
<path fill="none" stroke="#000" stroke-width="2" d="M220 270s-10 0-10-20m-30 20s10 0 10-20" class="eyeline1"/>
</g>
<g transform="translate(102.43516325508939 287.6) rotate(14 37.56483674491061 22.4)">
<path d="M5 35S17.08 5 40 5s30 30 30 30-7.15 7.92-30.07 7.92S5 35 5 35" style="fill:#f5f3ee"/><path d="M5 35.6C2.13 32.73 17.08 1.88 40 1.88S72.87 32.13 70 35 62.92 6.73 40 6.73 7.87 38.46 5 35.6" style="fill:#000"/><path d="M39.93 33.78c-4.53 0-8.2-3.66-8.2-8.2 0-4.53 3.67-8.19 8.2-8.19s8.19 3.66 8.19 8.19c0 4.54-3.66 8.2-8.19 8.2" style="fill:#000"/>
</g>
<g transform="translate(222.43516325508938 287.6) rotate(-14 37.56483674491061 22.4) scale(-1 1) translate(-75.12967348982122 0)">
<path d="M5 35S17.08 5 40 5s30 30 30 30-7.15 7.92-30.07 7.92S5 35 5 35" style="fill:#f5f3ee"/><path d="M5 35.6C2.13 32.73 17.08 1.88 40 1.88S72.87 32.13 70 35 62.92 6.73 40 6.73 7.87 38.46 5 35.6" style="fill:#000"/><path d="M39.93 33.78c-4.53 0-8.2-3.66-8.2-8.2 0-4.53 3.67-8.19 8.2-8.19s8.19 3.66 8.19 8.19c0 4.54-3.66 8.2-8.19 8.2" style="fill:#000"/>
</g>
<g transform="translate(101.88888888888889 257) rotate(15 38.111111111111114 13)">
<path fill="#B55239" stroke="#000" d="M71 17c8-8 0-12 0-12S43 9 35 9C25 9 7 1 7 1S-5 5 7 17c8 8 8 8 28 8s33-5 36-8Z"/>
</g>
<g transform="translate(221.88888888888889 257) rotate(-15 38.111111111111114 13) scale(-1 1) translate(-76.22222222222223 0)">
<path fill="#B55239" stroke="#000" d="M71 17c8-8 0-12 0-12S43 9 35 9C25 9 7 1 7 1S-5 5 7 17c8 8 8 8 28 8s33-5 36-8Z"/>
</g>
<g transform="translate(165 425.99483160254016)">
<path d="M1 3s11-1.86 34-2C51.67.9 69 3 69 3S57.67 26.31 35 27C12.68 27.68 1 3 1 3" style="opacity:.05;mix-blend-mode:multiply;fill:#501414"/><path d="M11 5s14 1.71 24 1.71S59 5 59 5s-8 10-24 10S11 5 11 5" style="fill:#fff"/><path d="M11 5s14 1.71 24 1.71S59 5 59 5s-8 10-24 10S11 5 11 5ZM1 3s5 3.19 10 2m58-2s-5 3.19-10 2M20.71 23.69c15.15 4.14 16.29 3.86 29.15-.57" style="fill:none;stroke:#000;stroke-width:4"/>
</g>
<g transform="translate(144.4115 264.9735) scale(-0.52 0.52) translate(-162.4894615384615 96.94753846153846)">
<path fill="#f2d6cb" stroke="#000" stroke-width="5" d="M40.3 99.804c2.56 5.426 7.286 9.34 15.292 10.445 8.532-1.475 12.386-4.548 15.285-10.378"/>
</g>
<g transform="scale(-1 1) translate(-400.99909047348575 0) scale(0.898 1) translate(22.773890438917334 0)">
<defs><linearGradient id="a" x1="200" x2="200" y1="100" y2="310" gradientUnits="userSpaceOnUse"><stop offset="0" stop-color="rgba(0,0,0,.25)"/><stop offset="1" stop-color="rgba(0,0,0,0)"/></linearGradient></defs><path d="M60 310H50v-10c0-140 50-200 150-200s150 60 150 200v10h-10v-20c0-5-10-20-15-25s-5-55-15-65c-40-40-60 0-110 0s-70-40-110 0c-10 10-10 60-15 65s-15 20-15 25z" style="fill:url(#a);stroke:none"/><path fill="#B55239" stroke="#000" stroke-width="4" d="M177 76.08c-1.37 1.1-3.4 1.99-4.49 1.96-1.1-.02-2.11.41-2.25.96s-2.29 1-4.76 1c-3 0-4.56.45-4.69 1.34-.1.74-1.23 1.86-2.5 2.5S154.39 85 152.43 85s-3.76.45-4 1c-.26.61-1.32.43-2.68-.46-1.81-1.17-3.57-1.27-9-.5-3.71.53-7.93 1.52-9.36 2.21-2.27 1.08-2.55 1.71-2.09 4.75.29 1.92.22 4-.14 4.62-.36.61-2.69 1.06-5.16 1-3.97-.11-4.53.15-4.75 2.13-.2 1.77-.73 2.15-2.5 1.76-1.24-.26-3.04-.49-4-.5-.96 0-1.97-.91-2.25-2.01s-1.17-2-2-2-1.82 1.01-2.2 2.25c-.39 1.24-.72 2.55-.75 2.92-.03.36-.4 1.04-.83 1.5s-.77 1.73-.76 2.83-.54 3.49-1.22 5.31c-1 2.67-2 3.49-5.24 4.25-2.2.52-4.99 1.73-6.21 2.69-1.21.96-2.23 2.54-2.25 3.5s-1.5 2.91-3.29 4.33c-2.23 1.77-3.96 2.4-5.5 2-1.75-.45-3.26.43-6.75 3.92-2.47 2.47-4.5 5.18-4.5 6s.56 1.65 1.25 1.84c.98.26.95.86-.12 2.75-.76 1.32-1.09 2.97-.75 3.66.36.73-1.67 3.42-4.92 6.5-4.21 4-6.18 6.89-8.25 12.11-1.49 3.78-3.29 7.38-4 8-.72.63-1.27 1.59-1.24 2.14s.95 2.91 2.04 5.25c1.69 3.61 1.78 4.44.6 5.5-.77.69-1.56 2.77-1.75 4.63-.29 2.75.16 3.78 2.41 5.5 1.53 1.17 2.76 2.57 2.73 3.12-.02.55.68 1.9 1.56 3 .87 1.1 1.3 1.32.94.5s.3-.37 1.47 1c1.16 1.38 2.1 3.29 2.07 4.25-.03 1.39.83 1.76 4.21 1.79 2.34.02 7.49.58 11.46 1.25l7.21 1.21c8.2-6.82 12.83-9.84 15.58-11.11s8.38-3.03 12.5-3.9c4.13-.88 12-1.86 17.5-2.17 7.07-.4 16.29.11 31.5 1.75 14.91 1.6 27.47 2.31 41 2.31s26.08-.71 41-2.32c15.87-1.7 24.25-2.15 32-1.69 5.77.35 13.65 1.31 17.5 2.15 3.85.83 9.25 2.57 12 3.85s7.48 4.36 10.5 6.85c3.33 2.74 6.29 4.41 7.5 4.22 1.1-.16 4.48-.79 7.5-1.38 3.02-.6 6.96-1.08 8.75-1.07 2.04.01 4.55-1.01 6.75-2.74 1.92-1.51 3.5-3.31 3.5-4s1.35-1.93 3-2.75c2.73-1.36 2.95-1.84 2.44-5.25-.31-2.06-1.21-4.31-2-5-1.24-1.07-1.09-1.92 1.09-6 1.39-2.61 2.52-5.2 2.5-5.75-.01-.55-.81-1.49-1.78-2.1-.96-.6-2.4-3.52-3.19-6.5-.93-3.51-3.01-7.32-5.94-10.9-2.48-3.03-5.16-5.95-5.96-6.5-.92-.63-1.21-1.75-.8-3 .43-1.28.03-2.65-1.1-3.81-1.54-1.58-1.59-2.08-.37-4 1.29-2.04 1.07-2.48-3.25-6.44-2.91-2.66-5.48-4.19-6.89-4.08-1.24.09-3.7-.47-5.47-1.25-1.98-.87-3.45-2.38-3.83-3.92-.33-1.37-1.36-3.3-2.28-4.28-1.01-1.08-3.05-1.76-5.17-1.73-2.77.04-3.97-.58-5.75-2.97-1.44-1.93-2.52-5.27-3-9.27l-.75-6.25c-5.23 0-6.92.56-7.13 1.25-.2.69-1.49 1.25-2.87 1.25-1.37 0-2.65.56-2.84 1.25s-1.09-.21-2-2c-1.56-3.05-1.93-3.22-5.91-2.77-2.76.32-4.51.06-4.98-.75-.41-.67-.75-2.58-.77-4.23s-.36-3.53-.77-4.17c-.4-.65-1.97-1.66-3.48-2.25-1.51-.6-5.79-1.55-9.5-2.13-5.75-.89-6.94-.82-8 .5-1.13 1.4-1.47 1.4-3.5.01-1.24-.84-3.6-1.45-5.25-1.35-1.65.11-4.01.12-5.25.04-1.27-.08-2.25-.81-2.25-1.65 0-.83-.79-1.74-1.75-2.03-.96-.28-2.55-.17-3.54.25-.98.43-1.99 1.34-2.25 2.03-.25.69-1.14 1.25-1.96 1.25s-2.51-1.23-3.75-2.73-2.98-4.09-3.87-5.75-2.35-3.13-3.25-3.27c-.89-.14-3.43 1.1-5.63 2.75l-4 3c-5.03-3.68-7.6-4.5-10.08-4.5-2.15 0-3.92-.34-3.92-.75s-2.36-.74-5.25-.72c-3.72.03-5.98.62-7.75 2.05Z"/>
</g>
</svg>