<svg xmlns="http://www.w3.org/2000/svg" version="1.2" baseProfile="tiny" width="100%" height="100%" viewBox="0 0 400 600" preserveAspectRatio="xMinYMin meet">
<g transform="scale(1.02 1) translate(-3.921568627450984 0)">
<path fill="#5c3937" stroke="#000" stroke-width="6" d="M10 600s-10-70 50-70c10 0 0-10 60-20 0 0 50-210 80-210s80 210 80 210c60 10 50 20 60 20 60 0 50 70 50 70"/><path d="M71 545s46.9-3 82.1 10M329 545s-46.9-3-82.1 10m77.1-18s5.5-7.5 22-7m-271 7s-5.5-7.5-22-7"/>
</g>
<g transform="scale(1.02 1) translate(-3.921568627450984 0)">
<g stroke="#000"><path fill="#89bfd3" stroke-width="6" d="M120 505c0 35 50 25 80 45 30-20 80-10 80-45 30-25 90-15 100-5s10.07 20.41 15 50c5 30 5 20 5 60H0c0-40 0-29.59 5-59.59 4.93-29.59 5-39.38 15-50.41 9.5-10.48 70-20 100 5Z" class="footballPrimary"/><path fill="#7a1319" stroke-width="2" d="M120 505c0 35 50 25 80 45 30-20 80-10 80-45l15-10c5 60-55 45-95 75-40-30-100-15-95-75z" class="collarSecondary"/><path fill="none" stroke-width="6" d="M120 505c0 35 50 25 80 45 30-20 80-10 80-45 30-25 90-15 100-5s10.07 20.41 15 50c5 30 5 20 5 60H0c0-40 0-30 5-60 4.93-29.59 5-38.97 15-50 9.5-10.48 70-20 100 5Z" class="footballStroke"/><path fill="none" stroke-width="2" d="M19.5 570s72.5-2.11 81.5-20m280 20s-71-2.11-80-20" class="shp3"/></g>
</g>
<g transform="translate(33.53553390593274 291.01362954285077) scale(1.26 1.26) translate(-4.429175543220229 -7.013060570522856) translate(15.981067811865476 -2.979591836734694)">
<path fill="#5c3937" stroke="#000" stroke-width="6" d="M40 14S10-1 5 4s0 30 5 40-5 25 30 20z"/>
</g>
<g transform="translate(323.53553390593277 291.01362954285077) scale(-1.26 1.26) translate(-38.49975664491429 -7.013060570522856) translate(15.981067811865476 -2.979591836734694)">
<path fill="#5c3937" stroke="#000" stroke-width="6" d="M40 14S10-1 5 4s0 30 5 40-5 25 30 20z"/>
</g>
<g transform="scale(0.8780000000000001 1) translate(27.790432801822295 0)">
<path fill="#5c3937" stroke="#000" stroke-width="6" d="M200 100c100 0 150 60 150 200 0 0-5.15 110.6-10 130-5 20-60 70-140 70S65 450 60 430c-4.85-19.4-10-130-10-130 0-140 50-200 150-200Z" class="head"/><path fill="rgba(0,0,0,0.15)" d="M60 300H50c0-140 50-200 150-200s150 60 150 200h-10v-10c0-5-10-20-15-25s-5-55-15-65c-40-40-60 0-110 0s-70-40-110 0c-10 10-10 60-15 65s-15 20-15 25z" class="headShave"/><path fill="rgba(0,0,0,0.15)" d="M200 410c30 0 50 10 50 10 30 0 90-15 90-120h10s0 80-10 130c-5 20-60 70-140 70S65 450 60 430c-10-50-10-130-10-130h10c0 105 60 120 90 120 0 0 20-10 50-10" class="faceShave"/>
</g>
<g>
<path fill="none" stroke="#000" stroke-width="2" d="M155 220s35 0 45 5c10-5 45-5 45-5"/>
</g>
<g transform="scale(0.8780000000000001 1) translate(27.790432801822295 0)">
<path fill="#272421" stroke="#000" d="M340 300c0 105-85 140-85 140s-5 30-15 30c-30 0-30-10-40-10s-10 10-40 10c-10 0-15-30-15-30s-85-35-85-140H50c0 105 20 140 20 140s55 80 130 80 130-80 130-80 20-35 20-140zM150 425c-5-5 25-20 35-20 5 0 10 5 15 5s10-5 15-5c10 0 40 15 35 20s-5-5-50-5-45 10-50 5Z"/>
</g>
<g transform="translate(104.75510204081633 287) rotate(5 35.24489795918368 23)">
<path d="M67 35c0-4 6-32-24-32S3 15 3 23s12 20 24 20 40-4 40-8Z" style="fill:#fff;stroke:#000;stroke-width:5"/><path d="M39 29c-3.32 0-6-2.68-6-6s2.68-6 6-6 6 2.68 6 6-2.68 6-6 6Z" style="fill:#000;stroke:#000;stroke-width:5"/>
</g>
<g transform="translate(224.75510204081633 287) rotate(-5 35.24489795918368 23) scale(-1 1) translate(-70.48979591836736 0)">
<path d="M67 35c0-4 6-32-24-32S3 15 3 23s12 20 24 20 40-4 40-8Z" style="fill:#fff;stroke:#000;stroke-width:5"/><path d="M39 29c-3.32 0-6-2.68-6-6s2.68-6 6-6 6 2.68 6 6-2.68 6-6 6Z" style="fill:#000;stroke:#000;stroke-width:5"/>
</g>
<g transform="translate(99.82499568420577 257.4995916989505) rotate(-5 40.175004315794226 12.50040830104949)">
<path fill="#272421" stroke="#000" d="M25.63 10.05c-1.19.67-3.29 2.29-4.68 3.61s-2.66 2.8-2.84 3.29-.13.96.1 1.04 3.5-.28 7.26-.79c3.76-.52 9.13-1.06 11.92-1.21 2.8-.15 9.17-.28 14.14-.29 4.98-.01 11.48.12 14.44.29s6.61.25 8.12.19c1.5-.05 3.59-.27 4.63-.47 1.65-.32 1.85-.53 1.46-1.57-.33-.91-1.38-1.55-4.09-2.53-2-.73-6.19-1.72-9.32-2.22-3.13-.49-8.67-1.19-12.3-1.55-3.64-.36-9.39-.72-12.78-.81-4.83-.11-7.02.06-10.04.83-2.12.53-4.83 1.52-6.02 2.19Z"/><path d="M0 10h5v5H0z" style="fill:none"/>
</g>
<g transform="translate(219.82499568420576 257.4995916989505) rotate(5 40.175004315794226 12.50040830104949) scale(-1 1) translate(-80.35000863158845 0)">
<path fill="#272421" stroke="#000" d="M25.63 10.05c-1.19.67-3.29 2.29-4.68 3.61s-2.66 2.8-2.84 3.29-.13.96.1 1.04 3.5-.28 7.26-.79c3.76-.52 9.13-1.06 11.92-1.21 2.8-.15 9.17-.28 14.14-.29 4.98-.01 11.48.12 14.44.29s6.61.25 8.12.19c1.5-.05 3.59-.27 4.63-.47 1.65-.32 1.85-.53 1.46-1.57-.33-.91-1.38-1.55-4.09-2.53-2-.73-6.19-1.72-9.32-2.22-3.13-.49-8.67-1.19-12.3-1.55-3.64-.36-9.39-.72-12.78-.81-4.83-.11-7.02.06-10.04.83-2.12.53-4.83 1.52-6.02 2.19Z"/><path d="M0 10h5v5H0z" style="fill:none"/>
</g>
<g transform="translate(0 48.766108367626885) scale(-1 1) translate(-400 0)">
<path d="M168 384s9-13.77 32-14.03c17.4-.2 32 13.2 32 13.2s-4.29 28.26-32 28.83c-27.29.56-32-28-32-28" style="opacity:.05;mix-blend-mode:multiply;fill:#501414"/><path d="M168 384c12-4 48-4 64 0-8 8-10 16-32 16-20 0-24-8-32-16Z" style="fill:#000;stroke:#000"/><path d="M168 384c12-4 48-4 64 0-20 4-10 4-32 4-20 0-16 0-32-4m12 12s14-1 20-1 20 1 20 1-4 4-20 4c-12 0-20-4-20-4" style="fill:#fff"/><path d="M168 384c12-4 48-4 64 0-8 8-10 16-32 16-20 0-24-8-32-16Zm16 24c12 6 20 6 32 0m4.29-33.12c-14.52-5.66-27.29-6.34-40.29.09" style="fill:none;stroke:#000;stroke-width:4"/>
</g>
<g transform="translate(0 7.5) scale(0.78 0.78) translate(56.4102564102564 102.24358974358972)">
<path fill="#5c3937" stroke="#000" stroke-width="5" d="M190 325s-5 20-5 45c-20-5-15 15-15 20 20 0 15 10 30 10s10-10 30-10c0-5 5-25-15-20 0-25-5-45-5-45" class="nose"/>
</g>
<g transform="scale(-1 1) translate(-400 0) scale(0.8780000000000001 1) translate(27.790432801822295 0)">
<path fill="#272421" stroke="#000" stroke-width="4" d="M60 310H50v-10C50 110 40 90 60 90h280c20 0 10 20 10 210v10h-10v-20c0-5-10-20-15-25s-5-55-15-65-60 0-110 0-100-10-110 0-10 60-15 65-15 20-15 25z"/>
</g>
<g transform="scale(0.8780000000000001 1) translate(27.790432801822295 0)">
<g stroke-width="2"><path fill="rgba(150,150,175,.5)" fill-rule="evenodd" stroke="#000" d="M200 190c50 0 100 10 110 20s20 80 20 80 0 60-10 70-50 10-80 10c-10 0-20-10-40-10s-30 10-40 10c-30 0-70 0-80-10s-10-70-10-70 10-70 20-80 60-20 110-20Zm-70 90q-45 0-45 30c0 25 15 30 45 30s60-5 60-30-30-30-60-30Zm140 60c30 0 45-5 45-30q0-30-45-30c-30 0-60 5-60 30s30 30 60 30Z" class="facemask"/><path fill="#333" stroke="#000" d="M350 315v-30h-20v30zm-280 0v-30H50v30z" class="straps"/><path fill="none" stroke="#fff" d="m260 270 10-30m0 35 10-30m-160 25 10-30m0 35 10-30m120 115 5-15m0 20 5-15m-150 10 5-15m0 20 5-15" class="glare"/></g>
</g>
</svg>