<svg xmlns="http://www.w3.org/2000/svg" version="1.2" baseProfile="tiny" width="100%" height="100%" viewBox="0 0 400 600" preserveAspectRatio="xMinYMin meet">
<g transform="scale(0.95 1) translate(10.526315789473694 0)">
<path fill="#f2d6cb" stroke="#000" stroke-width="6" d="M10 600s-10-70 50-70c10 0 0-10 60-20 0 0 50-210 80-210s80 210 80 210c60 10 50 20 60 20 60 0 50 70 50 70"/><path d="M71 545s46.9-3 82.1 10M329 545s-46.9-3-82.1 10m77.1-18s5.5-7.5 22-7m-271 7s-5.5-7.5-22-7"/>
</g>
<g transform="scale(0.95 1) translate(10.526315789473694 0)">
<g stroke="#000"><path fill="#89bfd3" stroke-width="6" d="M120 505c0 20 50 15 80 35 30-20 80-15 80-35 0 0 50-5 80 5 0 0 20 10 30 40s10 60 10 60H0s0-30 10-60 30-40 30-40c30-10 80-5 80-5Z" class="hockeyPrimary"/><path fill="#7a1319" stroke-width="2" d="M120 505c0 20 50 15 80 30 30-15 80-10 80-30l15-1c0 41-40 21-95 56-55-35-95-15-95-56z" class="collarSecondary"/><path fill="none" stroke-width="6" d="M120 505c0 20 50 15 80 35 30-20 80-15 80-35 0 0 50-5 80 5 0 0 20 10 30 40s10 60 10 60H0s0-30 10-60 30-40 30-40c30-10 80-5 80-5Z" class="hockeyStroke"/><path fill="#07364f" stroke-width="2" d="M180 528.21h40l10 17.05L200 564l-30-18.74z" class="shieldAccent"/></g>
</g>
<g transform="translate(32 290.6) scale(1.04 1.04) translate(-0.8846153846153854 -1.3230769230769244) translate(15.91 -3)">
<path fill="#f2d6cb" stroke="#000" stroke-width="6" d="M43 13S23 3 13 3 3 23 3 33s3 20 13 30 27-10 27-10z"/>
</g>
<g transform="translate(322 290.6) scale(-1.04 1.04) translate(-45.11538461538461 -1.3230769230769244) translate(15.91 -3)">
<path fill="#f2d6cb" stroke="#000" stroke-width="6" d="M43 13S23 3 13 3 3 23 3 33s3 20 13 30 27-10 27-10z"/>
</g>
<g transform="scale(0.8780000000000001 1) translate(27.790432801822295 0)">
<path fill="#f2d6cb" stroke="#000" stroke-width="6" d="M200 100c100 0 150 60 150 200-10 160-10 110-100 180-10 10-30 20-50 20s-40-10-50-20c-90-70-90-20-100-180 0-140 50-200 150-200Z" class="head"/><path fill="rgba(0,0,0,0.16)" d="M60 300H50c0-140 50-200 150-200s150 60 150 200h-10v-10c0-5-10-20-15-25s-5-55-15-65c-40-40-60 0-110 0s-70-40-110 0c-10 10-10 60-15 65s-15 20-15 25z" class="headShave"/><path fill="rgba(0,0,0,0.16)" d="M200 410c30 0 50 10 50 10 30 0 90-15 90-120h10c-10 160-10 110-100 180-11.16 8.68-30 20-50 20s-38.84-11.32-50-20c-90-70-90-20-100-180h10c0 105 60 120 90 120 0 0 20-10 50-10" class="faceShave"/>
</g>
<g>
<path fill="none" stroke="#000" stroke-width="2" d="M235 285s10-10 45-10m-115 10s-10-10-45-10" class="eyeline6"/>
</g>
<g transform="translate(142.67 417.5) scale(1.76 1.76) translate(-3.165227272727273 -7.5568181818181825)">
<path fill="none" stroke="#000" stroke-width="2" d="M12.33 4.32s-10 3.29-10 13.18 10 13.18 10 13.18" class="shp0"/>
</g>
<g transform="translate(242.67 417.5) scale(-1.76 1.76) translate(-11.494772727272727 -7.5568181818181825)">
<path fill="none" stroke="#000" stroke-width="2" d="M12.33 4.32s-10 3.29-10 13.18 10 13.18 10 13.18" class="shp0"/>
</g>
<g>
<path fill="none" stroke="#000" stroke-width="2" d="M155 220s35 0 45 5c10-5 45-5 45-5"/>
</g>
<g transform="scale(0.8780000000000001 1) translate(27.790432801822295 0)">
<path fill="#D7BF91" stroke="#000" d="M205 420c-4 0-5-5-.8-10 5.8-5 15.8-5 15.8-5 15 0 35 15 35 25 0 30 10 55 5 60s-15 5-20 0 5-40 5-55-15-15-40-15Zm-10 0c4 0 5-5 0-10s-15-5-15-5c-16 0-35 15-35 25 0 30-10 55-5 60s15 5 20 0-5-40-5-55 15-15 40-15Zm5 38.02L190 460c-10 10-20 40-20 40s10 10 30 10 30-10 30-10-10-30-20-40z"/>
</g>
<g transform="translate(101.97070870858956 282.01425559511955) rotate(15 38.029291291410445 27.98574440488045)">
<path d="m6.19 40.49-.83-22.07s2.27-3.87 17.09.22c29.93 8.26 42.45 4.47 42.45 4.47l6.04 11.72s-7.05.61-29.88 2.61c-22.84 2-34.87 3.05-34.87 3.05" style="fill:#f5f3ee"/><path d="M38.86 36.14c-4.51.39-8.55-3.74-9.03-9.25s2.83-7.08 7.34-7.48c4.52-.39 8.51.54 8.99 6.05s-2.78 10.28-7.3 10.68" style="fill:#000"/><path d="M6.19 40.49S2.41 12.46 9.05 15.75c10.49 5.2 55.85 7.36 55.85 7.36l6.04 11.72" style="fill:none;stroke:#000;stroke-width:6"/>
</g>
<g transform="translate(221.97070870858954 282.01425559511955) rotate(-15 38.029291291410445 27.98574440488045) scale(-1 1) translate(-76.05858258282089 0)">
<path d="m6.19 40.49-.83-22.07s2.27-3.87 17.09.22c29.93 8.26 42.45 4.47 42.45 4.47l6.04 11.72s-7.05.61-29.88 2.61c-22.84 2-34.87 3.05-34.87 3.05" style="fill:#f5f3ee"/><path d="M38.86 36.14c-4.51.39-8.55-3.74-9.03-9.25s2.83-7.08 7.34-7.48c4.52-.39 8.51.54 8.99 6.05s-2.78 10.28-7.3 10.68" style="fill:#000"/><path d="M6.19 40.49S2.41 12.46 9.05 15.75c10.49 5.2 55.85 7.36 55.85 7.36l6.04 11.72" style="fill:none;stroke:#000;stroke-width:6"/>
</g>
<g transform="translate(100.5 257.50129968019115) rotate(17 39.5 12.498700319808862)">
<path fill="#D7BF91" stroke="#000" d="M79 12.9c0-6.11-7.5-6.11-7.5-6.11-18.75-3.05-41.65 3.28-52.5 9.16C49 12.9 56.5 19 75.25 19c0 0 3.75 0 3.75-6.1Z"/><path d="M0 10h5v5H0z" style="fill:none"/>
</g>
<g transform="translate(220.5 257.50129968019115) rotate(-17 39.5 12.498700319808862) scale(-1 1) translate(-79 0)">
<path fill="#D7BF91" stroke="#000" d="M79 12.9c0-6.11-7.5-6.11-7.5-6.11-18.75-3.05-41.65 3.28-52.5 9.16C49 12.9 56.5 19 75.25 19c0 0 3.75 0 3.75-6.1Z"/><path d="M0 10h5v5H0z" style="fill:none"/>
</g>
<g transform="translate(0 0) scale(-1 1) translate(-400 0)">
<path d="M170 430s10 20 30 20 30-20 30-20z" style="fill:#fff;stroke:#000;stroke-width:5"/>
</g>
<g transform="translate(174.5 336.5) scale(-0.67 0.67) translate(-63.55970149253731 16.499999999999996)">
<path fill="#f2d6cb" stroke="#000" stroke-width="5" d="m28 1 20 45s-5 20-25 20S3 46 3 46" class="nose"/>
</g>
<g transform="scale(0.8780000000000001 1) translate(27.790432801822295 0)">
<path fill="#D7BF91" stroke="#000" stroke-width="4" d="M60 310H50v-10c0-65-5-145-5-150 0-10 5-20 5-20l10 10 6-20 14 10 5-20 15 10 5-20 15 10 8-22 12 12 8-20 12 16 10-21 10 21 10-21 10 21 10-21 10 21 10-21 10 21 12-16 8 20 12-12 8 24.37L290 100l10 20 12-9.96 8 19.96 14-10 6 20 10-10s5 10 5 20c0 5-5 85-5 150v10h-10v-20c0-5-10-20-15-25s-5-55-15-65-60 0-110 0-100-10-110 0-10 60-15 65-15 20-15 25z"/>
</g>
</svg>