<svg xmlns="http://www.w3.org/2000/svg" version="1.2" baseProfile="tiny" width="100%" height="100%" viewBox="0 0 400 600" preserveAspectRatio="xMinYMin meet">
<g transform="scale(1.04 1) translate(-7.785282898919269 0)">
<path fill="#f2d6cb" stroke="#000" stroke-width="6" d="M20 600s-5-60 40-70c15 0 45-15 90-35l50-195 50 195c45 20 75 35 90 35 45 10 45 70 45 70" class="body"/>
</g>
<g transform="scale(1.04 1) translate(-7.7884615384615445 0)">
<g stroke="#000"><path fill="#7a1319" stroke-width="3" d="M120 505s35 40 80 40 80-40 80-40v95H120z" class="s0"/><path fill="#89bfd3" stroke-width="6" d="M120 504.6c10 45.4 80 55.4 90 65.4s10 40 10 40H-5s5-40 5-50 10-30 40-40 50 0 80-15.4z" class="s0"/><path fill="#89bfd3" stroke-width="6" d="M360 520c30 10 40 30 40 40s10 50 10 50H180s0-40 10-50 80-10 90-55c30 15 50 5 80 15z" class="s0"/><path fill="#89bfd3" stroke-width="1.5" d="M196 597c-2.8 0-5-2.2-5-5s2.2-5 5-5 5 2.2 5 5-2.2 5-5 5zm-2-5h1m2 0h1" class="s1"/></g><g fill="none" stroke="#000" stroke-width="6"><path d="M120 504.6c6.9 37.6 62.2 49.3 67.9 57-7.8 11.2-8 48.4-8 48.4H-5s5-40 5-50 10-30 40-40 50 0 80-15.4z" class="s5"/><path d="M360 520c30 10 40 30 40 40s10 50 10 50H180s0-40 10-50 80-10 90-55c30 15 50 5 80 15z" class="s5"/></g>
</g>
<g transform="translate(33.53553390593274 291.01362954285077) scale(1.12 1.12) translate(-2.2997642243643512 -3.641396834694563) translate(26.831067811865474 -2.979591836734694)">
<path fill="#f2d6cb" stroke="#000" stroke-width="6" d="M40 14S10-1 5 4s0 30 5 40-5 25 30 20z"/>
</g>
<g transform="translate(323.53553390593277 291.01362954285077) scale(-1.12 1.12) translate(-40.62916796377017 -3.641396834694563) translate(26.831067811865474 -2.979591836734694)">
<path fill="#f2d6cb" stroke="#000" stroke-width="6" d="M40 14S10-1 5 4s0 30 5 40-5 25 30 20z"/>
</g>
<g transform="scale(0.808 1) translate(47.52475247524751 0)">
<path fill="#f2d6cb" stroke="#000" stroke-width="6" d="M200 100c100 0 150 60 150 200 0 70-50 200-150 200S50 370 50 300c0-140 50-200 150-200Z" class="head"/><path fill="rgba(0,0,0,0)" d="M200 410c30 0 50 10 50 10 30 0 90-15 90-120h10c0 70-50 200-150 200S50 370 50 300h10c0 105 60 120 90 120 0 0 20-10 50-10" class="faceShave"/><path fill="rgba(0,0,0,0)" d="M60 300H50c0-140 50-200 150-200s150 60 150 200h-10v-10c0-5-10-20-15-25s-5-55-15-65c-40-40-60 0-110 0s-70-40-110 0c-10 10-10 60-15 65s-15 20-15 25z" class="headShave"/>
</g>
<g>
<path fill="none" stroke="#000" stroke-width="2" d="M240 340s25 10 40 0m-120 0s-25 10-40 0" class="eyeline4"/>
</g>
<g transform="translate(140.5 420.5) scale(1.89 1.89) translate(-4.473544973544973 -6.828042328042328)">
<path fill="none" stroke="#000" stroke-width="2" d="M17 2 2 12l5 15" class="shp0"/>
</g>
<g transform="translate(240.5 420.5) scale(-1.89 1.89) translate(-14.526455026455027 -6.828042328042328)">
<path fill="none" stroke="#000" stroke-width="2" d="M17 2 2 12l5 15" class="shp0"/>
</g>
<g transform="translate(102.93299701421847 284.73230356541717) rotate(-6 37.067002985781535 25.26769643458282)">
<path d="M68.08 23.19s1.89 14.88-27.87 18.67C15.41 45.02 6.66 15.89 6.03 10.93 25.87 8.4 65.55 3.35 68.08 23.19Z" style="fill:#fff;stroke:#000;stroke-width:5"/><path d="M39.04 16.81c9.92-1.27 11.81 13.61 1.89 14.88-9.92 1.26-11.81-13.62-1.89-14.88" style="fill:#000;stroke:#000;stroke-linecap:round;stroke-linejoin:round;stroke-width:4"/>
</g>
<g transform="translate(222.93299701421847 284.73230356541717) rotate(6 37.067002985781535 25.26769643458282) scale(-1 1) translate(-74.13400597156307 0)">
<path d="M68.08 23.19s1.89 14.88-27.87 18.67C15.41 45.02 6.66 15.89 6.03 10.93 25.87 8.4 65.55 3.35 68.08 23.19Z" style="fill:#fff;stroke:#000;stroke-width:5"/><path d="M39.04 16.81c9.92-1.27 11.81 13.61 1.89 14.88-9.92 1.26-11.81-13.62-1.89-14.88" style="fill:#000;stroke:#000;stroke-linecap:round;stroke-linejoin:round;stroke-width:4"/>
</g>
<g transform="translate(-127.5 -8.774999999999977) rotate(3 267.5 278.775)">
<path fill="#e9c67b" stroke="#000" d="m235 280 65 5-5-12.45-55 2.45z"/>
</g>
<g transform="translate(-7.5 -8.774999999999977) rotate(-3 267.5 278.775) scale(-1 1) translate(-535 0)">
<path fill="#e9c67b" stroke="#000" d="m235 280 65 5-5-12.45-55 2.45z"/>
</g>
<g transform="translate(0 51.49291359400189)">
<path d="M167 382s10-8.86 33-9c16.67-.1 34 9 34 9s-11.33 21.31-34 22c-22.32.68-33-22-33-22" style="opacity:.05;mix-blend-mode:multiply;fill:#501414"/><path d="M176 384s14-4 24-4 24 4 24 4-8 8-24 8-24-8-24-8" style="fill:#fff"/><path d="M176 384s14-4 24-4 24 4 24 4-8 8-24 8-24-8-24-8Z" style="fill:none;stroke:#000;stroke-width:4"/><path d="M180 376c16-4 24-4 40 0" style="fill:none;stroke:#000;stroke-width:1"/><path d="M166 382s5 3.19 10 2m58-2s-5 3.19-10 2" style="fill:none;stroke:#000;stroke-width:4"/><path d="M185.71 400.69c15.15 4.14 16.29 3.86 29.15-.57" style="fill:none;stroke:#000;stroke-width:1"/>
</g>
<g transform="translate(0 77.5) scale(0.86 0.86) translate(32.55813953488373 47.616279069767444)">
<path fill="#f2d6cb" stroke="#000" stroke-width="5" d="M190 300c-5-15 5-15 10-15s15 0 10 15" class="nose"/>
</g>
<g transform="scale(0.808 1) translate(47.52475247524751 0)">
<defs><linearGradient id="a" x1="200" x2="200" y1="100" y2="310" gradientUnits="userSpaceOnUse"><stop offset="0" stop-color="rgba(0,0,0,.3)"/><stop offset="1" stop-color="rgba(0,0,0,0)"/></linearGradient></defs><path d="M60 310H50v-10c0-140 50-200 150-200s150 60 150 200v10h-10v-20c0-5-10-20-15-25s-5-45-15-55-60 0-110 0-100-10-110 0-10 50-15 55-15 20-15 25z" style="fill:url(#a);stroke:none"/><path fill="#e9c67b" stroke="#000" stroke-width="4" d="M195 200h-10V100h10zm10 0h10V100h-10v100m20 0h10V100h-10v100m20 0h10v-95h-10zm20-5h10v-85h-10zm20 0h10v-75h-10zm20-5h10v-50h-10zm20 5h10v-20h-10v20m-150 5h-10V100h10zm-20 0h-10v-95.13h10zm-20-5v-85.15h-10V195zm-20 0v-75h-10v75zm-20-5H85v-50h10zm-20 5H65v-20h10z"/>
</g>
<g transform="scale(0.808 1) translate(47.52475247524751 0)">
<path fill="#333" stroke="#000" stroke-width="2" d="M50 285h30s20-10 50-10 65 10 65 10h10s35-10 65-10 50 10 50 10h30v10l-30 5s-20-15-50-15-60 10-60 10-5 15 0 25c0 0-5-10-10-10s-10 10-10 10c5-10 0-25 0-25s-30-10-60-10-50 15-50 15l-30-5z" class="frame"/><path fill="rgba(150,150,175,.5)" fill-rule="lens" d="M155 340c35 0 35 5 35-20 5-10 0-25 0-25s-30-10-60-10-50 15-50 15-5 40 5 45 40-5 70-5m160 5c10-5 5-45 5-45s-20-15-50-15-60 10-60 10-5 15 0 25c0 25 0 20 35 20 30 0 60 10 70 5" class="lens"/><path fill="none" stroke="#fff" stroke-width="2" d="m275 330 15-35m-5 35 15-35m-165 35 15-35m-5 35 15-35" class="glare"/>
</g>
</svg>