<svg xmlns="http://www.w3.org/2000/svg" version="1.2" baseProfile="tiny" width="100%" height="100%" viewBox="0 0 400 600" preserveAspectRatio="xMinYMin meet">
<g transform="scale(1.03 1) translate(-5.8252427184466065 0)">
<path fill="#ddb7a0" stroke="#000" stroke-width="6" d="M5 600s-5-60 35-70c0 0 40 0 90-30l70-200 70 200c50 30 90 30 90 30 40 10 35 70 35 70" class="body"/>
</g>
<g transform="scale(1.03 1) translate(-5.825242718446607 0)">
<path fill="#89bfd3" stroke="#000" stroke-width="6" d="M80 610s10-30 10-90l20-10s10 80 90 80 90-80 90-80l20 10c0 60 10 90 10 90z"/>
</g>
<g transform="translate(32 293.3) scale(0.73 0.73) translate(8.506849315068495 11.724657534246576) translate(19.32 -3)">
<path fill="#ddb7a0" stroke="#000" stroke-width="6" d="M43 8S3-12 3 28c0 45 40 30 40 30z"/>
</g>
<g transform="translate(322 293.3) scale(-0.73 0.73) translate(-54.50684931506849 11.724657534246576) translate(19.32 -3)">
<path fill="#ddb7a0" stroke="#000" stroke-width="6" d="M43 8S3-12 3 28c0 45 40 30 40 30z"/>
</g>
<g transform="scale(0.8560000000000001 1) translate(33.64485981308409 0)">
<path fill="#ddb7a0" stroke="#000" stroke-width="6" d="M200 100c100 0 150 60 150 200 0 160-80 170-100 190-10 10-30 20-50 10-20 10.9-40 0-50-10-20-20-100-30-100-190 0-140 50-200 150-200Z" class="head"/><path fill="rgba(0,0,0,0)" d="M60 300H50c0-140 50-200 150-200s150 60 150 200h-10v-10c0-5-10-20-15-25s-5-55-15-65c-40-40-60 0-110 0s-70-40-110 0c-10 10-10 60-15 65s-15 20-15 25z" class="headShave"/><path fill="rgba(0,0,0,0)" d="M200 410c30 0 50 10 50 10 30 0 90-15 90-120h10c0 160-80 170-100 190-10 10-30 20-50 10-20 10-40 0-50-10-20-20-100-30-100-190h10c0 105 60 120 90 120 0 0 20-10 50-10" class="faceShave"/>
</g>
<g>
<path fill="none" stroke="#000" stroke-width="2" d="M240 355s20-10 45 0m-125 0s-20-10-45 0" class="eyeline5"/>
</g>
<g transform="translate(147 424.5) scale(0.53 0.53) translate(2.6603773584905657 9.31132075471698)">
<path fill="none" stroke="#000" stroke-width="2" d="m0 20 6-10-6-9" class="shp0"/>
</g>
<g transform="translate(247 424.5) scale(-0.53 0.53) translate(-8.660377358490566 9.31132075471698)">
<path fill="none" stroke="#000" stroke-width="2" d="m0 20 6-10-6-9" class="shp0"/>
</g>
<g>
<path d="m102 385 9.08-25m13.62 0-9.08 25m13.62 0 9.07-25m13.62 0-9.08 25m106.22 0 9.08-25m13.61 0-9.07 25m13.61 0 9.08-25m13.62 0-9.08 25" style="opacity:.251;mix-blend-mode:multiply;fill:none;stroke:#8b6135;stroke-width:4.4"/>
</g>
<g transform="scale(0.8560000000000001 1) translate(33.64485981308409 0)">
<path fill="#3D2314" fill-rule="evenodd" stroke="#000" d="M200 410c55 0 55 15 55 30 0 0 5 40-5 55-5 5-35 15-50 15s-46.67-10-50-15c-10-15-5-55-5-55 0-15 0-30 55-30Zm-45 30c0 20 5 30 25 30 10 0 10-10 20-10s10 10 20 10c20 0 25-10 25-30s-15-20-45-20-45 0-45 20Z" class="shp0"/>
</g>
<g transform="translate(104.75510204081633 287) rotate(-8 35.24489795918368 23)">
<path d="M67 35c0-4 6-32-24-32S3 15 3 23s12 20 24 20 40-4 40-8Z" style="fill:#fff;stroke:#000;stroke-width:5"/><path d="M39 29c-3.32 0-6-2.68-6-6s2.68-6 6-6 6 2.68 6 6-2.68 6-6 6Z" style="fill:#000;stroke:#000;stroke-width:5"/>
</g>
<g transform="translate(224.75510204081633 287) rotate(8 35.24489795918368 23) scale(-1 1) translate(-70.48979591836736 0)">
<path d="M67 35c0-4 6-32-24-32S3 15 3 23s12 20 24 20 40-4 40-8Z" style="fill:#fff;stroke:#000;stroke-width:5"/><path d="M39 29c-3.32 0-6-2.68-6-6s2.68-6 6-6 6 2.68 6 6-2.68 6-6 6Z" style="fill:#000;stroke:#000;stroke-width:5"/>
</g>
<g transform="translate(101.88888888888889 257) rotate(14 38.111111111111114 13)">
<path fill="#3D2314" stroke="#000" d="M71 17c8-8 0-12 0-12S43 9 35 9C25 9 7 1 7 1S-5 5 7 17c8 8 8 8 28 8s33-5 36-8Z"/>
</g>
<g transform="translate(221.88888888888889 257) rotate(-14 38.111111111111114 13) scale(-1 1) translate(-76.22222222222223 0)">
<path fill="#3D2314" stroke="#000" d="M71 17c8-8 0-12 0-12S43 9 35 9C25 9 7 1 7 1S-5 5 7 17c8 8 8 8 28 8s33-5 36-8Z"/>
</g>
<g transform="translate(169 424.5)">
<path d="M11 8S4.33 28 31 28 51 8 51 8 41 4.37 31 4.37 11 8 11 8Zm50-5L51 8M1 3l10 5" style="fill:#fff;stroke:#000;stroke-width:5"/>
</g>
<g transform="translate(0 77.5) scale(-1.18 1.18) translate(-369.4915254237288 -44.6186440677966)">
<path fill="#ddb7a0" stroke="#000" stroke-width="5" d="M190 300c-5-15 5-15 10-15s15 0 10 15" class="nose"/>
</g>
<g transform="scale(-1 1) translate(-400 0) scale(0.8560000000000001 1) translate(33.64485981308409 0)">
<path fill="#3D2314" stroke="#000" stroke-width="4" d="M60 310H50s-40 0-40-50C10 120 80 70 200 70s190 50 190 190c0 50-40 50-40 50h-10v-20c0-5-10-20-15-25s-10-45-15-55c-6.32-12.65-60-10-110-10s-103.68-2.65-110 10c-5 10-10 50-15 55s-15 20-15 25zM200 70"/>
</g>
</svg>