<svg xmlns="http://www.w3.org/2000/svg" version="1.2" baseProfile="tiny" width="100%" height="100%" viewBox="0 0 400 600" preserveAspectRatio="xMinYMin meet">
<g transform="scale(0.97 1) translate(6.185567010309284 0)">
<path fill="#ddb7a0" stroke="#000" stroke-width="6" d="M10 600s-10-70 50-70c10 0 0-10 60-20 0 0 50-210 80-210s80 210 80 210c60 10 50 20 60 20 60 0 50 70 50 70"/><path d="M71 545s46.9-3 82.1 10M329 545s-46.9-3-82.1 10m77.1-18s5.5-7.5 22-7m-271 7s-5.5-7.5-22-7"/>
</g>
<g transform="scale(0.97 1) translate(6.2628865979381505 0)">
<g stroke="#000"><path fill="#07364f" stroke-width="3" d="M120 505s35 40 80 40 80-40 80-40v95H120z" class="s0"/><path fill="#89bfd3" stroke-width="6" d="M120 504.6c10 45.4 80 55.4 90 65.4s10 40 10 40H-5s5-40 5-50 10-30 40-40 50 0 80-15.4z" class="s0"/><path fill="#89bfd3" stroke-width="6" d="M360 520c30 10 40 30 40 40s10 50 10 50H180s0-40 10-50 80-10 90-55c30 15 50 5 80 15z" class="s0"/><path fill="#07364f" stroke-width="1.5" d="M196 597c-2.8 0-5-2.2-5-5s2.2-5 5-5 5 2.2 5 5-2.2 5-5 5zm-2-5h1m2 0h1" class="s1"/></g><path fill="none" stroke="#7a1319" stroke-width="5" d="M10 540v70m20-86v86m20-93v93m20-95v95m20-96v96m20-100v100m20-83v83m20-66v66m20-57v57m220-70v70m-20-86v86m-20-93v93m-20-95v95m-20-96v96m-20-101v101m-20-86v87m-20-72v71m-20-63v62m-20-57v57" class="s2"/><g fill="none" stroke="#000" stroke-width="6"><path d="M120 504.6c6.9 37.6 62.2 49.3 67.9 57-7.8 11.2-8 48.4-8 48.4H-5s5-40 5-50 10-30 40-40 50 0 80-15.4z" class="s5"/><path d="M360 520c30 10 40 30 40 40s10 50 10 50H180s0-40 10-50 80-10 90-55c30 15 50 5 80 15z" class="s5"/></g>
</g>
<g transform="translate(32 293.3) scale(1.32 1.32) translate(-5.575757575757576 -7.684848484848487) translate(7.539999999999999 -3)">
<path fill="#ddb7a0" stroke="#000" stroke-width="6" d="M43 8S3-12 3 28c0 45 40 30 40 30z"/>
</g>
<g transform="translate(322 293.3) scale(-1.32 1.32) translate(-40.42424242424243 -7.684848484848487) translate(7.539999999999999 -3)">
<path fill="#ddb7a0" stroke="#000" stroke-width="6" d="M43 8S3-12 3 28c0 45 40 30 40 30z"/>
</g>
<g transform="scale(0.932 1) translate(14.592274678111577 0)">
<path fill="#ddb7a0" stroke="#000" stroke-width="6" d="M200 100c100 0 150 60 150 200 0 70-30 150-40 160s-60 40-110 40-100-30-110-40-40-90-40-160c0-140 50-200 150-200Z" class="head"/><path fill="rgba(0,0,0,0)" d="M200 410c30 0 50 10 50 10 30 0 90-15 90-120h10c0 70-30 150-40 160s-60 40-110 40-100-30-110-40-40-90-40-160h10c0 105 60 120 90 120 0 0 20-10 50-10" class="faceShave"/><path fill="rgba(0,0,0,0)" d="M60 300H50c0-140 50-200 150-200s150 60 150 200h-10v-10c0-5-10-20-15-25s-5-55-15-65c-40-40-60 0-110 0s-70-40-110 0c-10 10-10 60-15 65s-15 20-15 25z" class="headShave"/>
</g>
<g>
<path fill="none" stroke="#000" stroke-width="2" d="M235 285s10-10 45-10m-115 10s-10-10-45-10" class="eyeline6"/>
</g>
<g transform="scale(0.932 1) translate(14.592274678111577 0)">
<path fill="#CC9966" stroke="#000" d="M200 450c20 0 10 30 20 30s35-5 45-15c20-20 30-30 40-30 0 70-65 80-105 80S95 505 95 435c10 0 20 10 40 30 10 10 35 15 45 15s0-30 20-30Z" class="shp0"/><path fill="#CC9966" fill-rule="evenodd" stroke="#000" d="M60 300H50s-3.85 100.38 25 110c15 5 35 15 40 10 20-20-5-25-5-25s-50-20-50-95Zm280 0h10s3.85 100.38-25 110c-15 5-35 15-40 10-20-20 5-25 5-25s50-20 50-95Z" class="shp0"/>
</g>
<g transform="translate(102.24084342899988 286.1384650016032) rotate(14 37.759156571000126 23.861534998396785)">
<path d="M5 20s12.08-8.23 35-8.23S70 30 70 30s-7.15 9.92-30.07 9.92S5 20 5 20" style="fill:#f5f3ee"/><path d="M5 20c-2.87-2.87 12.2-9.55 35-11.9C70 5 72.87 27.13 70 30s-7.08-13.73-30-13.73S7.87 22.87 5 20" class="black"/><path d="M39.93 33.04c-6.34 0-11.46-5.12-11.46-11.46 0-6.33 5.12-11.46 11.46-11.46s11.46 5.13 11.46 11.46c0 6.34-5.12 11.46-11.46 11.46" class="black"/>
</g>
<g transform="translate(222.24084342899988 286.1384650016032) rotate(-14 37.759156571000126 23.861534998396785) scale(-1 1) translate(-75.51831314200025 0)">
<path d="M5 20s12.08-8.23 35-8.23S70 30 70 30s-7.15 9.92-30.07 9.92S5 20 5 20" style="fill:#f5f3ee"/><path d="M5 20c-2.87-2.87 12.2-9.55 35-11.9C70 5 72.87 27.13 70 30s-7.08-13.73-30-13.73S7.87 22.87 5 20" class="black"/><path d="M39.93 33.04c-6.34 0-11.46-5.12-11.46-11.46 0-6.33 5.12-11.46 11.46-11.46s11.46 5.13 11.46 11.46c0 6.34-5.12 11.46-11.46 11.46" class="black"/>
</g>
<g transform="translate(101.2222222222222 258.59183673469386) rotate(-6 38.77777777777779 11.408163265306122)">
<path fill="#CC9966" stroke="#000" d="M73 21c8-8 0-16 0-16S45 1 37 1C27 1 1 17 1 17s20-4 40-4c12 0 28 12 32 8Z"/>
</g>
<g transform="translate(221.2222222222222 258.59183673469386) rotate(6 38.77777777777779 11.408163265306122) scale(-1 1) translate(-77.55555555555559 0)">
<path fill="#CC9966" stroke="#000" d="M73 21c8-8 0-16 0-16S45 1 37 1C27 1 1 17 1 17s20-4 40-4c12 0 28 12 32 8Z"/>
</g>
<g transform="translate(0 48.766108367626885)">
<path d="M168 384s9-13.77 32-14.03c17.4-.2 32 13.2 32 13.2s-4.29 28.26-32 28.83c-27.29.56-32-28-32-28" style="opacity:.05;mix-blend-mode:multiply;fill:#501414"/><path d="M168 384c12-4 48-4 64 0-8 8-10 16-32 16-20 0-24-8-32-16Z" style="fill:#000;stroke:#000"/><path d="M168 384c12-4 48-4 64 0-20 4-10 4-32 4-20 0-16 0-32-4m12 12s14-1 20-1 20 1 20 1-4 4-20 4c-12 0-20-4-20-4" style="fill:#fff"/><path d="M168 384c12-4 48-4 64 0-8 8-10 16-32 16-20 0-24-8-32-16Zm16 24c12 6 20 6 32 0m4.29-33.12c-14.52-5.66-27.29-6.34-40.29.09" style="fill:none;stroke:#000;stroke-width:4"/>
</g>
<g transform="translate(174.5 336.5) scale(1.02 1.02) translate(-0.5000000000000004 -0.6568627450980398)">
<path fill="#ddb7a0" stroke="#000" stroke-width="5" d="m28 1 20 45s-5 20-25 20S3 46 3 46" class="nose"/>
</g>
<g transform="scale(0.932 1) translate(14.592274678111577 0)">
<path fill="#CC9966" stroke="#000" stroke-width="4" d="M60 310H50v-10c0-140 50-200 150-200s150 60 150 200v10h-10v-20c0-5-10-20-15-25s-5-50-15-60-60-5-110-5-100-5-110 5-10 55-15 60-15 20-15 25z"/>
</g>
</svg>