<svg xmlns="http://www.w3.org/2000/svg" version="1.2" baseProfile="tiny" width="100%" height="100%" viewBox="0 0 400 600" preserveAspectRatio="xMinYMin meet">
<g transform="scale(0.97 1) translate(6.185567010309283 0)">
<path fill="#eab687" stroke="#000" stroke-width="6" d="M5 600s-5-60 35-70c0 0 40 0 90-30l70-200 70 200c50 30 90 30 90 30 40 10 35 70 35 70" class="body"/>
</g>
<g transform="scale(0.97 1) translate(6.2628865979381505 0)">
<g stroke="#000"><path fill="#07364f" stroke-width="3" d="M120 505s35 40 80 40 80-40 80-40v95H120z" class="s0"/><path fill="#89bfd3" stroke-width="6" d="M120 504.6c10 45.4 80 55.4 90 65.4s10 40 10 40H-5s5-40 5-50 10-30 40-40 50 0 80-15.4z" class="s0"/><path fill="#89bfd3" stroke-width="6" d="M360 520c30 10 40 30 40 40s10 50 10 50H180s0-40 10-50 80-10 90-55c30 15 50 5 80 15z" class="s0"/><path fill="#89bfd3" stroke-width="1.5" d="M196 597c-2.8 0-5-2.2-5-5s2.2-5 5-5 5 2.2 5 5-2.2 5-5 5zm-2-5h1m2 0h1" class="s1"/></g><path stroke="#000" d="M293.8 513c.6 0 1.2.6 1.2 1.2 0 .7-1.5 4.4-3.4 8.3-1.9 3.8-5.4 9-7.8 11.3-2.4 2.4-7 5.9-10.3 7.7-3.3 1.9-10.3 5.3-15.5 7.5-5.2 2.3-13.8 5.8-19 7.7-5.2 2-11.3 4.8-13.5 6.3s-5.7 4.7-7.8 7.1c-2.2 2.5-4.4 6.5-5.2 9.4-.8 2.7-1.8 10.1-2.2 16.3-.5 6.7-1.2 11.1-1.8 10.9-.6-.3-.9-4.8-.7-11.8.2-7.2.9-13.4 2-16.9 1.2-3.8 3.2-7.2 6.8-11 2.8-3 7.8-6.9 11-8.6 3.2-1.8 7.7-3.7 9.9-4.4s7.8-2.8 12.5-4.7c4.7-2 13-5.8 18.4-8.7 6.8-3.5 11.2-6.5 14-9.7 2.3-2.5 5.4-7.5 7.1-11.2 1.6-3.6 3.6-6.7 4.2-6.7zm6.4 1c1.1 0 1.9.7 1.9 1.7s-1.7 5.4-3.9 9.8c-2.3 4.6-6 10-8.8 12.9-2.6 2.6-7.7 6.5-11.3 8.6s-10.6 5.6-15.5 7.8c-5 2.2-13.4 5.6-18.8 7.6-5.3 2-11.4 4.7-13.5 5.9-2 1.3-5.2 4-7 6-1.7 2.1-3.6 5.4-4.1 7.4-.5 2.1-1.2 8.6-1.5 14.5-.6 9.9-.8 10.8-2.6 10.8-1.9 0-2-.5-1.4-10.8.3-5.9 1.2-13.1 2-16 1-3.9 2.6-6.4 6.1-9.8 2.7-2.6 6.4-5.5 8.3-6.4 1.9-1 10-4.4 18-7.5s18.3-7.6 23-10 10.3-5.9 12.5-7.8c2.2-1.8 5.9-6.2 8.2-9.8 2.3-3.5 4.7-8.3 5.4-10.7.8-3.1 1.6-4.2 3-4.2zm6.9 1c1.1 0 2 .7 2 1.5s-2.1 5.7-4.7 10.7c-3.4 6.9-6.4 11-11.2 15.8-4.8 4.7-9.3 7.9-16.6 11.7-5.5 2.8-15 7.1-21 9.6-6.1 2.4-13.3 5.2-16 6.2-2.8 1.1-6.9 3.7-9.3 5.9-2.5 2.4-4.7 5.6-5.3 7.6-.5 1.9-.9 5.7-.9 8.5 0 2.7-.3 7.1-.7 9.8-.5 2.7-1.3 4.7-2.1 4.7-.9 0-1.1-2.4-.6-10.3.3-5.6 1.1-11.8 1.6-13.7.6-1.9 2-4.6 3.1-6 1-1.4 3.6-3.7 5.6-5.1 2-1.5 9.2-4.8 16.1-7.4s16.5-6.7 21.5-9.1c4.9-2.3 11.8-6.1 15.2-8.3 3.5-2.3 8.2-6.5 10.4-9.4 2.3-2.8 5.7-8.4 7.6-12.2 1.8-3.9 3.3-7.8 3.3-8.8s.8-1.7 2-1.7zm-196.8-5c.7 0 2.2 1.9 3.2 4.2 1.1 2.4 3.8 7.4 6 11.2 2.3 3.8 6.3 9.2 9.1 11.9s9.9 8.4 16 12.7c6 4.3 13.2 9.8 15.9 12.2 3.3 2.9 5.9 6.4 7.9 10.8 2.7 5.9 3 7.8 3.6 20.3.6 12.6.5 13.7-1.2 13.7-1.5 0-1.7-1.1-1.7-9.8 0-5.3-.4-12.2-1-15.2s-2-7.3-3.1-9.5-3.5-5.5-5.2-7.3c-1.8-1.8-7.5-6.2-12.7-9.7s-12.5-8.8-16.3-11.9c-3.7-3.1-8.4-8.2-10.6-11.4-2.1-3.1-5.2-8.4-6.8-11.7-1.7-3.3-3.4-7-3.8-8.3-.5-1.5-.3-2.2.7-2.2zm-5 1c.4 0 3 4.8 5.7 10.7 3.6 8.2 6.3 12.4 10.7 17.2 3.3 3.5 10.6 9.8 16.4 14s11.6 8.4 13 9.2c1.4.9 4 3.1 5.9 5s4.5 5.6 5.8 8.4c1.8 4 2.4 7.6 3.8 31.5h-2.3c-2.1 0-2.2-.3-2.5-12.3-.3-10-.7-13.1-2.6-17.2-1.2-2.8-3.2-6.1-4.4-7.4-1.2-1.2-6.7-5.4-12.2-9.1-5.5-3.8-13.2-9.6-17-12.8-3.9-3.3-9-8.8-11.5-12.3-2.4-3.5-6.2-10.2-8.3-14.9-3.1-6.7-3.6-8.7-2.5-9.2.7-.4 1.6-.8 2-.8zm-7.5 3c.5-.1 3.5 5.2 6.8 11.7 4.3 8.5 7.7 13.6 12 18.2 3.3 3.5 9.4 9 13.5 12.1s10.8 7.9 14.8 10.6 8.4 6.6 9.8 8.6c1.7 2.7 2.7 6.2 3.4 12 .5 4.6 1 10.9 1 14 0 4-.4 5.8-1.3 5.8-.8 0-1.4-3.5-2-12-.4-6.6-1.3-13.4-2.1-15.3-.8-1.7-2.1-3.9-2.8-4.7-.7-.9-6.4-5.1-12.7-9.5s-14.8-11.2-18.9-15c-4.1-3.9-9.3-9.7-11.5-13s-5.6-9.2-7.4-13c-1.8-3.9-3.3-7.8-3.3-8.8 0-.9.3-1.7.7-1.7z" class="s3"/><path fill="#7a1319" stroke="#7a1319" d="M296.4 513c.9 0 1.2 1 1 3.2-.3 1.8-1.7 5.8-3.2 8.8s-5.2 7.9-8.2 11c-3.7 3.8-8.5 7.1-14.5 10.2-5 2.6-15.5 7.2-23.5 10.3s-16.1 6.5-18 7.5c-1.9.9-5.6 3.8-8.3 6.4-3.5 3.4-5.1 5.9-6.1 9.8-.8 2.9-1.7 10.1-2 16-.5 9.4-.8 10.8-2.4 10.8s-1.6-.9-.9-11.2c.4-6.2 1.4-13.6 2.2-16.3.8-2.9 3-6.9 5.2-9.4 2.1-2.4 5.6-5.6 7.8-7.1s8.3-4.3 13.5-6.3c5.2-1.9 13.8-5.4 19-7.7 5.2-2.2 12.2-5.6 15.5-7.5 3.3-1.8 7.9-5.3 10.3-7.7 2.4-2.3 5.9-7.5 7.8-11.3 1.9-3.9 3.4-7.6 3.4-8.3 0-.6.6-1.2 1.4-1.2zm7.1 1c.9 0 1.5.9 1.5 2.2s-1.5 5.4-3.3 9.3c-1.9 3.8-5.3 9.4-7.6 12.2-2.2 2.9-6.9 7.1-10.4 9.4-3.4 2.2-10.3 6-15.2 8.3-5 2.4-14.6 6.5-21.5 9.1s-14.1 5.9-16.1 7.4c-2 1.4-4.6 3.7-5.6 5.1-1.1 1.4-2.5 4.1-3.2 6-.6 1.9-1.1 6-1.1 9s-.3 7.6-.7 10.3c-.5 2.7-1.3 4.7-2.1 4.7-.9 0-1.1-2.5-.6-10.8.3-5.9 1-12.4 1.5-14.5.5-2 2.4-5.3 4.1-7.4 1.8-2 5-4.7 7-6 2.1-1.2 8.2-3.9 13.6-5.9 5.3-2 13.7-5.4 18.7-7.6 4.9-2.2 11.9-5.7 15.5-7.8s8.7-6 11.3-8.6c2.8-2.9 6.5-8.3 8.8-12.9 2.2-4.4 3.9-8.8 3.9-9.8 0-.9.7-1.7 1.5-1.7zm-196.3-4c.7 0 2.6 3 4.3 6.7 1.6 3.8 5.1 10.1 7.7 14 2.9 4.4 7.5 9.5 11.5 12.9 3.8 3.1 11.1 8.4 16.3 11.9s10.9 7.9 12.7 9.7c1.7 1.8 4.1 5.1 5.2 7.3s2.5 6.5 3.1 9.5 1 9.9 1 15.2c0 7.2-.3 9.8-1.3 9.8-.8 0-1.4-3.7-2-13.2-.6-10.7-1.2-14.3-3-18.3-1.3-2.8-3.9-6.5-5.8-8.4s-4.5-4.1-5.9-5c-1.4-.8-7.2-5-13-9.2s-13.1-10.5-16.4-14c-3.8-4.1-7.6-9.9-10.7-16.2-2.7-5.3-4.9-10.4-4.9-11.2s.6-1.5 1.2-1.5zm-1.7 10.8c2.2 4.8 6.1 11.6 8.5 15.1 2.5 3.5 7.6 9 11.5 12.3 3.8 3.2 11.5 9 17 12.8 5.5 3.7 11 7.9 12.2 9.1 1.2 1.3 3.2 4.6 4.4 7.4 1.9 4.1 2.3 7.2 2.6 17.2.3 10.4.1 12.3-1.2 12.3-1.2 0-1.5-1.3-1.5-5.8 0-3.1-.5-9.4-1-14-.7-5.8-1.7-9.3-3.4-12-1.4-2-5.8-5.9-9.8-8.6s-10.7-7.5-14.8-10.6-10.2-8.6-13.5-12.1c-4.4-4.6-7.7-9.7-12-18.2-4.9-9.7-5.7-12-4.6-12.7 1.2-.7 2.4 1 5.6 7.8z" class="s4"/><g fill="none" stroke="#000" stroke-width="6"><path d="M120 504.6c6.9 37.6 62.2 49.3 67.9 57-7.8 11.2-8 48.4-8 48.4H-5s5-40 5-50 10-30 40-40 50 0 80-15.4z" class="s5"/><path d="M360 520c30 10 40 30 40 40s10 50 10 50H180s0-40 10-50 80-10 90-55c30 15 50 5 80 15z" class="s5"/></g>
</g>
<g transform="translate(33.53553390593274 291.01362954285077) scale(1.04 1.04) translate(-0.8255563882333569 -1.3071680945057407) translate(15.981067811865476 -2.979591836734694)">
<path fill="#eab687" stroke="#000" stroke-width="6" d="M40 14S10-1 5 4s0 30 5 40-5 25 30 20z"/>
</g>
<g transform="translate(323.53553390593277 291.01362954285077) scale(-1.04 1.04) translate(-42.103375799901166 -1.3071680945057407) translate(15.981067811865476 -2.979591836734694)">
<path fill="#eab687" stroke="#000" stroke-width="6" d="M40 14S10-1 5 4s0 30 5 40-5 25 30 20z"/>
</g>
<g transform="scale(0.8780000000000001 1) translate(27.790432801822295 0)">
<path fill="#eab687" stroke="#000" stroke-width="6" d="M200 100c100 0 150 60 150 200 0 70-30 120-40 130l-60 60s-20 10-50 10-50-10-50-10l-60-60c-10-10-40-60-40-130 0-140 50-200 150-200Z" class="head"/><path fill="rgba(0,0,0,0)" d="M200 410c30 0 50 10 50 10 30 0 90-15 90-120h10c0 70-30 120-40 130l-60 60s-20 10-50 10-50-10-50-10l-60-60c-10-10-40-60-40-130h10c0 105 60 120 90 120 0 0 20-10 50-10" class="faceShave"/><path fill="rgba(0,0,0,0)" d="M60 300H50c0-140 50-200 150-200s150 60 150 200h-10v-10c0-5-10-20-15-25s-5-55-15-65c-40-40-60 0-110 0s-70-40-110 0c-10 10-10 60-15 65s-15 20-15 25z" class="headShave"/>
</g>
<g>
<path fill="none" stroke="#000" stroke-width="2" d="M300 320s5 5 10 5m-13.25-2.47S300 335 305 335m-205-15s-5 5-10 5m13.25-2.47S100 335 95 335" class="eyeline2"/>
</g>
<g>
<path fill="none" stroke="#000" stroke-width="2" d="M155 220s35 0 45 5c10-5 45-5 45-5"/>
</g>
<g transform="translate(99.23500000000001 289.1206538286518) rotate(0 40.76499999999999 20.879346171348168)">
<path d="M73.63 30.14S62.25 5.74 32.3 7.42C12.33 8.54 7.9 18.8 7.9 18.8l5.83 14.7c30.23 3.31 59.9-3.36 59.9-3.36" style="fill:#fff"/><path d="M40.63 30.99a9.99 9.99 0 0 0 9.42-10.55 9.985 9.985 0 0 0-10.54-9.42 10 10 0 0 0-9.43 10.54c.31 5.52 5.03 9.74 10.55 9.43" style="fill:#000"/><path d="M73.63 30.14S72.51 10.17 32.3 7.42C12.33 8.54 7.9 18.8 7.9 18.8l5.83 14.7" style="fill:none;stroke:#000;stroke-width:5"/>
</g>
<g transform="translate(219.235 289.1206538286518) rotate(0 40.76499999999999 20.879346171348168) scale(-1 1) translate(-81.52999999999999 0)">
<path d="M73.63 30.14S62.25 5.74 32.3 7.42C12.33 8.54 7.9 18.8 7.9 18.8l5.83 14.7c30.23 3.31 59.9-3.36 59.9-3.36" style="fill:#fff"/><path d="M40.63 30.99a9.99 9.99 0 0 0 9.42-10.55 9.985 9.985 0 0 0-10.54-9.42 10 10 0 0 0-9.43 10.54c.31 5.52 5.03 9.74 10.55 9.43" style="fill:#000"/><path d="M73.63 30.14S72.51 10.17 32.3 7.42C12.33 8.54 7.9 18.8 7.9 18.8l5.83 14.7" style="fill:none;stroke:#000;stroke-width:5"/>
</g>
<g transform="translate(101.2222222222222 261) rotate(-15 38.77777777777779 9)">
<path fill="#272421" stroke="#000" d="M73 13c8-8 0-12 0-12S45 5 37 5H1s20 12 40 12c12 0 28 0 32-4Z"/>
</g>
<g transform="translate(221.2222222222222 261) rotate(15 38.77777777777779 9) scale(-1 1) translate(-77.55555555555559 0)">
<path fill="#272421" stroke="#000" d="M73 13c8-8 0-12 0-12S45 5 37 5H1s20 12 40 12c12 0 28 0 32-4Z"/>
</g>
<g transform="translate(0 51.52119068455602)">
<path d="M168 384s9-13.77 32-14.03c17.4-.2 32 13.2 32 13.2s-4.29 23.24-32 23.81c-27.29.56-32-22.98-32-22.98" style="opacity:.05;mix-blend-mode:multiply;fill:#501414"/><path d="M168 384c12-4 48-4 64 0-20 4-10 4-32 4-20 0-16 0-32-4" style="fill:#fff"/><path d="M168 384c12-4 48-4 64 0-20 4-10 4-32 4-20 0-16 0-32-4Zm13.71 18.12c14.52 5.66 24.72 5.71 37.72-.71m.86-26.53c-14.52-5.66-27.29-6.34-40.29.09" style="fill:none;stroke:#000;stroke-width:3"/>
</g>
<g transform="translate(140.84321577312707 292.352) scale(-0.92 0.92) translate(-123.45763664738698 6.751999999999996)">
<path fill="#eab687" stroke="#000" stroke-width="5" d="M50 50s-20 60 9 55c0 0 29 5 9-55"/>
</g>
<g transform="scale(0.8780000000000001 1) translate(27.790432801822295 0)">
<path fill="#333" stroke="#000" stroke-width="2" d="M195 285h10s35-10 65-10 50 10 50 10 0 5 10 5v30c-10 0-10 5-10 5s-20 20-50 20c-60 0-65-35-65-35 0-5-10-5-10 0 0 0-5 35-65 35-30 0-50-20-50-20s0-5-10-5v-30c10 0 10-5 10-5s20-10 50-10 65 10 65 10ZM90 295c0 20 0 40 40 40 50 0 50-30 50-30v-10s-20-10-50-10c-40 0-40 10-40 10Zm130 10s0 30 50 30c40 0 40-20 40-40 0 0 0-10-40-10-30 0-50 10-50 10z" class="frame"/><path fill="rgba(150,150,175,.5)" d="M90 295s0-10 40-10c30 0 50 10 50 10v10s0 30-50 30c-40 0-40-20-40-40m180 40c-50 0-50-30-50-30v-10s20-10 50-10c40 0 40 10 40 10 0 20 0 40-40 40" class="lens"/><path fill="#7a1319" stroke="#000" stroke-width="2" d="M350 320v-30h-20v30zm-280 0v-30H50v30z" class="straps"/><path fill="none" stroke="#fff" stroke-width="2" d="m280 315 10-20m0 20 10-20m-160 20 10-20m0 20 10-20" class="glare"/>
</g>
<g transform="scale(0.8780000000000001 1) translate(27.790432801822313 0)">
<g fill="#7a1319" stroke="#000"><path stroke-width="2" d="M199.8 82c3.4 0 7.2.6 8.8 1.5 1.6.8 2.9 2 2.9 2.5s.2 1.7.5 2.5c.4 1.3-1.3 1.5-12 1.5s-12.4-.2-12-1.5c.3-.8.4-1.9.3-2.5-.1-.5 1.1-1.6 2.7-2.4 1.5-.9 5.4-1.5 8.8-1.6z" class="s0"/><path stroke-width="6" d="M197.8 90.1c13.3-.1 23 .5 34.6 1.9 8.8 1.1 20.8 3 26.6 4.1s15.5 3.3 21.6 5c6 1.6 14.4 4.3 18.7 6 4.2 1.7 10.2 4.5 13.3 6.2 3.1 1.8 7.4 5 9.5 7.2 2.3 2.3 5.3 7.1 7.1 11.3 2 4.7 4 12 5.6 21 1.4 7.5 3.5 17.8 4.7 22.7s3.2 11.7 4.3 15c1.2 3.3 3 11.8 4 19 .9 7.2 1.7 17.9 1.7 24s-.3 11.8-.7 12.7c-.6 1.5-1.1 1.4-4.9-1.1-2.4-1.5-8.9-5.3-14.4-8.4-5.6-3-16.4-8.3-24-11.7-7.7-3.5-20.8-8.6-29.3-11.5-8.4-3-21.8-6.7-29.7-8.4-7.9-1.6-18.6-3.5-23.7-4.1-5.2-.5-15.4-1-22.8-1s-17.6.5-22.8 1c-5.1.6-15.8 2.5-23.7 4.1-7.9 1.7-22 5.7-31.2 8.9s-22.4 8.3-29.2 11.5c-6.9 3.1-17.9 8.6-24.5 12.2s-13.2 7.4-14.6 8.4c-2.3 1.6-2.7 1.7-3.1.4-.3-.8-.5-6.1-.5-11.7 0-5.7.6-15.5 1.3-21.8.8-6.3 1.9-13.5 2.5-16 .7-2.5 2.4-8.3 3.9-13s3.8-14.6 5.1-22 3.1-16.4 4-20 2.7-8.9 4.1-11.9 4.3-7.3 6.5-9.5c2.1-2.3 7.3-6 11.5-8.2 4.2-2.3 10.8-5.3 14.8-6.7s11.5-3.7 16.8-5.1 13.5-3.3 18.2-4.2 15.8-2.7 24.5-3.9c11.2-1.6 21.1-2.3 34.2-2.4z"/><path stroke-width="4" d="M69.6 237.7c-6.6 3.6-13.2 7.4-14.7 8.4-2.2 1.6-2.7 1.7-3.1.4-.2-.8-.4-6.1-.4-11.7-.1-5.7.6-15.5 1.3-21.8s1.9-13.5 2.5-16 2.4-8.3 3.9-13 3.8-14.6 5.1-22c0 0 12 72.1 5.4 75.7zM336.8 162c1.3 7.4 3.6 17.3 5.1 22s3.2 10.5 3.9 13c.6 2.5 1.7 9.7 2.5 16 .7 6.3 1.3 16.1 1.3 21.8 0 5.6-.2 10.9-.5 11.7-.4 1.3-.8 1.2-3.1-.4-1.4-1-8-4.8-14.6-8.4s5.4-75.7 5.4-75.7z"/><path stroke-width="6" d="M196.2 197c9.2 0 20.8.3 25.9.7 5 .4 13.6 1.5 19.1 2.4 5.6 1 14.4 2.8 19.7 4.1s13.7 3.7 18.7 5.2c5 1.6 14.7 5.1 21.6 7.9 6.8 2.7 17 7.3 22.5 10 5.6 2.8 14.9 7.9 20.6 11.2 5.8 3.4 12.4 7.5 14.6 9.2 3.2 2.4 4.1 3.6 4.1 5.6 0 1.6-.7 3.3-1.9 4.2-1.1.9-3.2 1.6-4.8 1.6-2.1 0-5.1-1.4-10.8-5.1-4.3-2.8-13.3-8-19.9-11.6s-19.3-9.5-28.3-13.1c-8.9-3.7-20.6-8-25.9-9.6-5.2-1.5-13.4-3.7-18.2-4.9-4.7-1.1-14.9-2.9-22.5-4-11.3-1.7-17.1-2-30.7-2s-19.4.3-30.7 2c-7.6 1.1-17.8 2.9-22.5 4-4.8 1.2-13 3.4-18.2 4.9-5.3 1.6-17 5.9-25.9 9.6-9 3.6-21.7 9.5-28.3 13.1s-15.6 8.8-19.9 11.6c-6.3 4.1-8.6 5.1-11.3 5.1-1.8 0-4-.5-4.8-1.2-.8-.6-1.4-2.4-1.4-4 0-2.2.8-3.4 3.8-5.9 2.1-1.8 7.4-5.3 11.7-7.8s12.8-7.2 18.9-10.4 17.6-8.4 25.5-11.7c7.9-3.2 18.7-7.2 24-8.8 5.3-1.7 14.7-4.2 21.1-5.7 6.3-1.5 17.3-3.6 24.4-4.6 10.3-1.5 16.5-2 29.8-2z"/></g>
</g>
</svg>