<svg xmlns="http://www.w3.org/2000/svg" version="1.2" baseProfile="tiny" width="100%" height="100%" viewBox="0 0 400 600" preserveAspectRatio="xMinYMin meet">
<g transform="scale(1.04 1) translate(-7.692307692307699 0)">
<path fill="#f2d6cb" stroke="#000" stroke-width="6" d="M10 600s-10-65 50-65c5 0 25-15 70-35l70-200 70 200c45 20 65 35 70 35 60 0 50 65 50 65" class="body"/>
</g>
<g transform="scale(1.04 1) translate(-7.692307692307699 0)">
<g stroke="#000"><path fill="#89bfd3" stroke-width="6" d="M120 505c0 20 50 15 80 35 30-20 80-15 80-35 0 0 50-5 80 5 0 0 20 10 30 40s10 60 10 60H0s0-30 10-60 30-40 30-40c30-10 80-5 80-5Z" class="hockeyPrimary"/><path fill="#7a1319" stroke-width="2" d="M120 505c0 20 50 15 80 30 30-15 80-10 80-30l15-1c0 41-40 21-95 56-55-35-95-15-95-56z" class="collarSecondary"/><path fill="none" stroke-width="6" d="M120 505c0 20 50 15 80 35 30-20 80-15 80-35 0 0 50-5 80 5 0 0 20 10 30 40s10 60 10 60H0s0-30 10-60 30-40 30-40c30-10 80-5 80-5Z" class="hockeyStroke"/><path fill="#07364f" stroke-width="2" d="M180 528.21h40l10 17.05L200 564l-30-18.74z" class="shieldAccent"/></g>
</g>
<g transform="translate(33.53553390593274 291.01362954285077) scale(0.76 0.76) translate(6.778252450758083 10.732538039099756) translate(20.321067811865476 -2.979591836734694)">
<path fill="#f2d6cb" stroke="#000" stroke-width="6" d="M40 14S10-1 5 4s0 30 5 40-5 25 30 20z"/>
</g>
<g transform="translate(323.53553390593277 291.01362954285077) scale(-0.76 0.76) translate(-49.707184638892606 10.732538039099756) translate(20.321067811865476 -2.979591836734694)">
<path fill="#f2d6cb" stroke="#000" stroke-width="6" d="M40 14S10-1 5 4s0 30 5 40-5 25 30 20z"/>
</g>
<g transform="scale(0.8500000000000001 1) translate(35.2941176470588 0)">
<path fill="#f2d6cb" stroke="#000" stroke-width="6" d="M200 100c100 0 150 60 150 200 0 0-20 105-20 135s-60 45-80 55-10 15-50 5c-40 10-30 5-50-5s-80-25-80-55-20-135-20-135c0-140 50-200 150-200Z" class="head"/><path fill="rgba(0,0,0,0)" d="M60 300H50c0-140 50-200 150-200s150 60 150 200h-10v-10c0-5-10-20-15-25s-5-55-15-65c-40-40-60 0-110 0s-70-40-110 0c-10 10-10 60-15 65s-15 20-15 25z" class="headShave"/><path fill="rgba(0,0,0,0)" d="M200 410c30 0 50 10 50 10 30 0 90-15 90-120h10s-20 105-20 135-60 45-80 55-10 15-50 5c-40 10-30 5-50-5s-80-25-80-55-20-135-20-135h10c0 105 60 120 90 120 0 0 20-10 50-10" class="faceShave"/>
</g>
<g>
<path fill="none" stroke="#000" stroke-width="2" d="M300 320s5 5 10 5m-13.25-2.47S300 335 305 335m-205-15s-5 5-10 5m13.25-2.47S100 335 95 335" class="eyeline2"/>
</g>
<g transform="translate(102.5 285) rotate(3 37.5 25)">
<path d="m5 35 5-15s4.24-5 19.3-5c30 0 35.7 5 35.7 5l5 15z" style="fill:#f5f3ee"/><path d="M37.93 33.78c-4.53 0-8.2-3.66-8.2-8.2 0-4.53 3.67-8.19 8.2-8.19s8.19 3.66 8.19 8.19c0 4.54-3.66 8.2-8.19 8.2" style="fill:#000"/><path d="M5 35s0-10 5-15 55 0 55 0l5 15" style="fill:none;stroke:#000;stroke-width:6"/>
</g>
<g transform="translate(222.5 285) rotate(-3 37.5 25) scale(-1 1) translate(-75 0)">
<path d="m5 35 5-15s4.24-5 19.3-5c30 0 35.7 5 35.7 5l5 15z" style="fill:#f5f3ee"/><path d="M37.93 33.78c-4.53 0-8.2-3.66-8.2-8.2 0-4.53 3.67-8.19 8.2-8.19s8.19 3.66 8.19 8.19c0 4.54-3.66 8.2-8.19 8.2" style="fill:#000"/><path d="M5 35s0-10 5-15 55 0 55 0l5 15" style="fill:none;stroke:#000;stroke-width:6"/>
</g>
<g transform="translate(105 260.3333333333333) rotate(-1 35 9.66666666666667)">
<path fill="#CC9966" stroke="#000" d="M67 17c3-3 0-12 0-12H39C29 5 3 1 3 1S0 14 3 17s26 0 36 0 25 3 28 0Z"/>
</g>
<g transform="translate(225 260.3333333333333) rotate(1 35 9.66666666666667) scale(-1 1) translate(-70 0)">
<path fill="#CC9966" stroke="#000" d="M67 17c3-3 0-12 0-12H39C29 5 3 1 3 1S0 14 3 17s26 0 36 0 25 3 28 0Z"/>
</g>
<g transform="translate(0 0)">
<path d="M170 430s10 20 30 20 30-20 30-20z" style="fill:#fff;stroke:#000;stroke-width:5"/>
</g>
<g transform="translate(150.27785841680208 317.5) scale(1.24 1.24) translate(-9.6236403064254 -10.161290322580644)">
<path fill="#f2d6cb" stroke="#000" stroke-width="5" d="M36.03 47c-19.25.25-26.57 32.37-4.37 27.13 9-2.13 8.25 4.12 18.12 4.37 9.5.24 5.75-6.12 16.38-3.25 22.01 5.96 18.75-28-.21-28.02M50 55.6S51.25 45 51.25 35 50 5 50 5" class="nose"/><path d="M40 95h20v5H40z" style="fill:none"/>
</g>
<g transform="scale(-1 1) translate(-400 0) scale(0.8500000000000001 1) translate(35.2941176470588 0)">
<defs><linearGradient id="a" x1="200" x2="200" y1="100" y2="310" gradientUnits="userSpaceOnUse"><stop offset="0" stop-color="rgba(0,0,0,.25)"/><stop offset="1" stop-color="rgba(0,0,0,0)"/></linearGradient></defs><g style="display:inline"><path d="M60 310H50v-10c0-140 50-200 150-200s150 60 150 200v10h-10v-20c0-5-10-20-15-25s-5-55-15-65c-40-40-56.429-38.095-106.429-38.095S130 160 90 200c-10 10-10 60-15 65s-15 20-15 25z" class="short_fade" style="display:inline;opacity:1;fill:url(#a);stroke:none;stroke-width:1;stroke-miterlimit:4;stroke-dasharray:none"/></g><path fill="#CC9966" stroke="#000" stroke-width="4.001" d="M186.574 63.308c-1.38.914-3.048 2.224-3.706 2.902-.658.697-2.644 2.11-4.428 3.137-1.795 1.036-4.004 2.996-4.928 4.352-.913 1.347-2.761 3.024-4.12 3.74-1.36.716-4.378 3.134-6.98 4.84-2.633 1.695-3.698 3.69-4.77 5.047-1.083 1.338-1.985 2.085-3.313 2.952-1.316.848-2.349 2.437-2.349 2.437-.547.603-3.464.794-5.216 1.906s-2.509 3.225-3.475 3.668c-.956.443-2.931 1.762-4.408 2.92-1.476 1.15-2.994 2.139-3.366 2.205-.361.066-1.827 1.074-3.25 2.232-1.423 1.14-2.75 2.101-2.93 2.13-.192.028-2.04 1.271-4.121 2.74 1.206.294-4.29 2.363-5.437 3.465-1.147 1.093-3.027 2.11-3.61 3.166-1.02 1.79-2.04 1.624-5.566 1.972-3.165.358-2.247 2.16-4.87 3.988-2.103 1.46-3.654 2.458-4.302 3.89-.52 1.159-2.102 4.032-3.515 6.378-2.188 3.664-1.961 5.05-8.206 10.202-3.94 3.231-2.727 4.186-4.691 5.76-2.56 2.043-3.919 3.617-4.832 5.586-.69 1.507-1.53 5.237-2.4 7.385s-1.688 4.296-1.837 4.786c-.138.49-1.71 2.091-3.473 3.56-2.57 2.186-3.207 3.072-3.59 4.975-.244 1.272-.456 2.694-.477 3.165-.01.462-.212 2.012-1.327 3.077-13.917 26.93.055 20.434 20.174 19.793 6.615-2.296 23.167-11.049 33.226-13.355 24.884-5.704 49.903-4.276 77.7-4.133 25.588.131 50.833-.518 75.14 4.693 13.99 2.998 30.483 11.738 39.346 13.955 20.81.15 27.744 1.091 26.427-2.908-.116-1.442-1.2-5.16-1.805-7.91-.606-2.678-1.04-2.932-2.061-6.347-.209-.699-1.487-1.979-2.57-2.95-1.104-.97-2.028-2.175-2.06-2.665-.021-.49-.266-1.978-.542-3.307-.425-2.072-1.476-2.677-4.577-5.108-2.05-1.582-.9-5.269-1.007-5.768-.116-.518-.743-1.554-1.423-2.317s-1.773-2.798-2.474-4.522c-.828-2.11-2.028-3.825-3.558-5.087-1.295-1.093-2.793-3.062-3.44-4.541-.616-1.45-.945-3.772-1.964-4.61s.385-.414-.794-.876c-1.179-.48-2.548-1.61-3.069-2.524-.51-.924-1.975-2.421-3.25-3.335l-1.23-2.44c-.562-.518-1.529-1.93-2.155-3.137-.616-1.215-2.889-3.759-5.034-5.68-2.156-1.941-2.69-5.195-4.846-7.353-2.156-2.185-4.567-4.239-5.342-4.53-.796-.293-3.037-2.215-5.002-4.316-2.368-2.58-1.744-4.223-4.899-5.966-2.559-1.432-5.84-3.015-7.295-3.495-1.466-.48-3.122-1.97-4.587-2.593-1.466-.612-3.696-1.906-4.78-3.253-1.072-1.357-2.888-2.2-3.303-2.228-.424-.028-1.943-1.912-3.377-4.22-1.423-2.327-3.387-4.918-4.386-5.728-.998-.82-3.525-1.535-5.67-1.592-3.824-.066-3.93-.132-7.084-4.889-2.517-3.957-3.462-4.89-4.906-4.72-1.423.17-2.273-.669-4.301-4.333-2.04-3.834-2.804-4.616-4.599-4.616-1.486.019-2.59.866-3.578 2.703-1.434 2.591-1.455 2.6-2.21.443-.424-1.196-2.102-3.269-3.738-4.578l-3.526-2.067c-3.753 1.148-3.364 2.987-4.97 4.494-4.587-3.458-5.267-3.162-7.667-2.23-1.678.641-3.918.886-4.991.528-1.306-.405-2.772-.066-4.45 1.055z"/>
</g>
</svg>