<svg xmlns="http://www.w3.org/2000/svg" version="1.2" baseProfile="tiny" width="100%" height="100%" viewBox="0 0 400 600" preserveAspectRatio="xMinYMin meet">
<g transform="scale(0.97 1) translate(6.185567010309283 0)">
<path fill="#aa816f" stroke="#000" stroke-width="6" d="M5 600s-5-60 35-70c0 0 40 0 90-30l70-200 70 200c50 30 90 30 90 30 40 10 35 70 35 70" class="body"/>
</g>
<g transform="scale(0.97 1) translate(6.2628865979381505 0)">
<g stroke="#000"><path fill="#07364f" stroke-width="3" d="M120 505s35 40 80 40 80-40 80-40v95H120z" class="s0"/><path fill="#89bfd3" stroke-width="6" d="M120 504.6c10 45.4 80 55.4 90 65.4s10 40 10 40H-5s5-40 5-50 10-30 40-40 50 0 80-15.4z" class="s0"/><path fill="#89bfd3" stroke-width="6" d="M360 520c30 10 40 30 40 40s10 50 10 50H180s0-40 10-50 80-10 90-55c30 15 50 5 80 15z" class="s0"/><path fill="#07364f" stroke-width="1.5" d="M196 597c-2.8 0-5-2.2-5-5s2.2-5 5-5 5 2.2 5 5-2.2 5-5 5zm-2-5h1m2 0h1" class="s1"/></g><path fill="none" stroke="#7a1319" stroke-width="5" d="M10 540v70m20-86v86m20-93v93m20-95v95m20-96v96m20-100v100m20-83v83m20-66v66m20-57v57m220-70v70m-20-86v86m-20-93v93m-20-95v95m-20-96v96m-20-101v101m-20-86v87m-20-72v71m-20-63v62m-20-57v57" class="s2"/><g fill="none" stroke="#000" stroke-width="6"><path d="M120 504.6c6.9 37.6 62.2 49.3 67.9 57-7.8 11.2-8 48.4-8 48.4H-5s5-40 5-50 10-30 40-40 50 0 80-15.4z" class="s5"/><path d="M360 520c30 10 40 30 40 40s10 50 10 50H180s0-40 10-50 80-10 90-55c30 15 50 5 80 15z" class="s5"/></g>
</g>
<g transform="translate(32 290.6) scale(0.8 0.8) translate(5.749999999999998 8.6) translate(28 -3)">
<path fill="#aa816f" stroke="#000" stroke-width="6" d="M43 13S23 3 13 3 3 23 3 33s3 20 13 30 27-10 27-10z"/>
</g>
<g transform="translate(322 290.6) scale(-0.8 0.8) translate(-51.74999999999999 8.6) translate(28 -3)">
<path fill="#aa816f" stroke="#000" stroke-width="6" d="M43 13S23 3 13 3 3 23 3 33s3 20 13 30 27-10 27-10z"/>
</g>
<g transform="scale(0.8 1) translate(49.999999999999986 0)">
<path fill="#aa816f" stroke="#000" stroke-width="6" d="M200 100c100 0 150 60 150 200 0 0-20 105-20 135s-60 45-80 55-10 15-50 5c-40 10-30 5-50-5s-80-25-80-55-20-135-20-135c0-140 50-200 150-200Z" class="head"/><path fill="rgba(0,0,0,0)" d="M60 300H50c0-140 50-200 150-200s150 60 150 200h-10v-10c0-5-10-20-15-25s-5-55-15-65c-40-40-60 0-110 0s-70-40-110 0c-10 10-10 60-15 65s-15 20-15 25z" class="headShave"/><path fill="rgba(0,0,0,0)" d="M200 410c30 0 50 10 50 10 30 0 90-15 90-120h10s-20 105-20 135-60 45-80 55-10 15-50 5c-40 10-30 5-50-5s-80-25-80-55-20-135-20-135h10c0 105 60 120 90 120 0 0 20-10 50-10" class="faceShave"/>
</g>
<g>
<path d="m102 385 9.08-25m13.62 0-9.08 25m13.62 0 9.07-25m13.62 0-9.08 25m106.22 0 9.08-25m13.61 0-9.07 25m13.61 0 9.08-25m13.62 0-9.08 25" style="opacity:.251;mix-blend-mode:multiply;fill:none;stroke:#8b6135;stroke-width:4.4"/>
</g>
<g transform="scale(0.8 1) translate(49.999999999999986 0)">
<path fill="#1c1008" fill-rule="evenodd" stroke="#000" d="M200 410c55 0 55 15 55 30 70 0 85-35 85-140h10c0 130-13.03 137.37-30 160-30 40-110 120-120 120s-90-80-120-120c-16.97-22.63-30-30-30-160h10c0 105 15 140 85 140 0-15 0-30 55-30Zm-45 30c0 20 5 30 25 30 10 0 10-10 20-10s10 10 20 10c20 0 25-10 25-30s-15-20-45-20-45 0-45 20Z" class="shp0"/>
</g>
<g transform="translate(-120.05628769726621 -25.250646588503912) rotate(14 260.0562876972662 335.2506465885039)">
<path d="M259.01 349.54c-13.866-.398-24.58-15.35-24.58-28.312 14.975.007 34.492.1 51.25-.275.204 12.79-11.737 29.015-26.67 28.587" style="fill:#fff;stroke:#000;stroke-linecap:round;stroke-linejoin:round;stroke-width:5"/><path d="M259.552 325.177c-10 0-10 15 0 15s10-15 0-15" style="fill:#000;stroke:#000;stroke-linecap:round;stroke-linejoin:round;stroke-width:4"/>
</g>
<g transform="translate(-0.056287697266213854 -25.250646588503912) rotate(-14 260.0562876972662 335.2506465885039) scale(-1 1) translate(-520.1125753945324 0)">
<path d="M259.01 349.54c-13.866-.398-24.58-15.35-24.58-28.312 14.975.007 34.492.1 51.25-.275.204 12.79-11.737 29.015-26.67 28.587" style="fill:#fff;stroke:#000;stroke-linecap:round;stroke-linejoin:round;stroke-width:5"/><path d="M259.552 325.177c-10 0-10 15 0 15s10-15 0-15" style="fill:#000;stroke:#000;stroke-linecap:round;stroke-linejoin:round;stroke-width:4"/>
</g>
<g transform="translate(97.20374849998123 257.1494303002541) rotate(0 42.79625150001876 12.850569699745927)">
<path fill="#1c1008" stroke="#000" d="M12.93 8.33C11.42 9.56 8.75 12.57 6.99 15s-3.38 5.16-3.61 6.06c-.22.91-.16 1.77.13 1.92.3.14 4.44-.51 9.21-1.46s11.58-1.96 15.13-2.23c3.55-.28 11.63-.52 17.94-.53 6.32-.02 14.56.22 18.32.53 3.75.31 8.39.47 10.29.36 1.91-.11 4.56-.5 5.89-.87 2.09-.59 2.33-.97 1.84-2.91-.42-1.66-1.74-2.85-5.18-4.66-2.54-1.34-7.86-3.18-11.83-4.09-3.97-.92-10.99-2.21-15.6-2.87-4.62-.66-11.91-1.33-16.22-1.49-6.13-.21-8.91.12-12.73 1.52-2.69.99-6.13 2.81-7.64 4.05Z"/>
</g>
<g transform="translate(217.20374849998123 257.1494303002541) rotate(0 42.79625150001876 12.850569699745927) scale(-1 1) translate(-85.59250300003752 0)">
<path fill="#1c1008" stroke="#000" d="M12.93 8.33C11.42 9.56 8.75 12.57 6.99 15s-3.38 5.16-3.61 6.06c-.22.91-.16 1.77.13 1.92.3.14 4.44-.51 9.21-1.46s11.58-1.96 15.13-2.23c3.55-.28 11.63-.52 17.94-.53 6.32-.02 14.56.22 18.32.53 3.75.31 8.39.47 10.29.36 1.91-.11 4.56-.5 5.89-.87 2.09-.59 2.33-.97 1.84-2.91-.42-1.66-1.74-2.85-5.18-4.66-2.54-1.34-7.86-3.18-11.83-4.09-3.97-.92-10.99-2.21-15.6-2.87-4.62-.66-11.91-1.33-16.22-1.49-6.13-.21-8.91.12-12.73 1.52-2.69.99-6.13 2.81-7.64 4.05Z"/>
</g>
<g transform="translate(-2.842170943040401e-14 51.52119068455602) scale(-1 1) translate(-400.00000000000006 0)">
<path d="M168 384s9-13.77 32-14.03c17.4-.2 32 13.2 32 13.2s-4.29 23.24-32 23.81c-27.29.56-32-22.98-32-22.98" style="opacity:.05;mix-blend-mode:multiply;fill:#501414"/><path d="M181.71 402.12c14.52 5.66 24.72 5.71 37.72-.71m.86-26.53c-14.52-5.66-27.29-6.34-40.29.09m-4 9.03c8-2.17 16 0 24 0s16-2.17 24 0m12-4s0 4-12 4m-60-4s0 4 12 4" style="fill:none;stroke:#000;stroke-width:4"/>
</g>
<g transform="translate(-4.045739644970411 -18.272994788737606) scale(-0.93 0.93) translate(-423.4497607685945 29.224849070120012)">
<path d="M180.17 380.08c1.6.3 3.5.1 4.8.9 4.7 2.8 9.2 6 13.8 9a10.23 10.23 0 0 0 11.7 0c3.9-2.5 7.8-5.1 11.7-7.6 1.6-1.1 3.3-2.2 5.7-3.8 0 2.1.4 3.4-.1 4.3-2.8 6.4-17.9 16.1-24.8 15-4-.6-8-2.8-11.3-5.3-4.3-3.3-7.8-7.5-11.6-11.4a4.5 4.5 0 0 0 .1-1.1"/>
</g>
<g transform="scale(-1 1) translate(-390.95000000000005 0) scale(0.8 1) translate(48.86875 0)">
<path fill="#1c1008" stroke="#000" stroke-width="4" d="M37.17 332.53c6.66-10.67 10.33-36.33 10.33-36.33s-11.67 7.13-22.67 9.66c10-13.33 22.92-52.06 22.92-52.06s-10.25 8.06-20.92 7.73c30.34-49.67 10.75-84.26 65.34-123 0 0-13.09-2.26-25.67-10.33 37.88-2.4 64.75-46.9 129.25-38.4 0 0-5.5-10.5-27-21.5 69.5-1 86.5 36.5 86.5 36.5s16.5-7.5 25 14c64.5 9.5 58.5 97 83 140-8.88-1.4-16.5-7.5-16.5-7.5s3.87 27.1 19.37 50.6c-9.5-2.75-21.29-10.04-21.29-10.04s8.29 22.29 11.55 28.79C344.12 315.9 333.75 300 333.75 300s-5.58 24.86-22 41.8c9.75-25.94 8.5-58 8.5-58l-15-31L310 200c-40-40-70.25-1.7-132.25-2.7-81.53-1.32-100 86.5-100 86.5s.08 21.73 7.75 56.73c-17-11.67-24.33-48.33-24.33-43.33s-12.67 31-24 35.33Z" class="shaggy"/><path fill="#1c1008" d="M328 206s-8.75 49.7-46 71c20.25-32.2 8-77 8-77s-7.75 27.3-24 38c3.25-22.7-15.25-41.7-15.25-41.7S219.25 238.8 173 258c23.25-28.2 27-56 27-56s-31.25 37.3-55.75 47.8c19-28 23.5-54.5 23.5-54.5s-45 43.5-62.75 86.7c-5.25-26.2 6-70 6-70l14-54 137 2z" class="shaggyBangs"/><path fill="none" stroke="#000" stroke-width="4" d="M328 206s-8.75 49.7-46 71c20.25-32.2 8-77 8-77s-7.75 27.3-24 38c3.25-22.7-15.25-41.7-15.25-41.7S219.25 238.8 173 258c23.25-28.2 27-56 27-56s-31.25 37.3-55.75 47.8c19-28 23.5-54.5 23.5-54.5s-45 43.5-62.75 86.7c-5.25-26.2 6-70 6-70m3-22s32.25-4.8 76-55m-43 43s56.75 2.7 103-36m-110-3s38.75-54.3 93-34" class="shaggyLines"/>
</g>
</svg>