<svg xmlns="http://www.w3.org/2000/svg" version="1.2" baseProfile="tiny" width="100%" height="100%" viewBox="0 0 400 600" preserveAspectRatio="xMinYMin meet">
<g transform="scale(1.04 1) translate(-7.692307692307697 0)">
<path fill="#f2d6cb" stroke="#000" stroke-width="6" d="M5 600s-5-60 35-70c0 0 40 0 90-30l70-200 70 200c50 30 90 30 90 30 40 10 35 70 35 70" class="body"/>
</g>
<g transform="scale(1.04 1) translate(-7.692307692307699 0)">
<path fill="#89bfd3" stroke="#000" stroke-width="6" d="M80 610s10-30 10-90l20-10s10 80 90 80 90-80 90-80l20 10c0 60 10 90 10 90z"/>
</g>
<g transform="translate(33.53553390593274 291.01362954285077) scale(1.14 1.14) translate(-2.635987064183697 -4.173764792983237) translate(8.231067811865476 -2.979591836734694)">
<path fill="#f2d6cb" stroke="#000" stroke-width="6" d="M40 14S10-1 5 4s0 30 5 40-5 25 30 20z"/>
</g>
<g transform="translate(323.53553390593277 291.01362954285077) scale(-1.14 1.14) translate(-40.29294512395082 -4.173764792983237) translate(8.231067811865476 -2.979591836734694)">
<path fill="#f2d6cb" stroke="#000" stroke-width="6" d="M40 14S10-1 5 4s0 30 5 40-5 25 30 20z"/>
</g>
<g transform="scale(0.928 1) translate(15.517241379310335 0)">
<path fill="#f2d6cb" stroke="#000" stroke-width="6" d="M200 100c100 0 150 60 150 200 0 20-5 100-25 130-10 20-45 50-85 55-5 5-15 15-40 15s-35-10-40-15c-35-5-75-35-85-55-20-30-25-110-25-130 0-140 50-200 150-200Z" class="head"/><path fill="rgba(0,0,0,0)" d="M200 410c30 0 50 10 50 10 30 0 90-15 90-120h10c0 20-5 100-25 130-10 20-45 50-85 55-5 5-15 15-40 15s-35-10-40-15c-35-5-75-35-85-55-20-30-25-110-25-130h10c0 105 60 120 90 120 0 0 20-10 50-10" class="faceShave"/><path fill="rgba(0,0,0,0)" d="M60 300H50c0-140 50-200 150-200s150 60 150 200h-10v-10c0-5-10-20-15-25s-5-55-15-65c-40-40-60 0-110 0s-70-40-110 0c-10 10-10 60-15 65s-15 20-15 25z" class="headShave"/>
</g>
<g>
<path fill="none" stroke="#000" stroke-width="2" d="M235 285s10-10 45-10m-115 10s-10-10-45-10" class="eyeline6"/>
</g>
<g transform="scale(0.928 1) translate(15.517241379310335 0)">
<path fill="#e9c67b" fill-rule="evenodd" stroke="#000" d="M200 410c55 0 55 15 55 30 70 0 85-35 85-140h10c0 130-13.03 137.37-30 160-30 40-110 120-120 120s-90-80-120-120c-16.97-22.63-30-30-30-160h10c0 105 15 140 85 140 0-15 0-30 55-30Zm-45 30c0 20 5 30 25 30 10 0 10-10 20-10s10 10 20 10c20 0 25-10 25-30s-15-20-45-20-45 0-45 20Z" class="shp0"/>
</g>
<g transform="translate(98.84448468063304 285.57536672288046) rotate(-10 41.155515319366955 24.42463327711953)">
<path d="M73.67 39.73c3.92-10.47 2.35-25.38 2.35-25.38s-35.86-6.27-45.8-5.22c-9.95 1.04-24.34 7.59-24.34 7.59s-1.44 10.21 7.6 24.34z" style="fill:#fff"/><path d="M45.8 37.65c-4.13.43-8.17-5.88-9.04-14.13s1.76-15.27 5.89-15.71c4.12-.43 8.16 5.88 9.03 14.13s-1.76 15.27-5.88 15.71" style="fill:#000"/><path d="M73.67 39.73c4.45-5.49 2.35-25.38 2.35-25.38s-35.86-6.27-45.8-5.22c-9.95 1.04-24.34 7.59-24.34 7.59s1.57 14.92 7.6 24.34" style="fill:none;stroke:#000;stroke-width:5"/>
</g>
<g transform="translate(218.84448468063306 285.57536672288046) rotate(10 41.155515319366955 24.42463327711953) scale(-1 1) translate(-82.31103063873391 0)">
<path d="M73.67 39.73c3.92-10.47 2.35-25.38 2.35-25.38s-35.86-6.27-45.8-5.22c-9.95 1.04-24.34 7.59-24.34 7.59s-1.44 10.21 7.6 24.34z" style="fill:#fff"/><path d="M45.8 37.65c-4.13.43-8.17-5.88-9.04-14.13s1.76-15.27 5.89-15.71c4.12-.43 8.16 5.88 9.03 14.13s-1.76 15.27-5.88 15.71" style="fill:#000"/><path d="M73.67 39.73c4.45-5.49 2.35-25.38 2.35-25.38s-35.86-6.27-45.8-5.22c-9.95 1.04-24.34 7.59-24.34 7.59s1.57 14.92 7.6 24.34" style="fill:none;stroke:#000;stroke-width:5"/>
</g>
<g transform="translate(101.91746012211166 257.0658529346995) rotate(11 38.082539877888344 12.934147065300508)">
<path fill="#e9c67b" stroke="#000" d="M74.17 18.39c5.31-3.87-1.66-7.27-1.66-7.27s-20.66-2.78-26.56-3.1c-7.56-.72-22.76-1.1-22.76-1.1S10.98 10 18.3 16.95c10.59 2.96 14.71-1.32 31.19-.91 16.85.28 21.74 4.37 24.68 2.35Z"/><path d="M0 10h5v5H0z" style="fill:none"/>
</g>
<g transform="translate(221.91746012211166 257.0658529346995) rotate(-11 38.082539877888344 12.934147065300508) scale(-1 1) translate(-76.16507975577669 0)">
<path fill="#e9c67b" stroke="#000" d="M74.17 18.39c5.31-3.87-1.66-7.27-1.66-7.27s-20.66-2.78-26.56-3.1c-7.56-.72-22.76-1.1-22.76-1.1S10.98 10 18.3 16.95c10.59 2.96 14.71-1.32 31.19-.91 16.85.28 21.74 4.37 24.68 2.35Z"/><path d="M0 10h5v5H0z" style="fill:none"/>
</g>
<g transform="translate(160 425.5888888888889) scale(-1 1) translate(-80 0)">
<path d="M40 9C50 9 65-1 70 4s10 15 5 20-25 0-35 0-30 5-35 0S5 9 10 4s20 5 30 5Z" style="fill:#fff;stroke:#000;stroke-width:5"/>
</g>
<g transform="translate(-4.045739644970411 -18.272994788737606) scale(-1.24 1.24) translate(-368.5987554876885 -75.14961189459437)">
<path d="M180.17 380.08c1.6.3 3.5.1 4.8.9 4.7 2.8 9.2 6 13.8 9a10.23 10.23 0 0 0 11.7 0c3.9-2.5 7.8-5.1 11.7-7.6 1.6-1.1 3.3-2.2 5.7-3.8 0 2.1.4 3.4-.1 4.3-2.8 6.4-17.9 16.1-24.8 15-4-.6-8-2.8-11.3-5.3-4.3-3.3-7.8-7.5-11.6-11.4a4.5 4.5 0 0 0 .1-1.1"/>
</g>
<g transform="scale(-1 1) translate(-400 0) scale(0.928 1) translate(15.517241379310335 0)">
<path fill="#e9c67b" stroke="#000" stroke-width="4" d="M46.17 300C47.51 160.01 78.5 95.59 219.25 91.8c10 0 14.92.06 20.58 8.73 0 0 9.09-1.93 15.59-.93 82.33 40.7 101.33 87.2 101.33 227.2l-22-30S320 210 310 200l-110-12.14L90 200c-10.01 9.99-5.25 137.8-5.25 137.8l-30 31s-9-25.5-8.58-68.8Z" class="longHair"/><path fill="#e9c67b" d="M240 200c60-20 60 120 140 160-40-60-40-100-40-100s-7.25-100.2-107.25-100.2M73 309s7 51-53 71c120 20 80-240 220-180l11.25-39.2L100 160l-28.75 60" class="bangs"/><path fill="none" stroke="#000" stroke-width="4" d="M240 200c60-20 60 120 140 160-40-60-40-100-40-100M73 309s7 51-53 71c120 20 80-240 220-180" class="bangsLine"/>
</g>
</svg>