<svg xmlns="http://www.w3.org/2000/svg" version="1.2" baseProfile="tiny" width="100%" height="100%" viewBox="0 0 400 600" preserveAspectRatio="xMinYMin meet">
<g transform="scale(1 1) translate(0 0)">
<path fill="#ddb7a0" stroke="#000" stroke-width="6" d="M10 600s-10-65 50-65c5 0 25-15 70-35l70-200 70 200c45 20 65 35 70 35 60 0 50 65 50 65" class="body"/>
</g>
<g transform="scale(1 1) translate(0 0)">
<path fill="#89bfd3" stroke="#000" stroke-width="6" d="M120 505c0 35 50 25 80 45 30-20 80-10 80-45 30-25 90-15 100-5s10.07 20.41 15 50c5 30 5 20 5 60H0c0-40 0-29.59 5-59.59 4.93-29.59 5-39.38 15-50.41 9.5-10.48 70-20 100 5Z" class="footballPrimary"/><path fill="#7a1319" stroke="#000" stroke-width="2" d="M120 505c0 35 50 25 80 45 30-20 80-10 80-45l15-10c5 60-55 45-95 75-40-30-100-15-95-75z" class="collarSecondary"/><path fill="#7a1319" stroke="#000" stroke-width="2" d="M120 540c-40 26.67-60 80-60 80h40s0-53.33 20-80Zm160 0c40 26.67 60 80 60 80h-40s0-53.33-20-80Z" class="Stallion"/><path fill="none" stroke="#000" stroke-width="6" d="M120 505c0 35 50 25 80 45 30-20 80-10 80-45 30-25 90-15 100-5s10.07 20.41 15 50c5 30 5 20 5 60H0c0-40 0-30 5-60 4.93-29.59 5-38.97 15-50 9.5-10.48 70-20 100 5Z" class="footballStroke"/><path fill="none" stroke="#000" stroke-width="2" d="M19.5 570s72.5-2.11 81.5-20m280 20s-71-2.11-80-20" class="shp3"/>
</g>
<g transform="translate(33.53553390593274 291.01362954285077) scale(0.78 0.78) translate(6.054080180377945 9.585899359708755) translate(20.631067811865474 -2.979591836734694)">
<path fill="#ddb7a0" stroke="#000" stroke-width="6" d="M40 14S10-1 5 4s0 30 5 40-5 25 30 20z"/>
</g>
<g transform="translate(323.53553390593277 291.01362954285077) scale(-0.78 0.78) translate(-48.98301236851247 9.585899359708755) translate(20.631067811865474 -2.979591836734694)">
<path fill="#ddb7a0" stroke="#000" stroke-width="6" d="M40 14S10-1 5 4s0 30 5 40-5 25 30 20z"/>
</g>
<g transform="scale(0.8480000000000001 1) translate(35.84905660377356 0)">
<path fill="#ddb7a0" stroke="#000" stroke-width="6" d="M200 100c100 0 150 60 150 200 0 70-30 150-40 160s-60 40-110 40-100-30-110-40-40-90-40-160c0-140 50-200 150-200Z" class="head"/><path fill="rgba(0,0,0,0.08)" d="M200 410c30 0 50 10 50 10 30 0 90-15 90-120h10c0 70-30 150-40 160s-60 40-110 40-100-30-110-40-40-90-40-160h10c0 105 60 120 90 120 0 0 20-10 50-10" class="faceShave"/><path fill="rgba(0,0,0,0.08)" d="M60 300H50c0-140 50-200 150-200s150 60 150 200h-10v-10c0-5-10-20-15-25s-5-55-15-65c-40-40-60 0-110 0s-70-40-110 0c-10 10-10 60-15 65s-15 20-15 25z" class="headShave"/>
</g>
<g>
<path fill="none" stroke="#000" stroke-width="2" d="M220 270s-10 0-10-20m-30 20s10 0 10-20" class="eyeline1"/>
</g>
<g transform="translate(142.67 417.5) scale(1.02 1.02) translate(-0.14372549019607855 -0.34313725490196106)">
<path fill="none" stroke="#000" stroke-width="2" d="M12.33 4.32s-10 3.29-10 13.18 10 13.18 10 13.18" class="shp0"/>
</g>
<g transform="translate(242.67 417.5) scale(-1.02 1.02) translate(-14.516274509803921 -0.34313725490196106)">
<path fill="none" stroke="#000" stroke-width="2" d="M12.33 4.32s-10 3.29-10 13.18 10 13.18 10 13.18" class="shp0"/>
</g>
<g>
<path fill="none" stroke="#000" stroke-width="2" d="M170 235s15 0 30 5c15-5 30-5 30-5m-75-15s35 0 45 5c10-5 45-5 45-5"/>
</g>
<g transform="scale(0.8480000000000001 1) translate(35.84905660377356 0)">
<path fill="#D7BF91" stroke="#000" d="M220 480c10 0 30-5 30 0 0 20-30 30-50 30s-50-10-50-30c0-5 20 0 30 0z" class="shp0"/>
</g>
<g transform="translate(104.75510204081633 287) rotate(-9 35.24489795918368 23)">
<path d="M67 35c0-4 6-32-24-32S3 15 3 23s12 20 24 20 40-4 40-8Z" style="fill:#fff;stroke:#000;stroke-width:5"/><path d="M39 29c-3.32 0-6-2.68-6-6s2.68-6 6-6 6 2.68 6 6-2.68 6-6 6Z" style="fill:#000;stroke:#000;stroke-width:5"/>
</g>
<g transform="translate(224.75510204081633 287) rotate(9 35.24489795918368 23) scale(-1 1) translate(-70.48979591836736 0)">
<path d="M67 35c0-4 6-32-24-32S3 15 3 23s12 20 24 20 40-4 40-8Z" style="fill:#fff;stroke:#000;stroke-width:5"/><path d="M39 29c-3.32 0-6-2.68-6-6s2.68-6 6-6 6 2.68 6 6-2.68 6-6 6Z" style="fill:#000;stroke:#000;stroke-width:5"/>
</g>
<g transform="translate(97 257.6503955087335) rotate(9 43 12.349604491266511)">
<path fill="#D7BF91" stroke="#000" d="M83 13C83 3 73 3 73 3 48-2 17.46 8.36 3 18c40-5 50 5 75 5 0 0 5 0 5-10Z"/>
</g>
<g transform="translate(217 257.6503955087335) rotate(-9 43 12.349604491266511) scale(-1 1) translate(-86 0)">
<path fill="#D7BF91" stroke="#000" d="M83 13C83 3 73 3 73 3 48-2 17.46 8.36 3 18c40-5 50 5 75 5 0 0 5 0 5-10Z"/>
</g>
<g transform="translate(0 10) scale(-1 1) translate(-400 0)">
<path d="M180 430h40" style="fill:none;stroke:#000;stroke-width:5"/>
</g>
<g transform="translate(150.27785841680208 317.5) scale(-1.02 1.02) translate(-98.4693392137841 -1.0294117647058834)">
<path fill="#ddb7a0" stroke="#000" stroke-width="5" d="M36.03 47c-19.25.25-26.57 32.37-4.37 27.13 9-2.13 8.25 4.12 18.12 4.37 9.5.24 5.75-6.12 16.38-3.25 22.01 5.96 18.75-28-.21-28.02M50 55.6S51.25 45 51.25 35 50 5 50 5" class="nose"/><path d="M40 95h20v5H40z" style="fill:none"/>
</g>
<g transform="scale(0.8480000000000001 1) translate(35.84905660377356 0)">
<path fill="#D7BF91" stroke="#000" stroke-width="4" d="M46.17 300C47.51 160.01 78.5 95.59 219.25 91.8c10 0 14.92.06 20.58 8.73 0 0 9.09-1.93 15.59-.93 82.33 40.7 101.33 87.2 101.33 227.2l-22-30S320 210 310 200l-110-12.14L90 200c-10.01 9.99-5.25 137.8-5.25 137.8l-30 31s-9-25.5-8.58-68.8Z" class="longHair"/><path fill="#D7BF91" d="M240 200c60-20 60 120 140 160-40-60-40-100-40-100s-7.25-100.2-107.25-100.2M73 309s7 51-53 71c120 20 80-240 220-180l11.25-39.2L100 160l-28.75 60" class="bangs"/><path fill="none" stroke="#000" stroke-width="4" d="M240 200c60-20 60 120 140 160-40-60-40-100-40-100M73 309s7 51-53 71c120 20 80-240 220-180" class="bangsLine"/>
</g>
</svg>