<svg xmlns="http://www.w3.org/2000/svg" version="1.2" baseProfile="tiny" width="100%" height="100%" viewBox="0 0 400 600" preserveAspectRatio="xMinYMin meet">
<g transform="scale(1.01 1) translate(-1.980198019801982 0)">
<path fill="#f2d6cb" stroke="#000" stroke-width="6" d="M10 600s0-50 60-70 70-50 70-50l60-180 60 180s10 30 70 50 60 70 60 70" class="body"/>
</g>
<g transform="scale(1.01 1) translate(-1.980198019801982 0)">
<path fill="#89bfd3" stroke="#000" stroke-width="6" d="M120 505c0 35 50 25 80 45 30-20 80-10 80-45 30-25 90-15 100-5s10.07 20.41 15 50c5 30 5 20 5 60H0c0-40 0-29.59 5-59.59 4.93-29.59 5-39.38 15-50.41 9.5-10.48 70-20 100 5Z" class="footballPrimary"/><path fill="#7a1319" stroke="#000" stroke-width="2" d="M120 505c0 35 50 25 80 45 30-20 80-10 80-45l15-10c5 60-55 45-95 75-40-30-100-15-95-75z" class="collarSecondary"/><path fill="#7a1319" stroke="#000" stroke-width="2" d="m20 500 15 80 5-88.8-10 3.07zm360 0-15 80-5-88.8 10 3.07z" class="Sparta"/><path fill="none" stroke="#000" stroke-width="6" d="M120 505c0 35 50 25 80 45 30-20 80-10 80-45 30-25 90-15 100-5s10.07 20.41 15 50c5 30 5 20 5 60H0c0-40 0-30 5-60 4.93-29.59 5-38.97 15-50 9.5-10.48 70-20 100 5Z" class="footballStroke"/><path fill="none" stroke="#000" stroke-width="2" d="M19.5 570s72.5-2.11 81.5-20m280 20s-71-2.11-80-20" class="shp3"/>
</g>
<g transform="translate(32 290.6) scale(0.56 0.56) translate(18.07142857142857 27.02857142857143) translate(26.45 -3)">
<path fill="#f2d6cb" stroke="#000" stroke-width="6" d="M43 13S23 3 13 3 3 23 3 33s3 20 13 30 27-10 27-10z"/>
</g>
<g transform="translate(322 290.6) scale(-0.56 0.56) translate(-64.07142857142857 27.02857142857143) translate(26.45 -3)">
<path fill="#f2d6cb" stroke="#000" stroke-width="6" d="M43 13S23 3 13 3 3 23 3 33s3 20 13 30 27-10 27-10z"/>
</g>
<g transform="scale(0.81 1) translate(46.91358024691356 0)">
<path fill="#f2d6cb" stroke="#000" stroke-width="6" d="M200 100c100 0 150 60 150 200 0 70-50 200-150 200S50 370 50 300c0-140 50-200 150-200Z" class="head"/><path fill="rgba(0,0,0,0)" d="M200 410c30 0 50 10 50 10 30 0 90-15 90-120h10c0 70-50 200-150 200S50 370 50 300h10c0 105 60 120 90 120 0 0 20-10 50-10" class="faceShave"/><path fill="rgba(0,0,0,0)" d="M60 300H50c0-140 50-200 150-200s150 60 150 200h-10v-10c0-5-10-20-15-25s-5-55-15-65c-40-40-60 0-110 0s-70-40-110 0c-10 10-10 60-15 65s-15 20-15 25z" class="headShave"/>
</g>
<g transform="scale(0.81 1) translate(46.91358024691356 0)">
<path fill="#D7BF91" fill-rule="evenodd" stroke="#000" d="M60 300H50s-10 70 10 130c10 20 60 70 120 70 10 0-30-28.8-30-50 0-20 10-20 10-30s-30 30-70-10c-20-20-30-80-30-110Zm250 110c-40 40-70 0-70 10s10 10 10 30c0 21.2-40 50-30 50 60 0 110-50 120-70 20-60 10-130 10-130h-10c0 30-10 90-30 110Z" class="shp0"/><path fill="#D7BF91" stroke="#000" d="M175 485s10-5 25-5 25 5 25 5c-15 30-15 45-15 45l-5-10-5 20-5-20-5 10s0-15-15-45Zm13-27c2-2 22-2 24 0s-8 16-12 16-14-14-12-16Zm-38-33c-5-5 25-20 35-20 5 0 10 5 15 5s10-5 15-5c10 0 40 15 35 20s-5-5-50-5-45 10-50 5Z" class="shp0"/>
</g>
<g transform="translate(109.23478204917245 289.9689533323849) rotate(-9 30.765217950827548 20.031046667615087)">
<path d="M55.37 34.72S58.4 2.3 28.53 5.07C-1.35 7.83 7.21 35.16 7.21 35.16" style="fill:#fff;stroke:#000;stroke-width:5"/><path d="M30.74 28.97c-3.31.3-6.22-2.12-6.53-5.43a5.985 5.985 0 0 1 5.42-6.52 5.987 5.987 0 0 1 6.53 5.42c.3 3.3-2.12 6.22-5.42 6.53Z" style="fill:#000;stroke:#000;stroke-width:5"/>
</g>
<g transform="translate(229.23478204917245 289.9689533323849) rotate(9 30.765217950827548 20.031046667615087) scale(-1 1) translate(-61.530435901655096 0)">
<path d="M55.37 34.72S58.4 2.3 28.53 5.07C-1.35 7.83 7.21 35.16 7.21 35.16" style="fill:#fff;stroke:#000;stroke-width:5"/><path d="M30.74 28.97c-3.31.3-6.22-2.12-6.53-5.43a5.985 5.985 0 0 1 5.42-6.52 5.987 5.987 0 0 1 6.53 5.42c.3 3.3-2.12 6.22-5.42 6.53Z" style="fill:#000;stroke:#000;stroke-width:5"/>
</g>
<g transform="translate(105 260.3333333333333) rotate(-7 35 9.66666666666667)">
<path fill="#D7BF91" stroke="#000" d="M67 17c3-3 0-12 0-12H39C29 5 3 1 3 1S0 14 3 17s26 0 36 0 25 3 28 0Z"/>
</g>
<g transform="translate(225 260.3333333333333) rotate(7 35 9.66666666666667) scale(-1 1) translate(-70 0)">
<path fill="#D7BF91" stroke="#000" d="M67 17c3-3 0-12 0-12H39C29 5 3 1 3 1S0 14 3 17s26 0 36 0 25 3 28 0Z"/>
</g>
<g transform="translate(168 428.3888888888889)">
<path d="M32 3c10 0 15 0 25 5 5 5 5 5 0 10s-15 0-25 0-20 5-25 0-5-5 0-10c10-5 15-5 25-5Z" style="fill:#fff;stroke:#000;stroke-width:5"/>
</g>
<g transform="translate(168.19198795027955 347.310851842392) scale(-0.53 0.53) translate(-91.82312912466466 20.12056534731275)">
<path fill="#f2d6cb" stroke="#000" stroke-width="5" d="m28 1 16.043 32.815s.75 10.848-18.228 10.417c-4.731-.107-4.624.436-6.246-.08" class="nose" transform="matrix(1 0 -.07193 1 2.942 .274)"/>
</g>
<g transform="scale(-1 1) translate(-400 0) scale(0.81 1) translate(46.91358024691356 0)">
<path fill="#D7BF91" stroke="#000" stroke-width="4" d="M46.17 300C47.51 160.01 78.5 95.59 219.25 91.8c10 0 14.92.06 20.58 8.73 0 0 9.09-1.93 15.59-.93 82.33 40.7 101.33 87.2 101.33 227.2l-22-30S320 210 310 200l-110-12.14L90 200c-10.01 9.99-5.25 137.8-5.25 137.8l-30 31s-9-25.5-8.58-68.8Z" class="longHair"/><path fill="#D7BF91" d="M240 200c60-20 60 120 140 160-40-60-40-100-40-100s-7.25-100.2-107.25-100.2M73 309s7 51-53 71c120 20 80-240 220-180l11.25-39.2L100 160l-28.75 60" class="bangs"/><path fill="none" stroke="#000" stroke-width="4" d="M240 200c60-20 60 120 140 160-40-60-40-100-40-100M73 309s7 51-53 71c120 20 80-240 220-180" class="bangsLine"/>
</g>
</svg>