<svg xmlns="http://www.w3.org/2000/svg" version="1.2" baseProfile="tiny" width="100%" height="100%" viewBox="0 0 400 600" preserveAspectRatio="xMinYMin meet">
<g transform="scale(0.95 1) translate(10.526315789473694 0)">
<path fill="#f2d6cb" stroke="#000" stroke-width="6" d="M10 600s-10-65 50-65c5 0 25-15 70-35l70-200 70 200c45 20 65 35 70 35 60 0 50 65 50 65" class="body"/>
</g>
<g transform="scale(0.95 1) translate(10.526315789473694 0)">
<path fill="#89bfd3" stroke="#000" stroke-width="6" d="M120 505c0 35 50 25 80 45 30-20 80-10 80-45 30-25 90-15 100-5s10.07 20.41 15 50c5 30 5 20 5 60H0c0-40 0-29.59 5-59.59 4.93-29.59 5-39.38 15-50.41 9.5-10.48 70-20 100 5Z" class="footballPrimary"/><path fill="#7a1319" stroke="#000" stroke-width="2" d="M120 505c0 35 50 25 80 45 30-20 80-10 80-45l15-10c5 60-55 45-95 75-40-30-100-15-95-75z" class="collarSecondary"/><path fill="#7a1319" stroke="#000" stroke-width="2" d="M120 540c-40 26.67-60 80-60 80h40s0-53.33 20-80Zm160 0c40 26.67 60 80 60 80h-40s0-53.33-20-80Z" class="Stallion"/><path fill="none" stroke="#000" stroke-width="6" d="M120 505c0 35 50 25 80 45 30-20 80-10 80-45 30-25 90-15 100-5s10.07 20.41 15 50c5 30 5 20 5 60H0c0-40 0-30 5-60 4.93-29.59 5-38.97 15-50 9.5-10.48 70-20 100 5Z" class="footballStroke"/><path fill="none" stroke="#000" stroke-width="2" d="M19.5 570s72.5-2.11 81.5-20m280 20s-71-2.11-80-20" class="shp3"/>
</g>
<g transform="translate(33.53553390593274 291.01362954285077) scale(1.26 1.26) translate(-4.429175543220229 -7.013060570522856) translate(25.591067811865475 -2.979591836734694)">
<path fill="#f2d6cb" stroke="#000" stroke-width="6" d="M40 14S10-1 5 4s0 30 5 40-5 25 30 20z"/>
</g>
<g transform="translate(323.53553390593277 291.01362954285077) scale(-1.26 1.26) translate(-38.49975664491429 -7.013060570522856) translate(25.591067811865475 -2.979591836734694)">
<path fill="#f2d6cb" stroke="#000" stroke-width="6" d="M40 14S10-1 5 4s0 30 5 40-5 25 30 20z"/>
</g>
<g transform="scale(0.8160000000000001 1) translate(45.098039215686256 0)">
<path fill="#f2d6cb" stroke="#000" stroke-width="6" d="M200 100c100 0 150 60 150 200 0 160-80 170-100 190-10 10-30 20-50 10-20 10.9-40 0-50-10-20-20-100-30-100-190 0-140 50-200 150-200Z" class="head"/><path fill="rgba(0,0,0,0)" d="M60 300H50c0-140 50-200 150-200s150 60 150 200h-10v-10c0-5-10-20-15-25s-5-55-15-65c-40-40-60 0-110 0s-70-40-110 0c-10 10-10 60-15 65s-15 20-15 25z" class="headShave"/><path fill="rgba(0,0,0,0)" d="M200 410c30 0 50 10 50 10 30 0 90-15 90-120h10c0 160-80 170-100 190-10 10-30 20-50 10-20 10-40 0-50-10-20-20-100-30-100-190h10c0 105 60 120 90 120 0 0 20-10 50-10" class="faceShave"/>
</g>
<g>
<path fill="none" stroke="#000" stroke-width="2" d="M300 320s5 5 10 5m-13.25-2.47S300 335 305 335m-205-15s-5 5-10 5m13.25-2.47S100 335 95 335" class="eyeline2"/>
</g>
<g transform="translate(147 424.5) scale(1.57 1.57) translate(-1.089171974522293 -3.8121019108280256)">
<path fill="none" stroke="#000" stroke-width="2" d="m0 20 6-10-6-9" class="shp0"/>
</g>
<g transform="translate(247 424.5) scale(-1.57 1.57) translate(-4.9108280254777075 -3.8121019108280256)">
<path fill="none" stroke="#000" stroke-width="2" d="m0 20 6-10-6-9" class="shp0"/>
</g>
<g>
<path fill="none" stroke="#000" stroke-width="2" d="M200 467.37V480"/>
</g>
<g transform="scale(0.8160000000000001 1) translate(45.098039215686256 0)">
<path fill="#CC9966" stroke="#000" d="M175 485s10-5 25-5 25 5 25 5c-15 30-15 45-15 45l-5-10-5 20-5-20-5 10s0-15-15-45Zm-25-60c-5-5 25-20 35-20 5 0 10 5 15 5s10-5 15-5c10 0 40 15 35 20s-5-5-50-5-45 10-50 5Zm38 33c2-2 22-2 24 0s-8 16-12 16-14-14-12-16Z" class="shp0"/>
</g>
<g transform="translate(102.24084342899988 286.1384650016032) rotate(13 37.759156571000126 23.861534998396785)">
<path d="M5 20s12.08-8.23 35-8.23S70 30 70 30s-7.15 9.92-30.07 9.92S5 20 5 20" style="fill:#f5f3ee"/><path d="M5 20c-2.87-2.87 12.2-9.55 35-11.9C70 5 72.87 27.13 70 30s-7.08-13.73-30-13.73S7.87 22.87 5 20" class="black"/><path d="M39.93 33.04c-6.34 0-11.46-5.12-11.46-11.46 0-6.33 5.12-11.46 11.46-11.46s11.46 5.13 11.46 11.46c0 6.34-5.12 11.46-11.46 11.46" class="black"/>
</g>
<g transform="translate(222.24084342899988 286.1384650016032) rotate(-13 37.759156571000126 23.861534998396785) scale(-1 1) translate(-75.51831314200025 0)">
<path d="M5 20s12.08-8.23 35-8.23S70 30 70 30s-7.15 9.92-30.07 9.92S5 20 5 20" style="fill:#f5f3ee"/><path d="M5 20c-2.87-2.87 12.2-9.55 35-11.9C70 5 72.87 27.13 70 30s-7.08-13.73-30-13.73S7.87 22.87 5 20" class="black"/><path d="M39.93 33.04c-6.34 0-11.46-5.12-11.46-11.46 0-6.33 5.12-11.46 11.46-11.46s11.46 5.13 11.46 11.46c0 6.34-5.12 11.46-11.46 11.46" class="black"/>
</g>
<g transform="translate(101.88888888888889 257) rotate(0 38.111111111111114 13)">
<path fill="#CC9966" stroke="#000" d="M71 17c8-8 0-12 0-12S43 9 35 9C25 9 7 1 7 1S-5 5 7 17c8 8 8 8 28 8s33-5 36-8Z"/>
</g>
<g transform="translate(221.88888888888889 257) rotate(0 38.111111111111114 13) scale(-1 1) translate(-76.22222222222223 0)">
<path fill="#CC9966" stroke="#000" d="M71 17c8-8 0-12 0-12S43 9 35 9C25 9 7 1 7 1S-5 5 7 17c8 8 8 8 28 8s33-5 36-8Z"/>
</g>
<g transform="translate(-0.125 48.766108367626885)">
<path d="M168 384s9-13.77 32-14.03c17.4-.2 32 13.2 32 13.2s-4.29 28.26-32 28.83c-27.29.56-32-28-32-28" style="opacity:.05;mix-blend-mode:multiply;fill:#501414"/><path d="M168 384c12-4 48-4 64 0-8 8-10 16-32 16-20 0-24-8-32-16Z" style="fill:#000;stroke:#000"/><path d="M168 384c14.08-5.73 53.75-3.73 64.25.6-20 4.67-30.5 2-30.5 2l.17-5.17-4.67-.33.17 5.17S184 388 168 384m4.42 6.6s21.58 3.17 27.58 3.17 26.92-3 26.92-3S216 400 200 400c-12 0-27.58-9.4-27.58-9.4" style="fill:#fff"/><path d="M168 384c12-4 48-4 64 0-8 8-10 16-32 16-20 0-24-8-32-16Zm16 24c12 6 20 6 32 0" style="fill:none;stroke:#000;stroke-width:4"/>
</g>
<g transform="translate(0 -20) scale(0.53 0.53) translate(177.35849056603772 345.84905660377353)">
<path fill="#f2d6cb" stroke="#000" stroke-width="5" d="m175 380 25 20 25-20" class="nose"/>
</g>
<g transform="scale(0.8160000000000001 1) translate(45.098039215686256 0)">
<defs><linearGradient id="a" x1="200" x2="200" y1="100" y2="310" gradientUnits="userSpaceOnUse"><stop offset="0" stop-color="rgba(0,0,0,.25)"/><stop offset="1" stop-color="rgba(0,0,0,0)"/></linearGradient></defs><g style="display:inline"><path d="M60 310H50v-10c0-140 50-200 150-200s150 60 150 200v10h-10v-20c0-5-10-20-15-25s-5-55-15-65c-40-40-56.429-38.095-106.429-38.095S130 160 90 200c-10 10-10 60-15 65s-15 20-15 25z" class="short_fade" style="display:inline;opacity:1;fill:url(#a);stroke:none;stroke-width:1;stroke-miterlimit:4;stroke-dasharray:none"/></g><path fill="#CC9966" stroke="#000" stroke-width="3.787" d="M176.958 80.33c-1.666.356-3.656.694-4.42 1.005-.765.32-2.055.284-4.153.686s-4.817-.357-5.767.356c-.961.723-4.673-1.601-5.58 1.436-1.52.302-5.92-1.098-8.743-.275-2.813.832-5.969 2.177-6.978 2.973-1.03.814-2.96 1.857-4.303 2.332-1.353.467-3.078.714-3.842.54-.755-.174-3.004-1.702-4.739-1.09-1.735.623-3.73 3.203-4.69 3.432-.96.219-3.273-1.108-4.636-.394-1.362.722-2.397 3.27-2.745 3.43-2.989 1.372-1.8.579-2.989 1.372a31 31 0 0 1-2.656 1.381c-.05-.263-4.43-2.651-4.968.476-2.855.459-4.32 1.567-4.015 2.972-.94.796-2.85-1.446-2.802 2.543-2.752 1.235-1.103 2.36-4.573 2.232-3.087-.119-4.077-.32-5.01 3.495-1.754 1.034-4.017 2.314-4.34 3.53-.265.989-.564 3.211-1.437 5.196-5.571 1.426-2.372 6.34-7.36 10.364-3.157 2.561-1.891 5.497-3.489 6.741-2.087 1.637-3.748 11.4-4.287 13.184-.421 1.372-.966 8.114-1.896 12.835-2.045 9.632-1.918 6.557-2.956 12.805-.414 6.977-1.54 6.943-2.291 14.791-1.65 9.93-4.07 25.692-4.154 27.305 13.07-1.575 15.468-.457 24.767-.598 2.688-7.24 12.988-17.017 31.388-17.386 26.676-.176 68.995.364 90.96.39 24.425-.18 49.48.895 73.733 1.779 17.401.59 34.288 6.477 39.775 16.265 11.669-1.34 14.105.89 24.676.232-.985-8.536-3.087-26.773-4.306-32.295-1.13-4.084-.635-7.333-2.476-10.758-1.328-6.785-1.608-7.98-2.868-15.269-2.678-8.718-1.723-10.969-2.993-12.874-.233-2.265-.107-4.023-.46-5.542-.412-1.838.209-3.338-1.056-4.445-1.078-.942-1.311-1.855-1.615-3.108-.304-1.226-.204-2.203-1.027-2.899-.833-.695-.944-4.649-2.032-5.024-1.068-.384-1.228-1.815-1.522-2.556.241-1.258-1.467-2.26-2.04-2.95-.783-.944-2.675-1.546-4.297-1.889-.296-1.7-1.162-2.397-2.55-3.613-.334-.924-3.588-2.054-5.303-3.426-1.725-1.372-1.592-4.738-5.192-4.948-1.705-1.464-5.55-2.973-5.55-2.973s-1.223-4.135-4.705-4.199c-1.93-1.61-3.95-3.522-7.028-4.519-2.509-.795-6.032-.191-7.571-.438-1.53-.247-2.365-4.291-6.439-2.296-1.529-.33-4.156-.073-4.156-.073-.97-.768-2.156-1.39-2.646-1.4-.47-.008-1.49.641-2.755-.612-3.09-2.418-4.237-.164-6.76-1.152-1.068-.42-4.008-2.223-6.606-2.214-4.626.01-4.734 1.446-8.017-1.033-2.666-2.012-5.237 1.721-7.05 1.804-1.814.082-2.794-.348-5.038-2.196-2.313-1.902-3.245-2.295-5.558-2.332-1.911-.028-3.371.347-4.724 1.216-1.94 1.263-1.96 1.263-2.842.156-.48-.604-2.568-1.683-4.636-2.397l-5.428.175-4.903.84c-5.92-2.057-7.581-1.16-10.61-.877-2.097.201-6.002 1.19-7.384.906a656 656 0 0 1-5.337-1.126z"/>
</g>
</svg>