<svg xmlns="http://www.w3.org/2000/svg" version="1.2" baseProfile="tiny" width="100%" height="100%" viewBox="0 0 400 600" preserveAspectRatio="xMinYMin meet">
<g transform="scale(1.02 1) translate(-3.921568627450984 0)">
<path fill="#ddb7a0" stroke="#000" stroke-width="6" d="M10 600s-10-70 50-70c10 0 0-10 60-20 0 0 50-210 80-210s80 210 80 210c60 10 50 20 60 20 60 0 50 70 50 70"/><path d="M71 545s46.9-3 82.1 10M329 545s-46.9-3-82.1 10m77.1-18s5.5-7.5 22-7m-271 7s-5.5-7.5-22-7"/>
</g>
<g transform="scale(1.02 1) translate(-3.970588235294121 0)">
<g stroke="#000"><path fill="#7a1319" stroke-width="3" d="M120 505s35 40 80 40 80-40 80-40v95H120z" class="s0"/><path fill="#89bfd3" stroke-width="6" d="M120 504.6c10 45.4 80 55.4 90 65.4s10 40 10 40H-5s5-40 5-50 10-30 40-40 50 0 80-15.4z" class="s0"/><path fill="#89bfd3" stroke-width="6" d="M360 520c30 10 40 30 40 40s10 50 10 50H180s0-40 10-50 80-10 90-55c30 15 50 5 80 15z" class="s0"/><path fill="#89bfd3" stroke-width="1.5" d="M196 597c-2.8 0-5-2.2-5-5s2.2-5 5-5 5 2.2 5 5-2.2 5-5 5zm-2-5h1m2 0h1" class="s1"/></g><g fill="none" stroke="#000" stroke-width="6"><path d="M120 504.6c6.9 37.6 62.2 49.3 67.9 57-7.8 11.2-8 48.4-8 48.4H-5s5-40 5-50 10-30 40-40 50 0 80-15.4z" class="s5"/><path d="M360 520c30 10 40 30 40 40s10 50 10 50H180s0-40 10-50 80-10 90-55c30 15 50 5 80 15z" class="s5"/></g>
</g>
<g transform="translate(32 290.6) scale(0.56 0.56) translate(18.07142857142857 27.02857142857143) translate(1.0300000000000002 -3)">
<path fill="#ddb7a0" stroke="#000" stroke-width="6" d="M43 13S23 3 13 3 3 23 3 33s3 20 13 30 27-10 27-10z"/>
</g>
<g transform="translate(322 290.6) scale(-0.56 0.56) translate(-64.07142857142857 27.02857142857143) translate(1.0300000000000002 -3)">
<path fill="#ddb7a0" stroke="#000" stroke-width="6" d="M43 13S23 3 13 3 3 23 3 33s3 20 13 30 27-10 27-10z"/>
</g>
<g transform="scale(0.9740000000000001 1) translate(5.338809034907579 0)">
<path fill="#ddb7a0" stroke="#000" stroke-width="6" d="M200 100c100 0 150 60 150 200-10 160-10 110-100 180-10 10-30 20-50 20s-40-10-50-20c-90-70-90-20-100-180 0-140 50-200 150-200Z" class="head"/><path fill="rgba(0,0,0,0)" d="M60 300H50c0-140 50-200 150-200s150 60 150 200h-10v-10c0-5-10-20-15-25s-5-55-15-65c-40-40-60 0-110 0s-70-40-110 0c-10 10-10 60-15 65s-15 20-15 25z" class="headShave"/><path fill="rgba(0,0,0,0)" d="M200 410c30 0 50 10 50 10 30 0 90-15 90-120h10c-10 160-10 110-100 180-11.16 8.68-30 20-50 20s-38.84-11.32-50-20c-90-70-90-20-100-180h10c0 105 60 120 90 120 0 0 20-10 50-10" class="faceShave"/>
</g>
<g>
<path fill="none" stroke="#000" stroke-width="2" d="M300 320s5 5 10 5m-13.25-2.47S300 335 305 335m-205-15s-5 5-10 5m13.25-2.47S100 335 95 335" class="eyeline2"/>
</g>
<g transform="translate(147 424.5) scale(0.49 0.49) translate(3.122448979591837 10.928571428571429)">
<path fill="none" stroke="#000" stroke-width="2" d="m0 20 6-10-6-9" class="shp0"/>
</g>
<g transform="translate(247 424.5) scale(-0.49 0.49) translate(-9.122448979591836 10.928571428571429)">
<path fill="none" stroke="#000" stroke-width="2" d="m0 20 6-10-6-9" class="shp0"/>
</g>
<g transform="translate(101.97070870858956 282.01425559511955) rotate(12 38.029291291410445 27.98574440488045)">
<path d="m6.19 40.49-.83-22.07s2.27-3.87 17.09.22c29.93 8.26 42.45 4.47 42.45 4.47l6.04 11.72s-7.05.61-29.88 2.61c-22.84 2-34.87 3.05-34.87 3.05" style="fill:#f5f3ee"/><path d="M38.86 36.14c-4.51.39-8.55-3.74-9.03-9.25s2.83-7.08 7.34-7.48c4.52-.39 8.51.54 8.99 6.05s-2.78 10.28-7.3 10.68" style="fill:#000"/><path d="M6.19 40.49S2.41 12.46 9.05 15.75c10.49 5.2 55.85 7.36 55.85 7.36l6.04 11.72" style="fill:none;stroke:#000;stroke-width:6"/>
</g>
<g transform="translate(221.97070870858954 282.01425559511955) rotate(-12 38.029291291410445 27.98574440488045) scale(-1 1) translate(-76.05858258282089 0)">
<path d="m6.19 40.49-.83-22.07s2.27-3.87 17.09.22c29.93 8.26 42.45 4.47 42.45 4.47l6.04 11.72s-7.05.61-29.88 2.61c-22.84 2-34.87 3.05-34.87 3.05" style="fill:#f5f3ee"/><path d="M38.86 36.14c-4.51.39-8.55-3.74-9.03-9.25s2.83-7.08 7.34-7.48c4.52-.39 8.51.54 8.99 6.05s-2.78 10.28-7.3 10.68" style="fill:#000"/><path d="M6.19 40.49S2.41 12.46 9.05 15.75c10.49 5.2 55.85 7.36 55.85 7.36l6.04 11.72" style="fill:none;stroke:#000;stroke-width:6"/>
</g>
<g transform="translate(108.86892922080625 258.70179368409975) rotate(11 31.131070779193745 11.298206315900256)">
<path fill="#CC9966" stroke="#000" d="M22.1 6.48c-.96.74-2.71 2.33-3.9 3.5-1.23 1.17-2.47 2.63-2.7 3.13-.23.52-.26.96-.05.96.2 0 3.06-1.05 6.01-1.65 2.72-.11 6.42.27 8.3.66 1.87.43 6.07 1.67 9.35 2.77 3.39 1.08 7.94 2.5 10.06 3.19 2.23.61 5.3 1.02 6.7.99 1.43-.06 3.53-.35 4.62-.61 1.68-.41 1.9-.62 1.72-1.65-.12-.91-.85-1.63-2.76-2.9-1.36-1-4.3-2.66-6.56-3.72-2.26-1.13-6.33-3.1-9.03-4.35-2.71-1.31-7.02-3.02-9.57-3.73-3.6-.81-5.24-.65-7.53.51-1.61.77-3.71 2.09-4.66 2.9Z"/><path d="M0 10h5v5H0z" style="fill:none"/>
</g>
<g transform="translate(228.86892922080625 258.70179368409975) rotate(-11 31.131070779193745 11.298206315900256) scale(-1 1) translate(-62.26214155838749 0)">
<path fill="#CC9966" stroke="#000" d="M22.1 6.48c-.96.74-2.71 2.33-3.9 3.5-1.23 1.17-2.47 2.63-2.7 3.13-.23.52-.26.96-.05.96.2 0 3.06-1.05 6.01-1.65 2.72-.11 6.42.27 8.3.66 1.87.43 6.07 1.67 9.35 2.77 3.39 1.08 7.94 2.5 10.06 3.19 2.23.61 5.3 1.02 6.7.99 1.43-.06 3.53-.35 4.62-.61 1.68-.41 1.9-.62 1.72-1.65-.12-.91-.85-1.63-2.76-2.9-1.36-1-4.3-2.66-6.56-3.72-2.26-1.13-6.33-3.1-9.03-4.35-2.71-1.31-7.02-3.02-9.57-3.73-3.6-.81-5.24-.65-7.53.51-1.61.77-3.71 2.09-4.66 2.9Z"/><path d="M0 10h5v5H0z" style="fill:none"/>
</g>
<g transform="translate(-1.2900000000000205 20.56000000000006) scale(-1 1) translate(-402.58000000000004 0)">
<path d="M198.19 431.84c-7.3-1.3-14.7-2.5-22-3.9a67 67 0 0 1-10.6-3c-4.5-1.6-8.6-3.4-11.8 2.2-.5.9-3.1.6-4.7.9.2-1.5-.1-3.2.6-4.5 2.2-4.6 4.6-9.1 7.1-13.5.7-1.2 2.1-2.1 3.2-3.1.6 1.4 1.7 2.8 1.6 4.1a53.4 53.4 0 0 1-1.7 8.1c27.8 8.4 55.3 8.3 83.4.2-.1-1.3-.2-2.8-.2-4.2s.2-2.8.5-5.8c2 2.2 3.2 3.2 3.9 4.5 2 3.8 4 7.6 5.7 11.6.5 1.2.2 2.7.3 4-1.5-.2-3.3.1-4.4-.7-1.6-1.1-2.6-2.9-3.3-3.6-12.7 2.3-24.7 4.6-36.8 6.8-3.5-.1-7.1-.1-10.8-.1"/>
</g>
<g transform="translate(150.27785841680208 317.5) scale(0.65 0.65) translate(26.77346085249118 28.269230769230766)">
<path fill="#ddb7a0" stroke="#000" stroke-width="5" d="M36.03 47c-19.25.25-26.57 32.37-4.37 27.13 9-2.13 8.25 4.12 18.12 4.37 9.5.24 5.75-6.12 16.38-3.25 22.01 5.96 18.75-28-.21-28.02M50 55.6S51.25 45 51.25 35 50 5 50 5" class="nose"/><path d="M40 95h20v5H40z" style="fill:none"/>
</g>
<g transform="scale(0.9740000000000001 1) translate(5.338809034907579 0)">
<path fill="#CC9966" stroke="#000" stroke-width="4" d="M60 310H50v-10c0-140 50-200 150-200s150 60 150 200v10h-10v-20c0-5-10-20-15-25s-15-55-15-65c0-56.57-60-95-110-95S90 143.43 90 200c0 10-10 60-15 65s-15 20-15 25z"/>
</g>
</svg>