<svg xmlns="http://www.w3.org/2000/svg" version="1.2" baseProfile="tiny" width="100%" height="100%" viewBox="0 0 400 600" preserveAspectRatio="xMinYMin meet">
<g transform="scale(1.04 1) translate(-7.692307692307699 0)">
<path fill="#ddb7a0" stroke="#000" stroke-width="6" d="M10 600s-10-70 50-70c10 0 0-10 60-20 0 0 50-210 80-210s80 210 80 210c60 10 50 20 60 20 60 0 50 70 50 70"/><path d="M71 545s46.9-3 82.1 10M329 545s-46.9-3-82.1 10m77.1-18s5.5-7.5 22-7m-271 7s-5.5-7.5-22-7"/>
</g>
<g transform="scale(1.04 1) translate(-7.692307692307699 0)">
<path d="M120 505c0 35 50 25 80 45 30-20 80-10 80-45 30-25 90-15 100-5s10.07 20.41 15 50c5 30 5 20 5 60H0c0-40 0-29.59 5-59.59 4.93-29.59 5-39.38 15-50.41 9.5-10.48 70-20 100 5Z" style="fill:#fff;fill-rule:nonzero;stroke:#000;stroke-width:6px"/><path d="M388.812 518.932c-.419-3.338 2.794 10.698 6.188 31.068 5 30 5 20 5 60h-57.163z" style="fill:#89bfd3" transform="matrix(-1 0 0 1 400.837 0)"/><path d="M388.812 518.932c-.419-3.338 2.794 10.698 6.188 31.068 5 30 5 20 5 60h-57.163z" style="fill:#89bfd3"/><path d="M28.441 497.904 57.812 610.86l-46.409-91.928c1.742-13.878 7.068-21.504 17.038-21.028" style="fill:#7a1319;stroke:#000;stroke-width:1px;stroke-linecap:round;stroke-linejoin:round;stroke-miterlimit:1.5"/><path d="M28.441 497.904 57.812 610.86l-46.409-91.928c1.742-13.878 7.068-21.504 17.038-21.028" style="fill:#7a1319;stroke:#000;stroke-width:1px;stroke-linecap:round;stroke-linejoin:round;stroke-miterlimit:1.5" transform="matrix(-1 0 0 1 400.215 0)"/><path d="M120 505c0 35 50 25 80 45 30-20 80-10 80-45l15-10c5 60-55 45-95 75-40-30-100-15-95-75z" style="fill:#89bfd3;fill-rule:nonzero;stroke:#000;stroke-width:2px"/><path d="M120 505c0 35 50 25 80 45 30-20 80-10 80-45 30-25 90-15 100-5s10.07 20.41 15 50c5 30 5 20 5 60H0c0-40 0-30 5-60 4.93-29.59 5-38.97 15-50 9.5-10.48 70-20 100 5Z" style="fill:none;fill-rule:nonzero;stroke:#000;stroke-width:6px"/><path d="M19.5 570s72.5-2.11 81.5-20m280 20s-71-2.11-80-20" style="fill:none;fill-rule:nonzero;stroke:#000;stroke-width:2px"/>
</g>
<g transform="translate(33.53553390593274 291.01362954285077) scale(0.58 0.58) translate(15.543234068117675 24.610819986211514) translate(10.091067811865477 -2.979591836734694)">
<path fill="#ddb7a0" stroke="#000" stroke-width="6" d="M40 14S10-1 5 4s0 30 5 40-5 25 30 20z"/>
</g>
<g transform="translate(323.53553390593277 291.01362954285077) scale(-0.58 0.58) translate(-58.4721662562522 24.610819986211514) translate(10.091067811865477 -2.979591836734694)">
<path fill="#ddb7a0" stroke="#000" stroke-width="6" d="M40 14S10-1 5 4s0 30 5 40-5 25 30 20z"/>
</g>
<g transform="scale(0.916 1) translate(18.340611353711783 0)">
<path fill="#ddb7a0" stroke="#000" stroke-width="6" d="M200 100c100 0 150 60 150 200 0 0-5.15 110.6-10 130-5 20-60 70-140 70S65 450 60 430c-4.85-19.4-10-130-10-130 0-140 50-200 150-200Z" class="head"/><path fill="rgba(0,0,0,0)" d="M60 300H50c0-140 50-200 150-200s150 60 150 200h-10v-10c0-5-10-20-15-25s-5-55-15-65c-40-40-60 0-110 0s-70-40-110 0c-10 10-10 60-15 65s-15 20-15 25z" class="headShave"/><path fill="rgba(0,0,0,0)" d="M200 410c30 0 50 10 50 10 30 0 90-15 90-120h10s0 80-10 130c-5 20-60 70-140 70S65 450 60 430c-10-50-10-130-10-130h10c0 105 60 120 90 120 0 0 20-10 50-10" class="faceShave"/>
</g>
<g>
<path fill="none" stroke="#000" stroke-width="2" d="M240 340s25 10 40 0m-120 0s-25 10-40 0" class="eyeline4"/>
</g>
<g>
<path fill="none" stroke="#000" stroke-width="2" d="M200 270v-15l5-5-5 5-5-5m-25-15s15 0 30 5c15-5 30-5 30-5m-75-15s35 0 45 5c10-5 45-5 45-5"/>
</g>
<g transform="scale(0.916 1) translate(18.340611353711783 0)">
<path fill="#CC9966" stroke="#000" d="M200 450c20 0 10 30 20 30s35-5 45-15c20-20 30-30 40-30 0 70-65 80-105 80S95 505 95 435c10 0 20 10 40 30 10 10 35 15 45 15s0-30 20-30Zm-50-25c-5-5 25-20 35-20 5 0 10 5 15 5s10-5 15-5c10 0 40 15 35 20s-5-5-50-5-45 10-50 5Z" class="shp0"/><path fill="#CC9966" fill-rule="evenodd" stroke="#000" d="M60 300H50s-3.85 100.38 25 110c15 5 35 15 40 10 20-20-5-25-5-25s-50-20-50-95Zm280 0h10s3.85 100.38-25 110c-15 5-35 15-40 10-20-20 5-25 5-25s50-20 50-95Z" class="shp0"/>
</g>
<g transform="translate(98.84448468063304 285.57536672288046) rotate(5 41.155515319366955 24.42463327711953)">
<path d="M73.67 39.73c3.92-10.47 2.35-25.38 2.35-25.38s-35.86-6.27-45.8-5.22c-9.95 1.04-24.34 7.59-24.34 7.59s-1.44 10.21 7.6 24.34z" style="fill:#fff"/><path d="M45.8 37.65c-4.13.43-8.17-5.88-9.04-14.13s1.76-15.27 5.89-15.71c4.12-.43 8.16 5.88 9.03 14.13s-1.76 15.27-5.88 15.71" style="fill:#000"/><path d="M73.67 39.73c4.45-5.49 2.35-25.38 2.35-25.38s-35.86-6.27-45.8-5.22c-9.95 1.04-24.34 7.59-24.34 7.59s1.57 14.92 7.6 24.34" style="fill:none;stroke:#000;stroke-width:5"/>
</g>
<g transform="translate(218.84448468063306 285.57536672288046) rotate(-5 41.155515319366955 24.42463327711953) scale(-1 1) translate(-82.31103063873391 0)">
<path d="M73.67 39.73c3.92-10.47 2.35-25.38 2.35-25.38s-35.86-6.27-45.8-5.22c-9.95 1.04-24.34 7.59-24.34 7.59s-1.44 10.21 7.6 24.34z" style="fill:#fff"/><path d="M45.8 37.65c-4.13.43-8.17-5.88-9.04-14.13s1.76-15.27 5.89-15.71c4.12-.43 8.16 5.88 9.03 14.13s-1.76 15.27-5.88 15.71" style="fill:#000"/><path d="M73.67 39.73c4.45-5.49 2.35-25.38 2.35-25.38s-35.86-6.27-45.8-5.22c-9.95 1.04-24.34 7.59-24.34 7.59s1.57 14.92 7.6 24.34" style="fill:none;stroke:#000;stroke-width:5"/>
</g>
<g transform="translate(100.5 257.50129968019115) rotate(0 39.5 12.498700319808862)">
<path fill="#CC9966" stroke="#000" d="M79 12.9c0-6.11-7.5-6.11-7.5-6.11-18.75-3.05-41.65 3.28-52.5 9.16C49 12.9 56.5 19 75.25 19c0 0 3.75 0 3.75-6.1Z"/><path d="M0 10h5v5H0z" style="fill:none"/>
</g>
<g transform="translate(220.5 257.50129968019115) rotate(0 39.5 12.498700319808862) scale(-1 1) translate(-79 0)">
<path fill="#CC9966" stroke="#000" d="M79 12.9c0-6.11-7.5-6.11-7.5-6.11-18.75-3.05-41.65 3.28-52.5 9.16C49 12.9 56.5 19 75.25 19c0 0 3.75 0 3.75-6.1Z"/><path d="M0 10h5v5H0z" style="fill:none"/>
</g>
<g transform="translate(-1.2900000000000205 20.56000000000006) scale(-1 1) translate(-402.58000000000004 0)">
<path d="M198.19 431.84c-7.3-1.3-14.7-2.5-22-3.9a67 67 0 0 1-10.6-3c-4.5-1.6-8.6-3.4-11.8 2.2-.5.9-3.1.6-4.7.9.2-1.5-.1-3.2.6-4.5 2.2-4.6 4.6-9.1 7.1-13.5.7-1.2 2.1-2.1 3.2-3.1.6 1.4 1.7 2.8 1.6 4.1a53.4 53.4 0 0 1-1.7 8.1c27.8 8.4 55.3 8.3 83.4.2-.1-1.3-.2-2.8-.2-4.2s.2-2.8.5-5.8c2 2.2 3.2 3.2 3.9 4.5 2 3.8 4 7.6 5.7 11.6.5 1.2.2 2.7.3 4-1.5-.2-3.3.1-4.4-.7-1.6-1.1-2.6-2.9-3.3-3.6-12.7 2.3-24.7 4.6-36.8 6.8-3.5-.1-7.1-.1-10.8-.1"/>
</g>
<g transform="translate(0 -21.52777777777783) scale(0.94 0.94) translate(12.765957446808523 24.991134751773078)">
<path fill="#ddb7a0" stroke="#000" stroke-width="5" d="M170 390s10-10 20 0 10 10 20 0 20 0 20 0"/>
</g>
<g transform="scale(-1 1) translate(-400.1627066713039 0) scale(0.916 1) translate(18.348071703269383 0)">
<path fill="#CC9966" stroke="#000" stroke-width="4" d="M198.45 65.22c-.9 1.22-1.58 3.59-1.5 5.25.07 1.67.82 4.83 1.66 7.03s1.72 4.79 1.96 5.75c.28 1.16-.16 1.76-1.32 1.77-.96.01-2.65-.65-3.75-1.47s-2.68-1.52-3.5-1.55c-.82-.04-2.4.86-3.5 2s-2.56 2.05-3.25 2.03-1.36-1.48-1.5-3.26c-.23-2.99-.58-3.28-4.75-4.01-2.49-.43-5.62-1.84-7-3.15-1.37-1.3-4.42-3.65-6.77-5.23-3.84-2.59-4.54-2.75-7-1.61-1.5.69-4.02 2.27-5.59 3.5l-2.86 2.23C159.25 93.49 161.55 99 161 99s-4.71-2.02-9.25-4.48-9.04-4.49-10-4.5-1.96.32-2.21.73.65 2.44 2 4.5S144 99.22 144 99.5s-3.15.5-7 .5c-4.79 0-8.66.67-12.25 2.1-2.89 1.16-7.28 2.72-9.75 3.47-3.87 1.17-4.81 1.16-6.75-.1-1.24-.81-2.81-1.46-3.5-1.45s-3.39 1.81-6 4L94 112c-8.91-3.12-12.96-4.02-14.75-4.02L76 108c2.91 5.81 5.6 10.42 7.86 14s3.89 6.84 3.62 7.25c-.26.41-3.74.76-7.73.77l-7.25.03c-26.19 15.07-35.64 21.12-37.9 23.16l-4.1 3.71c4.26.06 7.75-.82 10.5-1.92s5-1.55 5-1-1.36 3.14-3.01 5.75c-1.66 2.61-3.01 5.31-3 6 .01.91 1.51 1.11 5.51.75 3.02-.28 5.52-.16 5.54.25s-1.91 2.55-4.3 4.75c-2.4 2.2-8.26 7.04-13.05 10.75-5.77 4.49-8.69 7.42-8.69 8.75 0 1.1.68 2.68 1.5 3.5s2.06 1.51 2.75 1.51c.69.01 3.39-1.34 6-3 2.61-1.65 5.2-3.01 5.75-3.01s1.01.79 1.03 1.75c.01.96-1 2.69-2.25 3.85-1.26 1.15-6.47 4.97-11.59 8.5-5.12 3.52-9.51 7.19-9.75 8.15s.01 2.65.56 3.75c.57 1.14 3.05 2.63 5.75 3.46 2.61.81 5.65 2.4 6.75 3.54l2 2.07c-9.94 9.89-11.48 12.17-11.49 14.18-.01 1.85.89 3.42 2.74 4.79 1.51 1.12 3.2 2.16 3.75 2.32.55.15-.45 2.5-2.23 5.21-1.77 2.71-3.23 5.72-3.25 6.68-.02 1.41.85 1.75 4.48 1.75 3.33 0 4.5.39 4.5 1.5 0 .82-.56 3.51-1.25 5.98-1.15 4.11-1.09 4.59.75 5.9 1.83 1.3 1.9 1.83.84 6.27-.64 2.67-.98 5.19-.75 5.6.22.41 1.31.52 2.41.25 1.52-.38 2.12.1 2.5 2 .33 1.67 1.5 2.83 3.5 3.5 1.65.55 3 1.23 3 1.5s-1.3 2.41-2.89 4.75-3.05 5.15-3.25 6.25c-.32 1.77.25 2.03 4.89 2.25 2.89.14 5.26.36 5.27.5s-.64 2.05-1.44 4.25c-1.39 3.79-1.35 4.12.73 6.23 1.2 1.22 2.64 2.23 3.19 2.24s3.59-2.57 6.76-5.73l5.76-5.74L62 284c5.76-9.69 8.62-13.85 10.07-15.5s3.15-4.01 3.78-5.25 2.5-10.91 4.15-21.5c1.66-10.59 3.87-22.18 4.92-25.75 1.08-3.65 3.16-7.87 4.75-9.62 1.72-1.9 4.99-3.82 8.33-4.89 5.08-1.64 12.59-1.79 97.5-2.01 50.8-.14 95.14.16 99 .66 3.85.5 9.02 1.91 11.48 3.13 2.47 1.23 5.26 3.58 6.22 5.23.95 1.65 2.65 6.6 3.78 11 1.12 4.4 3.17 15.54 4.53 24.75 1.37 9.21 3.17 18.1 3.99 19.75s1.95 3.23 2.5 3.5 3.26 3.99 6.03 8.25l5.04 7.75-.09 24c8.93 8.9 12.2 11.49 13.02 11.51.82.01 2.32-.55 3.33-1.24 1.63-1.13 1.71-1.77.69-5.77-.91-3.59-.88-4.65.17-5.23.72-.41 3-.75 5.06-.75 2.32-.01 3.75-.5 3.76-1.27 0-.69-1.57-3.73-3.49-6.75l-3.51-5.5c4.64-1.94 6.44-3.4 6.99-4.5s1.9-2 3-2c1.84 0 1.95-.46 1.38-5.75-.49-4.62-.29-6 1-7 1.48-1.14 1.49-1.7.06-6.5-1.28-4.29-1.33-5.38-.25-5.98.72-.41 3-.75 5.06-.75 3.41-.02 3.69-.23 3.11-2.27-.35-1.24-1.92-4.16-3.5-6.5-1.57-2.34-2.75-4.38-2.61-4.55.14-.16 1.49-.84 3-1.5s3.13-2.21 3.6-3.45.61-3.15.32-4.25c-.3-1.1-2.93-4.36-5.86-7.25L367 225c5.04-3.75 7.63-5.1 9-5.42 1.38-.32 3.31-1.36 4.29-2.33 1-.98 1.66-2.84 1.5-4.22-.22-1.88-2.9-4.27-11.29-10.07-8.94-6.18-11.05-8.11-11.25-10.28-.14-1.47.09-2.67.5-2.66.41.02 2.89 1.37 5.5 3 2.61 1.64 5.48 2.87 6.38 2.73s2.24-1.15 2.99-2.25c1.13-1.67 1.13-2.33.02-4-.73-1.1-6.01-5.65-11.73-10.11-5.73-4.46-11.31-9.09-12.41-10.28l-2-2.18c10.58.06 11.5-.21 11.47-1.68-.01-.96-1.36-3.89-3-6.5-1.63-2.61-2.63-4.76-2.22-4.77.41 0 3.45.9 6.75 2.01s6.36 1.68 6.81 1.26c.45-.41-1.19-2.55-3.64-4.75s-10.45-7.37-17.78-11.5c-7.32-4.12-14.23-8.24-15.35-9.15-1.97-1.6-1.98-1.76-.31-5 .95-1.84 3.55-6.27 5.77-9.85s4.03-7.06 4.02-7.75-1.03-1.25-2.27-1.26c-1.24 0-5.18.93-8.75 2.09l-6.5 2.09c-7.36-6.33-9.95-8.17-10.5-8.17s-2.19.79-3.64 1.75c-2.23 1.48-3.2 1.57-6.25.6-1.99-.63-6.31-2.31-9.61-3.72-4.44-1.91-7.75-2.59-12.75-2.61-3.71-.01-6.74-.36-6.73-.77s.9-1.87 1.98-3.25c1.08-1.37 1.97-3.29 1.98-4.25.02-1.47-.59-1.65-3.73-1.14l-3.75.61c1.16-7.15 1.16-9.23.75-9.25-.41-.01-1.71 1-2.88 2.25-1.16 1.26-2.63 3.29-3.25 4.53-.75 1.51-2.02 2.25-3.87 2.25-1.51 0-4.1-.41-5.75-.92-2.44-.75-5.1-.19-14.25 3-6.19 2.16-11.7 3.7-12.25 3.42s-2.46-2.52-4.25-4.98c-2.4-3.31-4.1-4.62-6.5-5-2.11-.34-4.22-1.72-6-3.93-1.51-1.88-4.57-7.06-6.8-11.5-2.22-4.45-4.34-8.09-4.7-8.09s-1.39 1-2.3 2.22Z" class="afro2"/>
</g>
</svg>