<svg xmlns="http://www.w3.org/2000/svg" version="1.2" baseProfile="tiny" width="100%" height="100%" viewBox="0 0 400 600" preserveAspectRatio="xMinYMin meet">
<g transform="scale(1.01 1) translate(-1.980198019801982 0)">
<path fill="#f2d6cb" stroke="#000" stroke-width="6" d="M10 600s-10-65 50-65c5 0 25-15 70-35l70-200 70 200c45 20 65 35 70 35 60 0 50 65 50 65" class="body"/>
</g>
<g transform="scale(1.01 1) translate(-1.980198019801982 0)">
<g stroke="#000"><path fill="#89bfd3" stroke-width="6" d="M120 505c0 20 50 15 80 35 30-20 80-15 80-35 0 0 50-5 80 5 0 0 20 10 30 40s10 60 10 60H0s0-30 10-60 30-40 30-40c30-10 80-5 80-5Z" class="hockeyPrimary"/><path fill="#7a1319" stroke-width="none" d="m0 600 400 1.8-2-11.8s-8 5-18 5c-40-20-70-30-180-30C80 565 2 590 2 590z" class="lowStripe"/><path fill="#07364f" d="M4.5 577.03S10 580 20 580c30-15 110-20 180-20 90 0 150 5 180 20 10 0 17-2.97 17-2.97l1 12.97s-8 5-18 5c-40-20-110-22.48-180-22.48-80 0-150 2.48-180 22.48-10 0-18-5-18-5z" class="stripeAccent"/><path fill="#07364f" stroke-width="2" d="M120 505c0 20 50 15 80 30 30-15 80-10 80-30l15-1c0 41-40 21-95 56-55-35-95-15-95-56z" class="collarAccent"/><path fill="none" stroke-width="6" d="M120 505c0 20 50 15 80 35 30-20 80-15 80-35 0 0 50-5 80 5 0 0 20 10 30 40s10 60 10 60H0s0-30 10-60 30-40 30-40c30-10 80-5 80-5Z" class="hockeyStroke"/><path fill="#7a1319" stroke-width="2" d="M180 528.21h40l10 17.05L200 564l-30-18.74z" class="shieldSecondary"/></g>
</g>
<g transform="translate(32 293.3) scale(0.81 0.81) translate(5.395061728395061 7.4358024691358) translate(6.300000000000001 -3)">
<path fill="#f2d6cb" stroke="#000" stroke-width="6" d="M43 8S3-12 3 28c0 45 40 30 40 30z"/>
</g>
<g transform="translate(322 293.3) scale(-0.81 0.81) translate(-51.39506172839506 7.4358024691358) translate(6.300000000000001 -3)">
<path fill="#f2d6cb" stroke="#000" stroke-width="6" d="M43 8S3-12 3 28c0 45 40 30 40 30z"/>
</g>
<g transform="scale(0.9400000000000001 1) translate(12.765957446808498 0)">
<path fill="#f2d6cb" stroke="#000" stroke-width="6" d="M200 100c100 0 150 60 150 200 0 160-80 170-100 190-10 10-30 20-50 10-20 10.9-40 0-50-10-20-20-100-30-100-190 0-140 50-200 150-200Z" class="head"/><path fill="rgba(0,0,0,0)" d="M60 300H50c0-140 50-200 150-200s150 60 150 200h-10v-10c0-5-10-20-15-25s-5-55-15-65c-40-40-60 0-110 0s-70-40-110 0c-10 10-10 60-15 65s-15 20-15 25z" class="headShave"/><path fill="rgba(0,0,0,0)" d="M200 410c30 0 50 10 50 10 30 0 90-15 90-120h10c0 160-80 170-100 190-10 10-30 20-50 10-20 10-40 0-50-10-20-20-100-30-100-190h10c0 105 60 120 90 120 0 0 20-10 50-10" class="faceShave"/>
</g>
<g transform="translate(109.23478204917245 289.9689533323849) rotate(9 30.765217950827548 20.031046667615087)">
<path d="M55.37 34.72S58.4 2.3 28.53 5.07C-1.35 7.83 7.21 35.16 7.21 35.16" style="fill:#fff;stroke:#000;stroke-width:5"/><path d="M30.74 28.97c-3.31.3-6.22-2.12-6.53-5.43a5.985 5.985 0 0 1 5.42-6.52 5.987 5.987 0 0 1 6.53 5.42c.3 3.3-2.12 6.22-5.42 6.53Z" style="fill:#000;stroke:#000;stroke-width:5"/>
</g>
<g transform="translate(229.23478204917245 289.9689533323849) rotate(-9 30.765217950827548 20.031046667615087) scale(-1 1) translate(-61.530435901655096 0)">
<path d="M55.37 34.72S58.4 2.3 28.53 5.07C-1.35 7.83 7.21 35.16 7.21 35.16" style="fill:#fff;stroke:#000;stroke-width:5"/><path d="M30.74 28.97c-3.31.3-6.22-2.12-6.53-5.43a5.985 5.985 0 0 1 5.42-6.52 5.987 5.987 0 0 1 6.53 5.42c.3 3.3-2.12 6.22-5.42 6.53Z" style="fill:#000;stroke:#000;stroke-width:5"/>
</g>
<g transform="translate(101.2222222222222 261) rotate(-14 38.77777777777779 9)">
<path fill="#5A3825" stroke="#000" d="M73 13c8-8 0-12 0-12S45 5 37 5H1s20 12 40 12c12 0 28 0 32-4Z"/>
</g>
<g transform="translate(221.2222222222222 261) rotate(14 38.77777777777779 9) scale(-1 1) translate(-77.55555555555559 0)">
<path fill="#5A3825" stroke="#000" d="M73 13c8-8 0-12 0-12S45 5 37 5H1s20 12 40 12c12 0 28 0 32-4Z"/>
</g>
<g transform="translate(0 10) scale(-1 1) translate(-400 0)">
<path d="M180 430h40" style="fill:none;stroke:#000;stroke-width:5"/>
</g>
<g transform="translate(0 12.5) scale(0.52 0.52) translate(184.6153846153846 330)">
<path fill="#f2d6cb" stroke="#000" stroke-width="5" d="M180 380s10-5 20-5 20 5 20 5m-20-5v-40" class="nose"/>
</g>
<g transform="scale(-1 1) translate(-400 0) scale(0.9400000000000001 1) translate(12.765957446808498 0)">
<defs><linearGradient id="a" x1="200" x2="200" y1="100" y2="310" gradientUnits="userSpaceOnUse"><stop offset="0" stop-color="rgba(0,0,0,.3)"/><stop offset="1" stop-color="rgba(0,0,0,0)"/></linearGradient></defs><path d="M60 310H50v-10c0-140 50-200 150-200s150 60 150 200v10h-10v-20c0-5-10-20-15-25s-5-45-15-55-60 0-110 0-100-10-110 0-10 50-15 55-15 20-15 25z" style="fill:url(#a);stroke:none"/><path fill="#5A3825" stroke="#000" stroke-width="4" d="M195 200h-10V100h10zm10 0h10V100h-10v100m20 0h10V100h-10v100m20 0h10v-95h-10zm20-5h10v-85h-10zm20 0h10v-75h-10zm20-5h10v-50h-10zm20 5h10v-20h-10v20m-150 5h-10V100h10zm-20 0h-10v-95.13h10zm-20-5v-85.15h-10V195zm-20 0v-75h-10v75zm-20-5H85v-50h10zm-20 5H65v-20h10z"/>
</g>
<g transform="scale(0.9400000000000001 1) translate(12.765957446808498 0)">
<path fill="#7a1319" stroke="#000" stroke-width="2" d="M50 285h30s20-10 50-10 65 10 65 10h10s35-10 65-10 50 10 50 10h30v10l-30 5s-20-15-50-15-60 10-60 10-5 15 0 25c0 0-5-10-10-10s-10 10-10 10c5-10 0-25 0-25s-30-10-60-10-50 15-50 15l-30-5z" class="frame"/><path fill="rgba(150,150,175,.5)" fill-rule="lens" d="M155 340c35 0 35 5 35-20 5-10 0-25 0-25s-30-10-60-10-50 15-50 15-5 40 5 45 40-5 70-5m160 5c10-5 5-45 5-45s-20-15-50-15-60 10-60 10-5 15 0 25c0 25 0 20 35 20 30 0 60 10 70 5" class="lens"/><path fill="none" stroke="#fff" stroke-width="2" d="m275 330 15-35m-5 35 15-35m-165 35 15-35m-5 35 15-35" class="glare"/>
</g>
</svg>