<svg xmlns="http://www.w3.org/2000/svg" version="1.2" baseProfile="tiny" width="100%" height="100%" viewBox="0 0 400 600" preserveAspectRatio="xMinYMin meet">
<g transform="scale(0.96 1) translate(8.333333333333341 0)">
<path fill="#ddb7a0" stroke="#000" stroke-width="6" d="M10 600s0-50 60-70 70-50 70-50l60-180 60 180s10 30 70 50 60 70 60 70" class="body"/>
</g>
<g transform="scale(0.96 1) translate(8.333333333333341 0)">
<path fill="#89bfd3" stroke="#000" stroke-width="6" d="M120 505c0 35 50 25 80 45 30-20 80-10 80-45 30-25 90-15 100-5s10.07 20.41 15 50c5 30 5 20 5 60H0c0-40 0-29.59 5-59.59 4.93-29.59 5-39.38 15-50.41 9.5-10.48 70-20 100 5Z" class="footballPrimary"/><path fill="#7a1319" stroke="#000" stroke-width="2" d="M120 505c0 35 50 25 80 45 30-20 80-10 80-45l15-10c5 60-55 45-95 75-40-30-100-15-95-75z" class="collarSecondary"/><path fill="#7a1319" stroke="#000" stroke-width="2" d="m20 500 15 80 5-88.8-10 3.07zm360 0-15 80-5-88.8 10 3.07z" class="Sparta"/><path fill="none" stroke="#000" stroke-width="6" d="M120 505c0 35 50 25 80 45 30-20 80-10 80-45 30-25 90-15 100-5s10.07 20.41 15 50c5 30 5 20 5 60H0c0-40 0-30 5-60 4.93-29.59 5-38.97 15-50 9.5-10.48 70-20 100 5Z" class="footballStroke"/><path fill="none" stroke="#000" stroke-width="2" d="M19.5 570s72.5-2.11 81.5-20m280 20s-71-2.11-80-20" class="shp3"/>
</g>
<g transform="translate(32 293.3) scale(0.9 0.9) translate(2.555555555555555 3.5222222222222217) translate(4.129999999999999 -3)">
<path fill="#ddb7a0" stroke="#000" stroke-width="6" d="M43 8S3-12 3 28c0 45 40 30 40 30z"/>
</g>
<g transform="translate(322 293.3) scale(-0.9 0.9) translate(-48.55555555555555 3.5222222222222217) translate(4.129999999999999 -3)">
<path fill="#ddb7a0" stroke="#000" stroke-width="6" d="M43 8S3-12 3 28c0 45 40 30 40 30z"/>
</g>
<g transform="scale(0.9540000000000001 1) translate(9.643605870020949 0)">
<path fill="#ddb7a0" stroke="#000" stroke-width="6" d="M200 100c100 0 150 60 150 200 0 70-50 200-150 200S50 370 50 300c0-140 50-200 150-200Z" class="head"/><path fill="rgba(0,0,0,0)" d="M200 410c30 0 50 10 50 10 30 0 90-15 90-120h10c0 70-50 200-150 200S50 370 50 300h10c0 105 60 120 90 120 0 0 20-10 50-10" class="faceShave"/><path fill="rgba(0,0,0,0)" d="M60 300H50c0-140 50-200 150-200s150 60 150 200h-10v-10c0-5-10-20-15-25s-5-55-15-65c-40-40-60 0-110 0s-70-40-110 0c-10 10-10 60-15 65s-15 20-15 25z" class="headShave"/>
</g>
<g>
<path fill="none" stroke="#000" stroke-width="2" d="M240 340s25 10 40 0m-120 0s-25 10-40 0" class="eyeline4"/>
</g>
<g transform="translate(140.5 420.5) scale(0.9 0.9) translate(1.0555555555555551 1.6111111111111107)">
<path fill="none" stroke="#000" stroke-width="2" d="M17 2 2 12l5 15" class="shp0"/>
</g>
<g transform="translate(240.5 420.5) scale(-0.9 0.9) translate(-20.055555555555557 1.6111111111111107)">
<path fill="none" stroke="#000" stroke-width="2" d="M17 2 2 12l5 15" class="shp0"/>
</g>
<g>
<path d="M144 363c-1.66 0-3-1.34-3-3s1.34-3 3-3 3 1.34 3 3-1.34 3-3 3m-15-1c-1.11 0-2-.89-2-2s.89-2 2-2 2 .89 2 2-.89 2-2 2m-15 1c-1.66 0-3-1.34-3-3s1.34-3 3-3 3 1.34 3 3-1.34 3-3 3m-15-1c-1.11 0-2-.89-2-2s.89-2 2-2 2 .89 2 2-.89 2-2 2m5 11c-1.66 0-3-1.34-3-3s1.34-3 3-3 3 1.34 3 3-1.34 3-3 3m10-1c-1.11 0-2-.89-2-2s.89-2 2-2 2 .89 2 2-.89 2-2 2m10 1c-1.66 0-3-1.34-3-3s1.34-3 3-3 3 1.34 3 3-1.34 3-3 3m10-1c-1.11 0-2-.89-2-2s.89-2 2-2 2 .89 2 2-.89 2-2 2m10 11c-1.66 0-3-1.34-3-3s1.34-3 3-3 3 1.34 3 3-1.34 3-3 3m-15-1c-1.11 0-2-.89-2-2s.89-2 2-2 2 .89 2 2-.89 2-2 2m-10 0c-1.11 0-2-.89-2-2s.89-2 2-2 2 .89 2 2-.89 2-2 2m-10 1c-1.66 0-3-1.34-3-3s1.34-3 3-3 3 1.34 3 3-1.34 3-3 3m-10-1c-1.11 0-2-.89-2-2s.89-2 2-2 2 .89 2 2-.89 2-2 2m45-10c-1.11 0-2-.89-2-2s.89-2 2-2 2 .89 2 2-.89 2-2 2m-50 0c-1.11 0-2-.89-2-2s.89-2 2-2 2 .89 2 2-.89 2-2 2m60 5c-1.11 0-2-.89-2-2s.89-2 2-2 2 .89 2 2-.89 2-2 2m0-10c-1.11 0-2-.89-2-2s.89-2 2-2 2 .89 2 2-.89 2-2 2m-48-15c-1.11 0-2-.89-2-2s.89-2 2-2 2 .89 2 2-.89 2-2 2m15 2c-2.21 0-4-1.79-4-4s1.79-4 4-4 4 1.79 4 4-1.79 4-4 4m15-2c-1.11 0-2-.89-2-2s.89-2 2-2 2 .89 2 2-.89 2-2 2m-15 41c-1.66 0-3-1.34-3-3s1.34-3 3-3 3 1.34 3 3-1.34 3-3 3m15-1c-1.11 0-2-.89-2-2s.89-2 2-2 2 .89 2 2-.89 2-2 2m-30 0c-1.11 0-2-.89-2-2s.89-2 2-2 2 .89 2 2-.89 2-2 2m150-29c-1.66 0-3-1.34-3-3s1.34-3 3-3 3 1.34 3 3-1.34 3-3 3m15-1c-1.11 0-2-.89-2-2s.89-2 2-2 2 .89 2 2-.89 2-2 2m15 1c-1.66 0-3-1.34-3-3s1.34-3 3-3 3 1.34 3 3-1.34 3-3 3m15-1c-1.11 0-2-.89-2-2s.89-2 2-2 2 .89 2 2-.89 2-2 2m-5 11c-1.66 0-3-1.34-3-3s1.34-3 3-3 3 1.34 3 3-1.34 3-3 3m-10-1c-1.11 0-2-.89-2-2s.89-2 2-2 2 .89 2 2-.89 2-2 2m-10 1c-1.66 0-3-1.34-3-3s1.34-3 3-3 3 1.34 3 3-1.34 3-3 3m-10-1c-1.11 0-2-.89-2-2s.89-2 2-2 2 .89 2 2-.89 2-2 2m-10 11c-1.66 0-3-1.34-3-3s1.34-3 3-3 3 1.34 3 3-1.34 3-3 3m15-1c-1.11 0-2-.89-2-2s.89-2 2-2 2 .89 2 2-.89 2-2 2m10 0c-1.11 0-2-.89-2-2s.89-2 2-2 2 .89 2 2-.89 2-2 2m10 1c-1.66 0-3-1.34-3-3s1.34-3 3-3 3 1.34 3 3-1.34 3-3 3m10-1c-1.11 0-2-.89-2-2s.89-2 2-2 2 .89 2 2-.89 2-2 2m-45-10c-1.11 0-2-.89-2-2s.89-2 2-2 2 .89 2 2-.89 2-2 2m50 0c-1.11 0-2-.89-2-2s.89-2 2-2 2 .89 2 2-.89 2-2 2m-60 5c-1.11 0-2-.89-2-2s.89-2 2-2 2 .89 2 2-.89 2-2 2m0-10c-1.11 0-2-.89-2-2s.89-2 2-2 2 .89 2 2-.89 2-2 2m48-15c-1.11 0-2-.89-2-2s.89-2 2-2 2 .89 2 2-.89 2-2 2m-15 2c-2.21 0-4-1.79-4-4s1.79-4 4-4 4 1.79 4 4-1.79 4-4 4m-15-2c-1.11 0-2-.89-2-2s.89-2 2-2 2 .89 2 2-.89 2-2 2m15 41c-1.66 0-3-1.34-3-3s1.34-3 3-3 3 1.34 3 3-1.34 3-3 3m-15-1c-1.11 0-2-.89-2-2s.89-2 2-2 2 .89 2 2-.89 2-2 2m30 0c-1.11 0-2-.89-2-2s.89-2 2-2 2 .89 2 2-.89 2-2 2" style="opacity:.251;mix-blend-mode:multiply;fill:#8b6135"/>
</g>
<g transform="translate(107.15625 282) rotate(9 32.84375 28)">
<path d="M63 43s-5 10-35 10S3 43 3 43 3 3 33 3s30 40 30 40Z" style="fill:#fff;stroke:#000;stroke-width:5"/><path d="M33 38c-10 0-10-20 0-20s10 20 0 20Z" style="fill:#000;stroke:#000;stroke-width:5"/>
</g>
<g transform="translate(227.15625 282) rotate(-9 32.84375 28) scale(-1 1) translate(-65.6875 0)">
<path d="M63 43s-5 10-35 10S3 43 3 43 3 3 33 3s30 40 30 40Z" style="fill:#fff;stroke:#000;stroke-width:5"/><path d="M33 38c-10 0-10-20 0-20s10 20 0 20Z" style="fill:#000;stroke:#000;stroke-width:5"/>
</g>
<g transform="translate(101.2030185317928 258.55217041664764) rotate(20 38.796981468207214 11.447829583352352)">
<path fill="#272421" stroke="#000" d="M72.888 12.598c5.271-4.016 2.566-8.267 2.566-8.267-1.018-.86-27.007.663-35.814.759-9.087.098-35.151 9.7-38.194 12.84-.01 2.629 27.698-1.318 40.149-1.733 9.802-.326 26.406.125 31.293-3.6z"/>
</g>
<g transform="translate(221.2030185317928 258.55217041664764) rotate(-20 38.796981468207214 11.447829583352352) scale(-1 1) translate(-77.59396293641443 0)">
<path fill="#272421" stroke="#000" d="M72.888 12.598c5.271-4.016 2.566-8.267 2.566-8.267-1.018-.86-27.007.663-35.814.759-9.087.098-35.151 9.7-38.194 12.84-.01 2.629 27.698-1.318 40.149-1.733 9.802-.326 26.406.125 31.293-3.6z"/>
</g>
<g transform="translate(0 0)">
<path d="M170 430s10 20 30 20 30-20 30-20z" style="fill:#fff;stroke:#000;stroke-width:5"/>
</g>
<g transform="translate(-1 1.294999999999959) scale(-1.18 1.18) translate(-371.33898305084745 -56.24313559322033)">
<path fill="#ddb7a0" stroke="#000" stroke-width="5" d="M186.89 385.17s-4.71-14.11 14.11-14.11 14.11 14.11 14.11 14.11M201 371.06v-18.82" class="nose"/>
</g>
<g transform="scale(-1 1) translate(-401.22449806051713 0) scale(0.9540000000000001 1) translate(9.673127311731529 0)">
<path fill="#272421" stroke="#000" stroke-width="5" d="M185 76.42c-2.48.71-5.63 1.74-7 2.3-1.38.56-3.85 2.13-5.5 3.48-1.65 1.36-5.7 4.34-9 6.64s-8.25 5.77-11 7.71c-3.51 2.48-6.04 3.51-8.5 3.47-1.93-.03-5.3.57-7.5 1.34-2.2.78-8.95 2.18-15 3.12-6.05.95-13.93 2.39-17.5 3.21-3.58.82-8.53 2.52-11 3.78-2.5 1.27-6.18 4.45-8.3 7.16-2.39 3.07-4.54 7.46-5.81 11.87-1.1 3.85-3.33 11.05-4.95 16s-3.85 13.72-4.95 19.5c-1.29 6.71-2.87 11.76-4.37 14-1.29 1.92-6.25 8-11.01 13.5-5.96 6.87-9.96 12.66-12.81 18.5-3.02 6.22-4.25 10.11-4.57 14.5-.3 4.21.35 9.44 2.2 17.5 2.18 9.54 2.45 12.27 1.62 16-.55 2.47-1.91 6.86-3.02 9.75-1.12 2.89-2.31 7.61-2.65 10.5-.33 2.89-.12 7.72.49 10.75.75 3.73 2.31 7.04 4.87 10.29 2.07 2.63 4.21 4.95 4.76 5.15s3.47-.46 6.5-1.47c3.02-1.01 6.42-2.88 7.55-4.15 1.12-1.28 3.08-5.02 4.34-8.32s2.93-8.93 3.71-12.5c.88-4.04 2.45-7.77 4.16-9.84 1.51-1.84 3.5-4.54 4.42-6 1.09-1.71 2.8-10.34 4.79-24.16 1.71-11.83 3.56-23.3 4.12-25.5.55-2.2 1.42-5.13 1.93-6.5.51-1.38 3.53-4.78 6.7-7.56 3.18-2.78 9.83-7.8 14.78-11.15 6.91-4.68 10.16-6.24 14-6.75 3.19-.42 7.71-.09 12.5.91 4.12.87 13.57 3.81 21 6.53 7.42 2.73 17.77 5.9 23 7.06 5.22 1.16 10.4 2.27 11.5 2.47s4.14 2.19 6.75 4.43c3.82 3.27 5.08 5.18 6.43 9.81.93 3.16 2.5 6.54 3.5 7.5s2.61 1.76 3.57 1.77c.96 0 5.8-1.97 10.75-4.4 4.95-2.42 12.61-6.59 17.02-9.26s12.29-8.09 17.5-12.04c6.1-4.63 10.1-8.46 11.23-10.75 1.32-2.7 2.54-3.71 5-4.15 1.79-.32 5.95-.09 9.25.5s8.92 2.52 12.5 4.29c4.02 1.98 9.02 5.7 13.11 9.75 5.37 5.31 6.92 7.57 8.22 12.04.88 3.02 2.28 9.1 3.12 13.5s2.45 14.97 3.59 23.5c1.31 9.87 2.71 16.59 3.84 18.5.98 1.65 2.08 6.04 2.45 9.75s2.03 10.46 3.7 15c1.66 4.54 4.11 9.82 5.43 11.75 1.32 1.92 3.98 4.4 5.92 5.5 3.08 1.75 3.99 1.85 7.32.8 3.05-.96 4.64-2.5 8.05-7.75 2.34-3.6 4.7-8.58 5.25-11.05.55-2.48 1.67-5.85 2.5-7.5.97-1.94 1.5-5.91 1.5-11.25-.01-7.47-.34-8.89-3.5-15-2.44-4.71-3.49-8.04-3.46-11 .03-2.34.7-6.05 1.49-8.25s1.45-6.93 1.47-10.5c.02-3.58.68-9.2 1.48-12.5s1.47-7.58 1.5-9.5c.04-2.67-.72-4.26-3.21-6.71-1.8-1.76-7.09-5.81-11.76-9-6.74-4.6-9.56-7.33-13.71-13.29-2.88-4.13-5.89-9.3-6.69-11.5-.81-2.2-1.7-5.13-1.98-6.5-.28-1.38-3.4-6.78-6.93-12-3.53-5.23-8.64-14-11.36-19.5s-6.17-11.8-7.67-14c-1.51-2.2-4.86-5.74-7.45-7.88-2.6-2.13-6.66-4.83-9.02-6-4.03-1.98-4.78-2.04-11.75-.87-6.87 1.15-7.82 1.09-12.2-.77-2.61-1.12-6.33-2.02-8.25-2.01-1.93.01-5.3-.47-7.5-1.06-2.2-.6-7.83-2.8-12.5-4.9-4.68-2.09-12.1-4.96-16.5-6.38s-11.26-3.27-15.25-4.11c-3.99-.83-8.49-1.49-10-1.45-1.51.03-4.78.64-7.25 1.35Z"/>
</g>
</svg>