<svg xmlns="http://www.w3.org/2000/svg" version="1.2" baseProfile="tiny" width="100%" height="100%" viewBox="0 0 400 600" preserveAspectRatio="xMinYMin meet">
<g transform="scale(1.02 1) translate(-3.921568627450984 0)">
<path fill="#ddb7a0" stroke="#000" stroke-width="6" d="M10 600s-10-70 50-70c10 0 0-10 60-20 0 0 50-210 80-210s80 210 80 210c60 10 50 20 60 20 60 0 50 70 50 70"/><path d="M71 545s46.9-3 82.1 10M329 545s-46.9-3-82.1 10m77.1-18s5.5-7.5 22-7m-271 7s-5.5-7.5-22-7"/>
</g>
<g transform="scale(1.02 1) translate(-3.921568627450984 0)">
<path fill="#89bfd3" stroke="#000" stroke-width="6" d="M80 610s10-30 10-90l20-10s10 80 90 80 90-80 90-80l20 10c0 60 10 90 10 90z" class="primary"/><path fill="#7a1319" d="M85 575v25h230v-25h-65s-20 15-50 15-50-15-50-15z" class="secondary"/><path fill="none" stroke="#000" stroke-width="16" d="M90 520c0 60-10 90-10 90m230-90c0 60 10 90 10 90M110 510s10 80 90 80 90-80 90-80" class="outline"/><path fill="none" stroke="#89bfd3" stroke-width="12" d="M90 520c0 60-10 90-10 90m230-90c0 60 10 90 10 90M110 510s10 80 90 80 90-80 90-80" class="stripe-primary"/><path fill="none" stroke="#07364f" stroke-width="6" d="M90 520c0 60-10 90-10 90m230-90c0 60 10 90 10 90M110 510s10 80 90 80 90-80 90-80" class="stripe-accent"/>
</g>
<g transform="translate(33.53553390593274 291.01362954285077) scale(0.67 0.67) translate(10.572050464242082 16.73955559829738) translate(11.331067811865474 -2.979591836734694)">
<path fill="#ddb7a0" stroke="#000" stroke-width="6" d="M40 14S10-1 5 4s0 30 5 40-5 25 30 20z"/>
</g>
<g transform="translate(323.53553390593277 291.01362954285077) scale(-0.67 0.67) translate(-53.50098265237661 16.73955559829738) translate(11.331067811865474 -2.979591836734694)">
<path fill="#ddb7a0" stroke="#000" stroke-width="6" d="M40 14S10-1 5 4s0 30 5 40-5 25 30 20z"/>
</g>
<g transform="scale(0.908 1) translate(20.264317180616732 0)">
<path fill="#ddb7a0" stroke="#000" stroke-width="6" d="M200 100c100 0 150 60 150 200 0 20-20 130-20 130l-80 50c-20 20-40 20-50 20s-30 0-50-20l-80-50S50 320 50 300c0-140 50-200 150-200Z"/><path fill="rgba(0,0,0,0)" d="M200 410c30 0 50 10 50 10 30 0 90-15 90-120h10c0 20-20 130-20 130l-80 50c-20 20-40 20-50 20s-30 0-50-20l-80-50S50 320 50 300h10c0 105 60 120 90 120 0 0 20-10 50-10" class="faceShave"/><path fill="rgba(0,0,0,0)" d="M60 300H50c0-140 50-200 150-200s150 60 150 200h-10v-10c0-5-10-20-15-25s-5-55-15-65c-40-40-60 0-110 0s-70-40-110 0c-10 10-10 60-15 65s-15 20-15 25z" class="headShave"/>
</g>
<g>
<path fill="none" stroke="#000" stroke-width="2" d="M300 320s5 5 10 5m-13.25-2.47S300 335 305 335m-205-15s-5 5-10 5m13.25-2.47S100 335 95 335" class="eyeline2"/>
</g>
<g transform="translate(142.67 417.5) scale(0.86 0.86) translate(1.1932558139534883 2.8488372093023258)">
<path fill="none" stroke="#000" stroke-width="2" d="M12.33 4.32s-10 3.29-10 13.18 10 13.18 10 13.18" class="shp0"/>
</g>
<g transform="translate(242.67 417.5) scale(-0.86 0.86) translate(-15.853255813953487 2.8488372093023258)">
<path fill="none" stroke="#000" stroke-width="2" d="M12.33 4.32s-10 3.29-10 13.18 10 13.18 10 13.18" class="shp0"/>
</g>
<g transform="translate(-120.05628769726621 -25.250646588503912) rotate(11 260.0562876972662 335.2506465885039)">
<path d="M259.01 349.54c-13.866-.398-24.58-15.35-24.58-28.312 14.975.007 34.492.1 51.25-.275.204 12.79-11.737 29.015-26.67 28.587" style="fill:#fff;stroke:#000;stroke-linecap:round;stroke-linejoin:round;stroke-width:5"/><path d="M259.552 325.177c-10 0-10 15 0 15s10-15 0-15" style="fill:#000;stroke:#000;stroke-linecap:round;stroke-linejoin:round;stroke-width:4"/>
</g>
<g transform="translate(-0.056287697266213854 -25.250646588503912) rotate(-11 260.0562876972662 335.2506465885039) scale(-1 1) translate(-520.1125753945324 0)">
<path d="M259.01 349.54c-13.866-.398-24.58-15.35-24.58-28.312 14.975.007 34.492.1 51.25-.275.204 12.79-11.737 29.015-26.67 28.587" style="fill:#fff;stroke:#000;stroke-linecap:round;stroke-linejoin:round;stroke-width:5"/><path d="M259.552 325.177c-10 0-10 15 0 15s10-15 0-15" style="fill:#000;stroke:#000;stroke-linecap:round;stroke-linejoin:round;stroke-width:4"/>
</g>
<g transform="translate(99.82499568420577 257.4995916989505) rotate(-4 40.175004315794226 12.50040830104949)">
<path fill="#e9c67b" stroke="#000" d="M25.63 10.05c-1.19.67-3.29 2.29-4.68 3.61s-2.66 2.8-2.84 3.29-.13.96.1 1.04 3.5-.28 7.26-.79c3.76-.52 9.13-1.06 11.92-1.21 2.8-.15 9.17-.28 14.14-.29 4.98-.01 11.48.12 14.44.29s6.61.25 8.12.19c1.5-.05 3.59-.27 4.63-.47 1.65-.32 1.85-.53 1.46-1.57-.33-.91-1.38-1.55-4.09-2.53-2-.73-6.19-1.72-9.32-2.22-3.13-.49-8.67-1.19-12.3-1.55-3.64-.36-9.39-.72-12.78-.81-4.83-.11-7.02.06-10.04.83-2.12.53-4.83 1.52-6.02 2.19Z"/><path d="M0 10h5v5H0z" style="fill:none"/>
</g>
<g transform="translate(219.82499568420576 257.4995916989505) rotate(4 40.175004315794226 12.50040830104949) scale(-1 1) translate(-80.35000863158845 0)">
<path fill="#e9c67b" stroke="#000" d="M25.63 10.05c-1.19.67-3.29 2.29-4.68 3.61s-2.66 2.8-2.84 3.29-.13.96.1 1.04 3.5-.28 7.26-.79c3.76-.52 9.13-1.06 11.92-1.21 2.8-.15 9.17-.28 14.14-.29 4.98-.01 11.48.12 14.44.29s6.61.25 8.12.19c1.5-.05 3.59-.27 4.63-.47 1.65-.32 1.85-.53 1.46-1.57-.33-.91-1.38-1.55-4.09-2.53-2-.73-6.19-1.72-9.32-2.22-3.13-.49-8.67-1.19-12.3-1.55-3.64-.36-9.39-.72-12.78-.81-4.83-.11-7.02.06-10.04.83-2.12.53-4.83 1.52-6.02 2.19Z"/><path d="M0 10h5v5H0z" style="fill:none"/>
</g>
<g transform="translate(160 425.5888888888889) scale(-1 1) translate(-80 0)">
<path d="M40 9C50 9 65-1 70 4s10 15 5 20-25 0-35 0-30 5-35 0S5 9 10 4s20 5 30 5Z" style="fill:#fff;stroke:#000;stroke-width:5"/>
</g>
<g transform="translate(144.4115 264.9735) scale(-0.64 0.64) translate(-142.44553125 59.077406249999996)">
<path fill="#ddb7a0" stroke="#000" stroke-width="5" d="M40.3 99.804c2.56 5.426 7.286 9.34 15.292 10.445 8.532-1.475 12.386-4.548 15.285-10.378"/>
</g>
<g transform="scale(0.908 1) translate(20.286550930743747 0)">
<path fill="#e9c67b" stroke="#000" stroke-width="4" d="m61.7 299.46-10.79-1.23s-10.55-7.47-9.99-21.33c.2-6.62.55-13.25 1.03-19.82.48-6.75 1.1-13.35 1.87-19.76.77-6.5 1.71-12.75 2.79-18.74q1.68-9.06 3.81-17.28c2.95-11.1 6.5-21.14 10.55-30.24 4.14-9.39 8.72-17.95 13.64-25.73 4.93-8.16 10.17-15.52 15.66-22.06 5.47-6.82 11.21-12.68 17.19-17.5 5.99-4.91 12.29-8.62 18.85-11.06 6.62-2.37 13.57-3.37 20.77-2.99l3.58 10.85s-.75-13.55 5.88-19a177 177 0 0 1 29.09-2.68c9.7.09 19.24.91 28.5 2.37 9.29 1.54 18.27 3.62 26.81 6.14 8.53 2.51 16.59 5.39 24.08 8.55 7.45 3.07 14.32 6.39 20.5 9.9 6.15 3.4 11.62 7 16.32 10.78 9.32 7.24 15.62 15.38 18.16 24.57 9.94 8.58 17.34 13.01 22.88 16.87 5.51 3.74 9.18 7.07 11.66 13.24 2.47 6.14 3.76 15.25 4.44 30.69.33 7.78.49 17.19.55 28.61.02 5.72.01 11.94-.02 18.7-.04 6.74-.1 14-.17 21.81-.22 17.63-10.22 27.27-10.22 27.27l-9.83.91.08-16.17c.03-4.17-9.91-15.03-14.94-18.34-2.52-1.66-3.75-13.28-5.58-25.67-1.82-12.71-4.24-26.18-9.3-29.97-2.53-1.93-8.29-2.15-16.16-1.32-7.91.76-17.95 2.52-29.02 4.63-11.09 1.98-23.17 4.25-35.09 6.18-11.91 1.75-23.62 3.16-33.98 3.69-15.47.5-24.85-4.38-30.68-10.75-5.77-6.56-8.03-14.6-9.36-20.07-.19 5.46-12.88 10.55-26.66 15.16-13.56 4.08-28.05 7.46-32.89 11.64-4.8 4.01-9.64 16.87-13.62 28.51-3.71 10.96-6.61 20.92-8.83 22.4-4.44 2.92-13.2 12.13-12.93 15.54.29 3.31 1.37 12.7 1.37 12.7Z"/>
</g>
</svg>