<svg xmlns="http://www.w3.org/2000/svg" version="1.2" baseProfile="tiny" width="100%" height="100%" viewBox="0 0 400 600" preserveAspectRatio="xMinYMin meet">
<g transform="scale(1 1) translate(0 0)">
<path fill="#ddb7a0" stroke="#000" stroke-width="6" d="M10 600s0-50 60-70 70-50 70-50l60-180 60 180s10 30 70 50 60 70 60 70" class="body"/>
</g>
<g transform="scale(1 1) translate(0 0)">
<path fill="#89bfd3" stroke="#000" stroke-width="6" d="M80 610s10-30 10-90l20-10s10 80 90 80 90-80 90-80l20 10c0 60 10 90 10 90z" class="jersey"/><path fill="none" stroke="#000" stroke-width="16" d="M90 520c0 60-10 90-10 90m230-90c0 60 10 90 10 90M110 510s10 80 90 80 90-80 90-80" class="outline"/><path fill="none" stroke="#07364f" stroke-width="12" d="M90 520c0 60-10 90-10 90m230-90c0 60 10 90 10 90M110 510s10 80 90 80 90-80 90-80" class="accent"/><path fill="none" stroke="#7a1319" stroke-width="6" d="M90 520c0 60-10 90-10 90m230-90c0 60 10 90 10 90M110 510s10 80 90 80 90-80 90-80" class="secondary"/>
</g>
<g transform="translate(32 293.3) scale(1.47 1.47) translate(-7.353741496598639 -10.135374149659865) translate(5.0600000000000005 -3)">
<path fill="#ddb7a0" stroke="#000" stroke-width="6" d="M43 8S3-12 3 28c0 45 40 30 40 30z"/>
</g>
<g transform="translate(322 293.3) scale(-1.47 1.47) translate(-38.646258503401356 -10.135374149659865) translate(5.0600000000000005 -3)">
<path fill="#ddb7a0" stroke="#000" stroke-width="6" d="M43 8S3-12 3 28c0 45 40 30 40 30z"/>
</g>
<g transform="scale(0.9480000000000001 1) translate(10.970464135021084 0)">
<path fill="#ddb7a0" stroke="#000" stroke-width="6" d="M200 100c100 0 150 60 150 200 0 0-5.15 110.6-10 130-5 20-60 70-140 70S65 450 60 430c-4.85-19.4-10-130-10-130 0-140 50-200 150-200Z" class="head"/><path fill="rgba(0,0,0,0)" d="M60 300H50c0-140 50-200 150-200s150 60 150 200h-10v-10c0-5-10-20-15-25s-5-55-15-65c-40-40-60 0-110 0s-70-40-110 0c-10 10-10 60-15 65s-15 20-15 25z" class="headShave"/><path fill="rgba(0,0,0,0)" d="M200 410c30 0 50 10 50 10 30 0 90-15 90-120h10s0 80-10 130c-5 20-60 70-140 70S65 450 60 430c-10-50-10-130-10-130h10c0 105 60 120 90 120 0 0 20-10 50-10" class="faceShave"/>
</g>
<g transform="translate(147 424.5) scale(0.52 0.52) translate(2.769230769230769 9.692307692307692)">
<path fill="none" stroke="#000" stroke-width="2" d="m0 20 6-10-6-9" class="shp0"/>
</g>
<g transform="translate(247 424.5) scale(-0.52 0.52) translate(-8.76923076923077 9.692307692307692)">
<path fill="none" stroke="#000" stroke-width="2" d="m0 20 6-10-6-9" class="shp0"/>
</g>
<g transform="scale(0.9480000000000001 1) translate(10.970464135021084 0)">
<path fill="#2C1608" stroke="#000" d="M220 480c10 0 30-5 30 0 0 20-30 30-50 30s-50-10-50-30c0-5 20 0 30 0zm-32-22c2-2 22-2 24 0s-8 16-12 16-14-14-12-16Zm-38-33c-5-5 25-20 35-20 5 0 10 5 15 5s10-5 15-5c10 0 40 15 35 20s-5-5-50-5-45 10-50 5Z" class="shp0"/>
</g>
<g transform="translate(102.93299701421847 284.73230356541717) rotate(12 37.067002985781535 25.26769643458282)">
<path d="M68.08 23.19s1.89 14.88-27.87 18.67C15.41 45.02 6.66 15.89 6.03 10.93 25.87 8.4 65.55 3.35 68.08 23.19Z" style="fill:#fff;stroke:#000;stroke-width:5"/><path d="M39.04 16.81c9.92-1.27 11.81 13.61 1.89 14.88-9.92 1.26-11.81-13.62-1.89-14.88" style="fill:#000;stroke:#000;stroke-linecap:round;stroke-linejoin:round;stroke-width:4"/>
</g>
<g transform="translate(222.93299701421847 284.73230356541717) rotate(-12 37.067002985781535 25.26769643458282) scale(-1 1) translate(-74.13400597156307 0)">
<path d="M68.08 23.19s1.89 14.88-27.87 18.67C15.41 45.02 6.66 15.89 6.03 10.93 25.87 8.4 65.55 3.35 68.08 23.19Z" style="fill:#fff;stroke:#000;stroke-width:5"/><path d="M39.04 16.81c9.92-1.27 11.81 13.61 1.89 14.88-9.92 1.26-11.81-13.62-1.89-14.88" style="fill:#000;stroke:#000;stroke-linecap:round;stroke-linejoin:round;stroke-width:4"/>
</g>
<g transform="translate(101.2030185317928 258.55217041664764) rotate(20 38.796981468207214 11.447829583352352)">
<path fill="#2C1608" stroke="#000" d="M72.888 12.598c5.271-4.016 2.566-8.267 2.566-8.267-1.018-.86-27.007.663-35.814.759-9.087.098-35.151 9.7-38.194 12.84-.01 2.629 27.698-1.318 40.149-1.733 9.802-.326 26.406.125 31.293-3.6z"/>
</g>
<g transform="translate(221.2030185317928 258.55217041664764) rotate(-20 38.796981468207214 11.447829583352352) scale(-1 1) translate(-77.59396293641443 0)">
<path fill="#2C1608" stroke="#000" d="M72.888 12.598c5.271-4.016 2.566-8.267 2.566-8.267-1.018-.86-27.007.663-35.814.759-9.087.098-35.151 9.7-38.194 12.84-.01 2.629 27.698-1.318 40.149-1.733 9.802-.326 26.406.125 31.293-3.6z"/>
</g>
<g transform="translate(169 428) scale(-1 1) translate(-62 0)">
<path d="m1 22 60-10L51 2" style="fill:none;stroke:#000;stroke-width:5"/>
</g>
<g transform="translate(140.995 319.5) scale(0.97 0.97) translate(1.8248969072164964 1.5618556701030943)">
<path fill="#ddb7a0" stroke="#000" stroke-width="5" d="M58 18S43 28.72 38 33c-4.17 3.57-10 10-10 30 0 10 15 20 25 20s20-5 20-15" class="nose"/><path d="m84.99 55.01 5-.02.02 5-5 .02z" style="fill:none"/>
</g>
<g transform="scale(-1 1) translate(-399.38737718378644 0) scale(0.9480000000000001 1) translate(10.953662243437167 0)">
<path fill="#2C1608" stroke="#000" stroke-width="4" d="M60 310H50s-.19-5 0-10C60 40-10 145 200 80c34.77-10.76 43.79-21.21 65 0 5 5 5 45 5 45s3.04-26.26 10-25c110 20 60-20 70 200 .23 4.99 0 10 0 10h-10v-20c0-5-10-20-15-25s-5-65-15-75-60 10-110 10-100-20-110-10-10 70-15 75-15 20-15 25z"/>
</g>
<g transform="scale(0.9480000000000001 1) translate(10.970464135021084 0)">
<path fill="#89bfd3" stroke="#000" stroke-width="2" d="M50 285h30s20-10 50-10 65 10 65 10h10s35-10 65-10 50 10 50 10h30v10l-30 5s-20-15-50-15-60 10-60 10-5 15 0 25c0 0-5-10-10-10s-10 10-10 10c5-10 0-25 0-25s-30-10-60-10-50 15-50 15l-30-5z" class="frame"/><path fill="rgba(150,150,175,.5)" fill-rule="lens" d="M155 340c35 0 35 5 35-20 5-10 0-25 0-25s-30-10-60-10-50 15-50 15-5 40 5 45 40-5 70-5m160 5c10-5 5-45 5-45s-20-15-50-15-60 10-60 10-5 15 0 25c0 25 0 20 35 20 30 0 60 10 70 5" class="lens"/><path fill="none" stroke="#fff" stroke-width="2" d="m275 330 15-35m-5 35 15-35m-165 35 15-35m-5 35 15-35" class="glare"/>
</g>
</svg>