<svg xmlns="http://www.w3.org/2000/svg" version="1.2" baseProfile="tiny" width="100%" height="100%" viewBox="0 0 400 600" preserveAspectRatio="xMinYMin meet">
<g transform="scale(1.03 1) translate(-5.895651127336921 0)">
<path fill="#ddb7a0" stroke="#000" stroke-width="6" d="M20 600s-5-60 40-70c15 0 45-15 90-35l50-195 50 195c45 20 75 35 90 35 45 10 45 70 45 70" class="body"/>
</g>
<g transform="scale(1.03 1) translate(-5.89805825242719 0)">
<g stroke="#000"><path fill="#07364f" stroke-width="3" d="M120 505s35 40 80 40 80-40 80-40v95H120z" class="s0"/><path fill="#89bfd3" stroke-width="6" d="M120 504.6c10 45.4 80 55.4 90 65.4s10 40 10 40H-5s5-40 5-50 10-30 40-40 50 0 80-15.4z" class="s0"/><path fill="#89bfd3" stroke-width="6" d="M360 520c30 10 40 30 40 40s10 50 10 50H180s0-40 10-50 80-10 90-55c30 15 50 5 80 15z" class="s0"/><path fill="#07364f" stroke-width="1.5" d="M196 597c-2.8 0-5-2.2-5-5s2.2-5 5-5 5 2.2 5 5-2.2 5-5 5zm-2-5h1m2 0h1" class="s1"/></g><path fill="none" stroke="#7a1319" stroke-width="5" d="M10 540v70m20-86v86m20-93v93m20-95v95m20-96v96m20-100v100m20-83v83m20-66v66m20-57v57m220-70v70m-20-86v86m-20-93v93m-20-95v95m-20-96v96m-20-101v101m-20-86v87m-20-72v71m-20-63v62m-20-57v57" class="s2"/><g fill="none" stroke="#000" stroke-width="6"><path d="M120 504.6c6.9 37.6 62.2 49.3 67.9 57-7.8 11.2-8 48.4-8 48.4H-5s5-40 5-50 10-30 40-40 50 0 80-15.4z" class="s5"/><path d="M360 520c30 10 40 30 40 40s10 50 10 50H180s0-40 10-50 80-10 90-55c30 15 50 5 80 15z" class="s5"/></g>
</g>
<g transform="translate(32 290.6) scale(1.27 1.27) translate(-4.889763779527559 -7.313385826771655) translate(12.81 -3)">
<path fill="#ddb7a0" stroke="#000" stroke-width="6" d="M43 13S23 3 13 3 3 23 3 33s3 20 13 30 27-10 27-10z"/>
</g>
<g transform="translate(322 290.6) scale(-1.27 1.27) translate(-41.110236220472444 -7.313385826771655) translate(12.81 -3)">
<path fill="#ddb7a0" stroke="#000" stroke-width="6" d="M43 13S23 3 13 3 3 23 3 33s3 20 13 30 27-10 27-10z"/>
</g>
<g transform="scale(0.898 1) translate(22.717149220489972 0)">
<path fill="#ddb7a0" stroke="#000" stroke-width="6" d="M200 100c100 0 150 60 150 200 0 20-20 120-25 130-4.47 8.94-105 70-105 70h-40s-98.29-56.58-105-70c-5-10-25-110-25-130 0-140 50-200 150-200Z" class="head"/><path fill="rgba(0,0,0,0)" d="M200 410c30 0 50 10 50 10 30 0 90-15 90-120h10c0 20-20 120-25 130-4.47 8.94-105 70-105 70h-40s-98.29-56.58-105-70c-5-10-25-110-25-130h10c0 105 60 120 90 120 0 0 20-10 50-10" class="faceShave"/><path fill="rgba(0,0,0,0)" d="M60 300H50c0-140 50-200 150-200s150 60 150 200h-10v-10c0-5-10-20-15-25s-5-55-15-65c-40-40-60 0-110 0s-70-40-110 0c-10 10-10 60-15 65s-15 20-15 25z" class="headShave"/>
</g>
<g transform="scale(0.898 1) translate(22.717149220489972 0)">
<path fill="#272421" fill-rule="evenodd" stroke="#000" d="M200 405c55 0 55 20 55 35 0 0 5 40-5 55-5 5-35 15-50 15s-46.67-10-50-15c-10-15-5-55-5-55 0-15 0-35 55-35Zm-45 35c0 5 5 5 25 5 10 0 10-5 20-5s10 5 20 5c20 0 25 0 25-5 0-20-15-15-45-15s-45-5-45 15Z" class="shp0"/>
</g>
<g transform="translate(102.8498332560182 285.155) rotate(13 37.15016674398179 24.845)">
<path d="M5.55 28.46S17.08 11.77 40 11.77s28.58 16.69 28.58 16.69-5.73 11.46-28.65 11.46S5.55 28.46 5.55 28.46" style="fill:#f5f3ee"/><path d="M5.55 28.46C2.68 25.6 17.08 9.77 40 9.77S71.44 25.6 68.58 28.46C65.71 31.33 62.92 16.27 40 16.27S8.41 31.33 5.55 28.46" style="fill:#000"/><path d="M39.93 33.04c-6.34 0-11.46-5.12-11.46-11.46 0-6.33 5.12-11.46 11.46-11.46s11.46 5.13 11.46 11.46c0 6.34-5.12 11.46-11.46 11.46" style="fill:#000"/>
</g>
<g transform="translate(222.8498332560182 285.155) rotate(-13 37.15016674398179 24.845) scale(-1 1) translate(-74.30033348796358 0)">
<path d="M5.55 28.46S17.08 11.77 40 11.77s28.58 16.69 28.58 16.69-5.73 11.46-28.65 11.46S5.55 28.46 5.55 28.46" style="fill:#f5f3ee"/><path d="M5.55 28.46C2.68 25.6 17.08 9.77 40 9.77S71.44 25.6 68.58 28.46C65.71 31.33 62.92 16.27 40 16.27S8.41 31.33 5.55 28.46" style="fill:#000"/><path d="M39.93 33.04c-6.34 0-11.46-5.12-11.46-11.46 0-6.33 5.12-11.46 11.46-11.46s11.46 5.13 11.46 11.46c0 6.34-5.12 11.46-11.46 11.46" style="fill:#000"/>
</g>
<g transform="translate(105 260.3333333333333) rotate(19 35 9.66666666666667)">
<path fill="#272421" stroke="#000" d="M67 17c3-3 0-12 0-12H39C29 5 3 1 3 1S0 14 3 17s26 0 36 0 25 3 28 0Z"/>
</g>
<g transform="translate(225 260.3333333333333) rotate(-19 35 9.66666666666667) scale(-1 1) translate(-70 0)">
<path fill="#272421" stroke="#000" d="M67 17c3-3 0-12 0-12H39C29 5 3 1 3 1S0 14 3 17s26 0 36 0 25 3 28 0Z"/>
</g>
<g transform="translate(0 5) scale(-1 1) translate(-400 0)">
<path d="m170 440 10-10h40l10 10" style="fill:none;stroke:#000;stroke-width:5"/>
</g>
<g transform="translate(-1 1.294999999999959)">
<path fill="#ddb7a0" stroke="#000" stroke-width="5" d="M186.89 385.17s-4.71-14.11 14.11-14.11 14.11 14.11 14.11 14.11M201 371.06v-18.82" class="nose"/>
</g>
<g transform="scale(-1 1) translate(-400.4388748938115 0) scale(0.898 1) translate(22.74207418661958 0)">
<path fill="#272421" stroke="#000" stroke-width="4" d="m61.7 299.46-10.79-1.23s-10.55-7.47-9.99-21.33c.2-6.62.55-13.25 1.03-19.82.48-6.75 1.1-13.35 1.87-19.76.77-6.5 1.71-12.75 2.79-18.74q1.68-9.06 3.81-17.28c2.95-11.1 6.5-21.14 10.55-30.24 4.14-9.39 8.72-17.95 13.64-25.73 4.93-8.16 10.17-15.52 15.66-22.06 5.47-6.82 11.21-12.68 17.19-17.5 5.99-4.91 12.29-8.62 18.85-11.06 6.62-2.37 13.57-3.37 20.77-2.99l3.58 10.85s-.75-13.55 5.88-19a177 177 0 0 1 29.09-2.68c9.7.09 19.24.91 28.5 2.37 9.29 1.54 18.27 3.62 26.81 6.14 8.53 2.51 16.59 5.39 24.08 8.55 7.45 3.07 14.32 6.39 20.5 9.9 6.15 3.4 11.62 7 16.32 10.78 9.32 7.24 15.62 15.38 18.16 24.57 9.94 8.58 17.34 13.01 22.88 16.87 5.51 3.74 9.18 7.07 11.66 13.24 2.47 6.14 3.76 15.25 4.44 30.69.33 7.78.49 17.19.55 28.61.02 5.72.01 11.94-.02 18.7-.04 6.74-.1 14-.17 21.81-.22 17.63-10.22 27.27-10.22 27.27l-9.83.91.08-16.17c.03-4.17-9.91-15.03-14.94-18.34-2.52-1.66-3.75-13.28-5.58-25.67-1.82-12.71-4.24-26.18-9.3-29.97-2.53-1.93-8.29-2.15-16.16-1.32-7.91.76-17.95 2.52-29.02 4.63-11.09 1.98-23.17 4.25-35.09 6.18-11.91 1.75-23.62 3.16-33.98 3.69-15.47.5-24.85-4.38-30.68-10.75-5.77-6.56-8.03-14.6-9.36-20.07-.19 5.46-12.88 10.55-26.66 15.16-13.56 4.08-28.05 7.46-32.89 11.64-4.8 4.01-9.64 16.87-13.62 28.51-3.71 10.96-6.61 20.92-8.83 22.4-4.44 2.92-13.2 12.13-12.93 15.54.29 3.31 1.37 12.7 1.37 12.7Z"/>
</g>
</svg>