<svg xmlns="http://www.w3.org/2000/svg" version="1.2" baseProfile="tiny" width="100%" height="100%" viewBox="0 0 400 600" preserveAspectRatio="xMinYMin meet">
<g transform="scale(0.99 1) translate(2.020202020202022 0)">
<path fill="#f2d6cb" stroke="#000" stroke-width="6" d="M10 600s0-50 60-70 70-50 70-50l60-180 60 180s10 30 70 50 60 70 60 70" class="body"/>
</g>
<g transform="scale(0.99 1) translate(2.020202020202022 0)">
<g stroke="#000"><path fill="#89bfd3" stroke-width="6" d="M120 505c0 35 50 25 80 45 30-20 80-10 80-45 30-25 90-15 100-5s10.07 20.41 15 50c5 30 5 20 5 60H0c0-40 0-29.59 5-59.59 4.93-29.59 5-39.38 15-50.41 9.5-10.48 70-20 100 5Z" class="footballPrimary"/><path fill="#7a1319" stroke-width="2" d="M120 505c0 35 50 25 80 45 30-20 80-10 80-45l15-10c5 60-55 45-95 75-40-30-100-15-95-75z" class="collarSecondary"/><path fill="none" stroke-width="6" d="M120 505c0 35 50 25 80 45 30-20 80-10 80-45 30-25 90-15 100-5s10.07 20.41 15 50c5 30 5 20 5 60H0c0-40 0-30 5-60 4.93-29.59 5-38.97 15-50 9.5-10.48 70-20 100 5Z" class="footballStroke"/><path fill="none" stroke-width="2" d="M19.5 570s72.5-2.11 81.5-20m280 20s-71-2.11-80-20" class="shp3"/></g>
</g>
<g transform="translate(32 290.6) scale(1.01 1.01) translate(-0.22772277227722793 -0.34059405940594095) translate(-2.3799999999999994 -3)">
<path fill="#f2d6cb" stroke="#000" stroke-width="6" d="M43 13S23 3 13 3 3 23 3 33s3 20 13 30 27-10 27-10z"/>
</g>
<g transform="translate(322 290.6) scale(-1.01 1.01) translate(-45.77227722772277 -0.34059405940594095) translate(-2.3799999999999994 -3)">
<path fill="#f2d6cb" stroke="#000" stroke-width="6" d="M43 13S23 3 13 3 3 23 3 33s3 20 13 30 27-10 27-10z"/>
</g>
<g transform="scale(0.996 1) translate(0.8032128514056232 0)">
<path fill="#f2d6cb" stroke="#000" stroke-width="6" d="M200 100c100 0 150 60 150 200 0 70-50 200-150 200S50 370 50 300c0-140 50-200 150-200Z" class="head"/><path fill="rgba(0,0,0,0)" d="M200 410c30 0 50 10 50 10 30 0 90-15 90-120h10c0 70-50 200-150 200S50 370 50 300h10c0 105 60 120 90 120 0 0 20-10 50-10" class="faceShave"/><path fill="rgba(0,0,0,0)" d="M60 300H50c0-140 50-200 150-200s150 60 150 200h-10v-10c0-5-10-20-15-25s-5-55-15-65c-40-40-60 0-110 0s-70-40-110 0c-10 10-10 60-15 65s-15 20-15 25z" class="headShave"/>
</g>
<g>
<path fill="none" stroke="#000" stroke-width="2" d="M220 270s-10 0-10-20m-30 20s10 0 10-20" class="eyeline1"/>
</g>
<g transform="scale(0.996 1) translate(0.8032128514056232 0)">
<path fill="#B55239" fill-rule="evenodd" stroke="#000" d="M200 410c55 0 55 15 55 30 70 0 85-35 85-140h10c0 130-30 150-40 160s-60 60-110 60-100-50-110-60-40-30-40-160h10c0 105 15 140 85 140 0-15 0-30 55-30Zm-45 30c0 20 5 30 25 30 10 0 10-10 20-10s10 10 20 10c20 0 25-10 25-30s-15-20-45-20-45 0-45 20Z" class="shp0"/>
</g>
<g transform="translate(98.84448468063304 285.57536672288046) rotate(12 41.155515319366955 24.42463327711953)">
<path d="M73.67 39.73c3.92-10.47 2.35-25.38 2.35-25.38s-35.86-6.27-45.8-5.22c-9.95 1.04-24.34 7.59-24.34 7.59s-1.44 10.21 7.6 24.34z" style="fill:#fff"/><path d="M45.8 37.65c-4.13.43-8.17-5.88-9.04-14.13s1.76-15.27 5.89-15.71c4.12-.43 8.16 5.88 9.03 14.13s-1.76 15.27-5.88 15.71" style="fill:#000"/><path d="M73.67 39.73c4.45-5.49 2.35-25.38 2.35-25.38s-35.86-6.27-45.8-5.22c-9.95 1.04-24.34 7.59-24.34 7.59s1.57 14.92 7.6 24.34" style="fill:none;stroke:#000;stroke-width:5"/>
</g>
<g transform="translate(218.84448468063306 285.57536672288046) rotate(-12 41.155515319366955 24.42463327711953) scale(-1 1) translate(-82.31103063873391 0)">
<path d="M73.67 39.73c3.92-10.47 2.35-25.38 2.35-25.38s-35.86-6.27-45.8-5.22c-9.95 1.04-24.34 7.59-24.34 7.59s-1.44 10.21 7.6 24.34z" style="fill:#fff"/><path d="M45.8 37.65c-4.13.43-8.17-5.88-9.04-14.13s1.76-15.27 5.89-15.71c4.12-.43 8.16 5.88 9.03 14.13s-1.76 15.27-5.88 15.71" style="fill:#000"/><path d="M73.67 39.73c4.45-5.49 2.35-25.38 2.35-25.38s-35.86-6.27-45.8-5.22c-9.95 1.04-24.34 7.59-24.34 7.59s1.57 14.92 7.6 24.34" style="fill:none;stroke:#000;stroke-width:5"/>
</g>
<g transform="translate(100.5 257.50129968019115) rotate(-3 39.5 12.498700319808862)">
<path fill="#B55239" stroke="#000" d="M79 12.9c0-6.11-7.5-6.11-7.5-6.11-18.75-3.05-41.65 3.28-52.5 9.16C49 12.9 56.5 19 75.25 19c0 0 3.75 0 3.75-6.1Z"/><path d="M0 10h5v5H0z" style="fill:none"/>
</g>
<g transform="translate(220.5 257.50129968019115) rotate(3 39.5 12.498700319808862) scale(-1 1) translate(-79 0)">
<path fill="#B55239" stroke="#000" d="M79 12.9c0-6.11-7.5-6.11-7.5-6.11-18.75-3.05-41.65 3.28-52.5 9.16C49 12.9 56.5 19 75.25 19c0 0 3.75 0 3.75-6.1Z"/><path d="M0 10h5v5H0z" style="fill:none"/>
</g>
<g transform="translate(169 424.5) scale(-1 1) translate(-62 0)">
<path d="M11 8S4.33 28 31 28 51 8 51 8 41 4.37 31 4.37 11 8 11 8Zm50-5L51 8M1 3l10 5" style="fill:#fff;stroke:#000;stroke-width:5"/>
</g>
<g transform="translate(140.995 319.5) scale(-1.12 1.12) translate(-111.6880357142857 -5.41071428571429)">
<path fill="#f2d6cb" stroke="#000" stroke-width="5" d="M58 18S43 28.72 38 33c-4.17 3.57-10 10-10 30 0 10 15 20 25 20s20-5 20-15" class="nose"/><path d="m84.99 55.01 5-.02.02 5-5 .02z" style="fill:none"/>
</g>
<g transform="scale(0.996 1) translate(0.8038759634115767 0)">
<path fill="#B55239" stroke="#000" stroke-width="4" d="m60.7 303.6-10.18 2.73s-10.34-6.75-10.47-26.25A411 411 0 0 1 38.08 249c-.2-9.59-.03-18.34.42-26.31.51-7.92 1.31-15.08 2.36-21.56 1.11-6.48 2.45-12.31 3.96-17.56 3.18-10.58 6.91-18.91 10.54-25.28 3.71-6.48 7.2-10.94 9.89-13.58 5.38-5.37 13.13-11.13 22.17-18.43 8.94-7.4 19.07-16.18 29.29-27.17 10.68-10.98 22.51-16.62 32.85-19.55 10.38-2.64 19.25-2.91 23.85-3.12 9.2-.27 25.61 16.69 25.61 16.69s20.62-16.33 29.93-15.73c4.67.37 13.77.98 23.87 3.86 10.17 3.13 21.54 8.82 31.02 19.4 9.59 10.67 19.73 19.38 28.92 26.77 9.43 7.35 17.63 13.2 23.25 18.58 2.81 2.65 6.42 7.2 10.14 13.75 3.66 6.44 7.34 14.82 10.33 25.34 1.41 5.23 2.64 11.02 3.61 17.43.92 6.41 1.59 13.49 1.95 21.29.34 7.85.39 16.46.12 25.88-.3 9.46-.94 19.64-2.06 30.47-.22 19.42-10.69 26.22-10.69 26.22l-10.23-2.65s1.72-11.23 2.17-15.18c.38-4.04-8.03-16.21-12.48-20.05-2.27-1.9-5.66-13.36-10.28-26.07-5.23-13.61-11.69-28.76-17.29-33.79-5.66-5.23-19.79-7.41-32.54-8.4-12.76-1.12-24.1-.86-24.1-.86s-7.29-9.1-8.8-10.64c-.76-.77-.1.39 3.66 5.55 3.78 5.08 10.69 13.88 22.36 27.8-10.33.43-26.38-4.73-39.78-10.31-13.24-5.86-23.75-11.93-23.75-11.93s-9.95 6.06-22.6 11.86c-12.77 5.47-28.2 10.48-38.45 9.98 10.34-13.69 16.44-22.35 19.77-27.36 3.32-5.09 3.9-6.25 3.21-5.48-1.39 1.52-7.89 10.52-7.89 10.52s-11.14-.28-23.52.79c-12.34.91-25.92 2.97-31.15 8.08-5.19 4.93-10.81 19.84-15.45 33.28-4.28 12.63-7.6 24.1-9.92 26.03-4.6 3.93-13.44 16.38-13.16 20.48.32 4.03 1.51 15.56 1.51 15.56Z"/>
</g>
</svg>