<svg xmlns="http://www.w3.org/2000/svg" version="1.2" baseProfile="tiny" width="100%" height="100%" viewBox="0 0 400 600" preserveAspectRatio="xMinYMin meet">
<g transform="scale(0.97 1) translate(6.185567010309284 0)">
<path fill="#bb876f" stroke="#000" stroke-width="6" d="M10 600s0-50 60-70 70-50 70-50l60-180 60 180s10 30 70 50 60 70 60 70" class="body"/>
</g>
<g transform="scale(0.97 1) translate(6.185567010309284 0)">
<g stroke="#000"><path fill="#89bfd3" stroke-width="6" d="M120 505c0 20 50 15 80 35 30-20 80-15 80-35 0 0 50-5 80 5 0 0 20 10 30 40s10 60 10 60H0s0-30 10-60 30-40 30-40c30-10 80-5 80-5Z" class="hockeyPrimary"/><path fill="#7a1319" d="M4.5 577.03S10 580 20 580c30-15 110-20 180-20 90 0 150 5 180 20 10 0 17-2.97 17-2.97l1 12.97s-8 5-18 5c-40-20-110-22.48-180-22.48-80 0-150 2.48-180 22.48-10 0-18-5-18-5z" class="stripeAccent"/><path fill="#7a1319" stroke-width="2" d="M120 505c0 20 50 15 80 30 30-15 80-10 80-30l15-1c0 41-40 21-95 56-55-35-95-15-95-56z" class="collarAccent"/><path fill="none" stroke-width="6" d="M120 505c0 20 50 15 80 35 30-20 80-15 80-35 0 0 50-5 80 5 0 0 20 10 30 40s10 60 10 60H0s0-30 10-60 30-40 30-40c30-10 80-5 80-5Z" class="hockeyStroke"/><path fill="#07364f" stroke-width="2" d="M180 528.21h40l10 17.05L200 564l-30-18.74z" class="shieldSecondary"/></g>
</g>
<g transform="translate(32 293.3) scale(0.96 0.96) translate(0.9583333333333343 1.3208333333333349) translate(6.610000000000001 -3)">
<path fill="#bb876f" stroke="#000" stroke-width="6" d="M43 8S3-12 3 28c0 45 40 30 40 30z"/>
</g>
<g transform="translate(322 293.3) scale(-0.96 0.96) translate(-46.958333333333336 1.3208333333333349) translate(6.610000000000001 -3)">
<path fill="#bb876f" stroke="#000" stroke-width="6" d="M43 8S3-12 3 28c0 45 40 30 40 30z"/>
</g>
<g transform="scale(0.9380000000000001 1) translate(13.219616204690817 0)">
<path fill="#bb876f" stroke="#000" stroke-width="6" d="M200 100c100 0 150 60 150 200-10 160-10 110-100 180-10 10-30 20-50 20s-40-10-50-20c-90-70-90-20-100-180 0-140 50-200 150-200Z" class="head"/><path fill="rgba(0,0,0,0)" d="M60 300H50c0-140 50-200 150-200s150 60 150 200h-10v-10c0-5-10-20-15-25s-5-55-15-65c-40-40-60 0-110 0s-70-40-110 0c-10 10-10 60-15 65s-15 20-15 25z" class="headShave"/><path fill="rgba(0,0,0,0)" d="M200 410c30 0 50 10 50 10 30 0 90-15 90-120h10c-10 160-10 110-100 180-11.16 8.68-30 20-50 20s-38.84-11.32-50-20c-90-70-90-20-100-180h10c0 105 60 120 90 120 0 0 20-10 50-10" class="faceShave"/>
</g>
<g>
<path fill="none" stroke="#000" stroke-width="2" d="M240 340s25 10 40 0m-120 0s-25 10-40 0" class="eyeline4"/>
</g>
<g transform="scale(0.9380000000000001 1) translate(13.219616204690817 0)">
<path fill="#1c1008" stroke="#000" d="M200 460c10 0 10 20 20 20s20-20 20-20 10 0 10 5c0 40-10 50-50 50s-50-10-50-50c0-5 10-5 10-5s10 20 20 20 10-20 20-20Z"/>
</g>
<g transform="translate(109.23478204917245 289.9689533323849) rotate(5 30.765217950827548 20.031046667615087)">
<path d="M55.37 34.72S58.4 2.3 28.53 5.07C-1.35 7.83 7.21 35.16 7.21 35.16" style="fill:#fff;stroke:#000;stroke-width:5"/><path d="M30.74 28.97c-3.31.3-6.22-2.12-6.53-5.43a5.985 5.985 0 0 1 5.42-6.52 5.987 5.987 0 0 1 6.53 5.42c.3 3.3-2.12 6.22-5.42 6.53Z" style="fill:#000;stroke:#000;stroke-width:5"/>
</g>
<g transform="translate(229.23478204917245 289.9689533323849) rotate(-5 30.765217950827548 20.031046667615087) scale(-1 1) translate(-61.530435901655096 0)">
<path d="M55.37 34.72S58.4 2.3 28.53 5.07C-1.35 7.83 7.21 35.16 7.21 35.16" style="fill:#fff;stroke:#000;stroke-width:5"/><path d="M30.74 28.97c-3.31.3-6.22-2.12-6.53-5.43a5.985 5.985 0 0 1 5.42-6.52 5.987 5.987 0 0 1 6.53 5.42c.3 3.3-2.12 6.22-5.42 6.53Z" style="fill:#000;stroke:#000;stroke-width:5"/>
</g>
<g transform="translate(101.88888888888889 257) rotate(0 38.111111111111114 13)">
<path fill="#1c1008" stroke="#000" d="M71 17c8-8 0-12 0-12S43 9 35 9C25 9 7 1 7 1S-5 5 7 17c8 8 8 8 28 8s33-5 36-8Z"/>
</g>
<g transform="translate(221.88888888888889 257) rotate(0 38.111111111111114 13) scale(-1 1) translate(-76.22222222222223 0)">
<path fill="#1c1008" stroke="#000" d="M71 17c8-8 0-12 0-12S43 9 35 9C25 9 7 1 7 1S-5 5 7 17c8 8 8 8 28 8s33-5 36-8Z"/>
</g>
<g transform="translate(0 10)">
<path d="M180 430h40" style="fill:none;stroke:#000;stroke-width:5"/>
</g>
<g transform="translate(0 77.5) scale(0.71 0.71) translate(81.69014084507043 119.47183098591552)">
<path fill="#bb876f" stroke="#000" stroke-width="5" d="M190 300c-5-15 5-15 10-15s15 0 10 15" class="nose"/>
</g>
<g transform="scale(-1 1) translate(-400.33022977896485 0) scale(0.9380000000000001 1) translate(13.230529982034007 0)">
<path fill="#1c1008" stroke="#000" stroke-width="4" d="m60.7 303.6-10.18 2.73s-10.34-6.75-10.47-26.25A411 411 0 0 1 38.08 249c-.2-9.59-.03-18.34.42-26.31.51-7.92 1.31-15.08 2.36-21.56 1.11-6.48 2.45-12.31 3.96-17.56 3.18-10.58 6.91-18.91 10.54-25.28 3.71-6.48 7.2-10.94 9.89-13.58 5.38-5.37 13.13-11.13 22.17-18.43 8.94-7.4 19.07-16.18 29.29-27.17 10.68-10.98 22.51-16.62 32.85-19.55 10.38-2.64 19.25-2.91 23.85-3.12 9.2-.27 25.61 16.69 25.61 16.69s20.62-16.33 29.93-15.73c4.67.37 13.77.98 23.87 3.86 10.17 3.13 21.54 8.82 31.02 19.4 9.59 10.67 19.73 19.38 28.92 26.77 9.43 7.35 17.63 13.2 23.25 18.58 2.81 2.65 6.42 7.2 10.14 13.75 3.66 6.44 7.34 14.82 10.33 25.34 1.41 5.23 2.64 11.02 3.61 17.43.92 6.41 1.59 13.49 1.95 21.29.34 7.85.39 16.46.12 25.88-.3 9.46-.94 19.64-2.06 30.47-.22 19.42-10.69 26.22-10.69 26.22l-10.23-2.65s1.72-11.23 2.17-15.18c.38-4.04-8.03-16.21-12.48-20.05-2.27-1.9-5.66-13.36-10.28-26.07-5.23-13.61-11.69-28.76-17.29-33.79-5.66-5.23-19.79-7.41-32.54-8.4-12.76-1.12-24.1-.86-24.1-.86s-7.29-9.1-8.8-10.64c-.76-.77-.1.39 3.66 5.55 3.78 5.08 10.69 13.88 22.36 27.8-10.33.43-26.38-4.73-39.78-10.31-13.24-5.86-23.75-11.93-23.75-11.93s-9.95 6.06-22.6 11.86c-12.77 5.47-28.2 10.48-38.45 9.98 10.34-13.69 16.44-22.35 19.77-27.36 3.32-5.09 3.9-6.25 3.21-5.48-1.39 1.52-7.89 10.52-7.89 10.52s-11.14-.28-23.52.79c-12.34.91-25.92 2.97-31.15 8.08-5.19 4.93-10.81 19.84-15.45 33.28-4.28 12.63-7.6 24.1-9.92 26.03-4.6 3.93-13.44 16.38-13.16 20.48.32 4.03 1.51 15.56 1.51 15.56Z"/>
</g>
</svg>