<svg xmlns="http://www.w3.org/2000/svg" version="1.2" baseProfile="tiny" width="100%" height="100%" viewBox="0 0 400 600" preserveAspectRatio="xMinYMin meet">
<g transform="scale(0.99 1) translate(2.0446197512313233 0)">
<path fill="#ad6453" stroke="#000" stroke-width="6" d="M20 600s-5-60 40-70c15 0 45-15 90-35l50-195 50 195c45 20 75 35 90 35 45 10 45 70 45 70" class="body"/>
</g>
<g transform="scale(0.99 1) translate(2.020202020202022 0)">
<path fill="#89bfd3" stroke="#000" stroke-width="6" d="M120 505c0 35 50 25 80 45 30-20 80-10 80-45 30-25 90-15 100-5s10.07 20.41 15 50c5 30 5 20 5 60H0c0-40 0-29.59 5-59.59 4.93-29.59 5-39.38 15-50.41 9.5-10.48 70-20 100 5Z" class="footballPrimary"/><path fill="#7a1319" stroke="#000" stroke-width="2" d="M120 505c0 35 50 25 80 45 30-20 80-10 80-45l15-10c5 60-55 45-95 75-40-30-100-15-95-75z" class="collarSecondary"/><path fill="#7a1319" stroke="#000" stroke-width="2" d="M120 540c-40 26.67-60 80-60 80h40s0-53.33 20-80Zm160 0c40 26.67 60 80 60 80h-40s0-53.33-20-80Z" class="Stallion"/><path fill="none" stroke="#000" stroke-width="6" d="M120 505c0 35 50 25 80 45 30-20 80-10 80-45 30-25 90-15 100-5s10.07 20.41 15 50c5 30 5 20 5 60H0c0-40 0-30 5-60 4.93-29.59 5-38.97 15-50 9.5-10.48 70-20 100 5Z" class="footballStroke"/><path fill="none" stroke="#000" stroke-width="2" d="M19.5 570s72.5-2.11 81.5-20m280 20s-71-2.11-80-20" class="shp3"/>
</g>
<g transform="translate(32 293.3) scale(0.76 0.76) translate(7.263157894736842 10.010526315789475) translate(10.639999999999999 -3)">
<path fill="#ad6453" stroke="#000" stroke-width="6" d="M43 8S3-12 3 28c0 45 40 30 40 30z"/>
</g>
<g transform="translate(322 293.3) scale(-0.76 0.76) translate(-53.263157894736835 10.010526315789475) translate(10.639999999999999 -3)">
<path fill="#ad6453" stroke="#000" stroke-width="6" d="M43 8S3-12 3 28c0 45 40 30 40 30z"/>
</g>
<g transform="scale(0.912 1) translate(19.298245614035082 0)">
<path fill="#ad6453" stroke="#000" stroke-width="6" d="M200 100c100 0 150 60 150 200 0 20-5 100-25 130-10 20-45 50-85 55-5 5-15 15-40 15s-35-10-40-15c-35-5-75-35-85-55-20-30-25-110-25-130 0-140 50-200 150-200Z" class="head"/><path fill="rgba(0,0,0,0)" d="M200 410c30 0 50 10 50 10 30 0 90-15 90-120h10c0 20-5 100-25 130-10 20-45 50-85 55-5 5-15 15-40 15s-35-10-40-15c-35-5-75-35-85-55-20-30-25-110-25-130h10c0 105 60 120 90 120 0 0 20-10 50-10" class="faceShave"/><path fill="rgba(0,0,0,0)" d="M60 300H50c0-140 50-200 150-200s150 60 150 200h-10v-10c0-5-10-20-15-25s-5-55-15-65c-40-40-60 0-110 0s-70-40-110 0c-10 10-10 60-15 65s-15 20-15 25z" class="headShave"/>
</g>
<g>
<path d="m102 385 9.08-25m13.62 0-9.08 25m13.62 0 9.07-25m13.62 0-9.08 25m106.22 0 9.08-25m13.61 0-9.07 25m13.61 0 9.08-25m13.62 0-9.08 25" style="opacity:.251;mix-blend-mode:multiply;fill:none;stroke:#8b6135;stroke-width:4.4"/>
</g>
<g transform="scale(0.912 1) translate(19.346491228070168 0)">
<path fill="#272421" fill-rule="evenodd" stroke="#000" d="M60 300H50s-10 70 10 130c10 20 30 55 90 55 10-10 0-45-10-55s-30 0-60-30c-20-20-20-70-20-100Zm261 100c-30 30-50 20-60 30s-20 45-10 55c60 0 80-35 90-55 20-60 10-130 10-130h-10c0 30 0 80-20 100Z" class="shp0"/><path fill="#272421" fill-rule="evenodd" stroke="#000" d="M200 405c55 0 65 20 65 35s0 40-10 55c-5 10-5 15-5 15v30l-5 10-5-10-5 10-5-10v-30h-15v30l-5 10-5-10-5 15-5-15-5 10-5-10v-30h-15v30l-5 10-5-10-5 10-5-10v-30s0-5-5-15c-8.06-16.12-10-40-10-55s10-35 65-35Zm-50 35c5 20 10 30 30 30 10 0 10-15 20-15s10 15 20 15c20 0 25-10 30-30 4.85-19.4-20-20-50-20s-54.85.6-50 20Z" class="shp0"/><path fill="#89bfd3" stroke="#000" d="M150 510h20v20h-20zm35 0h30v20h-30zm45 0h20v20h-20z" class="facialHairBand"/>
</g>
<g transform="translate(109.23478204917245 289.9689533323849) rotate(5 30.765217950827548 20.031046667615087)">
<path d="M55.37 34.72S58.4 2.3 28.53 5.07C-1.35 7.83 7.21 35.16 7.21 35.16" style="fill:#fff;stroke:#000;stroke-width:5"/><path d="M30.74 28.97c-3.31.3-6.22-2.12-6.53-5.43a5.985 5.985 0 0 1 5.42-6.52 5.987 5.987 0 0 1 6.53 5.42c.3 3.3-2.12 6.22-5.42 6.53Z" style="fill:#000;stroke:#000;stroke-width:5"/>
</g>
<g transform="translate(229.23478204917245 289.9689533323849) rotate(-5 30.765217950827548 20.031046667615087) scale(-1 1) translate(-61.530435901655096 0)">
<path d="M55.37 34.72S58.4 2.3 28.53 5.07C-1.35 7.83 7.21 35.16 7.21 35.16" style="fill:#fff;stroke:#000;stroke-width:5"/><path d="M30.74 28.97c-3.31.3-6.22-2.12-6.53-5.43a5.985 5.985 0 0 1 5.42-6.52 5.987 5.987 0 0 1 6.53 5.42c.3 3.3-2.12 6.22-5.42 6.53Z" style="fill:#000;stroke:#000;stroke-width:5"/>
</g>
<g transform="translate(101.2222222222222 261) rotate(-3 38.77777777777779 9)">
<path fill="#272421" stroke="#000" d="M73 13c8-8 0-12 0-12S45 5 37 5H1s20 12 40 12c12 0 28 0 32-4Z"/>
</g>
<g transform="translate(221.2222222222222 261) rotate(3 38.77777777777779 9) scale(-1 1) translate(-77.55555555555559 0)">
<path fill="#272421" stroke="#000" d="M73 13c8-8 0-12 0-12S45 5 37 5H1s20 12 40 12c12 0 28 0 32-4Z"/>
</g>
<g transform="translate(0 51.49291359400189)">
<path d="M167 382s10-8.86 33-9c16.67-.1 34 9 34 9s-11.33 21.31-34 22c-22.32.68-33-22-33-22" style="opacity:.05;mix-blend-mode:multiply;fill:#501414"/><path d="M176 384s14-4 24-4 24 4 24 4-8 8-24 8-24-8-24-8" style="fill:#fff"/><path d="M176 384s14-4 24-4 24 4 24 4-8 8-24 8-24-8-24-8Z" style="fill:none;stroke:#000;stroke-width:4"/><path d="M180 376c16-4 24-4 40 0" style="fill:none;stroke:#000;stroke-width:1"/><path d="M166 382s5 3.19 10 2m58-2s-5 3.19-10 2" style="fill:none;stroke:#000;stroke-width:4"/><path d="M185.71 400.69c15.15 4.14 16.29 3.86 29.15-.57" style="fill:none;stroke:#000;stroke-width:1"/>
</g>
<g transform="translate(150.27785841680208 317.5) scale(0.58 0.58) translate(36.005688732660566 38.01724137931035)">
<path fill="#ad6453" stroke="#000" stroke-width="5" d="M36.03 47c-19.25.25-26.57 32.37-4.37 27.13 9-2.13 8.25 4.12 18.12 4.37 9.5.24 5.75-6.12 16.38-3.25 22.01 5.96 18.75-28-.21-28.02M50 55.6S51.25 45 51.25 35 50 5 50 5" class="nose"/><path d="M40 95h20v5H40z" style="fill:none"/>
</g>
<g transform="scale(0.912 1) translate(19.298245614035082 0)">
<path fill="#272421" stroke="#000" stroke-width="4" d="M60 310H50v-10c0-65-5-145-5-150 0-10 5-20 5-20l10 10 6-20 14 10 5-20 15 10 5-20 15 10 8-22 12 12 8-20 12 16 10-21 10 21 10-21 10 21 10-21 10 21 10-21 10 21 12-16 8 20 12-12 8 24.37L290 100l10 20 12-9.96 8 19.96 14-10 6 20 10-10s5 10 5 20c0 5-5 85-5 150v10h-10v-20c0-5-10-20-15-25s-5-55-15-65-60 0-110 0-100-10-110 0-10 60-15 65-15 20-15 25z"/>
</g>
<g transform="scale(0.912 1) translate(19.298245614035082 0)">
<g stroke="#000"><path fill="#89bfd3" stroke-width="4" d="M350 280c-10 0-30-90-150-90S60 280 50 280c-10-10-10-40 0-50 0 0 30-90 150-90s150 90 150 90c10 10 10 40 0 50Z"/><path fill="#7a1319" d="M45 260v-10s35-90 155-90 155 90 155 90v10c-5 0-35-90-155-90S50 260 45 260Z"/></g>
</g>
</svg>