<svg xmlns="http://www.w3.org/2000/svg" version="1.2" baseProfile="tiny" width="100%" height="100%" viewBox="0 0 400 600" preserveAspectRatio="xMinYMin meet">
<g transform="scale(0.8460000000000001 1) translate(36.49763593380612 0)">
<path fill="#3D2314" stroke="#000" stroke-width="4" d="M59.75 313.8s-8.5 30.69-5.25 60.4c11.25-19.71 25-32.34 25-32.34S64.17 391.7 69.17 416.2c16.5-28 26.66-41.67 26.66-41.67S86.5 427.7 91.5 460.2c18-33 33.67-47.67 33.67-47.67s-14.3 40.12-8.3 75.12c21.5-46 81.38-32.85 81.38-32.85L196 325zm281.5 0s8.5 30.69 5.25 60.4c-11.25-19.71-25-32.34-25-32.34s15.33 49.84 10.33 74.34c-16.5-28-26.66-41.67-26.66-41.67s9.33 53.17 4.33 85.67c-18-33-33.67-47.67-33.67-47.67s14.3 40.12 8.3 75.12c-21.5-46-81.38-32.85-81.38-32.85L205 325z" class="shaggyBg"/>
</g>
<g transform="scale(1 1) translate(0 0)">
<path fill="#f2d6cb" stroke="#000" stroke-width="6" d="M10 600s-10-70 50-70c10 0 0-10 60-20 0 0 50-210 80-210s80 210 80 210c60 10 50 20 60 20 60 0 50 70 50 70"/><path d="M71 545s46.9-3 82.1 10M329 545s-46.9-3-82.1 10m77.1-18s5.5-7.5 22-7m-271 7s-5.5-7.5-22-7"/>
</g>
<g transform="scale(1 1) translate(0 0)">
<g stroke="#000"><path fill="#89bfd3" stroke-width="6" d="M120 505c0 35 50 25 80 45 30-20 80-10 80-45 30-25 90-15 100-5s10.07 20.41 15 50c5 30 5 20 5 60H0c0-40 0-29.59 5-59.59 4.93-29.59 5-39.38 15-50.41 9.5-10.48 70-20 100 5Z" class="footballPrimary"/><path fill="#7a1319" stroke-width="2" d="M120 505c0 35 50 25 80 45 30-20 80-10 80-45l15-10c5 60-55 45-95 75-40-30-100-15-95-75z" class="collarSecondary"/><path fill="none" stroke-width="6" d="M120 505c0 35 50 25 80 45 30-20 80-10 80-45 30-25 90-15 100-5s10.07 20.41 15 50c5 30 5 20 5 60H0c0-40 0-30 5-60 4.93-29.59 5-38.97 15-50 9.5-10.48 70-20 100 5Z" class="footballStroke"/><path fill="none" stroke-width="2" d="M19.5 570s72.5-2.11 81.5-20m280 20s-71-2.11-80-20" class="shp3"/></g>
</g>
<g transform="translate(32 290.6) scale(1.45 1.45) translate(-7.137931034482759 -10.675862068965518) translate(20.87 -3)">
<path fill="#f2d6cb" stroke="#000" stroke-width="6" d="M43 13S23 3 13 3 3 23 3 33s3 20 13 30 27-10 27-10z"/>
</g>
<g transform="translate(322 290.6) scale(-1.45 1.45) translate(-38.862068965517246 -10.675862068965518) translate(20.87 -3)">
<path fill="#f2d6cb" stroke="#000" stroke-width="6" d="M43 13S23 3 13 3 3 23 3 33s3 20 13 30 27-10 27-10z"/>
</g>
<g transform="scale(0.8460000000000001 1) translate(36.406619385342765 0)">
<path fill="#f2d6cb" stroke="#000" stroke-width="6" d="M200 100c100 0 150 60 150 200 0 120 0 140-100 180-10 10-30 20-50 20s-40-10-50-20C50 440 50 420 50 300c0-140 50-200 150-200Z" class="head"/><path fill="rgba(0,0,0,0)" d="M60 300H50c0-140 50-200 150-200s150 60 150 200h-10v-10c0-5-10-20-15-25s-5-55-15-65c-40-40-60 0-110 0s-70-40-110 0c-10 10-10 60-15 65s-15 20-15 25z" class="headShave"/><path fill="rgba(0,0,0,0)" d="M200 410c30 0 50 10 50 10 30 0 90-15 90-120h10c0 120 0 140-100 180-13.13 5.25-30 20-50 20s-36.87-14.75-50-20C50 440 50 420 50 300h10c0 105 60 120 90 120 0 0 20-10 50-10" class="faceShave"/>
</g>
<g>
<path fill="none" stroke="#000" stroke-width="2" d="M300 320s5 5 10 5m-13.25-2.47S300 335 305 335m-205-15s-5 5-10 5m13.25-2.47S100 335 95 335" class="eyeline2"/>
</g>
<g>
<path fill="none" stroke="#000" stroke-width="2" d="M180 465s10-5 20-5 20 5 20 5"/>
</g>
<g transform="scale(0.8460000000000001 1) translate(36.315602836879414 0)">
<path fill="#3D2314" stroke="#000" d="M205 420c-4 0-5-5-.8-10 5.8-5 15.8-5 15.8-5 15 0 35 15 35 25 0 30 10 55 5 60s-15 5-20 0 5-40 5-55-15-15-40-15Zm-10 0c4 0 5-5 0-10s-15-5-15-5c-16 0-35 15-35 25 0 30-10 55-5 60s15 5 20 0-5-40-5-55 15-15 40-15Zm-7 38c2-2 22-2 24 0s-8 16-12 16-14-14-12-16ZM60 300H50s-8.85 85.38 20 95c15 5 0-34.1 0-34.1S65 355 60 300Zm279 0h10s8.85 85.38-20 95c-15 5 0-34.1 0-34.1s5-5.9 10-60.9Z"/>
</g>
<g transform="translate(-120.29753770446098 -23.177101781228032) rotate(11 260.297537704461 333.17710178122803)">
<path d="M259.01 349.54c-13.866-.398-24.71-6.089-24.71-19.05 10.7-18.063 40.386-18.358 51.25-.275 4.415 12.208-11.607 19.753-26.54 19.325" style="fill:#fff;stroke:#000;stroke-linecap:round;stroke-linejoin:round;stroke-width:5"/><path d="M259.552 325.177c-10 0-10 15 0 15s10-15 0-15" style="fill:#000;stroke:#000;stroke-linecap:round;stroke-linejoin:round;stroke-width:4"/>
</g>
<g transform="translate(-0.2975377044609786 -23.177101781228032) rotate(-11 260.297537704461 333.17710178122803) scale(-1 1) translate(-520.595075408922 0)">
<path d="M259.01 349.54c-13.866-.398-24.71-6.089-24.71-19.05 10.7-18.063 40.386-18.358 51.25-.275 4.415 12.208-11.607 19.753-26.54 19.325" style="fill:#fff;stroke:#000;stroke-linecap:round;stroke-linejoin:round;stroke-width:5"/><path d="M259.552 325.177c-10 0-10 15 0 15s10-15 0-15" style="fill:#000;stroke:#000;stroke-linecap:round;stroke-linejoin:round;stroke-width:4"/>
</g>
<g transform="translate(97.20374849998123 252.4995916989505) rotate(14 42.79625150001876 17.50040830104949)">
<path fill="#3D2314" stroke="#000" d="M12.93 15.05c-1.51.67-4.18 2.29-5.94 3.61s-3.38 2.8-3.61 3.29c-.22.49-.16.96.13 1.04.3.08 4.44-.28 9.21-.79 4.77-.52 11.58-1.06 15.13-1.21s11.63-.28 17.94-.29c6.32-.01 14.56.12 18.32.29 3.75.17 8.39.25 10.29.19 1.91-.05 4.56-.27 5.89-.47 2.09-.32 2.33-.53 1.84-1.57-.42-.91-1.74-1.55-5.18-2.53-2.54-.73-7.86-1.72-11.83-2.22-3.97-.49-10.99-1.19-15.6-1.55-4.62-.36-11.91-.72-16.22-.81-6.13-.11-8.91.06-12.73.83-2.69.53-6.13 1.52-7.64 2.19Z"/>
</g>
<g transform="translate(217.20374849998123 252.4995916989505) rotate(-14 42.79625150001876 17.50040830104949) scale(-1 1) translate(-85.59250300003752 0)">
<path fill="#3D2314" stroke="#000" d="M12.93 15.05c-1.51.67-4.18 2.29-5.94 3.61s-3.38 2.8-3.61 3.29c-.22.49-.16.96.13 1.04.3.08 4.44-.28 9.21-.79 4.77-.52 11.58-1.06 15.13-1.21s11.63-.28 17.94-.29c6.32-.01 14.56.12 18.32.29 3.75.17 8.39.25 10.29.19 1.91-.05 4.56-.27 5.89-.47 2.09-.32 2.33-.53 1.84-1.57-.42-.91-1.74-1.55-5.18-2.53-2.54-.73-7.86-1.72-11.83-2.22-3.97-.49-10.99-1.19-15.6-1.55-4.62-.36-11.91-.72-16.22-.81-6.13-.11-8.91.06-12.73.83-2.69.53-6.13 1.52-7.64 2.19Z"/>
</g>
<g transform="translate(165 425.99483160254016) scale(-1 1) translate(-70 0)">
<path d="M1 3s11-1.86 34-2C51.67.9 69 3 69 3S57.67 26.31 35 27C12.68 27.68 1 3 1 3" style="opacity:.05;mix-blend-mode:multiply;fill:#501414"/><path d="M11 5s14 1.71 24 1.71S59 5 59 5s-8 10-24 10S11 5 11 5" style="fill:#fff"/><path d="M11 5s14 1.71 24 1.71S59 5 59 5s-8 10-24 10S11 5 11 5ZM1 3s5 3.19 10 2m58-2s-5 3.19-10 2M20.71 23.69c15.15 4.14 16.29 3.86 29.15-.57" style="fill:none;stroke:#000;stroke-width:4"/>
</g>
<g transform="translate(160 318.75) scale(1.17 1.17) translate(-7.426400759734092 -7.446581196581194)">
<path fill="#f2d6cb" stroke="#000" stroke-width="5" d="M40 40s50-30 0 30"/>
</g>
<g transform="scale(0.8460000000000001 1) translate(36.34108747044915 0)">
<path fill="#3D2314" stroke="#000" stroke-width="5" d="m59.99 309.97-9.99.02s-1.98-4.71-4.04-9.48l-10.6-24.48-8.66-11.07 1.65-9.05-7.84-11.2 3.59-9.06-6.17-11.15 5.2-8.9-3.58-14.75 17.6-9.39-3.32-14.5 25.03-8.7.75-14.9 21.98-3.91 1.47-18.31 21.51-3.02 4.96-19.14 18.68.03 12.26-22.85 17.27 9.82 11.33-24.4 13.86 17.48 13.2-24.51 15.63 24.47 12.3-17.59 13.77 24.45 16.76-9.92 14.31 22.84 19.14-.12 5.99 18.93 21.94 2.75 1.86 17.9 21.99 3.44.81 14.49 24.54 7.65-3.1 14.55 17.26 8.86-3.27 14.66 5.29 8.76-5.85 11.28 3.78 9.07-7.58 11.5 1.84 9.27-8.62 11.57-10.78 26.06c-2.15 5.19-4.22 10.36-4.22 10.36l-10.03-.1s-.79-15.25.11-20.4c.94-5.15-10.68-20.44-18.68-25.35-7.86-4.87-5.4-54.81-19.55-64.07-40.62-38.86-63.64 1.89-101.31 2.51-37.75.06-61.8-40.78-101.89-.55-14.3 9.72-11.99 59.64-19.91 64.54-8.01 4.91-19.57 19.04-18.66 23.92.87 4.84-.01 19.69-.01 19.69Z"/>
</g>
</svg>