<svg xmlns="http://www.w3.org/2000/svg" version="1.2" baseProfile="tiny" width="100%" height="100%" viewBox="0 0 400 600" preserveAspectRatio="xMinYMin meet">
<g transform="scale(0.806 1) translate(48.2593052109181 0)">
<path fill="#272421" stroke="#000" stroke-width="4" d="M59.75 313.8s-8.5 30.69-5.25 60.4c11.25-19.71 25-32.34 25-32.34S64.17 391.7 69.17 416.2c16.5-28 26.66-41.67 26.66-41.67S86.5 427.7 91.5 460.2c18-33 33.67-47.67 33.67-47.67s-14.3 40.12-8.3 75.12c21.5-46 81.38-32.85 81.38-32.85L196 325zm281.5 0s8.5 30.69 5.25 60.4c-11.25-19.71-25-32.34-25-32.34s15.33 49.84 10.33 74.34c-16.5-28-26.66-41.67-26.66-41.67s9.33 53.17 4.33 85.67c-18-33-33.67-47.67-33.67-47.67s14.3 40.12 8.3 75.12c-21.5-46-81.38-32.85-81.38-32.85L205 325z" class="shaggyBg"/>
</g>
<g transform="scale(0.96 1) translate(8.33333333333334 0)">
<path fill="#ad6453" stroke="#000" stroke-width="6" d="M5 600s-5-60 35-70c0 0 40 0 90-30l70-200 70 200c50 30 90 30 90 30 40 10 35 70 35 70" class="body"/>
</g>
<g transform="scale(0.96 1) translate(8.333333333333341 0)">
<g stroke="#000"><path fill="#89bfd3" stroke-width="6" d="M120 505c0 20 50 15 80 35 30-20 80-15 80-35 0 0 50-5 80 5 0 0 20 10 30 40s10 60 10 60H0s0-30 10-60 30-40 30-40c30-10 80-5 80-5Z" class="hockeyPrimary"/><path fill="#7a1319" d="M4.5 577.03S10 580 20 580c30-15 110-20 180-20 90 0 150 5 180 20 10 0 17-2.97 17-2.97l1 12.97s-8 5-18 5c-40-20-110-22.48-180-22.48-80 0-150 2.48-180 22.48-10 0-18-5-18-5z" class="stripeAccent"/><path fill="#7a1319" stroke-width="2" d="M120 505c0 20 50 15 80 30 30-15 80-10 80-30l15-1c0 41-40 21-95 56-55-35-95-15-95-56z" class="collarAccent"/><path fill="none" stroke-width="6" d="M120 505c0 20 50 15 80 35 30-20 80-15 80-35 0 0 50-5 80 5 0 0 20 10 30 40s10 60 10 60H0s0-30 10-60 30-40 30-40c30-10 80-5 80-5Z" class="hockeyStroke"/><path fill="#07364f" stroke-width="2" d="M180 528.21h40l10 17.05L200 564l-30-18.74z" class="shieldSecondary"/></g>
</g>
<g transform="translate(32 293.3) scale(1.36 1.36) translate(-6.0882352941176485 -8.391176470588238) translate(27.07 -3)">
<path fill="#ad6453" stroke="#000" stroke-width="6" d="M43 8S3-12 3 28c0 45 40 30 40 30z"/>
</g>
<g transform="translate(322 293.3) scale(-1.36 1.36) translate(-39.911764705882355 -8.391176470588238) translate(27.07 -3)">
<path fill="#ad6453" stroke="#000" stroke-width="6" d="M43 8S3-12 3 28c0 45 40 30 40 30z"/>
</g>
<g transform="scale(0.806 1) translate(48.13895781637716 0)">
<path fill="#ad6453" stroke="#000" stroke-width="6" d="M200 100c100 0 150 60 150 200-20 180-10 140-90 180-30 10-40 20-60 20s-30-10-60-20c-80-40-70 0-90-180 0-140 50-200 150-200Z" class="head"/><path fill="rgba(0,0,0,0.04)" d="M60 300H50c0-140 50-200 150-200s150 60 150 200h-10v-10c0-5-10-20-15-25s-5-55-15-65c-40-40-60 0-110 0s-70-40-110 0c-10 10-10 60-15 65s-15 20-15 25z" class="headShave"/><path fill="rgba(0,0,0,0.04)" d="M200 410c30 0 50 10 50 10 30 0 90-15 90-120h10c-20 180.69-10 140-90 180-30 10-40 20-60 20s-30-10-60-20c-80-40-70 0-90-180h10c0 105 60 120 90 120 0 0 20-10 50-10" class="faceShave"/>
</g>
<g>
<path fill="none" stroke="#000" stroke-width="2" d="M240 340s10 10 25 10m-105-10s-10 10-25 10" class="eyeline3"/>
</g>
<g transform="translate(147 424.5) scale(1.11 1.11) translate(-0.29729729729729754 -1.0405405405405415)">
<path fill="none" stroke="#000" stroke-width="2" d="m0 20 6-10-6-9" class="shp0"/>
</g>
<g transform="translate(247 424.5) scale(-1.11 1.11) translate(-5.702702702702703 -1.0405405405405415)">
<path fill="none" stroke="#000" stroke-width="2" d="m0 20 6-10-6-9" class="shp0"/>
</g>
<g transform="translate(-120.05628769726621 -25.250646588503912) rotate(8 260.0562876972662 335.2506465885039)">
<path d="M259.01 349.54c-13.866-.398-24.58-15.35-24.58-28.312 14.975.007 34.492.1 51.25-.275.204 12.79-11.737 29.015-26.67 28.587" style="fill:#fff;stroke:#000;stroke-linecap:round;stroke-linejoin:round;stroke-width:5"/><path d="M259.552 325.177c-10 0-10 15 0 15s10-15 0-15" style="fill:#000;stroke:#000;stroke-linecap:round;stroke-linejoin:round;stroke-width:4"/>
</g>
<g transform="translate(-0.056287697266213854 -25.250646588503912) rotate(-8 260.0562876972662 335.2506465885039) scale(-1 1) translate(-520.1125753945324 0)">
<path d="M259.01 349.54c-13.866-.398-24.58-15.35-24.58-28.312 14.975.007 34.492.1 51.25-.275.204 12.79-11.737 29.015-26.67 28.587" style="fill:#fff;stroke:#000;stroke-linecap:round;stroke-linejoin:round;stroke-width:5"/><path d="M259.552 325.177c-10 0-10 15 0 15s10-15 0-15" style="fill:#000;stroke:#000;stroke-linecap:round;stroke-linejoin:round;stroke-width:4"/>
</g>
<g transform="translate(101.05152592374387 261.3) rotate(-15 38.94847407625614 8.7)">
<path fill="#272421" stroke="#000" d="M73 13c4.85-1.21 0-10-10-10S3 8 3 8s50 10 70 5Z"/>
</g>
<g transform="translate(221.05152592374387 261.3) rotate(15 38.94847407625614 8.7) scale(-1 1) translate(-77.89694815251228 0)">
<path fill="#272421" stroke="#000" d="M73 13c4.85-1.21 0-10-10-10S3 8 3 8s50 10 70 5Z"/>
</g>
<g transform="translate(0 5)">
<path d="m170 440 10-10h40l10 10" style="fill:none;stroke:#000;stroke-width:5"/>
</g>
<g transform="translate(0 7.5) scale(-0.77 0.77) translate(-459.7402597402597 108.27922077922078)">
<path fill="#ad6453" stroke="#000" stroke-width="5" d="M190 325s-5 20-5 45c-20-5-15 15-15 20 20 0 15 10 30 10s10-10 30-10c0-5 5-25-15-20 0-25-5-45-5-45" class="nose"/>
</g>
<g transform="scale(0.806 1) translate(48.13895781637719 0)">
<g stroke="#000"><path fill="#07364f" stroke-width="2" d="M199.8 82c3.4 0 7.2.6 8.8 1.5 1.6.8 2.9 2 2.9 2.5s.2 1.7.5 2.5c.4 1.3-1.3 1.5-12 1.5s-12.4-.2-12-1.5c.3-.8.4-1.9.3-2.5-.1-.5 1.1-1.6 2.7-2.4 1.5-.9 5.4-1.5 8.8-1.6z" class="s0"/><path fill="#7a1319" stroke-width="6" d="M197.8 90.1c13.3-.1 23 .5 34.6 1.9 8.8 1.1 20.8 3 26.6 4.1s15.5 3.3 21.6 5c6 1.6 14.4 4.3 18.7 6 4.2 1.7 10.2 4.5 13.3 6.2 3.1 1.8 7.4 5 9.5 7.2 2.3 2.3 5.3 7.1 7.1 11.3 2 4.7 4 12 5.6 21 1.4 7.5 3.5 17.8 4.7 22.7s3.2 11.7 4.3 15c1.2 3.3 3 11.8 4 19 .9 7.2 1.7 17.9 1.7 24s-.3 11.8-.7 12.7c-.6 1.5-1.1 1.4-4.9-1.1-2.4-1.5-8.9-5.3-14.4-8.4-5.6-3-16.4-8.3-24-11.7-7.7-3.5-20.8-8.6-29.3-11.5-8.4-3-21.8-6.7-29.7-8.4-7.9-1.6-18.6-3.5-23.7-4.1-5.2-.5-15.4-1-22.8-1s-17.6.5-22.8 1c-5.1.6-15.8 2.5-23.7 4.1-7.9 1.7-22 5.7-31.2 8.9s-22.4 8.3-29.2 11.5c-6.9 3.1-17.9 8.6-24.5 12.2s-13.2 7.4-14.6 8.4c-2.3 1.6-2.7 1.7-3.1.4-.3-.8-.5-6.1-.5-11.7 0-5.7.6-15.5 1.3-21.8.8-6.3 1.9-13.5 2.5-16 .7-2.5 2.4-8.3 3.9-13s3.8-14.6 5.1-22 3.1-16.4 4-20 2.7-8.9 4.1-11.9 4.3-7.3 6.5-9.5c2.1-2.3 7.3-6 11.5-8.2 4.2-2.3 10.8-5.3 14.8-6.7s11.5-3.7 16.8-5.1 13.5-3.3 18.2-4.2 15.8-2.7 24.5-3.9c11.2-1.6 21.1-2.3 34.2-2.4z"/><path fill="#89bfd3" stroke-width="4" d="M69.6 237.7c-6.6 3.6-13.2 7.4-14.7 8.4-2.2 1.6-2.7 1.7-3.1.4-.2-.8-.4-6.1-.4-11.7-.1-5.7.6-15.5 1.3-21.8s1.9-13.5 2.5-16 2.4-8.3 3.9-13 3.8-14.6 5.1-22c0 0 12 72.1 5.4 75.7zM336.8 162c1.3 7.4 3.6 17.3 5.1 22s3.2 10.5 3.9 13c.6 2.5 1.7 9.7 2.5 16 .7 6.3 1.3 16.1 1.3 21.8 0 5.6-.2 10.9-.5 11.7-.4 1.3-.8 1.2-3.1-.4-1.4-1-8-4.8-14.6-8.4s5.4-75.7 5.4-75.7z"/><path fill="#07364f" stroke-width="6" d="M196.2 197c9.2 0 20.8.3 25.9.7 5 .4 13.6 1.5 19.1 2.4 5.6 1 14.4 2.8 19.7 4.1s13.7 3.7 18.7 5.2c5 1.6 14.7 5.1 21.6 7.9 6.8 2.7 17 7.3 22.5 10 5.6 2.8 14.9 7.9 20.6 11.2 5.8 3.4 12.4 7.5 14.6 9.2 3.2 2.4 4.1 3.6 4.1 5.6 0 1.6-.7 3.3-1.9 4.2-1.1.9-3.2 1.6-4.8 1.6-2.1 0-5.1-1.4-10.8-5.1-4.3-2.8-13.3-8-19.9-11.6s-19.3-9.5-28.3-13.1c-8.9-3.7-20.6-8-25.9-9.6-5.2-1.5-13.4-3.7-18.2-4.9-4.7-1.1-14.9-2.9-22.5-4-11.3-1.7-17.1-2-30.7-2s-19.4.3-30.7 2c-7.6 1.1-17.8 2.9-22.5 4-4.8 1.2-13 3.4-18.2 4.9-5.3 1.6-17 5.9-25.9 9.6-9 3.6-21.7 9.5-28.3 13.1s-15.6 8.8-19.9 11.6c-6.3 4.1-8.6 5.1-11.3 5.1-1.8 0-4-.5-4.8-1.2-.8-.6-1.4-2.4-1.4-4 0-2.2.8-3.4 3.8-5.9 2.1-1.8 7.4-5.3 11.7-7.8s12.8-7.2 18.9-10.4 17.6-8.4 25.5-11.7c7.9-3.2 18.7-7.2 24-8.8 5.3-1.7 14.7-4.2 21.1-5.7 6.3-1.5 17.3-3.6 24.4-4.6 10.3-1.5 16.5-2 29.8-2z"/></g>
</g>
</svg>