<svg xmlns="http://www.w3.org/2000/svg" version="1.2" baseProfile="tiny" width="100%" height="100%" viewBox="0 0 400 600" preserveAspectRatio="xMinYMin meet">
<g transform="scale(1.01 1) translate(-1.980198019801982 0)">
<path fill="#f2d6cb" stroke="#000" stroke-width="6" d="M10 600s0-50 60-70 70-50 70-50l60-180 60 180s10 30 70 50 60 70 60 70" class="body"/>
</g>
<g transform="scale(1.01 1) translate(-2.0049504950495067 0)">
<g stroke="#000"><path fill="#7a1319" stroke-width="3" d="M120 505s35 40 80 40 80-40 80-40v95H120z" class="s0"/><path fill="#89bfd3" stroke-width="6" d="M120 504.6c10 45.4 80 55.4 90 65.4s10 40 10 40H-5s5-40 5-50 10-30 40-40 50 0 80-15.4z" class="s0"/><path fill="#89bfd3" stroke-width="6" d="M360 520c30 10 40 30 40 40s10 50 10 50H180s0-40 10-50 80-10 90-55c30 15 50 5 80 15z" class="s0"/><path fill="#89bfd3" stroke-width="1.5" d="M196 597c-2.8 0-5-2.2-5-5s2.2-5 5-5 5 2.2 5 5-2.2 5-5 5zm-2-5h1m2 0h1" class="s1"/></g><g fill="none" stroke="#000" stroke-width="6"><path d="M120 504.6c6.9 37.6 62.2 49.3 67.9 57-7.8 11.2-8 48.4-8 48.4H-5s5-40 5-50 10-30 40-40 50 0 80-15.4z" class="s5"/><path d="M360 520c30 10 40 30 40 40s10 50 10 50H180s0-40 10-50 80-10 90-55c30 15 50 5 80 15z" class="s5"/></g>
</g>
<g transform="translate(33.53553390593274 291.01362954285077) scale(0.95 0.95) translate(1.129708741793015 1.788756339849961) translate(4.511067811865475 -2.979591836734694)">
<path fill="#f2d6cb" stroke="#000" stroke-width="6" d="M40 14S10-1 5 4s0 30 5 40-5 25 30 20z"/>
</g>
<g transform="translate(323.53553390593277 291.01362954285077) scale(-0.95 0.95) translate(-44.05864092992754 1.788756339849961) translate(4.511067811865475 -2.979591836734694)">
<path fill="#f2d6cb" stroke="#000" stroke-width="6" d="M40 14S10-1 5 4s0 30 5 40-5 25 30 20z"/>
</g>
<g transform="scale(0.9520000000000001 1) translate(10.084033613445364 0)">
<path fill="#f2d6cb" stroke="#000" stroke-width="6" d="M200 100c100 0 150 60 150 200 0 120 0 140-100 180-10 10-30 20-50 20s-40-10-50-20C50 440 50 420 50 300c0-140 50-200 150-200Z" class="head"/><path fill="rgba(0,0,0,0)" d="M60 300H50c0-140 50-200 150-200s150 60 150 200h-10v-10c0-5-10-20-15-25s-5-55-15-65c-40-40-60 0-110 0s-70-40-110 0c-10 10-10 60-15 65s-15 20-15 25z" class="headShave"/><path fill="rgba(0,0,0,0)" d="M200 410c30 0 50 10 50 10 30 0 90-15 90-120h10c0 120 0 140-100 180-13.13 5.25-30 20-50 20s-36.87-14.75-50-20C50 440 50 420 50 300h10c0 105 60 120 90 120 0 0 20-10 50-10" class="faceShave"/>
</g>
<g>
<path fill="none" stroke="#000" stroke-width="2" d="M200 270v-15l5-5-5 5-5-5m-25-15s15 0 30 5c15-5 30-5 30-5m-75-15s35 0 45 5c10-5 45-5 45-5"/>
</g>
<g transform="scale(0.9520000000000001 1) translate(10.084033613445364 0)">
<path fill="#5A3825" fill-rule="evenodd" stroke="#000" d="M200 410c55 0 55 15 55 30 70 0 85-35 85-140h10c0 85.955-6.62 123.276-13.03 142.306-3.286 9.75-6.333 14.677-7.138 19.4-1.068 6.257-8.838 9.629-10.958 17.543-3.017 11.263-8.556 10.735-10.665 17.834-2.637 8.883-7.952 7.494-9.426 12.682-2.075 7.307-10.412 7.821-13.197 13.6-3.548 7.362-10.63 5.887-14.533 10.156-6.3 6.892-15.088 3.937-20.9 8.56-4.793 3.812-10.78 1.493-15.71 3.422-10.582 4.14-20.605 2.066-30.024 2.066-8.633 0-19.018 1.295-28.214-1.692-5.696-1.85-12.198 1.078-17.972-3.64-5.88-4.804-15.908-.87-21.481-8.598-3.316-4.597-11.258-2.689-14.29-9.82-2.193-5.155-10.92-4.418-12.121-12.146-1.034-6.647-11.694-8.405-13.307-15.405-1.694-7.352-10.13-11.094-11.95-17.176-3.054-10.198-8.921-11.446-9.594-18.569-.468-4.949-5.392-10.959-9.558-21.057C58.247 420.836 50 384.304 50 300h10c0 105 15 140 85 140 0-15 0-30 55-30zm-45 30c0 20 5 30 25 30 10 0 9.702-5.833 19.702-5.833S210 470 220 470c20 0 25-10 25-30s-15-20-45-20-45 0-45 20z" class="shp0"/>
</g>
<g transform="translate(107.15625 282) rotate(6 32.84375 28)">
<path d="M63 43s-5 10-35 10S3 43 3 43 3 3 33 3s30 40 30 40Z" style="fill:#fff;stroke:#000;stroke-width:5"/><path d="M33 38c-10 0-10-20 0-20s10 20 0 20Z" style="fill:#000;stroke:#000;stroke-width:5"/>
</g>
<g transform="translate(227.15625 282) rotate(-6 32.84375 28) scale(-1 1) translate(-65.6875 0)">
<path d="M63 43s-5 10-35 10S3 43 3 43 3 3 33 3s30 40 30 40Z" style="fill:#fff;stroke:#000;stroke-width:5"/><path d="M33 38c-10 0-10-20 0-20s10 20 0 20Z" style="fill:#000;stroke:#000;stroke-width:5"/>
</g>
<g transform="translate(105 260.3333333333333) rotate(-15 35 9.66666666666667)">
<path fill="#5A3825" stroke="#000" d="M67 17c3-3 0-12 0-12H39C29 5 3 1 3 1S0 14 3 17s26 0 36 0 25 3 28 0Z"/>
</g>
<g transform="translate(225 260.3333333333333) rotate(15 35 9.66666666666667) scale(-1 1) translate(-70 0)">
<path fill="#5A3825" stroke="#000" d="M67 17c3-3 0-12 0-12H39C29 5 3 1 3 1S0 14 3 17s26 0 36 0 25 3 28 0Z"/>
</g>
<g transform="translate(169 428)">
<path d="m1 22 60-10L51 2" style="fill:none;stroke:#000;stroke-width:5"/>
</g>
<g transform="translate(140.84321577312707 292.352) scale(0.8 0.8) translate(14.789196056718229 19.411999999999992)">
<path fill="#f2d6cb" stroke="#000" stroke-width="5" d="M50 50s-20 60 9 55c0 0 29 5 9-55"/>
</g>
<g transform="scale(0.9520000000000001 1) translate(10.084033613445364 0)">
<path fill="#5A3825" stroke="#000" stroke-width="4" d="M60 310H50v-35l-2-11 2-9-2-11 2-9-2-11 2-9-2-15 7-10-3-15.63L65 165l-1-17 16-3v-21h20l4-20 20 4 12-20 20 12 12-20 16 16 16-20 16 20 16-16 12 20 20-12 12 20 20-4 4 20h20v21l16 3-1 17 13 9.04-3 15.96 7 10-2 15 2 9-2 11 2 9-2 11 2 9-2 11v35h-10v-20c0-5-10-20-15-25s-5-50-15-60-60-5-110-5-100-5-110 5-10 55-15 60-15 20-15 25z"/>
</g>
</svg>