<svg xmlns="http://www.w3.org/2000/svg" version="1.2" baseProfile="tiny" width="100%" height="100%" viewBox="0 0 400 600" preserveAspectRatio="xMinYMin meet">
<g transform="scale(1 1) translate(0 0)">
<path fill="#f2d6cb" stroke="#000" stroke-width="6" d="M5 600s-5-60 35-70c0 0 40 0 90-30l70-200 70 200c50 30 90 30 90 30 40 10 35 70 35 70" class="body"/>
</g>
<g transform="scale(1 1) translate(0 0)">
<path fill="#89bfd3" stroke="#000" stroke-width="6" d="M80 610s10-30 10-90l20-10s10 80 90 80 90-80 90-80l20 10c0 60 10 90 10 90z" class="jersey"/><path fill="none" stroke="#07364f" stroke-width="2" d="M95 610v-92.45M105 610v-97.95m10 2.95v95m10-60v62.05M135 565v45m10-35v35m10-30v30m10-25v25m10-20v20m10-20v20m10-20v20m110 0v-92.45M295 610v-97.95M285 515v95m-10-60v62.05M265 565v45m-10-35v35m-10-30v30m-10-25v25m-10-20v20m-10-20v20m-10-20v20" class="pinstripes"/><path fill="none" stroke="#000" stroke-width="16" d="M90 520c0 60-10 90-10 90m230-90c0 60 10 90 10 90M110 510s10 80 90 80 90-80 90-80" class="outline"/><path fill="none" stroke="#07364f" stroke-width="8" d="M90 520c0 60-10 90-10 90m230-90c0 60 10 90 10 90m-210-98s15 78 90 78 90-78 90-78" class="stripe-accent"/><path fill="none" stroke="#89bfd3" stroke-width="4" d="M86 522c0 60-10 88-10 88m238-88c0 60 10 88 10 88M114 510s11 76 86 76 86-76 86-76" class="stripe-primary"/><path fill="none" stroke="#7a1319" stroke-width="4" d="M94 518c0 60-10 92-10 92m222-92c0 60 10 92 10 92m-210-96s12 80 94 80 94-80 94-80" class="stripe-secondary"/>
</g>
<g transform="translate(33.53553390593274 291.01362954285077) scale(0.79 0.79) translate(5.705744151587498 9.03435164050802) translate(22.18106781186548 -2.979591836734694)">
<path fill="#f2d6cb" stroke="#000" stroke-width="6" d="M40 14S10-1 5 4s0 30 5 40-5 25 30 20z"/>
</g>
<g transform="translate(323.53553390593277 291.01362954285077) scale(-0.79 0.79) translate(-48.63467633972202 9.03435164050802) translate(22.18106781186548 -2.979591836734694)">
<path fill="#f2d6cb" stroke="#000" stroke-width="6" d="M40 14S10-1 5 4s0 30 5 40-5 25 30 20z"/>
</g>
<g transform="scale(0.8380000000000001 1) translate(38.663484486873486 0)">
<path fill="#f2d6cb" stroke="#000" stroke-width="6" d="M200 100c100 0 150 60 150 200-10 160-10 110-100 180-10 10-30 20-50 20s-40-10-50-20c-90-70-90-20-100-180 0-140 50-200 150-200Z" class="head"/><path fill="rgba(0,0,0,0.15)" d="M60 300H50c0-140 50-200 150-200s150 60 150 200h-10v-10c0-5-10-20-15-25s-5-55-15-65c-40-40-60 0-110 0s-70-40-110 0c-10 10-10 60-15 65s-15 20-15 25z" class="headShave"/><path fill="rgba(0,0,0,0.15)" d="M200 410c30 0 50 10 50 10 30 0 90-15 90-120h10c-10 160-10 110-100 180-11.16 8.68-30 20-50 20s-38.84-11.32-50-20c-90-70-90-20-100-180h10c0 105 60 120 90 120 0 0 20-10 50-10" class="faceShave"/>
</g>
<g transform="translate(140.5 420.5) scale(0.92 0.92) translate(0.8260869565217386 1.2608695652173907)">
<path fill="none" stroke="#000" stroke-width="2" d="M17 2 2 12l5 15" class="shp0"/>
</g>
<g transform="translate(240.5 420.5) scale(-0.92 0.92) translate(-19.826086956521735 1.2608695652173907)">
<path fill="none" stroke="#000" stroke-width="2" d="M17 2 2 12l5 15" class="shp0"/>
</g>
<g transform="scale(0.8380000000000001 1) translate(38.663484486873486 0)">
<path fill="#e9c67b" stroke="#000" d="M205 420c-4 0-5-5-.8-10 5.8-5 15.8-5 15.8-5 15 0 35 15 35 25 0 30 10 55 5 60s-15 5-20 0 5-40 5-55-15-15-40-15Zm-10 0c4 0 5-5 0-10s-15-5-15-5c-16 0-35 15-35 25 0 30-10 55-5 60s15 5 20 0-5-40-5-55 15-15 40-15Zm-7 38c2-2 22-2 24 0s-8 16-12 16-14-14-12-16Z"/>
</g>
<g transform="translate(99.23500000000001 289.1206538286518) rotate(2 40.76499999999999 20.879346171348168)">
<path d="M73.63 30.14S62.25 5.74 32.3 7.42C12.33 8.54 7.9 18.8 7.9 18.8l5.83 14.7c30.23 3.31 59.9-3.36 59.9-3.36" style="fill:#fff"/><path d="M40.63 30.99a9.99 9.99 0 0 0 9.42-10.55 9.985 9.985 0 0 0-10.54-9.42 10 10 0 0 0-9.43 10.54c.31 5.52 5.03 9.74 10.55 9.43" style="fill:#000"/><path d="M73.63 30.14S72.51 10.17 32.3 7.42C12.33 8.54 7.9 18.8 7.9 18.8l5.83 14.7" style="fill:none;stroke:#000;stroke-width:5"/>
</g>
<g transform="translate(219.235 289.1206538286518) rotate(-2 40.76499999999999 20.879346171348168) scale(-1 1) translate(-81.52999999999999 0)">
<path d="M73.63 30.14S62.25 5.74 32.3 7.42C12.33 8.54 7.9 18.8 7.9 18.8l5.83 14.7c30.23 3.31 59.9-3.36 59.9-3.36" style="fill:#fff"/><path d="M40.63 30.99a9.99 9.99 0 0 0 9.42-10.55 9.985 9.985 0 0 0-10.54-9.42 10 10 0 0 0-9.43 10.54c.31 5.52 5.03 9.74 10.55 9.43" style="fill:#000"/><path d="M73.63 30.14S72.51 10.17 32.3 7.42C12.33 8.54 7.9 18.8 7.9 18.8l5.83 14.7" style="fill:none;stroke:#000;stroke-width:5"/>
</g>
<g transform="translate(99.82499568420577 257.4995916989505) rotate(-10 40.175004315794226 12.50040830104949)">
<path fill="#e9c67b" stroke="#000" d="M25.63 10.05c-1.19.67-3.29 2.29-4.68 3.61s-2.66 2.8-2.84 3.29-.13.96.1 1.04 3.5-.28 7.26-.79c3.76-.52 9.13-1.06 11.92-1.21 2.8-.15 9.17-.28 14.14-.29 4.98-.01 11.48.12 14.44.29s6.61.25 8.12.19c1.5-.05 3.59-.27 4.63-.47 1.65-.32 1.85-.53 1.46-1.57-.33-.91-1.38-1.55-4.09-2.53-2-.73-6.19-1.72-9.32-2.22-3.13-.49-8.67-1.19-12.3-1.55-3.64-.36-9.39-.72-12.78-.81-4.83-.11-7.02.06-10.04.83-2.12.53-4.83 1.52-6.02 2.19Z"/><path d="M0 10h5v5H0z" style="fill:none"/>
</g>
<g transform="translate(219.82499568420576 257.4995916989505) rotate(10 40.175004315794226 12.50040830104949) scale(-1 1) translate(-80.35000863158845 0)">
<path fill="#e9c67b" stroke="#000" d="M25.63 10.05c-1.19.67-3.29 2.29-4.68 3.61s-2.66 2.8-2.84 3.29-.13.96.1 1.04 3.5-.28 7.26-.79c3.76-.52 9.13-1.06 11.92-1.21 2.8-.15 9.17-.28 14.14-.29 4.98-.01 11.48.12 14.44.29s6.61.25 8.12.19c1.5-.05 3.59-.27 4.63-.47 1.65-.32 1.85-.53 1.46-1.57-.33-.91-1.38-1.55-4.09-2.53-2-.73-6.19-1.72-9.32-2.22-3.13-.49-8.67-1.19-12.3-1.55-3.64-.36-9.39-.72-12.78-.81-4.83-.11-7.02.06-10.04.83-2.12.53-4.83 1.52-6.02 2.19Z"/><path d="M0 10h5v5H0z" style="fill:none"/>
</g>
<g transform="translate(0 0) scale(-1 1) translate(-400 0)">
<path d="M170 430s10 20 30 20 30-20 30-20z" style="fill:#fff;stroke:#000;stroke-width:5"/>
</g>
<g transform="translate(140.84321577312707 292.352) scale(0.8 0.8) translate(14.789196056718229 19.411999999999992)">
<path fill="#f2d6cb" stroke="#000" stroke-width="5" d="M50 50s-20 60 9 55c0 0 29 5 9-55"/>
</g>
<g transform="scale(0.8380000000000001 1) translate(37.78872315035798 0)">
<path fill="#e9c67b" stroke="#000" stroke-width="4" d="M37.17 332.53c6.66-10.67 10.33-36.33 10.33-36.33s-11.67 7.13-22.67 9.66c10-13.33 22.92-52.06 22.92-52.06s-10.25 8.06-20.92 7.73c30.34-49.67 10.75-84.26 65.34-123 0 0-13.09-2.26-25.67-10.33 37.88-2.4 64.75-46.9 129.25-38.4 0 0-5.5-10.5-27-21.5 69.5-1 86.5 36.5 86.5 36.5s16.5-7.5 25 14c64.5 9.5 58.5 97 83 140-8.88-1.4-16.5-7.5-16.5-7.5s3.87 27.1 19.37 50.6c-9.5-2.75-21.29-10.04-21.29-10.04s8.29 22.29 11.55 28.79C344.12 315.9 333.75 300 333.75 300s-5.58 24.86-22 41.8c9.75-25.94 8.5-58 8.5-58l-15-31L310 200c-40-40-70.25-1.7-132.25-2.7-81.53-1.32-100 86.5-100 86.5s.08 21.73 7.75 56.73c-17-11.67-24.33-48.33-24.33-43.33s-12.67 31-24 35.33Z" class="shaggy"/><path fill="#e9c67b" d="M328 206s-8.75 49.7-46 71c20.25-32.2 8-77 8-77s-7.75 27.3-24 38c3.25-22.7-15.25-41.7-15.25-41.7S219.25 238.8 173 258c23.25-28.2 27-56 27-56s-31.25 37.3-55.75 47.8c19-28 23.5-54.5 23.5-54.5s-45 43.5-62.75 86.7c-5.25-26.2 6-70 6-70l14-54 137 2z" class="shaggyBangs"/><path fill="none" stroke="#000" stroke-width="4" d="M328 206s-8.75 49.7-46 71c20.25-32.2 8-77 8-77s-7.75 27.3-24 38c3.25-22.7-15.25-41.7-15.25-41.7S219.25 238.8 173 258c23.25-28.2 27-56 27-56s-31.25 37.3-55.75 47.8c19-28 23.5-54.5 23.5-54.5s-45 43.5-62.75 86.7c-5.25-26.2 6-70 6-70m3-22s32.25-4.8 76-55m-43 43s56.75 2.7 103-36m-110-3s38.75-54.3 93-34" class="shaggyLines"/>
</g>
</svg>