<svg xmlns="http://www.w3.org/2000/svg" version="1.2" baseProfile="tiny" width="100%" height="100%" viewBox="0 0 400 600" preserveAspectRatio="xMinYMin meet">
<g transform="scale(1.01 1) translate(-1.980198019801982 0)">
<path fill="#5c3937" stroke="#000" stroke-width="6" d="M10 600s0-50 60-70 70-50 70-50l60-180 60 180s10 30 70 50 60 70 60 70" class="body"/>
</g>
<g transform="scale(1.01 1) translate(-1.980198019801982 0)">
<path fill="#89bfd3" stroke="#000" stroke-width="6" d="M120 505c0 35 50 25 80 45 30-20 80-10 80-45 30-25 90-15 100-5s10.07 20.41 15 50c5 30 5 20 5 60H0c0-40 0-29.59 5-59.59 4.93-29.59 5-39.38 15-50.41 9.5-10.48 70-20 100 5Z" class="footballPrimary"/><path fill="#7a1319" stroke="#000" stroke-width="2" d="M120 505c0 35 50 25 80 45 30-20 80-10 80-45l15-10c5 60-55 45-95 75-40-30-100-15-95-75z" class="collarSecondary"/><path fill="#7a1319" stroke="#000" stroke-width="2" d="M120 540c-40 26.67-60 80-60 80h40s0-53.33 20-80Zm160 0c40 26.67 60 80 60 80h-40s0-53.33-20-80Z" class="Stallion"/><path fill="none" stroke="#000" stroke-width="6" d="M120 505c0 35 50 25 80 45 30-20 80-10 80-45 30-25 90-15 100-5s10.07 20.41 15 50c5 30 5 20 5 60H0c0-40 0-30 5-60 4.93-29.59 5-38.97 15-50 9.5-10.48 70-20 100 5Z" class="footballStroke"/><path fill="none" stroke="#000" stroke-width="2" d="M19.5 570s72.5-2.11 81.5-20m280 20s-71-2.11-80-20" class="shp3"/>
</g>
<g transform="translate(32 290.6) scale(0.89 0.89) translate(2.8426966292134828 4.251685393258427) translate(4.75 -3)">
<path fill="#5c3937" stroke="#000" stroke-width="6" d="M43 13S23 3 13 3 3 23 3 33s3 20 13 30 27-10 27-10z"/>
</g>
<g transform="translate(322 290.6) scale(-0.89 0.89) translate(-48.84269662921349 4.251685393258427) translate(4.75 -3)">
<path fill="#5c3937" stroke="#000" stroke-width="6" d="M43 13S23 3 13 3 3 23 3 33s3 20 13 30 27-10 27-10z"/>
</g>
<g transform="scale(0.9500000000000001 1) translate(10.526315789473669 0)">
<path fill="#5c3937" stroke="#000" stroke-width="6" d="M200 100c100 0 150 60 150 200 0 50-.51 71.54-10 100-10 30-80 70-90 80s-20 20-50 20-40-10-50-20-80-50-90-80c-9.49-28.46-10-50-10-100 0-140 50-200 150-200Z" class="head"/><path fill="rgba(0,0,0,0)" d="M200 410c30 0 50 10 50 10 30 0 90-15 90-120h10c0 50-.51 71.54-10 100-10 30-80 70-90 80s-20 20-50 20-40-10-50-20-80-50-90-80c-9.49-28.46-10-50-10-100h10c0 105 60 120 90 120 0 0 20-10 50-10" class="faceShave"/><path fill="rgba(0,0,0,0)" d="M60 300H50c0-140 50-200 150-200s150 60 150 200h-10v-10c0-5-10-20-15-25s-5-55-15-65c-40-40-60 0-110 0s-70-40-110 0c-10 10-10 60-15 65s-15 20-15 25z" class="headShave"/>
</g>
<g>
<path fill="none" stroke="#000" stroke-width="2" d="M240 340s25 10 40 0m-120 0s-25 10-40 0" class="eyeline4"/>
</g>
<g transform="scale(0.9500000000000001 1) translate(10.528289473684195 0)">
<path fill="#272421" stroke="#000" d="M341.86 329.762c-18.78 98.415-39.492 102.786-40.731 106.121-16.86 17.717-52.855 38.72-62.486 41.411-18.05 5.044-27.166 6.53-27.222 4.596-.084-2.842 0-14.947 0-14.947s-7.232-.02-11.188 0c-3.985.02-11.47 0-11.47 0s.03 11.263 0 14.947c-.022 2.551-15.622-.996-29.079-4.596-9.66-2.585-48.654-24.496-61.946-42.674-2.083-2.473-22.699-13.454-39.524-104.858h-10c6.25 93.092 30.023 116.409 32.351 120.951 0 0 44.861 57.484 119.668 57.548 75 .065 117.788-57.548 117.788-57.548 2.596-5.716 23.22-21.704 33.84-120.951z" class="shp0"/>
</g>
<g transform="translate(99.23500000000001 289.1206538286518) rotate(-2 40.76499999999999 20.879346171348168)">
<path d="M73.63 30.14S62.25 5.74 32.3 7.42C12.33 8.54 7.9 18.8 7.9 18.8l5.83 14.7c30.23 3.31 59.9-3.36 59.9-3.36" style="fill:#fff"/><path d="M40.63 30.99a9.99 9.99 0 0 0 9.42-10.55 9.985 9.985 0 0 0-10.54-9.42 10 10 0 0 0-9.43 10.54c.31 5.52 5.03 9.74 10.55 9.43" style="fill:#000"/><path d="M73.63 30.14S72.51 10.17 32.3 7.42C12.33 8.54 7.9 18.8 7.9 18.8l5.83 14.7" style="fill:none;stroke:#000;stroke-width:5"/>
</g>
<g transform="translate(219.235 289.1206538286518) rotate(2 40.76499999999999 20.879346171348168) scale(-1 1) translate(-81.52999999999999 0)">
<path d="M73.63 30.14S62.25 5.74 32.3 7.42C12.33 8.54 7.9 18.8 7.9 18.8l5.83 14.7c30.23 3.31 59.9-3.36 59.9-3.36" style="fill:#fff"/><path d="M40.63 30.99a9.99 9.99 0 0 0 9.42-10.55 9.985 9.985 0 0 0-10.54-9.42 10 10 0 0 0-9.43 10.54c.31 5.52 5.03 9.74 10.55 9.43" style="fill:#000"/><path d="M73.63 30.14S72.51 10.17 32.3 7.42C12.33 8.54 7.9 18.8 7.9 18.8l5.83 14.7" style="fill:none;stroke:#000;stroke-width:5"/>
</g>
<g transform="translate(101.88888888888889 258.62629757785464) rotate(-5 38.111111111111114 11.373702422145328)">
<path fill="#272421" stroke="#000" d="M71 21c8-8 0-12 0-12S43 5 35 5C25 5 7 1 7 1S-5 5 7 17c16 4 8 0 28 0 32 0 33 7 36 4Z"/>
</g>
<g transform="translate(221.88888888888889 258.62629757785464) rotate(5 38.111111111111114 11.373702422145328) scale(-1 1) translate(-76.22222222222223 0)">
<path fill="#272421" stroke="#000" d="M71 21c8-8 0-12 0-12S43 5 35 5C25 5 7 1 7 1S-5 5 7 17c16 4 8 0 28 0 32 0 33 7 36 4Z"/>
</g>
<g transform="translate(0 0)">
<path d="M170 430s10 20 30 20 30-20 30-20z" style="fill:#fff;stroke:#000;stroke-width:5"/>
</g>
<g transform="translate(144.4115 264.9735) scale(0.86 0.86) translate(9.049290697674419 17.097337209302328)">
<path fill="#5c3937" stroke="#000" stroke-width="5" d="M40.3 99.804c2.56 5.426 7.286 9.34 15.292 10.445 8.532-1.475 12.386-4.548 15.285-10.378"/>
</g>
<g transform="scale(-1 1) translate(-401.22449806051713 0) scale(0.9500000000000001 1) translate(10.558539422645174 0)">
<path fill="#272421" stroke="#000" stroke-width="5" d="M185 76.42c-2.48.71-5.63 1.74-7 2.3-1.38.56-3.85 2.13-5.5 3.48-1.65 1.36-5.7 4.34-9 6.64s-8.25 5.77-11 7.71c-3.51 2.48-6.04 3.51-8.5 3.47-1.93-.03-5.3.57-7.5 1.34-2.2.78-8.95 2.18-15 3.12-6.05.95-13.93 2.39-17.5 3.21-3.58.82-8.53 2.52-11 3.78-2.5 1.27-6.18 4.45-8.3 7.16-2.39 3.07-4.54 7.46-5.81 11.87-1.1 3.85-3.33 11.05-4.95 16s-3.85 13.72-4.95 19.5c-1.29 6.71-2.87 11.76-4.37 14-1.29 1.92-6.25 8-11.01 13.5-5.96 6.87-9.96 12.66-12.81 18.5-3.02 6.22-4.25 10.11-4.57 14.5-.3 4.21.35 9.44 2.2 17.5 2.18 9.54 2.45 12.27 1.62 16-.55 2.47-1.91 6.86-3.02 9.75-1.12 2.89-2.31 7.61-2.65 10.5-.33 2.89-.12 7.72.49 10.75.75 3.73 2.31 7.04 4.87 10.29 2.07 2.63 4.21 4.95 4.76 5.15s3.47-.46 6.5-1.47c3.02-1.01 6.42-2.88 7.55-4.15 1.12-1.28 3.08-5.02 4.34-8.32s2.93-8.93 3.71-12.5c.88-4.04 2.45-7.77 4.16-9.84 1.51-1.84 3.5-4.54 4.42-6 1.09-1.71 2.8-10.34 4.79-24.16 1.71-11.83 3.56-23.3 4.12-25.5.55-2.2 1.42-5.13 1.93-6.5.51-1.38 3.53-4.78 6.7-7.56 3.18-2.78 9.83-7.8 14.78-11.15 6.91-4.68 10.16-6.24 14-6.75 3.19-.42 7.71-.09 12.5.91 4.12.87 13.57 3.81 21 6.53 7.42 2.73 17.77 5.9 23 7.06 5.22 1.16 10.4 2.27 11.5 2.47s4.14 2.19 6.75 4.43c3.82 3.27 5.08 5.18 6.43 9.81.93 3.16 2.5 6.54 3.5 7.5s2.61 1.76 3.57 1.77c.96 0 5.8-1.97 10.75-4.4 4.95-2.42 12.61-6.59 17.02-9.26s12.29-8.09 17.5-12.04c6.1-4.63 10.1-8.46 11.23-10.75 1.32-2.7 2.54-3.71 5-4.15 1.79-.32 5.95-.09 9.25.5s8.92 2.52 12.5 4.29c4.02 1.98 9.02 5.7 13.11 9.75 5.37 5.31 6.92 7.57 8.22 12.04.88 3.02 2.28 9.1 3.12 13.5s2.45 14.97 3.59 23.5c1.31 9.87 2.71 16.59 3.84 18.5.98 1.65 2.08 6.04 2.45 9.75s2.03 10.46 3.7 15c1.66 4.54 4.11 9.82 5.43 11.75 1.32 1.92 3.98 4.4 5.92 5.5 3.08 1.75 3.99 1.85 7.32.8 3.05-.96 4.64-2.5 8.05-7.75 2.34-3.6 4.7-8.58 5.25-11.05.55-2.48 1.67-5.85 2.5-7.5.97-1.94 1.5-5.91 1.5-11.25-.01-7.47-.34-8.89-3.5-15-2.44-4.71-3.49-8.04-3.46-11 .03-2.34.7-6.05 1.49-8.25s1.45-6.93 1.47-10.5c.02-3.58.68-9.2 1.48-12.5s1.47-7.58 1.5-9.5c.04-2.67-.72-4.26-3.21-6.71-1.8-1.76-7.09-5.81-11.76-9-6.74-4.6-9.56-7.33-13.71-13.29-2.88-4.13-5.89-9.3-6.69-11.5-.81-2.2-1.7-5.13-1.98-6.5-.28-1.38-3.4-6.78-6.93-12-3.53-5.23-8.64-14-11.36-19.5s-6.17-11.8-7.67-14c-1.51-2.2-4.86-5.74-7.45-7.88-2.6-2.13-6.66-4.83-9.02-6-4.03-1.98-4.78-2.04-11.75-.87-6.87 1.15-7.82 1.09-12.2-.77-2.61-1.12-6.33-2.02-8.25-2.01-1.93.01-5.3-.47-7.5-1.06-2.2-.6-7.83-2.8-12.5-4.9-4.68-2.09-12.1-4.96-16.5-6.38s-11.26-3.27-15.25-4.11c-3.99-.83-8.49-1.49-10-1.45-1.51.03-4.78.64-7.25 1.35Z"/>
</g>
<g transform="scale(0.9500000000000001 1) translate(10.552631578947354 0)">
<path d="m100 356 6-6h47l6 6v9l-6 5h-47l-6-6zm148 14-6-6v-8l6-6h47l6 6v8l-6 6z" style="fill:#000"/>
</g>
</svg>