<svg xmlns="http://www.w3.org/2000/svg" version="1.2" baseProfile="tiny" width="100%" height="100%" viewBox="0 0 400 600" preserveAspectRatio="xMinYMin meet">
<g transform="scale(1.03 1) translate(-5.825242718446607 0)">
<path fill="#ad6453" stroke="#000" stroke-width="6" d="M10 600s-10-70 50-70c10 0 0-10 60-20 0 0 50-210 80-210s80 210 80 210c60 10 50 20 60 20 60 0 50 70 50 70"/><path d="M71 545s46.9-3 82.1 10M329 545s-46.9-3-82.1 10m77.1-18s5.5-7.5 22-7m-271 7s-5.5-7.5-22-7"/>
</g>
<g transform="scale(1.03 1) translate(-5.825242718446607 0)">
<g stroke="#000"><path fill="#89bfd3" stroke-width="6" d="M120 505c0 20 50 15 80 35 30-20 80-15 80-35 0 0 50-5 80 5 0 0 20 10 30 40s10 60 10 60H0s0-30 10-60 30-40 30-40c30-10 80-5 80-5Z" class="hockeyPrimary"/><path fill="#7a1319" stroke-width="none" d="m0 600 400 1.8-2-11.8s-8 5-18 5c-40-20-70-30-180-30C80 565 2 590 2 590z" class="lowStripe"/><path fill="#07364f" d="M4.5 577.03S10 580 20 580c30-15 110-20 180-20 90 0 150 5 180 20 10 0 17-2.97 17-2.97l1 12.97s-8 5-18 5c-40-20-110-22.48-180-22.48-80 0-150 2.48-180 22.48-10 0-18-5-18-5z" class="stripeAccent"/><path fill="#07364f" stroke-width="2" d="M120 505c0 20 50 15 80 30 30-15 80-10 80-30l15-1c0 41-40 21-95 56-55-35-95-15-95-56z" class="collarAccent"/><path fill="none" stroke-width="6" d="M120 505c0 20 50 15 80 35 30-20 80-15 80-35 0 0 50-5 80 5 0 0 20 10 30 40s10 60 10 60H0s0-30 10-60 30-40 30-40c30-10 80-5 80-5Z" class="hockeyStroke"/><path fill="#7a1319" stroke-width="2" d="M180 528.21h40l10 17.05L200 564l-30-18.74z" class="shieldSecondary"/></g>
</g>
<g transform="translate(32 293.3) scale(1.06 1.06) translate(-1.3018867924528312 -1.7943396226415111) translate(2.2700000000000014 -3)">
<path fill="#ad6453" stroke="#000" stroke-width="6" d="M43 8S3-12 3 28c0 45 40 30 40 30z"/>
</g>
<g transform="translate(322 293.3) scale(-1.06 1.06) translate(-44.69811320754717 -1.7943396226415111) translate(2.2700000000000014 -3)">
<path fill="#ad6453" stroke="#000" stroke-width="6" d="M43 8S3-12 3 28c0 45 40 30 40 30z"/>
</g>
<g transform="scale(0.9660000000000001 1) translate(7.039337474120066 0)">
<path fill="#ad6453" stroke="#000" stroke-width="6" d="M200 100c100 0 150 60 150 200 0 20-5 100-25 130-10 20-45 50-85 55-5 5-15 15-40 15s-35-10-40-15c-35-5-75-35-85-55-20-30-25-110-25-130 0-140 50-200 150-200Z" class="head"/><path fill="rgba(0,0,0,0)" d="M200 410c30 0 50 10 50 10 30 0 90-15 90-120h10c0 20-5 100-25 130-10 20-45 50-85 55-5 5-15 15-40 15s-35-10-40-15c-35-5-75-35-85-55-20-30-25-110-25-130h10c0 105 60 120 90 120 0 0 20-10 50-10" class="faceShave"/><path fill="rgba(0,0,0,0)" d="M60 300H50c0-140 50-200 150-200s150 60 150 200h-10v-10c0-5-10-20-15-25s-5-55-15-65c-40-40-60 0-110 0s-70-40-110 0c-10 10-10 60-15 65s-15 20-15 25z" class="headShave"/>
</g>
<g transform="translate(140.5 420.5) scale(0.33 0.33) translate(19.287878787878785 29.439393939393938)">
<path fill="none" stroke="#000" stroke-width="2" d="M17 2 2 12l5 15" class="shp0"/>
</g>
<g transform="translate(240.5 420.5) scale(-0.33 0.33) translate(-38.28787878787879 29.439393939393938)">
<path fill="none" stroke="#000" stroke-width="2" d="M17 2 2 12l5 15" class="shp0"/>
</g>
<g>
<path fill="none" stroke="#000" stroke-width="2" d="M155 220s35 0 45 5c10-5 45-5 45-5"/>
</g>
<g transform="scale(0.9660000000000001 1) translate(7.039337474120066 0)">
<path fill="#272421" stroke="#000" d="M340 300c0 105-85 140-85 140s-5 30-15 30c-30 0-30-10-40-10s-10 10-40 10c-10 0-15-30-15-30s-85-35-85-140H50c0 105 20 140 20 140s55 80 130 80 130-80 130-80 20-35 20-140z" class="shp0"/>
</g>
<g transform="translate(101 299.4999966529182) rotate(-9 39 10.500003347081822)">
<path d="M74 18 69 3H4l5 15z" style="fill:#fff;stroke:#000;stroke-width:5"/><path d="M38.5 18a7.49 7.49 0 0 1-7.5-7.5C31 6.35 34.35 3 38.5 3S46 6.35 46 10.5 42.65 18 38.5 18Z" style="fill:#000;stroke:#000;stroke-width:5"/>
</g>
<g transform="translate(221 299.4999966529182) rotate(9 39 10.500003347081822) scale(-1 1) translate(-78 0)">
<path d="M74 18 69 3H4l5 15z" style="fill:#fff;stroke:#000;stroke-width:5"/><path d="M38.5 18a7.49 7.49 0 0 1-7.5-7.5C31 6.35 34.35 3 38.5 3S46 6.35 46 10.5 42.65 18 38.5 18Z" style="fill:#000;stroke:#000;stroke-width:5"/>
</g>
<g transform="translate(-127.5 -8.774999999999977) rotate(-3 267.5 278.775)">
<path fill="#272421" stroke="#000" d="m235 280 65 5-5-12.45-55 2.45z"/>
</g>
<g transform="translate(-7.5 -8.774999999999977) rotate(3 267.5 278.775) scale(-1 1) translate(-535 0)">
<path fill="#272421" stroke="#000" d="m235 280 65 5-5-12.45-55 2.45z"/>
</g>
<g transform="translate(169 428)">
<path d="m1 22 60-10L51 2" style="fill:none;stroke:#000;stroke-width:5"/>
</g>
<g transform="translate(150.27785841680208 317.5) scale(-0.65 0.65) translate(-126.217744018887 28.269230769230766)">
<path fill="#ad6453" stroke="#000" stroke-width="5" d="M36.03 47c-19.25.25-26.57 32.37-4.37 27.13 9-2.13 8.25 4.12 18.12 4.37 9.5.24 5.75-6.12 16.38-3.25 22.01 5.96 18.75-28-.21-28.02M50 55.6S51.25 45 51.25 35 50 5 50 5" class="nose"/><path d="M40 95h20v5H40z" style="fill:none"/>
</g>
<g transform="scale(0.9660000000000001 1) translate(7.039337474120066 0)">
<path fill="#272421" stroke="#000" stroke-width="4" d="M60 310H50v-10C50 110 40 90 60 90h280c20 0 10 20 10 210v10h-10v-20c0-5-10-20-15-25s-5-55-15-65-60 0-110 0-100-10-110 0-10 60-15 65-15 20-15 25z"/>
</g>
</svg>