<svg xmlns="http://www.w3.org/2000/svg" version="1.2" baseProfile="tiny" width="100%" height="100%" viewBox="0 0 400 600" preserveAspectRatio="xMinYMin meet">
<g transform="scale(1.03 1) translate(-5.8252427184466065 0)">
<path fill="#bb876f" stroke="#000" stroke-width="6" d="M5 600s-5-60 35-70c0 0 40 0 90-30l70-200 70 200c50 30 90 30 90 30 40 10 35 70 35 70" class="body"/>
</g>
<g transform="scale(1.03 1) translate(-5.825242718446607 0)">
<g stroke="#000"><path fill="#89bfd3" stroke-width="6" d="M120 505c0 20 50 15 80 35 30-20 80-15 80-35 0 0 50-5 80 5 0 0 20 10 30 40s10 60 10 60H0s0-30 10-60 30-40 30-40c30-10 80-5 80-5Z" class="hockeyPrimary"/><path fill="#07364f" d="M4.5 577.03S10 580 20 580c30-15 110-20 180-20 90 0 150 5 180 20 10 0 17-2.97 17-2.97l1 12.97s-8 5-18 5c-40-20-110-22.48-180-22.48-80 0-150 2.48-180 22.48-10 0-18-5-18-5z" class="stripeAccent"/><path fill="#7a1319" stroke-width="2" d="M172.5 545.53c-110-4.5-152 22.5-152 22.5s-9 1-14.5-5c15-48 34-53.03 34-53.03s50-5 80-5c0 20 52.5 40.53 52.5 40.53Zm55 0c110-4.5 152 22.5 152 22.5s9 1 14.5-5c-15-48-34-53.03-34-53.03s-50-5-80-5c0 20-52.5 40.53-52.5 40.53Z" class="shoulderSecondary"/><path fill="#07364f" stroke-width="2" d="M120 505c0 20 50 15 80 30 30-15 80-10 80-30l15-1c0 41-40 21-95 56-55-35-95-15-95-56z" class="collarAccent"/><path fill="none" stroke-width="6" d="M120 505c0 20 50 15 80 35 30-20 80-15 80-35 0 0 50-5 80 5 0 0 20 10 30 40s10 60 10 60H0s0-30 10-60 30-40 30-40c30-10 80-5 80-5Z" class="hockeyStroke"/><path fill="#7a1319" stroke-width="2" d="M180 528.21h40l10 17.05L200 564l-30-18.74z" class="shieldSecondary"/></g>
</g>
<g transform="translate(33.53553390593274 291.01362954285077) scale(0.88 0.88) translate(2.9269726491909904 4.6345050623385315) translate(27.761067811865477 -2.979591836734694)">
<path fill="#bb876f" stroke="#000" stroke-width="6" d="M40 14S10-1 5 4s0 30 5 40-5 25 30 20z"/>
</g>
<g transform="translate(323.53553390593277 291.01362954285077) scale(-0.88 0.88) translate(-45.85590483732551 4.6345050623385315) translate(27.761067811865477 -2.979591836734694)">
<path fill="#bb876f" stroke="#000" stroke-width="6" d="M40 14S10-1 5 4s0 30 5 40-5 25 30 20z"/>
</g>
<g transform="scale(0.802 1) translate(49.37655860349126 0)">
<path fill="#bb876f" stroke="#000" stroke-width="6" d="M200 100c100 0 150 60 150 200 0 120-10 150-110 190 0 0-20 10-40 10s-40-10-40-10C60 450 50 420 50 300c0-140 50-200 150-200Z" class="head"/><path fill="rgba(0,0,0,0.04)" d="M60 300H50c0-140 50-200 150-200s150 60 150 200h-10v-10c0-5-10-20-15-25s-5-55-15-65c-40-40-60 0-110 0s-70-40-110 0c-10 10-10 60-15 65s-15 20-15 25z" class="headShave"/><path fill="rgba(0,0,0,0.04)" d="M200 410c30 0 50 10 50 10 30 0 90-15 90-120h10c0 120-10 150-110 190 0 0-20 10-40 10s-40-10-40-10C60 450 50 420 50 300h10c0 105 60 120 90 120 0 0 20-10 50-10" class="faceShave"/>
</g>
<g>
<path fill="none" stroke="#000" stroke-width="2" d="M200 467.37V480"/>
</g>
<g transform="scale(0.802 1) translate(49.37655860349126 0)">
<path fill="#272421" stroke="#000" d="M200 450c20 0 10 30 20 30s35-5 45-15c20-20 30-30 40-30 0 70-65 80-105 80S95 505 95 435c10 0 20 10 40 30 10 10 35 15 45 15s0-30 20-30Zm-50-25c-5-5 25-20 35-20 5 0 10 5 15 5s10-5 15-5c10 0 40 15 35 20s-5-5-50-5-45 10-50 5Z" class="shp0"/><path fill="#272421" fill-rule="evenodd" stroke="#000" d="M60 300H50s-3.85 100.38 25 110c15 5 35 15 40 10 20-20-5-25-5-25s-50-20-50-95Zm280 0h10s3.85 100.38-25 110c-15 5-35 15-40 10-20-20 5-25 5-25s50-20 50-95Z" class="shp0"/>
</g>
<g transform="translate(-129.75510204081633 -22) rotate(6 269.7551020408163 332)">
<path d="M240 340c0-4-6-20 24-20 20 0 36 8 36 12s-12 12-20 12c-4 0-40 0-40-4Z" style="fill:#fff;stroke:#000;stroke-width:5"/><path d="M268 340c-3.32 0-6-3.58-6-8s2.68-8 6-8 6 3.58 6 8-2.68 8-6 8Z" style="fill:#000;stroke:#000;stroke-width:5"/>
</g>
<g transform="translate(-9.755102040816325 -22) rotate(-6 269.7551020408163 332) scale(-1 1) translate(-539.5102040816327 0)">
<path d="M240 340c0-4-6-20 24-20 20 0 36 8 36 12s-12 12-20 12c-4 0-40 0-40-4Z" style="fill:#fff;stroke:#000;stroke-width:5"/><path d="M268 340c-3.32 0-6-3.58-6-8s2.68-8 6-8 6 3.58 6 8-2.68 8-6 8Z" style="fill:#000;stroke:#000;stroke-width:5"/>
</g>
<g transform="translate(101.91746012211166 257.0658529346995) rotate(8 38.082539877888344 12.934147065300508)">
<path fill="#272421" stroke="#000" d="M74.17 18.39c5.31-3.87-1.66-7.27-1.66-7.27s-20.66-2.78-26.56-3.1c-7.56-.72-22.76-1.1-22.76-1.1S10.98 10 18.3 16.95c10.59 2.96 14.71-1.32 31.19-.91 16.85.28 21.74 4.37 24.68 2.35Z"/><path d="M0 10h5v5H0z" style="fill:none"/>
</g>
<g transform="translate(221.91746012211166 257.0658529346995) rotate(-8 38.082539877888344 12.934147065300508) scale(-1 1) translate(-76.16507975577669 0)">
<path fill="#272421" stroke="#000" d="M74.17 18.39c5.31-3.87-1.66-7.27-1.66-7.27s-20.66-2.78-26.56-3.1c-7.56-.72-22.76-1.1-22.76-1.1S10.98 10 18.3 16.95c10.59 2.96 14.71-1.32 31.19-.91 16.85.28 21.74 4.37 24.68 2.35Z"/><path d="M0 10h5v5H0z" style="fill:none"/>
</g>
<g transform="translate(0 0) scale(-1 1) translate(-400 0)">
<path d="M170 430s10 20 30 20 30-20 30-20z" style="fill:#fff;stroke:#000;stroke-width:5"/>
</g>
<g transform="translate(0 -12.5) scale(-0.5 0.5) translate(-600 382.5)">
<path fill="#bb876f" stroke="#000" stroke-width="5" d="M175 370c-20 0-5 25 5 15 5-5 15 10 20 10s15-15 20-10c10 10 25-15 5-15" class="nose"/>
</g>
<g transform="scale(0.802 1) translate(49.27161742003925 0)">
<path fill="#272421" stroke="#000" stroke-width="4" d="M178.27 84.63c-1.7.39-3.73.99-4.51 1.33-.78.35-3.17 1-5.31 1.44s-4.7 1.45-5.67 2.23c-.98.79-3.05 1.7-4.62 2.03-1.55.33-5.18 1.33-8.06 2.23-2.87.91-6.09 2.38-7.12 3.25-1.05.89-3.02 2.03-4.39 2.55-1.38.51-3.14.78-3.92.59-.77-.19-2.85.21-4.62.88-1.77.68-4.02 1.43-5 1.68-.98.24-2.91 1.09-4.3 1.87-1.39.79-2.84 1.44-3.23 1.45s-1.77.69-3.05 1.5c-1.3.83-2.51 1.51-2.71 1.51s-1.9.86-3.78 1.9c-1.89 1.05-4.22 2.62-5.17 3.48-.96.87-2.05 2.33-2.43 3.24-.66 1.58-.91 1.66-4.45 1.52-3.15-.13-4.16.11-6.4 1.52-1.79 1.13-2.81 2.3-3.14 3.63-.27 1.08-1.22 3.74-2.11 5.91-1.39 3.4-2.42 4.63-7.51 9.03-3.22 2.8-7.19 6.22-8.82 7.58-2.13 1.79-3.18 3.26-3.73 5.21-.43 1.5-1.2 4.5-1.72 6.67s-.99 4.35-1.07 4.85c-.07.5-1.41 2.01-2.97 3.34-2.3 2.01-2.83 2.88-2.97 4.87-.1 1.33-.15 2.83-.1 3.33.04.5-.78 1.73-1.82 2.74-1.04 1-2.11 2.37-2.38 3.04-.28.67-.83 3.54-1.22 6.37-.38 2.84-.69 6.39-.68 7.89.01 2.3-.47 3.45-2.99 7.3-1.6 2.51-3.1 5.53-3.32 6.7-.24 1.17-.11 3.62.26 5.45.63 3.04.57 3.56-.54 5.93-.65 1.42-1.18 3.61-1.18 4.86.02 1.25.35 3.09.75 4.08.62 1.62.56 2.13-.61 4.57-.72 1.5-1.29 3.48-1.28 4.4 0 .92.27 2.43.59 3.33.33.92.95 2.07 1.4 2.58.53.58.9 2.67 1.07 6.06.15 2.92-.01 6.34-.37 7.89-.43 1.89-.45 3.1-.06 3.94.31.67.37 1.63.12 2.13s-.59 2.76-.77 5.01c-.2 2.55-.07 4.62.32 5.46.38.78.65 4.2.64 8.05.01 5.12.27 7.38 1.12 9.71.64 1.67 1.34 4.41 1.58 6.08s.89 3.53 1.45 4.13c.57.59 1.66 1.08 2.41 1.07.77 0 2.61-.83 4.11-1.83 1.49-1 3.01-1.82 3.37-1.82s1.31-.69 2.13-1.52c.8-.84 1.43-2.01 1.39-2.59-.04-.59 1.01-2.31 2.34-3.81 1.34-1.51 2.55-3.23 2.7-3.82.14-.59.62-1.06 1.06-1.05.43.01 1.95-1.37 3.38-3.06s2.72-3.83 2.85-4.75c.14-.92.62-1.81 1.07-1.96.45-.14 1.31-.77 1.92-1.37.66-.66 1.21-2.51 1.38-4.62.16-1.92.83-4.61 1.47-5.94.64-1.35 1.03-2.79.87-3.21s.61-1.93 1.73-3.35c1.62-2.08 1.95-2.97 1.59-4.43-.24-1-.42-2.24-.41-2.74.02-.5.18-1.87.38-3.04.19-1.17.56-3.36.81-4.87.26-1.55 1.17-3.46 2.1-4.42.93-.95 1.65-2.46 1.67-3.5.03-1-.4-2.85-.93-4.09-.53-1.25-.95-2.62-.92-3.04.02-.42.82-1.58 1.78-2.58 1.3-1.34 1.78-2.52 1.84-4.41.04-1.6.5-2.93 1.19-3.5.62-.5 1.15-1.66 1.18-2.58.02-.92-.23-2.14-.57-2.72-.42-.73-.19-2 .74-4.09.75-1.67 2.41-4.2 3.73-5.62 2.07-2.24 2.63-2.54 4.29-2.2 1.05.2 2.07.46 2.26.56s1.31-.1 2.5-.43a66 66 0 0 1 3.61-.89c.8-.15 2.59-.58 4.01-.95 1.41-.39 3.39-1.03 4.41-1.45 1.6-.66 2.22-.59 4.35.45 1.54.75 3.2 1.1 4.34.89 1.03-.19 4.01.05 6.63.51 4.22.76 5.2 1.23 8.04 3.82 2.33 2.1 4.18 3.14 6.46 3.61 2.31.47 3.8.46 5.34-.01 1.16-.37 3.09-1.32 4.28-2.13 1.58-1.06 2.5-1.31 3.47-.92.73.3 2.7.73 4.39.95 1.7.22 3.42.57 3.84.79s2.33.59 4.24.82c1.91.24 4.7.69 6.19 1.01 1.93.4 3.62.35 5.85-.22 1.71-.44 4.35-.97 5.85-1.16 2.13-.28 3.08-.08 4.29.89.86.69 2.96 1.41 4.69 1.62 2.13.25 3.93.05 5.67-.61 1.39-.54 3.15-1.8 3.89-2.8.86-1.16 1.98-1.81 3.1-1.81.96 0 1.88.2 2.05.45s1.48.62 2.92.82c1.66.23 4.12-.03 6.68-.75 2.22-.6 4.48-1.1 5.01-1.1.53.01 2.16-.92 3.61-2.07 2.28-1.82 2.89-2.01 4.57-1.48 1.06.33 2.79.54 3.83.46 1.06-.07 3.73.6 5.97 1.49 2.23.9 4.91 1.64 5.95 1.64 1.03 0 2.65-.31 3.56-.69.92-.38 2.73-1.46 4.03-2.41 1.32-.96 2.77-1.54 3.31-1.31.51.22 3.63.48 6.89.59 4.69.15 6.34-.03 8.03-.9 1.81-.93 2.42-.99 4-.35 1.01.41 3 1.06 4.41 1.44 1.4.38 3.2.81 4 .97.79.15 2.42.55 3.61.89 1.19.33 2.31.52 2.51.42.18-.1 1.2-.35 2.26-.56 1.65-.33 2.21-.04 4.29 2.2 1.3 1.42 2.97 3.95 3.72 5.62.92 2.1 1.15 3.36.72 4.09-.33.58-.59 1.81-.57 2.72.02.92.54 2.08 1.17 2.58.7.57 1.15 1.9 1.19 3.5.04 1.89.53 3.07 1.82 4.4.97 1 1.77 2.17 1.79 2.58.02.42-.4 1.79-.94 3.04-.53 1.24-.96 3.09-.94 4.09.02 1.04.73 2.54 1.67 3.49.92.96 1.81 2.87 2.08 4.42.25 1.5.61 3.69.8 4.85.19 1.17.35 2.54.37 3.04.01.5-.19 1.73-.43 2.73-.36 1.46-.05 2.35 1.58 4.42 1.12 1.43 1.88 2.93 1.71 3.35-.15.42.23 1.85.87 3.2.64 1.33 1.29 4 1.44 5.93.16 2.1.71 3.94 1.38 4.6.61.6 1.47 1.22 1.91 1.37.46.15.94 1.03 1.07 1.95.13.91 1.42 3.05 2.85 4.74 1.42 1.68 2.96 3.06 3.39 3.05.44-.01.92.46 1.06 1.04.15.59 1.37 2.31 2.71 3.81 1.34 1.51 2.4 3.22 2.35 3.81-.04.58.6 1.74 1.42 2.59.84.83 1.8 1.52 2.15 1.52.34 0 1.86.82 3.37 1.82s3.38 1.83 4.15 1.84c.76.02 1.86-.46 2.44-1.05.56-.6 1.23-2.45 1.47-4.12s.96-4.41 1.59-6.08c.87-2.32 1.14-4.58 1.14-9.7 0-3.84.27-7.26.64-8.04.4-.84.53-2.91.34-5.46-.18-2.25-.52-4.51-.77-5.01s-.2-1.46.12-2.13c.39-.83.37-2.04-.07-3.93-.36-1.55-.51-4.97-.36-7.9.17-3.38.54-5.47 1.08-6.06.44-.5 1.07-1.66 1.39-2.58.33-.9.59-2.54.59-3.63-.01-1.09-.59-3.07-1.32-4.4-1.22-2.24-1.27-2.59-.56-4.41.43-1.08.77-2.92.77-4.09s-.55-3.28-1.21-4.7c-1.12-2.36-1.16-2.88-.54-5.93.38-1.83.5-4.28.27-5.45-.22-1.17-1.72-4.18-3.32-6.69-2.52-3.84-3-4.99-2.99-7.29.01-1.51-.3-5.05-.68-7.89-.39-2.84-.94-5.7-1.21-6.37-.28-.67-1.35-2.03-2.39-3.04s-1.86-2.24-1.82-2.74.01-1.99-.08-3.33c-.13-2.07-.64-2.85-3.49-5.31-1.85-1.59-3.4-3.3-3.42-3.8s-.48-1.53-1.03-2.28c-.56-.75-1.29-2.73-1.65-4.39-.42-2.01-1.29-3.65-2.58-4.86-1.1-1.03-2.18-2.87-2.49-4.24-.31-1.34-1.26-3.04-2.1-3.8-.85-.76-2.44-1.71-3.55-2.12-1.09-.42-2.22-1.41-2.52-2.22-.29-.8-1.42-2.1-2.51-2.88s-2.85-1.41-3.9-1.4c-1.05.02-2.29-.32-2.74-.76-.45-.43-1.09-1.59-1.42-2.59-.34-1.01-2.05-3.05-3.8-4.55-1.76-1.5-4.63-4.03-6.37-5.64-1.74-1.6-3.8-3.06-4.59-3.25-.78-.19-2.75-1.53-4.37-2.98-1.97-1.76-4.46-3.16-7.6-4.25-2.56-.87-5.94-1.82-7.51-2.09-1.56-.27-4.13-.78-5.71-1.13-1.56-.36-3.67-1.33-4.67-2.15-.99-.84-2.2-1.52-2.7-1.53-.48-.01-1.95-1.14-3.24-2.51-1.3-1.39-3.24-2.89-4.32-3.33-1.09-.46-4.09-.82-6.74-.81-4.72.01-4.83-.03-8.18-2.74-2.72-2.2-3.84-2.72-5.69-2.63s-2.85-.38-5.14-2.4c-2.36-2.08-3.31-2.51-5.67-2.55-1.95-.03-3.44.38-4.82 1.33-1.98 1.38-2 1.38-2.9.17-.49-.66-2.62-1.84-4.73-2.62l-3.82-1.42-6.72 2.53c-6.04-2.25-7.52-2.42-10.61-2.11-2.14.22-5.05.15-6.46-.16-1.71-.37-3.59-.33-5.66.15Z"/>
</g>
</svg>