<svg xmlns="http://www.w3.org/2000/svg" version="1.2" baseProfile="tiny" width="100%" height="100%" viewBox="0 0 400 600" preserveAspectRatio="xMinYMin meet">
<g transform="scale(1.03 1) translate(-5.825242718446607 0)">
<path fill="#f2d6cb" stroke="#000" stroke-width="6" d="M10 600s0-50 60-70 70-50 70-50l60-180 60 180s10 30 70 50 60 70 60 70" class="body"/>
</g>
<g transform="scale(1.03 1) translate(-5.825242718446607 0)">
<path fill="#89bfd3" stroke="#000" stroke-width="6" d="M120 505c0 35 50 25 80 45 30-20 80-10 80-45 30-25 90-15 100-5s10.07 20.41 15 50c5 30 5 20 5 60H0c0-40 0-29.59 5-59.59 4.93-29.59 5-39.38 15-50.41 9.5-10.48 70-20 100 5Z" class="footballPrimary"/><path fill="#7a1319" stroke="#000" stroke-width="2" d="M120 505c0 35 50 25 80 45 30-20 80-10 80-45l15-10c5 60-55 45-95 75-40-30-100-15-95-75z" class="collarSecondary"/><path fill="#7a1319" stroke="#000" stroke-width="2" d="m20 500 15 80 5-88.8-10 3.07zm360 0-15 80-5-88.8 10 3.07z" class="Sparta"/><path fill="none" stroke="#000" stroke-width="6" d="M120 505c0 35 50 25 80 45 30-20 80-10 80-45 30-25 90-15 100-5s10.07 20.41 15 50c5 30 5 20 5 60H0c0-40 0-30 5-60 4.93-29.59 5-38.97 15-50 9.5-10.48 70-20 100 5Z" class="footballStroke"/><path fill="none" stroke="#000" stroke-width="2" d="M19.5 570s72.5-2.11 81.5-20m280 20s-71-2.11-80-20" class="shp3"/>
</g>
<g transform="translate(33.53553390593274 291.01362954285077) scale(0.87 0.87) translate(3.207334014056028 5.0784231717579305) translate(17.531067811865473 -2.979591836734694)">
<path fill="#f2d6cb" stroke="#000" stroke-width="6" d="M40 14S10-1 5 4s0 30 5 40-5 25 30 20z"/>
</g>
<g transform="translate(323.53553390593277 291.01362954285077) scale(-0.87 0.87) translate(-46.136266202190555 5.0784231717579305) translate(17.531067811865473 -2.979591836734694)">
<path fill="#f2d6cb" stroke="#000" stroke-width="6" d="M40 14S10-1 5 4s0 30 5 40-5 25 30 20z"/>
</g>
<g transform="scale(0.8680000000000001 1) translate(30.414746543778772 0)">
<path fill="#f2d6cb" stroke="#000" stroke-width="6" d="M200 100c100 0 150 60 150 200 0 70-30 120-40 130l-60 60s-20 10-50 10-50-10-50-10l-60-60c-10-10-40-60-40-130 0-140 50-200 150-200Z" class="head"/><path fill="rgba(0,0,0,0)" d="M200 410c30 0 50 10 50 10 30 0 90-15 90-120h10c0 70-30 120-40 130l-60 60s-20 10-50 10-50-10-50-10l-60-60c-10-10-40-60-40-130h10c0 105 60 120 90 120 0 0 20-10 50-10" class="faceShave"/><path fill="rgba(0,0,0,0)" d="M60 300H50c0-140 50-200 150-200s150 60 150 200h-10v-10c0-5-10-20-15-25s-5-55-15-65c-40-40-60 0-110 0s-70-40-110 0c-10 10-10 60-15 65s-15 20-15 25z" class="headShave"/>
</g>
<g>
<path fill="none" stroke="#000" stroke-width="2" d="M240 340s25 10 40 0m-120 0s-25 10-40 0" class="eyeline4"/>
</g>
<g transform="translate(147 424.5) scale(1.08 1.08) translate(-0.2222222222222224 -0.7777777777777785)">
<path fill="none" stroke="#000" stroke-width="2" d="m0 20 6-10-6-9" class="shp0"/>
</g>
<g transform="translate(247 424.5) scale(-1.08 1.08) translate(-5.777777777777778 -0.7777777777777785)">
<path fill="none" stroke="#000" stroke-width="2" d="m0 20 6-10-6-9" class="shp0"/>
</g>
<g>
<path fill="none" stroke="#000" stroke-width="2" d="M200 270v-15l5-5-5 5-5-5m-25-15s15 0 30 5c15-5 30-5 30-5m-75-15s35 0 45 5c10-5 45-5 45-5"/>
</g>
<g transform="scale(0.8680000000000001 1) translate(30.49078341013822 0)">
<path fill="#3D2314" fill-rule="evenodd" stroke="#000" d="M60 300H50s-10 70 10 130c10 20 30 55 90 55 10-10 0-45-10-55s-30 0-60-30c-20-20-20-70-20-100Zm261 100c-30 30-50 20-60 30s-20 45-10 55c60 0 80-35 90-55 20-60 10-130 10-130h-10c0 30 0 80-20 100Zm-171 25c-5-5 25-20 35-20 5 0 10 5 15 5s10-5 15-5c10 0 40 15 35 20s-5-5-50-5-45 10-50 5Zm38 33c2-2 22-2 24 0s-8 16-12 16-14-14-12-16Z" class="shp0"/>
</g>
<g transform="translate(98.84448468063304 285.57536672288046) rotate(7 41.155515319366955 24.42463327711953)">
<path d="M73.67 39.73c3.92-10.47 2.35-25.38 2.35-25.38s-35.86-6.27-45.8-5.22c-9.95 1.04-24.34 7.59-24.34 7.59s-1.44 10.21 7.6 24.34z" style="fill:#fff"/><path d="M45.8 37.65c-4.13.43-8.17-5.88-9.04-14.13s1.76-15.27 5.89-15.71c4.12-.43 8.16 5.88 9.03 14.13s-1.76 15.27-5.88 15.71" style="fill:#000"/><path d="M73.67 39.73c4.45-5.49 2.35-25.38 2.35-25.38s-35.86-6.27-45.8-5.22c-9.95 1.04-24.34 7.59-24.34 7.59s1.57 14.92 7.6 24.34" style="fill:none;stroke:#000;stroke-width:5"/>
</g>
<g transform="translate(218.84448468063306 285.57536672288046) rotate(-7 41.155515319366955 24.42463327711953) scale(-1 1) translate(-82.31103063873391 0)">
<path d="M73.67 39.73c3.92-10.47 2.35-25.38 2.35-25.38s-35.86-6.27-45.8-5.22c-9.95 1.04-24.34 7.59-24.34 7.59s-1.44 10.21 7.6 24.34z" style="fill:#fff"/><path d="M45.8 37.65c-4.13.43-8.17-5.88-9.04-14.13s1.76-15.27 5.89-15.71c4.12-.43 8.16 5.88 9.03 14.13s-1.76 15.27-5.88 15.71" style="fill:#000"/><path d="M73.67 39.73c4.45-5.49 2.35-25.38 2.35-25.38s-35.86-6.27-45.8-5.22c-9.95 1.04-24.34 7.59-24.34 7.59s1.57 14.92 7.6 24.34" style="fill:none;stroke:#000;stroke-width:5"/>
</g>
<g transform="translate(97.20374849998123 252.4995916989505) rotate(8 42.79625150001876 17.50040830104949)">
<path fill="#3D2314" stroke="#000" d="M12.93 15.05c-1.51.67-4.18 2.29-5.94 3.61s-3.38 2.8-3.61 3.29c-.22.49-.16.96.13 1.04.3.08 4.44-.28 9.21-.79 4.77-.52 11.58-1.06 15.13-1.21s11.63-.28 17.94-.29c6.32-.01 14.56.12 18.32.29 3.75.17 8.39.25 10.29.19 1.91-.05 4.56-.27 5.89-.47 2.09-.32 2.33-.53 1.84-1.57-.42-.91-1.74-1.55-5.18-2.53-2.54-.73-7.86-1.72-11.83-2.22-3.97-.49-10.99-1.19-15.6-1.55-4.62-.36-11.91-.72-16.22-.81-6.13-.11-8.91.06-12.73.83-2.69.53-6.13 1.52-7.64 2.19Z"/>
</g>
<g transform="translate(217.20374849998123 252.4995916989505) rotate(-8 42.79625150001876 17.50040830104949) scale(-1 1) translate(-85.59250300003752 0)">
<path fill="#3D2314" stroke="#000" d="M12.93 15.05c-1.51.67-4.18 2.29-5.94 3.61s-3.38 2.8-3.61 3.29c-.22.49-.16.96.13 1.04.3.08 4.44-.28 9.21-.79 4.77-.52 11.58-1.06 15.13-1.21s11.63-.28 17.94-.29c6.32-.01 14.56.12 18.32.29 3.75.17 8.39.25 10.29.19 1.91-.05 4.56-.27 5.89-.47 2.09-.32 2.33-.53 1.84-1.57-.42-.91-1.74-1.55-5.18-2.53-2.54-.73-7.86-1.72-11.83-2.22-3.97-.49-10.99-1.19-15.6-1.55-4.62-.36-11.91-.72-16.22-.81-6.13-.11-8.91.06-12.73.83-2.69.53-6.13 1.52-7.64 2.19Z"/>
</g>
<g transform="translate(0 10)">
<path d="M180 430h40" style="fill:none;stroke:#000;stroke-width:5"/>
</g>
<g transform="translate(0 77.5) scale(0.62 0.62) translate(122.58064516129032 179.2741935483871)">
<path fill="#f2d6cb" stroke="#000" stroke-width="5" d="M190 300c-5-15 5-15 10-15s15 0 10 15" class="nose"/>
</g>
<g transform="scale(-1 1) translate(-400 0) scale(0.8680000000000001 1) translate(30.414746543778772 0)">
<defs><linearGradient id="a" x1="200" x2="200" y1="100" y2="310" gradientUnits="userSpaceOnUse"><stop offset="0" stop-color="rgba(0,0,0,.25)"/><stop offset="1" stop-color="rgba(0,0,0,0)"/></linearGradient></defs><path d="M60 310H50v-10c0-140 50-200 150-200s150 60 150 200v10h-10v-20c0-5-10-20-15-25s-5-55-15-65c-40-40-60 0-110 0s-70-40-110 0c-10 10-10 60-15 65s-15 20-15 25z" style="fill:url(#a);stroke:none"/>
</g>
</svg>