<svg xmlns="http://www.w3.org/2000/svg" version="1.2" baseProfile="tiny" width="100%" height="100%" viewBox="0 0 400 600" preserveAspectRatio="xMinYMin meet">
<g transform="scale(0.96 1) translate(8.333333333333341 0)">
<path fill="#5c3937" stroke="#000" stroke-width="6" d="M10 600s-10-70 50-70c10 0 0-10 60-20 0 0 50-210 80-210s80 210 80 210c60 10 50 20 60 20 60 0 50 70 50 70"/><path d="M71 545s46.9-3 82.1 10M329 545s-46.9-3-82.1 10m77.1-18s5.5-7.5 22-7m-271 7s-5.5-7.5-22-7"/>
</g>
<g transform="scale(0.96 1) translate(8.437500000000007 0)">
<g stroke="#000"><path fill="#07364f" stroke-width="3" d="M120 505s35 40 80 40 80-40 80-40v95H120z" class="s0"/><path fill="#7a1319" stroke-width="6" d="M120 504.6c10 45.4 80 55.4 90 65.4s10 40 10 40H-5s5-40 5-50 10-30 40-40 50 0 80-15.4z" class="s0"/><path fill="#7a1319" stroke-width="6" d="M360 520c30 10 40 30 40 40s10 50 10 50H180s0-40 10-50 80-10 90-55c30 15 50 5 80 15z" class="s0"/><path fill="#89bfd3" stroke-width="1.5" d="M196 597c-2.8 0-5-2.2-5-5s2.2-5 5-5 5 2.2 5 5-2.2 5-5 5zm-2-5h1m2 0h1" class="s1"/></g><g fill="none" stroke="#000" stroke-width="6"><path d="M120 504.6c6.9 37.6 62.2 49.3 67.9 57-7.8 11.2-8 48.4-8 48.4H-5s5-40 5-50 10-30 40-40 50 0 80-15.4z" class="s5"/><path d="M360 520c30 10 40 30 40 40s10 50 10 50H180s0-40 10-50 80-10 90-55c30 15 50 5 80 15z" class="s5"/></g>
</g>
<g transform="translate(32 293.3) scale(1.28 1.28) translate(-5.03125 -6.934375000000001) translate(24.59 -3)">
<path fill="#5c3937" stroke="#000" stroke-width="6" d="M43 8S3-12 3 28c0 45 40 30 40 30z"/>
</g>
<g transform="translate(322 293.3) scale(-1.28 1.28) translate(-40.96875 -6.934375000000001) translate(24.59 -3)">
<path fill="#5c3937" stroke="#000" stroke-width="6" d="M43 8S3-12 3 28c0 45 40 30 40 30z"/>
</g>
<g transform="scale(0.8220000000000001 1) translate(43.30900243309001 0)">
<path fill="#5c3937" stroke="#000" stroke-width="6" d="M200 100c100 0 150 60 150 200 0 20-20 120-25 130-4.47 8.94-105 70-105 70h-40s-98.29-56.58-105-70c-5-10-25-110-25-130 0-140 50-200 150-200Z" class="head"/><path fill="rgba(0,0,0,0.11)" d="M200 410c30 0 50 10 50 10 30 0 90-15 90-120h10c0 20-20 120-25 130-4.47 8.94-105 70-105 70h-40s-98.29-56.58-105-70c-5-10-25-110-25-130h10c0 105 60 120 90 120 0 0 20-10 50-10" class="faceShave"/><path fill="rgba(0,0,0,0.11)" d="M60 300H50c0-140 50-200 150-200s150 60 150 200h-10v-10c0-5-10-20-15-25s-5-55-15-65c-40-40-60 0-110 0s-70-40-110 0c-10 10-10 60-15 65s-15 20-15 25z" class="headShave"/>
</g>
<g>
<path fill="none" stroke="#000" stroke-width="2" d="M235 285s10-10 45-10m-115 10s-10-10-45-10" class="eyeline6"/>
</g>
<g transform="translate(144.4807306749833 416) scale(0.94 0.94) translate(0.3522937867031945 1.2127659574468097)">
<path fill="none" stroke="#000" stroke-width="2" d="M9 2s-12.5 8.95-4 34" class="shp0"/>
</g>
<g transform="translate(244.4807306749833 416) scale(-0.94 0.94) translate(-11.390832436736611 1.2127659574468097)">
<path fill="none" stroke="#000" stroke-width="2" d="M9 2s-12.5 8.95-4 34" class="shp0"/>
</g>
<g transform="translate(102.5 285) rotate(6 37.5 25)">
<path d="m5 35 5-15s4.24-5 19.3-5c30 0 35.7 5 35.7 5l5 15z" style="fill:#f5f3ee"/><path d="M37.93 33.78c-4.53 0-8.2-3.66-8.2-8.2 0-4.53 3.67-8.19 8.2-8.19s8.19 3.66 8.19 8.19c0 4.54-3.66 8.2-8.19 8.2" style="fill:#000"/><path d="M5 35s0-10 5-15 55 0 55 0l5 15" style="fill:none;stroke:#000;stroke-width:6"/>
</g>
<g transform="translate(222.5 285) rotate(-6 37.5 25) scale(-1 1) translate(-75 0)">
<path d="m5 35 5-15s4.24-5 19.3-5c30 0 35.7 5 35.7 5l5 15z" style="fill:#f5f3ee"/><path d="M37.93 33.78c-4.53 0-8.2-3.66-8.2-8.2 0-4.53 3.67-8.19 8.2-8.19s8.19 3.66 8.19 8.19c0 4.54-3.66 8.2-8.19 8.2" style="fill:#000"/><path d="M5 35s0-10 5-15 55 0 55 0l5 15" style="fill:none;stroke:#000;stroke-width:6"/>
</g>
<g transform="translate(101.2222222222222 261) rotate(-5 38.77777777777779 9)">
<path fill="#272421" stroke="#000" d="M73 13c8-8 0-12 0-12S45 5 37 5H1s20 12 40 12c12 0 28 0 32-4Z"/>
</g>
<g transform="translate(221.2222222222222 261) rotate(5 38.77777777777779 9) scale(-1 1) translate(-77.55555555555559 0)">
<path fill="#272421" stroke="#000" d="M73 13c8-8 0-12 0-12S45 5 37 5H1s20 12 40 12c12 0 28 0 32-4Z"/>
</g>
<g transform="translate(0 51.52119068455602) scale(-1 1) translate(-400 0)">
<path d="M168 384s9-13.77 32-14.03c17.4-.2 32 13.2 32 13.2s-4.29 23.24-32 23.81c-27.29.56-32-22.98-32-22.98" style="opacity:.05;mix-blend-mode:multiply;fill:#501414"/><path d="M168 384c12-4 48-4 64 0-20 4-10 4-32 4-20 0-16 0-32-4" style="fill:#fff"/><path d="M168 384c12-4 48-4 64 0-20 4-10 4-32 4-20 0-16 0-32-4Zm13.71 18.12c14.52 5.66 24.72 5.71 37.72-.71m.86-26.53c-14.52-5.66-27.29-6.34-40.29.09" style="fill:none;stroke:#000;stroke-width:3"/>
</g>
<g transform="translate(168.19198795027955 347.310851842392) scale(-1.2 1.2) translate(-58.31468875782082 -3.7815246929346653)">
<path fill="#5c3937" stroke="#000" stroke-width="5" d="m28 1 16.043 32.815s.75 10.848-18.228 10.417c-4.731-.107-4.624.436-6.246-.08" class="nose" transform="matrix(1 0 -.07193 1 2.942 .274)"/>
</g>
<g transform="scale(0.8220000000000001 1) translate(43.23104622871045 0)">
<path fill="#272421" stroke="#000" stroke-width="5" d="m59.99 309.97-9.99.02s-1.98-4.71-4.04-9.48l-10.6-24.48-8.66-11.07 1.65-9.05-7.84-11.2 3.59-9.06-6.17-11.15 5.2-8.9-3.58-14.75 17.6-9.39-3.32-14.5 25.03-8.7.75-14.9 21.98-3.91 1.47-18.31 21.51-3.02 4.96-19.14 18.68.03 12.26-22.85 17.27 9.82 11.33-24.4 13.86 17.48 13.2-24.51 15.63 24.47 12.3-17.59 13.77 24.45 16.76-9.92 14.31 22.84 19.14-.12 5.99 18.93 21.94 2.75 1.86 17.9 21.99 3.44.81 14.49 24.54 7.65-3.1 14.55 17.26 8.86-3.27 14.66 5.29 8.76-5.85 11.28 3.78 9.07-7.58 11.5 1.84 9.27-8.62 11.57-10.78 26.06c-2.15 5.19-4.22 10.36-4.22 10.36l-10.03-.1s-.79-15.25.11-20.4c.94-5.15-10.68-20.44-18.68-25.35-7.86-4.87-5.4-54.81-19.55-64.07-40.62-38.86-63.64 1.89-101.31 2.51-37.75.06-61.8-40.78-101.89-.55-14.3 9.72-11.99 59.64-19.91 64.54-8.01 4.91-19.57 19.04-18.66 23.92.87 4.84-.01 19.69-.01 19.69Z"/>
</g>
<g transform="scale(0.8220000000000001 1) translate(43.30900243309001 0)">
<path fill="#89bfd3" stroke="#000" stroke-width="2" d="M50 285h30s20-10 50-10 65 10 65 10h10s35-10 65-10 50 10 50 10h30v10l-30 5s-20-15-50-15-60 10-60 10-5 15 0 25c0 0-5-10-10-10s-10 10-10 10c5-10 0-25 0-25s-30-10-60-10-50 15-50 15l-30-5z" class="frame"/><path fill="rgba(150,150,175,.5)" fill-rule="lens" d="M155 340c35 0 35 5 35-20 5-10 0-25 0-25s-30-10-60-10-50 15-50 15-5 40 5 45 40-5 70-5m160 5c10-5 5-45 5-45s-20-15-50-15-60 10-60 10-5 15 0 25c0 25 0 20 35 20 30 0 60 10 70 5" class="lens"/><path fill="none" stroke="#fff" stroke-width="2" d="m275 330 15-35m-5 35 15-35m-165 35 15-35m-5 35 15-35" class="glare"/>
</g>
</svg>