<svg xmlns="http://www.w3.org/2000/svg" version="1.2" baseProfile="tiny" width="100%" height="100%" viewBox="0 0 400 600" preserveAspectRatio="xMinYMin meet">
<g transform="scale(0.97 1) translate(6.185567010309284 0)">
<path fill="#a67358" stroke="#000" stroke-width="6" d="M10 600s-10-65 50-65c5 0 25-15 70-35l70-200 70 200c45 20 65 35 70 35 60 0 50 65 50 65" class="body"/>
</g>
<g transform="scale(0.97 1) translate(6.185567010309284 0)">
<path fill="#89bfd3" stroke="#000" stroke-width="6" d="M80 610s10-30 10-90l20-10s10 80 90 80 90-80 90-80l20 10c0 60 10 90 10 90z" class="jersey"/><path fill="none" stroke="#000" stroke-width="16" d="M90 520c0 60-10 90-10 90m230-90c0 60 10 90 10 90M110 510s10 80 90 80 90-80 90-80" class="outline"/><path fill="none" stroke="#07364f" stroke-width="12" d="M90 520c0 60-10 90-10 90m230-90c0 60 10 90 10 90M110 510s10 80 90 80 90-80 90-80" class="accent"/><path fill="none" stroke="#7a1319" stroke-width="6" d="M90 520c0 60-10 90-10 90m230-90c0 60 10 90 10 90M110 510s10 80 90 80 90-80 90-80" class="secondary"/>
</g>
<g transform="translate(33.53553390593274 291.01362954285077) scale(1.11 1.11) translate(-2.127109252565226 -3.3680186939517283) translate(12.571067811865476 -2.979591836734694)">
<path fill="#a67358" stroke="#000" stroke-width="6" d="M40 14S10-1 5 4s0 30 5 40-5 25 30 20z"/>
</g>
<g transform="translate(323.53553390593277 291.01362954285077) scale(-1.11 1.11) translate(-40.801822935569305 -3.3680186939517283) translate(12.571067811865476 -2.979591836734694)">
<path fill="#a67358" stroke="#000" stroke-width="6" d="M40 14S10-1 5 4s0 30 5 40-5 25 30 20z"/>
</g>
<g transform="scale(0.9 1) translate(22.222222222222218 0)">
<path fill="#a67358" stroke="#000" stroke-width="6" d="M200 100c100 0 150 60 150 200 0 70-50 200-150 200S50 370 50 300c0-140 50-200 150-200Z" class="head"/><path fill="rgba(0,0,0,0)" d="M200 410c30 0 50 10 50 10 30 0 90-15 90-120h10c0 70-50 200-150 200S50 370 50 300h10c0 105 60 120 90 120 0 0 20-10 50-10" class="faceShave"/><path fill="rgba(0,0,0,0)" d="M60 300H50c0-140 50-200 150-200s150 60 150 200h-10v-10c0-5-10-20-15-25s-5-55-15-65c-40-40-60 0-110 0s-70-40-110 0c-10 10-10 60-15 65s-15 20-15 25z" class="headShave"/>
</g>
<g>
<path fill="none" stroke="#000" stroke-width="2" d="M240 340s25 10 40 0m-120 0s-25 10-40 0" class="eyeline4"/>
</g>
<g>
<path fill="none" stroke="#000" stroke-width="2" d="M155 220s35 0 45 5c10-5 45-5 45-5"/>
</g>
<g transform="scale(0.9 1) translate(22.222222222222218 0)">
<path fill="#1c1008" fill-rule="evenodd" stroke="#000" d="M200 405c55 0 65 20 65 35s1.12 46.94-15 55c-10 5-20 5-30 25v30l-5 10-5-10-5 15s-4.86-9.65-5-9.99c-.02.34-5 9.99-5 9.99s-5-15.32-5-15-5 10-5 10l-5-10v-30c-10-20-20-20-30-25-16.12-8.06-15-40-15-55s10-35 65-35Zm0 150.01V555zM150 440c5 20 10 30 30 30 10 0 10-15 20-15s10 15 20 15c20 0 25-10 30-30 4.85-19.4-20-20-50-20s-54.85.6-50 20Z" class="shp0"/><path fill="#89bfd3" stroke="#000" d="M180 520h40v20h-40z" class="facialHairBand"/>
</g>
<g transform="translate(99.23500000000001 289.1206538286518) rotate(7 40.76499999999999 20.879346171348168)">
<path d="M73.63 30.14S62.25 5.74 32.3 7.42C12.33 8.54 7.9 18.8 7.9 18.8l5.83 14.7c30.23 3.31 59.9-3.36 59.9-3.36" style="fill:#fff"/><path d="M40.63 30.99a9.99 9.99 0 0 0 9.42-10.55 9.985 9.985 0 0 0-10.54-9.42 10 10 0 0 0-9.43 10.54c.31 5.52 5.03 9.74 10.55 9.43" style="fill:#000"/><path d="M73.63 30.14S72.51 10.17 32.3 7.42C12.33 8.54 7.9 18.8 7.9 18.8l5.83 14.7" style="fill:none;stroke:#000;stroke-width:5"/>
</g>
<g transform="translate(219.235 289.1206538286518) rotate(-7 40.76499999999999 20.879346171348168) scale(-1 1) translate(-81.52999999999999 0)">
<path d="M73.63 30.14S62.25 5.74 32.3 7.42C12.33 8.54 7.9 18.8 7.9 18.8l5.83 14.7c30.23 3.31 59.9-3.36 59.9-3.36" style="fill:#fff"/><path d="M40.63 30.99a9.99 9.99 0 0 0 9.42-10.55 9.985 9.985 0 0 0-10.54-9.42 10 10 0 0 0-9.43 10.54c.31 5.52 5.03 9.74 10.55 9.43" style="fill:#000"/><path d="M73.63 30.14S72.51 10.17 32.3 7.42C12.33 8.54 7.9 18.8 7.9 18.8l5.83 14.7" style="fill:none;stroke:#000;stroke-width:5"/>
</g>
<g transform="translate(101.88888888888889 258.62629757785464) rotate(19 38.111111111111114 11.373702422145328)">
<path fill="#1c1008" stroke="#000" d="M71 21c8-8 0-12 0-12S43 5 35 5C25 5 7 1 7 1S-5 5 7 17c16 4 8 0 28 0 32 0 33 7 36 4Z"/>
</g>
<g transform="translate(221.88888888888889 258.62629757785464) rotate(-19 38.111111111111114 11.373702422145328) scale(-1 1) translate(-76.22222222222223 0)">
<path fill="#1c1008" stroke="#000" d="M71 21c8-8 0-12 0-12S43 5 35 5C25 5 7 1 7 1S-5 5 7 17c16 4 8 0 28 0 32 0 33 7 36 4Z"/>
</g>
<g transform="translate(0 48.766108367626885)">
<path d="M168 384s9-13.77 32-14.03c17.4-.2 32 13.2 32 13.2s-4.29 28.26-32 28.83c-27.29.56-32-28-32-28" style="opacity:.05;mix-blend-mode:multiply;fill:#501414"/><path d="M168 384c12-4 48-4 64 0-8 8-10 16-32 16-20 0-24-8-32-16Z" style="fill:#000;stroke:#000"/><path d="M168 384c12-4 48-4 64 0-20 4-10 4-32 4-20 0-16 0-32-4m12 12s14-1 20-1 20 1 20 1-4 4-20 4c-12 0-20-4-20-4" style="fill:#fff"/><path d="M168 384c12-4 48-4 64 0-8 8-10 16-32 16-20 0-24-8-32-16Zm16 24c12 6 20 6 32 0m4.29-33.12c-14.52-5.66-27.29-6.34-40.29.09" style="fill:none;stroke:#000;stroke-width:4"/>
</g>
<g transform="translate(137.77777777777777 318.75) scale(-1.14 1.14) translate(-95.94541910331384 -6.293859649122804)">
<path fill="#a67358" stroke="#000" stroke-width="5" d="M40 40s50-30 0 30"/>
</g>
<g transform="scale(0.9 1) translate(22.222222222222218 0)">
<path fill="#1c1008" stroke="#000" stroke-width="4" d="M60 310H50v-10c0-140 50-200 150-200s150 60 150 200v10h-10v-20c0-5-10-20-15-25s-5-50-15-60-60-5-110-5-100-5-110 5-10 55-15 60-15 20-15 25z"/>
</g>
<g transform="scale(0.9 1) translate(22.222222222222218 0)">
<path fill="#333" stroke="#000" stroke-width="2" d="M195 285h10s35-10 65-10 50 10 50 10 0 5 10 5v30c-10 0-10 5-10 5s-20 20-50 20c-60 0-65-35-65-35 0-5-10-5-10 0 0 0-5 35-65 35-30 0-50-20-50-20s0-5-10-5v-30c10 0 10-5 10-5s20-10 50-10 65 10 65 10ZM90 295c0 20 0 40 40 40 50 0 50-30 50-30v-10s-20-10-50-10c-40 0-40 10-40 10Zm130 10s0 30 50 30c40 0 40-20 40-40 0 0 0-10-40-10-30 0-50 10-50 10z" class="frame"/><path fill="rgba(150,150,175,.5)" d="M90 295s0-10 40-10c30 0 50 10 50 10v10s0 30-50 30c-40 0-40-20-40-40m180 40c-50 0-50-30-50-30v-10s20-10 50-10c40 0 40 10 40 10 0 20 0 40-40 40" class="lens"/><path fill="#89bfd3" stroke="#000" stroke-width="2" d="M350 320v-30h-20v30zm-280 0v-30H50v30z" class="straps"/><path fill="none" stroke="#fff" stroke-width="2" d="m280 315 10-20m0 20 10-20m-160 20 10-20m0 20 10-20" class="glare"/>
</g>
<g transform="scale(0.9 1) translate(22.222222222222232 0)">
<g stroke="#000"><path fill="#07364f" stroke-width="2" d="M199.8 82c3.4 0 7.2.6 8.8 1.5 1.6.8 2.9 2 2.9 2.5s.2 1.7.5 2.5c.4 1.3-1.3 1.5-12 1.5s-12.4-.2-12-1.5c.3-.8.4-1.9.3-2.5-.1-.5 1.1-1.6 2.7-2.4 1.5-.9 5.4-1.5 8.8-1.6z" class="s0"/><path fill="#7a1319" stroke-width="6" d="M197.8 90.1c13.3-.1 23 .5 34.6 1.9 8.8 1.1 20.8 3 26.6 4.1s15.5 3.3 21.6 5c6 1.6 14.4 4.3 18.7 6 4.2 1.7 10.2 4.5 13.3 6.2 3.1 1.8 7.4 5 9.5 7.2 2.3 2.3 5.3 7.1 7.1 11.3 2 4.7 4 12 5.6 21 1.4 7.5 3.5 17.8 4.7 22.7s3.2 11.7 4.3 15c1.2 3.3 3 11.8 4 19 .9 7.2 1.7 17.9 1.7 24s-.3 11.8-.7 12.7c-.6 1.5-1.1 1.4-4.9-1.1-2.4-1.5-8.9-5.3-14.4-8.4-5.6-3-16.4-8.3-24-11.7-7.7-3.5-20.8-8.6-29.3-11.5-8.4-3-21.8-6.7-29.7-8.4-7.9-1.6-18.6-3.5-23.7-4.1-5.2-.5-15.4-1-22.8-1s-17.6.5-22.8 1c-5.1.6-15.8 2.5-23.7 4.1-7.9 1.7-22 5.7-31.2 8.9s-22.4 8.3-29.2 11.5c-6.9 3.1-17.9 8.6-24.5 12.2s-13.2 7.4-14.6 8.4c-2.3 1.6-2.7 1.7-3.1.4-.3-.8-.5-6.1-.5-11.7 0-5.7.6-15.5 1.3-21.8.8-6.3 1.9-13.5 2.5-16 .7-2.5 2.4-8.3 3.9-13s3.8-14.6 5.1-22 3.1-16.4 4-20 2.7-8.9 4.1-11.9 4.3-7.3 6.5-9.5c2.1-2.3 7.3-6 11.5-8.2 4.2-2.3 10.8-5.3 14.8-6.7s11.5-3.7 16.8-5.1 13.5-3.3 18.2-4.2 15.8-2.7 24.5-3.9c11.2-1.6 21.1-2.3 34.2-2.4z"/><path fill="#89bfd3" stroke-width="4" d="M69.6 237.7c-6.6 3.6-13.2 7.4-14.7 8.4-2.2 1.6-2.7 1.7-3.1.4-.2-.8-.4-6.1-.4-11.7-.1-5.7.6-15.5 1.3-21.8s1.9-13.5 2.5-16 2.4-8.3 3.9-13 3.8-14.6 5.1-22c0 0 12 72.1 5.4 75.7zM336.8 162c1.3 7.4 3.6 17.3 5.1 22s3.2 10.5 3.9 13c.6 2.5 1.7 9.7 2.5 16 .7 6.3 1.3 16.1 1.3 21.8 0 5.6-.2 10.9-.5 11.7-.4 1.3-.8 1.2-3.1-.4-1.4-1-8-4.8-14.6-8.4s5.4-75.7 5.4-75.7z"/><path fill="#07364f" stroke-width="6" d="M196.2 197c9.2 0 20.8.3 25.9.7 5 .4 13.6 1.5 19.1 2.4 5.6 1 14.4 2.8 19.7 4.1s13.7 3.7 18.7 5.2c5 1.6 14.7 5.1 21.6 7.9 6.8 2.7 17 7.3 22.5 10 5.6 2.8 14.9 7.9 20.6 11.2 5.8 3.4 12.4 7.5 14.6 9.2 3.2 2.4 4.1 3.6 4.1 5.6 0 1.6-.7 3.3-1.9 4.2-1.1.9-3.2 1.6-4.8 1.6-2.1 0-5.1-1.4-10.8-5.1-4.3-2.8-13.3-8-19.9-11.6s-19.3-9.5-28.3-13.1c-8.9-3.7-20.6-8-25.9-9.6-5.2-1.5-13.4-3.7-18.2-4.9-4.7-1.1-14.9-2.9-22.5-4-11.3-1.7-17.1-2-30.7-2s-19.4.3-30.7 2c-7.6 1.1-17.8 2.9-22.5 4-4.8 1.2-13 3.4-18.2 4.9-5.3 1.6-17 5.9-25.9 9.6-9 3.6-21.7 9.5-28.3 13.1s-15.6 8.8-19.9 11.6c-6.3 4.1-8.6 5.1-11.3 5.1-1.8 0-4-.5-4.8-1.2-.8-.6-1.4-2.4-1.4-4 0-2.2.8-3.4 3.8-5.9 2.1-1.8 7.4-5.3 11.7-7.8s12.8-7.2 18.9-10.4 17.6-8.4 25.5-11.7c7.9-3.2 18.7-7.2 24-8.8 5.3-1.7 14.7-4.2 21.1-5.7 6.3-1.5 17.3-3.6 24.4-4.6 10.3-1.5 16.5-2 29.8-2z"/></g>
</g>
</svg>