<svg xmlns="http://www.w3.org/2000/svg" version="1.2" baseProfile="tiny" width="100%" height="100%" viewBox="0 0 400 600" preserveAspectRatio="xMinYMin meet">
<g transform="scale(0.96 1) translate(8.434056473829209 0)">
<path fill="#ddb7a0" stroke="#000" stroke-width="6" d="M20 600s-5-60 40-70c15 0 45-15 90-35l50-195 50 195c45 20 75 35 90 35 45 10 45 70 45 70" class="body"/>
</g>
<g transform="scale(0.96 1) translate(8.333333333333341 0)">
<path fill="#89bfd3" stroke="#000" stroke-width="6" d="M80 610s10-30 10-90l20-10s10 80 90 80 90-80 90-80l20 10c0 60 10 90 10 90z"/>
</g>
<g transform="translate(33.53553390593274 291.01362954285077) scale(1.45 1.45) translate(-6.661386029193288 -10.547494279804933) translate(23.421067811865473 -2.979591836734694)">
<path fill="#ddb7a0" stroke="#000" stroke-width="6" d="M40 14S10-1 5 4s0 30 5 40-5 25 30 20z"/>
</g>
<g transform="translate(323.53553390593277 291.01362954285077) scale(-1.45 1.45) translate(-36.26754615894124 -10.547494279804933) translate(23.421067811865473 -2.979591836734694)">
<path fill="#ddb7a0" stroke="#000" stroke-width="6" d="M40 14S10-1 5 4s0 30 5 40-5 25 30 20z"/>
</g>
<g transform="scale(0.8300000000000001 1) translate(40.96385542168672 0)">
<path fill="#ddb7a0" stroke="#000" stroke-width="6" d="M200 100c100 0 150 60 150 200 0 120-10 150-110 190 0 0-20 10-40 10s-40-10-40-10C60 450 50 420 50 300c0-140 50-200 150-200Z" class="head"/><path fill="rgba(0,0,0,0)" d="M60 300H50c0-140 50-200 150-200s150 60 150 200h-10v-10c0-5-10-20-15-25s-5-55-15-65c-40-40-60 0-110 0s-70-40-110 0c-10 10-10 60-15 65s-15 20-15 25z" class="headShave"/><path fill="rgba(0,0,0,0)" d="M200 410c30 0 50 10 50 10 30 0 90-15 90-120h10c0 120-10 150-110 190 0 0-20 10-40 10s-40-10-40-10C60 450 50 420 50 300h10c0 105 60 120 90 120 0 0 20-10 50-10" class="faceShave"/>
</g>
<g>
<path fill="none" stroke="#000" stroke-width="2" d="M300 320s5 5 10 5m-13.25-2.47S300 335 305 335m-205-15s-5 5-10 5m13.25-2.47S100 335 95 335" class="eyeline2"/>
</g>
<g>
<path fill="none" stroke="#000" stroke-width="2" d="M180 465s10-5 20-5 20 5 20 5"/>
</g>
<g transform="scale(0.8300000000000001 1) translate(40.96385542168672 0)">
<path fill="#272421" stroke="#000" d="M205 420c-4 0-5-5-.8-10 5.8-5 15.8-5 15.8-5 15 0 35 15 35 25 0 30 10 55 5 60s-15 5-20 0 5-40 5-55-15-15-40-15Zm-10 0c4 0 5-5 0-10s-15-5-15-5c-16 0-35 15-35 25 0 30-10 55-5 60s15 5 20 0-5-40-5-55 15-15 40-15Zm-7 38c2-2 22-2 24 0s-8 16-12 16-14-14-12-16ZM60 300H50s-3.85 100.38 25 110c15 5 35 15 40 10 20-20-5-25-5-25s-50-20-50-95Zm280 0h10s3.85 100.38-25 110c-15 5-35 15-40 10-20-20 5-25 5-25s50-20 50-95Z"/>
</g>
<g transform="translate(102.8498332560182 285.49) rotate(5 37.15016674398179 24.509999999999998)">
<path d="M5.55 33.46S17.01 4.81 39.93 4.81s28.65 28.65 28.65 28.65-5.73 11.46-28.65 11.46S5.55 33.46 5.55 33.46" style="fill:#f5f3ee"/><path d="M5.55 33.46C2.68 30.6 17.08 4.1 40 4.1s31.44 26.5 28.58 29.36c-2.87 2.87-5.73-17.19-28.65-17.19S8.41 36.33 5.55 33.46" style="fill:#000"/><path d="M39.93 38.04c-6.34 0-11.46-5.12-11.46-11.46 0-6.33 5.12-11.46 11.46-11.46s11.46 5.13 11.46 11.46c0 6.34-5.12 11.46-11.46 11.46" style="fill:#000"/>
</g>
<g transform="translate(222.8498332560182 285.49) rotate(-5 37.15016674398179 24.509999999999998) scale(-1 1) translate(-74.30033348796358 0)">
<path d="M5.55 33.46S17.01 4.81 39.93 4.81s28.65 28.65 28.65 28.65-5.73 11.46-28.65 11.46S5.55 33.46 5.55 33.46" style="fill:#f5f3ee"/><path d="M5.55 33.46C2.68 30.6 17.08 4.1 40 4.1s31.44 26.5 28.58 29.36c-2.87 2.87-5.73-17.19-28.65-17.19S8.41 36.33 5.55 33.46" style="fill:#000"/><path d="M39.93 38.04c-6.34 0-11.46-5.12-11.46-11.46 0-6.33 5.12-11.46 11.46-11.46s11.46 5.13 11.46 11.46c0 6.34-5.12 11.46-11.46 11.46" style="fill:#000"/>
</g>
<g transform="translate(101.2030185317928 258.55217041664764) rotate(-9 38.796981468207214 11.447829583352352)">
<path fill="#272421" stroke="#000" d="M72.888 12.598c5.271-4.016 2.566-8.267 2.566-8.267-1.018-.86-27.007.663-35.814.759-9.087.098-35.151 9.7-38.194 12.84-.01 2.629 27.698-1.318 40.149-1.733 9.802-.326 26.406.125 31.293-3.6z"/>
</g>
<g transform="translate(221.2030185317928 258.55217041664764) rotate(9 38.796981468207214 11.447829583352352) scale(-1 1) translate(-77.59396293641443 0)">
<path fill="#272421" stroke="#000" d="M72.888 12.598c5.271-4.016 2.566-8.267 2.566-8.267-1.018-.86-27.007.663-35.814.759-9.087.098-35.151 9.7-38.194 12.84-.01 2.629 27.698-1.318 40.149-1.733 9.802-.326 26.406.125 31.293-3.6z"/>
</g>
<g transform="translate(0 0)">
<path d="M170 430s10 20 30 20 30-20 30-20z" style="fill:#fff;stroke:#000;stroke-width:5"/>
</g>
<g transform="translate(0 77.5) scale(0.63 0.63) translate(117.46031746031746 171.78571428571428)">
<path fill="#ddb7a0" stroke="#000" stroke-width="5" d="M190 300c-5-15 5-15 10-15s15 0 10 15" class="nose"/>
</g>
<g transform="scale(0.8300000000000001 1) translate(40.96385542168672 0)">
<path fill="#272421" stroke="#000" stroke-width="4" d="M60 310H50v-10c0-133.375 45.38-194.143 136.14-199.595Q192.902 100 200 100c100 0 150 60 150 200v10h-10c-5.865-19.535-9.397-26.984-15-45-2.917-4.702-25.536-47.024-35.536-57.024s-53.452 7.5-84.107 19.107c-10.733 4.064-108.964 32.475-119.957 32.19 0 0-7.086 5.755-10.4 5.727-5 5-15 20-15 25z"/>
</g>
</svg>