<svg xmlns="http://www.w3.org/2000/svg" version="1.2" baseProfile="tiny" width="100%" height="100%" viewBox="0 0 400 600" preserveAspectRatio="xMinYMin meet">
<g transform="scale(1.02 1) translate(-3.921568627450984 0)">
<path fill="#f2d6cb" stroke="#000" stroke-width="6" d="M10 600s-10-70 50-70c10 0 0-10 60-20 0 0 50-210 80-210s80 210 80 210c60 10 50 20 60 20 60 0 50 70 50 70"/><path d="M71 545s46.9-3 82.1 10M329 545s-46.9-3-82.1 10m77.1-18s5.5-7.5 22-7m-271 7s-5.5-7.5-22-7"/>
</g>
<g transform="scale(1.02 1) translate(-3.921568627450984 0)">
<path fill="#89bfd3" stroke="#000" stroke-width="6" d="M80 610s10-30 10-90l20-10s10 80 90 80 90-80 90-80l20 10c0 60 10 90 10 90z" class="jersey"/><path fill="none" stroke="#07364f" stroke-width="2" d="M95 610v-92.45M105 610v-97.95m10 2.95v95m10-60v62.05M135 565v45m10-35v35m10-30v30m10-25v25m10-20v20m10-20v20m10-20v20m110 0v-92.45M295 610v-97.95M285 515v95m-10-60v62.05M265 565v45m-10-35v35m-10-30v30m-10-25v25m-10-20v20m-10-20v20m-10-20v20" class="pinstripes"/><path fill="none" stroke="#000" stroke-width="16" d="M90 520c0 60-10 90-10 90m230-90c0 60 10 90 10 90M110 510s10 80 90 80 90-80 90-80" class="outline"/><path fill="none" stroke="#07364f" stroke-width="8" d="M90 520c0 60-10 90-10 90m230-90c0 60 10 90 10 90m-210-98s15 78 90 78 90-78 90-78" class="stripe-accent"/><path fill="none" stroke="#89bfd3" stroke-width="4" d="M86 522c0 60-10 88-10 88m238-88c0 60 10 88 10 88M114 510s11 76 86 76 86-76 86-76" class="stripe-primary"/><path fill="none" stroke="#7a1319" stroke-width="4" d="M94 518c0 60-10 92-10 92m222-92c0 60 10 92 10 92m-210-96s12 80 94 80 94-80 94-80" class="stripe-secondary"/>
</g>
<g transform="translate(32 293.3) scale(1.29 1.29) translate(-5.170542635658915 -7.126356589147288) translate(-1.1399999999999983 -3)">
<path fill="#f2d6cb" stroke="#000" stroke-width="6" d="M43 8S3-12 3 28c0 45 40 30 40 30z"/>
</g>
<g transform="translate(322 293.3) scale(-1.29 1.29) translate(-40.82945736434109 -7.126356589147288) translate(-1.1399999999999983 -3)">
<path fill="#f2d6cb" stroke="#000" stroke-width="6" d="M43 8S3-12 3 28c0 45 40 30 40 30z"/>
</g>
<g transform="scale(0.988 1) translate(2.4291497975708523 0)">
<path fill="#f2d6cb" stroke="#000" stroke-width="6" d="M200 100c100 0 150 60 150 200 0 20-20 120-25 130-4.47 8.94-105 70-105 70h-40s-98.29-56.58-105-70c-5-10-25-110-25-130 0-140 50-200 150-200Z" class="head"/><path fill="rgba(0,0,0,0)" d="M200 410c30 0 50 10 50 10 30 0 90-15 90-120h10c0 20-20 120-25 130-4.47 8.94-105 70-105 70h-40s-98.29-56.58-105-70c-5-10-25-110-25-130h10c0 105 60 120 90 120 0 0 20-10 50-10" class="faceShave"/><path fill="rgba(0,0,0,0)" d="M60 300H50c0-140 50-200 150-200s150 60 150 200h-10v-10c0-5-10-20-15-25s-5-55-15-65c-40-40-60 0-110 0s-70-40-110 0c-10 10-10 60-15 65s-15 20-15 25z" class="headShave"/>
</g>
<g>
<path fill="none" stroke="#000" stroke-width="2" d="M300 320s5 5 10 5m-13.25-2.47S300 335 305 335m-205-15s-5 5-10 5m13.25-2.47S100 335 95 335" class="eyeline2"/>
</g>
<g>
<path d="M144 363c-1.66 0-3-1.34-3-3s1.34-3 3-3 3 1.34 3 3-1.34 3-3 3m-15-1c-1.11 0-2-.89-2-2s.89-2 2-2 2 .89 2 2-.89 2-2 2m-15 1c-1.66 0-3-1.34-3-3s1.34-3 3-3 3 1.34 3 3-1.34 3-3 3m-15-1c-1.11 0-2-.89-2-2s.89-2 2-2 2 .89 2 2-.89 2-2 2m5 11c-1.66 0-3-1.34-3-3s1.34-3 3-3 3 1.34 3 3-1.34 3-3 3m10-1c-1.11 0-2-.89-2-2s.89-2 2-2 2 .89 2 2-.89 2-2 2m10 1c-1.66 0-3-1.34-3-3s1.34-3 3-3 3 1.34 3 3-1.34 3-3 3m10-1c-1.11 0-2-.89-2-2s.89-2 2-2 2 .89 2 2-.89 2-2 2m10 11c-1.66 0-3-1.34-3-3s1.34-3 3-3 3 1.34 3 3-1.34 3-3 3m-15-1c-1.11 0-2-.89-2-2s.89-2 2-2 2 .89 2 2-.89 2-2 2m-10 0c-1.11 0-2-.89-2-2s.89-2 2-2 2 .89 2 2-.89 2-2 2m-10 1c-1.66 0-3-1.34-3-3s1.34-3 3-3 3 1.34 3 3-1.34 3-3 3m-10-1c-1.11 0-2-.89-2-2s.89-2 2-2 2 .89 2 2-.89 2-2 2m45-10c-1.11 0-2-.89-2-2s.89-2 2-2 2 .89 2 2-.89 2-2 2m-50 0c-1.11 0-2-.89-2-2s.89-2 2-2 2 .89 2 2-.89 2-2 2m60 5c-1.11 0-2-.89-2-2s.89-2 2-2 2 .89 2 2-.89 2-2 2m0-10c-1.11 0-2-.89-2-2s.89-2 2-2 2 .89 2 2-.89 2-2 2m-48-15c-1.11 0-2-.89-2-2s.89-2 2-2 2 .89 2 2-.89 2-2 2m15 2c-2.21 0-4-1.79-4-4s1.79-4 4-4 4 1.79 4 4-1.79 4-4 4m15-2c-1.11 0-2-.89-2-2s.89-2 2-2 2 .89 2 2-.89 2-2 2m-15 41c-1.66 0-3-1.34-3-3s1.34-3 3-3 3 1.34 3 3-1.34 3-3 3m15-1c-1.11 0-2-.89-2-2s.89-2 2-2 2 .89 2 2-.89 2-2 2m-30 0c-1.11 0-2-.89-2-2s.89-2 2-2 2 .89 2 2-.89 2-2 2m150-29c-1.66 0-3-1.34-3-3s1.34-3 3-3 3 1.34 3 3-1.34 3-3 3m15-1c-1.11 0-2-.89-2-2s.89-2 2-2 2 .89 2 2-.89 2-2 2m15 1c-1.66 0-3-1.34-3-3s1.34-3 3-3 3 1.34 3 3-1.34 3-3 3m15-1c-1.11 0-2-.89-2-2s.89-2 2-2 2 .89 2 2-.89 2-2 2m-5 11c-1.66 0-3-1.34-3-3s1.34-3 3-3 3 1.34 3 3-1.34 3-3 3m-10-1c-1.11 0-2-.89-2-2s.89-2 2-2 2 .89 2 2-.89 2-2 2m-10 1c-1.66 0-3-1.34-3-3s1.34-3 3-3 3 1.34 3 3-1.34 3-3 3m-10-1c-1.11 0-2-.89-2-2s.89-2 2-2 2 .89 2 2-.89 2-2 2m-10 11c-1.66 0-3-1.34-3-3s1.34-3 3-3 3 1.34 3 3-1.34 3-3 3m15-1c-1.11 0-2-.89-2-2s.89-2 2-2 2 .89 2 2-.89 2-2 2m10 0c-1.11 0-2-.89-2-2s.89-2 2-2 2 .89 2 2-.89 2-2 2m10 1c-1.66 0-3-1.34-3-3s1.34-3 3-3 3 1.34 3 3-1.34 3-3 3m10-1c-1.11 0-2-.89-2-2s.89-2 2-2 2 .89 2 2-.89 2-2 2m-45-10c-1.11 0-2-.89-2-2s.89-2 2-2 2 .89 2 2-.89 2-2 2m50 0c-1.11 0-2-.89-2-2s.89-2 2-2 2 .89 2 2-.89 2-2 2m-60 5c-1.11 0-2-.89-2-2s.89-2 2-2 2 .89 2 2-.89 2-2 2m0-10c-1.11 0-2-.89-2-2s.89-2 2-2 2 .89 2 2-.89 2-2 2m48-15c-1.11 0-2-.89-2-2s.89-2 2-2 2 .89 2 2-.89 2-2 2m-15 2c-2.21 0-4-1.79-4-4s1.79-4 4-4 4 1.79 4 4-1.79 4-4 4m-15-2c-1.11 0-2-.89-2-2s.89-2 2-2 2 .89 2 2-.89 2-2 2m15 41c-1.66 0-3-1.34-3-3s1.34-3 3-3 3 1.34 3 3-1.34 3-3 3m-15-1c-1.11 0-2-.89-2-2s.89-2 2-2 2 .89 2 2-.89 2-2 2m30 0c-1.11 0-2-.89-2-2s.89-2 2-2 2 .89 2 2-.89 2-2 2" style="opacity:.251;mix-blend-mode:multiply;fill:#8b6135"/>
</g>
<g transform="scale(0.988 1) translate(2.4230769230769256 0)">
<path fill="#2C1608" fill-rule="evenodd" stroke="#000" d="M200 405c55 0 55 20 55 35 0 0 5 40-5 55-5 5-35 15-50 15s-46.67-10-50-15c-10-15-5-55-5-55 0-15 0-35 55-35Zm-45 35c0 5 5 5 25 5 10 0 10-5 20-5s10 5 20 5c20 0 25 0 25-5 0-20-15-15-45-15s-45-5-45 15ZM60 300H50s-8.85 85.38 20 95c15 5 0-34.1 0-34.1S65 355 60 300Zm279 0h10s8.85 85.38-20 95c-15 5 0-34.1 0-34.1s5-5.9 10-60.9Z" class="shp0"/>
</g>
<g transform="translate(102.93299701421847 284.73230356541717) rotate(9 37.067002985781535 25.26769643458282)">
<path d="M68.08 23.19s1.89 14.88-27.87 18.67C15.41 45.02 6.66 15.89 6.03 10.93 25.87 8.4 65.55 3.35 68.08 23.19Z" style="fill:#fff;stroke:#000;stroke-width:5"/><path d="M39.04 16.81c9.92-1.27 11.81 13.61 1.89 14.88-9.92 1.26-11.81-13.62-1.89-14.88" style="fill:#000;stroke:#000;stroke-linecap:round;stroke-linejoin:round;stroke-width:4"/>
</g>
<g transform="translate(222.93299701421847 284.73230356541717) rotate(-9 37.067002985781535 25.26769643458282) scale(-1 1) translate(-74.13400597156307 0)">
<path d="M68.08 23.19s1.89 14.88-27.87 18.67C15.41 45.02 6.66 15.89 6.03 10.93 25.87 8.4 65.55 3.35 68.08 23.19Z" style="fill:#fff;stroke:#000;stroke-width:5"/><path d="M39.04 16.81c9.92-1.27 11.81 13.61 1.89 14.88-9.92 1.26-11.81-13.62-1.89-14.88" style="fill:#000;stroke:#000;stroke-linecap:round;stroke-linejoin:round;stroke-width:4"/>
</g>
<g transform="translate(105.43111111111111 259) rotate(-7 34.5688888888889 11)">
<path fill="#2C1608" stroke="#000" d="M66 13c4-4 0-8 0-8H30C14 5 2 1 2 1s-4 0 8 12l-4 8h32c20 0 24-4 28-8Z"/>
</g>
<g transform="translate(225.4311111111111 259) rotate(7 34.5688888888889 11) scale(-1 1) translate(-69.1377777777778 0)">
<path fill="#2C1608" stroke="#000" d="M66 13c4-4 0-8 0-8H30C14 5 2 1 2 1s-4 0 8 12l-4 8h32c20 0 24-4 28-8Z"/>
</g>
<g transform="translate(168 428.3888888888889)">
<path d="M32 3c10 0 15 0 25 5 5 5 5 5 0 10s-15 0-25 0-20 5-25 0-5-5 0-10c10-5 15-5 25-5Z" style="fill:#fff;stroke:#000;stroke-width:5"/>
</g>
<g transform="translate(0 12.5) scale(-0.79 0.79) translate(-453.1645569620253 95.03164556962024)">
<path fill="#f2d6cb" stroke="#000" stroke-width="5" d="M180 380s10-5 20-5 20 5 20 5m-20-5v-40" class="nose"/>
</g>
<g transform="scale(-1 1) translate(-400 0) scale(0.988 1) translate(2.4291497975708523 0)">
<path fill="#2C1608" stroke="#000" stroke-width="4" d="M60 310H50s-40 0-40-50C10 120 80 70 200 70s190 50 190 190c0 50-40 50-40 50h-10v-20c0-5-10-20-15-25s-10-45-15-55c-6.32-12.65-60-10-110-10s-103.68-2.65-110 10c-5 10-10 50-15 55s-15 20-15 25zM200 70"/>
</g>
</svg>