<svg xmlns="http://www.w3.org/2000/svg" version="1.2" baseProfile="tiny" width="100%" height="100%" viewBox="0 0 400 600" preserveAspectRatio="xMinYMin meet">
<g transform="scale(1.04 1) translate(-7.785282898919269 0)">
<path fill="#ddb7a0" stroke="#000" stroke-width="6" d="M20 600s-5-60 40-70c15 0 45-15 90-35l50-195 50 195c45 20 75 35 90 35 45 10 45 70 45 70" class="body"/>
</g>
<g transform="scale(1.04 1) translate(-7.692307692307699 0)">
<g stroke="#000"><path fill="#89bfd3" stroke-width="6" d="M120 505c0 35 50 25 80 45 30-20 80-10 80-45 30-25 90-15 100-5s10.07 20.41 15 50c5 30 5 20 5 60H0c0-40 0-29.59 5-59.59 4.93-29.59 5-39.38 15-50.41 9.5-10.48 70-20 100 5Z" class="footballPrimary"/><path fill="#7a1319" stroke-width="2" d="M120 505c0 35 50 25 80 45 30-20 80-10 80-45l15-10c5 60-55 45-95 75-40-30-100-15-95-75z" class="collarSecondary"/><path fill="none" stroke-width="6" d="M120 505c0 35 50 25 80 45 30-20 80-10 80-45 30-25 90-15 100-5s10.07 20.41 15 50c5 30 5 20 5 60H0c0-40 0-30 5-60 4.93-29.59 5-38.97 15-50 9.5-10.48 70-20 100 5Z" class="footballStroke"/><path fill="none" stroke-width="2" d="M19.5 570s72.5-2.11 81.5-20m280 20s-71-2.11-80-20" class="shp3"/></g>
</g>
<g transform="translate(32 290.6) scale(1.22 1.22) translate(-4.147540983606557 -6.20327868852459) translate(12.81 -3)">
<path fill="#ddb7a0" stroke="#000" stroke-width="6" d="M43 13S23 3 13 3 3 23 3 33s3 20 13 30 27-10 27-10z"/>
</g>
<g transform="translate(322 290.6) scale(-1.22 1.22) translate(-41.85245901639344 -6.20327868852459) translate(12.81 -3)">
<path fill="#ddb7a0" stroke="#000" stroke-width="6" d="M43 13S23 3 13 3 3 23 3 33s3 20 13 30 27-10 27-10z"/>
</g>
<g transform="scale(0.898 1) translate(22.717149220489972 0)">
<path fill="#ddb7a0" stroke="#000" stroke-width="6" d="M200 100c100 0 150 60 150 200 0 20-20 120-25 130-4.47 8.94-105 70-105 70h-40s-98.29-56.58-105-70c-5-10-25-110-25-130 0-140 50-200 150-200Z" class="head"/><path fill="rgba(0,0,0,0)" d="M200 410c30 0 50 10 50 10 30 0 90-15 90-120h10c0 20-20 120-25 130-4.47 8.94-105 70-105 70h-40s-98.29-56.58-105-70c-5-10-25-110-25-130h10c0 105 60 120 90 120 0 0 20-10 50-10" class="faceShave"/><path fill="rgba(0,0,0,0)" d="M60 300H50c0-140 50-200 150-200s150 60 150 200h-10v-10c0-5-10-20-15-25s-5-55-15-65c-40-40-60 0-110 0s-70-40-110 0c-10 10-10 60-15 65s-15 20-15 25z" class="headShave"/>
</g>
<g>
<path fill="none" stroke="#000" stroke-width="2" d="M220 270s-10 0-10-20m-30 20s10 0 10-20" class="eyeline1"/>
</g>
<g transform="translate(140.5 420.5) scale(0.31 0.31) translate(21.14516129032258 32.274193548387096)">
<path fill="none" stroke="#000" stroke-width="2" d="M17 2 2 12l5 15" class="shp0"/>
</g>
<g transform="translate(240.5 420.5) scale(-0.31 0.31) translate(-40.145161290322584 32.274193548387096)">
<path fill="none" stroke="#000" stroke-width="2" d="M17 2 2 12l5 15" class="shp0"/>
</g>
<g transform="translate(-120.29753770446098 -23.177101781228032) rotate(-10 260.297537704461 333.17710178122803)">
<path d="M259.01 349.54c-13.866-.398-24.71-6.089-24.71-19.05 10.7-18.063 40.386-18.358 51.25-.275 4.415 12.208-11.607 19.753-26.54 19.325" style="fill:#fff;stroke:#000;stroke-linecap:round;stroke-linejoin:round;stroke-width:5"/><path d="M259.552 325.177c-10 0-10 15 0 15s10-15 0-15" style="fill:#000;stroke:#000;stroke-linecap:round;stroke-linejoin:round;stroke-width:4"/>
</g>
<g transform="translate(-0.2975377044609786 -23.177101781228032) rotate(10 260.297537704461 333.17710178122803) scale(-1 1) translate(-520.595075408922 0)">
<path d="M259.01 349.54c-13.866-.398-24.71-6.089-24.71-19.05 10.7-18.063 40.386-18.358 51.25-.275 4.415 12.208-11.607 19.753-26.54 19.325" style="fill:#fff;stroke:#000;stroke-linecap:round;stroke-linejoin:round;stroke-width:5"/><path d="M259.552 325.177c-10 0-10 15 0 15s10-15 0-15" style="fill:#000;stroke:#000;stroke-linecap:round;stroke-linejoin:round;stroke-width:4"/>
</g>
<g transform="translate(101.88888888888889 255.625) rotate(16 38.111111111111114 14.375)">
<path fill="#3D2314" stroke="#000" d="M71 25c8-8 0-16 0-16S43 1 35 1C25 1 7 5 7 5s-12 8 0 20c16 8 16-4 36-4s24 8 28 4Z"/>
</g>
<g transform="translate(221.88888888888889 255.625) rotate(-16 38.111111111111114 14.375) scale(-1 1) translate(-76.22222222222223 0)">
<path fill="#3D2314" stroke="#000" d="M71 25c8-8 0-16 0-16S43 1 35 1C25 1 7 5 7 5s-12 8 0 20c16 8 16-4 36-4s24 8 28 4Z"/>
</g>
<g transform="translate(160 425.5888888888889) scale(-1 1) translate(-80 0)">
<path d="M40 9C50 9 65-1 70 4s10 15 5 20-25 0-35 0-30 5-35 0S5 9 10 4s20 5 30 5Z" style="fill:#fff;stroke:#000;stroke-width:5"/>
</g>
<g transform="translate(174.5 336.5) scale(0.87 0.87) translate(3.810344827586207 5.005747126436782)">
<path fill="#ddb7a0" stroke="#000" stroke-width="5" d="m28 1 20 45s-5 20-25 20S3 46 3 46" class="nose"/>
</g>
<g transform="scale(0.898 1) translate(22.717149220489972 0)">
<defs><linearGradient id="a" x1="200" x2="200" y1="100" y2="310" gradientUnits="userSpaceOnUse"><stop offset="0" stop-color="rgba(0,0,0,.25)"/><stop offset="1" stop-color="rgba(0,0,0,0)"/></linearGradient></defs><path d="M60 310H50v-10c0-140 50-200 150-200s150 60 150 200v10h-10v-20c0-5-10-20-15-25s-5-55-15-65c-40-40-60 0-110 0s-70-40-110 0c-10 10-10 60-15 65s-15 20-15 25z" style="fill:url(#a);stroke:none"/><path fill="#3D2314" stroke="#000" stroke-width="4" d="M179.59 87.23c-1.3.91-3.19 1.7-4.18 1.74-.99.05-1.94.43-2.1.86-.16.42-2.14.88-4.39 1.01-2.72.17-4.17.58-4.35 1.27-.15.56-1.26 1.47-2.47 2.02-1.2.55-3.66 1.08-5.45 1.17s-3.47.51-3.73.94c-.29.48-1.24.39-2.4-.22-1.54-.81-3.12-.8-8.12.02-3.42.54-7.34 1.45-8.72 2.02-2.18.9-2.5 1.38-2.41 3.67.08 1.48-.16 3.1-.55 3.59-.38.49-2.55.91-4.81.93-3.62.03-4.16.24-4.53 1.81-.32 1.41-.85 1.73-2.44 1.47-1.11-.19-2.74-.32-3.62-.31-.88.02-1.72-.68-1.86-1.54-.15-.85-.87-1.53-1.62-1.51-.74.02-1.75.83-2.23 1.8-.47.98-.9 2.03-.96 2.32s-.45.84-.88 1.21c-.43.38-.85 1.41-.92 2.3-.07.9-.73 2.87-1.46 4.39-1.05 2.26-2.01 2.96-5.01 3.65-2.05.47-4.66 1.54-5.81 2.37-1.15.84-2.13 2.21-2.18 3.04-.04.84-1.44 2.56-3.11 3.83-2.07 1.59-3.66 2.17-5.06 1.83-1.59-.39-2.98.41-6.2 3.56-2.27 2.26-4.12 4.74-4.12 5.49 0 .76.51 1.51 1.13 1.67.89.23.87.78-.11 2.54-.68 1.24-.99 2.77-.68 3.41.33.68-1.52 3.22-4.48 6.16-3.86 3.84-5.7 6.62-7.74 11.65-1.55 3.64-3.43 7.13-4.13 7.74-.7.62-1.29 1.55-1.32 2.08-.02.53.55 2.79 1.26 5.03 1.03 3.45.98 4.24-.29 5.28-.83.67-1.95 2.68-2.52 4.46-.89 2.64-.72 3.62.96 5.23 1.13 1.1 1.92 2.42 1.74 2.95-.18.52.09 1.79.59 2.83s.84 1.25.75.47.41-.36 1.1.94c.69 1.29.95 3.09.59 4-.54 1.31.17 1.65 3.5 1.67 2.31.02 7.23.54 10.94 1.17l6.8 1.14c9.98-6.52 15.16-9.44 18.07-10.67 2.89-1.24 8.61-2.97 12.71-3.83 4.09-.87 11.79-1.85 17.12-2.17 6.86-.4 15.72.08 30.35 1.69 7.2.8 13.87 1.38 20.38 1.77 6.53.39 12.89.6 19.5.64 6.62.05 12.99-.07 19.52-.37s13.21-.77 20.45-1.43c15.33-1.35 23.43-1.6 30.98-1.01 5.62.45 13.34 1.51 17.16 2.36 3.83.84 9.3 2.49 12.17 3.67 2.89 1.16 8.07 3.85 11.56 5.94 3.94 2.22 7.32 3.53 8.48 3.39 1.05-.13 4.25-.6 7.1-1.05 2.84-.44 6.6-.77 8.38-.76 2.02.02 4.19-.71 5.84-1.97 1.45-1.11 2.48-2.46 2.29-2.99-.18-.53.81-1.46 2.19-2.06 2.28-.99 2.38-1.36 1.11-4.14-.71-1.72-1.98-3.66-2.84-4.29-1.35-.99-1.33-1.71.12-5.19.97-2.27 1.73-4.56 1.66-5.07s-.89-1.43-1.84-2.05c-.94-.63-2.48-3.48-3.39-6.37-1.02-3.46-3.06-7.34-5.83-11.08-2.33-3.18-4.83-6.28-5.57-6.89-.84-.68-1.12-1.83-.75-3.07.39-1.28.03-2.69-1.01-3.93-1.43-1.7-1.47-2.2-.35-4.09 1.19-2 .99-2.46-3.01-6.72-2.71-2.86-5.1-4.52-6.41-4.48-1.15.03-3.44-.65-5.09-1.51-1.85-.97-3.24-2.55-3.61-4.1-.34-1.39-1.33-3.36-2.21-4.37-.97-1.11-2.88-1.85-4.86-1.89-2.58-.05-3.72-.7-5.45-3.1-1.41-1.94-2.55-5.22-3.2-9.09l-1.1-5.98c-4.85-.09-6.38.42-6.52 1.07-.15.65-1.31 1.16-2.59 1.14-1.28-.01-2.44.5-2.58 1.15s-1.02-.21-1.97-1.91c-1.64-2.87-1.99-3.04-5.67-2.63-2.56.28-4.2.03-4.69-.71-.42-.63-.85-2.39-.98-3.9s-.59-3.21-1.02-3.79c-.42-.58-1.95-1.48-3.39-1.99s-5.46-1.31-8.92-1.76c-5.36-.67-6.45-.58-7.35.59-.96 1.25-1.28 1.26-3.23.09-1.19-.7-3.41-1.17-4.93-1.03-1.52.13-3.7.21-4.85.18-1.17-.03-2.11-.62-2.15-1.34-.03-.7-.8-1.45-1.7-1.66-.89-.21-2.35-.05-3.24.34-.89.4-1.79 1.2-2.01 1.79-.21.6-1.01 1.1-1.77 1.13-.77.03-2.36-.94-3.54-2.15-1.17-1.19-2.83-3.25-3.68-4.56-.85-1.29-2.2-2.4-3.02-2.46s-3.1 1.06-5.09 2.49l-3.64 2.61c-4.58-2.66-6.9-3.16-9.14-3.02-1.96.13-3.54-.03-3.53-.34.01-.32-2.12-.42-4.72-.23-3.36.24-5.42.83-7.1 2.01Z"/>
</g>
</svg>