<svg xmlns="http://www.w3.org/2000/svg" version="1.2" baseProfile="tiny" width="100%" height="100%" viewBox="0 0 400 600" preserveAspectRatio="xMinYMin meet">
<g transform="scale(1.01 1) translate(-1.980198019801982 0)">
<path fill="#ddb7a0" stroke="#000" stroke-width="6" d="M10 600s-10-70 50-70c10 0 0-10 60-20 0 0 50-210 80-210s80 210 80 210c60 10 50 20 60 20 60 0 50 70 50 70"/><path d="M71 545s46.9-3 82.1 10M329 545s-46.9-3-82.1 10m77.1-18s5.5-7.5 22-7m-271 7s-5.5-7.5-22-7"/>
</g>
<g transform="scale(1.01 1) translate(-1.980198019801982 0)">
<g stroke="#000"><path fill="#89bfd3" stroke-width="6" d="M120 505c0 35 50 25 80 45 30-20 80-10 80-45 30-25 90-15 100-5s10.07 20.41 15 50c5 30 5 20 5 60H0c0-40 0-29.59 5-59.59 4.93-29.59 5-39.38 15-50.41 9.5-10.48 70-20 100 5Z" class="footballPrimary"/><path fill="#7a1319" stroke-width="2" d="M120 505c0 35 50 25 80 45 30-20 80-10 80-45l15-10c5 60-55 45-95 75-40-30-100-15-95-75z" class="collarSecondary"/><g stroke-width="2"><path fill="#7a1319" d="m55 490-25 5-10 5v80h35zm290 0 25 5 10 5v80h-35z" class="vStripes1"/><path fill="#07364f" d="m30 495 15-3.14V580H30zm340 0-15-3.14V580h15z" class="vStripes2"/></g><path fill="none" stroke-width="6" d="M120 505c0 35 50 25 80 45 30-20 80-10 80-45 30-25 90-15 100-5s10.07 20.41 15 50c5 30 5 20 5 60H0c0-40 0-30 5-60 4.93-29.59 5-38.97 15-50 9.5-10.48 70-20 100 5Z" class="footballStroke"/><path fill="none" stroke-width="2" d="M19.5 570s72.5-2.11 81.5-20m280 20s-71-2.11-80-20" class="shp3"/></g>
</g>
<g transform="translate(33.53553390593274 291.01362954285077) scale(0.67 0.67) translate(10.572050464242082 16.73955559829738) translate(15.05106781186548 -2.979591836734694)">
<path fill="#ddb7a0" stroke="#000" stroke-width="6" d="M40 14S10-1 5 4s0 30 5 40-5 25 30 20z"/>
</g>
<g transform="translate(323.53553390593277 291.01362954285077) scale(-0.67 0.67) translate(-53.50098265237661 16.73955559829738) translate(15.05106781186548 -2.979591836734694)">
<path fill="#ddb7a0" stroke="#000" stroke-width="6" d="M40 14S10-1 5 4s0 30 5 40-5 25 30 20z"/>
</g>
<g transform="scale(0.884 1) translate(26.244343891402714 0)">
<path fill="#ddb7a0" stroke="#000" stroke-width="6" d="M200 100c100 0 150 60 150 200 0 120-10 150-110 190 0 0-20 10-40 10s-40-10-40-10C60 450 50 420 50 300c0-140 50-200 150-200Z" class="head"/><path fill="rgba(0,0,0,0)" d="M60 300H50c0-140 50-200 150-200s150 60 150 200h-10v-10c0-5-10-20-15-25s-5-55-15-65c-40-40-60 0-110 0s-70-40-110 0c-10 10-10 60-15 65s-15 20-15 25z" class="headShave"/><path fill="rgba(0,0,0,0)" d="M200 410c30 0 50 10 50 10 30 0 90-15 90-120h10c0 120-10 150-110 190 0 0-20 10-40 10s-40-10-40-10C60 450 50 420 50 300h10c0 105 60 120 90 120 0 0 20-10 50-10" class="faceShave"/>
</g>
<g>
<path fill="none" stroke="#000" stroke-width="2" d="M240 355s20-10 45 0m-125 0s-20-10-45 0" class="eyeline5"/>
</g>
<g transform="translate(147 424.5) scale(0.26 0.26) translate(8.538461538461537 29.884615384615383)">
<path fill="none" stroke="#000" stroke-width="2" d="m0 20 6-10-6-9" class="shp0"/>
</g>
<g transform="translate(247 424.5) scale(-0.26 0.26) translate(-14.538461538461538 29.884615384615383)">
<path fill="none" stroke="#000" stroke-width="2" d="m0 20 6-10-6-9" class="shp0"/>
</g>
<g>
<path fill="none" stroke="#000" stroke-width="2" d="M200 270v-15l5-5-5 5-5-5"/>
</g>
<g transform="translate(99.23500000000001 289.1206538286518) rotate(13 40.76499999999999 20.879346171348168)">
<path d="M73.63 30.14S62.25 5.74 32.3 7.42C12.33 8.54 7.9 18.8 7.9 18.8l5.83 14.7c30.23 3.31 59.9-3.36 59.9-3.36" style="fill:#fff"/><path d="M40.63 30.99a9.99 9.99 0 0 0 9.42-10.55 9.985 9.985 0 0 0-10.54-9.42 10 10 0 0 0-9.43 10.54c.31 5.52 5.03 9.74 10.55 9.43" style="fill:#000"/><path d="M73.63 30.14S72.51 10.17 32.3 7.42C12.33 8.54 7.9 18.8 7.9 18.8l5.83 14.7" style="fill:none;stroke:#000;stroke-width:5"/>
</g>
<g transform="translate(219.235 289.1206538286518) rotate(-13 40.76499999999999 20.879346171348168) scale(-1 1) translate(-81.52999999999999 0)">
<path d="M73.63 30.14S62.25 5.74 32.3 7.42C12.33 8.54 7.9 18.8 7.9 18.8l5.83 14.7c30.23 3.31 59.9-3.36 59.9-3.36" style="fill:#fff"/><path d="M40.63 30.99a9.99 9.99 0 0 0 9.42-10.55 9.985 9.985 0 0 0-10.54-9.42 10 10 0 0 0-9.43 10.54c.31 5.52 5.03 9.74 10.55 9.43" style="fill:#000"/><path d="M73.63 30.14S72.51 10.17 32.3 7.42C12.33 8.54 7.9 18.8 7.9 18.8l5.83 14.7" style="fill:none;stroke:#000;stroke-width:5"/>
</g>
<g transform="translate(101.1730837983227 257.1537046085226) rotate(-3 38.82691620167731 12.846295391477362)">
<path fill="#e9c67b" stroke="#000" d="M76.4 16.1c2.85-2.24-.05-6.36-.05-6.36s-16.86.54-26.27-.02c-9.49-.6-35.33-.86-35.33-.86s-2.2 6.65.57 7.62c2.68.61 24.54-1.45 34.09-.89 9.6.59 24.04 2.16 26.99.51Z"/><path d="M0 10h5v5H0z" style="fill:none"/>
</g>
<g transform="translate(221.1730837983227 257.1537046085226) rotate(3 38.82691620167731 12.846295391477362) scale(-1 1) translate(-77.65383240335461 0)">
<path fill="#e9c67b" stroke="#000" d="M76.4 16.1c2.85-2.24-.05-6.36-.05-6.36s-16.86.54-26.27-.02c-9.49-.6-35.33-.86-35.33-.86s-2.2 6.65.57 7.62c2.68.61 24.54-1.45 34.09-.89 9.6.59 24.04 2.16 26.99.51Z"/><path d="M0 10h5v5H0z" style="fill:none"/>
</g>
<g transform="translate(169 428) scale(-1 1) translate(-62 0)">
<path d="m1 22 60-10L51 2" style="fill:none;stroke:#000;stroke-width:5"/>
</g>
<g transform="translate(140.84321577312707 292.352) scale(-0.87 0.87) translate(-127.15308793592229 11.602574712643678)">
<path fill="#ddb7a0" stroke="#000" stroke-width="5" d="M50 50s-20 60 9 55c0 0 29 5 9-55"/>
</g>
<g transform="scale(0.884 1) translate(26.244343891402714 0)">
<path fill="#e9c67b" stroke="#000" stroke-width="4" d="M60 310H50v-10c0-133.375 45.38-194.143 136.14-199.595Q192.902 100 200 100c100 0 150 60 150 200v10h-10c-5.865-19.535-9.397-26.984-15-45-2.917-4.702-25.536-47.024-35.536-57.024s-53.452 7.5-84.107 19.107c-10.733 4.064-108.964 32.475-119.957 32.19 0 0-7.086 5.755-10.4 5.727-5 5-15 20-15 25z"/>
</g>
</svg>