<svg xmlns="http://www.w3.org/2000/svg" version="1.2" baseProfile="tiny" width="100%" height="100%" viewBox="0 0 400 600" preserveAspectRatio="xMinYMin meet">
<g transform="scale(0.99 1) translate(2.020202020202022 0)">
<path fill="#5c3937" stroke="#000" stroke-width="6" d="M10 600s-10-70 50-70c10 0 0-10 60-20 0 0 50-210 80-210s80 210 80 210c60 10 50 20 60 20 60 0 50 70 50 70"/><path d="M71 545s46.9-3 82.1 10M329 545s-46.9-3-82.1 10m77.1-18s5.5-7.5 22-7m-271 7s-5.5-7.5-22-7"/>
</g>
<g transform="scale(0.99 1) translate(2.020202020202022 0)">
<path fill="#89bfd3" stroke="#000" stroke-width="6" d="M80 610s10-30 10-90l20-10s10 80 90 80 90-80 90-80l20 10c0 60 10 90 10 90z" class="primary"/><path fill="#7a1319" d="M85 575v25h230v-25h-65s-20 15-50 15-50-15-50-15z" class="secondary"/><path fill="none" stroke="#000" stroke-width="16" d="M90 520c0 60-10 90-10 90m230-90c0 60 10 90 10 90M110 510s10 80 90 80 90-80 90-80" class="outline"/><path fill="none" stroke="#89bfd3" stroke-width="12" d="M90 520c0 60-10 90-10 90m230-90c0 60 10 90 10 90M110 510s10 80 90 80 90-80 90-80" class="stripe-primary"/><path fill="none" stroke="#07364f" stroke-width="6" d="M90 520c0 60-10 90-10 90m230-90c0 60 10 90 10 90M110 510s10 80 90 80 90-80 90-80" class="stripe-accent"/>
</g>
<g transform="translate(32 290.6) scale(0.78 0.78) translate(6.487179487179486 9.702564102564104) translate(-3 -3)">
<path fill="#5c3937" stroke="#000" stroke-width="6" d="M43 13S23 3 13 3 3 23 3 33s3 20 13 30 27-10 27-10z"/>
</g>
<g transform="translate(322 290.6) scale(-0.78 0.78) translate(-52.48717948717948 9.702564102564104) translate(-3 -3)">
<path fill="#5c3937" stroke="#000" stroke-width="6" d="M43 13S23 3 13 3 3 23 3 33s3 20 13 30 27-10 27-10z"/>
</g>
<g transform="scale(1 1) translate(0 0)">
<path fill="#5c3937" stroke="#000" stroke-width="6" d="M200 100c100 0 150 60 150 200-20 180-10 140-90 180-30 10-40 20-60 20s-30-10-60-20c-80-40-70 0-90-180 0-140 50-200 150-200Z" class="head"/><path fill="rgba(0,0,0,0)" d="M60 300H50c0-140 50-200 150-200s150 60 150 200h-10v-10c0-5-10-20-15-25s-5-55-15-65c-40-40-60 0-110 0s-70-40-110 0c-10 10-10 60-15 65s-15 20-15 25z" class="headShave"/><path fill="rgba(0,0,0,0)" d="M200 410c30 0 50 10 50 10 30 0 90-15 90-120h10c-20 180.69-10 140-90 180-30 10-40 20-60 20s-30-10-60-20c-80-40-70 0-90-180h10c0 105 60 120 90 120 0 0 20-10 50-10" class="faceShave"/>
</g>
<g>
<path fill="none" stroke="#000" stroke-width="2" d="M300 320s5 5 10 5m-13.25-2.47S300 335 305 335m-205-15s-5 5-10 5m13.25-2.47S100 335 95 335" class="eyeline2"/>
</g>
<g transform="translate(147 424.5) scale(0.92 0.92) translate(0.2608695652173912 0.9130434782608692)">
<path fill="none" stroke="#000" stroke-width="2" d="m0 20 6-10-6-9" class="shp0"/>
</g>
<g transform="translate(247 424.5) scale(-0.92 0.92) translate(-6.260869565217391 0.9130434782608692)">
<path fill="none" stroke="#000" stroke-width="2" d="m0 20 6-10-6-9" class="shp0"/>
</g>
<g transform="translate(-129.75510204081633 -22) rotate(13 269.7551020408163 332)">
<path d="M240 340c0-4-6-20 24-20 20 0 36 8 36 12s-12 12-20 12c-4 0-40 0-40-4Z" style="fill:#fff;stroke:#000;stroke-width:5"/><path d="M268 340c-3.32 0-6-3.58-6-8s2.68-8 6-8 6 3.58 6 8-2.68 8-6 8Z" style="fill:#000;stroke:#000;stroke-width:5"/>
</g>
<g transform="translate(-9.755102040816325 -22) rotate(-13 269.7551020408163 332) scale(-1 1) translate(-539.5102040816327 0)">
<path d="M240 340c0-4-6-20 24-20 20 0 36 8 36 12s-12 12-20 12c-4 0-40 0-40-4Z" style="fill:#fff;stroke:#000;stroke-width:5"/><path d="M268 340c-3.32 0-6-3.58-6-8s2.68-8 6-8 6 3.58 6 8-2.68 8-6 8Z" style="fill:#000;stroke:#000;stroke-width:5"/>
</g>
<g transform="translate(105.43111111111111 259) rotate(-13 34.5688888888889 11)">
<path fill="#272421" stroke="#000" d="M66 13c4-4 0-8 0-8H30C14 5 2 1 2 1s-4 0 8 12l-4 8h32c20 0 24-4 28-8Z"/>
</g>
<g transform="translate(225.4311111111111 259) rotate(13 34.5688888888889 11) scale(-1 1) translate(-69.1377777777778 0)">
<path fill="#272421" stroke="#000" d="M66 13c4-4 0-8 0-8H30C14 5 2 1 2 1s-4 0 8 12l-4 8h32c20 0 24-4 28-8Z"/>
</g>
<g transform="translate(0 51.52119068455602) scale(-1 1) translate(-400 0)">
<path d="M168 384s9-13.77 32-14.03c17.4-.2 32 13.2 32 13.2s-4.29 23.24-32 23.81c-27.29.56-32-22.98-32-22.98" style="opacity:.05;mix-blend-mode:multiply;fill:#501414"/><path d="M181.71 402.12c14.52 5.66 24.72 5.71 37.72-.71m.86-26.53c-14.52-5.66-27.29-6.34-40.29.09" style="fill:none;stroke:#000;stroke-width:2"/><path d="M165 390s20-5 35-5 35 4 35 4" style="fill:none;stroke:#000;stroke-width:4"/>
</g>
<g transform="translate(144.4115 264.9735) scale(0.98 0.98) translate(1.1344591836734703 2.1433979591836754)">
<path fill="#5c3937" stroke="#000" stroke-width="5" d="M40.3 99.804c2.56 5.426 7.286 9.34 15.292 10.445 8.532-1.475 12.386-4.548 15.285-10.378"/>
</g>
<g transform="scale(1 1) translate(0 0)">
<path fill="#272421" stroke="#000" stroke-width="4" d="M60 310H50v-10c0-140 50-200 150-200s150 60 150 200v10h-10v-20c0-5-10-20-15-25s-5-50-15-60-60-5-110-5-100-5-110 5-10 55-15 60-15 20-15 25z"/>
</g>
<g transform="scale(1 1) translate(0 0)">
<g stroke="#000"><path fill="#07364f" stroke-width="2" d="M199.8 82c3.4 0 7.2.6 8.8 1.5 1.6.8 2.9 2 2.9 2.5s.2 1.7.5 2.5c.4 1.3-1.3 1.5-12 1.5s-12.4-.2-12-1.5c.3-.8.4-1.9.3-2.5-.1-.5 1.1-1.6 2.7-2.4 1.5-.9 5.4-1.5 8.8-1.6z" class="s0"/><path fill="#7a1319" stroke-width="6" d="M197.8 90.1c13.3-.1 23 .5 34.6 1.9 8.8 1.1 20.8 3 26.6 4.1s15.5 3.3 21.6 5c6 1.6 14.4 4.3 18.7 6 4.2 1.7 10.2 4.5 13.3 6.2 3.1 1.8 7.4 5 9.5 7.2 2.3 2.3 5.3 7.1 7.1 11.3 2 4.7 4 12 5.6 21 1.4 7.5 3.5 17.8 4.7 22.7s3.2 11.7 4.3 15c1.2 3.3 3 11.8 4 19 .9 7.2 1.7 17.9 1.7 24s-.3 11.8-.7 12.7c-.6 1.5-1.1 1.4-4.9-1.1-2.4-1.5-8.9-5.3-14.4-8.4-5.6-3-16.4-8.3-24-11.7-7.7-3.5-20.8-8.6-29.3-11.5-8.4-3-21.8-6.7-29.7-8.4-7.9-1.6-18.6-3.5-23.7-4.1-5.2-.5-15.4-1-22.8-1s-17.6.5-22.8 1c-5.1.6-15.8 2.5-23.7 4.1-7.9 1.7-22 5.7-31.2 8.9s-22.4 8.3-29.2 11.5c-6.9 3.1-17.9 8.6-24.5 12.2s-13.2 7.4-14.6 8.4c-2.3 1.6-2.7 1.7-3.1.4-.3-.8-.5-6.1-.5-11.7 0-5.7.6-15.5 1.3-21.8.8-6.3 1.9-13.5 2.5-16 .7-2.5 2.4-8.3 3.9-13s3.8-14.6 5.1-22 3.1-16.4 4-20 2.7-8.9 4.1-11.9 4.3-7.3 6.5-9.5c2.1-2.3 7.3-6 11.5-8.2 4.2-2.3 10.8-5.3 14.8-6.7s11.5-3.7 16.8-5.1 13.5-3.3 18.2-4.2 15.8-2.7 24.5-3.9c11.2-1.6 21.1-2.3 34.2-2.4z"/><path fill="#89bfd3" stroke-width="4" d="M69.6 237.7c-6.6 3.6-13.2 7.4-14.7 8.4-2.2 1.6-2.7 1.7-3.1.4-.2-.8-.4-6.1-.4-11.7-.1-5.7.6-15.5 1.3-21.8s1.9-13.5 2.5-16 2.4-8.3 3.9-13 3.8-14.6 5.1-22c0 0 12 72.1 5.4 75.7zM336.8 162c1.3 7.4 3.6 17.3 5.1 22s3.2 10.5 3.9 13c.6 2.5 1.7 9.7 2.5 16 .7 6.3 1.3 16.1 1.3 21.8 0 5.6-.2 10.9-.5 11.7-.4 1.3-.8 1.2-3.1-.4-1.4-1-8-4.8-14.6-8.4s5.4-75.7 5.4-75.7z"/><path fill="#07364f" stroke-width="6" d="M196.2 197c9.2 0 20.8.3 25.9.7 5 .4 13.6 1.5 19.1 2.4 5.6 1 14.4 2.8 19.7 4.1s13.7 3.7 18.7 5.2c5 1.6 14.7 5.1 21.6 7.9 6.8 2.7 17 7.3 22.5 10 5.6 2.8 14.9 7.9 20.6 11.2 5.8 3.4 12.4 7.5 14.6 9.2 3.2 2.4 4.1 3.6 4.1 5.6 0 1.6-.7 3.3-1.9 4.2-1.1.9-3.2 1.6-4.8 1.6-2.1 0-5.1-1.4-10.8-5.1-4.3-2.8-13.3-8-19.9-11.6s-19.3-9.5-28.3-13.1c-8.9-3.7-20.6-8-25.9-9.6-5.2-1.5-13.4-3.7-18.2-4.9-4.7-1.1-14.9-2.9-22.5-4-11.3-1.7-17.1-2-30.7-2s-19.4.3-30.7 2c-7.6 1.1-17.8 2.9-22.5 4-4.8 1.2-13 3.4-18.2 4.9-5.3 1.6-17 5.9-25.9 9.6-9 3.6-21.7 9.5-28.3 13.1s-15.6 8.8-19.9 11.6c-6.3 4.1-8.6 5.1-11.3 5.1-1.8 0-4-.5-4.8-1.2-.8-.6-1.4-2.4-1.4-4 0-2.2.8-3.4 3.8-5.9 2.1-1.8 7.4-5.3 11.7-7.8s12.8-7.2 18.9-10.4 17.6-8.4 25.5-11.7c7.9-3.2 18.7-7.2 24-8.8 5.3-1.7 14.7-4.2 21.1-5.7 6.3-1.5 17.3-3.6 24.4-4.6 10.3-1.5 16.5-2 29.8-2z"/></g>
</g>
</svg>