<svg xmlns="http://www.w3.org/2000/svg" version="1.2" baseProfile="tiny" width="100%" height="100%" viewBox="0 0 400 600" preserveAspectRatio="xMinYMin meet">
<g transform="scale(1.01 1) translate(-1.980198019801982 0)">
<path fill="#74453d" stroke="#000" stroke-width="6" d="M10 600s0-50 60-70 70-50 70-50l60-180 60 180s10 30 70 50 60 70 60 70" class="body"/>
</g>
<g transform="scale(1.01 1) translate(-1.980198019801982 0)">
<g stroke="#000"><path fill="#89bfd3" stroke-width="6" d="M120 505c0 35 50 25 80 45 30-20 80-10 80-45 30-25 90-15 100-5s10.07 20.41 15 50c5 30 5 20 5 60H0c0-40 0-29.59 5-59.59 4.93-29.59 5-39.38 15-50.41 9.5-10.48 70-20 100 5Z" class="footballPrimary"/><path fill="#7a1319" stroke-width="2" d="M120 505c0 35 50 25 80 45 30-20 80-10 80-45l15-10c5 60-55 45-95 75-40-30-100-15-95-75z" class="collarSecondary"/><g stroke-width="2"><path fill="#7a1319" d="m55 490-25 5-10 5v80h35zm290 0 25 5 10 5v80h-35z" class="vStripes1"/><path fill="#07364f" d="m30 495 15-3.14V580H30zm340 0-15-3.14V580h15z" class="vStripes2"/></g><path fill="none" stroke-width="6" d="M120 505c0 35 50 25 80 45 30-20 80-10 80-45 30-25 90-15 100-5s10.07 20.41 15 50c5 30 5 20 5 60H0c0-40 0-30 5-60 4.93-29.59 5-38.97 15-50 9.5-10.48 70-20 100 5Z" class="footballStroke"/><path fill="none" stroke-width="2" d="M19.5 570s72.5-2.11 81.5-20m280 20s-71-2.11-80-20" class="shp3"/></g>
</g>
<g transform="translate(33.53553390593274 291.01362954285077) scale(0.79 0.79) translate(5.705744151587498 9.03435164050802) translate(5.751067811865477 -2.979591836734694)">
<path fill="#74453d" stroke="#000" stroke-width="6" d="M40 14S10-1 5 4s0 30 5 40-5 25 30 20z"/>
</g>
<g transform="translate(323.53553390593277 291.01362954285077) scale(-0.79 0.79) translate(-48.63467633972202 9.03435164050802) translate(5.751067811865477 -2.979591836734694)">
<path fill="#74453d" stroke="#000" stroke-width="6" d="M40 14S10-1 5 4s0 30 5 40-5 25 30 20z"/>
</g>
<g transform="scale(0.9440000000000001 1) translate(11.864406779661005 0)">
<path fill="#74453d" stroke="#000" stroke-width="6" d="M200 100c100 0 150 60 150 200 0 70-50 200-150 200S50 370 50 300c0-140 50-200 150-200Z" class="head"/><path fill="rgba(0,0,0,0)" d="M200 410c30 0 50 10 50 10 30 0 90-15 90-120h10c0 70-50 200-150 200S50 370 50 300h10c0 105 60 120 90 120 0 0 20-10 50-10" class="faceShave"/><path fill="rgba(0,0,0,0)" d="M60 300H50c0-140 50-200 150-200s150 60 150 200h-10v-10c0-5-10-20-15-25s-5-55-15-65c-40-40-60 0-110 0s-70-40-110 0c-10 10-10 60-15 65s-15 20-15 25z" class="headShave"/>
</g>
<g>
<path fill="none" stroke="#000" stroke-width="2" d="M240 340s10 10 25 10m-105-10s-10 10-25 10" class="eyeline3"/>
</g>
<g transform="translate(102.24084342899988 286.1384650016032) rotate(1 37.759156571000126 23.861534998396785)">
<path d="M5 20s12.08-8.23 35-8.23S70 30 70 30s-7.15 9.92-30.07 9.92S5 20 5 20" style="fill:#f5f3ee"/><path d="M5 20c-2.87-2.87 12.2-9.55 35-11.9C70 5 72.87 27.13 70 30s-7.08-13.73-30-13.73S7.87 22.87 5 20" class="black"/><path d="M39.93 33.04c-6.34 0-11.46-5.12-11.46-11.46 0-6.33 5.12-11.46 11.46-11.46s11.46 5.13 11.46 11.46c0 6.34-5.12 11.46-11.46 11.46" class="black"/>
</g>
<g transform="translate(222.24084342899988 286.1384650016032) rotate(-1 37.759156571000126 23.861534998396785) scale(-1 1) translate(-75.51831314200025 0)">
<path d="M5 20s12.08-8.23 35-8.23S70 30 70 30s-7.15 9.92-30.07 9.92S5 20 5 20" style="fill:#f5f3ee"/><path d="M5 20c-2.87-2.87 12.2-9.55 35-11.9C70 5 72.87 27.13 70 30s-7.08-13.73-30-13.73S7.87 22.87 5 20" class="black"/><path d="M39.93 33.04c-6.34 0-11.46-5.12-11.46-11.46 0-6.33 5.12-11.46 11.46-11.46s11.46 5.13 11.46 11.46c0 6.34-5.12 11.46-11.46 11.46" class="black"/>
</g>
<g transform="translate(109 261.5) rotate(16 31 8.5)">
<path fill="#272421" stroke="#000" d="M61 16V6L31 1 1 6v10l30-5z"/>
</g>
<g transform="translate(229 261.5) rotate(-16 31 8.5) scale(-1 1) translate(-62 0)">
<path fill="#272421" stroke="#000" d="M61 16V6L31 1 1 6v10l30-5z"/>
</g>
<g transform="translate(0 0) scale(-1 1) translate(-400 0)">
<path d="M170 430s10 20 30 20 30-20 30-20z" style="fill:#fff;stroke:#000;stroke-width:5"/>
</g>
<g transform="translate(0 77.5) scale(-0.64 0.64) translate(-512.5 164.53125)">
<path fill="#74453d" stroke="#000" stroke-width="5" d="M190 300c-5-15 5-15 10-15s15 0 10 15" class="nose"/>
</g>
<g transform="scale(-1 1) translate(-400.4388748938115 0) scale(0.9440000000000001 1) translate(11.877424255324902 0)">
<path fill="#272421" stroke="#000" stroke-width="4" d="m61.7 299.46-10.79-1.23s-10.55-7.47-9.99-21.33c.2-6.62.55-13.25 1.03-19.82.48-6.75 1.1-13.35 1.87-19.76.77-6.5 1.71-12.75 2.79-18.74q1.68-9.06 3.81-17.28c2.95-11.1 6.5-21.14 10.55-30.24 4.14-9.39 8.72-17.95 13.64-25.73 4.93-8.16 10.17-15.52 15.66-22.06 5.47-6.82 11.21-12.68 17.19-17.5 5.99-4.91 12.29-8.62 18.85-11.06 6.62-2.37 13.57-3.37 20.77-2.99l3.58 10.85s-.75-13.55 5.88-19a177 177 0 0 1 29.09-2.68c9.7.09 19.24.91 28.5 2.37 9.29 1.54 18.27 3.62 26.81 6.14 8.53 2.51 16.59 5.39 24.08 8.55 7.45 3.07 14.32 6.39 20.5 9.9 6.15 3.4 11.62 7 16.32 10.78 9.32 7.24 15.62 15.38 18.16 24.57 9.94 8.58 17.34 13.01 22.88 16.87 5.51 3.74 9.18 7.07 11.66 13.24 2.47 6.14 3.76 15.25 4.44 30.69.33 7.78.49 17.19.55 28.61.02 5.72.01 11.94-.02 18.7-.04 6.74-.1 14-.17 21.81-.22 17.63-10.22 27.27-10.22 27.27l-9.83.91.08-16.17c.03-4.17-9.91-15.03-14.94-18.34-2.52-1.66-3.75-13.28-5.58-25.67-1.82-12.71-4.24-26.18-9.3-29.97-2.53-1.93-8.29-2.15-16.16-1.32-7.91.76-17.95 2.52-29.02 4.63-11.09 1.98-23.17 4.25-35.09 6.18-11.91 1.75-23.62 3.16-33.98 3.69-15.47.5-24.85-4.38-30.68-10.75-5.77-6.56-8.03-14.6-9.36-20.07-.19 5.46-12.88 10.55-26.66 15.16-13.56 4.08-28.05 7.46-32.89 11.64-4.8 4.01-9.64 16.87-13.62 28.51-3.71 10.96-6.61 20.92-8.83 22.4-4.44 2.92-13.2 12.13-12.93 15.54.29 3.31 1.37 12.7 1.37 12.7Z"/>
</g>
</svg>