<svg xmlns="http://www.w3.org/2000/svg" version="1.2" baseProfile="tiny" width="100%" height="100%" viewBox="0 0 400 600" preserveAspectRatio="xMinYMin meet">
<g transform="scale(0.98 1) translate(4.081632653061228 0)">
<path fill="#f0c5a3" stroke="#000" stroke-width="6" d="M10 600s-10-70 50-70c10 0 0-10 60-20 0 0 50-210 80-210s80 210 80 210c60 10 50 20 60 20 60 0 50 70 50 70"/><path d="M71 545s46.9-3 82.1 10M329 545s-46.9-3-82.1 10m77.1-18s5.5-7.5 22-7m-271 7s-5.5-7.5-22-7"/>
</g>
<g transform="scale(0.98 1) translate(4.081632653061228 0)">
<path fill="#89bfd3" stroke="#000" stroke-width="6" d="M80 610s10-30 10-90l20-10s10 80 90 80 90-80 90-80l20 10c0 60 10 90 10 90z" class="jersey"/><path fill="none" stroke="#000" stroke-width="16" d="M90 520c0 60-10 90-10 90m230-90c0 60 10 90 10 90M110 510s10 80 90 80 90-80 90-80" class="outline"/><path fill="none" stroke="#07364f" stroke-width="12" d="M90 520c0 60-10 90-10 90m230-90c0 60 10 90 10 90M110 510s10 80 90 80 90-80 90-80" class="accent"/><path fill="none" stroke="#7a1319" stroke-width="6" d="M90 520c0 60-10 90-10 90m230-90c0 60 10 90 10 90M110 510s10 80 90 80 90-80 90-80" class="secondary"/>
</g>
<g transform="translate(32 290.6) scale(0.68 0.68) translate(10.823529411764703 16.188235294117646) translate(2.2700000000000014 -3)">
<path fill="#f0c5a3" stroke="#000" stroke-width="6" d="M43 13S23 3 13 3 3 23 3 33s3 20 13 30 27-10 27-10z"/>
</g>
<g transform="translate(322 290.6) scale(-0.68 0.68) translate(-56.8235294117647 16.188235294117646) translate(2.2700000000000014 -3)">
<path fill="#f0c5a3" stroke="#000" stroke-width="6" d="M43 13S23 3 13 3 3 23 3 33s3 20 13 30 27-10 27-10z"/>
</g>
<g transform="scale(0.9660000000000001 1) translate(7.039337474120066 0)">
<path fill="#f0c5a3" stroke="#000" stroke-width="6" d="M200 100c100 0 150 60 150 200 0 0-20 105-20 135s-60 45-80 55-10 15-50 5c-40 10-30 5-50-5s-80-25-80-55-20-135-20-135c0-140 50-200 150-200Z" class="head"/><path fill="rgba(0,0,0,0.17)" d="M60 300H50c0-140 50-200 150-200s150 60 150 200h-10v-10c0-5-10-20-15-25s-5-55-15-65c-40-40-60 0-110 0s-70-40-110 0c-10 10-10 60-15 65s-15 20-15 25z" class="headShave"/><path fill="rgba(0,0,0,0.17)" d="M200 410c30 0 50 10 50 10 30 0 90-15 90-120h10s-20 105-20 135-60 45-80 55-10 15-50 5c-40 10-30 5-50-5s-80-25-80-55-20-135-20-135h10c0 105 60 120 90 120 0 0 20-10 50-10" class="faceShave"/>
</g>
<g>
<path fill="none" stroke="#000" stroke-width="2" d="M235 285s10-10 45-10m-115 10s-10-10-45-10" class="eyeline6"/>
</g>
<g transform="translate(147 424.5) scale(2.06 2.06) translate(-1.5436893203883495 -5.402912621359223)">
<path fill="none" stroke="#000" stroke-width="2" d="m0 20 6-10-6-9" class="shp0"/>
</g>
<g transform="translate(247 424.5) scale(-2.06 2.06) translate(-4.45631067961165 -5.402912621359223)">
<path fill="none" stroke="#000" stroke-width="2" d="m0 20 6-10-6-9" class="shp0"/>
</g>
<g>
<path fill="none" stroke="#000" stroke-width="2" d="M180 465s10-5 20-5 20 5 20 5"/>
</g>
<g transform="scale(0.9660000000000001 1) translate(7.040657349896462 0)">
<path fill="#272421" stroke="#000" d="M341.86 329.762c-18.78 98.415-39.492 102.786-40.731 106.121-16.86 17.717-52.855 38.72-62.486 41.411-18.05 5.044-27.166 6.53-27.222 4.596-.084-2.842 0-14.947 0-14.947s-7.232-.02-11.188 0c-3.985.02-11.47 0-11.47 0s.03 11.263 0 14.947c-.022 2.551-15.622-.996-29.079-4.596-9.66-2.585-48.654-24.496-61.946-42.674-2.083-2.473-22.699-13.454-39.524-104.858h-10c6.25 93.092 30.023 116.409 32.351 120.951 0 0 44.861 57.484 119.668 57.548 75 .065 117.788-57.548 117.788-57.548 2.596-5.716 23.22-21.704 33.84-120.951z" class="shp0"/>
</g>
<g transform="translate(101.97070870858956 282.01425559511955) rotate(6 38.029291291410445 27.98574440488045)">
<path d="m6.19 40.49-.83-22.07s2.27-3.87 17.09.22c29.93 8.26 42.45 4.47 42.45 4.47l6.04 11.72s-7.05.61-29.88 2.61c-22.84 2-34.87 3.05-34.87 3.05" style="fill:#f5f3ee"/><path d="M38.86 36.14c-4.51.39-8.55-3.74-9.03-9.25s2.83-7.08 7.34-7.48c4.52-.39 8.51.54 8.99 6.05s-2.78 10.28-7.3 10.68" style="fill:#000"/><path d="M6.19 40.49S2.41 12.46 9.05 15.75c10.49 5.2 55.85 7.36 55.85 7.36l6.04 11.72" style="fill:none;stroke:#000;stroke-width:6"/>
</g>
<g transform="translate(221.97070870858954 282.01425559511955) rotate(-6 38.029291291410445 27.98574440488045) scale(-1 1) translate(-76.05858258282089 0)">
<path d="m6.19 40.49-.83-22.07s2.27-3.87 17.09.22c29.93 8.26 42.45 4.47 42.45 4.47l6.04 11.72s-7.05.61-29.88 2.61c-22.84 2-34.87 3.05-34.87 3.05" style="fill:#f5f3ee"/><path d="M38.86 36.14c-4.51.39-8.55-3.74-9.03-9.25s2.83-7.08 7.34-7.48c4.52-.39 8.51.54 8.99 6.05s-2.78 10.28-7.3 10.68" style="fill:#000"/><path d="M6.19 40.49S2.41 12.46 9.05 15.75c10.49 5.2 55.85 7.36 55.85 7.36l6.04 11.72" style="fill:none;stroke:#000;stroke-width:6"/>
</g>
<g transform="translate(105.43111111111111 259) rotate(-10 34.5688888888889 11)">
<path fill="#272421" stroke="#000" d="M66 13c4-4 0-8 0-8H30C14 5 2 1 2 1s-4 0 8 12l-4 8h32c20 0 24-4 28-8Z"/>
</g>
<g transform="translate(225.4311111111111 259) rotate(10 34.5688888888889 11) scale(-1 1) translate(-69.1377777777778 0)">
<path fill="#272421" stroke="#000" d="M66 13c4-4 0-8 0-8H30C14 5 2 1 2 1s-4 0 8 12l-4 8h32c20 0 24-4 28-8Z"/>
</g>
<g transform="translate(0 5)">
<path d="m170 440 10-10h40l10 10" style="fill:none;stroke:#000;stroke-width:5"/>
</g>
<g transform="translate(-1 1.294999999999959) scale(-1.06 1.06) translate(-390.62264150943395 -20.87009433962266)">
<path fill="#f0c5a3" stroke="#000" stroke-width="5" d="M186.89 385.17s-4.71-14.11 14.11-14.11 14.11 14.11 14.11 14.11M201 371.06v-18.82" class="nose"/>
</g>
<g transform="scale(-1 1) translate(-400 0) scale(0.9660000000000001 1) translate(7.039337474120066 0)">
<path fill="#272421" stroke="#000" stroke-width="4" d="M60 310H50s-40 0-40-50C10 120 80 70 200 70s190 50 190 190c0 50-40 50-40 50h-10v-20c0-5-10-20-15-25s-10-45-15-55c-6.32-12.65-60-10-110-10s-103.68-2.65-110 10c-5 10-10 50-15 55s-15 20-15 25zM200 70"/>
</g>
</svg>