<svg xmlns="http://www.w3.org/2000/svg" version="1.2" baseProfile="tiny" width="100%" height="100%" viewBox="0 0 400 600" preserveAspectRatio="xMinYMin meet">
<g transform="scale(1.01 1) translate(-1.980198019801982 0)">
<path fill="#ddb7a0" stroke="#000" stroke-width="6" d="M10 600s0-50 60-70 70-50 70-50l60-180 60 180s10 30 70 50 60 70 60 70" class="body"/>
</g>
<g transform="scale(1.01 1) translate(-1.980198019801982 0)">
<path fill="#89bfd3" stroke="#000" stroke-width="6" d="M80 610s10-30 10-90l20-10s10 80 90 80 90-80 90-80l20 10c0 60 10 90 10 90z" class="jersey"/><path fill="none" stroke="#000" stroke-width="16" d="M90 520c0 60-10 90-10 90m230-90c0 60 10 90 10 90M110 510s10 80 90 80 90-80 90-80" class="outline"/><path fill="none" stroke="#07364f" stroke-width="8" d="M90 520c0 60-10 90-10 90m230-90c0 60 10 90 10 90m-210-98s15 78 90 78 90-78 90-78" class="stripe-accent"/><path fill="none" stroke="#89bfd3" stroke-width="4" d="M86 522c0 60-10 88-10 88m238-88c0 60 10 88 10 88M114 510s11 76 86 76 86-76 86-76" class="stripe-primary"/><path fill="none" stroke="#7a1319" stroke-width="4" d="M94 518c0 60-10 92-10 92m222-92c0 60 10 92 10 92m-210-96s12 80 94 80 94-80 94-80" class="stripe-secondary"/>
</g>
<g transform="translate(32 293.3) scale(1.34 1.34) translate(-5.83582089552239 -8.043283582089554) translate(26.45 -3)">
<path fill="#ddb7a0" stroke="#000" stroke-width="6" d="M43 8S3-12 3 28c0 45 40 30 40 30z"/>
</g>
<g transform="translate(322 293.3) scale(-1.34 1.34) translate(-40.164179104477604 -8.043283582089554) translate(26.45 -3)">
<path fill="#ddb7a0" stroke="#000" stroke-width="6" d="M43 8S3-12 3 28c0 45 40 30 40 30z"/>
</g>
<g transform="scale(0.81 1) translate(46.91358024691356 0)">
<path fill="#ddb7a0" stroke="#000" stroke-width="6" d="M200 100c100 0 150 60 150 200 0 70-30 150-40 160s-60 40-110 40-100-30-110-40-40-90-40-160c0-140 50-200 150-200Z" class="head"/><path fill="rgba(0,0,0,0)" d="M200 410c30 0 50 10 50 10 30 0 90-15 90-120h10c0 70-30 150-40 160s-60 40-110 40-100-30-110-40-40-90-40-160h10c0 105 60 120 90 120 0 0 20-10 50-10" class="faceShave"/><path fill="rgba(0,0,0,0)" d="M60 300H50c0-140 50-200 150-200s150 60 150 200h-10v-10c0-5-10-20-15-25s-5-55-15-65c-40-40-60 0-110 0s-70-40-110 0c-10 10-10 60-15 65s-15 20-15 25z" class="headShave"/>
</g>
<g>
<path fill="none" stroke="#000" stroke-width="2" d="M235 285s10-10 45-10m-115 10s-10-10-45-10" class="eyeline6"/>
</g>
<g transform="translate(142.67 417.5) scale(0.72 0.72) translate(2.8505555555555557 6.805555555555556)">
<path fill="none" stroke="#000" stroke-width="2" d="M12.33 4.32s-10 3.29-10 13.18 10 13.18 10 13.18" class="shp0"/>
</g>
<g transform="translate(242.67 417.5) scale(-0.72 0.72) translate(-17.510555555555555 6.805555555555556)">
<path fill="none" stroke="#000" stroke-width="2" d="M12.33 4.32s-10 3.29-10 13.18 10 13.18 10 13.18" class="shp0"/>
</g>
<g>
<path d="M144 363c-1.66 0-3-1.34-3-3s1.34-3 3-3 3 1.34 3 3-1.34 3-3 3m-15-1c-1.11 0-2-.89-2-2s.89-2 2-2 2 .89 2 2-.89 2-2 2m-15 1c-1.66 0-3-1.34-3-3s1.34-3 3-3 3 1.34 3 3-1.34 3-3 3m-15-1c-1.11 0-2-.89-2-2s.89-2 2-2 2 .89 2 2-.89 2-2 2m5 11c-1.66 0-3-1.34-3-3s1.34-3 3-3 3 1.34 3 3-1.34 3-3 3m10-1c-1.11 0-2-.89-2-2s.89-2 2-2 2 .89 2 2-.89 2-2 2m10 1c-1.66 0-3-1.34-3-3s1.34-3 3-3 3 1.34 3 3-1.34 3-3 3m10-1c-1.11 0-2-.89-2-2s.89-2 2-2 2 .89 2 2-.89 2-2 2m10 11c-1.66 0-3-1.34-3-3s1.34-3 3-3 3 1.34 3 3-1.34 3-3 3m-15-1c-1.11 0-2-.89-2-2s.89-2 2-2 2 .89 2 2-.89 2-2 2m-10 0c-1.11 0-2-.89-2-2s.89-2 2-2 2 .89 2 2-.89 2-2 2m-10 1c-1.66 0-3-1.34-3-3s1.34-3 3-3 3 1.34 3 3-1.34 3-3 3m-10-1c-1.11 0-2-.89-2-2s.89-2 2-2 2 .89 2 2-.89 2-2 2m45-10c-1.11 0-2-.89-2-2s.89-2 2-2 2 .89 2 2-.89 2-2 2m-50 0c-1.11 0-2-.89-2-2s.89-2 2-2 2 .89 2 2-.89 2-2 2m60 5c-1.11 0-2-.89-2-2s.89-2 2-2 2 .89 2 2-.89 2-2 2m0-10c-1.11 0-2-.89-2-2s.89-2 2-2 2 .89 2 2-.89 2-2 2m-48-15c-1.11 0-2-.89-2-2s.89-2 2-2 2 .89 2 2-.89 2-2 2m15 2c-2.21 0-4-1.79-4-4s1.79-4 4-4 4 1.79 4 4-1.79 4-4 4m15-2c-1.11 0-2-.89-2-2s.89-2 2-2 2 .89 2 2-.89 2-2 2m-15 41c-1.66 0-3-1.34-3-3s1.34-3 3-3 3 1.34 3 3-1.34 3-3 3m15-1c-1.11 0-2-.89-2-2s.89-2 2-2 2 .89 2 2-.89 2-2 2m-30 0c-1.11 0-2-.89-2-2s.89-2 2-2 2 .89 2 2-.89 2-2 2m150-29c-1.66 0-3-1.34-3-3s1.34-3 3-3 3 1.34 3 3-1.34 3-3 3m15-1c-1.11 0-2-.89-2-2s.89-2 2-2 2 .89 2 2-.89 2-2 2m15 1c-1.66 0-3-1.34-3-3s1.34-3 3-3 3 1.34 3 3-1.34 3-3 3m15-1c-1.11 0-2-.89-2-2s.89-2 2-2 2 .89 2 2-.89 2-2 2m-5 11c-1.66 0-3-1.34-3-3s1.34-3 3-3 3 1.34 3 3-1.34 3-3 3m-10-1c-1.11 0-2-.89-2-2s.89-2 2-2 2 .89 2 2-.89 2-2 2m-10 1c-1.66 0-3-1.34-3-3s1.34-3 3-3 3 1.34 3 3-1.34 3-3 3m-10-1c-1.11 0-2-.89-2-2s.89-2 2-2 2 .89 2 2-.89 2-2 2m-10 11c-1.66 0-3-1.34-3-3s1.34-3 3-3 3 1.34 3 3-1.34 3-3 3m15-1c-1.11 0-2-.89-2-2s.89-2 2-2 2 .89 2 2-.89 2-2 2m10 0c-1.11 0-2-.89-2-2s.89-2 2-2 2 .89 2 2-.89 2-2 2m10 1c-1.66 0-3-1.34-3-3s1.34-3 3-3 3 1.34 3 3-1.34 3-3 3m10-1c-1.11 0-2-.89-2-2s.89-2 2-2 2 .89 2 2-.89 2-2 2m-45-10c-1.11 0-2-.89-2-2s.89-2 2-2 2 .89 2 2-.89 2-2 2m50 0c-1.11 0-2-.89-2-2s.89-2 2-2 2 .89 2 2-.89 2-2 2m-60 5c-1.11 0-2-.89-2-2s.89-2 2-2 2 .89 2 2-.89 2-2 2m0-10c-1.11 0-2-.89-2-2s.89-2 2-2 2 .89 2 2-.89 2-2 2m48-15c-1.11 0-2-.89-2-2s.89-2 2-2 2 .89 2 2-.89 2-2 2m-15 2c-2.21 0-4-1.79-4-4s1.79-4 4-4 4 1.79 4 4-1.79 4-4 4m-15-2c-1.11 0-2-.89-2-2s.89-2 2-2 2 .89 2 2-.89 2-2 2m15 41c-1.66 0-3-1.34-3-3s1.34-3 3-3 3 1.34 3 3-1.34 3-3 3m-15-1c-1.11 0-2-.89-2-2s.89-2 2-2 2 .89 2 2-.89 2-2 2m30 0c-1.11 0-2-.89-2-2s.89-2 2-2 2 .89 2 2-.89 2-2 2" style="opacity:.251;mix-blend-mode:multiply;fill:#8b6135"/>
</g>
<g transform="translate(102.5 285) rotate(12 37.5 25)">
<path d="M10 35 5 20s15-5 30-5 35 10 35 10l-5 10z" style="fill:#f5f3ee"/><path d="M37.93 32.78c-4.53 0-8.2-3.66-8.2-8.2 0-4.53 3.67-8.19 8.2-8.19s8.19 3.66 8.19 8.19c0 4.54-3.66 8.2-8.19 8.2" style="fill:#000"/><path d="M10 35 5 20.72S25 15 35 15s35 10 35 10l-5 10" style="fill:none;stroke:#000;stroke-width:6"/>
</g>
<g transform="translate(222.5 285) rotate(-12 37.5 25) scale(-1 1) translate(-75 0)">
<path d="M10 35 5 20s15-5 30-5 35 10 35 10l-5 10z" style="fill:#f5f3ee"/><path d="M37.93 32.78c-4.53 0-8.2-3.66-8.2-8.2 0-4.53 3.67-8.19 8.2-8.19s8.19 3.66 8.19 8.19c0 4.54-3.66 8.2-8.19 8.2" style="fill:#000"/><path d="M10 35 5 20.72S25 15 35 15s35 10 35 10l-5 10" style="fill:none;stroke:#000;stroke-width:6"/>
</g>
<g transform="translate(97.20374849998123 257.1494303002541) rotate(14 42.79625150001876 12.850569699745927)">
<path fill="#3D2314" stroke="#000" d="M12.93 8.33C11.42 9.56 8.75 12.57 6.99 15s-3.38 5.16-3.61 6.06c-.22.91-.16 1.77.13 1.92.3.14 4.44-.51 9.21-1.46s11.58-1.96 15.13-2.23c3.55-.28 11.63-.52 17.94-.53 6.32-.02 14.56.22 18.32.53 3.75.31 8.39.47 10.29.36 1.91-.11 4.56-.5 5.89-.87 2.09-.59 2.33-.97 1.84-2.91-.42-1.66-1.74-2.85-5.18-4.66-2.54-1.34-7.86-3.18-11.83-4.09-3.97-.92-10.99-2.21-15.6-2.87-4.62-.66-11.91-1.33-16.22-1.49-6.13-.21-8.91.12-12.73 1.52-2.69.99-6.13 2.81-7.64 4.05Z"/>
</g>
<g transform="translate(217.20374849998123 257.1494303002541) rotate(-14 42.79625150001876 12.850569699745927) scale(-1 1) translate(-85.59250300003752 0)">
<path fill="#3D2314" stroke="#000" d="M12.93 8.33C11.42 9.56 8.75 12.57 6.99 15s-3.38 5.16-3.61 6.06c-.22.91-.16 1.77.13 1.92.3.14 4.44-.51 9.21-1.46s11.58-1.96 15.13-2.23c3.55-.28 11.63-.52 17.94-.53 6.32-.02 14.56.22 18.32.53 3.75.31 8.39.47 10.29.36 1.91-.11 4.56-.5 5.89-.87 2.09-.59 2.33-.97 1.84-2.91-.42-1.66-1.74-2.85-5.18-4.66-2.54-1.34-7.86-3.18-11.83-4.09-3.97-.92-10.99-2.21-15.6-2.87-4.62-.66-11.91-1.33-16.22-1.49-6.13-.21-8.91.12-12.73 1.52-2.69.99-6.13 2.81-7.64 4.05Z"/>
</g>
<g transform="translate(0 5) scale(-1 1) translate(-400 0)">
<path d="m170 440 10-10h40l10 10" style="fill:none;stroke:#000;stroke-width:5"/>
</g>
<g transform="translate(150.27785841680208 317.5) scale(0.9 0.9) translate(5.5246823981331 5.833333333333332)">
<path fill="#ddb7a0" stroke="#000" stroke-width="5" d="M36.03 47c-19.25.25-26.57 32.37-4.37 27.13 9-2.13 8.25 4.12 18.12 4.37 9.5.24 5.75-6.12 16.38-3.25 22.01 5.96 18.75-28-.21-28.02M50 55.6S51.25 45 51.25 35 50 5 50 5" class="nose"/><path d="M40 95h20v5H40z" style="fill:none"/>
</g>
<g transform="scale(0.81 1) translate(46.91358024691356 0)">
<path fill="#3D2314" stroke="#000" stroke-width="4" d="M60 310H50v-10c0-140 50-200 150-200s150 60 150 200v10h-10v-20c0-5-10-20-15-25s-5-50-15-60-60-5-110-5-100-5-110 5-10 55-15 60-15 20-15 25z"/>
</g>
<g transform="scale(0.81 1) translate(46.9135802469136 0)">
<g stroke="#000"><path fill="#07364f" stroke-width="2" d="M199.8 82c3.4 0 7.2.6 8.8 1.5 1.6.8 2.9 2 2.9 2.5s.2 1.7.5 2.5c.4 1.3-1.3 1.5-12 1.5s-12.4-.2-12-1.5c.3-.8.4-1.9.3-2.5-.1-.5 1.1-1.6 2.7-2.4 1.5-.9 5.4-1.5 8.8-1.6z" class="s0"/><path fill="#7a1319" stroke-width="6" d="M197.8 90.1c13.3-.1 23 .5 34.6 1.9 8.8 1.1 20.8 3 26.6 4.1s15.5 3.3 21.6 5c6 1.6 14.4 4.3 18.7 6 4.2 1.7 10.2 4.5 13.3 6.2 3.1 1.8 7.4 5 9.5 7.2 2.3 2.3 5.3 7.1 7.1 11.3 2 4.7 4 12 5.6 21 1.4 7.5 3.5 17.8 4.7 22.7s3.2 11.7 4.3 15c1.2 3.3 3 11.8 4 19 .9 7.2 1.7 17.9 1.7 24s-.3 11.8-.7 12.7c-.6 1.5-1.1 1.4-4.9-1.1-2.4-1.5-8.9-5.3-14.4-8.4-5.6-3-16.4-8.3-24-11.7-7.7-3.5-20.8-8.6-29.3-11.5-8.4-3-21.8-6.7-29.7-8.4-7.9-1.6-18.6-3.5-23.7-4.1-5.2-.5-15.4-1-22.8-1s-17.6.5-22.8 1c-5.1.6-15.8 2.5-23.7 4.1-7.9 1.7-22 5.7-31.2 8.9s-22.4 8.3-29.2 11.5c-6.9 3.1-17.9 8.6-24.5 12.2s-13.2 7.4-14.6 8.4c-2.3 1.6-2.7 1.7-3.1.4-.3-.8-.5-6.1-.5-11.7 0-5.7.6-15.5 1.3-21.8.8-6.3 1.9-13.5 2.5-16 .7-2.5 2.4-8.3 3.9-13s3.8-14.6 5.1-22 3.1-16.4 4-20 2.7-8.9 4.1-11.9 4.3-7.3 6.5-9.5c2.1-2.3 7.3-6 11.5-8.2 4.2-2.3 10.8-5.3 14.8-6.7s11.5-3.7 16.8-5.1 13.5-3.3 18.2-4.2 15.8-2.7 24.5-3.9c11.2-1.6 21.1-2.3 34.2-2.4z"/><path fill="#89bfd3" stroke-width="4" d="M69.6 237.7c-6.6 3.6-13.2 7.4-14.7 8.4-2.2 1.6-2.7 1.7-3.1.4-.2-.8-.4-6.1-.4-11.7-.1-5.7.6-15.5 1.3-21.8s1.9-13.5 2.5-16 2.4-8.3 3.9-13 3.8-14.6 5.1-22c0 0 12 72.1 5.4 75.7zM336.8 162c1.3 7.4 3.6 17.3 5.1 22s3.2 10.5 3.9 13c.6 2.5 1.7 9.7 2.5 16 .7 6.3 1.3 16.1 1.3 21.8 0 5.6-.2 10.9-.5 11.7-.4 1.3-.8 1.2-3.1-.4-1.4-1-8-4.8-14.6-8.4s5.4-75.7 5.4-75.7z"/><path fill="#07364f" stroke-width="6" d="M196.2 197c9.2 0 20.8.3 25.9.7 5 .4 13.6 1.5 19.1 2.4 5.6 1 14.4 2.8 19.7 4.1s13.7 3.7 18.7 5.2c5 1.6 14.7 5.1 21.6 7.9 6.8 2.7 17 7.3 22.5 10 5.6 2.8 14.9 7.9 20.6 11.2 5.8 3.4 12.4 7.5 14.6 9.2 3.2 2.4 4.1 3.6 4.1 5.6 0 1.6-.7 3.3-1.9 4.2-1.1.9-3.2 1.6-4.8 1.6-2.1 0-5.1-1.4-10.8-5.1-4.3-2.8-13.3-8-19.9-11.6s-19.3-9.5-28.3-13.1c-8.9-3.7-20.6-8-25.9-9.6-5.2-1.5-13.4-3.7-18.2-4.9-4.7-1.1-14.9-2.9-22.5-4-11.3-1.7-17.1-2-30.7-2s-19.4.3-30.7 2c-7.6 1.1-17.8 2.9-22.5 4-4.8 1.2-13 3.4-18.2 4.9-5.3 1.6-17 5.9-25.9 9.6-9 3.6-21.7 9.5-28.3 13.1s-15.6 8.8-19.9 11.6c-6.3 4.1-8.6 5.1-11.3 5.1-1.8 0-4-.5-4.8-1.2-.8-.6-1.4-2.4-1.4-4 0-2.2.8-3.4 3.8-5.9 2.1-1.8 7.4-5.3 11.7-7.8s12.8-7.2 18.9-10.4 17.6-8.4 25.5-11.7c7.9-3.2 18.7-7.2 24-8.8 5.3-1.7 14.7-4.2 21.1-5.7 6.3-1.5 17.3-3.6 24.4-4.6 10.3-1.5 16.5-2 29.8-2z"/></g>
</g>
</svg>