<svg xmlns="http://www.w3.org/2000/svg" version="1.2" baseProfile="tiny" width="100%" height="100%" viewBox="0 0 400 600" preserveAspectRatio="xMinYMin meet">
<g transform="scale(0.896 1) translate(22.973615120470406 0)">
<path fill="#2C1608" stroke="#000" stroke-width="4" d="M63 243s-11.25 45.2-20 72-22.23 81.18 12 102c17.75 10.8 56.25 13.8 56.25 13.8L308 437s44.75-5.2 52-58c6.01-43.79 6.25-79-32-125" class="longHairBg"/><path fill="#2C1608" stroke="#000" stroke-width="4" d="M341 393s-6.51 32.08-11.25 46.3c-2.5 7.5-7 19.5 1.25 35.7-13.3-2.88-30-22-30-22s-11.7 35.32-44.3 42.32c8-14.8 7.3-34.32 7.3-34.32M55 393s6.51 32.08 11.25 46.3c2.5 7.5 7 19.5-1.25 35.7 13.3-2.88 30-22 30-22s11.7 35.32 44.3 42.32c-8-14.8-7.3-34.32-7.3-34.32" class="longHairBg"/>
</g>
<g transform="scale(1.05 1) translate(-9.523809523809533 0)">
<path fill="#f2d6cb" stroke="#000" stroke-width="6" d="M10 600s-10-70 50-70c10 0 0-10 60-20 0 0 50-210 80-210s80 210 80 210c60 10 50 20 60 20 60 0 50 70 50 70"/><path d="M71 545s46.9-3 82.1 10M329 545s-46.9-3-82.1 10m77.1-18s5.5-7.5 22-7m-271 7s-5.5-7.5-22-7"/>
</g>
<g transform="scale(1.05 1) translate(-9.523809523809533 0)">
<g stroke="#000"><path fill="#89bfd3" stroke-width="6" d="M120 505c0 35 50 25 80 45 30-20 80-10 80-45 30-25 90-15 100-5s10.07 20.41 15 50c5 30 5 20 5 60H0c0-40 0-29.59 5-59.59 4.93-29.59 5-39.38 15-50.41 9.5-10.48 70-20 100 5Z" class="footballPrimary"/><path fill="#7a1319" stroke-width="2" d="M120 505c0 35 50 25 80 45 30-20 80-10 80-45l15-10c5 60-55 45-95 75-40-30-100-15-95-75z" class="collarSecondary"/><g stroke-width="2"><path fill="#7a1319" d="m55 490-25 5-10 5v80h35zm290 0 25 5 10 5v80h-35z" class="vStripes1"/><path fill="#07364f" d="m30 495 15-3.14V580H30zm340 0-15-3.14V580h15z" class="vStripes2"/></g><path fill="none" stroke-width="6" d="M120 505c0 35 50 25 80 45 30-20 80-10 80-45 30-25 90-15 100-5s10.07 20.41 15 50c5 30 5 20 5 60H0c0-40 0-30 5-60 4.93-29.59 5-38.97 15-50 9.5-10.48 70-20 100 5Z" class="footballStroke"/><path fill="none" stroke-width="2" d="M19.5 570s72.5-2.11 81.5-20m280 20s-71-2.11-80-20" class="shp3"/></g>
</g>
<g transform="translate(32 293.3) scale(1.07 1.07) translate(-1.5046728971962628 -2.0738317757009366) translate(13.120000000000001 -3)">
<path fill="#f2d6cb" stroke="#000" stroke-width="6" d="M43 8S3-12 3 28c0 45 40 30 40 30z"/>
</g>
<g transform="translate(322 293.3) scale(-1.07 1.07) translate(-44.49532710280374 -2.0738317757009366) translate(13.120000000000001 -3)">
<path fill="#f2d6cb" stroke="#000" stroke-width="6" d="M43 8S3-12 3 28c0 45 40 30 40 30z"/>
</g>
<g transform="scale(0.896 1) translate(23.21428571428571 0)">
<path fill="#f2d6cb" stroke="#000" stroke-width="6" d="M200 100c100 0 150 60 150 200 0 20-20 130-20 130l-80 50c-20 20-40 20-50 20s-30 0-50-20l-80-50S50 320 50 300c0-140 50-200 150-200Z"/><path fill="rgba(0,0,0,0)" d="M200 410c30 0 50 10 50 10 30 0 90-15 90-120h10c0 20-20 130-20 130l-80 50c-20 20-40 20-50 20s-30 0-50-20l-80-50S50 320 50 300h10c0 105 60 120 90 120 0 0 20-10 50-10" class="faceShave"/><path fill="rgba(0,0,0,0)" d="M60 300H50c0-140 50-200 150-200s150 60 150 200h-10v-10c0-5-10-20-15-25s-5-55-15-65c-40-40-60 0-110 0s-70-40-110 0c-10 10-10 60-15 65s-15 20-15 25z" class="headShave"/>
</g>
<g>
<path fill="none" stroke="#000" stroke-width="2" d="M240 340s10 10 25 10m-105-10s-10 10-25 10" class="eyeline3"/>
</g>
<g transform="translate(144.4807306749833 416) scale(0.6 0.6) translate(3.679512883344472 12.666666666666668)">
<path fill="none" stroke="#000" stroke-width="2" d="M9 2s-12.5 8.95-4 34" class="shp0"/>
</g>
<g transform="translate(244.4807306749833 416) scale(-0.6 0.6) translate(-14.718051533377889 12.666666666666668)">
<path fill="none" stroke="#000" stroke-width="2" d="M9 2s-12.5 8.95-4 34" class="shp0"/>
</g>
<g>
<path d="M144 363c-1.66 0-3-1.34-3-3s1.34-3 3-3 3 1.34 3 3-1.34 3-3 3m-15-1c-1.11 0-2-.89-2-2s.89-2 2-2 2 .89 2 2-.89 2-2 2m-15 1c-1.66 0-3-1.34-3-3s1.34-3 3-3 3 1.34 3 3-1.34 3-3 3m-15-1c-1.11 0-2-.89-2-2s.89-2 2-2 2 .89 2 2-.89 2-2 2m5 11c-1.66 0-3-1.34-3-3s1.34-3 3-3 3 1.34 3 3-1.34 3-3 3m10-1c-1.11 0-2-.89-2-2s.89-2 2-2 2 .89 2 2-.89 2-2 2m10 1c-1.66 0-3-1.34-3-3s1.34-3 3-3 3 1.34 3 3-1.34 3-3 3m10-1c-1.11 0-2-.89-2-2s.89-2 2-2 2 .89 2 2-.89 2-2 2m10 11c-1.66 0-3-1.34-3-3s1.34-3 3-3 3 1.34 3 3-1.34 3-3 3m-15-1c-1.11 0-2-.89-2-2s.89-2 2-2 2 .89 2 2-.89 2-2 2m-10 0c-1.11 0-2-.89-2-2s.89-2 2-2 2 .89 2 2-.89 2-2 2m-10 1c-1.66 0-3-1.34-3-3s1.34-3 3-3 3 1.34 3 3-1.34 3-3 3m-10-1c-1.11 0-2-.89-2-2s.89-2 2-2 2 .89 2 2-.89 2-2 2m45-10c-1.11 0-2-.89-2-2s.89-2 2-2 2 .89 2 2-.89 2-2 2m-50 0c-1.11 0-2-.89-2-2s.89-2 2-2 2 .89 2 2-.89 2-2 2m60 5c-1.11 0-2-.89-2-2s.89-2 2-2 2 .89 2 2-.89 2-2 2m0-10c-1.11 0-2-.89-2-2s.89-2 2-2 2 .89 2 2-.89 2-2 2m-48-15c-1.11 0-2-.89-2-2s.89-2 2-2 2 .89 2 2-.89 2-2 2m15 2c-2.21 0-4-1.79-4-4s1.79-4 4-4 4 1.79 4 4-1.79 4-4 4m15-2c-1.11 0-2-.89-2-2s.89-2 2-2 2 .89 2 2-.89 2-2 2m-15 41c-1.66 0-3-1.34-3-3s1.34-3 3-3 3 1.34 3 3-1.34 3-3 3m15-1c-1.11 0-2-.89-2-2s.89-2 2-2 2 .89 2 2-.89 2-2 2m-30 0c-1.11 0-2-.89-2-2s.89-2 2-2 2 .89 2 2-.89 2-2 2m150-29c-1.66 0-3-1.34-3-3s1.34-3 3-3 3 1.34 3 3-1.34 3-3 3m15-1c-1.11 0-2-.89-2-2s.89-2 2-2 2 .89 2 2-.89 2-2 2m15 1c-1.66 0-3-1.34-3-3s1.34-3 3-3 3 1.34 3 3-1.34 3-3 3m15-1c-1.11 0-2-.89-2-2s.89-2 2-2 2 .89 2 2-.89 2-2 2m-5 11c-1.66 0-3-1.34-3-3s1.34-3 3-3 3 1.34 3 3-1.34 3-3 3m-10-1c-1.11 0-2-.89-2-2s.89-2 2-2 2 .89 2 2-.89 2-2 2m-10 1c-1.66 0-3-1.34-3-3s1.34-3 3-3 3 1.34 3 3-1.34 3-3 3m-10-1c-1.11 0-2-.89-2-2s.89-2 2-2 2 .89 2 2-.89 2-2 2m-10 11c-1.66 0-3-1.34-3-3s1.34-3 3-3 3 1.34 3 3-1.34 3-3 3m15-1c-1.11 0-2-.89-2-2s.89-2 2-2 2 .89 2 2-.89 2-2 2m10 0c-1.11 0-2-.89-2-2s.89-2 2-2 2 .89 2 2-.89 2-2 2m10 1c-1.66 0-3-1.34-3-3s1.34-3 3-3 3 1.34 3 3-1.34 3-3 3m10-1c-1.11 0-2-.89-2-2s.89-2 2-2 2 .89 2 2-.89 2-2 2m-45-10c-1.11 0-2-.89-2-2s.89-2 2-2 2 .89 2 2-.89 2-2 2m50 0c-1.11 0-2-.89-2-2s.89-2 2-2 2 .89 2 2-.89 2-2 2m-60 5c-1.11 0-2-.89-2-2s.89-2 2-2 2 .89 2 2-.89 2-2 2m0-10c-1.11 0-2-.89-2-2s.89-2 2-2 2 .89 2 2-.89 2-2 2m48-15c-1.11 0-2-.89-2-2s.89-2 2-2 2 .89 2 2-.89 2-2 2m-15 2c-2.21 0-4-1.79-4-4s1.79-4 4-4 4 1.79 4 4-1.79 4-4 4m-15-2c-1.11 0-2-.89-2-2s.89-2 2-2 2 .89 2 2-.89 2-2 2m15 41c-1.66 0-3-1.34-3-3s1.34-3 3-3 3 1.34 3 3-1.34 3-3 3m-15-1c-1.11 0-2-.89-2-2s.89-2 2-2 2 .89 2 2-.89 2-2 2m30 0c-1.11 0-2-.89-2-2s.89-2 2-2 2 .89 2 2-.89 2-2 2" style="opacity:.251;mix-blend-mode:multiply;fill:#8b6135"/>
</g>
<g transform="translate(-125 -25) rotate(-6 265 335)">
<path d="M265 360c-13.8 0-25-11.2-25-25s11.2-25 25-25 25 11.2 25 25-11.2 25-25 25" style="fill:none;stroke:#000;stroke-width:5;stroke-linecap:round;stroke-linejoin:round"/><path d="M265 360c-13.8 0-25-11.2-25-25v-5h50v5c0 13.8-11.2 25-25 25" style="fill:#fff;stroke:#000;stroke-width:5;stroke-linecap:round;stroke-linejoin:round"/><path d="M265 330c-10 0-10 15 0 15s10-15 0-15" style="stroke:#000;stroke-width:4;stroke-linecap:round;stroke-linejoin:round"/>
</g>
<g transform="translate(-5 -25) rotate(6 265 335) scale(-1 1) translate(-530 0)">
<path d="M265 360c-13.8 0-25-11.2-25-25s11.2-25 25-25 25 11.2 25 25-11.2 25-25 25" style="fill:none;stroke:#000;stroke-width:5;stroke-linecap:round;stroke-linejoin:round"/><path d="M265 360c-13.8 0-25-11.2-25-25v-5h50v5c0 13.8-11.2 25-25 25" style="fill:#fff;stroke:#000;stroke-width:5;stroke-linecap:round;stroke-linejoin:round"/><path d="M265 330c-10 0-10 15 0 15s10-15 0-15" style="stroke:#000;stroke-width:4;stroke-linecap:round;stroke-linejoin:round"/>
</g>
<g transform="translate(101.88888888888889 255.625) rotate(4 38.111111111111114 14.375)">
<path fill="#2C1608" stroke="#000" d="M71 25c8-8 0-16 0-16S43 1 35 1C25 1 7 5 7 5s-12 8 0 20c16 8 16-4 36-4s24 8 28 4Z"/>
</g>
<g transform="translate(221.88888888888889 255.625) rotate(-4 38.111111111111114 14.375) scale(-1 1) translate(-76.22222222222223 0)">
<path fill="#2C1608" stroke="#000" d="M71 25c8-8 0-16 0-16S43 1 35 1C25 1 7 5 7 5s-12 8 0 20c16 8 16-4 36-4s24 8 28 4Z"/>
</g>
<g transform="translate(0 0)">
<path d="M170 430s10 20 30 20 30-20 30-20z" style="fill:#fff;stroke:#000;stroke-width:5"/>
</g>
<g transform="translate(160 318.75) scale(1.01 1.01) translate(-0.5060506050605066 -0.5074257425742578)">
<path fill="#f2d6cb" stroke="#000" stroke-width="5" d="M40 40s50-30 0 30"/>
</g>
<g transform="scale(-1 1) translate(-400 0) scale(0.896 1) translate(23.21428571428571 0)">
<path fill="#2C1608" stroke="#000" stroke-width="4" d="M60 310H50v-35l-2-11 2-9-2-11 2-9-2-11 2-9-2-15 7-10-3-15.63L65 165l-1-17 16-3v-21h20l4-20 20 4 12-20 20 12 12-20 16 16 16-20 16 20 16-16 12 20 20-12 12 20 20-4 4 20h20v21l16 3-1 17 13 9.04-3 15.96 7 10-2 15 2 9-2 11 2 9-2 11 2 9-2 11v35h-10v-20c0-5-10-20-15-25s-5-50-15-60-60-5-110-5-100-5-110 5-10 55-15 60-15 20-15 25z"/>
</g>
</svg>