<svg xmlns="http://www.w3.org/2000/svg" version="1.2" baseProfile="tiny" width="100%" height="100%" viewBox="0 0 400 600" preserveAspectRatio="xMinYMin meet">
<g transform="scale(1.01 1) translate(-1.980198019801982 0)">
<path fill="#ddb7a0" stroke="#000" stroke-width="6" d="M10 600s-10-65 50-65c5 0 25-15 70-35l70-200 70 200c45 20 65 35 70 35 60 0 50 65 50 65" class="body"/>
</g>
<g transform="scale(1.01 1) translate(-2.0049504950495067 0)">
<g stroke="#000"><path fill="#7a1319" stroke-width="3" d="M120 505s35 40 80 40 80-40 80-40v95H120z" class="s0"/><path fill="#89bfd3" stroke-width="6" d="M120 504.6c10 45.4 80 55.4 90 65.4s10 40 10 40H-5s5-40 5-50 10-30 40-40 50 0 80-15.4z" class="s0"/><path fill="#89bfd3" stroke-width="6" d="M360 520c30 10 40 30 40 40s10 50 10 50H180s0-40 10-50 80-10 90-55c30 15 50 5 80 15z" class="s0"/><path fill="#89bfd3" stroke-width="1.5" d="M196 597c-2.8 0-5-2.2-5-5s2.2-5 5-5 5 2.2 5 5-2.2 5-5 5zm-2-5h1m2 0h1" class="s1"/></g><g fill="none" stroke="#000" stroke-width="6"><path d="M120 504.6c6.9 37.6 62.2 49.3 67.9 57-7.8 11.2-8 48.4-8 48.4H-5s5-40 5-50 10-30 40-40 50 0 80-15.4z" class="s5"/><path d="M360 520c30 10 40 30 40 40s10 50 10 50H180s0-40 10-50 80-10 90-55c30 15 50 5 80 15z" class="s5"/></g>
</g>
<g transform="translate(33.53553390593274 291.01362954285077) scale(1.38 1.38) translate(-5.9105051563373605 -9.358565778055583) translate(-1.3789321881345236 -2.979591836734694)">
<path fill="#ddb7a0" stroke="#000" stroke-width="6" d="M40 14S10-1 5 4s0 30 5 40-5 25 30 20z"/>
</g>
<g transform="translate(323.53553390593277 291.01362954285077) scale(-1.38 1.38) translate(-37.01842703179717 -9.358565778055583) translate(-1.3789321881345236 -2.979591836734694)">
<path fill="#ddb7a0" stroke="#000" stroke-width="6" d="M40 14S10-1 5 4s0 30 5 40-5 25 30 20z"/>
</g>
<g transform="scale(0.99 1) translate(2.020202020202022 0)">
<path fill="#ddb7a0" stroke="#000" stroke-width="6" d="M200 100c100 0 150 60 150 200 0 160-80 170-100 190-10 10-30 20-50 10-20 10.9-40 0-50-10-20-20-100-30-100-190 0-140 50-200 150-200Z" class="head"/><path fill="rgba(0,0,0,0)" d="M60 300H50c0-140 50-200 150-200s150 60 150 200h-10v-10c0-5-10-20-15-25s-5-55-15-65c-40-40-60 0-110 0s-70-40-110 0c-10 10-10 60-15 65s-15 20-15 25z" class="headShave"/><path fill="rgba(0,0,0,0)" d="M200 410c30 0 50 10 50 10 30 0 90-15 90-120h10c0 160-80 170-100 190-10 10-30 20-50 10-20 10-40 0-50-10-20-20-100-30-100-190h10c0 105 60 120 90 120 0 0 20-10 50-10" class="faceShave"/>
</g>
<g>
<path fill="none" stroke="#000" stroke-width="2" d="M200 270v-15l5-5-5 5-5-5m-25-15s15 0 30 5c15-5 30-5 30-5m-75-15s35 0 45 5c10-5 45-5 45-5"/>
</g>
<g transform="scale(0.99 1) translate(2.020202020202022 0)">
<path fill="#D7BF91" stroke="#000" d="M188 454c2-2 22-2 24 0s-8 16-12 16-14-14-12-16Zm62 31c-10 20-30 20-50 20s-40 0-50-20c5-5 10 10 50 10s45-15 50-10Z" class="shp0"/>
</g>
<g transform="translate(-120.05628769726621 -25.250646588503912) rotate(7 260.0562876972662 335.2506465885039)">
<path d="M259.01 349.54c-13.866-.398-24.58-15.35-24.58-28.312 14.975.007 34.492.1 51.25-.275.204 12.79-11.737 29.015-26.67 28.587" style="fill:#fff;stroke:#000;stroke-linecap:round;stroke-linejoin:round;stroke-width:5"/><path d="M259.552 325.177c-10 0-10 15 0 15s10-15 0-15" style="fill:#000;stroke:#000;stroke-linecap:round;stroke-linejoin:round;stroke-width:4"/>
</g>
<g transform="translate(-0.056287697266213854 -25.250646588503912) rotate(-7 260.0562876972662 335.2506465885039) scale(-1 1) translate(-520.1125753945324 0)">
<path d="M259.01 349.54c-13.866-.398-24.58-15.35-24.58-28.312 14.975.007 34.492.1 51.25-.275.204 12.79-11.737 29.015-26.67 28.587" style="fill:#fff;stroke:#000;stroke-linecap:round;stroke-linejoin:round;stroke-width:5"/><path d="M259.552 325.177c-10 0-10 15 0 15s10-15 0-15" style="fill:#000;stroke:#000;stroke-linecap:round;stroke-linejoin:round;stroke-width:4"/>
</g>
<g transform="translate(101.05152592374387 261.3) rotate(17 38.94847407625614 8.7)">
<path fill="#D7BF91" stroke="#000" d="M73 13c4.85-1.21 0-10-10-10S3 8 3 8s50 10 70 5Z"/>
</g>
<g transform="translate(221.05152592374387 261.3) rotate(-17 38.94847407625614 8.7) scale(-1 1) translate(-77.89694815251228 0)">
<path fill="#D7BF91" stroke="#000" d="M73 13c4.85-1.21 0-10-10-10S3 8 3 8s50 10 70 5Z"/>
</g>
<g transform="translate(-2.842170943040401e-14 51.52119068455602) scale(-1 1) translate(-400.00000000000006 0)">
<path d="M168 384s9-13.77 32-14.03c17.4-.2 32 13.2 32 13.2s-4.29 23.24-32 23.81c-27.29.56-32-22.98-32-22.98" style="opacity:.05;mix-blend-mode:multiply;fill:#501414"/><path d="M181.71 402.12c14.52 5.66 24.72 5.71 37.72-.71m.86-26.53c-14.52-5.66-27.29-6.34-40.29.09m-4 9.03c8-2.17 16 0 24 0s16-2.17 24 0m12-4s0 4-12 4m-60-4s0 4 12 4" style="fill:none;stroke:#000;stroke-width:4"/>
</g>
<g transform="translate(160 318.75) scale(0.52 0.52) translate(47.17948717948718 47.3076923076923)">
<path fill="#ddb7a0" stroke="#000" stroke-width="5" d="M40 40s50-30 0 30"/>
</g>
<g transform="scale(0.99 1) translate(1.9744949494949515 0)">
<path fill="#D7BF91" stroke="#000" stroke-width="4" d="M37.17 332.53c6.66-10.67 10.33-36.33 10.33-36.33s-11.67 7.13-22.67 9.66c10-13.33 22.92-52.06 22.92-52.06s-10.25 8.06-20.92 7.73c30.34-49.67 10.75-84.26 65.34-123 0 0-13.09-2.26-25.67-10.33 37.88-2.4 64.75-46.9 129.25-38.4 0 0-5.5-10.5-27-21.5 69.5-1 86.5 36.5 86.5 36.5s16.5-7.5 25 14c64.5 9.5 58.5 97 83 140-8.88-1.4-16.5-7.5-16.5-7.5s3.87 27.1 19.37 50.6c-9.5-2.75-21.29-10.04-21.29-10.04s8.29 22.29 11.55 28.79C344.12 315.9 333.75 300 333.75 300s-5.58 24.86-22 41.8c9.75-25.94 8.5-58 8.5-58l-15-31L310 200c-40-40-70.25-1.7-132.25-2.7-81.53-1.32-100 86.5-100 86.5s.08 21.73 7.75 56.73c-17-11.67-24.33-48.33-24.33-43.33s-12.67 31-24 35.33Z" class="shaggy"/><path fill="#D7BF91" d="M328 206s-8.75 49.7-46 71c20.25-32.2 8-77 8-77s-7.75 27.3-24 38c3.25-22.7-15.25-41.7-15.25-41.7S219.25 238.8 173 258c23.25-28.2 27-56 27-56s-31.25 37.3-55.75 47.8c19-28 23.5-54.5 23.5-54.5s-45 43.5-62.75 86.7c-5.25-26.2 6-70 6-70l14-54 137 2z" class="shaggyBangs"/><path fill="none" stroke="#000" stroke-width="4" d="M328 206s-8.75 49.7-46 71c20.25-32.2 8-77 8-77s-7.75 27.3-24 38c3.25-22.7-15.25-41.7-15.25-41.7S219.25 238.8 173 258c23.25-28.2 27-56 27-56s-31.25 37.3-55.75 47.8c19-28 23.5-54.5 23.5-54.5s-45 43.5-62.75 86.7c-5.25-26.2 6-70 6-70m3-22s32.25-4.8 76-55m-43 43s56.75 2.7 103-36m-110-3s38.75-54.3 93-34" class="shaggyLines"/>
</g>
</svg>