<svg xmlns="http://www.w3.org/2000/svg" version="1.2" baseProfile="tiny" width="100%" height="100%" viewBox="0 0 400 600" preserveAspectRatio="xMinYMin meet">
<g transform="scale(1 1) translate(0 0)">
<path fill="#ddb7a0" stroke="#000" stroke-width="6" d="M20 600s-5-60 40-70c15 0 45-15 90-35l50-195 50 195c45 20 75 35 90 35 45 10 45 70 45 70" class="body"/>
</g>
<g transform="scale(1 1) translate(0 0)">
<g stroke="#000"><path fill="#7a1319" stroke-width="3" d="M120 505s35 40 80 40 80-40 80-40v95H120z" class="s0"/><path fill="#89bfd3" stroke-width="6" d="M120 504.6c10 45.4 80 55.4 90 65.4s10 40 10 40H-5s5-40 5-50 10-30 40-40 50 0 80-15.4z" class="s0"/><path fill="#89bfd3" stroke-width="6" d="M360 520c30 10 40 30 40 40s10 50 10 50H180s0-40 10-50 80-10 90-55c30 15 50 5 80 15z" class="s0"/><path fill="#89bfd3" stroke-width="1.5" d="M196 597c-2.8 0-5-2.2-5-5s2.2-5 5-5 5 2.2 5 5-2.2 5-5 5zm-2-5h1m2 0h1" class="s1"/></g><g fill="none" stroke="#000" stroke-width="6"><path d="M120 504.6c6.9 37.6 62.2 49.3 67.9 57-7.8 11.2-8 48.4-8 48.4H-5s5-40 5-50 10-30 40-40 50 0 80-15.4z" class="s5"/><path d="M360 520c30 10 40 30 40 40s10 50 10 50H180s0-40 10-50 80-10 90-55c30 15 50 5 80 15z" class="s5"/></g>
</g>
<g transform="translate(33.53553390593274 291.01362954285077) scale(1.38 1.38) translate(-5.9105051563373605 -9.358565778055583) translate(21.251067811865475 -2.979591836734694)">
<path fill="#ddb7a0" stroke="#000" stroke-width="6" d="M40 14S10-1 5 4s0 30 5 40-5 25 30 20z"/>
</g>
<g transform="translate(323.53553390593277 291.01362954285077) scale(-1.38 1.38) translate(-37.01842703179717 -9.358565778055583) translate(21.251067811865475 -2.979591836734694)">
<path fill="#ddb7a0" stroke="#000" stroke-width="6" d="M40 14S10-1 5 4s0 30 5 40-5 25 30 20z"/>
</g>
<g transform="scale(0.8440000000000001 1) translate(36.96682464454974 0)">
<path fill="#ddb7a0" stroke="#000" stroke-width="6" d="M200 100c100 0 150 60 150 200 0 120 0 140-100 180-10 10-30 20-50 20s-40-10-50-20C50 440 50 420 50 300c0-140 50-200 150-200Z" class="head"/><path fill="rgba(0,0,0,0.11)" d="M60 300H50c0-140 50-200 150-200s150 60 150 200h-10v-10c0-5-10-20-15-25s-5-55-15-65c-40-40-60 0-110 0s-70-40-110 0c-10 10-10 60-15 65s-15 20-15 25z" class="headShave"/><path fill="rgba(0,0,0,0.11)" d="M200 410c30 0 50 10 50 10 30 0 90-15 90-120h10c0 120 0 140-100 180-13.13 5.25-30 20-50 20s-36.87-14.75-50-20C50 440 50 420 50 300h10c0 105 60 120 90 120 0 0 20-10 50-10" class="faceShave"/>
</g>
<g>
<path fill="none" stroke="#000" stroke-width="2" d="M240 355s20-10 45 0m-125 0s-20-10-45 0" class="eyeline5"/>
</g>
<g transform="translate(140.5 420.5) scale(0.63 0.63) translate(5.579365079365079 8.515873015873016)">
<path fill="none" stroke="#000" stroke-width="2" d="M17 2 2 12l5 15" class="shp0"/>
</g>
<g transform="translate(240.5 420.5) scale(-0.63 0.63) translate(-24.57936507936508 8.515873015873016)">
<path fill="none" stroke="#000" stroke-width="2" d="M17 2 2 12l5 15" class="shp0"/>
</g>
<g transform="scale(0.8440000000000001 1) translate(36.96682464454974 0)">
<path fill="#D7BF91" fill-rule="evenodd" stroke="#000" d="M200 405c55 0 55 20 55 35 0 0 5 40-5 55-5 5-35 15-50 15s-46.67-10-50-15c-10-15-5-55-5-55 0-15 0-35 55-35Zm-45 35c0 5 5 5 25 5 10 0 10-5 20-5s10 5 20 5c20 0 25 0 25-5 0-20-15-15-45-15s-45-5-45 15Z" class="shp0"/>
</g>
<g transform="translate(102.8498332560182 285.155) rotate(-1 37.15016674398179 24.845)">
<path d="M5.55 28.46S17.08 11.77 40 11.77s28.58 16.69 28.58 16.69-5.73 11.46-28.65 11.46S5.55 28.46 5.55 28.46" style="fill:#f5f3ee"/><path d="M5.55 28.46C2.68 25.6 17.08 9.77 40 9.77S71.44 25.6 68.58 28.46C65.71 31.33 62.92 16.27 40 16.27S8.41 31.33 5.55 28.46" style="fill:#000"/><path d="M39.93 33.04c-6.34 0-11.46-5.12-11.46-11.46 0-6.33 5.12-11.46 11.46-11.46s11.46 5.13 11.46 11.46c0 6.34-5.12 11.46-11.46 11.46" style="fill:#000"/>
</g>
<g transform="translate(222.8498332560182 285.155) rotate(1 37.15016674398179 24.845) scale(-1 1) translate(-74.30033348796358 0)">
<path d="M5.55 28.46S17.08 11.77 40 11.77s28.58 16.69 28.58 16.69-5.73 11.46-28.65 11.46S5.55 28.46 5.55 28.46" style="fill:#f5f3ee"/><path d="M5.55 28.46C2.68 25.6 17.08 9.77 40 9.77S71.44 25.6 68.58 28.46C65.71 31.33 62.92 16.27 40 16.27S8.41 31.33 5.55 28.46" style="fill:#000"/><path d="M39.93 33.04c-6.34 0-11.46-5.12-11.46-11.46 0-6.33 5.12-11.46 11.46-11.46s11.46 5.13 11.46 11.46c0 6.34-5.12 11.46-11.46 11.46" style="fill:#000"/>
</g>
<g transform="translate(99.82499568420577 257.4995916989505) rotate(-14 40.175004315794226 12.50040830104949)">
<path fill="#D7BF91" stroke="#000" d="M25.63 10.05c-1.19.67-3.29 2.29-4.68 3.61s-2.66 2.8-2.84 3.29-.13.96.1 1.04 3.5-.28 7.26-.79c3.76-.52 9.13-1.06 11.92-1.21 2.8-.15 9.17-.28 14.14-.29 4.98-.01 11.48.12 14.44.29s6.61.25 8.12.19c1.5-.05 3.59-.27 4.63-.47 1.65-.32 1.85-.53 1.46-1.57-.33-.91-1.38-1.55-4.09-2.53-2-.73-6.19-1.72-9.32-2.22-3.13-.49-8.67-1.19-12.3-1.55-3.64-.36-9.39-.72-12.78-.81-4.83-.11-7.02.06-10.04.83-2.12.53-4.83 1.52-6.02 2.19Z"/><path d="M0 10h5v5H0z" style="fill:none"/>
</g>
<g transform="translate(219.82499568420576 257.4995916989505) rotate(14 40.175004315794226 12.50040830104949) scale(-1 1) translate(-80.35000863158845 0)">
<path fill="#D7BF91" stroke="#000" d="M25.63 10.05c-1.19.67-3.29 2.29-4.68 3.61s-2.66 2.8-2.84 3.29-.13.96.1 1.04 3.5-.28 7.26-.79c3.76-.52 9.13-1.06 11.92-1.21 2.8-.15 9.17-.28 14.14-.29 4.98-.01 11.48.12 14.44.29s6.61.25 8.12.19c1.5-.05 3.59-.27 4.63-.47 1.65-.32 1.85-.53 1.46-1.57-.33-.91-1.38-1.55-4.09-2.53-2-.73-6.19-1.72-9.32-2.22-3.13-.49-8.67-1.19-12.3-1.55-3.64-.36-9.39-.72-12.78-.81-4.83-.11-7.02.06-10.04.83-2.12.53-4.83 1.52-6.02 2.19Z"/><path d="M0 10h5v5H0z" style="fill:none"/>
</g>
<g transform="translate(0 48.766108367626885)">
<path d="M168 384s9-13.77 32-14.03c17.4-.2 32 13.2 32 13.2s-4.29 28.26-32 28.83c-27.29.56-32-28-32-28" style="opacity:.05;mix-blend-mode:multiply;fill:#501414"/><path d="M168 384c12-4 48-4 64 0-8 8-10 16-32 16-20 0-24-8-32-16Z" style="fill:#000;stroke:#000"/><path d="M168 384c12-4 48-4 64 0-20 4-10 4-32 4-20 0-16 0-32-4m12 12s14-1 20-1 20 1 20 1-4 4-20 4c-12 0-20-4-20-4" style="fill:#fff"/><path d="M168 384c12-4 48-4 64 0-8 8-10 16-32 16-20 0-24-8-32-16Zm16 24c12 6 20 6 32 0m4.29-33.12c-14.52-5.66-27.29-6.34-40.29.09" style="fill:none;stroke:#000;stroke-width:4"/>
</g>
<g transform="translate(140.995 319.5) scale(0.8 0.8) translate(14.751249999999995 12.624999999999996)">
<path fill="#ddb7a0" stroke="#000" stroke-width="5" d="M58 18S43 28.72 38 33c-4.17 3.57-10 10-10 30 0 10 15 20 25 20s20-5 20-15" class="nose"/><path d="m84.99 55.01 5-.02.02 5-5 .02z" style="fill:none"/>
</g>
<g transform="scale(-1 1) translate(-400 0) scale(0.8440000000000001 1) translate(36.96682464454974 0)">
<defs><linearGradient id="a" x1="200" x2="200" y1="100" y2="310" gradientUnits="userSpaceOnUse"><stop offset="0" stop-color="rgba(0,0,0,.3)"/><stop offset="1" stop-color="rgba(0,0,0,0)"/></linearGradient></defs><path d="M60 310H50v-10c0-140 50-200 150-200s150 60 150 200v10h-10v-20c0-5-10-20-15-25s-5-45-15-55-60 0-110 0-100-10-110 0-10 50-15 55-15 20-15 25z" style="fill:url(#a);stroke:none"/><path fill="#D7BF91" stroke="#000" stroke-width="4" d="M195 200h-10V100h10zm10 0h10V100h-10v100m20 0h10V100h-10v100m20 0h10v-95h-10zm20-5h10v-85h-10zm20 0h10v-75h-10zm20-5h10v-50h-10zm20 5h10v-20h-10v20m-150 5h-10V100h10zm-20 0h-10v-95.13h10zm-20-5v-85.15h-10V195zm-20 0v-75h-10v75zm-20-5H85v-50h10zm-20 5H65v-20h10z"/>
</g>
</svg>