<svg xmlns="http://www.w3.org/2000/svg" version="1.2" baseProfile="tiny" width="100%" height="100%" viewBox="0 0 400 600" preserveAspectRatio="xMinYMin meet">
<g transform="scale(0.97 1) translate(6.260330578512401 0)">
<path fill="#aa816f" stroke="#000" stroke-width="6" d="M20 600s-5-60 40-70c15 0 45-15 90-35l50-195 50 195c45 20 75 35 90 35 45 10 45 70 45 70" class="body"/>
</g>
<g transform="scale(0.97 1) translate(6.185567010309284 0)">
<g stroke="#000"><path fill="#89bfd3" stroke-width="6" d="M120 505c0 35 50 25 80 45 30-20 80-10 80-45 30-25 90-15 100-5s10.07 20.41 15 50c5 30 5 20 5 60H0c0-40 0-29.59 5-59.59 4.93-29.59 5-39.38 15-50.41 9.5-10.48 70-20 100 5Z" class="footballPrimary"/><path fill="#7a1319" stroke-width="2" d="M120 505c0 35 50 25 80 45 30-20 80-10 80-45l15-10c5 60-55 45-95 75-40-30-100-15-95-75z" class="collarSecondary"/><path fill="none" stroke-width="6" d="M120 505c0 35 50 25 80 45 30-20 80-10 80-45 30-25 90-15 100-5s10.07 20.41 15 50c5 30 5 20 5 60H0c0-40 0-30 5-60 4.93-29.59 5-38.97 15-50 9.5-10.48 70-20 100 5Z" class="footballStroke"/><path fill="none" stroke-width="2" d="M19.5 570s72.5-2.11 81.5-20m280 20s-71-2.11-80-20" class="shp3"/></g>
</g>
<g transform="translate(33.53553390593274 291.01362954285077) scale(1.46 1.46) translate(-6.76277698854174 -10.708034527594961) translate(21.251067811865475 -2.979591836734694)">
<path fill="#aa816f" stroke="#000" stroke-width="6" d="M40 14S10-1 5 4s0 30 5 40-5 25 30 20z"/>
</g>
<g transform="translate(323.53553390593277 291.01362954285077) scale(-1.46 1.46) translate(-36.16615519959279 -10.708034527594961) translate(21.251067811865475 -2.979591836734694)">
<path fill="#aa816f" stroke="#000" stroke-width="6" d="M40 14S10-1 5 4s0 30 5 40-5 25 30 20z"/>
</g>
<g transform="scale(0.8440000000000001 1) translate(36.96682464454974 0)">
<path fill="#aa816f" stroke="#000" stroke-width="6" d="M200 100c100 0 150 60 150 200 0 120 0 140-100 180-10 10-30 20-50 20s-40-10-50-20C50 440 50 420 50 300c0-140 50-200 150-200Z" class="head"/><path fill="rgba(0,0,0,0.07)" d="M60 300H50c0-140 50-200 150-200s150 60 150 200h-10v-10c0-5-10-20-15-25s-5-55-15-65c-40-40-60 0-110 0s-70-40-110 0c-10 10-10 60-15 65s-15 20-15 25z" class="headShave"/><path fill="rgba(0,0,0,0.07)" d="M200 410c30 0 50 10 50 10 30 0 90-15 90-120h10c0 120 0 140-100 180-13.13 5.25-30 20-50 20s-36.87-14.75-50-20C50 440 50 420 50 300h10c0 105 60 120 90 120 0 0 20-10 50-10" class="faceShave"/>
</g>
<g>
<path fill="none" stroke="#000" stroke-width="2" d="M240 355s20-10 45 0m-125 0s-20-10-45 0" class="eyeline5"/>
</g>
<g transform="translate(142.67 417.5) scale(1.75 1.75) translate(-3.141428571428572 -7.5)">
<path fill="none" stroke="#000" stroke-width="2" d="M12.33 4.32s-10 3.29-10 13.18 10 13.18 10 13.18" class="shp0"/>
</g>
<g transform="translate(242.67 417.5) scale(-1.75 1.75) translate(-11.518571428571429 -7.5)">
<path fill="none" stroke="#000" stroke-width="2" d="M12.33 4.32s-10 3.29-10 13.18 10 13.18 10 13.18" class="shp0"/>
</g>
<g transform="scale(0.8440000000000001 1) translate(36.96682464454974 0)">
<path fill="#272421" fill-rule="evenodd" stroke="#000" d="M60 300H50s-10 70 10 130c10 20 60 70 120 70 10 0-30-28.8-30-50 0-20 10-20 10-30s-30 30-70-10c-20-20-30-80-30-110Zm250 110c-40 40-70 0-70 10s10 10 10 30c0 21.2-40 50-30 50 60 0 110-50 120-70 20-60 10-130 10-130h-10c0 30-10 90-30 110Z" class="shp0"/><path fill="#272421" stroke="#000" d="M200 458.02 190 460c-10 10-20 40-20 40s10 10 30 10 30-10 30-10-10-30-20-40z" class="shp0"/>
</g>
<g transform="translate(101 299.4999966529182) rotate(1 39 10.500003347081822)">
<path d="M74 18 69 3H4l5 15z" style="fill:#fff;stroke:#000;stroke-width:5"/><path d="M38.5 18a7.49 7.49 0 0 1-7.5-7.5C31 6.35 34.35 3 38.5 3S46 6.35 46 10.5 42.65 18 38.5 18Z" style="fill:#000;stroke:#000;stroke-width:5"/>
</g>
<g transform="translate(221 299.4999966529182) rotate(-1 39 10.500003347081822) scale(-1 1) translate(-78 0)">
<path d="M74 18 69 3H4l5 15z" style="fill:#fff;stroke:#000;stroke-width:5"/><path d="M38.5 18a7.49 7.49 0 0 1-7.5-7.5C31 6.35 34.35 3 38.5 3S46 6.35 46 10.5 42.65 18 38.5 18Z" style="fill:#000;stroke:#000;stroke-width:5"/>
</g>
<g transform="translate(108.86892922080625 258.70179368409975) rotate(3 31.131070779193745 11.298206315900256)">
<path fill="#272421" stroke="#000" d="M22.1 6.48c-.96.74-2.71 2.33-3.9 3.5-1.23 1.17-2.47 2.63-2.7 3.13-.23.52-.26.96-.05.96.2 0 3.06-1.05 6.01-1.65 2.72-.11 6.42.27 8.3.66 1.87.43 6.07 1.67 9.35 2.77 3.39 1.08 7.94 2.5 10.06 3.19 2.23.61 5.3 1.02 6.7.99 1.43-.06 3.53-.35 4.62-.61 1.68-.41 1.9-.62 1.72-1.65-.12-.91-.85-1.63-2.76-2.9-1.36-1-4.3-2.66-6.56-3.72-2.26-1.13-6.33-3.1-9.03-4.35-2.71-1.31-7.02-3.02-9.57-3.73-3.6-.81-5.24-.65-7.53.51-1.61.77-3.71 2.09-4.66 2.9Z"/><path d="M0 10h5v5H0z" style="fill:none"/>
</g>
<g transform="translate(228.86892922080625 258.70179368409975) rotate(-3 31.131070779193745 11.298206315900256) scale(-1 1) translate(-62.26214155838749 0)">
<path fill="#272421" stroke="#000" d="M22.1 6.48c-.96.74-2.71 2.33-3.9 3.5-1.23 1.17-2.47 2.63-2.7 3.13-.23.52-.26.96-.05.96.2 0 3.06-1.05 6.01-1.65 2.72-.11 6.42.27 8.3.66 1.87.43 6.07 1.67 9.35 2.77 3.39 1.08 7.94 2.5 10.06 3.19 2.23.61 5.3 1.02 6.7.99 1.43-.06 3.53-.35 4.62-.61 1.68-.41 1.9-.62 1.72-1.65-.12-.91-.85-1.63-2.76-2.9-1.36-1-4.3-2.66-6.56-3.72-2.26-1.13-6.33-3.1-9.03-4.35-2.71-1.31-7.02-3.02-9.57-3.73-3.6-.81-5.24-.65-7.53.51-1.61.77-3.71 2.09-4.66 2.9Z"/><path d="M0 10h5v5H0z" style="fill:none"/>
</g>
<g transform="translate(-0.125 48.766108367626885)">
<path d="M168 384s9-13.77 32-14.03c17.4-.2 32 13.2 32 13.2s-4.29 28.26-32 28.83c-27.29.56-32-28-32-28" style="opacity:.05;mix-blend-mode:multiply;fill:#501414"/><path d="M168 384c12-4 48-4 64 0-8 8-10 16-32 16-20 0-24-8-32-16Z" style="fill:#000;stroke:#000"/><path d="M168 384c14.08-5.73 53.75-3.73 64.25.6-20 4.67-30.5 2-30.5 2l.17-5.17-4.67-.33.17 5.17S184 388 168 384m4.42 6.6s21.58 3.17 27.58 3.17 26.92-3 26.92-3S216 400 200 400c-12 0-27.58-9.4-27.58-9.4" style="fill:#fff"/><path d="M168 384c12-4 48-4 64 0-8 8-10 16-32 16-20 0-24-8-32-16Zm16 24c12 6 20 6 32 0" style="fill:none;stroke:#000;stroke-width:4"/>
</g>
<g transform="translate(150.27785841680208 317.5) scale(-0.87 0.87) translate(-106.8740284604369 7.844827586206897)">
<path fill="#aa816f" stroke="#000" stroke-width="5" d="M36.03 47c-19.25.25-26.57 32.37-4.37 27.13 9-2.13 8.25 4.12 18.12 4.37 9.5.24 5.75-6.12 16.38-3.25 22.01 5.96 18.75-28-.21-28.02M50 55.6S51.25 45 51.25 35 50 5 50 5" class="nose"/><path d="M40 95h20v5H40z" style="fill:none"/>
</g>
<g transform="scale(-1 1) translate(-400 0) scale(0.8440000000000001 1) translate(36.96682464454974 0)">
<defs><linearGradient id="a" x1="200" x2="200" y1="100" y2="310" gradientUnits="userSpaceOnUse"><stop offset="0" stop-color="rgba(0,0,0,.25)"/><stop offset="1" stop-color="rgba(0,0,0,0)"/></linearGradient></defs><path d="M60 310H50v-10c0-140 50-200 150-200s150 60 150 200v10h-10v-20c0-5-10-20-15-25s-5-55-15-65c-40-40-60 0-110 0s-70-40-110 0c-10 10-10 60-15 65s-15 20-15 25z" style="fill:url(#a);stroke:none"/><path fill="#272421" stroke="#000" stroke-width="4" d="M179.59 87.23c-1.3.91-3.19 1.7-4.18 1.74-.99.05-1.94.43-2.1.86-.16.42-2.14.88-4.39 1.01-2.72.17-4.17.58-4.35 1.27-.15.56-1.26 1.47-2.47 2.02-1.2.55-3.66 1.08-5.45 1.17s-3.47.51-3.73.94c-.29.48-1.24.39-2.4-.22-1.54-.81-3.12-.8-8.12.02-3.42.54-7.34 1.45-8.72 2.02-2.18.9-2.5 1.38-2.41 3.67.08 1.48-.16 3.1-.55 3.59-.38.49-2.55.91-4.81.93-3.62.03-4.16.24-4.53 1.81-.32 1.41-.85 1.73-2.44 1.47-1.11-.19-2.74-.32-3.62-.31-.88.02-1.72-.68-1.86-1.54-.15-.85-.87-1.53-1.62-1.51-.74.02-1.75.83-2.23 1.8-.47.98-.9 2.03-.96 2.32s-.45.84-.88 1.21c-.43.38-.85 1.41-.92 2.3-.07.9-.73 2.87-1.46 4.39-1.05 2.26-2.01 2.96-5.01 3.65-2.05.47-4.66 1.54-5.81 2.37-1.15.84-2.13 2.21-2.18 3.04-.04.84-1.44 2.56-3.11 3.83-2.07 1.59-3.66 2.17-5.06 1.83-1.59-.39-2.98.41-6.2 3.56-2.27 2.26-4.12 4.74-4.12 5.49 0 .76.51 1.51 1.13 1.67.89.23.87.78-.11 2.54-.68 1.24-.99 2.77-.68 3.41.33.68-1.52 3.22-4.48 6.16-3.86 3.84-5.7 6.62-7.74 11.65-1.55 3.64-3.43 7.13-4.13 7.74-.7.62-1.29 1.55-1.32 2.08-.02.53.55 2.79 1.26 5.03 1.03 3.45.98 4.24-.29 5.28-.83.67-1.95 2.68-2.52 4.46-.89 2.64-.72 3.62.96 5.23 1.13 1.1 1.92 2.42 1.74 2.95-.18.52.09 1.79.59 2.83s.84 1.25.75.47.41-.36 1.1.94c.69 1.29.95 3.09.59 4-.54 1.31.17 1.65 3.5 1.67 2.31.02 7.23.54 10.94 1.17l6.8 1.14c9.98-6.52 15.16-9.44 18.07-10.67 2.89-1.24 8.61-2.97 12.71-3.83 4.09-.87 11.79-1.85 17.12-2.17 6.86-.4 15.72.08 30.35 1.69 7.2.8 13.87 1.38 20.38 1.77 6.53.39 12.89.6 19.5.64 6.62.05 12.99-.07 19.52-.37s13.21-.77 20.45-1.43c15.33-1.35 23.43-1.6 30.98-1.01 5.62.45 13.34 1.51 17.16 2.36 3.83.84 9.3 2.49 12.17 3.67 2.89 1.16 8.07 3.85 11.56 5.94 3.94 2.22 7.32 3.53 8.48 3.39 1.05-.13 4.25-.6 7.1-1.05 2.84-.44 6.6-.77 8.38-.76 2.02.02 4.19-.71 5.84-1.97 1.45-1.11 2.48-2.46 2.29-2.99-.18-.53.81-1.46 2.19-2.06 2.28-.99 2.38-1.36 1.11-4.14-.71-1.72-1.98-3.66-2.84-4.29-1.35-.99-1.33-1.71.12-5.19.97-2.27 1.73-4.56 1.66-5.07s-.89-1.43-1.84-2.05c-.94-.63-2.48-3.48-3.39-6.37-1.02-3.46-3.06-7.34-5.83-11.08-2.33-3.18-4.83-6.28-5.57-6.89-.84-.68-1.12-1.83-.75-3.07.39-1.28.03-2.69-1.01-3.93-1.43-1.7-1.47-2.2-.35-4.09 1.19-2 .99-2.46-3.01-6.72-2.71-2.86-5.1-4.52-6.41-4.48-1.15.03-3.44-.65-5.09-1.51-1.85-.97-3.24-2.55-3.61-4.1-.34-1.39-1.33-3.36-2.21-4.37-.97-1.11-2.88-1.85-4.86-1.89-2.58-.05-3.72-.7-5.45-3.1-1.41-1.94-2.55-5.22-3.2-9.09l-1.1-5.98c-4.85-.09-6.38.42-6.52 1.07-.15.65-1.31 1.16-2.59 1.14-1.28-.01-2.44.5-2.58 1.15s-1.02-.21-1.97-1.91c-1.64-2.87-1.99-3.04-5.67-2.63-2.56.28-4.2.03-4.69-.71-.42-.63-.85-2.39-.98-3.9s-.59-3.21-1.02-3.79c-.42-.58-1.95-1.48-3.39-1.99s-5.46-1.31-8.92-1.76c-5.36-.67-6.45-.58-7.35.59-.96 1.25-1.28 1.26-3.23.09-1.19-.7-3.41-1.17-4.93-1.03-1.52.13-3.7.21-4.85.18-1.17-.03-2.11-.62-2.15-1.34-.03-.7-.8-1.45-1.7-1.66-.89-.21-2.35-.05-3.24.34-.89.4-1.79 1.2-2.01 1.79-.21.6-1.01 1.1-1.77 1.13-.77.03-2.36-.94-3.54-2.15-1.17-1.19-2.83-3.25-3.68-4.56-.85-1.29-2.2-2.4-3.02-2.46s-3.1 1.06-5.09 2.49l-3.64 2.61c-4.58-2.66-6.9-3.16-9.14-3.02-1.96.13-3.54-.03-3.53-.34.01-.32-2.12-.42-4.72-.23-3.36.24-5.42.83-7.1 2.01Z"/>
</g>
</svg>