<svg xmlns="http://www.w3.org/2000/svg" version="1.2" baseProfile="tiny" width="100%" height="100%" viewBox="0 0 400 600" preserveAspectRatio="xMinYMin meet">
<g transform="scale(0.99 1) translate(2.020202020202022 0)">
<path fill="#ad6453" stroke="#000" stroke-width="6" d="M10 600s-10-65 50-65c5 0 25-15 70-35l70-200 70 200c45 20 65 35 70 35 60 0 50 65 50 65" class="body"/>
</g>
<g transform="scale(0.99 1) translate(2.020202020202022 0)">
<path fill="#89bfd3" stroke="#000" stroke-width="6" d="M80 610s10-30 10-90l20-10s10 80 90 80 90-80 90-80l20 10c0 60 10 90 10 90z" class="primary"/><path fill="#7a1319" d="M85 575v25h230v-25h-65s-20 15-50 15-50-15-50-15z" class="secondary"/><path fill="none" stroke="#000" stroke-width="16" d="M90 520c0 60-10 90-10 90m230-90c0 60 10 90 10 90M110 510s10 80 90 80 90-80 90-80" class="outline"/><path fill="none" stroke="#89bfd3" stroke-width="12" d="M90 520c0 60-10 90-10 90m230-90c0 60 10 90 10 90M110 510s10 80 90 80 90-80 90-80" class="stripe-primary"/><path fill="none" stroke="#07364f" stroke-width="6" d="M90 520c0 60-10 90-10 90m230-90c0 60 10 90 10 90M110 510s10 80 90 80 90-80 90-80" class="stripe-accent"/>
</g>
<g transform="translate(32 290.6) scale(1.05 1.05) translate(-1.0952380952380962 -1.6380952380952396) translate(6.300000000000001 -3)">
<path fill="#ad6453" stroke="#000" stroke-width="6" d="M43 13S23 3 13 3 3 23 3 33s3 20 13 30 27-10 27-10z"/>
</g>
<g transform="translate(322 290.6) scale(-1.05 1.05) translate(-44.9047619047619 -1.6380952380952396) translate(6.300000000000001 -3)">
<path fill="#ad6453" stroke="#000" stroke-width="6" d="M43 13S23 3 13 3 3 23 3 33s3 20 13 30 27-10 27-10z"/>
</g>
<g transform="scale(0.9400000000000001 1) translate(12.765957446808498 0)">
<path fill="#ad6453" stroke="#000" stroke-width="6" d="M200 100c100 0 150 60 150 200-10 160-10 110-100 180-10 10-30 20-50 20s-40-10-50-20c-90-70-90-20-100-180 0-140 50-200 150-200Z" class="head"/><path fill="rgba(0,0,0,0)" d="M60 300H50c0-140 50-200 150-200s150 60 150 200h-10v-10c0-5-10-20-15-25s-5-55-15-65c-40-40-60 0-110 0s-70-40-110 0c-10 10-10 60-15 65s-15 20-15 25z" class="headShave"/><path fill="rgba(0,0,0,0)" d="M200 410c30 0 50 10 50 10 30 0 90-15 90-120h10c-10 160-10 110-100 180-11.16 8.68-30 20-50 20s-38.84-11.32-50-20c-90-70-90-20-100-180h10c0 105 60 120 90 120 0 0 20-10 50-10" class="faceShave"/>
</g>
<g transform="translate(144.4807306749833 416) scale(0.72 0.72) translate(2.1463825152842757 7.388888888888889)">
<path fill="none" stroke="#000" stroke-width="2" d="M9 2s-12.5 8.95-4 34" class="shp0"/>
</g>
<g transform="translate(244.4807306749833 416) scale(-0.72 0.72) translate(-13.184921165317693 7.388888888888889)">
<path fill="none" stroke="#000" stroke-width="2" d="M9 2s-12.5 8.95-4 34" class="shp0"/>
</g>
<g>
<path fill="none" stroke="#000" stroke-width="2" d="M200 467.37V480"/>
</g>
<g transform="scale(0.9400000000000001 1) translate(12.765957446808498 0)">
<path fill="#272421" stroke="#000" d="M175 485s10-5 25-5 25 5 25 5c-15 30-15 45-15 45l-5-10-5 20-5-20-5 10s0-15-15-45Z" class="shp0"/>
</g>
<g transform="translate(-129.75510204081633 -22) rotate(15 269.7551020408163 332)">
<path d="M240 340c0-4-6-20 24-20 20 0 36 8 36 12s-12 12-20 12c-4 0-40 0-40-4Z" style="fill:#fff;stroke:#000;stroke-width:5"/><path d="M268 340c-3.32 0-6-3.58-6-8s2.68-8 6-8 6 3.58 6 8-2.68 8-6 8Z" style="fill:#000;stroke:#000;stroke-width:5"/>
</g>
<g transform="translate(-9.755102040816325 -22) rotate(-15 269.7551020408163 332) scale(-1 1) translate(-539.5102040816327 0)">
<path d="M240 340c0-4-6-20 24-20 20 0 36 8 36 12s-12 12-20 12c-4 0-40 0-40-4Z" style="fill:#fff;stroke:#000;stroke-width:5"/><path d="M268 340c-3.32 0-6-3.58-6-8s2.68-8 6-8 6 3.58 6 8-2.68 8-6 8Z" style="fill:#000;stroke:#000;stroke-width:5"/>
</g>
<g transform="translate(109 261.5) rotate(-14 31 8.5)">
<path fill="#272421" stroke="#000" d="M61 16V6L31 1 1 6v10l30-5z"/>
</g>
<g transform="translate(229 261.5) rotate(14 31 8.5) scale(-1 1) translate(-62 0)">
<path fill="#272421" stroke="#000" d="M61 16V6L31 1 1 6v10l30-5z"/>
</g>
<g transform="translate(169 424.5)">
<path d="M11 8S4.33 28 31 28 51 8 51 8 41 4.37 31 4.37 11 8 11 8Zm50-5L51 8M1 3l10 5" style="fill:#fff;stroke:#000;stroke-width:5"/>
</g>
<g transform="translate(179 344) scale(-0.9 0.9) translate(-23.22222222222222 2.8888888888888884)">
<path fill="#ad6453" stroke="#000" stroke-width="5" d="M11 1S6 31 21 41L1 51" class="nose"/>
</g>
<g transform="scale(-1 1) translate(-400 0) scale(0.9400000000000001 1) translate(12.765957446808498 0)">
<path fill="#272421" stroke="#000" stroke-width="4" d="M60 310H50v-10C50 110 40 90 60 90h280c20 0 10 20 10 210v10h-10v-20c0-5-10-20-15-25s-5-55-15-65-60 0-110 0-100-10-110 0-10 60-15 65-15 20-15 25z"/>
</g>
</svg>