<svg xmlns="http://www.w3.org/2000/svg" version="1.2" baseProfile="tiny" width="100%" height="100%" viewBox="0 0 400 600" preserveAspectRatio="xMinYMin meet">
<g transform="scale(0.95 1) translate(10.653545019573738 0)">
<path fill="#f2d6cb" stroke="#000" stroke-width="6" d="M20 600s-5-60 40-70c15 0 45-15 90-35l50-195 50 195c45 20 75 35 90 35 45 10 45 70 45 70" class="body"/>
</g>
<g transform="scale(0.95 1) translate(10.526315789473694 0)">
<g stroke="#000"><path fill="#89bfd3" stroke-width="6" d="M120 505c0 35 50 25 80 45 30-20 80-10 80-45 30-25 90-15 100-5s10.07 20.41 15 50c5 30 5 20 5 60H0c0-40 0-29.59 5-59.59 4.93-29.59 5-39.38 15-50.41 9.5-10.48 70-20 100 5Z" class="footballPrimary"/><path fill="#7a1319" stroke-width="2" d="M120 505c0 35 50 25 80 45 30-20 80-10 80-45l15-10c5 60-55 45-95 75-40-30-100-15-95-75z" class="collarSecondary"/><g stroke-width="2"><path fill="#7a1319" d="m55 490-25 5-10 5v80h35zm290 0 25 5 10 5v80h-35z" class="vStripes1"/><path fill="#07364f" d="m30 495 15-3.14V580H30zm340 0-15-3.14V580h15z" class="vStripes2"/></g><path fill="none" stroke-width="6" d="M120 505c0 35 50 25 80 45 30-20 80-10 80-45 30-25 90-15 100-5s10.07 20.41 15 50c5 30 5 20 5 60H0c0-40 0-30 5-60 4.93-29.59 5-38.97 15-50 9.5-10.48 70-20 100 5Z" class="footballStroke"/><path fill="none" stroke-width="2" d="M19.5 570s72.5-2.11 81.5-20m280 20s-71-2.11-80-20" class="shp3"/></g>
</g>
<g transform="translate(32 293.3) scale(1.15 1.15) translate(-2.9999999999999987 -4.13478260869565) translate(17.459999999999997 -3)">
<path fill="#f2d6cb" stroke="#000" stroke-width="6" d="M43 8S3-12 3 28c0 45 40 30 40 30z"/>
</g>
<g transform="translate(322 293.3) scale(-1.15 1.15) translate(-43 -4.13478260869565) translate(17.459999999999997 -3)">
<path fill="#f2d6cb" stroke="#000" stroke-width="6" d="M43 8S3-12 3 28c0 45 40 30 40 30z"/>
</g>
<g transform="scale(0.8680000000000001 1) translate(30.414746543778772 0)">
<path fill="#f2d6cb" stroke="#000" stroke-width="6" d="M200 100c100 0 150 60 150 200 0 50-.51 71.54-10 100-10 30-80 70-90 80s-20 20-50 20-40-10-50-20-80-50-90-80c-9.49-28.46-10-50-10-100 0-140 50-200 150-200Z" class="head"/><path fill="rgba(0,0,0,0)" d="M200 410c30 0 50 10 50 10 30 0 90-15 90-120h10c0 50-.51 71.54-10 100-10 30-80 70-90 80s-20 20-50 20-40-10-50-20-80-50-90-80c-9.49-28.46-10-50-10-100h10c0 105 60 120 90 120 0 0 20-10 50-10" class="faceShave"/><path fill="rgba(0,0,0,0)" d="M60 300H50c0-140 50-200 150-200s150 60 150 200h-10v-10c0-5-10-20-15-25s-5-55-15-65c-40-40-60 0-110 0s-70-40-110 0c-10 10-10 60-15 65s-15 20-15 25z" class="headShave"/>
</g>
<g transform="translate(147 424.5) scale(0.51 0.51) translate(2.8823529411764706 10.088235294117647)">
<path fill="none" stroke="#000" stroke-width="2" d="m0 20 6-10-6-9" class="shp0"/>
</g>
<g transform="translate(247 424.5) scale(-0.51 0.51) translate(-8.882352941176471 10.088235294117647)">
<path fill="none" stroke="#000" stroke-width="2" d="m0 20 6-10-6-9" class="shp0"/>
</g>
<g>
<path fill="none" stroke="#000" stroke-width="2" d="M170 235s15 0 30 5c15-5 30-5 30-5m-75-15s35 0 45 5c10-5 45-5 45-5"/>
</g>
<g transform="scale(0.8680000000000001 1) translate(30.414746543778772 0)">
<path stroke="#000" stroke-width="3" d="m205.17 408-.17 12m10-15v16.28m10-13.26V420m10-10v11.28M194.83 408l.17 12m-10-15v16.28m-10-13.26V420m-10-10v11.53m0 48.47v25m10-30v35m10-40v40m10-40v40m10 0v-40m10 0v40m10-35v35m10-30v25"/>
</g>
<g transform="translate(102.5 287.5) rotate(1 37.5 22.5)">
<path d="M10 35 5 20s15-10 30-10 35 15 35 15l-5 10z" style="fill:#f5f3ee"/><path d="M37.93 32.78c-4.53 0-8.2-3.66-8.2-8.2 0-4.53 3.67-8.19 8.2-8.19s8.19 3.66 8.19 8.19c0 4.54-3.66 8.2-8.19 8.2" style="fill:#000"/><path d="M10 35 5 20.72S25 10 35 10s35 15 35 15l-5 10" style="fill:none;stroke:#000;stroke-width:6"/>
</g>
<g transform="translate(222.5 287.5) rotate(-1 37.5 22.5) scale(-1 1) translate(-75 0)">
<path d="M10 35 5 20s15-10 30-10 35 15 35 15l-5 10z" style="fill:#f5f3ee"/><path d="M37.93 32.78c-4.53 0-8.2-3.66-8.2-8.2 0-4.53 3.67-8.19 8.2-8.19s8.19 3.66 8.19 8.19c0 4.54-3.66 8.2-8.19 8.2" style="fill:#000"/><path d="M10 35 5 20.72S25 10 35 10s35 15 35 15l-5 10" style="fill:none;stroke:#000;stroke-width:6"/>
</g>
<g transform="translate(108.86892922080625 258.70179368409975) rotate(11 31.131070779193745 11.298206315900256)">
<path fill="#e9c67b" stroke="#000" d="M22.1 6.48c-.96.74-2.71 2.33-3.9 3.5-1.23 1.17-2.47 2.63-2.7 3.13-.23.52-.26.96-.05.96.2 0 3.06-1.05 6.01-1.65 2.72-.11 6.42.27 8.3.66 1.87.43 6.07 1.67 9.35 2.77 3.39 1.08 7.94 2.5 10.06 3.19 2.23.61 5.3 1.02 6.7.99 1.43-.06 3.53-.35 4.62-.61 1.68-.41 1.9-.62 1.72-1.65-.12-.91-.85-1.63-2.76-2.9-1.36-1-4.3-2.66-6.56-3.72-2.26-1.13-6.33-3.1-9.03-4.35-2.71-1.31-7.02-3.02-9.57-3.73-3.6-.81-5.24-.65-7.53.51-1.61.77-3.71 2.09-4.66 2.9Z"/><path d="M0 10h5v5H0z" style="fill:none"/>
</g>
<g transform="translate(228.86892922080625 258.70179368409975) rotate(-11 31.131070779193745 11.298206315900256) scale(-1 1) translate(-62.26214155838749 0)">
<path fill="#e9c67b" stroke="#000" d="M22.1 6.48c-.96.74-2.71 2.33-3.9 3.5-1.23 1.17-2.47 2.63-2.7 3.13-.23.52-.26.96-.05.96.2 0 3.06-1.05 6.01-1.65 2.72-.11 6.42.27 8.3.66 1.87.43 6.07 1.67 9.35 2.77 3.39 1.08 7.94 2.5 10.06 3.19 2.23.61 5.3 1.02 6.7.99 1.43-.06 3.53-.35 4.62-.61 1.68-.41 1.9-.62 1.72-1.65-.12-.91-.85-1.63-2.76-2.9-1.36-1-4.3-2.66-6.56-3.72-2.26-1.13-6.33-3.1-9.03-4.35-2.71-1.31-7.02-3.02-9.57-3.73-3.6-.81-5.24-.65-7.53.51-1.61.77-3.71 2.09-4.66 2.9Z"/><path d="M0 10h5v5H0z" style="fill:none"/>
</g>
<g transform="translate(0 51.49291359400189)">
<path d="M167 382s10-8.86 33-9c16.67-.1 34 9 34 9s-11.33 21.31-34 22c-22.32.68-33-22-33-22" style="opacity:.05;mix-blend-mode:multiply;fill:#501414"/><path d="M176 384s14-4 24-4 24 4 24 4-8 8-24 8-24-8-24-8" style="fill:#fff"/><path d="M176 384s14-4 24-4 24 4 24 4-8 8-24 8-24-8-24-8Z" style="fill:none;stroke:#000;stroke-width:4"/><path d="M180 376c16-4 24-4 40 0" style="fill:none;stroke:#000;stroke-width:1"/><path d="M166 382s5 3.19 10 2m58-2s-5 3.19-10 2" style="fill:none;stroke:#000;stroke-width:4"/><path d="M185.71 400.69c15.15 4.14 16.29 3.86 29.15-.57" style="fill:none;stroke:#000;stroke-width:1"/>
</g>
<g transform="translate(0 7.5) scale(-0.72 0.72) translate(-477.77777777777777 140.97222222222226)">
<path fill="#f2d6cb" stroke="#000" stroke-width="5" d="M190 325s-5 20-5 45c-20-5-15 15-15 20 20 0 15 10 30 10s10-10 30-10c0-5 5-25-15-20 0-25-5-45-5-45" class="nose"/>
</g>
<g transform="scale(0.8680000000000001 1) translate(30.448117215428034 0)">
<path fill="#e9c67b" stroke="#000" stroke-width="4" d="m61.7 299.46-10.79-1.23s-10.55-7.47-9.99-21.33c.2-6.62.55-13.25 1.03-19.82.48-6.75 1.1-13.35 1.87-19.76.77-6.5 1.71-12.75 2.79-18.74q1.68-9.06 3.81-17.28c2.95-11.1 6.5-21.14 10.55-30.24 4.14-9.39 8.72-17.95 13.64-25.73 4.93-8.16 10.17-15.52 15.66-22.06 5.47-6.82 11.21-12.68 17.19-17.5 5.99-4.91 12.29-8.62 18.85-11.06 6.62-2.37 13.57-3.37 20.77-2.99l3.58 10.85s-.75-13.55 5.88-19a177 177 0 0 1 29.09-2.68c9.7.09 19.24.91 28.5 2.37 9.29 1.54 18.27 3.62 26.81 6.14 8.53 2.51 16.59 5.39 24.08 8.55 7.45 3.07 14.32 6.39 20.5 9.9 6.15 3.4 11.62 7 16.32 10.78 9.32 7.24 15.62 15.38 18.16 24.57 9.94 8.58 17.34 13.01 22.88 16.87 5.51 3.74 9.18 7.07 11.66 13.24 2.47 6.14 3.76 15.25 4.44 30.69.33 7.78.49 17.19.55 28.61.02 5.72.01 11.94-.02 18.7-.04 6.74-.1 14-.17 21.81-.22 17.63-10.22 27.27-10.22 27.27l-9.83.91.08-16.17c.03-4.17-9.91-15.03-14.94-18.34-2.52-1.66-3.75-13.28-5.58-25.67-1.82-12.71-4.24-26.18-9.3-29.97-2.53-1.93-8.29-2.15-16.16-1.32-7.91.76-17.95 2.52-29.02 4.63-11.09 1.98-23.17 4.25-35.09 6.18-11.91 1.75-23.62 3.16-33.98 3.69-15.47.5-24.85-4.38-30.68-10.75-5.77-6.56-8.03-14.6-9.36-20.07-.19 5.46-12.88 10.55-26.66 15.16-13.56 4.08-28.05 7.46-32.89 11.64-4.8 4.01-9.64 16.87-13.62 28.51-3.71 10.96-6.61 20.92-8.83 22.4-4.44 2.92-13.2 12.13-12.93 15.54.29 3.31 1.37 12.7 1.37 12.7Z"/>
</g>
</svg>