<svg xmlns="http://www.w3.org/2000/svg" version="1.2" baseProfile="tiny" width="100%" height="100%" viewBox="0 0 400 600" preserveAspectRatio="xMinYMin meet">
<g transform="scale(1.03 1) translate(-5.825242718446607 0)">
<path fill="#ddb7a0" stroke="#000" stroke-width="6" d="M10 600s0-50 60-70 70-50 70-50l60-180 60 180s10 30 70 50 60 70 60 70" class="body"/>
</g>
<g transform="scale(1.03 1) translate(-5.825242718446607 0)">
<g stroke="#000"><path fill="#89bfd3" stroke-width="6" d="M120 505c0 20 50 15 80 35 30-20 80-15 80-35 0 0 50-5 80 5 0 0 20 10 30 40s10 60 10 60H0s0-30 10-60 30-40 30-40c30-10 80-5 80-5Z" class="hockeyPrimary"/><path fill="#7a1319" stroke-width="none" d="m0 600 400 1.8-2-11.8s-8 5-18 5c-40-20-70-30-180-30C80 565 2 590 2 590z" class="lowStripe"/><path fill="#07364f" d="M4.5 577.03S10 580 20 580c30-15 110-20 180-20 90 0 150 5 180 20 10 0 17-2.97 17-2.97l1 12.97s-8 5-18 5c-40-20-110-22.48-180-22.48-80 0-150 2.48-180 22.48-10 0-18-5-18-5z" class="stripeAccent"/><path fill="#07364f" stroke-width="2" d="M120 505c0 20 50 15 80 30 30-15 80-10 80-30l15-1c0 41-40 21-95 56-55-35-95-15-95-56z" class="collarAccent"/><path fill="none" stroke-width="6" d="M120 505c0 20 50 15 80 35 30-20 80-15 80-35 0 0 50-5 80 5 0 0 20 10 30 40s10 60 10 60H0s0-30 10-60 30-40 30-40c30-10 80-5 80-5Z" class="hockeyStroke"/><path fill="#7a1319" stroke-width="2" d="M180 528.21h40l10 17.05L200 564l-30-18.74z" class="shieldSecondary"/></g>
</g>
<g transform="translate(33.53553390593274 291.01362954285077) scale(1.21 1.21) translate(-3.725237917152169 -5.898460988430857) translate(-0.4489321881345263 -2.979591836734694)">
<path fill="#ddb7a0" stroke="#000" stroke-width="6" d="M40 14S10-1 5 4s0 30 5 40-5 25 30 20z"/>
</g>
<g transform="translate(323.53553390593277 291.01362954285077) scale(-1.21 1.21) translate(-39.20369427098235 -5.898460988430857) translate(-0.4489321881345263 -2.979591836734694)">
<path fill="#ddb7a0" stroke="#000" stroke-width="6" d="M40 14S10-1 5 4s0 30 5 40-5 25 30 20z"/>
</g>
<g transform="scale(0.9840000000000001 1) translate(3.252032520325183 0)">
<path fill="#ddb7a0" stroke="#000" stroke-width="6" d="M200 100c100 0 150 60 150 200 0 120-10 150-110 190 0 0-20 10-40 10s-40-10-40-10C60 450 50 420 50 300c0-140 50-200 150-200Z" class="head"/><path fill="rgba(0,0,0,0)" d="M60 300H50c0-140 50-200 150-200s150 60 150 200h-10v-10c0-5-10-20-15-25s-5-55-15-65c-40-40-60 0-110 0s-70-40-110 0c-10 10-10 60-15 65s-15 20-15 25z" class="headShave"/><path fill="rgba(0,0,0,0)" d="M200 410c30 0 50 10 50 10 30 0 90-15 90-120h10c0 120-10 150-110 190 0 0-20 10-40 10s-40-10-40-10C60 450 50 420 50 300h10c0 105 60 120 90 120 0 0 20-10 50-10" class="faceShave"/>
</g>
<g>
<path fill="none" stroke="#000" stroke-width="2" d="M235 285s10-10 45-10m-115 10s-10-10-45-10" class="eyeline6"/>
</g>
<g transform="translate(144.4807306749833 416) scale(1.76 1.76) translate(-2.3833208448935785 -8.204545454545455)">
<path fill="none" stroke="#000" stroke-width="2" d="M9 2s-12.5 8.95-4 34" class="shp0"/>
</g>
<g transform="translate(244.4807306749833 416) scale(-1.76 1.76) translate(-8.655217805139838 -8.204545454545455)">
<path fill="none" stroke="#000" stroke-width="2" d="M9 2s-12.5 8.95-4 34" class="shp0"/>
</g>
<g>
<path fill="none" stroke="#000" stroke-width="2" d="M170 235s15 0 30 5c15-5 30-5 30-5m-75-15s35 0 45 5c10-5 45-5 45-5"/>
</g>
<g transform="translate(102.5 287.5) rotate(14 37.5 22.5)">
<path d="M10 35 5 20s15-10 30-10 35 15 35 15l-5 10z" style="fill:#f5f3ee"/><path d="M37.93 32.78c-4.53 0-8.2-3.66-8.2-8.2 0-4.53 3.67-8.19 8.2-8.19s8.19 3.66 8.19 8.19c0 4.54-3.66 8.2-8.19 8.2" style="fill:#000"/><path d="M10 35 5 20.72S25 10 35 10s35 15 35 15l-5 10" style="fill:none;stroke:#000;stroke-width:6"/>
</g>
<g transform="translate(222.5 287.5) rotate(-14 37.5 22.5) scale(-1 1) translate(-75 0)">
<path d="M10 35 5 20s15-10 30-10 35 15 35 15l-5 10z" style="fill:#f5f3ee"/><path d="M37.93 32.78c-4.53 0-8.2-3.66-8.2-8.2 0-4.53 3.67-8.19 8.2-8.19s8.19 3.66 8.19 8.19c0 4.54-3.66 8.2-8.19 8.2" style="fill:#000"/><path d="M10 35 5 20.72S25 10 35 10s35 15 35 15l-5 10" style="fill:none;stroke:#000;stroke-width:6"/>
</g>
<g transform="translate(97.20374849998123 252.4995916989505) rotate(10 42.79625150001876 17.50040830104949)">
<path fill="#2C1608" stroke="#000" d="M12.93 15.05c-1.51.67-4.18 2.29-5.94 3.61s-3.38 2.8-3.61 3.29c-.22.49-.16.96.13 1.04.3.08 4.44-.28 9.21-.79 4.77-.52 11.58-1.06 15.13-1.21s11.63-.28 17.94-.29c6.32-.01 14.56.12 18.32.29 3.75.17 8.39.25 10.29.19 1.91-.05 4.56-.27 5.89-.47 2.09-.32 2.33-.53 1.84-1.57-.42-.91-1.74-1.55-5.18-2.53-2.54-.73-7.86-1.72-11.83-2.22-3.97-.49-10.99-1.19-15.6-1.55-4.62-.36-11.91-.72-16.22-.81-6.13-.11-8.91.06-12.73.83-2.69.53-6.13 1.52-7.64 2.19Z"/>
</g>
<g transform="translate(217.20374849998123 252.4995916989505) rotate(-10 42.79625150001876 17.50040830104949) scale(-1 1) translate(-85.59250300003752 0)">
<path fill="#2C1608" stroke="#000" d="M12.93 15.05c-1.51.67-4.18 2.29-5.94 3.61s-3.38 2.8-3.61 3.29c-.22.49-.16.96.13 1.04.3.08 4.44-.28 9.21-.79 4.77-.52 11.58-1.06 15.13-1.21s11.63-.28 17.94-.29c6.32-.01 14.56.12 18.32.29 3.75.17 8.39.25 10.29.19 1.91-.05 4.56-.27 5.89-.47 2.09-.32 2.33-.53 1.84-1.57-.42-.91-1.74-1.55-5.18-2.53-2.54-.73-7.86-1.72-11.83-2.22-3.97-.49-10.99-1.19-15.6-1.55-4.62-.36-11.91-.72-16.22-.81-6.13-.11-8.91.06-12.73.83-2.69.53-6.13 1.52-7.64 2.19Z"/>
</g>
<g transform="translate(0 5)">
<path d="m170 440 10-10h40l10 10" style="fill:none;stroke:#000;stroke-width:5"/>
</g>
<g transform="translate(174.5 336.5) scale(1.23 1.23) translate(-4.768292682926829 -6.264227642276422)">
<path fill="#ddb7a0" stroke="#000" stroke-width="5" d="m28 1 20 45s-5 20-25 20S3 46 3 46" class="nose"/>
</g>
<g transform="scale(0.9840000000000001 1) translate(3.178455284552826 0)">
<path fill="#2C1608" stroke="#000" stroke-width="4" d="M37.17 332.53c6.66-10.67 10.33-36.33 10.33-36.33s-11.67 7.13-22.67 9.66c10-13.33 22.92-52.06 22.92-52.06s-10.25 8.06-20.92 7.73c30.34-49.67 10.75-84.26 65.34-123 0 0-13.09-2.26-25.67-10.33 37.88-2.4 64.75-46.9 129.25-38.4 0 0-5.5-10.5-27-21.5 69.5-1 86.5 36.5 86.5 36.5s16.5-7.5 25 14c64.5 9.5 58.5 97 83 140-8.88-1.4-16.5-7.5-16.5-7.5s3.87 27.1 19.37 50.6c-9.5-2.75-21.29-10.04-21.29-10.04s8.29 22.29 11.55 28.79C344.12 315.9 333.75 300 333.75 300s-5.58 24.86-22 41.8c9.75-25.94 8.5-58 8.5-58l-15-31L310 200c-40-40-70.25-1.7-132.25-2.7-81.53-1.32-100 86.5-100 86.5s.08 21.73 7.75 56.73c-17-11.67-24.33-48.33-24.33-43.33s-12.67 31-24 35.33Z" class="shaggy"/><path d="M114 190s32.25-4.8 76-55m-43 43s56.75 2.7 103-36m-110-3s38.75-54.3 93-34" style="fill:none;stroke:#000;stroke-width:5"/>
</g>
</svg>