<svg xmlns="http://www.w3.org/2000/svg" version="1.2" baseProfile="tiny" width="100%" height="100%" viewBox="0 0 400 600" preserveAspectRatio="xMinYMin meet">
<g transform="scale(0.98 1) translate(4.130966436161245 0)">
<path fill="#f2d6cb" stroke="#000" stroke-width="6" d="M20 600s-5-60 40-70c15 0 45-15 90-35l50-195 50 195c45 20 75 35 90 35 45 10 45 70 45 70" class="body"/>
</g>
<g transform="scale(0.98 1) translate(4.132653061224493 0)">
<g stroke="#000"><path fill="#7a1319" stroke-width="3" d="M120 505s35 40 80 40 80-40 80-40v95H120z" class="s0"/><path fill="#89bfd3" stroke-width="6" d="M120 504.6c10 45.4 80 55.4 90 65.4s10 40 10 40H-5s5-40 5-50 10-30 40-40 50 0 80-15.4z" class="s0"/><path fill="#89bfd3" stroke-width="6" d="M360 520c30 10 40 30 40 40s10 50 10 50H180s0-40 10-50 80-10 90-55c30 15 50 5 80 15z" class="s0"/><path fill="#89bfd3" stroke-width="1.5" d="M196 597c-2.8 0-5-2.2-5-5s2.2-5 5-5 5 2.2 5 5-2.2 5-5 5zm-2-5h1m2 0h1" class="s1"/></g><g fill="none" stroke="#000" stroke-width="6"><path d="M120 504.6c6.9 37.6 62.2 49.3 67.9 57-7.8 11.2-8 48.4-8 48.4H-5s5-40 5-50 10-30 40-40 50 0 80-15.4z" class="s5"/><path d="M360 520c30 10 40 30 40 40s10 50 10 50H180s0-40 10-50 80-10 90-55c30 15 50 5 80 15z" class="s5"/></g>
</g>
<g transform="translate(32 293.3) scale(0.7 0.7) translate(9.85714285714286 13.585714285714289) translate(5.6800000000000015 -3)">
<path fill="#f2d6cb" stroke="#000" stroke-width="6" d="M43 8S3-12 3 28c0 45 40 30 40 30z"/>
</g>
<g transform="translate(322 293.3) scale(-0.7 0.7) translate(-55.85714285714286 13.585714285714289) translate(5.6800000000000015 -3)">
<path fill="#f2d6cb" stroke="#000" stroke-width="6" d="M43 8S3-12 3 28c0 45 40 30 40 30z"/>
</g>
<g transform="scale(0.9440000000000001 1) translate(11.864406779661005 0)">
<path fill="#f2d6cb" stroke="#000" stroke-width="6" d="M200 100c100 0 150 60 150 200 0 70-10 90-30 130-10 20-60 50-70 60-20 20-20 10-50 10s-30 10-50-10c-10-10-60-40-70-60-20-40-30-60-30-130 0-140 50-200 150-200Z" class="head"/><path fill="rgba(0,0,0,0)" d="M200 410c30 0 50 10 50 10 30 0 90-15 90-120h10c0 70-10 90-30 130-10 20-60 50-70 60-20 20-20 10-50 10s-30 10-50-10c-10-10-60-40-70-60-20-40-30-60-30-130h10c0 105 60 120 90 120 0 0 20-10 50-10" class="faceShave"/><path fill="rgba(0,0,0,0)" d="M60 300H50c0-140 50-200 150-200s150 60 150 200h-10v-10c0-5-10-20-15-25s-5-55-15-65c-40-40-60 0-110 0s-70-40-110 0c-10 10-10 60-15 65s-15 20-15 25z" class="headShave"/>
</g>
<g transform="translate(147 424.5) scale(1.58 1.58) translate(-1.1012658227848102 -3.8544303797468356)">
<path fill="none" stroke="#000" stroke-width="2" d="m0 20 6-10-6-9" class="shp0"/>
</g>
<g transform="translate(247 424.5) scale(-1.58 1.58) translate(-4.89873417721519 -3.8544303797468356)">
<path fill="none" stroke="#000" stroke-width="2" d="m0 20 6-10-6-9" class="shp0"/>
</g>
<g>
<path fill="none" stroke="#000" stroke-width="2" d="M155 220s35 0 45 5c10-5 45-5 45-5"/>
</g>
<g transform="translate(-125 -25) rotate(15 265 335)">
<path d="M265 360c-13.8 0-25-11.2-25-25s11.2-25 25-25 25 11.2 25 25-11.2 25-25 25" style="fill:none;stroke:#000;stroke-width:5;stroke-linecap:round;stroke-linejoin:round"/><path d="M265 360c-13.8 0-25-11.2-25-25v-5h50v5c0 13.8-11.2 25-25 25" style="fill:#fff;stroke:#000;stroke-width:5;stroke-linecap:round;stroke-linejoin:round"/><path d="M265 330c-10 0-10 15 0 15s10-15 0-15" style="stroke:#000;stroke-width:4;stroke-linecap:round;stroke-linejoin:round"/>
</g>
<g transform="translate(-5 -25) rotate(-15 265 335) scale(-1 1) translate(-530 0)">
<path d="M265 360c-13.8 0-25-11.2-25-25s11.2-25 25-25 25 11.2 25 25-11.2 25-25 25" style="fill:none;stroke:#000;stroke-width:5;stroke-linecap:round;stroke-linejoin:round"/><path d="M265 360c-13.8 0-25-11.2-25-25v-5h50v5c0 13.8-11.2 25-25 25" style="fill:#fff;stroke:#000;stroke-width:5;stroke-linecap:round;stroke-linejoin:round"/><path d="M265 330c-10 0-10 15 0 15s10-15 0-15" style="stroke:#000;stroke-width:4;stroke-linecap:round;stroke-linejoin:round"/>
</g>
<g transform="translate(105 260.3333333333333) rotate(18 35 9.66666666666667)">
<path fill="#D7BF91" stroke="#000" d="M67 17c3-3 0-12 0-12H39C29 5 3 1 3 1S0 14 3 17s26 0 36 0 25 3 28 0Z"/>
</g>
<g transform="translate(225 260.3333333333333) rotate(-18 35 9.66666666666667) scale(-1 1) translate(-70 0)">
<path fill="#D7BF91" stroke="#000" d="M67 17c3-3 0-12 0-12H39C29 5 3 1 3 1S0 14 3 17s26 0 36 0 25 3 28 0Z"/>
</g>
<g transform="translate(0 51.52119068455602)">
<path d="M168 384s9-13.77 32-14.03c17.4-.2 32 13.2 32 13.2s-4.29 23.24-32 23.81c-27.29.56-32-22.98-32-22.98" style="opacity:.05;mix-blend-mode:multiply;fill:#501414"/><path d="M181.71 402.12c14.52 5.66 24.72 5.71 37.72-.71m.86-26.53c-14.52-5.66-27.29-6.34-40.29.09" style="fill:none;stroke:#000;stroke-width:2"/><path d="M165 390s20-5 35-5 35 4 35 4" style="fill:none;stroke:#000;stroke-width:4"/>
</g>
<g transform="translate(179 344) scale(-0.71 0.71) translate(-26.492957746478872 10.619718309859156)">
<path fill="#f2d6cb" stroke="#000" stroke-width="5" d="M11 1S6 31 21 41L1 51" class="nose"/>
</g>
<g transform="scale(-1 1) translate(-400 0) scale(0.9440000000000001 1) translate(11.864406779661005 0)">
<path fill="#D7BF91" stroke="#000" stroke-width="4" d="M60 310H50v-10c0-133.375 45.38-194.143 136.14-199.595Q192.902 100 200 100c100 0 150 60 150 200v10h-10c-5.865-19.535-9.397-26.984-15-45-2.917-4.702-25.536-47.024-35.536-57.024s-53.452 7.5-84.107 19.107c-10.733 4.064-108.964 32.475-119.957 32.19 0 0-7.086 5.755-10.4 5.727-5 5-15 20-15 25z"/>
</g>
</svg>