<svg xmlns="http://www.w3.org/2000/svg" version="1.2" baseProfile="tiny" width="100%" height="100%" viewBox="0 0 400 600" preserveAspectRatio="xMinYMin meet">
<g transform="scale(1.04 1) translate(-7.692307692307699 0)">
<path fill="#f2d6cb" stroke="#000" stroke-width="6" d="M10 600s-10-65 50-65c5 0 25-15 70-35l70-200 70 200c45 20 65 35 70 35 60 0 50 65 50 65" class="body"/>
</g>
<g transform="scale(1.04 1) translate(-7.692307692307699 0)">
<path fill="#89bfd3" stroke="#000" stroke-width="6" d="M80 610s10-30 10-90l20-10s10 80 90 80 90-80 90-80l20 10c0 60 10 90 10 90z" class="jersey"/><path fill="none" stroke="#07364f" stroke-width="2" d="M95 610v-92.45M105 610v-97.95m10 2.95v95m10-60v62.05M135 565v45m10-35v35m10-30v30m10-25v25m10-20v20m10-20v20m10-20v20m110 0v-92.45M295 610v-97.95M285 515v95m-10-60v62.05M265 565v45m-10-35v35m-10-30v30m-10-25v25m-10-20v20m-10-20v20m-10-20v20" class="pinstripes"/><path fill="none" stroke="#000" stroke-width="16" d="M90 520c0 60-10 90-10 90m230-90c0 60 10 90 10 90M110 510s10 80 90 80 90-80 90-80" class="outline"/><path fill="none" stroke="#07364f" stroke-width="8" d="M90 520c0 60-10 90-10 90m230-90c0 60 10 90 10 90m-210-98s15 78 90 78 90-78 90-78" class="stripe-accent"/><path fill="none" stroke="#89bfd3" stroke-width="4" d="M86 522c0 60-10 88-10 88m238-88c0 60 10 88 10 88M114 510s11 76 86 76 86-76 86-76" class="stripe-primary"/><path fill="none" stroke="#7a1319" stroke-width="4" d="M94 518c0 60-10 92-10 92m222-92c0 60 10 92 10 92m-210-96s12 80 94 80 94-80 94-80" class="stripe-secondary"/>
</g>
<g transform="translate(32 293.3) scale(0.76 0.76) translate(7.263157894736842 10.010526315789475) translate(20.56 -3)">
<path fill="#f2d6cb" stroke="#000" stroke-width="6" d="M43 8S3-12 3 28c0 45 40 30 40 30z"/>
</g>
<g transform="translate(322 293.3) scale(-0.76 0.76) translate(-53.263157894736835 10.010526315789475) translate(20.56 -3)">
<path fill="#f2d6cb" stroke="#000" stroke-width="6" d="M43 8S3-12 3 28c0 45 40 30 40 30z"/>
</g>
<g transform="scale(0.8480000000000001 1) translate(35.84905660377356 0)">
<path fill="#f2d6cb" stroke="#000" stroke-width="6" d="M200 100c100 0 150 60 150 200 0 0-20 105-20 135s-110 65-130 65-130-35-130-65-20-135-20-135c0-140 50-200 150-200Z" class="head"/><path fill="rgba(0,0,0,0.14)" d="M60 300H50c0-140 50-200 150-200s150 60 150 200h-10v-10c0-5-10-20-15-25s-5-55-15-65c-40-40-60 0-110 0s-70-40-110 0c-10 10-10 60-15 65s-15 20-15 25z" class="headShave"/><path fill="rgba(0,0,0,0.14)" d="M200 410c30 0 50 10 50 10 30 0 90-15 90-120h10s-20 105-20 135-110 65-130 65-130-35-130-65-20-135-20-135h10c0 105 60 120 90 120 0 0 20-10 50-10" class="faceShave"/>
</g>
<g>
<path fill="none" stroke="#000" stroke-width="2" d="M240 355s20-10 45 0m-125 0s-20-10-45 0" class="eyeline5"/>
</g>
<g transform="translate(142.67 417.5) scale(2.02 2.02) translate(-3.7012871287128712 -8.836633663366337)">
<path fill="none" stroke="#000" stroke-width="2" d="M12.33 4.32s-10 3.29-10 13.18 10 13.18 10 13.18" class="shp0"/>
</g>
<g transform="translate(242.67 417.5) scale(-2.02 2.02) translate(-10.95871287128713 -8.836633663366337)">
<path fill="none" stroke="#000" stroke-width="2" d="M12.33 4.32s-10 3.29-10 13.18 10 13.18 10 13.18" class="shp0"/>
</g>
<g transform="scale(0.8480000000000001 1) translate(35.84905660377356 0)">
<path fill="#3D2314" fill-rule="evenodd" stroke="#000" d="M200 410c55 0 55 15 55 30 70 0 85-35 85-140h10c0 130-30 150-40 160s-60 60-110 60-100-50-110-60-40-30-40-160h10c0 105 15 140 85 140 0-15 0-30 55-30Zm-45 30c0 20 5 30 25 30 10 0 10-10 20-10s10 10 20 10c20 0 25-10 25-30s-15-20-45-20-45 0-45 20Z" class="shp0"/>
</g>
<g transform="translate(-120.29753770446098 -23.177101781228032) rotate(1 260.297537704461 333.17710178122803)">
<path d="M259.01 349.54c-13.866-.398-24.71-6.089-24.71-19.05 10.7-18.063 40.386-18.358 51.25-.275 4.415 12.208-11.607 19.753-26.54 19.325" style="fill:#fff;stroke:#000;stroke-linecap:round;stroke-linejoin:round;stroke-width:5"/><path d="M259.552 325.177c-10 0-10 15 0 15s10-15 0-15" style="fill:#000;stroke:#000;stroke-linecap:round;stroke-linejoin:round;stroke-width:4"/>
</g>
<g transform="translate(-0.2975377044609786 -23.177101781228032) rotate(-1 260.297537704461 333.17710178122803) scale(-1 1) translate(-520.595075408922 0)">
<path d="M259.01 349.54c-13.866-.398-24.71-6.089-24.71-19.05 10.7-18.063 40.386-18.358 51.25-.275 4.415 12.208-11.607 19.753-26.54 19.325" style="fill:#fff;stroke:#000;stroke-linecap:round;stroke-linejoin:round;stroke-width:5"/><path d="M259.552 325.177c-10 0-10 15 0 15s10-15 0-15" style="fill:#000;stroke:#000;stroke-linecap:round;stroke-linejoin:round;stroke-width:4"/>
</g>
<g transform="translate(100.5 257.50129968019115) rotate(-14 39.5 12.498700319808862)">
<path fill="#3D2314" stroke="#000" d="M79 12.9c0-6.11-7.5-6.11-7.5-6.11-18.75-3.05-41.65 3.28-52.5 9.16C49 12.9 56.5 19 75.25 19c0 0 3.75 0 3.75-6.1Z"/><path d="M0 10h5v5H0z" style="fill:none"/>
</g>
<g transform="translate(220.5 257.50129968019115) rotate(14 39.5 12.498700319808862) scale(-1 1) translate(-79 0)">
<path fill="#3D2314" stroke="#000" d="M79 12.9c0-6.11-7.5-6.11-7.5-6.11-18.75-3.05-41.65 3.28-52.5 9.16C49 12.9 56.5 19 75.25 19c0 0 3.75 0 3.75-6.1Z"/><path d="M0 10h5v5H0z" style="fill:none"/>
</g>
<g transform="translate(-1.2900000000000205 20.56000000000006)">
<path d="M198.19 431.84c-7.3-1.3-14.7-2.5-22-3.9a67 67 0 0 1-10.6-3c-4.5-1.6-8.6-3.4-11.8 2.2-.5.9-3.1.6-4.7.9.2-1.5-.1-3.2.6-4.5 2.2-4.6 4.6-9.1 7.1-13.5.7-1.2 2.1-2.1 3.2-3.1.6 1.4 1.7 2.8 1.6 4.1a53.4 53.4 0 0 1-1.7 8.1c27.8 8.4 55.3 8.3 83.4.2-.1-1.3-.2-2.8-.2-4.2s.2-2.8.5-5.8c2 2.2 3.2 3.2 3.9 4.5 2 3.8 4 7.6 5.7 11.6.5 1.2.2 2.7.3 4-1.5-.2-3.3.1-4.4-.7-1.6-1.1-2.6-2.9-3.3-3.6-12.7 2.3-24.7 4.6-36.8 6.8-3.5-.1-7.1-.1-10.8-.1"/>
</g>
<g transform="translate(0 77.5) scale(-0.87 0.87) translate(-429.88505747126436 43.706896551724135)">
<path fill="#f2d6cb" stroke="#000" stroke-width="5" d="M190 300c-5-15 5-15 10-15s15 0 10 15" class="nose"/>
</g>
<g transform="scale(0.8480000000000001 1) translate(35.78452830188677 0)">
<path fill="#3D2314" stroke="#000" stroke-width="5" d="m59.99 309.97-9.99.02s-1.98-4.71-4.04-9.48l-10.6-24.48-8.66-11.07 1.65-9.05-7.84-11.2 3.59-9.06-6.17-11.15 5.2-8.9-3.58-14.75 17.6-9.39-3.32-14.5 25.03-8.7.75-14.9 21.98-3.91 1.47-18.31 21.51-3.02 4.96-19.14 18.68.03 12.26-22.85 17.27 9.82 11.33-24.4 13.86 17.48 13.2-24.51 15.63 24.47 12.3-17.59 13.77 24.45 16.76-9.92 14.31 22.84 19.14-.12 5.99 18.93 21.94 2.75 1.86 17.9 21.99 3.44.81 14.49 24.54 7.65-3.1 14.55 17.26 8.86-3.27 14.66 5.29 8.76-5.85 11.28 3.78 9.07-7.58 11.5 1.84 9.27-8.62 11.57-10.78 26.06c-2.15 5.19-4.22 10.36-4.22 10.36l-10.03-.1s-.79-15.25.11-20.4c.94-5.15-10.68-20.44-18.68-25.35-7.86-4.87-5.4-54.81-19.55-64.07-40.62-38.86-63.64 1.89-101.31 2.51-37.75.06-61.8-40.78-101.89-.55-14.3 9.72-11.99 59.64-19.91 64.54-8.01 4.91-19.57 19.04-18.66 23.92.87 4.84-.01 19.69-.01 19.69Z"/>
</g>
</svg>