<svg xmlns="http://www.w3.org/2000/svg" version="1.2" baseProfile="tiny" width="100%" height="100%" viewBox="0 0 400 600" preserveAspectRatio="xMinYMin meet">
<g transform="scale(0.9860000000000001 1) translate(2.8468559837727994 0)">
<path fill="#e9c67b" stroke="#000" stroke-width="4" d="M59.75 313.8s-8.5 30.69-5.25 60.4c11.25-19.71 25-32.34 25-32.34S64.17 391.7 69.17 416.2c16.5-28 26.66-41.67 26.66-41.67S86.5 427.7 91.5 460.2c18-33 33.67-47.67 33.67-47.67s-14.3 40.12-8.3 75.12c21.5-46 81.38-32.85 81.38-32.85L196 325zm281.5 0s8.5 30.69 5.25 60.4c-11.25-19.71-25-32.34-25-32.34s15.33 49.84 10.33 74.34c-16.5-28-26.66-41.67-26.66-41.67s9.33 53.17 4.33 85.67c-18-33-33.67-47.67-33.67-47.67s14.3 40.12 8.3 75.12c-21.5-46-81.38-32.85-81.38-32.85L205 325z" class="shaggyBg"/>
</g>
<g transform="scale(0.99 1) translate(2.0446197512313233 0)">
<path fill="#f2d6cb" stroke="#000" stroke-width="6" d="M20 600s-5-60 40-70c15 0 45-15 90-35l50-195 50 195c45 20 75 35 90 35 45 10 45 70 45 70" class="body"/>
</g>
<g transform="scale(0.99 1) translate(2.020202020202022 0)">
<g stroke="#000"><path fill="#89bfd3" stroke-width="6" d="M120 505c0 20 50 15 80 35 30-20 80-15 80-35 0 0 50-5 80 5 0 0 20 10 30 40s10 60 10 60H0s0-30 10-60 30-40 30-40c30-10 80-5 80-5Z" class="hockeyPrimary"/><path fill="#7a1319" d="M4.5 577.03S10 580 20 580c30-15 110-20 180-20 90 0 150 5 180 20 10 0 17-2.97 17-2.97l1 12.97s-8 5-18 5c-40-20-110-22.48-180-22.48-80 0-150 2.48-180 22.48-10 0-18-5-18-5z" class="stripeAccent"/><path fill="#7a1319" stroke-width="2" d="M120 505c0 20 50 15 80 30 30-15 80-10 80-30l15-1c0 41-40 21-95 56-55-35-95-15-95-56z" class="collarAccent"/><path fill="none" stroke-width="6" d="M120 505c0 20 50 15 80 35 30-20 80-15 80-35 0 0 50-5 80 5 0 0 20 10 30 40s10 60 10 60H0s0-30 10-60 30-40 30-40c30-10 80-5 80-5Z" class="hockeyStroke"/><path fill="#07364f" stroke-width="2" d="M180 528.21h40l10 17.05L200 564l-30-18.74z" class="shieldSecondary"/></g>
</g>
<g transform="translate(32 293.3) scale(1.06 1.06) translate(-1.3018867924528312 -1.7943396226415111) translate(-0.8300000000000014 -3)">
<path fill="#f2d6cb" stroke="#000" stroke-width="6" d="M43 8S3-12 3 28c0 45 40 30 40 30z"/>
</g>
<g transform="translate(322 293.3) scale(-1.06 1.06) translate(-44.69811320754717 -1.7943396226415111) translate(-0.8300000000000014 -3)">
<path fill="#f2d6cb" stroke="#000" stroke-width="6" d="M43 8S3-12 3 28c0 45 40 30 40 30z"/>
</g>
<g transform="scale(0.9860000000000001 1) translate(2.839756592292069 0)">
<path fill="#f2d6cb" stroke="#000" stroke-width="6" d="M200 100c100 0 150 60 150 200 0 120 0 140-100 180-10 10-30 20-50 20s-40-10-50-20C50 440 50 420 50 300c0-140 50-200 150-200Z" class="head"/><path fill="rgba(0,0,0,0)" d="M60 300H50c0-140 50-200 150-200s150 60 150 200h-10v-10c0-5-10-20-15-25s-5-55-15-65c-40-40-60 0-110 0s-70-40-110 0c-10 10-10 60-15 65s-15 20-15 25z" class="headShave"/><path fill="rgba(0,0,0,0)" d="M200 410c30 0 50 10 50 10 30 0 90-15 90-120h10c0 120 0 140-100 180-13.13 5.25-30 20-50 20s-36.87-14.75-50-20C50 440 50 420 50 300h10c0 105 60 120 90 120 0 0 20-10 50-10" class="faceShave"/>
</g>
<g transform="translate(-120.29753770446098 -23.177101781228032) rotate(-6 260.297537704461 333.17710178122803)">
<path d="M259.01 349.54c-13.866-.398-24.71-6.089-24.71-19.05 10.7-18.063 40.386-18.358 51.25-.275 4.415 12.208-11.607 19.753-26.54 19.325" style="fill:#fff;stroke:#000;stroke-linecap:round;stroke-linejoin:round;stroke-width:5"/><path d="M259.552 325.177c-10 0-10 15 0 15s10-15 0-15" style="fill:#000;stroke:#000;stroke-linecap:round;stroke-linejoin:round;stroke-width:4"/>
</g>
<g transform="translate(-0.2975377044609786 -23.177101781228032) rotate(6 260.297537704461 333.17710178122803) scale(-1 1) translate(-520.595075408922 0)">
<path d="M259.01 349.54c-13.866-.398-24.71-6.089-24.71-19.05 10.7-18.063 40.386-18.358 51.25-.275 4.415 12.208-11.607 19.753-26.54 19.325" style="fill:#fff;stroke:#000;stroke-linecap:round;stroke-linejoin:round;stroke-width:5"/><path d="M259.552 325.177c-10 0-10 15 0 15s10-15 0-15" style="fill:#000;stroke:#000;stroke-linecap:round;stroke-linejoin:round;stroke-width:4"/>
</g>
<g transform="translate(101.05152592374387 261.3) rotate(15 38.94847407625614 8.7)">
<path fill="#e9c67b" stroke="#000" d="M73 13c4.85-1.21 0-10-10-10S3 8 3 8s50 10 70 5Z"/>
</g>
<g transform="translate(221.05152592374387 261.3) rotate(-15 38.94847407625614 8.7) scale(-1 1) translate(-77.89694815251228 0)">
<path fill="#e9c67b" stroke="#000" d="M73 13c4.85-1.21 0-10-10-10S3 8 3 8s50 10 70 5Z"/>
</g>
<g transform="translate(169 428)">
<path d="m1 22 60-10L51 2" style="fill:none;stroke:#000;stroke-width:5"/>
</g>
<g transform="translate(0 77.5) scale(0.96 0.96) translate(8.333333333333341 12.18750000000001)">
<path fill="#f2d6cb" stroke="#000" stroke-width="5" d="M190 300c-5-15 5-15 10-15s15 0 10 15" class="nose"/>
</g>
<g transform="scale(0.9860000000000001 1) translate(2.839756592292069 0)">
<path fill="#e9c67b" stroke="#000" stroke-width="4" d="M46.17 300C47.51 160.01 78.5 95.59 219.25 91.8c10 0 14.92.06 20.58 8.73 0 0 9.09-1.93 15.59-.93 82.33 40.7 101.33 87.2 101.33 227.2l-22-30S320 210 310 200l-110-12.14L90 200c-10.01 9.99-5.25 137.8-5.25 137.8l-30 31s-9-25.5-8.58-68.8Z" class="longHair"/><path fill="#e9c67b" d="M240 200c60-20 60 120 140 160-40-60-40-100-40-100s-7.25-100.2-107.25-100.2M73 309s7 51-53 71c120 20 80-240 220-180l11.25-39.2L100 160l-28.75 60" class="bangs"/><path fill="none" stroke="#000" stroke-width="4" d="M240 200c60-20 60 120 140 160-40-60-40-100-40-100M73 309s7 51-53 71c120 20 80-240 220-180" class="bangsLine"/>
</g>
<g transform="scale(0.9860000000000001 1) translate(2.839756592292069 0)">
<path fill="#7a1319" stroke="#000" stroke-width="2" d="M50 285h30s20-10 50-10 65 10 65 10h10s35-10 65-10 50 10 50 10h30v10l-30 5s-20-15-50-15-60 10-60 10-5 15 0 25c0 0-5-10-10-10s-10 10-10 10c5-10 0-25 0-25s-30-10-60-10-50 15-50 15l-30-5z" class="frame"/><path fill="rgba(150,150,175,.5)" fill-rule="lens" d="M155 340c35 0 35 5 35-20 5-10 0-25 0-25s-30-10-60-10-50 15-50 15-5 40 5 45 40-5 70-5m160 5c10-5 5-45 5-45s-20-15-50-15-60 10-60 10-5 15 0 25c0 25 0 20 35 20 30 0 60 10 70 5" class="lens"/><path fill="none" stroke="#fff" stroke-width="2" d="m275 330 15-35m-5 35 15-35m-165 35 15-35m-5 35 15-35" class="glare"/>
</g>
</svg>