<svg xmlns="http://www.w3.org/2000/svg" version="1.2" baseProfile="tiny" width="100%" height="100%" viewBox="0 0 400 600" preserveAspectRatio="xMinYMin meet">
<g transform="scale(0.8380000000000001 1) translate(38.26264666291674 0)">
<path fill="#1c1008" stroke="#000" stroke-width="4" d="M63 243s-11.25 45.2-20 72-22.23 81.18 12 102c17.75 10.8 56.25 13.8 56.25 13.8L308 437s44.75-5.2 52-58c6.01-43.79 6.25-79-32-125" class="longHairBg"/><path fill="#1c1008" stroke="#000" stroke-width="4" d="M341 393s-6.51 32.08-11.25 46.3c-2.5 7.5-7 19.5 1.25 35.7-13.3-2.88-30-22-30-22s-11.7 35.32-44.3 42.32c8-14.8 7.3-34.32 7.3-34.32M55 393s6.51 32.08 11.25 46.3c2.5 7.5 7 19.5-1.25 35.7 13.3-2.88 30-22 30-22s11.7 35.32 44.3 42.32c-8-14.8-7.3-34.32-7.3-34.32" class="longHairBg"/>
</g>
<g transform="scale(0.98 1) translate(4.081632653061228 0)">
<path fill="#aa816f" stroke="#000" stroke-width="6" d="M10 600s-10-70 50-70c10 0 0-10 60-20 0 0 50-210 80-210s80 210 80 210c60 10 50 20 60 20 60 0 50 70 50 70"/><path d="M71 545s46.9-3 82.1 10M329 545s-46.9-3-82.1 10m77.1-18s5.5-7.5 22-7m-271 7s-5.5-7.5-22-7"/>
</g>
<g transform="scale(0.98 1) translate(4.081632653061228 0)">
<g stroke="#000"><path fill="#89bfd3" stroke-width="6" d="M120 505c0 35 50 25 80 45 30-20 80-10 80-45 30-25 90-15 100-5s10.07 20.41 15 50c5 30 5 20 5 60H0c0-40 0-29.59 5-59.59 4.93-29.59 5-39.38 15-50.41 9.5-10.48 70-20 100 5Z" class="footballPrimary"/><path fill="#7a1319" stroke-width="2" d="M120 505c0 35 50 25 80 45 30-20 80-10 80-45l15-10c5 60-55 45-95 75-40-30-100-15-95-75z" class="collarSecondary"/><path fill="none" stroke-width="6" d="M120 505c0 35 50 25 80 45 30-20 80-10 80-45 30-25 90-15 100-5s10.07 20.41 15 50c5 30 5 20 5 60H0c0-40 0-30 5-60 4.93-29.59 5-38.97 15-50 9.5-10.48 70-20 100 5Z" class="footballStroke"/><path fill="none" stroke-width="2" d="M19.5 570s72.5-2.11 81.5-20m280 20s-71-2.11-80-20" class="shp3"/></g>
</g>
<g transform="translate(32 290.6) scale(0.91 0.91) translate(2.274725274725274 3.4021978021978017) translate(22.110000000000003 -3)">
<path fill="#aa816f" stroke="#000" stroke-width="6" d="M43 13S23 3 13 3 3 23 3 33s3 20 13 30 27-10 27-10z"/>
</g>
<g transform="translate(322 290.6) scale(-0.91 0.91) translate(-48.27472527472528 3.4021978021978017) translate(22.110000000000003 -3)">
<path fill="#aa816f" stroke="#000" stroke-width="6" d="M43 13S23 3 13 3 3 23 3 33s3 20 13 30 27-10 27-10z"/>
</g>
<g transform="scale(0.8380000000000001 1) translate(38.663484486873486 0)">
<path fill="#aa816f" stroke="#000" stroke-width="6" d="M200 100c100 0 150 60 150 200-10 160 0 110-100 190-10 10-30 20-50 10-20 10.9-40 0-50-10-100-80-90-30-100-190 0-140 50-200 150-200Z" class="head"/><path fill="rgba(0,0,0,0)" d="M200 410c30 0 50 10 50 10 30 0 90-15 90-120h10c-10 160 0 110-100 190-10 10-30 20-50 10-20 10-38.96-1.17-50-10-100-80-90-30-100-190h10c0 105 60 120 90 120 0 0 20-10 50-10" class="faceShave"/><path fill="rgba(0,0,0,0)" d="M60 300H50c0-140 50-200 150-200s150 60 150 200h-10v-10c0-5-10-20-15-25s-5-55-15-65c-40-40-60 0-110 0s-70-40-110 0c-10 10-10 60-15 65s-15 20-15 25z" class="headShave"/>
</g>
<g transform="translate(144.4807306749833 416) scale(1.81 1.81) translate(-2.4699492559467036 -8.502762430939226)">
<path fill="none" stroke="#000" stroke-width="2" d="M9 2s-12.5 8.95-4 34" class="shp0"/>
</g>
<g transform="translate(244.4807306749833 416) scale(-1.81 1.81) translate(-8.568589394086713 -8.502762430939226)">
<path fill="none" stroke="#000" stroke-width="2" d="M9 2s-12.5 8.95-4 34" class="shp0"/>
</g>
<g>
<path d="M144 363c-1.66 0-3-1.34-3-3s1.34-3 3-3 3 1.34 3 3-1.34 3-3 3m-15-1c-1.11 0-2-.89-2-2s.89-2 2-2 2 .89 2 2-.89 2-2 2m-15 1c-1.66 0-3-1.34-3-3s1.34-3 3-3 3 1.34 3 3-1.34 3-3 3m-15-1c-1.11 0-2-.89-2-2s.89-2 2-2 2 .89 2 2-.89 2-2 2m5 11c-1.66 0-3-1.34-3-3s1.34-3 3-3 3 1.34 3 3-1.34 3-3 3m10-1c-1.11 0-2-.89-2-2s.89-2 2-2 2 .89 2 2-.89 2-2 2m10 1c-1.66 0-3-1.34-3-3s1.34-3 3-3 3 1.34 3 3-1.34 3-3 3m10-1c-1.11 0-2-.89-2-2s.89-2 2-2 2 .89 2 2-.89 2-2 2m10 11c-1.66 0-3-1.34-3-3s1.34-3 3-3 3 1.34 3 3-1.34 3-3 3m-15-1c-1.11 0-2-.89-2-2s.89-2 2-2 2 .89 2 2-.89 2-2 2m-10 0c-1.11 0-2-.89-2-2s.89-2 2-2 2 .89 2 2-.89 2-2 2m-10 1c-1.66 0-3-1.34-3-3s1.34-3 3-3 3 1.34 3 3-1.34 3-3 3m-10-1c-1.11 0-2-.89-2-2s.89-2 2-2 2 .89 2 2-.89 2-2 2m45-10c-1.11 0-2-.89-2-2s.89-2 2-2 2 .89 2 2-.89 2-2 2m-50 0c-1.11 0-2-.89-2-2s.89-2 2-2 2 .89 2 2-.89 2-2 2m60 5c-1.11 0-2-.89-2-2s.89-2 2-2 2 .89 2 2-.89 2-2 2m0-10c-1.11 0-2-.89-2-2s.89-2 2-2 2 .89 2 2-.89 2-2 2m-48-15c-1.11 0-2-.89-2-2s.89-2 2-2 2 .89 2 2-.89 2-2 2m15 2c-2.21 0-4-1.79-4-4s1.79-4 4-4 4 1.79 4 4-1.79 4-4 4m15-2c-1.11 0-2-.89-2-2s.89-2 2-2 2 .89 2 2-.89 2-2 2m-15 41c-1.66 0-3-1.34-3-3s1.34-3 3-3 3 1.34 3 3-1.34 3-3 3m15-1c-1.11 0-2-.89-2-2s.89-2 2-2 2 .89 2 2-.89 2-2 2m-30 0c-1.11 0-2-.89-2-2s.89-2 2-2 2 .89 2 2-.89 2-2 2m150-29c-1.66 0-3-1.34-3-3s1.34-3 3-3 3 1.34 3 3-1.34 3-3 3m15-1c-1.11 0-2-.89-2-2s.89-2 2-2 2 .89 2 2-.89 2-2 2m15 1c-1.66 0-3-1.34-3-3s1.34-3 3-3 3 1.34 3 3-1.34 3-3 3m15-1c-1.11 0-2-.89-2-2s.89-2 2-2 2 .89 2 2-.89 2-2 2m-5 11c-1.66 0-3-1.34-3-3s1.34-3 3-3 3 1.34 3 3-1.34 3-3 3m-10-1c-1.11 0-2-.89-2-2s.89-2 2-2 2 .89 2 2-.89 2-2 2m-10 1c-1.66 0-3-1.34-3-3s1.34-3 3-3 3 1.34 3 3-1.34 3-3 3m-10-1c-1.11 0-2-.89-2-2s.89-2 2-2 2 .89 2 2-.89 2-2 2m-10 11c-1.66 0-3-1.34-3-3s1.34-3 3-3 3 1.34 3 3-1.34 3-3 3m15-1c-1.11 0-2-.89-2-2s.89-2 2-2 2 .89 2 2-.89 2-2 2m10 0c-1.11 0-2-.89-2-2s.89-2 2-2 2 .89 2 2-.89 2-2 2m10 1c-1.66 0-3-1.34-3-3s1.34-3 3-3 3 1.34 3 3-1.34 3-3 3m10-1c-1.11 0-2-.89-2-2s.89-2 2-2 2 .89 2 2-.89 2-2 2m-45-10c-1.11 0-2-.89-2-2s.89-2 2-2 2 .89 2 2-.89 2-2 2m50 0c-1.11 0-2-.89-2-2s.89-2 2-2 2 .89 2 2-.89 2-2 2m-60 5c-1.11 0-2-.89-2-2s.89-2 2-2 2 .89 2 2-.89 2-2 2m0-10c-1.11 0-2-.89-2-2s.89-2 2-2 2 .89 2 2-.89 2-2 2m48-15c-1.11 0-2-.89-2-2s.89-2 2-2 2 .89 2 2-.89 2-2 2m-15 2c-2.21 0-4-1.79-4-4s1.79-4 4-4 4 1.79 4 4-1.79 4-4 4m-15-2c-1.11 0-2-.89-2-2s.89-2 2-2 2 .89 2 2-.89 2-2 2m15 41c-1.66 0-3-1.34-3-3s1.34-3 3-3 3 1.34 3 3-1.34 3-3 3m-15-1c-1.11 0-2-.89-2-2s.89-2 2-2 2 .89 2 2-.89 2-2 2m30 0c-1.11 0-2-.89-2-2s.89-2 2-2 2 .89 2 2-.89 2-2 2" style="opacity:.251;mix-blend-mode:multiply;fill:#8b6135"/>
</g>
<g transform="scale(0.8380000000000001 1) translate(38.663484486873486 0)">
<path fill="#1c1008" fill-rule="evenodd" stroke="#000" d="M60 300H50s-10 70 10 130c10 20 60 70 120 70 10 0-30-28.8-30-50 0-20 10-20 10-30s-30 30-70-10c-20-20-30-80-30-110Zm250 110c-40 40-70 0-70 10s10 10 10 30c0 21.2-40 50-30 50 60 0 110-50 120-70 20-60 10-130 10-130h-10c0 30-10 90-30 110Z" class="shp0"/><path fill="#1c1008" stroke="#000" d="M200 458.02 190 460c-10 10-20 40-20 40s10 10 30 10 30-10 30-10-10-30-20-40zM150 425c-5-5 25-20 35-20 5 0 10 5 15 5s10-5 15-5c10 0 40 15 35 20s-5-5-50-5-45 10-50 5Z" class="shp0"/>
</g>
<g transform="translate(101 299.4999966529182) rotate(3 39 10.500003347081822)">
<path d="M74 18 69 3H4l5 15z" style="fill:#fff;stroke:#000;stroke-width:5"/><path d="M38.5 18a7.49 7.49 0 0 1-7.5-7.5C31 6.35 34.35 3 38.5 3S46 6.35 46 10.5 42.65 18 38.5 18Z" style="fill:#000;stroke:#000;stroke-width:5"/>
</g>
<g transform="translate(221 299.4999966529182) rotate(-3 39 10.500003347081822) scale(-1 1) translate(-78 0)">
<path d="M74 18 69 3H4l5 15z" style="fill:#fff;stroke:#000;stroke-width:5"/><path d="M38.5 18a7.49 7.49 0 0 1-7.5-7.5C31 6.35 34.35 3 38.5 3S46 6.35 46 10.5 42.65 18 38.5 18Z" style="fill:#000;stroke:#000;stroke-width:5"/>
</g>
<g transform="translate(101.91746012211166 257.0658529346995) rotate(8 38.082539877888344 12.934147065300508)">
<path fill="#1c1008" stroke="#000" d="M74.17 18.39c5.31-3.87-1.66-7.27-1.66-7.27s-20.66-2.78-26.56-3.1c-7.56-.72-22.76-1.1-22.76-1.1S10.98 10 18.3 16.95c10.59 2.96 14.71-1.32 31.19-.91 16.85.28 21.74 4.37 24.68 2.35Z"/><path d="M0 10h5v5H0z" style="fill:none"/>
</g>
<g transform="translate(221.91746012211166 257.0658529346995) rotate(-8 38.082539877888344 12.934147065300508) scale(-1 1) translate(-76.16507975577669 0)">
<path fill="#1c1008" stroke="#000" d="M74.17 18.39c5.31-3.87-1.66-7.27-1.66-7.27s-20.66-2.78-26.56-3.1c-7.56-.72-22.76-1.1-22.76-1.1S10.98 10 18.3 16.95c10.59 2.96 14.71-1.32 31.19-.91 16.85.28 21.74 4.37 24.68 2.35Z"/><path d="M0 10h5v5H0z" style="fill:none"/>
</g>
<g transform="translate(0 10) scale(-1 1) translate(-400 0)">
<path d="M180 430h40" style="fill:none;stroke:#000;stroke-width:5"/>
</g>
<g transform="translate(0 7.5) scale(-0.61 0.61) translate(-527.8688524590164 231.7622950819672)">
<path fill="#aa816f" stroke="#000" stroke-width="5" d="M190 325s-5 20-5 45c-20-5-15 15-15 20 20 0 15 10 30 10s10-10 30-10c0-5 5-25-15-20 0-25-5-45-5-45" class="nose"/>
</g>
<g transform="scale(0.8380000000000001 1) translate(38.663484486873486 0)">
<defs><linearGradient id="a" x1="200" x2="200" y1="100" y2="310" gradientUnits="userSpaceOnUse"><stop offset="0" stop-color="rgba(0,0,0,.25)"/><stop offset="1" stop-color="rgba(0,0,0,0)"/></linearGradient></defs><path d="M60 310H50v-10c0-140 50-200 150-200s150 60 150 200v10h-10v-20c0-5-10-20-15-25s-5-55-15-65c-40-40-60 0-110 0s-70-40-110 0c-10 10-10 60-15 65s-15 20-15 25z" style="fill:url(#a);stroke:none"/>
</g>
<g transform="scale(0.8380000000000001 1) translate(38.663484486873514 0)">
<g stroke="#000"><path fill="#89bfd3" stroke-width="2" d="M199.8 82c3.4 0 7.2.6 8.8 1.5 1.6.8 2.9 2 2.9 2.5s.2 1.7.5 2.5c.4 1.3-1.3 1.5-12 1.5s-12.4-.2-12-1.5c.3-.8.4-1.9.3-2.5-.1-.5 1.1-1.6 2.7-2.4 1.5-.9 5.4-1.5 8.8-1.6z" class="s0"/><path fill="#7a1319" stroke-width="6" d="M197.8 90.1c13.3-.1 23 .5 34.6 1.9 8.8 1.1 20.8 3 26.6 4.1s15.5 3.3 21.6 5c6 1.6 14.4 4.3 18.7 6 4.2 1.7 10.2 4.5 13.3 6.2 3.1 1.8 7.4 5 9.5 7.2 2.3 2.3 5.3 7.1 7.1 11.3 2 4.7 4 12 5.6 21 1.4 7.5 3.5 17.8 4.7 22.7s3.2 11.7 4.3 15c1.2 3.3 3 11.8 4 19 .9 7.2 1.7 17.9 1.7 24s-.3 11.8-.7 12.7c-.6 1.5-1.1 1.4-4.9-1.1-2.4-1.5-8.9-5.3-14.4-8.4-5.6-3-16.4-8.3-24-11.7-7.7-3.5-20.8-8.6-29.3-11.5-8.4-3-21.8-6.7-29.7-8.4-7.9-1.6-18.6-3.5-23.7-4.1-5.2-.5-15.4-1-22.8-1s-17.6.5-22.8 1c-5.1.6-15.8 2.5-23.7 4.1-7.9 1.7-22 5.7-31.2 8.9s-22.4 8.3-29.2 11.5c-6.9 3.1-17.9 8.6-24.5 12.2s-13.2 7.4-14.6 8.4c-2.3 1.6-2.7 1.7-3.1.4-.3-.8-.5-6.1-.5-11.7 0-5.7.6-15.5 1.3-21.8.8-6.3 1.9-13.5 2.5-16 .7-2.5 2.4-8.3 3.9-13s3.8-14.6 5.1-22 3.1-16.4 4-20 2.7-8.9 4.1-11.9 4.3-7.3 6.5-9.5c2.1-2.3 7.3-6 11.5-8.2 4.2-2.3 10.8-5.3 14.8-6.7s11.5-3.7 16.8-5.1 13.5-3.3 18.2-4.2 15.8-2.7 24.5-3.9c11.2-1.6 21.1-2.3 34.2-2.4z"/><path fill="#7a1319" stroke-width="4" d="M69.6 237.7c-6.6 3.6-13.2 7.4-14.7 8.4-2.2 1.6-2.7 1.7-3.1.4-.2-.8-.4-6.1-.4-11.7-.1-5.7.6-15.5 1.3-21.8s1.9-13.5 2.5-16 2.4-8.3 3.9-13 3.8-14.6 5.1-22c0 0 12 72.1 5.4 75.7zM336.8 162c1.3 7.4 3.6 17.3 5.1 22s3.2 10.5 3.9 13c.6 2.5 1.7 9.7 2.5 16 .7 6.3 1.3 16.1 1.3 21.8 0 5.6-.2 10.9-.5 11.7-.4 1.3-.8 1.2-3.1-.4-1.4-1-8-4.8-14.6-8.4s5.4-75.7 5.4-75.7z"/><path fill="#89bfd3" stroke-width="6" d="M196.2 197c9.2 0 20.8.3 25.9.7 5 .4 13.6 1.5 19.1 2.4 5.6 1 14.4 2.8 19.7 4.1s13.7 3.7 18.7 5.2c5 1.6 14.7 5.1 21.6 7.9 6.8 2.7 17 7.3 22.5 10 5.6 2.8 14.9 7.9 20.6 11.2 5.8 3.4 12.4 7.5 14.6 9.2 3.2 2.4 4.1 3.6 4.1 5.6 0 1.6-.7 3.3-1.9 4.2-1.1.9-3.2 1.6-4.8 1.6-2.1 0-5.1-1.4-10.8-5.1-4.3-2.8-13.3-8-19.9-11.6s-19.3-9.5-28.3-13.1c-8.9-3.7-20.6-8-25.9-9.6-5.2-1.5-13.4-3.7-18.2-4.9-4.7-1.1-14.9-2.9-22.5-4-11.3-1.7-17.1-2-30.7-2s-19.4.3-30.7 2c-7.6 1.1-17.8 2.9-22.5 4-4.8 1.2-13 3.4-18.2 4.9-5.3 1.6-17 5.9-25.9 9.6-9 3.6-21.7 9.5-28.3 13.1s-15.6 8.8-19.9 11.6c-6.3 4.1-8.6 5.1-11.3 5.1-1.8 0-4-.5-4.8-1.2-.8-.6-1.4-2.4-1.4-4 0-2.2.8-3.4 3.8-5.9 2.1-1.8 7.4-5.3 11.7-7.8s12.8-7.2 18.9-10.4 17.6-8.4 25.5-11.7c7.9-3.2 18.7-7.2 24-8.8 5.3-1.7 14.7-4.2 21.1-5.7 6.3-1.5 17.3-3.6 24.4-4.6 10.3-1.5 16.5-2 29.8-2z"/></g>
</g>
</svg>