<svg xmlns="http://www.w3.org/2000/svg" version="1.2" baseProfile="tiny" width="100%" height="100%" viewBox="0 0 400 600" preserveAspectRatio="xMinYMin meet">
<g transform="scale(0.99 1) translate(2.020202020202022 0)">
<path fill="#a67358" stroke="#000" stroke-width="6" d="M10 600s-10-70 50-70c10 0 0-10 60-20 0 0 50-210 80-210s80 210 80 210c60 10 50 20 60 20 60 0 50 70 50 70"/><path d="M71 545s46.9-3 82.1 10M329 545s-46.9-3-82.1 10m77.1-18s5.5-7.5 22-7m-271 7s-5.5-7.5-22-7"/>
</g>
<g transform="scale(0.99 1) translate(2.020202020202022 0)">
<g stroke="#000"><path fill="#89bfd3" stroke-width="6" d="M120 505c0 35 50 25 80 45 30-20 80-10 80-45 30-25 90-15 100-5s10.07 20.41 15 50c5 30 5 20 5 60H0c0-40 0-29.59 5-59.59 4.93-29.59 5-39.38 15-50.41 9.5-10.48 70-20 100 5Z" class="footballPrimary"/><path fill="#7a1319" stroke-width="2" d="M120 505c0 35 50 25 80 45 30-20 80-10 80-45l15-10c5 60-55 45-95 75-40-30-100-15-95-75z" class="collarSecondary"/><path fill="none" stroke-width="6" d="M120 505c0 35 50 25 80 45 30-20 80-10 80-45 30-25 90-15 100-5s10.07 20.41 15 50c5 30 5 20 5 60H0c0-40 0-30 5-60 4.93-29.59 5-38.97 15-50 9.5-10.48 70-20 100 5Z" class="footballStroke"/><path fill="none" stroke-width="2" d="M19.5 570s72.5-2.11 81.5-20m280 20s-71-2.11-80-20" class="shp3"/></g>
</g>
<g transform="translate(33.53553390593274 291.01362954285077) scale(1.08 1.08) translate(-1.589960451412391 -2.5175089227517966) translate(3.2710678118654735 -2.979591836734694)">
<path fill="#a67358" stroke="#000" stroke-width="6" d="M40 14S10-1 5 4s0 30 5 40-5 25 30 20z"/>
</g>
<g transform="translate(323.53553390593277 291.01362954285077) scale(-1.08 1.08) translate(-41.33897173672213 -2.5175089227517966) translate(3.2710678118654735 -2.979591836734694)">
<path fill="#a67358" stroke="#000" stroke-width="6" d="M40 14S10-1 5 4s0 30 5 40-5 25 30 20z"/>
</g>
<g transform="scale(0.9600000000000001 1) translate(8.333333333333316 0)">
<path fill="#a67358" stroke="#000" stroke-width="6" d="M200 100c100 0 150 60 150 200 0 20-5 100-25 130-10 20-45 50-85 55-5 5-15 15-40 15s-35-10-40-15c-35-5-75-35-85-55-20-30-25-110-25-130 0-140 50-200 150-200Z" class="head"/><path fill="rgba(0,0,0,0)" d="M200 410c30 0 50 10 50 10 30 0 90-15 90-120h10c0 20-5 100-25 130-10 20-45 50-85 55-5 5-15 15-40 15s-35-10-40-15c-35-5-75-35-85-55-20-30-25-110-25-130h10c0 105 60 120 90 120 0 0 20-10 50-10" class="faceShave"/><path fill="rgba(0,0,0,0)" d="M60 300H50c0-140 50-200 150-200s150 60 150 200h-10v-10c0-5-10-20-15-25s-5-55-15-65c-40-40-60 0-110 0s-70-40-110 0c-10 10-10 60-15 65s-15 20-15 25z" class="headShave"/>
</g>
<g>
<path fill="none" stroke="#000" stroke-width="2" d="M220 270s-10 0-10-20m-30 20s10 0 10-20" class="eyeline1"/>
</g>
<g transform="scale(0.9600000000000001 1) translate(8.333333333333316 0)">
<path fill="#272421" stroke="#000" d="m200 457.82 10 2.18s0 20 10 20 30-5 30 0c0 20-30 30-50 30s-50-10-50-30c0-5 20 0 30 0s10-20 10-20z" class="shp0"/>
</g>
<g transform="translate(102.5 285) rotate(-3 37.5 25)">
<path d="M10 35 5 20s15-5 30-5 35 10 35 10l-5 10z" style="fill:#f5f3ee"/><path d="M37.93 32.78c-4.53 0-8.2-3.66-8.2-8.2 0-4.53 3.67-8.19 8.2-8.19s8.19 3.66 8.19 8.19c0 4.54-3.66 8.2-8.19 8.2" style="fill:#000"/><path d="M10 35 5 20.72S25 15 35 15s35 10 35 10l-5 10" style="fill:none;stroke:#000;stroke-width:6"/>
</g>
<g transform="translate(222.5 285) rotate(3 37.5 25) scale(-1 1) translate(-75 0)">
<path d="M10 35 5 20s15-5 30-5 35 10 35 10l-5 10z" style="fill:#f5f3ee"/><path d="M37.93 32.78c-4.53 0-8.2-3.66-8.2-8.2 0-4.53 3.67-8.19 8.2-8.19s8.19 3.66 8.19 8.19c0 4.54-3.66 8.2-8.19 8.2" style="fill:#000"/><path d="M10 35 5 20.72S25 15 35 15s35 10 35 10l-5 10" style="fill:none;stroke:#000;stroke-width:6"/>
</g>
<g transform="translate(100.5 257.50129968019115) rotate(-7 39.5 12.498700319808862)">
<path fill="#272421" stroke="#000" d="M79 12.9c0-6.11-7.5-6.11-7.5-6.11-18.75-3.05-41.65 3.28-52.5 9.16C49 12.9 56.5 19 75.25 19c0 0 3.75 0 3.75-6.1Z"/><path d="M0 10h5v5H0z" style="fill:none"/>
</g>
<g transform="translate(220.5 257.50129968019115) rotate(7 39.5 12.498700319808862) scale(-1 1) translate(-79 0)">
<path fill="#272421" stroke="#000" d="M79 12.9c0-6.11-7.5-6.11-7.5-6.11-18.75-3.05-41.65 3.28-52.5 9.16C49 12.9 56.5 19 75.25 19c0 0 3.75 0 3.75-6.1Z"/><path d="M0 10h5v5H0z" style="fill:none"/>
</g>
<g transform="translate(0 5)">
<path d="M170 430s10 10 30 10 30-10 30-10" style="fill:none;stroke:#000;stroke-width:5"/>
</g>
<g transform="translate(149.5 319.5) scale(1.16 1.16) translate(-6.965517241379305 -6.965517241379308)">
<path fill="#a67358" stroke="#000" stroke-width="5" d="M33.39 35.68s-22.8 22.8 0 22.8c11.41 0 2.23 6.84 18.25 6.84s4.56-6.84 15.97-6.84c22.8 0 0-22.8 0-22.8" class="nose"/>
</g>
</svg>