<svg xmlns="http://www.w3.org/2000/svg" version="1.2" baseProfile="tiny" width="100%" height="100%" viewBox="0 0 400 600" preserveAspectRatio="xMinYMin meet">
<g transform="scale(0.99 1) translate(2.0446197512313233 0)">
<path fill="#ddb7a0" stroke="#000" stroke-width="6" d="M20 600s-5-60 40-70c15 0 45-15 90-35l50-195 50 195c45 20 75 35 90 35 45 10 45 70 45 70" class="body"/>
</g>
<g transform="scale(0.99 1) translate(2.020202020202022 0)">
<g stroke="#000"><path fill="#89bfd3" stroke-width="6" d="M120 505c0 20 50 15 80 35 30-20 80-15 80-35 0 0 50-5 80 5 0 0 20 10 30 40s10 60 10 60H0s0-30 10-60 30-40 30-40c30-10 80-5 80-5Z" class="hockeyPrimary"/><path fill="#7a1319" stroke-width="2" d="M120 505c0 20 50 15 80 30 30-15 80-10 80-30l15-1c0 41-40 21-95 56-55-35-95-15-95-56z" class="collarSecondary"/><path fill="none" stroke-width="6" d="M120 505c0 20 50 15 80 35 30-20 80-15 80-35 0 0 50-5 80 5 0 0 20 10 30 40s10 60 10 60H0s0-30 10-60 30-40 30-40c30-10 80-5 80-5Z" class="hockeyStroke"/><path fill="#07364f" stroke-width="2" d="M180 528.21h40l10 17.05L200 564l-30-18.74z" class="shieldAccent"/></g>
</g>
<g transform="translate(32 290.6) scale(0.91 0.91) translate(2.274725274725274 3.4021978021978017) translate(18.7 -3)">
<path fill="#ddb7a0" stroke="#000" stroke-width="6" d="M43 13S23 3 13 3 3 23 3 33s3 20 13 30 27-10 27-10z"/>
</g>
<g transform="translate(322 290.6) scale(-0.91 0.91) translate(-48.27472527472528 3.4021978021978017) translate(18.7 -3)">
<path fill="#ddb7a0" stroke="#000" stroke-width="6" d="M43 13S23 3 13 3 3 23 3 33s3 20 13 30 27-10 27-10z"/>
</g>
<g transform="scale(0.8600000000000001 1) translate(32.55813953488369 0)">
<path fill="#ddb7a0" stroke="#000" stroke-width="6" d="M200 100c100 0 150 60 150 200 0 0-20 105-20 135s-110 65-130 65-130-35-130-65-20-135-20-135c0-140 50-200 150-200Z" class="head"/><path fill="rgba(0,0,0,0)" d="M60 300H50c0-140 50-200 150-200s150 60 150 200h-10v-10c0-5-10-20-15-25s-5-55-15-65c-40-40-60 0-110 0s-70-40-110 0c-10 10-10 60-15 65s-15 20-15 25z" class="headShave"/><path fill="rgba(0,0,0,0)" d="M200 410c30 0 50 10 50 10 30 0 90-15 90-120h10s-20 105-20 135-110 65-130 65-130-35-130-65-20-135-20-135h10c0 105 60 120 90 120 0 0 20-10 50-10" class="faceShave"/>
</g>
<g>
<path fill="none" stroke="#000" stroke-width="2" d="M220 270s-10 0-10-20m-30 20s10 0 10-20" class="eyeline1"/>
</g>
<g transform="translate(102.24084342899988 286.1384650016032) rotate(12 37.759156571000126 23.861534998396785)">
<path d="M5 20s12.08-8.23 35-8.23S70 30 70 30s-7.15 9.92-30.07 9.92S5 20 5 20" style="fill:#f5f3ee"/><path d="M5 20c-2.87-2.87 12.2-9.55 35-11.9C70 5 72.87 27.13 70 30s-7.08-13.73-30-13.73S7.87 22.87 5 20" class="black"/><path d="M39.93 33.04c-6.34 0-11.46-5.12-11.46-11.46 0-6.33 5.12-11.46 11.46-11.46s11.46 5.13 11.46 11.46c0 6.34-5.12 11.46-11.46 11.46" class="black"/>
</g>
<g transform="translate(222.24084342899988 286.1384650016032) rotate(-12 37.759156571000126 23.861534998396785) scale(-1 1) translate(-75.51831314200025 0)">
<path d="M5 20s12.08-8.23 35-8.23S70 30 70 30s-7.15 9.92-30.07 9.92S5 20 5 20" style="fill:#f5f3ee"/><path d="M5 20c-2.87-2.87 12.2-9.55 35-11.9C70 5 72.87 27.13 70 30s-7.08-13.73-30-13.73S7.87 22.87 5 20" class="black"/><path d="M39.93 33.04c-6.34 0-11.46-5.12-11.46-11.46 0-6.33 5.12-11.46 11.46-11.46s11.46 5.13 11.46 11.46c0 6.34-5.12 11.46-11.46 11.46" class="black"/>
</g>
<g transform="translate(101.88888888888889 255.625) rotate(12 38.111111111111114 14.375)">
<path fill="#D7BF91" stroke="#000" d="M71 25c8-8 0-16 0-16S43 1 35 1C25 1 7 5 7 5s-12 8 0 20c16 8 16-4 36-4s24 8 28 4Z"/>
</g>
<g transform="translate(221.88888888888889 255.625) rotate(-12 38.111111111111114 14.375) scale(-1 1) translate(-76.22222222222223 0)">
<path fill="#D7BF91" stroke="#000" d="M71 25c8-8 0-16 0-16S43 1 35 1C25 1 7 5 7 5s-12 8 0 20c16 8 16-4 36-4s24 8 28 4Z"/>
</g>
<g transform="translate(-2.842170943040401e-14 51.52119068455602)">
<path d="M168 384s9-13.77 32-14.03c17.4-.2 32 13.2 32 13.2s-4.29 23.24-32 23.81c-27.29.56-32-22.98-32-22.98" style="opacity:.05;mix-blend-mode:multiply;fill:#501414"/><path d="M181.71 402.12c14.52 5.66 24.72 5.71 37.72-.71m.86-26.53c-14.52-5.66-27.29-6.34-40.29.09m-4 9.03c8-2.17 16 0 24 0s16-2.17 24 0m12-4s0 4-12 4m-60-4s0 4 12 4" style="fill:none;stroke:#000;stroke-width:4"/>
</g>
<g transform="translate(-4.045739644970411 -18.272994788737606) scale(0.52 0.52) translate(188.34991351843422 358.40584134345005)">
<path d="M180.17 380.08c1.6.3 3.5.1 4.8.9 4.7 2.8 9.2 6 13.8 9a10.23 10.23 0 0 0 11.7 0c3.9-2.5 7.8-5.1 11.7-7.6 1.6-1.1 3.3-2.2 5.7-3.8 0 2.1.4 3.4-.1 4.3-2.8 6.4-17.9 16.1-24.8 15-4-.6-8-2.8-11.3-5.3-4.3-3.3-7.8-7.5-11.6-11.4a4.5 4.5 0 0 0 .1-1.1"/>
</g>
<g transform="scale(-1 1) translate(-400 0) scale(0.8600000000000001 1) translate(32.55813953488369 0)">
<path fill="#D7BF91" stroke="#000" stroke-width="4" d="M46.17 300C47.51 160.01 78.5 95.59 219.25 91.8c10 0 14.92.06 20.58 8.73 0 0 9.09-1.93 15.59-.93 82.33 40.7 101.33 87.2 101.33 227.2l-22-30S320 210 310 200l-110-12.14L90 200c-10.01 9.99-5.25 137.8-5.25 137.8l-30 31s-9-25.5-8.58-68.8Z" class="longHair"/><path fill="#D7BF91" d="M240 200c60-20 60 120 140 160-40-60-40-100-40-100s-7.25-100.2-107.25-100.2M73 309s7 51-53 71c120 20 80-240 220-180l11.25-39.2L100 160l-28.75 60" class="bangs"/><path fill="none" stroke="#000" stroke-width="4" d="M240 200c60-20 60 120 140 160-40-60-40-100-40-100M73 309s7 51-53 71c120 20 80-240 220-180" class="bangsLine"/>
</g>
</svg>