<svg xmlns="http://www.w3.org/2000/svg" version="1.2" baseProfile="tiny" width="100%" height="100%" viewBox="0 0 400 600" preserveAspectRatio="xMinYMin meet">
<g transform="scale(0.97 1) translate(6.185567010309284 0)">
<path fill="#74453d" stroke="#000" stroke-width="6" d="M10 600s0-50 60-70 70-50 70-50l60-180 60 180s10 30 70 50 60 70 60 70" class="body"/>
</g>
<g transform="scale(0.97 1) translate(6.2628865979381505 0)">
<g stroke="#000"><path fill="#07364f" stroke-width="3" d="M120 505s35 40 80 40 80-40 80-40v95H120z" class="s0"/><path fill="#7a1319" stroke-width="6" d="M120 504.6c10 45.4 80 55.4 90 65.4s10 40 10 40H-5s5-40 5-50 10-30 40-40 50 0 80-15.4z" class="s0"/><path fill="#7a1319" stroke-width="6" d="M360 520c30 10 40 30 40 40s10 50 10 50H180s0-40 10-50 80-10 90-55c30 15 50 5 80 15z" class="s0"/><path fill="#89bfd3" stroke-width="1.5" d="M196 597c-2.8 0-5-2.2-5-5s2.2-5 5-5 5 2.2 5 5-2.2 5-5 5zm-2-5h1m2 0h1" class="s1"/></g><g fill="none" stroke="#000" stroke-width="6"><path d="M120 504.6c6.9 37.6 62.2 49.3 67.9 57-7.8 11.2-8 48.4-8 48.4H-5s5-40 5-50 10-30 40-40 50 0 80-15.4z" class="s5"/><path d="M360 520c30 10 40 30 40 40s10 50 10 50H180s0-40 10-50 80-10 90-55c30 15 50 5 80 15z" class="s5"/></g>
</g>
<g transform="translate(32 290.6) scale(1.07 1.07) translate(-1.5046728971962628 -2.2504672897196283) translate(6.919999999999998 -3)">
<path fill="#74453d" stroke="#000" stroke-width="6" d="M43 13S23 3 13 3 3 23 3 33s3 20 13 30 27-10 27-10z"/>
</g>
<g transform="translate(322 290.6) scale(-1.07 1.07) translate(-44.49532710280374 -2.2504672897196283) translate(6.919999999999998 -3)">
<path fill="#74453d" stroke="#000" stroke-width="6" d="M43 13S23 3 13 3 3 23 3 33s3 20 13 30 27-10 27-10z"/>
</g>
<g transform="scale(0.936 1) translate(13.675213675213664 0)">
<path fill="#74453d" stroke="#000" stroke-width="6" d="M200 100c100 0 150 60 150 200 0 20-20 120-25 130-4.47 8.94-105 70-105 70h-40s-98.29-56.58-105-70c-5-10-25-110-25-130 0-140 50-200 150-200Z" class="head"/><path fill="rgba(0,0,0,0)" d="M200 410c30 0 50 10 50 10 30 0 90-15 90-120h10c0 20-20 120-25 130-4.47 8.94-105 70-105 70h-40s-98.29-56.58-105-70c-5-10-25-110-25-130h10c0 105 60 120 90 120 0 0 20-10 50-10" class="faceShave"/><path fill="rgba(0,0,0,0)" d="M60 300H50c0-140 50-200 150-200s150 60 150 200h-10v-10c0-5-10-20-15-25s-5-55-15-65c-40-40-60 0-110 0s-70-40-110 0c-10 10-10 60-15 65s-15 20-15 25z" class="headShave"/>
</g>
<g>
<path fill="none" stroke="#000" stroke-width="2" d="M240 340s10 10 25 10m-105-10s-10 10-25 10" class="eyeline3"/>
</g>
<g>
<path fill="none" stroke="#000" stroke-width="2" d="M155 220s35 0 45 5c10-5 45-5 45-5"/>
</g>
<g transform="scale(0.936 1) translate(13.675213675213664 0)">
<path fill="#272421" stroke="#000" d="M200 450c20 0 10 30 20 30s35-5 45-15c20-20 30-30 40-30 0 70-65 80-105 80S95 505 95 435c10 0 20 10 40 30 10 10 35 15 45 15s0-30 20-30Zm-50-25c-5-5 25-20 35-20 5 0 10 5 15 5s10-5 15-5c10 0 40 15 35 20s-5-5-50-5-45 10-50 5Z" class="shp0"/><path fill="#272421" fill-rule="evenodd" stroke="#000" d="M60 300H50s-3.85 100.38 25 110c15 5 35 15 40 10 20-20-5-25-5-25s-50-20-50-95Zm280 0h10s3.85 100.38-25 110c-15 5-35 15-40 10-20-20 5-25 5-25s50-20 50-95Z" class="shp0"/>
</g>
<g transform="translate(-120.29753770446098 -23.177101781228032) rotate(11 260.297537704461 333.17710178122803)">
<path d="M259.01 349.54c-13.866-.398-24.71-6.089-24.71-19.05 10.7-18.063 40.386-18.358 51.25-.275 4.415 12.208-11.607 19.753-26.54 19.325" style="fill:#fff;stroke:#000;stroke-linecap:round;stroke-linejoin:round;stroke-width:5"/><path d="M259.552 325.177c-10 0-10 15 0 15s10-15 0-15" style="fill:#000;stroke:#000;stroke-linecap:round;stroke-linejoin:round;stroke-width:4"/>
</g>
<g transform="translate(-0.2975377044609786 -23.177101781228032) rotate(-11 260.297537704461 333.17710178122803) scale(-1 1) translate(-520.595075408922 0)">
<path d="M259.01 349.54c-13.866-.398-24.71-6.089-24.71-19.05 10.7-18.063 40.386-18.358 51.25-.275 4.415 12.208-11.607 19.753-26.54 19.325" style="fill:#fff;stroke:#000;stroke-linecap:round;stroke-linejoin:round;stroke-width:5"/><path d="M259.552 325.177c-10 0-10 15 0 15s10-15 0-15" style="fill:#000;stroke:#000;stroke-linecap:round;stroke-linejoin:round;stroke-width:4"/>
</g>
<g transform="translate(108.86892922080625 258.70179368409975) rotate(-5 31.131070779193745 11.298206315900256)">
<path fill="#272421" stroke="#000" d="M22.1 6.48c-.96.74-2.71 2.33-3.9 3.5-1.23 1.17-2.47 2.63-2.7 3.13-.23.52-.26.96-.05.96.2 0 3.06-1.05 6.01-1.65 2.72-.11 6.42.27 8.3.66 1.87.43 6.07 1.67 9.35 2.77 3.39 1.08 7.94 2.5 10.06 3.19 2.23.61 5.3 1.02 6.7.99 1.43-.06 3.53-.35 4.62-.61 1.68-.41 1.9-.62 1.72-1.65-.12-.91-.85-1.63-2.76-2.9-1.36-1-4.3-2.66-6.56-3.72-2.26-1.13-6.33-3.1-9.03-4.35-2.71-1.31-7.02-3.02-9.57-3.73-3.6-.81-5.24-.65-7.53.51-1.61.77-3.71 2.09-4.66 2.9Z"/><path d="M0 10h5v5H0z" style="fill:none"/>
</g>
<g transform="translate(228.86892922080625 258.70179368409975) rotate(5 31.131070779193745 11.298206315900256) scale(-1 1) translate(-62.26214155838749 0)">
<path fill="#272421" stroke="#000" d="M22.1 6.48c-.96.74-2.71 2.33-3.9 3.5-1.23 1.17-2.47 2.63-2.7 3.13-.23.52-.26.96-.05.96.2 0 3.06-1.05 6.01-1.65 2.72-.11 6.42.27 8.3.66 1.87.43 6.07 1.67 9.35 2.77 3.39 1.08 7.94 2.5 10.06 3.19 2.23.61 5.3 1.02 6.7.99 1.43-.06 3.53-.35 4.62-.61 1.68-.41 1.9-.62 1.72-1.65-.12-.91-.85-1.63-2.76-2.9-1.36-1-4.3-2.66-6.56-3.72-2.26-1.13-6.33-3.1-9.03-4.35-2.71-1.31-7.02-3.02-9.57-3.73-3.6-.81-5.24-.65-7.53.51-1.61.77-3.71 2.09-4.66 2.9Z"/><path d="M0 10h5v5H0z" style="fill:none"/>
</g>
<g transform="translate(168 428.3888888888889)">
<path d="M32 3c10 0 15 0 25 5 5 5 5 5 0 10s-15 0-25 0-20 5-25 0-5-5 0-10c10-5 15-5 25-5Z" style="fill:#fff;stroke:#000;stroke-width:5"/>
</g>
<g transform="translate(-4.045739644970411 -18.272994788737606) scale(1.04 1.04) translate(-7.847913063268099 -14.933576722643767)">
<path d="M180.17 380.08c1.6.3 3.5.1 4.8.9 4.7 2.8 9.2 6 13.8 9a10.23 10.23 0 0 0 11.7 0c3.9-2.5 7.8-5.1 11.7-7.6 1.6-1.1 3.3-2.2 5.7-3.8 0 2.1.4 3.4-.1 4.3-2.8 6.4-17.9 16.1-24.8 15-4-.6-8-2.8-11.3-5.3-4.3-3.3-7.8-7.5-11.6-11.4a4.5 4.5 0 0 0 .1-1.1"/>
</g>
<g transform="scale(-1 1) translate(-400 0) scale(0.936 1) translate(13.675213675213664 0)">
<path fill="#272421" stroke="#000" stroke-width="4" d="M53.25 329.3S50 313.5 50 300c0-140 50-200 150-200s150 60 150 200c0 12-5.25 40.3-5.25 40.3-5-18.5-11.5-52-11.5-52S330 270 325 265s-5-55-15-65c-40-40-60 0-110 0s-70-40-110 0c-10 10-10 60-15 65s-10.25 19.3-10.25 19.3-7 30.5-11.5 45Z" class="shortBangs"/><path fill="#272421" d="M76 199s-8.25 40.3 12 66c5.75-23.7 16-47 16-47s-2.25 22.3 3 37c13.25-14.7 31-67 31-67s-4 42.59-.25 58.3C143.5 230.59 148 219 148 219s2.25 22.8 6.25 38.3C166.75 240.8 179 180 179 180s-8.25 57.3-1.25 70.8c9-12.5 10.25-38.8 10.25-38.8s12 23.3 15.75 44.8c12-13 16.25-62.8 16.25-62.8s10.3 42.72 21 50c5.3-5.88 0-59 0-59s22.17 58.53 36 67c3.5-12.14-1-35-1-35s12.17 28.86 23.5 38.2c1.67-9.67-7.67-47.34-7.67-47.34s24.67 44.34 28.15 61.25c8.85-20.91 3.19-74.25 3.19-74.25L271 157l-136-3z" class="bangs"/><path fill="none" stroke="#000" stroke-width="4" d="M76 199s-8.25 40.3 12 66c5.75-23.7 16-47 16-47s-2.25 22.3 3 37c13.25-14.7 31-67 31-67s-4 42.59-.25 58.3C143.5 230.59 148 219 148 219s2.25 22.8 6.25 38.3C166.75 240.8 179 180 179 180s-8.25 57.3-1.25 70.8c9-12.5 13.5-40.5 13.5-40.5s8.75 25 12.5 46.5c12-13 16.25-62.8 16.25-62.8s10.3 42.72 21 50c5.3-5.88 0-59 0-59s22.17 58.53 36 67c3.5-12.14-1-35-1-35s12.17 28.86 23.5 38.2c1.67-9.67-7.67-47.34-7.67-47.34s24.67 44.34 28.15 61.25c8.85-20.91 3.19-74.25 3.19-74.25" class="shp2"/>
</g>
</svg>