<svg xmlns="http://www.w3.org/2000/svg" version="1.2" baseProfile="tiny" width="100%" height="100%" viewBox="0 0 400 600" preserveAspectRatio="xMinYMin meet">
<g transform="scale(1.03 1) translate(-5.8252427184466065 0)">
<path fill="#f2d6cb" stroke="#000" stroke-width="6" d="M5 600s-5-60 35-70c0 0 40 0 90-30l70-200 70 200c50 30 90 30 90 30 40 10 35 70 35 70" class="body"/>
</g>
<g transform="scale(1.03 1) translate(-5.825242718446607 0)">
<path fill="#89bfd3" stroke="#000" stroke-width="6" d="M80 610s10-30 10-90l20-10s10 80 90 80 90-80 90-80l20 10c0 60 10 90 10 90z" class="primary"/><path fill="#7a1319" d="M85 575v25h230v-25h-65s-20 15-50 15-50-15-50-15z" class="secondary"/><path fill="none" stroke="#000" stroke-width="16" d="M90 520c0 60-10 90-10 90m230-90c0 60 10 90 10 90M110 510s10 80 90 80 90-80 90-80" class="outline"/><path fill="none" stroke="#89bfd3" stroke-width="12" d="M90 520c0 60-10 90-10 90m230-90c0 60 10 90 10 90M110 510s10 80 90 80 90-80 90-80" class="stripe-primary"/><path fill="none" stroke="#07364f" stroke-width="6" d="M90 520c0 60-10 90-10 90m230-90c0 60 10 90 10 90M110 510s10 80 90 80 90-80 90-80" class="stripe-accent"/>
</g>
<g transform="translate(32 293.3) scale(1.38 1.38) translate(-6.333333333333333 -8.728985507246376) translate(1.0300000000000002 -3)">
<path fill="#f2d6cb" stroke="#000" stroke-width="6" d="M43 8S3-12 3 28c0 45 40 30 40 30z"/>
</g>
<g transform="translate(322 293.3) scale(-1.38 1.38) translate(-39.666666666666664 -8.728985507246376) translate(1.0300000000000002 -3)">
<path fill="#f2d6cb" stroke="#000" stroke-width="6" d="M43 8S3-12 3 28c0 45 40 30 40 30z"/>
</g>
<g transform="scale(0.9740000000000001 1) translate(5.338809034907579 0)">
<path fill="#f2d6cb" stroke="#000" stroke-width="6" d="M200 100c100 0 150 60 150 200 0 150-80 160-110 190-10 10-20 10-40 10s-30 0-40-10c-30-30-110-40-110-190 0-140 50-200 150-200Z" class="head"/><path fill="rgba(0,0,0,0)" d="M60 300H50c0-140 50-200 150-200s150 60 150 200h-10v-10c0-5-10-20-15-25s-5-55-15-65c-40-40-60 0-110 0s-70-40-110 0c-10 10-10 60-15 65s-15 20-15 25z" class="headShave"/><path fill="rgba(0,0,0,0)" d="M200 410c30 0 50 10 50 10 30 0 90-15 90-120h10c0 150-80 160-110 190-10 10-20 10-40 10s-29.88-.12-40-10c-30-29.31-110-40-110-190h10c0 105 60 120 90 120 0 0 20-10 50-10" class="faceShave"/>
</g>
<g>
<path fill="none" stroke="#000" stroke-width="2" d="M240 340s25 10 40 0m-120 0s-25 10-40 0" class="eyeline4"/>
</g>
<g transform="translate(140.5 420.5) scale(1.27 1.27) translate(-2.019685039370079 -3.0826771653543306)">
<path fill="none" stroke="#000" stroke-width="2" d="M17 2 2 12l5 15" class="shp0"/>
</g>
<g transform="translate(240.5 420.5) scale(-1.27 1.27) translate(-16.980314960629922 -3.0826771653543306)">
<path fill="none" stroke="#000" stroke-width="2" d="M17 2 2 12l5 15" class="shp0"/>
</g>
<g transform="scale(0.9740000000000001 1) translate(5.352156057494848 0)">
<path fill="#3D2314" fill-rule="evenodd" stroke="#000" d="M60 300H50s-10 70 10 130c10 20 30 55 90 55 10-10 0-45-10-55s-30 0-60-30c-20-20-20-70-20-100Zm261 100c-30 30-50 20-60 30s-20 45-10 55c60 0 80-35 90-55 20-60 10-130 10-130h-10c0 30 0 80-20 100Z" class="shp0"/><path fill="#3D2314" stroke="#000" d="M200 460c10 0 10 20 20 20s20-20 20-20 10 0 10 5c0 40-10 50-50 50s-50-10-50-50c0-5 10-5 10-5s10 20 20 20 10-20 20-20Z"/>
</g>
<g transform="translate(107.15625 282) rotate(7 32.84375 28)">
<path d="M63 43s-5 10-35 10S3 43 3 43 3 3 33 3s30 40 30 40Z" style="fill:#fff;stroke:#000;stroke-width:5"/><path d="M33 38c-10 0-10-20 0-20s10 20 0 20Z" style="fill:#000;stroke:#000;stroke-width:5"/>
</g>
<g transform="translate(227.15625 282) rotate(-7 32.84375 28) scale(-1 1) translate(-65.6875 0)">
<path d="M63 43s-5 10-35 10S3 43 3 43 3 3 33 3s30 40 30 40Z" style="fill:#fff;stroke:#000;stroke-width:5"/><path d="M33 38c-10 0-10-20 0-20s10 20 0 20Z" style="fill:#000;stroke:#000;stroke-width:5"/>
</g>
<g transform="translate(101.05152592374387 261.3) rotate(8 38.94847407625614 8.7)">
<path fill="#3D2314" stroke="#000" d="M73 13c4.85-1.21 0-10-10-10S3 8 3 8s50 10 70 5Z"/>
</g>
<g transform="translate(221.05152592374387 261.3) rotate(-8 38.94847407625614 8.7) scale(-1 1) translate(-77.89694815251228 0)">
<path fill="#3D2314" stroke="#000" d="M73 13c4.85-1.21 0-10-10-10S3 8 3 8s50 10 70 5Z"/>
</g>
<g transform="translate(169 428) scale(-1 1) translate(-62 0)">
<path d="m1 22 60-10L51 2" style="fill:none;stroke:#000;stroke-width:5"/>
</g>
<g transform="translate(150.27785841680208 317.5) scale(1.01 1.01) translate(-0.4922984315168114 -0.5198019801980203)">
<path fill="#f2d6cb" stroke="#000" stroke-width="5" d="M36.03 47c-19.25.25-26.57 32.37-4.37 27.13 9-2.13 8.25 4.12 18.12 4.37 9.5.24 5.75-6.12 16.38-3.25 22.01 5.96 18.75-28-.21-28.02M50 55.6S51.25 45 51.25 35 50 5 50 5" class="nose"/><path d="M40 95h20v5H40z" style="fill:none"/>
</g>
<g transform="scale(-1 1) translate(-400 0) scale(0.9740000000000001 1) translate(5.338809034907579 0)">
<defs><linearGradient id="a" x1="200" x2="200" y1="100" y2="310" gradientUnits="userSpaceOnUse"><stop offset="0" stop-color="rgba(0,0,0,.25)"/><stop offset="1" stop-color="rgba(0,0,0,0)"/></linearGradient></defs><g style="opacity:1;stroke-width:1;stroke-miterlimit:4;stroke-dasharray:none"><path d="M60 310H50v-10c0-140 50-200 150-200s150 60 150 200v10h-10v-20c0-5-10-20-15-25s-5-55-15-65c-40-40-56.429-38.095-106.429-38.095S130 160 90 200c-10 10-10 60-15 65s-15 20-15 25z" style="fill:url(#a);stroke:none;stroke-width:1;stroke-miterlimit:4;stroke-dasharray:none"/></g><path fill="#3D2314" stroke="#000" stroke-width="4" d="M200 95c120 0 140 90 140 115-20 0-20 5-25 0s-14.444-11.112-49.444-11.112c-15 0-39.96-.317-64.96-.317s-50.04.317-65.04.317C100.556 198.888 90 205 85 210s-5 0-25 0c0-25 25-115 140-115Z"/>
</g>
</svg>