<svg xmlns="http://www.w3.org/2000/svg" version="1.2" baseProfile="tiny" width="100%" height="100%" viewBox="0 0 400 600" preserveAspectRatio="xMinYMin meet">
<g transform="scale(0.96 1) translate(8.333333333333341 0)">
<path fill="#ddb7a0" stroke="#000" stroke-width="6" d="M10 600s-10-70 50-70c10 0 0-10 60-20 0 0 50-210 80-210s80 210 80 210c60 10 50 20 60 20 60 0 50 70 50 70"/><path d="M71 545s46.9-3 82.1 10M329 545s-46.9-3-82.1 10m77.1-18s5.5-7.5 22-7m-271 7s-5.5-7.5-22-7"/>
</g>
<g transform="scale(0.96 1) translate(8.333333333333341 0)">
<g stroke="#000"><path fill="#89bfd3" stroke-width="6" d="M120 505c0 35 50 25 80 45 30-20 80-10 80-45 30-25 90-15 100-5s10.07 20.41 15 50c5 30 5 20 5 60H0c0-40 0-29.59 5-59.59 4.93-29.59 5-39.38 15-50.41 9.5-10.48 70-20 100 5Z" class="footballPrimary"/><path fill="#7a1319" stroke-width="2" d="M120 505c0 35 50 25 80 45 30-20 80-10 80-45l15-10c5 60-55 45-95 75-40-30-100-15-95-75z" class="collarSecondary"/><path fill="none" stroke-width="6" d="M120 505c0 35 50 25 80 45 30-20 80-10 80-45 30-25 90-15 100-5s10.07 20.41 15 50c5 30 5 20 5 60H0c0-40 0-30 5-60 4.93-29.59 5-38.97 15-50 9.5-10.48 70-20 100 5Z" class="footballStroke"/><path fill="none" stroke-width="2" d="M19.5 570s72.5-2.11 81.5-20m280 20s-71-2.11-80-20" class="shp3"/></g>
</g>
<g transform="translate(33.53553390593274 291.01362954285077) scale(0.86 0.86) translate(3.494215410662113 5.532664958140573) translate(-0.7589321881345263 -2.979591836734694)">
<path fill="#ddb7a0" stroke="#000" stroke-width="6" d="M40 14S10-1 5 4s0 30 5 40-5 25 30 20z"/>
</g>
<g transform="translate(323.53553390593277 291.01362954285077) scale(-0.86 0.86) translate(-46.42314759879663 5.532664958140573) translate(-0.7589321881345263 -2.979591836734694)">
<path fill="#ddb7a0" stroke="#000" stroke-width="6" d="M40 14S10-1 5 4s0 30 5 40-5 25 30 20z"/>
</g>
<g transform="scale(0.9860000000000001 1) translate(2.839756592292069 0)">
<path fill="#ddb7a0" stroke="#000" stroke-width="6" d="M200 100c100 0 150 60 150 200 0 0-20 105-20 135s-60 45-80 55-10 15-50 5c-40 10-30 5-50-5s-80-25-80-55-20-135-20-135c0-140 50-200 150-200Z" class="head"/><path fill="rgba(0,0,0,0)" d="M60 300H50c0-140 50-200 150-200s150 60 150 200h-10v-10c0-5-10-20-15-25s-5-55-15-65c-40-40-60 0-110 0s-70-40-110 0c-10 10-10 60-15 65s-15 20-15 25z" class="headShave"/><path fill="rgba(0,0,0,0)" d="M200 410c30 0 50 10 50 10 30 0 90-15 90-120h10s-20 105-20 135-60 45-80 55-10 15-50 5c-40 10-30 5-50-5s-80-25-80-55-20-135-20-135h10c0 105 60 120 90 120 0 0 20-10 50-10" class="faceShave"/>
</g>
<g>
<path fill="none" stroke="#000" stroke-width="2" d="M240 355s20-10 45 0m-125 0s-20-10-45 0" class="eyeline5"/>
</g>
<g transform="translate(144.4807306749833 416) scale(1.78 1.78) translate(-2.4185562210747373 -8.325842696629213)">
<path fill="none" stroke="#000" stroke-width="2" d="M9 2s-12.5 8.95-4 34" class="shp0"/>
</g>
<g transform="translate(244.4807306749833 416) scale(-1.78 1.78) translate(-8.61998242895868 -8.325842696629213)">
<path fill="none" stroke="#000" stroke-width="2" d="M9 2s-12.5 8.95-4 34" class="shp0"/>
</g>
<g>
<path d="M144 363c-1.66 0-3-1.34-3-3s1.34-3 3-3 3 1.34 3 3-1.34 3-3 3m-15-1c-1.11 0-2-.89-2-2s.89-2 2-2 2 .89 2 2-.89 2-2 2m-15 1c-1.66 0-3-1.34-3-3s1.34-3 3-3 3 1.34 3 3-1.34 3-3 3m-15-1c-1.11 0-2-.89-2-2s.89-2 2-2 2 .89 2 2-.89 2-2 2m5 11c-1.66 0-3-1.34-3-3s1.34-3 3-3 3 1.34 3 3-1.34 3-3 3m10-1c-1.11 0-2-.89-2-2s.89-2 2-2 2 .89 2 2-.89 2-2 2m10 1c-1.66 0-3-1.34-3-3s1.34-3 3-3 3 1.34 3 3-1.34 3-3 3m10-1c-1.11 0-2-.89-2-2s.89-2 2-2 2 .89 2 2-.89 2-2 2m10 11c-1.66 0-3-1.34-3-3s1.34-3 3-3 3 1.34 3 3-1.34 3-3 3m-15-1c-1.11 0-2-.89-2-2s.89-2 2-2 2 .89 2 2-.89 2-2 2m-10 0c-1.11 0-2-.89-2-2s.89-2 2-2 2 .89 2 2-.89 2-2 2m-10 1c-1.66 0-3-1.34-3-3s1.34-3 3-3 3 1.34 3 3-1.34 3-3 3m-10-1c-1.11 0-2-.89-2-2s.89-2 2-2 2 .89 2 2-.89 2-2 2m45-10c-1.11 0-2-.89-2-2s.89-2 2-2 2 .89 2 2-.89 2-2 2m-50 0c-1.11 0-2-.89-2-2s.89-2 2-2 2 .89 2 2-.89 2-2 2m60 5c-1.11 0-2-.89-2-2s.89-2 2-2 2 .89 2 2-.89 2-2 2m0-10c-1.11 0-2-.89-2-2s.89-2 2-2 2 .89 2 2-.89 2-2 2m-48-15c-1.11 0-2-.89-2-2s.89-2 2-2 2 .89 2 2-.89 2-2 2m15 2c-2.21 0-4-1.79-4-4s1.79-4 4-4 4 1.79 4 4-1.79 4-4 4m15-2c-1.11 0-2-.89-2-2s.89-2 2-2 2 .89 2 2-.89 2-2 2m-15 41c-1.66 0-3-1.34-3-3s1.34-3 3-3 3 1.34 3 3-1.34 3-3 3m15-1c-1.11 0-2-.89-2-2s.89-2 2-2 2 .89 2 2-.89 2-2 2m-30 0c-1.11 0-2-.89-2-2s.89-2 2-2 2 .89 2 2-.89 2-2 2m150-29c-1.66 0-3-1.34-3-3s1.34-3 3-3 3 1.34 3 3-1.34 3-3 3m15-1c-1.11 0-2-.89-2-2s.89-2 2-2 2 .89 2 2-.89 2-2 2m15 1c-1.66 0-3-1.34-3-3s1.34-3 3-3 3 1.34 3 3-1.34 3-3 3m15-1c-1.11 0-2-.89-2-2s.89-2 2-2 2 .89 2 2-.89 2-2 2m-5 11c-1.66 0-3-1.34-3-3s1.34-3 3-3 3 1.34 3 3-1.34 3-3 3m-10-1c-1.11 0-2-.89-2-2s.89-2 2-2 2 .89 2 2-.89 2-2 2m-10 1c-1.66 0-3-1.34-3-3s1.34-3 3-3 3 1.34 3 3-1.34 3-3 3m-10-1c-1.11 0-2-.89-2-2s.89-2 2-2 2 .89 2 2-.89 2-2 2m-10 11c-1.66 0-3-1.34-3-3s1.34-3 3-3 3 1.34 3 3-1.34 3-3 3m15-1c-1.11 0-2-.89-2-2s.89-2 2-2 2 .89 2 2-.89 2-2 2m10 0c-1.11 0-2-.89-2-2s.89-2 2-2 2 .89 2 2-.89 2-2 2m10 1c-1.66 0-3-1.34-3-3s1.34-3 3-3 3 1.34 3 3-1.34 3-3 3m10-1c-1.11 0-2-.89-2-2s.89-2 2-2 2 .89 2 2-.89 2-2 2m-45-10c-1.11 0-2-.89-2-2s.89-2 2-2 2 .89 2 2-.89 2-2 2m50 0c-1.11 0-2-.89-2-2s.89-2 2-2 2 .89 2 2-.89 2-2 2m-60 5c-1.11 0-2-.89-2-2s.89-2 2-2 2 .89 2 2-.89 2-2 2m0-10c-1.11 0-2-.89-2-2s.89-2 2-2 2 .89 2 2-.89 2-2 2m48-15c-1.11 0-2-.89-2-2s.89-2 2-2 2 .89 2 2-.89 2-2 2m-15 2c-2.21 0-4-1.79-4-4s1.79-4 4-4 4 1.79 4 4-1.79 4-4 4m-15-2c-1.11 0-2-.89-2-2s.89-2 2-2 2 .89 2 2-.89 2-2 2m15 41c-1.66 0-3-1.34-3-3s1.34-3 3-3 3 1.34 3 3-1.34 3-3 3m-15-1c-1.11 0-2-.89-2-2s.89-2 2-2 2 .89 2 2-.89 2-2 2m30 0c-1.11 0-2-.89-2-2s.89-2 2-2 2 .89 2 2-.89 2-2 2" style="opacity:.251;mix-blend-mode:multiply;fill:#8b6135"/>
</g>
<g transform="translate(101 299.4999966529182) rotate(-5 39 10.500003347081822)">
<path d="M74 18 69 3H4l5 15z" style="fill:#fff;stroke:#000;stroke-width:5"/><path d="M38.5 18a7.49 7.49 0 0 1-7.5-7.5C31 6.35 34.35 3 38.5 3S46 6.35 46 10.5 42.65 18 38.5 18Z" style="fill:#000;stroke:#000;stroke-width:5"/>
</g>
<g transform="translate(221 299.4999966529182) rotate(5 39 10.500003347081822) scale(-1 1) translate(-78 0)">
<path d="M74 18 69 3H4l5 15z" style="fill:#fff;stroke:#000;stroke-width:5"/><path d="M38.5 18a7.49 7.49 0 0 1-7.5-7.5C31 6.35 34.35 3 38.5 3S46 6.35 46 10.5 42.65 18 38.5 18Z" style="fill:#000;stroke:#000;stroke-width:5"/>
</g>
<g transform="translate(101.2222222222222 258.59183673469386) rotate(-13 38.77777777777779 11.408163265306122)">
<path fill="#272421" stroke="#000" d="M73 21c8-8 0-16 0-16S45 1 37 1C27 1 1 17 1 17s20-4 40-4c12 0 28 12 32 8Z"/>
</g>
<g transform="translate(221.2222222222222 258.59183673469386) rotate(13 38.77777777777779 11.408163265306122) scale(-1 1) translate(-77.55555555555559 0)">
<path fill="#272421" stroke="#000" d="M73 21c8-8 0-16 0-16S45 1 37 1C27 1 1 17 1 17s20-4 40-4c12 0 28 12 32 8Z"/>
</g>
<g transform="translate(-2.842170943040401e-14 51.52119068455602) scale(-1 1) translate(-400.00000000000006 0)">
<path d="M168 384s9-13.77 32-14.03c17.4-.2 32 13.2 32 13.2s-4.29 23.24-32 23.81c-27.29.56-32-22.98-32-22.98" style="opacity:.05;mix-blend-mode:multiply;fill:#501414"/><path d="M181.71 402.12c14.52 5.66 24.72 5.71 37.72-.71m.86-26.53c-14.52-5.66-27.29-6.34-40.29.09m-4 9.03c8-2.17 16 0 24 0s16-2.17 24 0m12-4s0 4-12 4m-60-4s0 4 12 4" style="fill:none;stroke:#000;stroke-width:4"/>
</g>
<g transform="translate(199 344) scale(0.57 0.57) translate(8.298245614035089 19.6140350877193)">
<path fill="#ddb7a0" stroke="#000" stroke-width="5" d="M11 1S6 31 21 41L1 51" class="nose"/>
</g>
<g transform="scale(-1 1) translate(-400.99909047348575 0) scale(0.9860000000000001 1) translate(2.846849526688012 0)">
<defs><linearGradient id="a" x1="200" x2="200" y1="100" y2="310" gradientUnits="userSpaceOnUse"><stop offset="0" stop-color="rgba(0,0,0,.25)"/><stop offset="1" stop-color="rgba(0,0,0,0)"/></linearGradient></defs><path d="M60 310H50v-10c0-140 50-200 150-200s150 60 150 200v10h-10v-20c0-5-10-20-15-25s-5-55-15-65c-40-40-60 0-110 0s-70-40-110 0c-10 10-10 60-15 65s-15 20-15 25z" style="fill:url(#a);stroke:none"/><path fill="#272421" stroke="#000" stroke-width="4" d="M177 76.08c-1.37 1.1-3.4 1.99-4.49 1.96-1.1-.02-2.11.41-2.25.96s-2.29 1-4.76 1c-3 0-4.56.45-4.69 1.34-.1.74-1.23 1.86-2.5 2.5S154.39 85 152.43 85s-3.76.45-4 1c-.26.61-1.32.43-2.68-.46-1.81-1.17-3.57-1.27-9-.5-3.71.53-7.93 1.52-9.36 2.21-2.27 1.08-2.55 1.71-2.09 4.75.29 1.92.22 4-.14 4.62-.36.61-2.69 1.06-5.16 1-3.97-.11-4.53.15-4.75 2.13-.2 1.77-.73 2.15-2.5 1.76-1.24-.26-3.04-.49-4-.5-.96 0-1.97-.91-2.25-2.01s-1.17-2-2-2-1.82 1.01-2.2 2.25c-.39 1.24-.72 2.55-.75 2.92-.03.36-.4 1.04-.83 1.5s-.77 1.73-.76 2.83-.54 3.49-1.22 5.31c-1 2.67-2 3.49-5.24 4.25-2.2.52-4.99 1.73-6.21 2.69-1.21.96-2.23 2.54-2.25 3.5s-1.5 2.91-3.29 4.33c-2.23 1.77-3.96 2.4-5.5 2-1.75-.45-3.26.43-6.75 3.92-2.47 2.47-4.5 5.18-4.5 6s.56 1.65 1.25 1.84c.98.26.95.86-.12 2.75-.76 1.32-1.09 2.97-.75 3.66.36.73-1.67 3.42-4.92 6.5-4.21 4-6.18 6.89-8.25 12.11-1.49 3.78-3.29 7.38-4 8-.72.63-1.27 1.59-1.24 2.14s.95 2.91 2.04 5.25c1.69 3.61 1.78 4.44.6 5.5-.77.69-1.56 2.77-1.75 4.63-.29 2.75.16 3.78 2.41 5.5 1.53 1.17 2.76 2.57 2.73 3.12-.02.55.68 1.9 1.56 3 .87 1.1 1.3 1.32.94.5s.3-.37 1.47 1c1.16 1.38 2.1 3.29 2.07 4.25-.03 1.39.83 1.76 4.21 1.79 2.34.02 7.49.58 11.46 1.25l7.21 1.21c8.2-6.82 12.83-9.84 15.58-11.11s8.38-3.03 12.5-3.9c4.13-.88 12-1.86 17.5-2.17 7.07-.4 16.29.11 31.5 1.75 14.91 1.6 27.47 2.31 41 2.31s26.08-.71 41-2.32c15.87-1.7 24.25-2.15 32-1.69 5.77.35 13.65 1.31 17.5 2.15 3.85.83 9.25 2.57 12 3.85s7.48 4.36 10.5 6.85c3.33 2.74 6.29 4.41 7.5 4.22 1.1-.16 4.48-.79 7.5-1.38 3.02-.6 6.96-1.08 8.75-1.07 2.04.01 4.55-1.01 6.75-2.74 1.92-1.51 3.5-3.31 3.5-4s1.35-1.93 3-2.75c2.73-1.36 2.95-1.84 2.44-5.25-.31-2.06-1.21-4.31-2-5-1.24-1.07-1.09-1.92 1.09-6 1.39-2.61 2.52-5.2 2.5-5.75-.01-.55-.81-1.49-1.78-2.1-.96-.6-2.4-3.52-3.19-6.5-.93-3.51-3.01-7.32-5.94-10.9-2.48-3.03-5.16-5.95-5.96-6.5-.92-.63-1.21-1.75-.8-3 .43-1.28.03-2.65-1.1-3.81-1.54-1.58-1.59-2.08-.37-4 1.29-2.04 1.07-2.48-3.25-6.44-2.91-2.66-5.48-4.19-6.89-4.08-1.24.09-3.7-.47-5.47-1.25-1.98-.87-3.45-2.38-3.83-3.92-.33-1.37-1.36-3.3-2.28-4.28-1.01-1.08-3.05-1.76-5.17-1.73-2.77.04-3.97-.58-5.75-2.97-1.44-1.93-2.52-5.27-3-9.27l-.75-6.25c-5.23 0-6.92.56-7.13 1.25-.2.69-1.49 1.25-2.87 1.25-1.37 0-2.65.56-2.84 1.25s-1.09-.21-2-2c-1.56-3.05-1.93-3.22-5.91-2.77-2.76.32-4.51.06-4.98-.75-.41-.67-.75-2.58-.77-4.23s-.36-3.53-.77-4.17c-.4-.65-1.97-1.66-3.48-2.25-1.51-.6-5.79-1.55-9.5-2.13-5.75-.89-6.94-.82-8 .5-1.13 1.4-1.47 1.4-3.5.01-1.24-.84-3.6-1.45-5.25-1.35-1.65.11-4.01.12-5.25.04-1.27-.08-2.25-.81-2.25-1.65 0-.83-.79-1.74-1.75-2.03-.96-.28-2.55-.17-3.54.25-.98.43-1.99 1.34-2.25 2.03-.25.69-1.14 1.25-1.96 1.25s-2.51-1.23-3.75-2.73-2.98-4.09-3.87-5.75-2.35-3.13-3.25-3.27c-.89-.14-3.43 1.1-5.63 2.75l-4 3c-5.03-3.68-7.6-4.5-10.08-4.5-2.15 0-3.92-.34-3.92-.75s-2.36-.74-5.25-.72c-3.72.03-5.98.62-7.75 2.05Z"/>
</g>
</svg>