<svg xmlns="http://www.w3.org/2000/svg" version="1.2" baseProfile="tiny" width="100%" height="100%" viewBox="0 0 400 600" preserveAspectRatio="xMinYMin meet">
<g transform="scale(0.98 1) translate(4.130966436161245 0)">
<path fill="#ddb7a0" stroke="#000" stroke-width="6" d="M20 600s-5-60 40-70c15 0 45-15 90-35l50-195 50 195c45 20 75 35 90 35 45 10 45 70 45 70" class="body"/>
</g>
<g transform="scale(0.98 1) translate(4.132653061224493 0)">
<g stroke="#000"><path fill="#07364f" stroke-width="3" d="M120 505s35 40 80 40 80-40 80-40v95H120z" class="s0"/><path fill="#89bfd3" stroke-width="6" d="M120 504.6c10 45.4 80 55.4 90 65.4s10 40 10 40H-5s5-40 5-50 10-30 40-40 50 0 80-15.4z" class="s0"/><path fill="#89bfd3" stroke-width="6" d="M360 520c30 10 40 30 40 40s10 50 10 50H180s0-40 10-50 80-10 90-55c30 15 50 5 80 15z" class="s0"/><path fill="#07364f" stroke-width="1.5" d="M196 597c-2.8 0-5-2.2-5-5s2.2-5 5-5 5 2.2 5 5-2.2 5-5 5zm-2-5h1m2 0h1" class="s1"/></g><path fill="none" stroke="#7a1319" stroke-width="5" d="M10 540v70m20-86v86m20-93v93m20-95v95m20-96v96m20-100v100m20-83v83m20-66v66m20-57v57m220-70v70m-20-86v86m-20-93v93m-20-95v95m-20-96v96m-20-101v101m-20-86v87m-20-72v71m-20-63v62m-20-57v57" class="s2"/><g fill="none" stroke="#000" stroke-width="6"><path d="M120 504.6c6.9 37.6 62.2 49.3 67.9 57-7.8 11.2-8 48.4-8 48.4H-5s5-40 5-50 10-30 40-40 50 0 80-15.4z" class="s5"/><path d="M360 520c30 10 40 30 40 40s10 50 10 50H180s0-40 10-50 80-10 90-55c30 15 50 5 80 15z" class="s5"/></g>
</g>
<g transform="translate(32 293.3) scale(0.74 0.74) translate(8.081081081081082 11.13783783783784) translate(27.38 -3)">
<path fill="#ddb7a0" stroke="#000" stroke-width="6" d="M43 8S3-12 3 28c0 45 40 30 40 30z"/>
</g>
<g transform="translate(322 293.3) scale(-0.74 0.74) translate(-54.08108108108109 11.13783783783784) translate(27.38 -3)">
<path fill="#ddb7a0" stroke="#000" stroke-width="6" d="M43 8S3-12 3 28c0 45 40 30 40 30z"/>
</g>
<g transform="scale(0.804 1) translate(48.75621890547262 0)">
<path fill="#ddb7a0" stroke="#000" stroke-width="6" d="M200 100c100 0 150 60 150 200-20 180-10 140-90 180-30 10-40 20-60 20s-30-10-60-20c-80-40-70 0-90-180 0-140 50-200 150-200Z" class="head"/><path fill="rgba(0,0,0,0.14)" d="M60 300H50c0-140 50-200 150-200s150 60 150 200h-10v-10c0-5-10-20-15-25s-5-55-15-65c-40-40-60 0-110 0s-70-40-110 0c-10 10-10 60-15 65s-15 20-15 25z" class="headShave"/><path fill="rgba(0,0,0,0.14)" d="M200 410c30 0 50 10 50 10 30 0 90-15 90-120h10c-20 180.69-10 140-90 180-30 10-40 20-60 20s-30-10-60-20c-80-40-70 0-90-180h10c0 105 60 120 90 120 0 0 20-10 50-10" class="faceShave"/>
</g>
<g>
<path fill="none" stroke="#000" stroke-width="2" d="M300 320s5 5 10 5m-13.25-2.47S300 335 305 335m-205-15s-5 5-10 5m13.25-2.47S100 335 95 335" class="eyeline2"/>
</g>
<g transform="translate(140.5 420.5) scale(1.56 1.56) translate(-3.41025641025641 -5.205128205128205)">
<path fill="none" stroke="#000" stroke-width="2" d="M17 2 2 12l5 15" class="shp0"/>
</g>
<g transform="translate(240.5 420.5) scale(-1.56 1.56) translate(-15.58974358974359 -5.205128205128205)">
<path fill="none" stroke="#000" stroke-width="2" d="M17 2 2 12l5 15" class="shp0"/>
</g>
<g>
<path fill="none" stroke="#000" stroke-width="2" d="M155 220s35 0 45 5c10-5 45-5 45-5"/>
</g>
<g transform="translate(109.23478204917245 289.9689533323849) rotate(2 30.765217950827548 20.031046667615087)">
<path d="M55.37 34.72S58.4 2.3 28.53 5.07C-1.35 7.83 7.21 35.16 7.21 35.16" style="fill:#fff;stroke:#000;stroke-width:5"/><path d="M30.74 28.97c-3.31.3-6.22-2.12-6.53-5.43a5.985 5.985 0 0 1 5.42-6.52 5.987 5.987 0 0 1 6.53 5.42c.3 3.3-2.12 6.22-5.42 6.53Z" style="fill:#000;stroke:#000;stroke-width:5"/>
</g>
<g transform="translate(229.23478204917245 289.9689533323849) rotate(-2 30.765217950827548 20.031046667615087) scale(-1 1) translate(-61.530435901655096 0)">
<path d="M55.37 34.72S58.4 2.3 28.53 5.07C-1.35 7.83 7.21 35.16 7.21 35.16" style="fill:#fff;stroke:#000;stroke-width:5"/><path d="M30.74 28.97c-3.31.3-6.22-2.12-6.53-5.43a5.985 5.985 0 0 1 5.42-6.52 5.987 5.987 0 0 1 6.53 5.42c.3 3.3-2.12 6.22-5.42 6.53Z" style="fill:#000;stroke:#000;stroke-width:5"/>
</g>
<g transform="translate(97.20374849998123 257.1494303002541) rotate(2 42.79625150001876 12.850569699745927)">
<path fill="#e9c67b" stroke="#000" d="M12.93 8.33C11.42 9.56 8.75 12.57 6.99 15s-3.38 5.16-3.61 6.06c-.22.91-.16 1.77.13 1.92.3.14 4.44-.51 9.21-1.46s11.58-1.96 15.13-2.23c3.55-.28 11.63-.52 17.94-.53 6.32-.02 14.56.22 18.32.53 3.75.31 8.39.47 10.29.36 1.91-.11 4.56-.5 5.89-.87 2.09-.59 2.33-.97 1.84-2.91-.42-1.66-1.74-2.85-5.18-4.66-2.54-1.34-7.86-3.18-11.83-4.09-3.97-.92-10.99-2.21-15.6-2.87-4.62-.66-11.91-1.33-16.22-1.49-6.13-.21-8.91.12-12.73 1.52-2.69.99-6.13 2.81-7.64 4.05Z"/>
</g>
<g transform="translate(217.20374849998123 257.1494303002541) rotate(-2 42.79625150001876 12.850569699745927) scale(-1 1) translate(-85.59250300003752 0)">
<path fill="#e9c67b" stroke="#000" d="M12.93 8.33C11.42 9.56 8.75 12.57 6.99 15s-3.38 5.16-3.61 6.06c-.22.91-.16 1.77.13 1.92.3.14 4.44-.51 9.21-1.46s11.58-1.96 15.13-2.23c3.55-.28 11.63-.52 17.94-.53 6.32-.02 14.56.22 18.32.53 3.75.31 8.39.47 10.29.36 1.91-.11 4.56-.5 5.89-.87 2.09-.59 2.33-.97 1.84-2.91-.42-1.66-1.74-2.85-5.18-4.66-2.54-1.34-7.86-3.18-11.83-4.09-3.97-.92-10.99-2.21-15.6-2.87-4.62-.66-11.91-1.33-16.22-1.49-6.13-.21-8.91.12-12.73 1.52-2.69.99-6.13 2.81-7.64 4.05Z"/>
</g>
<g transform="translate(0 5)">
<path d="m170 440 10-10h40l10 10" style="fill:none;stroke:#000;stroke-width:5"/>
</g>
<g transform="translate(0 12.5) scale(0.61 0.61) translate(127.8688524590164 228.56557377049182)">
<path fill="#ddb7a0" stroke="#000" stroke-width="5" d="M180 380s10-5 20-5 20 5 20 5m-20-5v-40" class="nose"/>
</g>
<g transform="scale(0.804 1) translate(47.65310945273632 0)">
<path fill="#e9c67b" stroke="#000" stroke-width="4" d="M37.17 332.53c6.66-10.67 10.33-36.33 10.33-36.33s-11.67 7.13-22.67 9.66c10-13.33 22.92-52.06 22.92-52.06s-10.25 8.06-20.92 7.73c30.34-49.67 10.75-84.26 65.34-123 0 0-13.09-2.26-25.67-10.33 37.88-2.4 64.75-46.9 129.25-38.4 0 0-5.5-10.5-27-21.5 69.5-1 86.5 36.5 86.5 36.5s16.5-7.5 25 14c64.5 9.5 58.5 97 83 140-8.88-1.4-16.5-7.5-16.5-7.5s3.87 27.1 19.37 50.6c-9.5-2.75-21.29-10.04-21.29-10.04s8.29 22.29 11.55 28.79C344.12 315.9 333.75 300 333.75 300s-5.58 24.86-22 41.8c9.75-25.94 8.5-58 8.5-58l-15-31L310 200c-40-40-70.25-1.7-132.25-2.7-81.53-1.32-100 86.5-100 86.5s.08 21.73 7.75 56.73c-17-11.67-24.33-48.33-24.33-43.33s-12.67 31-24 35.33Z" class="shaggy"/><path d="M114 190s32.25-4.8 76-55m-43 43s56.75 2.7 103-36m-110-3s38.75-54.3 93-34" style="fill:none;stroke:#000;stroke-width:5"/>
</g>
</svg>