<svg xmlns="http://www.w3.org/2000/svg" version="1.2" baseProfile="tiny" width="100%" height="100%" viewBox="0 0 400 600" preserveAspectRatio="xMinYMin meet">
<g transform="scale(1.03 1) translate(-5.8252427184466065 0)">
<path fill="#a67358" stroke="#000" stroke-width="6" d="M5 600s-5-60 35-70c0 0 40 0 90-30l70-200 70 200c50 30 90 30 90 30 40 10 35 70 35 70" class="body"/>
</g>
<g transform="scale(1.03 1) translate(-5.89805825242719 0)">
<g stroke="#000"><path fill="#07364f" stroke-width="3" d="M120 505s35 40 80 40 80-40 80-40v95H120z" class="s0"/><path fill="#89bfd3" stroke-width="6" d="M120 504.6c10 45.4 80 55.4 90 65.4s10 40 10 40H-5s5-40 5-50 10-30 40-40 50 0 80-15.4z" class="s0"/><path fill="#89bfd3" stroke-width="6" d="M360 520c30 10 40 30 40 40s10 50 10 50H180s0-40 10-50 80-10 90-55c30 15 50 5 80 15z" class="s0"/><path fill="#89bfd3" stroke-width="1.5" d="M196 597c-2.8 0-5-2.2-5-5s2.2-5 5-5 5 2.2 5 5-2.2 5-5 5zm-2-5h1m2 0h1" class="s1"/></g><path stroke="#000" d="M293.8 513c.6 0 1.2.6 1.2 1.2 0 .7-1.5 4.4-3.4 8.3-1.9 3.8-5.4 9-7.8 11.3-2.4 2.4-7 5.9-10.3 7.7-3.3 1.9-10.3 5.3-15.5 7.5-5.2 2.3-13.8 5.8-19 7.7-5.2 2-11.3 4.8-13.5 6.3s-5.7 4.7-7.8 7.1c-2.2 2.5-4.4 6.5-5.2 9.4-.8 2.7-1.8 10.1-2.2 16.3-.5 6.7-1.2 11.1-1.8 10.9-.6-.3-.9-4.8-.7-11.8.2-7.2.9-13.4 2-16.9 1.2-3.8 3.2-7.2 6.8-11 2.8-3 7.8-6.9 11-8.6 3.2-1.8 7.7-3.7 9.9-4.4s7.8-2.8 12.5-4.7c4.7-2 13-5.8 18.4-8.7 6.8-3.5 11.2-6.5 14-9.7 2.3-2.5 5.4-7.5 7.1-11.2 1.6-3.6 3.6-6.7 4.2-6.7zm6.4 1c1.1 0 1.9.7 1.9 1.7s-1.7 5.4-3.9 9.8c-2.3 4.6-6 10-8.8 12.9-2.6 2.6-7.7 6.5-11.3 8.6s-10.6 5.6-15.5 7.8c-5 2.2-13.4 5.6-18.8 7.6-5.3 2-11.4 4.7-13.5 5.9-2 1.3-5.2 4-7 6-1.7 2.1-3.6 5.4-4.1 7.4-.5 2.1-1.2 8.6-1.5 14.5-.6 9.9-.8 10.8-2.6 10.8-1.9 0-2-.5-1.4-10.8.3-5.9 1.2-13.1 2-16 1-3.9 2.6-6.4 6.1-9.8 2.7-2.6 6.4-5.5 8.3-6.4 1.9-1 10-4.4 18-7.5s18.3-7.6 23-10 10.3-5.9 12.5-7.8c2.2-1.8 5.9-6.2 8.2-9.8 2.3-3.5 4.7-8.3 5.4-10.7.8-3.1 1.6-4.2 3-4.2zm6.9 1c1.1 0 2 .7 2 1.5s-2.1 5.7-4.7 10.7c-3.4 6.9-6.4 11-11.2 15.8-4.8 4.7-9.3 7.9-16.6 11.7-5.5 2.8-15 7.1-21 9.6-6.1 2.4-13.3 5.2-16 6.2-2.8 1.1-6.9 3.7-9.3 5.9-2.5 2.4-4.7 5.6-5.3 7.6-.5 1.9-.9 5.7-.9 8.5 0 2.7-.3 7.1-.7 9.8-.5 2.7-1.3 4.7-2.1 4.7-.9 0-1.1-2.4-.6-10.3.3-5.6 1.1-11.8 1.6-13.7.6-1.9 2-4.6 3.1-6 1-1.4 3.6-3.7 5.6-5.1 2-1.5 9.2-4.8 16.1-7.4s16.5-6.7 21.5-9.1c4.9-2.3 11.8-6.1 15.2-8.3 3.5-2.3 8.2-6.5 10.4-9.4 2.3-2.8 5.7-8.4 7.6-12.2 1.8-3.9 3.3-7.8 3.3-8.8s.8-1.7 2-1.7zm-196.8-5c.7 0 2.2 1.9 3.2 4.2 1.1 2.4 3.8 7.4 6 11.2 2.3 3.8 6.3 9.2 9.1 11.9s9.9 8.4 16 12.7c6 4.3 13.2 9.8 15.9 12.2 3.3 2.9 5.9 6.4 7.9 10.8 2.7 5.9 3 7.8 3.6 20.3.6 12.6.5 13.7-1.2 13.7-1.5 0-1.7-1.1-1.7-9.8 0-5.3-.4-12.2-1-15.2s-2-7.3-3.1-9.5-3.5-5.5-5.2-7.3c-1.8-1.8-7.5-6.2-12.7-9.7s-12.5-8.8-16.3-11.9c-3.7-3.1-8.4-8.2-10.6-11.4-2.1-3.1-5.2-8.4-6.8-11.7-1.7-3.3-3.4-7-3.8-8.3-.5-1.5-.3-2.2.7-2.2zm-5 1c.4 0 3 4.8 5.7 10.7 3.6 8.2 6.3 12.4 10.7 17.2 3.3 3.5 10.6 9.8 16.4 14s11.6 8.4 13 9.2c1.4.9 4 3.1 5.9 5s4.5 5.6 5.8 8.4c1.8 4 2.4 7.6 3.8 31.5h-2.3c-2.1 0-2.2-.3-2.5-12.3-.3-10-.7-13.1-2.6-17.2-1.2-2.8-3.2-6.1-4.4-7.4-1.2-1.2-6.7-5.4-12.2-9.1-5.5-3.8-13.2-9.6-17-12.8-3.9-3.3-9-8.8-11.5-12.3-2.4-3.5-6.2-10.2-8.3-14.9-3.1-6.7-3.6-8.7-2.5-9.2.7-.4 1.6-.8 2-.8zm-7.5 3c.5-.1 3.5 5.2 6.8 11.7 4.3 8.5 7.7 13.6 12 18.2 3.3 3.5 9.4 9 13.5 12.1s10.8 7.9 14.8 10.6 8.4 6.6 9.8 8.6c1.7 2.7 2.7 6.2 3.4 12 .5 4.6 1 10.9 1 14 0 4-.4 5.8-1.3 5.8-.8 0-1.4-3.5-2-12-.4-6.6-1.3-13.4-2.1-15.3-.8-1.7-2.1-3.9-2.8-4.7-.7-.9-6.4-5.1-12.7-9.5s-14.8-11.2-18.9-15c-4.1-3.9-9.3-9.7-11.5-13s-5.6-9.2-7.4-13c-1.8-3.9-3.3-7.8-3.3-8.8 0-.9.3-1.7.7-1.7z" class="s3"/><path fill="#7a1319" stroke="#7a1319" d="M296.4 513c.9 0 1.2 1 1 3.2-.3 1.8-1.7 5.8-3.2 8.8s-5.2 7.9-8.2 11c-3.7 3.8-8.5 7.1-14.5 10.2-5 2.6-15.5 7.2-23.5 10.3s-16.1 6.5-18 7.5c-1.9.9-5.6 3.8-8.3 6.4-3.5 3.4-5.1 5.9-6.1 9.8-.8 2.9-1.7 10.1-2 16-.5 9.4-.8 10.8-2.4 10.8s-1.6-.9-.9-11.2c.4-6.2 1.4-13.6 2.2-16.3.8-2.9 3-6.9 5.2-9.4 2.1-2.4 5.6-5.6 7.8-7.1s8.3-4.3 13.5-6.3c5.2-1.9 13.8-5.4 19-7.7 5.2-2.2 12.2-5.6 15.5-7.5 3.3-1.8 7.9-5.3 10.3-7.7 2.4-2.3 5.9-7.5 7.8-11.3 1.9-3.9 3.4-7.6 3.4-8.3 0-.6.6-1.2 1.4-1.2zm7.1 1c.9 0 1.5.9 1.5 2.2s-1.5 5.4-3.3 9.3c-1.9 3.8-5.3 9.4-7.6 12.2-2.2 2.9-6.9 7.1-10.4 9.4-3.4 2.2-10.3 6-15.2 8.3-5 2.4-14.6 6.5-21.5 9.1s-14.1 5.9-16.1 7.4c-2 1.4-4.6 3.7-5.6 5.1-1.1 1.4-2.5 4.1-3.2 6-.6 1.9-1.1 6-1.1 9s-.3 7.6-.7 10.3c-.5 2.7-1.3 4.7-2.1 4.7-.9 0-1.1-2.5-.6-10.8.3-5.9 1-12.4 1.5-14.5.5-2 2.4-5.3 4.1-7.4 1.8-2 5-4.7 7-6 2.1-1.2 8.2-3.9 13.6-5.9 5.3-2 13.7-5.4 18.7-7.6 4.9-2.2 11.9-5.7 15.5-7.8s8.7-6 11.3-8.6c2.8-2.9 6.5-8.3 8.8-12.9 2.2-4.4 3.9-8.8 3.9-9.8 0-.9.7-1.7 1.5-1.7zm-196.3-4c.7 0 2.6 3 4.3 6.7 1.6 3.8 5.1 10.1 7.7 14 2.9 4.4 7.5 9.5 11.5 12.9 3.8 3.1 11.1 8.4 16.3 11.9s10.9 7.9 12.7 9.7c1.7 1.8 4.1 5.1 5.2 7.3s2.5 6.5 3.1 9.5 1 9.9 1 15.2c0 7.2-.3 9.8-1.3 9.8-.8 0-1.4-3.7-2-13.2-.6-10.7-1.2-14.3-3-18.3-1.3-2.8-3.9-6.5-5.8-8.4s-4.5-4.1-5.9-5c-1.4-.8-7.2-5-13-9.2s-13.1-10.5-16.4-14c-3.8-4.1-7.6-9.9-10.7-16.2-2.7-5.3-4.9-10.4-4.9-11.2s.6-1.5 1.2-1.5zm-1.7 10.8c2.2 4.8 6.1 11.6 8.5 15.1 2.5 3.5 7.6 9 11.5 12.3 3.8 3.2 11.5 9 17 12.8 5.5 3.7 11 7.9 12.2 9.1 1.2 1.3 3.2 4.6 4.4 7.4 1.9 4.1 2.3 7.2 2.6 17.2.3 10.4.1 12.3-1.2 12.3-1.2 0-1.5-1.3-1.5-5.8 0-3.1-.5-9.4-1-14-.7-5.8-1.7-9.3-3.4-12-1.4-2-5.8-5.9-9.8-8.6s-10.7-7.5-14.8-10.6-10.2-8.6-13.5-12.1c-4.4-4.6-7.7-9.7-12-18.2-4.9-9.7-5.7-12-4.6-12.7 1.2-.7 2.4 1 5.6 7.8z" class="s4"/><g fill="none" stroke="#000" stroke-width="6"><path d="M120 504.6c6.9 37.6 62.2 49.3 67.9 57-7.8 11.2-8 48.4-8 48.4H-5s5-40 5-50 10-30 40-40 50 0 80-15.4z" class="s5"/><path d="M360 520c30 10 40 30 40 40s10 50 10 50H180s0-40 10-50 80-10 90-55c30 15 50 5 80 15z" class="s5"/></g>
</g>
<g transform="translate(33.53553390593274 291.01362954285077) scale(1.02 1.02) translate(-0.4208718841973976 -0.6663994207284167) translate(27.451067811865475 -2.979591836734694)">
<path fill="#a67358" stroke="#000" stroke-width="6" d="M40 14S10-1 5 4s0 30 5 40-5 25 30 20z"/>
</g>
<g transform="translate(323.53553390593277 291.01362954285077) scale(-1.02 1.02) translate(-42.50806030393713 -0.6663994207284167) translate(27.451067811865475 -2.979591836734694)">
<path fill="#a67358" stroke="#000" stroke-width="6" d="M40 14S10-1 5 4s0 30 5 40-5 25 30 20z"/>
</g>
<g transform="scale(0.804 1) translate(48.75621890547262 0)">
<path fill="#a67358" stroke="#000" stroke-width="6" d="M200 100c100 0 150 60 150 200-20 180-10 140-90 180-30 10-40 20-60 20s-30-10-60-20c-80-40-70 0-90-180 0-140 50-200 150-200Z" class="head"/><path fill="rgba(0,0,0,0)" d="M60 300H50c0-140 50-200 150-200s150 60 150 200h-10v-10c0-5-10-20-15-25s-5-55-15-65c-40-40-60 0-110 0s-70-40-110 0c-10 10-10 60-15 65s-15 20-15 25z" class="headShave"/><path fill="rgba(0,0,0,0)" d="M200 410c30 0 50 10 50 10 30 0 90-15 90-120h10c-20 180.69-10 140-90 180-30 10-40 20-60 20s-30-10-60-20c-80-40-70 0-90-180h10c0 105 60 120 90 120 0 0 20-10 50-10" class="faceShave"/>
</g>
<g>
<path fill="none" stroke="#000" stroke-width="2" d="M240 355s20-10 45 0m-125 0s-20-10-45 0" class="eyeline5"/>
</g>
<g transform="translate(144.4807306749833 416) scale(0.67 0.67) translate(2.71844608545599 9.35820895522388)">
<path fill="none" stroke="#000" stroke-width="2" d="M9 2s-12.5 8.95-4 34" class="shp0"/>
</g>
<g transform="translate(244.4807306749833 416) scale(-0.67 0.67) translate(-13.756984735489405 9.35820895522388)">
<path fill="none" stroke="#000" stroke-width="2" d="M9 2s-12.5 8.95-4 34" class="shp0"/>
</g>
<g>
<path d="m102 385 9.08-25m13.62 0-9.08 25m13.62 0 9.07-25m13.62 0-9.08 25m106.22 0 9.08-25m13.61 0-9.07 25m13.61 0 9.08-25m13.62 0-9.08 25" style="opacity:.251;mix-blend-mode:multiply;fill:none;stroke:#8b6135;stroke-width:4.4"/>
</g>
<g transform="translate(101.97070870858956 282.01425559511955) rotate(3 38.029291291410445 27.98574440488045)">
<path d="m6.19 40.49-.83-22.07s2.27-3.87 17.09.22c29.93 8.26 42.45 4.47 42.45 4.47l6.04 11.72s-7.05.61-29.88 2.61c-22.84 2-34.87 3.05-34.87 3.05" style="fill:#f5f3ee"/><path d="M38.86 36.14c-4.51.39-8.55-3.74-9.03-9.25s2.83-7.08 7.34-7.48c4.52-.39 8.51.54 8.99 6.05s-2.78 10.28-7.3 10.68" style="fill:#000"/><path d="M6.19 40.49S2.41 12.46 9.05 15.75c10.49 5.2 55.85 7.36 55.85 7.36l6.04 11.72" style="fill:none;stroke:#000;stroke-width:6"/>
</g>
<g transform="translate(221.97070870858954 282.01425559511955) rotate(-3 38.029291291410445 27.98574440488045) scale(-1 1) translate(-76.05858258282089 0)">
<path d="m6.19 40.49-.83-22.07s2.27-3.87 17.09.22c29.93 8.26 42.45 4.47 42.45 4.47l6.04 11.72s-7.05.61-29.88 2.61c-22.84 2-34.87 3.05-34.87 3.05" style="fill:#f5f3ee"/><path d="M38.86 36.14c-4.51.39-8.55-3.74-9.03-9.25s2.83-7.08 7.34-7.48c4.52-.39 8.51.54 8.99 6.05s-2.78 10.28-7.3 10.68" style="fill:#000"/><path d="M6.19 40.49S2.41 12.46 9.05 15.75c10.49 5.2 55.85 7.36 55.85 7.36l6.04 11.72" style="fill:none;stroke:#000;stroke-width:6"/>
</g>
<g transform="translate(99.82499568420577 257.4995916989505) rotate(-14 40.175004315794226 12.50040830104949)">
<path fill="#272421" stroke="#000" d="M25.63 10.05c-1.19.67-3.29 2.29-4.68 3.61s-2.66 2.8-2.84 3.29-.13.96.1 1.04 3.5-.28 7.26-.79c3.76-.52 9.13-1.06 11.92-1.21 2.8-.15 9.17-.28 14.14-.29 4.98-.01 11.48.12 14.44.29s6.61.25 8.12.19c1.5-.05 3.59-.27 4.63-.47 1.65-.32 1.85-.53 1.46-1.57-.33-.91-1.38-1.55-4.09-2.53-2-.73-6.19-1.72-9.32-2.22-3.13-.49-8.67-1.19-12.3-1.55-3.64-.36-9.39-.72-12.78-.81-4.83-.11-7.02.06-10.04.83-2.12.53-4.83 1.52-6.02 2.19Z"/><path d="M0 10h5v5H0z" style="fill:none"/>
</g>
<g transform="translate(219.82499568420576 257.4995916989505) rotate(14 40.175004315794226 12.50040830104949) scale(-1 1) translate(-80.35000863158845 0)">
<path fill="#272421" stroke="#000" d="M25.63 10.05c-1.19.67-3.29 2.29-4.68 3.61s-2.66 2.8-2.84 3.29-.13.96.1 1.04 3.5-.28 7.26-.79c3.76-.52 9.13-1.06 11.92-1.21 2.8-.15 9.17-.28 14.14-.29 4.98-.01 11.48.12 14.44.29s6.61.25 8.12.19c1.5-.05 3.59-.27 4.63-.47 1.65-.32 1.85-.53 1.46-1.57-.33-.91-1.38-1.55-4.09-2.53-2-.73-6.19-1.72-9.32-2.22-3.13-.49-8.67-1.19-12.3-1.55-3.64-.36-9.39-.72-12.78-.81-4.83-.11-7.02.06-10.04.83-2.12.53-4.83 1.52-6.02 2.19Z"/><path d="M0 10h5v5H0z" style="fill:none"/>
</g>
<g transform="translate(0 5)">
<path d="M170 430s10 10 30 10 30-10 30-10" style="fill:none;stroke:#000;stroke-width:5"/>
</g>
<g transform="translate(168.19198795027955 347.310851842392) scale(1.09 1.09) translate(-2.6263496187842583 -1.8734159029217627)">
<path fill="#a67358" stroke="#000" stroke-width="5" d="m28 1 16.043 32.815s.75 10.848-18.228 10.417c-4.731-.107-4.624.436-6.246-.08" class="nose" transform="matrix(1 0 -.07193 1 2.942 .274)"/>
</g>
<g transform="scale(0.804 1) translate(48.69318659592842 0)">
<path fill="#272421" stroke="#000" stroke-width="4" d="M185.17 46.93c-1.3.97-2.87 2.36-3.49 3.08-.62.74-2.49 2.24-4.17 3.33-1.69 1.1-3.77 3.18-4.64 4.62-.86 1.43-2.6 3.21-3.88 3.97s-4.32 2.88-6.77 4.69c-2.48 1.8-5.35 4.43-6.36 5.87-1.02 1.42-2.86 3.33-4.11 4.25-1.24.9-2.78 1.52-3.4 1.38-.62-.15-2.47.71-4.12 1.89s-3.75 2.53-4.66 3c-.9.47-2.76 1.87-4.15 3.1-1.39 1.22-2.82 2.27-3.17 2.34-.34.07-1.72 1.14-3.06 2.37-1.34 1.21-2.59 2.23-2.76 2.26-.18.03-1.92 1.35-3.88 2.91-1.96 1.55-4.46 3.77-5.54 4.94-1.08 1.16-2.43 3.03-2.98 4.15-.96 1.9-1.22 2.04-4.54 2.41-2.98.38-4.01.82-6.48 2.76-1.98 1.55-3.23 3.03-3.84 4.55-.49 1.23-1.98 4.28-3.31 6.77-2.06 3.89-3.32 5.36-9.2 10.83-3.71 3.43-8.25 7.6-10.1 9.27-2.41 2.17-3.69 3.84-4.55 5.93-.65 1.6-1.86 4.77-2.68 7.05s-1.59 4.56-1.73 5.08c-.13.52-1.61 2.22-3.27 3.78-2.42 2.32-3.02 3.26-3.38 5.28-.23 1.35-.43 2.86-.45 3.36-.01.49-.9 1.82-1.95 2.95s-2.15 2.63-2.46 3.33c-.3.69-1.03 3.61-1.59 6.46-.55 2.87-1.05 6.42-1.14 7.91-.13 2.28-.6 3.47-2.92 7.48-1.44 2.61-2.76 5.69-2.98 6.85-.22 1.18-.2 3.57.05 5.36.4 2.96.34 3.47-.58 5.85-.54 1.43-.99 3.6-1.01 4.84-.02 1.22.2 3.03.48 4 .45 1.56.39 2.06-.54 4.5-.56 1.49-1.02 3.46-1.02 4.36-.01.91.17 2.38.4 3.27s.68 2.02 1.01 2.51c.38.58.63 2.63.72 5.97.08 2.88-.08 6.26-.37 7.79-.36 1.87-.39 3.06-.1 3.89.24.66.26 1.6.07 2.1-.2.5-.49 2.71-.66 4.93-.19 2.53-.12 4.55.18 5.39.28.78.45 4.14.39 7.94-.08 5.04.09 7.26.77 9.57.51 1.66 1.08 4.36 1.26 6.01.19 1.64.75 3.48 1.24 4.08.51.6 1.49 1.11 2.17 1.13.69 0 2.36-.76 3.7-1.72 1.34-.95 2.7-1.73 3.02-1.72.33 0 1.17-.65 1.88-1.47.7-.81 1.23-1.97 1.17-2.55-.06-.59.83-2.28 1.96-3.77 1.14-1.5 2.16-3.2 2.27-3.79s.51-1.07.9-1.05c.39.01 1.7-1.37 2.9-3.06 1.22-1.71 2.29-3.88 2.38-4.81s.49-1.82.89-1.98c.4-.15 1.15-.79 1.68-1.41.57-.68 1.01-2.56 1.11-4.69.1-1.96.65-4.67 1.21-6.05.56-1.37.9-2.84.75-3.27-.14-.42.54-1.96 1.55-3.44 1.5-2.16 1.8-3.06 1.47-4.53-.22-1.02-.37-2.26-.36-2.77.02-.51.2-1.91.4-3.1.2-1.2.59-3.44.85-4.97.29-1.6 1.2-3.57 2.09-4.57.91-1.02 1.65-2.57 1.71-3.63.07-1.02-.24-2.89-.68-4.13-.44-1.26-.76-2.64-.72-3.06.04-.43.87-1.65 1.84-2.72 1.31-1.41 1.85-2.64 2.03-4.57.15-1.64.68-3.02 1.39-3.63.64-.54 1.23-1.76 1.33-2.7s-.05-2.19-.33-2.77c-.33-.73 0-2.05 1.08-4.25.87-1.74 2.74-4.42 4.15-5.95 2.25-2.41 2.84-2.72 4.42-2.45 1.01.18 1.99.41 2.16.5.18.09 1.3-.15 2.51-.54 1.21-.38 2.86-.86 3.66-1.04.81-.18 2.64-.69 4.08-1.12 1.45-.44 3.5-1.17 4.56-1.63 1.66-.73 2.28-.68 4.31.35 1.48.75 3.11 1.06 4.29.81 1.05-.21 4.04-.04 6.65.4 4.23.68 5.19 1.14 7.89 3.74 2.22 2.1 4.04 3.12 6.36 3.54 2.36.44 3.89.42 5.51-.09 1.23-.39 3.29-1.38 4.57-2.2 1.7-1.1 2.67-1.36 3.65-.97.74.3 2.76.7 4.49.91 1.75.2 3.53.53 3.94.75.43.22 2.4.56 4.38.78s4.87.64 6.41.95c2 .4 3.75.33 6.1-.25 1.8-.44 4.56-.95 6.14-1.15 2.21-.27 3.19-.07 4.43.88.88.66 3.06 1.37 4.85 1.57 2.22.24 4.11.05 5.91-.59 1.45-.52 3.27-1.73 4.04-2.69.9-1.11 2.05-1.73 3.2-1.72 1 0 1.94.2 2.12.45.18.24 1.53.61 3.03.82 1.71.23 4.23-.01 6.85-.65 2.27-.56 4.56-1.01 5.11-.99.53.01 2.17-.86 3.61-1.93 2.26-1.7 2.86-1.88 4.58-1.34 1.09.34 2.85.57 3.91.52 1.05-.06 3.79.63 6.08 1.51 2.29.9 5.01 1.64 6.06 1.67 1.05.02 2.63-.24 3.53-.58.9-.33 2.64-1.32 3.87-2.18 1.25-.88 2.66-1.4 3.19-1.17.54.23 3.62.56 6.84.72 4.6.26 6.21.13 7.78-.65 1.67-.84 2.26-.88 3.83-.23 1.03.41 3 1.08 4.39 1.47 1.37.4 3.14.84 3.91 1.01s2.35.59 3.51.93c1.15.35 2.24.56 2.41.48.17-.09 1.11-.3 2.09-.47 1.53-.28 2.08.01 4.21 2.19 1.33 1.38 3.07 3.82 3.87 5.43.99 2.01 1.28 3.21.93 3.89-.28.53-.46 1.68-.39 2.54s.61 1.98 1.21 2.47c.68.57 1.15 1.83 1.25 3.34.11 1.79.59 2.93 1.82 4.24.92 1 1.69 2.14 1.72 2.54.02.4-.33 1.68-.81 2.84s-.86 2.9-.83 3.86c.02 1.01.69 2.48 1.55 3.45.85.97 1.67 2.86 1.89 4.37.21 1.49.5 3.65.66 4.82.15 1.15.27 2.52.26 3.02 0 .49-.22 1.71-.48 2.7-.39 1.44-.13 2.34 1.28 4.52.97 1.5 1.61 3.07 1.43 3.49-.17.42.11 1.92.63 3.33s.94 4.22.95 6.24c0 2.22.37 4.19.94 4.92.52.67 1.28 1.35 1.69 1.53.41.17.8 1.13.84 2.12.05.98 1.08 3.32 2.3 5.17 1.22 1.86 2.57 3.37 2.98 3.36.43-.01.85.51.94 1.14.09.64 1.13 2.49 2.31 4.13 1.19 1.61 2.11 3.45 2.02 4.08s.47 1.87 1.24 2.75c.78.87 1.71 1.57 2.06 1.55s1.85.78 3.34 1.76c1.51.95 3.41 1.68 4.2 1.63.8-.05 1.94-.62 2.53-1.26.57-.63 1.24-2.52 1.46-4.2.22-1.66.89-4.38 1.47-6.02.77-2.28.97-4.48.86-9.49-.07-3.77.11-7.1.42-7.83.33-.8.39-2.8.17-5.32-.2-2.23-.52-4.48-.75-5-.21-.53-.19-1.45.07-2.07.31-.78.28-1.98-.11-3.9-.32-1.57-.51-4.96-.43-7.83.08-3.33.34-5.36.75-5.89.35-.44.83-1.53 1.06-2.41s.41-2.47.38-3.56c-.02-1.09-.52-3.14-1.12-4.54-1.01-2.35-1.06-2.72-.54-4.47.31-1.04.53-2.87.5-4.04-.03-1.18-.52-3.36-1.09-4.84-.96-2.44-1.01-2.97-.61-6 .23-1.86.24-4.33 0-5.54-.23-1.19-1.57-4.3-3.03-6.88-2.32-3.95-2.79-5.13-2.94-7.47-.11-1.53-.65-5.16-1.22-8.08-.59-2.93-1.35-5.89-1.66-6.58s-1.4-2.1-2.42-3.13c-1.04-1.03-1.91-2.31-1.94-2.83-.02-.52-.25-2.1-.51-3.51-.4-2.2-.97-3-3.89-5.58-1.93-1.68-3.61-3.49-3.71-4.02-.11-.55-.7-1.65-1.34-2.46s-1.67-2.97-2.33-4.8c-.78-2.24-1.91-4.06-3.35-5.4-1.22-1.16-2.63-3.25-3.24-4.82-.58-1.54-1.87-3.53-2.83-4.42s-2.66-2.03-3.77-2.52c-1.11-.51-2.4-1.71-2.89-2.68-.48-.98-1.86-2.57-3.06-3.54-1.21-.99-2.98-1.8-3.94-1.79-.95-.01-2.17-.46-2.69-1.01-.53-.55-1.44-2.05-2.03-3.33-.58-1.29-2.72-3.99-4.74-6.03-2.03-2.06-5.34-5.62-7.37-7.91-2.03-2.32-4.3-4.5-5.03-4.81-.75-.31-2.86-2.35-4.71-4.58a31.2 31.2 0 0 0-7.77-6.86c-2.41-1.52-5.5-3.2-6.87-3.71-1.38-.51-3.64-1.46-5.02-2.12-1.38-.65-3.34-2.34-4.36-3.77-1.01-1.44-2.16-2.65-2.55-2.68-.4-.03-1.83-2.03-3.18-4.48-1.34-2.47-3.19-5.22-4.13-6.08-.94-.87-3.32-1.63-5.34-1.69-3.6-.07-3.7-.14-6.67-5.19-2.37-4.2-3.26-5.19-4.62-5.01-1.34.18-2.14-.71-4.05-4.6-1.92-4.07-2.64-4.9-4.33-4.9-1.4.02-2.44.92-3.37 2.87-1.35 2.75-1.37 2.76-2.08.47-.4-1.27-1.98-3.47-3.52-4.86l-2.76-2.51-4.82 5.56c-4.32-3.67-5.38-3.83-7.64-2.84-1.58.68-3.69.94-4.7.56-1.23-.43-2.61-.07-4.19 1.12Z"/>
</g>
</svg>