<svg xmlns="http://www.w3.org/2000/svg" version="1.2" baseProfile="tiny" width="100%" height="100%" viewBox="0 0 400 600" preserveAspectRatio="xMinYMin meet">
<g transform="scale(1.01 1) translate(-2.0041322314049603 0)">
<path fill="#ddb7a0" stroke="#000" stroke-width="6" d="M20 600s-5-60 40-70c15 0 45-15 90-35l50-195 50 195c45 20 75 35 90 35 45 10 45 70 45 70" class="body"/>
</g>
<g transform="scale(1.01 1) translate(-1.980198019801982 0)">
<path fill="#89bfd3" stroke="#000" stroke-width="6" d="M80 610s10-30 10-90l20-10s10 80 90 80 90-80 90-80l20 10c0 60 10 90 10 90z" class="jersey"/><path fill="none" stroke="#07364f" stroke-width="2" d="M95 610v-92.45M105 610v-97.95m10 2.95v95m10-60v62.05M135 565v45m10-35v35m10-30v30m10-25v25m10-20v20m10-20v20m10-20v20m110 0v-92.45M295 610v-97.95M285 515v95m-10-60v62.05M265 565v45m-10-35v35m-10-30v30m-10-25v25m-10-20v20m-10-20v20m-10-20v20" class="pinstripes"/><path fill="none" stroke="#000" stroke-width="16" d="M90 520c0 60-10 90-10 90m230-90c0 60 10 90 10 90M110 510s10 80 90 80 90-80 90-80" class="outline"/><path fill="none" stroke="#07364f" stroke-width="8" d="M90 520c0 60-10 90-10 90m230-90c0 60 10 90 10 90m-210-98s15 78 90 78 90-78 90-78" class="stripe-accent"/><path fill="none" stroke="#89bfd3" stroke-width="4" d="M86 522c0 60-10 88-10 88m238-88c0 60 10 88 10 88M114 510s11 76 86 76 86-76 86-76" class="stripe-primary"/><path fill="none" stroke="#7a1319" stroke-width="4" d="M94 518c0 60-10 92-10 92m222-92c0 60 10 92 10 92m-210-96s12 80 94 80 94-80 94-80" class="stripe-secondary"/>
</g>
<g transform="translate(33.53553390593274 291.01362954285077) scale(0.7 0.7) translate(9.1990568974574 14.565587338778242) translate(21.561067811865477 -2.979591836734694)">
<path fill="#ddb7a0" stroke="#000" stroke-width="6" d="M40 14S10-1 5 4s0 30 5 40-5 25 30 20z"/>
</g>
<g transform="translate(323.53553390593277 291.01362954285077) scale(-0.7 0.7) translate(-52.12798908559193 14.565587338778242) translate(21.561067811865477 -2.979591836734694)">
<path fill="#ddb7a0" stroke="#000" stroke-width="6" d="M40 14S10-1 5 4s0 30 5 40-5 25 30 20z"/>
</g>
<g transform="scale(0.8420000000000001 1) translate(37.5296912114014 0)">
<path fill="#ddb7a0" stroke="#000" stroke-width="6" d="M200 100c100 0 150 60 150 200 0 50-.51 71.54-10 100-10 30-80 70-90 80s-20 20-50 20-40-10-50-20-80-50-90-80c-9.49-28.46-10-50-10-100 0-140 50-200 150-200Z" class="head"/><path fill="rgba(0,0,0,0)" d="M200 410c30 0 50 10 50 10 30 0 90-15 90-120h10c0 50-.51 71.54-10 100-10 30-80 70-90 80s-20 20-50 20-40-10-50-20-80-50-90-80c-9.49-28.46-10-50-10-100h10c0 105 60 120 90 120 0 0 20-10 50-10" class="faceShave"/><path fill="rgba(0,0,0,0)" d="M60 300H50c0-140 50-200 150-200s150 60 150 200h-10v-10c0-5-10-20-15-25s-5-55-15-65c-40-40-60 0-110 0s-70-40-110 0c-10 10-10 60-15 65s-15 20-15 25z" class="headShave"/>
</g>
<g>
<path d="M144 363c-1.66 0-3-1.34-3-3s1.34-3 3-3 3 1.34 3 3-1.34 3-3 3m-15-1c-1.11 0-2-.89-2-2s.89-2 2-2 2 .89 2 2-.89 2-2 2m-15 1c-1.66 0-3-1.34-3-3s1.34-3 3-3 3 1.34 3 3-1.34 3-3 3m-15-1c-1.11 0-2-.89-2-2s.89-2 2-2 2 .89 2 2-.89 2-2 2m5 11c-1.66 0-3-1.34-3-3s1.34-3 3-3 3 1.34 3 3-1.34 3-3 3m10-1c-1.11 0-2-.89-2-2s.89-2 2-2 2 .89 2 2-.89 2-2 2m10 1c-1.66 0-3-1.34-3-3s1.34-3 3-3 3 1.34 3 3-1.34 3-3 3m10-1c-1.11 0-2-.89-2-2s.89-2 2-2 2 .89 2 2-.89 2-2 2m10 11c-1.66 0-3-1.34-3-3s1.34-3 3-3 3 1.34 3 3-1.34 3-3 3m-15-1c-1.11 0-2-.89-2-2s.89-2 2-2 2 .89 2 2-.89 2-2 2m-10 0c-1.11 0-2-.89-2-2s.89-2 2-2 2 .89 2 2-.89 2-2 2m-10 1c-1.66 0-3-1.34-3-3s1.34-3 3-3 3 1.34 3 3-1.34 3-3 3m-10-1c-1.11 0-2-.89-2-2s.89-2 2-2 2 .89 2 2-.89 2-2 2m45-10c-1.11 0-2-.89-2-2s.89-2 2-2 2 .89 2 2-.89 2-2 2m-50 0c-1.11 0-2-.89-2-2s.89-2 2-2 2 .89 2 2-.89 2-2 2m60 5c-1.11 0-2-.89-2-2s.89-2 2-2 2 .89 2 2-.89 2-2 2m0-10c-1.11 0-2-.89-2-2s.89-2 2-2 2 .89 2 2-.89 2-2 2m-48-15c-1.11 0-2-.89-2-2s.89-2 2-2 2 .89 2 2-.89 2-2 2m15 2c-2.21 0-4-1.79-4-4s1.79-4 4-4 4 1.79 4 4-1.79 4-4 4m15-2c-1.11 0-2-.89-2-2s.89-2 2-2 2 .89 2 2-.89 2-2 2m-15 41c-1.66 0-3-1.34-3-3s1.34-3 3-3 3 1.34 3 3-1.34 3-3 3m15-1c-1.11 0-2-.89-2-2s.89-2 2-2 2 .89 2 2-.89 2-2 2m-30 0c-1.11 0-2-.89-2-2s.89-2 2-2 2 .89 2 2-.89 2-2 2m150-29c-1.66 0-3-1.34-3-3s1.34-3 3-3 3 1.34 3 3-1.34 3-3 3m15-1c-1.11 0-2-.89-2-2s.89-2 2-2 2 .89 2 2-.89 2-2 2m15 1c-1.66 0-3-1.34-3-3s1.34-3 3-3 3 1.34 3 3-1.34 3-3 3m15-1c-1.11 0-2-.89-2-2s.89-2 2-2 2 .89 2 2-.89 2-2 2m-5 11c-1.66 0-3-1.34-3-3s1.34-3 3-3 3 1.34 3 3-1.34 3-3 3m-10-1c-1.11 0-2-.89-2-2s.89-2 2-2 2 .89 2 2-.89 2-2 2m-10 1c-1.66 0-3-1.34-3-3s1.34-3 3-3 3 1.34 3 3-1.34 3-3 3m-10-1c-1.11 0-2-.89-2-2s.89-2 2-2 2 .89 2 2-.89 2-2 2m-10 11c-1.66 0-3-1.34-3-3s1.34-3 3-3 3 1.34 3 3-1.34 3-3 3m15-1c-1.11 0-2-.89-2-2s.89-2 2-2 2 .89 2 2-.89 2-2 2m10 0c-1.11 0-2-.89-2-2s.89-2 2-2 2 .89 2 2-.89 2-2 2m10 1c-1.66 0-3-1.34-3-3s1.34-3 3-3 3 1.34 3 3-1.34 3-3 3m10-1c-1.11 0-2-.89-2-2s.89-2 2-2 2 .89 2 2-.89 2-2 2m-45-10c-1.11 0-2-.89-2-2s.89-2 2-2 2 .89 2 2-.89 2-2 2m50 0c-1.11 0-2-.89-2-2s.89-2 2-2 2 .89 2 2-.89 2-2 2m-60 5c-1.11 0-2-.89-2-2s.89-2 2-2 2 .89 2 2-.89 2-2 2m0-10c-1.11 0-2-.89-2-2s.89-2 2-2 2 .89 2 2-.89 2-2 2m48-15c-1.11 0-2-.89-2-2s.89-2 2-2 2 .89 2 2-.89 2-2 2m-15 2c-2.21 0-4-1.79-4-4s1.79-4 4-4 4 1.79 4 4-1.79 4-4 4m-15-2c-1.11 0-2-.89-2-2s.89-2 2-2 2 .89 2 2-.89 2-2 2m15 41c-1.66 0-3-1.34-3-3s1.34-3 3-3 3 1.34 3 3-1.34 3-3 3m-15-1c-1.11 0-2-.89-2-2s.89-2 2-2 2 .89 2 2-.89 2-2 2m30 0c-1.11 0-2-.89-2-2s.89-2 2-2 2 .89 2 2-.89 2-2 2" style="opacity:.251;mix-blend-mode:multiply;fill:#8b6135"/>
</g>
<g transform="scale(0.8420000000000001 1) translate(37.62351543942991 0)">
<path fill="#5A3825" fill-rule="evenodd" stroke="#000" d="M60 300H50s-10 70 10 130c10 20 30 55 90 55 10-10 0-45-10-55s-30 0-60-30c-20-20-20-70-20-100Zm261 100c-30 30-50 20-60 30s-20 45-10 55c60 0 80-35 90-55 20-60 10-130 10-130h-10c0 30 0 80-20 100Z" class="shp0"/><path fill="#5A3825" fill-rule="evenodd" stroke="#000" d="M200 405c55 0 65 20 65 35s0 40-10 55c-5 10-5 15-5 15v30l-5 10-5-10-5 10-5-10v-30h-15v30l-5 10-5-10-5 15-5-15-5 10-5-10v-30h-15v30l-5 10-5-10-5 10-5-10v-30s0-5-5-15c-8.06-16.12-10-40-10-55s10-35 65-35Zm-50 35c5 20 10 30 30 30 10 0 10-15 20-15s10 15 20 15c20 0 25-10 30-30 4.85-19.4-20-20-50-20s-54.85.6-50 20Z" class="shp0"/><path fill="#89bfd3" stroke="#000" d="M150 510h20v20h-20zm35 0h30v20h-30zm45 0h20v20h-20z" class="facialHairBand"/>
</g>
<g transform="translate(99.23500000000001 289.1206538286518) rotate(9 40.76499999999999 20.879346171348168)">
<path d="M73.63 30.14S62.25 5.74 32.3 7.42C12.33 8.54 7.9 18.8 7.9 18.8l5.83 14.7c30.23 3.31 59.9-3.36 59.9-3.36" style="fill:#fff"/><path d="M40.63 30.99a9.99 9.99 0 0 0 9.42-10.55 9.985 9.985 0 0 0-10.54-9.42 10 10 0 0 0-9.43 10.54c.31 5.52 5.03 9.74 10.55 9.43" style="fill:#000"/><path d="M73.63 30.14S72.51 10.17 32.3 7.42C12.33 8.54 7.9 18.8 7.9 18.8l5.83 14.7" style="fill:none;stroke:#000;stroke-width:5"/>
</g>
<g transform="translate(219.235 289.1206538286518) rotate(-9 40.76499999999999 20.879346171348168) scale(-1 1) translate(-81.52999999999999 0)">
<path d="M73.63 30.14S62.25 5.74 32.3 7.42C12.33 8.54 7.9 18.8 7.9 18.8l5.83 14.7c30.23 3.31 59.9-3.36 59.9-3.36" style="fill:#fff"/><path d="M40.63 30.99a9.99 9.99 0 0 0 9.42-10.55 9.985 9.985 0 0 0-10.54-9.42 10 10 0 0 0-9.43 10.54c.31 5.52 5.03 9.74 10.55 9.43" style="fill:#000"/><path d="M73.63 30.14S72.51 10.17 32.3 7.42C12.33 8.54 7.9 18.8 7.9 18.8l5.83 14.7" style="fill:none;stroke:#000;stroke-width:5"/>
</g>
<g transform="translate(101.2222222222222 261) rotate(-5 38.77777777777779 9)">
<path fill="#5A3825" stroke="#000" d="M73 13c8-8 0-12 0-12S45 5 37 5H1s20 12 40 12c12 0 28 0 32-4Z"/>
</g>
<g transform="translate(221.2222222222222 261) rotate(5 38.77777777777779 9) scale(-1 1) translate(-77.55555555555559 0)">
<path fill="#5A3825" stroke="#000" d="M73 13c8-8 0-12 0-12S45 5 37 5H1s20 12 40 12c12 0 28 0 32-4Z"/>
</g>
<g transform="translate(155 427)">
<path d="M5 3s13.33 20 40 20S85 3 85 3 65 5.22 45 5.22 5 3 5 3Z" style="fill:#fff;stroke:#000;stroke-width:5"/>
</g>
<g transform="translate(160 318.75) scale(0.93 0.93) translate(3.8470728793309408 3.8575268817204273)">
<path fill="#ddb7a0" stroke="#000" stroke-width="5" d="M40 40s50-30 0 30"/>
</g>
<g transform="scale(-1 1) translate(-400 0) scale(0.8420000000000001 1) translate(37.5296912114014 0)">
<defs><linearGradient id="a" x1="200" x2="200" y1="100" y2="310" gradientUnits="userSpaceOnUse"><stop offset="0" stop-color="rgba(0,0,0,.25)"/><stop offset="1" stop-color="rgba(0,0,0,0)"/></linearGradient></defs><g style="display:inline"><path d="M60 310H50v-10c0-140 50-200 150-200s150 60 150 200v10h-10v-20c0-5-10-20-15-25s-5-55-15-65c-40-40-56.429-38.095-106.429-38.095S130 160 90 200c-10 10-10 60-15 65s-15 20-15 25z" class="short_fade" style="display:inline;opacity:1;fill:url(#a);stroke:none;stroke-width:1;stroke-miterlimit:4;stroke-dasharray:none"/></g><path fill="#5A3825" stroke="#000" stroke-width="3.787" d="M176.958 80.33c-1.666.356-3.656.694-4.42 1.005-.765.32-2.055.284-4.153.686s-4.817-.357-5.767.356c-.961.723-4.673-1.601-5.58 1.436-1.52.302-5.92-1.098-8.743-.275-2.813.832-5.969 2.177-6.978 2.973-1.03.814-2.96 1.857-4.303 2.332-1.353.467-3.078.714-3.842.54-.755-.174-3.004-1.702-4.739-1.09-1.735.623-3.73 3.203-4.69 3.432-.96.219-3.273-1.108-4.636-.394-1.362.722-2.397 3.27-2.745 3.43-2.989 1.372-1.8.579-2.989 1.372a31 31 0 0 1-2.656 1.381c-.05-.263-4.43-2.651-4.968.476-2.855.459-4.32 1.567-4.015 2.972-.94.796-2.85-1.446-2.802 2.543-2.752 1.235-1.103 2.36-4.573 2.232-3.087-.119-4.077-.32-5.01 3.495-1.754 1.034-4.017 2.314-4.34 3.53-.265.989-.564 3.211-1.437 5.196-5.571 1.426-2.372 6.34-7.36 10.364-3.157 2.561-1.891 5.497-3.489 6.741-2.087 1.637-3.748 11.4-4.287 13.184-.421 1.372-.966 8.114-1.896 12.835-2.045 9.632-1.918 6.557-2.956 12.805-.414 6.977-1.54 6.943-2.291 14.791-1.65 9.93-4.07 25.692-4.154 27.305 13.07-1.575 15.468-.457 24.767-.598 2.688-7.24 12.988-17.017 31.388-17.386 26.676-.176 68.995.364 90.96.39 24.425-.18 49.48.895 73.733 1.779 17.401.59 34.288 6.477 39.775 16.265 11.669-1.34 14.105.89 24.676.232-.985-8.536-3.087-26.773-4.306-32.295-1.13-4.084-.635-7.333-2.476-10.758-1.328-6.785-1.608-7.98-2.868-15.269-2.678-8.718-1.723-10.969-2.993-12.874-.233-2.265-.107-4.023-.46-5.542-.412-1.838.209-3.338-1.056-4.445-1.078-.942-1.311-1.855-1.615-3.108-.304-1.226-.204-2.203-1.027-2.899-.833-.695-.944-4.649-2.032-5.024-1.068-.384-1.228-1.815-1.522-2.556.241-1.258-1.467-2.26-2.04-2.95-.783-.944-2.675-1.546-4.297-1.889-.296-1.7-1.162-2.397-2.55-3.613-.334-.924-3.588-2.054-5.303-3.426-1.725-1.372-1.592-4.738-5.192-4.948-1.705-1.464-5.55-2.973-5.55-2.973s-1.223-4.135-4.705-4.199c-1.93-1.61-3.95-3.522-7.028-4.519-2.509-.795-6.032-.191-7.571-.438-1.53-.247-2.365-4.291-6.439-2.296-1.529-.33-4.156-.073-4.156-.073-.97-.768-2.156-1.39-2.646-1.4-.47-.008-1.49.641-2.755-.612-3.09-2.418-4.237-.164-6.76-1.152-1.068-.42-4.008-2.223-6.606-2.214-4.626.01-4.734 1.446-8.017-1.033-2.666-2.012-5.237 1.721-7.05 1.804-1.814.082-2.794-.348-5.038-2.196-2.313-1.902-3.245-2.295-5.558-2.332-1.911-.028-3.371.347-4.724 1.216-1.94 1.263-1.96 1.263-2.842.156-.48-.604-2.568-1.683-4.636-2.397l-5.428.175-4.903.84c-5.92-2.057-7.581-1.16-10.61-.877-2.097.201-6.002 1.19-7.384.906a656 656 0 0 1-5.337-1.126z"/>
</g>
</svg>